%TF.GenerationSoftware,KiCad,Pcbnew,10.0.5*%
%TF.CreationDate,2026-09-27T17:10:09+08:00*%
%TF.ProjectId,k2_v4_8L.l8,6b325f76-345f-4384-9c2e-6c382e6b6963,rev?*%
%TF.SameCoordinates,Original*%
%TF.FileFunction,Copper,L6,Inr*%
%TF.FilePolarity,Positive*%
%FSLAX46Y46*%
G04 Gerber Fmt 4.6, Leading zero omitted, Abs format (unit mm)*
G04 Created by KiCad (PCBNEW 10.0.5) date 2026-09-27 17:10:09*
%MOMM*%
%LPD*%
G01*
G04 APERTURE LIST*
%TA.AperFunction,ComponentPad*%
%ADD10C,1.500000*%
%TD*%
%TA.AperFunction,ViaPad*%
%ADD11C,0.350000*%
%TD*%
%TA.AperFunction,Conductor*%
%ADD12C,0.200000*%
%TD*%
%TA.AperFunction,Conductor*%
%ADD13C,0.160000*%
%TD*%
G04 APERTURE END LIST*
D10*
%TO.N,GND*%
%TO.C,J11*%
X31750000Y-65380000D03*
%TO.N,I2C2_SCL*%
X29210000Y-65380000D03*
%TO.N,I2C2_SDA*%
X26670000Y-65380000D03*
%TO.N,P3V3_AUX*%
X24130000Y-65380000D03*
%TD*%
%TO.N,UART_TX*%
%TO.C,J9*%
X31750000Y-55960000D03*
%TO.N,UART_RX*%
X29210000Y-55960000D03*
%TO.N,GND*%
X26670000Y-55960000D03*
%TO.N,MCU_VDD*%
X24130000Y-55960000D03*
%TD*%
%TO.N,SWDIO*%
%TO.C,J13*%
X31750000Y-46540000D03*
%TO.N,SWCLK_BOOT0*%
X29210000Y-46540000D03*
%TO.N,GND*%
X26670000Y-46540000D03*
%TO.N,MCU_VDD*%
X24130000Y-46540000D03*
%TD*%
%TO.N,PWR_CTRL_OUT*%
%TO.C,J6*%
X29210000Y-39660000D03*
%TO.N,GND*%
X26670000Y-39660000D03*
%TD*%
%TO.N,12V_IN*%
%TO.C,J12*%
X29210000Y-35320000D03*
%TO.N,GND*%
X26670000Y-35320000D03*
%TD*%
D11*
%TO.N,GND*%
X135475000Y-50700000D03*
X133775000Y-60300000D03*
X94275000Y-54500000D03*
X83575000Y-56516000D03*
X59500000Y-64775000D03*
X95350000Y-49135000D03*
X137140000Y-44700000D03*
X51725000Y-41000000D03*
X117580000Y-47220000D03*
X132650000Y-57350000D03*
X121580000Y-43800000D03*
X138060000Y-50100000D03*
X102100000Y-43200000D03*
X103400000Y-50505000D03*
X56500000Y-40250000D03*
X46725000Y-59365000D03*
X101475000Y-50980000D03*
X123580000Y-42280000D03*
X35750000Y-55175000D03*
X103651000Y-55365000D03*
X134430000Y-57300000D03*
X96550000Y-49135000D03*
X133875000Y-59100000D03*
X100275000Y-50980000D03*
X45025000Y-35000000D03*
X96675000Y-54500000D03*
X142080000Y-47100000D03*
X120170000Y-39400000D03*
X84055000Y-54490000D03*
X127580000Y-40380000D03*
X135475000Y-57300000D03*
X133775000Y-45300000D03*
X105315000Y-54790000D03*
X36250000Y-55425000D03*
X103651000Y-52515000D03*
X140340000Y-43500000D03*
X102825000Y-53000000D03*
X93225000Y-53000000D03*
X99075000Y-50980000D03*
X83430000Y-52715000D03*
X62500000Y-65950000D03*
X95050000Y-50755000D03*
X58900000Y-50700000D03*
X133775000Y-57300000D03*
X75770000Y-58550000D03*
X132650000Y-42250000D03*
X102770000Y-44700000D03*
X133229999Y-60300000D03*
X100150000Y-49135000D03*
X133775000Y-44700000D03*
X92025000Y-53000000D03*
X108170000Y-40540000D03*
X30738266Y-53088225D03*
X96250000Y-50755000D03*
X133775000Y-53700000D03*
X131525000Y-46500000D03*
X133875000Y-52500000D03*
X104170000Y-40920000D03*
X42050000Y-62830000D03*
X99225000Y-53000000D03*
X102250000Y-50755000D03*
X37250000Y-48925000D03*
X126170000Y-48140000D03*
X103651000Y-53115000D03*
X129960000Y-48300000D03*
X94425000Y-53000000D03*
X42050000Y-61560000D03*
X65525000Y-63950000D03*
X92025000Y-42000000D03*
X57700000Y-62275000D03*
X116170000Y-40160000D03*
X99075000Y-54500000D03*
X101475000Y-54500000D03*
X36625000Y-54700000D03*
X100275000Y-54500000D03*
X101050000Y-50755000D03*
X81770000Y-57550000D03*
X35250000Y-48575000D03*
X58300000Y-65150000D03*
X99850000Y-50755000D03*
X134430000Y-59100000D03*
X45225000Y-37500000D03*
X133775000Y-48300000D03*
X98650000Y-50755000D03*
X133875000Y-48900000D03*
X39074999Y-53250000D03*
X97750000Y-49135000D03*
X95625000Y-53000000D03*
X112170000Y-42060000D03*
X136125000Y-45300000D03*
X53475000Y-63950000D03*
X92025000Y-40000000D03*
X89625000Y-53000000D03*
X30725000Y-41500000D03*
X95475000Y-54500000D03*
X64900000Y-56900000D03*
X31825000Y-36365000D03*
X101625000Y-53000000D03*
X63700000Y-66349999D03*
X42050000Y-57170000D03*
X113580000Y-46460000D03*
X83430000Y-50865000D03*
X105315000Y-53590000D03*
X36750000Y-55425000D03*
X135475000Y-50100000D03*
X90825000Y-53000000D03*
X59500000Y-60625000D03*
X98025000Y-53000000D03*
X36750000Y-49775000D03*
X64300000Y-66750000D03*
X132650000Y-62050000D03*
X103651000Y-51315000D03*
X96675000Y-50980000D03*
X86025000Y-53000000D03*
X53475000Y-61450000D03*
X83430000Y-51515000D03*
X96825000Y-53000000D03*
X133775000Y-50700000D03*
X81480000Y-59050000D03*
X93225000Y-54500000D03*
X102550000Y-49135000D03*
X97875000Y-50980000D03*
X43200000Y-53725000D03*
X84574000Y-53590000D03*
X97450000Y-50755000D03*
X110770000Y-48300000D03*
X45475000Y-40000000D03*
X102675000Y-54500000D03*
X97875000Y-54500000D03*
X130560000Y-44700000D03*
X133875000Y-47100000D03*
X55900000Y-40650000D03*
X95475000Y-50980000D03*
X133830000Y-63300000D03*
X92025000Y-41000000D03*
X32966779Y-51169323D03*
X101350000Y-49135000D03*
X82285000Y-53590000D03*
X103750000Y-49135000D03*
X133775000Y-50100000D03*
X34750000Y-48925000D03*
X87225000Y-53000000D03*
X103400000Y-53815000D03*
X135475000Y-53700000D03*
X100425000Y-53000000D03*
X92025000Y-43000000D03*
X133875000Y-55500000D03*
X59500000Y-50500000D03*
X88425000Y-53000000D03*
X65525000Y-61450000D03*
X57700000Y-64775000D03*
X84574000Y-54190000D03*
X98950000Y-49135000D03*
X102675000Y-50980000D03*
X94425000Y-50980000D03*
X133875000Y-43500000D03*
X133775000Y-62100000D03*
X133775000Y-54900000D03*
X106170000Y-42440000D03*
X61900000Y-66150000D03*
X45800000Y-50275000D03*
X103176000Y-52390000D03*
X84675000Y-53000000D03*
X103651000Y-54765000D03*
X91450000Y-37675000D03*
X136125000Y-44700000D03*
X79480000Y-59050000D03*
%TO.N,MCU_VDD*%
X56725000Y-68500000D03*
X45950000Y-57170000D03*
X56725000Y-67500000D03*
X56725000Y-66500000D03*
X41275000Y-59365000D03*
X30475000Y-54500000D03*
X56725000Y-69500000D03*
%TO.N,PERSTA#*%
X133700000Y-56300000D03*
X50050000Y-37000000D03*
X59800000Y-40900000D03*
X32525000Y-54500000D03*
X59750000Y-41400000D03*
X69500000Y-50600000D03*
%TO.N,P3V3_AUX*%
X50550000Y-37800000D03*
X51150000Y-38000000D03*
X28975000Y-53000000D03*
X51725000Y-37000000D03*
X58900000Y-62275000D03*
X34250000Y-55262500D03*
X59864700Y-48439700D03*
X34350000Y-57200000D03*
X59750000Y-44700000D03*
%TO.N,I2C2_SCL*%
X55050000Y-68500000D03*
X82866700Y-51215000D03*
%TO.N,UART_TX*%
X39987500Y-52750000D03*
X30411329Y-56062563D03*
X32725000Y-56000000D03*
%TO.N,UART_RX*%
X40162500Y-51250000D03*
%TO.N,SWCLK_BOOT0*%
X29836871Y-47099923D03*
%TO.N,I2C1_SCL*%
X33750000Y-47837500D03*
X45950000Y-60635000D03*
%TO.N,I2C1_SDA*%
X45950000Y-61905000D03*
X45400000Y-48037500D03*
X33225000Y-47880800D03*
X62800000Y-50437500D03*
X33300000Y-48837500D03*
X135000000Y-56137500D03*
X41300000Y-48037500D03*
X102500000Y-52137500D03*
X82300000Y-51437500D03*
%TO.N,12V_IN*%
X28275000Y-41500000D03*
X31050000Y-39830000D03*
X35725000Y-37635000D03*
%TO.N,P3V3*%
X89000000Y-53975000D03*
X90650000Y-41275000D03*
X85400000Y-53975000D03*
X93800000Y-53525000D03*
X89625000Y-54000000D03*
X89775000Y-38500000D03*
X93800000Y-53975000D03*
X96200000Y-53975000D03*
X90825000Y-54000000D03*
X101725000Y-54000000D03*
X101000000Y-53975000D03*
X97400000Y-53975000D03*
X89975000Y-41000000D03*
X40950000Y-38775000D03*
X100525000Y-54000000D03*
X86600000Y-53975000D03*
X85875000Y-54000000D03*
X87225000Y-54000000D03*
X92600000Y-53975000D03*
X42525000Y-40000000D03*
X95725000Y-54000000D03*
X28990000Y-38200000D03*
X99800000Y-53975000D03*
X98600000Y-53975000D03*
X88275000Y-54000000D03*
X91400000Y-53975000D03*
X40707106Y-35932106D03*
X99325000Y-54000000D03*
X90200000Y-53975000D03*
X92600000Y-53525000D03*
X98125000Y-54000000D03*
X89975000Y-40000000D03*
X34950000Y-39830000D03*
X94525000Y-54000000D03*
X91875000Y-54000000D03*
X95000000Y-53975000D03*
X87800000Y-53975000D03*
X90650000Y-42275000D03*
X96925000Y-54000000D03*
X102200000Y-53975000D03*
%TO.N,PCIE_DN_OUT4_P_MCIO*%
X89100000Y-52366000D03*
X54400000Y-42010000D03*
X89100000Y-42010000D03*
%TO.N,PCIE_DN_OUT4_N_MCIO*%
X89650000Y-51423000D03*
X55000000Y-42510000D03*
X89650000Y-42510000D03*
%TO.N,PCIE_DN_OUT5_P_MCIO*%
X90300000Y-52366000D03*
X56200000Y-43080000D03*
X90300000Y-43080000D03*
%TO.N,PCIE_DN_OUT5_N_MCIO*%
X90850000Y-51423000D03*
X56800000Y-43580000D03*
X90850000Y-43580000D03*
%TO.N,PCIE_DN_OUT6_P_MCIO*%
X91500000Y-52366000D03*
X61600000Y-44150000D03*
X91500000Y-44150000D03*
%TO.N,PCIE_DN_OUT6_N_MCIO*%
X92050000Y-51423000D03*
X62200000Y-44650000D03*
X92050000Y-44650000D03*
%TO.N,PCIE_DN_OUT7_P_MCIO*%
X92700000Y-52366000D03*
X63400000Y-34520000D03*
X92700000Y-34520000D03*
%TO.N,PCIE_DN_OUT7_N_MCIO*%
X93700000Y-51673000D03*
X64000000Y-35020000D03*
X93700000Y-35020000D03*
%TO.N,PCIE_UP4_P*%
X54400000Y-65000000D03*
X90100000Y-46290000D03*
%TO.N,PCIE_UP4_N*%
X55000000Y-65000000D03*
X89600000Y-46790000D03*
%TO.N,PCIE_UP5_P*%
X56200000Y-65000000D03*
X91300000Y-47360000D03*
%TO.N,PCIE_UP5_N*%
X56800000Y-65000000D03*
X90800000Y-47860000D03*
%TO.N,PERSTB#*%
X135000000Y-62100000D03*
X67400000Y-63500000D03*
X91300000Y-67200000D03*
%TO.N,PCIE_UP6_P*%
X61600000Y-65000000D03*
X91950000Y-48430000D03*
%TO.N,PCIE_UP6_N*%
X62200000Y-65000000D03*
X92450000Y-48930000D03*
%TO.N,PCIE_UP7_P*%
X63400000Y-65000000D03*
X93250000Y-49500000D03*
%TO.N,PCIE_UP7_N*%
X64000000Y-65000000D03*
X93750000Y-50000000D03*
%TO.N,PWR_BTN_ISO*%
X53930800Y-37016100D03*
X43200000Y-51100000D03*
%TO.N,PCIE_UP_OUT0_P_J2*%
X84850000Y-54880000D03*
X141220000Y-56834000D03*
X84850000Y-56834000D03*
%TO.N,PCIE_UP_OUT0_N_J2*%
X84350000Y-55723000D03*
X127010000Y-56334000D03*
X84350000Y-56334000D03*
%TO.N,PCIE_UP_OUT1_P_J2*%
X86050000Y-54880000D03*
X127590000Y-57783000D03*
X86050000Y-57783000D03*
%TO.N,PCIE_UP_OUT1_N_J2*%
X85500000Y-55823000D03*
X139480000Y-58283000D03*
X85500000Y-58283000D03*
%TO.N,PCIE_UP_OUT2_P_J2*%
X87250000Y-54880000D03*
X137160000Y-59732000D03*
X87250000Y-59732000D03*
%TO.N,PCIE_UP_OUT2_N_J2*%
X86700000Y-55823000D03*
X129330000Y-59232000D03*
X86700000Y-59232000D03*
%TO.N,PCIE_UP_OUT3_P_J2*%
X88450000Y-54880000D03*
X130490000Y-60681000D03*
X88450000Y-60681000D03*
%TO.N,PCIE_UP_OUT3_N_J2*%
X87900000Y-55823000D03*
X136000000Y-61181000D03*
X87900000Y-61181000D03*
%TO.N,PCIE_UP_OUT4_P_J2*%
X89650000Y-54880000D03*
X140060000Y-62630000D03*
X89650000Y-62630000D03*
%TO.N,PCIE_UP_OUT4_N_J2*%
X89100000Y-55823000D03*
X131650000Y-62130000D03*
X89100000Y-62130000D03*
%TO.N,PCIE_UP_OUT5_P_J2*%
X90850000Y-54880000D03*
X128750000Y-63579000D03*
X90850000Y-63579000D03*
%TO.N,PCIE_UP_OUT5_N_J2*%
X90300000Y-55823000D03*
X138900000Y-64078999D03*
X90300000Y-64078999D03*
%TO.N,PCIE_UP_OUT6_P_J2*%
X92050000Y-54880000D03*
X137740000Y-65528000D03*
X92050000Y-65528000D03*
%TO.N,PCIE_UP_OUT6_N_J2*%
X91500000Y-55823000D03*
X129910000Y-65028000D03*
X91500000Y-65028000D03*
%TO.N,PCIE_UP_OUT7_P_J2*%
X93700000Y-55130000D03*
X131070000Y-66477000D03*
X93700000Y-66477000D03*
%TO.N,PCIE_UP_OUT7_N_J2*%
X92700000Y-55823000D03*
X136580000Y-66977000D03*
X92700000Y-66977000D03*
%TO.N,PCIE_DN0_P*%
X125850000Y-67926000D03*
X84750000Y-67926000D03*
%TO.N,PCIE_DN0_N*%
X142380000Y-68426000D03*
X85250000Y-68426000D03*
%TO.N,PCIE_DN1_P*%
X85950000Y-69875000D03*
X141800000Y-69875000D03*
%TO.N,PCIE_DN1_N*%
X86450000Y-69375000D03*
X126430000Y-69375000D03*
%TO.N,PCIE_DN2_P*%
X127010000Y-70824000D03*
X87750000Y-70824000D03*
%TO.N,PCIE_DN2_N*%
X87250000Y-71324000D03*
X141220000Y-71324000D03*
%TO.N,PCIE_DN3_P*%
X88900000Y-72773000D03*
X140640000Y-72773000D03*
%TO.N,PCIE_DN3_N*%
X127590000Y-72273000D03*
X88400000Y-72273000D03*
%TO.N,PCIE_DN4_P*%
X89550000Y-73722000D03*
X128169999Y-73722000D03*
%TO.N,PCIE_DN4_N*%
X139480000Y-74222000D03*
X90050000Y-74222000D03*
%TO.N,PCIE_DN5_P*%
X138320000Y-75671000D03*
X90750000Y-75671000D03*
%TO.N,PCIE_DN5_N*%
X91250000Y-75171000D03*
X129330000Y-75171000D03*
%TO.N,PCIE_DN6_P*%
X92550000Y-76620000D03*
X130490000Y-76620000D03*
%TO.N,PCIE_DN6_N*%
X137160000Y-77120000D03*
X92050000Y-77120000D03*
%TO.N,PCIE_DN7_P*%
X136000000Y-78569000D03*
X93700000Y-78569000D03*
%TO.N,PCIE_DN7_N*%
X93200000Y-78069000D03*
X131650000Y-78069000D03*
%TO.N,PCIE_DN_OUT1_N_MCIO*%
X86050000Y-51423000D03*
X60400000Y-39870000D03*
X86050000Y-39870000D03*
%TO.N,PCIE_UP1_P*%
X62200000Y-35590000D03*
X86500000Y-35590000D03*
%TO.N,PCIE_DN_OUT2_P_MCIO*%
X86700000Y-52366000D03*
X58000000Y-39300000D03*
X86700000Y-39300000D03*
%TO.N,PCIE_UP2_P*%
X87200000Y-45220000D03*
X59200000Y-45220000D03*
%TO.N,PCIE_DN_OUT2_N_MCIO*%
X87250000Y-51423000D03*
X57400000Y-38800000D03*
X87250000Y-38800000D03*
%TO.N,PCIE_UP2_N*%
X58600000Y-45720000D03*
X87700000Y-45720000D03*
%TO.N,PCIE_DN_OUT3_P_MCIO*%
X87900000Y-52366000D03*
X53800000Y-38230000D03*
X87900000Y-38230000D03*
%TO.N,PCIE_UP3_P*%
X88400000Y-33950000D03*
X55000000Y-33950000D03*
%TO.N,PCIE_DN_OUT3_N_MCIO*%
X88450000Y-51423000D03*
X53200000Y-37730000D03*
X88450000Y-37730000D03*
%TO.N,PCIE_UP3_N*%
X54400000Y-33450000D03*
X88900000Y-33450000D03*
%TO.N,DS320_STRAP_A_ADDR0_7-0*%
X84210000Y-63890000D03*
X82910000Y-52990000D03*
%TO.N,DS320_STRAP_B_ADDR0_7-0*%
X82360000Y-54490000D03*
X84160000Y-66690000D03*
%TO.N,DS320_STRAP_B_ADDR1_7-0*%
X106750000Y-55479600D03*
X103050000Y-51879600D03*
%TO.N,DS320_STRAP_B_ADDR0_15-8*%
X105125000Y-52090000D03*
X82025000Y-62190000D03*
%TO.N,PCIE_DN_OUT0_P_MCIO*%
X84300000Y-52366000D03*
X65200000Y-41440000D03*
X84300000Y-41440000D03*
%TO.N,PCIE_UP0_N*%
X64599999Y-37160000D03*
X84800000Y-37160000D03*
%TO.N,PCIE_DN_OUT0_N_MCIO*%
X84850000Y-51423000D03*
X64599999Y-40940000D03*
X84850000Y-40940000D03*
%TO.N,PCIE_UP0_P*%
X65200000Y-36660000D03*
X85300000Y-36660000D03*
%TO.N,PCIE_DN_OUT1_P_MCIO*%
X85500000Y-52366000D03*
X61000000Y-40370000D03*
X85500000Y-40370000D03*
%TO.N,PCIE_UP1_N*%
X61600000Y-36090000D03*
X86000000Y-36090000D03*
%TO.N,SW_U2*%
X40700000Y-34600000D03*
X34162500Y-35095000D03*
%TO.N,LED_A*%
X49725000Y-66500000D03*
%TO.N,PWR_CTRL_OUT*%
X45800000Y-52900000D03*
%TD*%
%TO.N,PERSTA#*%
D12*
X57050000Y-39300000D02*
X56950000Y-39200000D01*
X50150000Y-37000000D02*
X50050000Y-37000000D01*
X51450000Y-37500000D02*
X51350000Y-37400000D01*
X78400000Y-50700000D02*
X78300000Y-50600000D01*
X83800000Y-50500000D02*
X83700000Y-50400000D01*
X50250000Y-37100000D02*
X50150000Y-37000000D01*
X103900000Y-50400000D02*
X103900000Y-50200000D01*
X51850000Y-37600000D02*
X51750000Y-37500000D01*
X94500000Y-50000000D02*
X94000000Y-50500000D01*
X118100000Y-55800000D02*
X117900000Y-55600000D01*
X56650000Y-39100000D02*
X56450000Y-39100000D01*
X56350000Y-39000000D02*
X56150000Y-39000000D01*
X127300000Y-55900000D02*
X127200000Y-55800000D01*
X94000000Y-50500000D02*
X83800000Y-50500000D01*
X52850000Y-38200000D02*
X52350000Y-37700000D01*
X55450000Y-38700000D02*
X53450000Y-38700000D01*
X50450000Y-37100000D02*
X50250000Y-37100000D01*
X56050000Y-38900000D02*
X55850000Y-38900000D01*
X79900000Y-50400000D02*
X79600000Y-50700000D01*
X103600000Y-50000000D02*
X94500000Y-50000000D01*
X55750000Y-38800000D02*
X55550000Y-38800000D01*
X103700000Y-50100000D02*
X103600000Y-50000000D01*
X105400000Y-51600000D02*
X105100000Y-51600000D01*
X78300000Y-50600000D02*
X69500000Y-50600000D01*
X57250000Y-39300000D02*
X57050000Y-39300000D01*
X127200000Y-55800000D02*
X118100000Y-55800000D01*
X59750000Y-41400000D02*
X58150000Y-39800000D01*
X103800000Y-50100000D02*
X103700000Y-50100000D01*
X51150000Y-37400000D02*
X51050000Y-37300000D01*
X52150000Y-37700000D02*
X52050000Y-37600000D01*
X56150000Y-39000000D02*
X56050000Y-38900000D01*
X105100000Y-51600000D02*
X103900000Y-50400000D01*
X55850000Y-38900000D02*
X55750000Y-38800000D01*
X56950000Y-39200000D02*
X56750000Y-39200000D01*
X105600000Y-51800000D02*
X105400000Y-51600000D01*
X79600000Y-50700000D02*
X78400000Y-50700000D01*
X103900000Y-50200000D02*
X103800000Y-50100000D01*
X56450000Y-39100000D02*
X56350000Y-39000000D01*
X83700000Y-50400000D02*
X79900000Y-50400000D01*
X52950000Y-38200000D02*
X52850000Y-38200000D01*
X133700000Y-56300000D02*
X127800000Y-56300000D01*
X52050000Y-37600000D02*
X51850000Y-37600000D01*
X56750000Y-39200000D02*
X56650000Y-39100000D01*
X50550000Y-37200000D02*
X50450000Y-37100000D01*
X51050000Y-37300000D02*
X50850000Y-37300000D01*
X55550000Y-38800000D02*
X55450000Y-38700000D01*
X52350000Y-37700000D02*
X52150000Y-37700000D01*
X53450000Y-38700000D02*
X52950000Y-38200000D01*
X51750000Y-37500000D02*
X51450000Y-37500000D01*
X127400000Y-55900000D02*
X127300000Y-55900000D01*
X50850000Y-37300000D02*
X50750000Y-37200000D01*
X108600000Y-55600000D02*
X105600000Y-52600000D01*
X58150000Y-39800000D02*
X57750000Y-39800000D01*
X57750000Y-39800000D02*
X57250000Y-39300000D01*
X105600000Y-52600000D02*
X105600000Y-51800000D01*
X51350000Y-37400000D02*
X51150000Y-37400000D01*
X50750000Y-37200000D02*
X50550000Y-37200000D01*
X127800000Y-56300000D02*
X127400000Y-55900000D01*
X117900000Y-55600000D02*
X108600000Y-55600000D01*
%TO.N,P3V3_AUX*%
X52050000Y-40300000D02*
X51950000Y-40200000D01*
X50050000Y-39900000D02*
X50050000Y-39700000D01*
X49950000Y-40000000D02*
X50050000Y-39900000D01*
X51650000Y-39300000D02*
X51650000Y-39100000D01*
X55850000Y-43500000D02*
X55750000Y-43500000D01*
X51850000Y-39900000D02*
X51850000Y-39700000D01*
X50450000Y-38400000D02*
X50550000Y-38300000D01*
X55750000Y-43500000D02*
X55250000Y-43000000D01*
X50250000Y-39100000D02*
X50350000Y-39000000D01*
X51750000Y-39600000D02*
X51750000Y-39400000D01*
X51650000Y-39100000D02*
X51550000Y-39000000D01*
X51850000Y-39700000D02*
X51750000Y-39600000D01*
X54150000Y-42500000D02*
X54050000Y-42500000D01*
X51950000Y-40000000D02*
X51850000Y-39900000D01*
X51350000Y-38300000D02*
X51350000Y-38200000D01*
X56450000Y-44000000D02*
X56350000Y-44000000D01*
X50250000Y-39300000D02*
X50250000Y-39100000D01*
X51450000Y-38400000D02*
X51350000Y-38300000D01*
X56350000Y-44000000D02*
X55850000Y-43500000D01*
X52050000Y-40500000D02*
X52050000Y-40300000D01*
X51450000Y-38700000D02*
X51450000Y-38400000D01*
X49950000Y-40200000D02*
X49950000Y-40000000D01*
X50150000Y-39400000D02*
X50250000Y-39300000D01*
X51350000Y-38200000D02*
X51150000Y-38000000D01*
X59150000Y-44100000D02*
X56550000Y-44100000D01*
X50550000Y-38300000D02*
X50550000Y-37800000D01*
X35250000Y-56300000D02*
X35250000Y-54900000D01*
X35250000Y-54900000D02*
X49950000Y-40200000D01*
X50050000Y-39700000D02*
X50150000Y-39600000D01*
X50150000Y-39600000D02*
X50150000Y-39400000D01*
X50350000Y-38800000D02*
X50450000Y-38700000D01*
X54650000Y-43000000D02*
X54150000Y-42500000D01*
X51550000Y-39000000D02*
X51550000Y-38800000D01*
X50350000Y-39000000D02*
X50350000Y-38800000D01*
X34350000Y-57200000D02*
X35250000Y-56300000D01*
X51750000Y-39400000D02*
X51650000Y-39300000D01*
X51550000Y-38800000D02*
X51450000Y-38700000D01*
X50450000Y-38700000D02*
X50450000Y-38400000D01*
X54050000Y-42500000D02*
X52050000Y-40500000D01*
X51950000Y-40200000D02*
X51950000Y-40000000D01*
X59750000Y-44700000D02*
X59150000Y-44100000D01*
X56550000Y-44100000D02*
X56450000Y-44000000D01*
X55250000Y-43000000D02*
X54650000Y-43000000D01*
%TO.N,I2C1_SDA*%
X93100000Y-51837500D02*
X93400000Y-52137500D01*
X90500000Y-51837500D02*
X90600000Y-51937500D01*
X83800000Y-52037500D02*
X83900000Y-51937500D01*
X84100000Y-51837500D02*
X84500000Y-51837500D01*
X87000000Y-51937500D02*
X87600000Y-51937500D01*
X82700000Y-51737500D02*
X82900000Y-51737500D01*
X89300000Y-51837500D02*
X89400000Y-51937500D01*
X86400000Y-51937500D02*
X86500000Y-51837500D01*
X90600000Y-51937500D02*
X91200000Y-51937500D01*
X84500000Y-51837500D02*
X84600000Y-51937500D01*
X85800000Y-51937500D02*
X86400000Y-51937500D01*
X91800000Y-51937500D02*
X92400000Y-51937500D01*
X91300000Y-51837500D02*
X91700000Y-51837500D01*
X82600000Y-51637500D02*
X82700000Y-51737500D01*
X88200000Y-51937500D02*
X88800000Y-51937500D01*
X34900000Y-48137500D02*
X35000000Y-48137500D01*
X82900000Y-51737500D02*
X83200000Y-52037500D01*
X85300000Y-51837500D02*
X85700000Y-51837500D01*
X83200000Y-52037500D02*
X83800000Y-52037500D01*
X92400000Y-51937500D02*
X92500000Y-51837500D01*
X89400000Y-51937500D02*
X90000000Y-51937500D01*
X84600000Y-51937500D02*
X85200000Y-51937500D01*
X85200000Y-51937500D02*
X85300000Y-51837500D01*
X91700000Y-51837500D02*
X91800000Y-51937500D01*
X91200000Y-51937500D02*
X91300000Y-51837500D01*
X87700000Y-51837500D02*
X88100000Y-51837500D01*
X85700000Y-51837500D02*
X85800000Y-51937500D01*
X90000000Y-51937500D02*
X90100000Y-51837500D01*
X82300000Y-51437500D02*
X82500000Y-51637500D01*
X33300000Y-48837500D02*
X34100000Y-48837500D01*
X88100000Y-51837500D02*
X88200000Y-51937500D01*
X88800000Y-51937500D02*
X88900000Y-51837500D01*
X82500000Y-51637500D02*
X82600000Y-51637500D01*
X86500000Y-51837500D02*
X86900000Y-51837500D01*
X92500000Y-51837500D02*
X93100000Y-51837500D01*
X35100000Y-48037500D02*
X41300000Y-48037500D01*
X34600000Y-48437500D02*
X34900000Y-48137500D01*
X93400000Y-52137500D02*
X102500000Y-52137500D01*
X34500000Y-48437500D02*
X34600000Y-48437500D01*
X88900000Y-51837500D02*
X89300000Y-51837500D01*
X87600000Y-51937500D02*
X87700000Y-51837500D01*
X35000000Y-48137500D02*
X35100000Y-48037500D01*
X84000000Y-51937500D02*
X84100000Y-51837500D01*
X86900000Y-51837500D02*
X87000000Y-51937500D01*
X34100000Y-48837500D02*
X34500000Y-48437500D01*
X83900000Y-51937500D02*
X84000000Y-51937500D01*
X90100000Y-51837500D02*
X90500000Y-51837500D01*
%TO.N,PCIE_DN_OUT4_P_MCIO*%
D13*
X89100000Y-42010000D02*
X54400000Y-42010000D01*
%TO.N,PCIE_DN_OUT4_N_MCIO*%
X74014417Y-42510000D02*
X74094766Y-42590349D01*
X63717199Y-42590349D02*
X63717199Y-42510000D01*
X76400892Y-42510000D02*
X77473606Y-42510000D01*
X70555228Y-42510000D02*
X70635577Y-42590349D01*
X65942976Y-42510000D02*
X66023325Y-42590349D01*
X74094766Y-42510000D02*
X75167480Y-42510000D01*
X71788640Y-42590349D02*
X71788640Y-42510000D01*
X71708291Y-42510000D02*
X71788640Y-42590349D01*
X69482514Y-42510000D02*
X70555228Y-42510000D01*
X75247829Y-42590349D02*
X75247829Y-42510000D01*
X89650000Y-42510000D02*
X82085864Y-42510000D01*
X68249102Y-42510000D02*
X68329451Y-42590349D01*
X71788640Y-42510000D02*
X72861354Y-42510000D01*
X70635577Y-42510000D02*
X71708291Y-42510000D01*
X78707018Y-42510000D02*
X79779732Y-42510000D01*
X76320543Y-42510000D02*
X76400892Y-42590349D01*
X64789913Y-42510000D02*
X64870262Y-42590349D01*
X77473606Y-42510000D02*
X77553955Y-42590349D01*
X77553955Y-42510000D02*
X78626669Y-42510000D01*
X77553955Y-42590349D02*
X77553955Y-42510000D01*
X80932795Y-42510000D02*
X81013144Y-42590349D01*
X81013144Y-42510000D02*
X82085864Y-42510000D01*
X75167480Y-42510000D02*
X75247829Y-42590349D01*
X64870262Y-42510000D02*
X65942976Y-42510000D01*
X78626669Y-42510000D02*
X78707018Y-42590349D01*
X72861354Y-42510000D02*
X72941703Y-42590349D01*
X78707018Y-42590349D02*
X78707018Y-42510000D01*
X63636850Y-42510000D02*
X63717199Y-42590349D01*
X70635577Y-42590349D02*
X70635577Y-42510000D01*
X79779732Y-42510000D02*
X79860081Y-42590349D01*
X68329451Y-42590349D02*
X68329451Y-42510000D01*
X69402165Y-42510000D02*
X69482514Y-42590349D01*
X66023325Y-42510000D02*
X67096039Y-42510000D01*
X68329451Y-42510000D02*
X69402165Y-42510000D01*
X69482514Y-42590349D02*
X69482514Y-42510000D01*
X72941703Y-42590349D02*
X72941703Y-42510000D01*
X79860081Y-42590349D02*
X79860081Y-42510000D01*
X67096039Y-42510000D02*
X67176388Y-42590349D01*
X66023325Y-42590349D02*
X66023325Y-42510000D01*
X81013144Y-42590349D02*
X81013144Y-42510000D01*
X62564136Y-42510000D02*
X63636850Y-42510000D01*
X64870262Y-42590349D02*
X64870262Y-42510000D01*
X79860081Y-42510000D02*
X80932795Y-42510000D01*
X62564136Y-42510000D02*
X55000000Y-42510000D01*
X63717199Y-42510000D02*
X64789913Y-42510000D01*
X74094766Y-42590349D02*
X74094766Y-42510000D01*
X72941703Y-42510000D02*
X74014417Y-42510000D01*
X76400892Y-42590349D02*
X76400892Y-42510000D01*
X67176388Y-42510000D02*
X68249102Y-42510000D01*
X67176388Y-42590349D02*
X67176388Y-42510000D01*
X75247829Y-42510000D02*
X76320543Y-42510000D01*
%TO.N,PCIE_DN_OUT5_P_MCIO*%
X90300000Y-43080000D02*
X56200000Y-43080000D01*
%TO.N,PCIE_DN_OUT5_N_MCIO*%
X82432795Y-43580000D02*
X82513144Y-43660349D01*
X81360081Y-43660349D02*
X81360081Y-43580000D01*
X66370262Y-43660349D02*
X66370262Y-43580000D01*
X67523325Y-43580000D02*
X68596039Y-43580000D01*
X73288640Y-43580000D02*
X74361354Y-43580000D01*
X74441703Y-43580000D02*
X75514417Y-43580000D01*
X77820543Y-43580000D02*
X77900892Y-43660349D01*
X75514417Y-43580000D02*
X75594766Y-43660349D01*
X81279732Y-43580000D02*
X81360081Y-43660349D01*
X69829451Y-43660349D02*
X69829451Y-43580000D01*
X68676388Y-43580000D02*
X69749102Y-43580000D01*
X78973606Y-43580000D02*
X79053955Y-43660349D01*
X72055228Y-43580000D02*
X72135577Y-43660349D01*
X66289913Y-43580000D02*
X66370262Y-43660349D01*
X76747829Y-43660349D02*
X76747829Y-43580000D01*
X72135577Y-43660349D02*
X72135577Y-43580000D01*
X74441703Y-43660349D02*
X74441703Y-43580000D01*
X65136850Y-43580000D02*
X65217199Y-43660349D01*
X64064136Y-43580000D02*
X65136850Y-43580000D01*
X65217199Y-43580000D02*
X66289913Y-43580000D01*
X70982514Y-43660349D02*
X70982514Y-43580000D01*
X80207018Y-43580000D02*
X81279732Y-43580000D01*
X67442976Y-43580000D02*
X67523325Y-43660349D01*
X79053955Y-43580000D02*
X80126669Y-43580000D01*
X66370262Y-43580000D02*
X67442976Y-43580000D01*
X65217199Y-43660349D02*
X65217199Y-43580000D01*
X73288640Y-43660349D02*
X73288640Y-43580000D01*
X80126669Y-43580000D02*
X80207018Y-43660349D01*
X82513144Y-43660349D02*
X82513144Y-43580000D01*
X90850000Y-43580000D02*
X83585864Y-43580000D01*
X73208291Y-43580000D02*
X73288640Y-43660349D01*
X72135577Y-43580000D02*
X73208291Y-43580000D01*
X75594766Y-43580000D02*
X76667480Y-43580000D01*
X68676388Y-43660349D02*
X68676388Y-43580000D01*
X81360081Y-43580000D02*
X82432795Y-43580000D01*
X69749102Y-43580000D02*
X69829451Y-43660349D01*
X75594766Y-43660349D02*
X75594766Y-43580000D01*
X70902165Y-43580000D02*
X70982514Y-43660349D01*
X70982514Y-43580000D02*
X72055228Y-43580000D01*
X68596039Y-43580000D02*
X68676388Y-43660349D01*
X69829451Y-43580000D02*
X70902165Y-43580000D01*
X76747829Y-43580000D02*
X77820543Y-43580000D01*
X74361354Y-43580000D02*
X74441703Y-43660349D01*
X67523325Y-43660349D02*
X67523325Y-43580000D01*
X76667480Y-43580000D02*
X76747829Y-43660349D01*
X77900892Y-43580000D02*
X78973606Y-43580000D01*
X80207018Y-43660349D02*
X80207018Y-43580000D01*
X79053955Y-43660349D02*
X79053955Y-43580000D01*
X64064136Y-43580000D02*
X56800000Y-43580000D01*
X82513144Y-43580000D02*
X83585864Y-43580000D01*
X77900892Y-43660349D02*
X77900892Y-43580000D01*
%TO.N,PCIE_DN_OUT6_P_MCIO*%
X91500000Y-44150000D02*
X61600000Y-44150000D01*
%TO.N,PCIE_DN_OUT6_N_MCIO*%
X71976388Y-44730349D02*
X71976388Y-44650000D01*
X84660081Y-44650000D02*
X85732795Y-44650000D01*
X77741703Y-44650000D02*
X78814417Y-44650000D01*
X71896039Y-44650000D02*
X71976388Y-44730349D01*
X75435577Y-44730349D02*
X75435577Y-44650000D01*
X84660081Y-44730349D02*
X84660081Y-44650000D01*
X68517199Y-44650000D02*
X69589913Y-44650000D01*
X80047829Y-44730349D02*
X80047829Y-44650000D01*
X85813144Y-44650000D02*
X86885864Y-44650000D01*
X75435577Y-44650000D02*
X76508291Y-44650000D01*
X81120543Y-44650000D02*
X81200892Y-44730349D01*
X76588640Y-44730349D02*
X76588640Y-44650000D01*
X84579732Y-44650000D02*
X84660081Y-44730349D01*
X83426669Y-44650000D02*
X83507018Y-44730349D01*
X75355228Y-44650000D02*
X75435577Y-44730349D01*
X77741703Y-44730349D02*
X77741703Y-44650000D01*
X83507018Y-44650000D02*
X84579732Y-44650000D01*
X77661354Y-44650000D02*
X77741703Y-44730349D01*
X83507018Y-44730349D02*
X83507018Y-44650000D01*
X81200892Y-44650000D02*
X82273606Y-44650000D01*
X70742976Y-44650000D02*
X70823325Y-44730349D01*
X69670262Y-44730349D02*
X69670262Y-44650000D01*
X78814417Y-44650000D02*
X78894766Y-44730349D01*
X70823325Y-44730349D02*
X70823325Y-44650000D01*
X68436850Y-44650000D02*
X68517199Y-44730349D01*
X78894766Y-44650000D02*
X79967480Y-44650000D01*
X85732795Y-44650000D02*
X85813144Y-44730349D01*
X76588640Y-44650000D02*
X77661354Y-44650000D01*
X69589913Y-44650000D02*
X69670262Y-44730349D01*
X92050000Y-44650000D02*
X86885864Y-44650000D01*
X76508291Y-44650000D02*
X76588640Y-44730349D01*
X68517199Y-44730349D02*
X68517199Y-44650000D01*
X67364136Y-44650000D02*
X62200000Y-44650000D01*
X67364136Y-44650000D02*
X68436850Y-44650000D01*
X73129451Y-44730349D02*
X73129451Y-44650000D01*
X82353955Y-44730349D02*
X82353955Y-44650000D01*
X78894766Y-44730349D02*
X78894766Y-44650000D01*
X81200892Y-44730349D02*
X81200892Y-44650000D01*
X82273606Y-44650000D02*
X82353955Y-44730349D01*
X70823325Y-44650000D02*
X71896039Y-44650000D01*
X80047829Y-44650000D02*
X81120543Y-44650000D01*
X73129451Y-44650000D02*
X74202165Y-44650000D01*
X74282514Y-44730349D02*
X74282514Y-44650000D01*
X69670262Y-44650000D02*
X70742976Y-44650000D01*
X85813144Y-44730349D02*
X85813144Y-44650000D01*
X73049102Y-44650000D02*
X73129451Y-44730349D01*
X74282514Y-44650000D02*
X75355228Y-44650000D01*
X82353955Y-44650000D02*
X83426669Y-44650000D01*
X74202165Y-44650000D02*
X74282514Y-44730349D01*
X79967480Y-44650000D02*
X80047829Y-44730349D01*
X71976388Y-44650000D02*
X73049102Y-44650000D01*
%TO.N,PCIE_DN_OUT7_P_MCIO*%
X92700000Y-34520000D02*
X63400000Y-34520000D01*
%TO.N,PCIE_DN_OUT7_N_MCIO*%
X93700000Y-35020000D02*
X64000000Y-35020000D01*
%TO.N,PCIE_UP4_P*%
X54400000Y-46290000D02*
X54400000Y-65000000D01*
X90100000Y-46290000D02*
X54400000Y-46290000D01*
%TO.N,PCIE_UP4_N*%
X70132316Y-46869166D02*
X70132316Y-46790000D01*
X67845888Y-46790000D02*
X67925054Y-46869166D01*
X73443209Y-46869166D02*
X73443209Y-46790000D01*
X72339578Y-46869166D02*
X72339578Y-46790000D01*
X66821423Y-46790000D02*
X67845888Y-46790000D01*
X73443209Y-46790000D02*
X74467674Y-46790000D01*
X55000000Y-46790000D02*
X55000000Y-65000000D01*
X71235947Y-46790000D02*
X72260412Y-46790000D01*
X66821423Y-46790000D02*
X55000000Y-46790000D01*
X89600000Y-46790000D02*
X77778576Y-46790000D01*
X76754102Y-46869166D02*
X76754102Y-46790000D01*
X73364043Y-46790000D02*
X73443209Y-46869166D01*
X76674936Y-46790000D02*
X76754102Y-46869166D01*
X74546840Y-46869166D02*
X74546840Y-46790000D01*
X68949519Y-46790000D02*
X69028685Y-46869166D01*
X70132316Y-46790000D02*
X71156781Y-46790000D01*
X74467674Y-46790000D02*
X74546840Y-46869166D01*
X71156781Y-46790000D02*
X71235947Y-46869166D01*
X75571305Y-46790000D02*
X75650471Y-46869166D01*
X67925054Y-46790000D02*
X68949519Y-46790000D01*
X74546840Y-46790000D02*
X75571305Y-46790000D01*
X69028685Y-46790000D02*
X70053150Y-46790000D01*
X72260412Y-46790000D02*
X72339578Y-46869166D01*
X70053150Y-46790000D02*
X70132316Y-46869166D01*
X76754102Y-46790000D02*
X77778576Y-46790000D01*
X75650471Y-46790000D02*
X76674936Y-46790000D01*
X67925054Y-46869166D02*
X67925054Y-46790000D01*
X69028685Y-46869166D02*
X69028685Y-46790000D01*
X71235947Y-46869166D02*
X71235947Y-46790000D01*
X75650471Y-46869166D02*
X75650471Y-46790000D01*
X72339578Y-46790000D02*
X73364043Y-46790000D01*
%TO.N,PCIE_UP5_P*%
X56200000Y-47360000D02*
X56200000Y-65000000D01*
X91300000Y-47360000D02*
X56200000Y-47360000D01*
%TO.N,PCIE_UP5_N*%
X78254103Y-47939166D02*
X78254103Y-47860000D01*
X74943210Y-47939166D02*
X74943210Y-47860000D01*
X68321424Y-47860000D02*
X56800000Y-47860000D01*
X77150472Y-47939166D02*
X77150472Y-47860000D01*
X70449520Y-47860000D02*
X70528686Y-47939166D01*
X72735948Y-47939166D02*
X72735948Y-47860000D01*
X69345889Y-47860000D02*
X69425055Y-47939166D01*
X70528686Y-47939166D02*
X70528686Y-47860000D01*
X77150472Y-47860000D02*
X78174937Y-47860000D01*
X77071306Y-47860000D02*
X77150472Y-47939166D01*
X76046841Y-47939166D02*
X76046841Y-47860000D01*
X90800000Y-47860000D02*
X79278576Y-47860000D01*
X74943210Y-47860000D02*
X75967675Y-47860000D01*
X71632317Y-47860000D02*
X72656782Y-47860000D01*
X69425055Y-47860000D02*
X70449520Y-47860000D01*
X68321424Y-47860000D02*
X69345889Y-47860000D01*
X71553151Y-47860000D02*
X71632317Y-47939166D01*
X74864044Y-47860000D02*
X74943210Y-47939166D01*
X71632317Y-47939166D02*
X71632317Y-47860000D01*
X70528686Y-47860000D02*
X71553151Y-47860000D01*
X78254103Y-47860000D02*
X79278576Y-47860000D01*
X75967675Y-47860000D02*
X76046841Y-47939166D01*
X72656782Y-47860000D02*
X72735948Y-47939166D01*
X73839579Y-47860000D02*
X74864044Y-47860000D01*
X56800000Y-47860000D02*
X56800000Y-65000000D01*
X69425055Y-47939166D02*
X69425055Y-47860000D01*
X73839579Y-47939166D02*
X73839579Y-47860000D01*
X76046841Y-47860000D02*
X77071306Y-47860000D01*
X78174937Y-47860000D02*
X78254103Y-47939166D01*
X73760413Y-47860000D02*
X73839579Y-47939166D01*
X72735948Y-47860000D02*
X73760413Y-47860000D01*
%TO.N,PERSTB#*%
D12*
X80200000Y-63500000D02*
X83900000Y-67200000D01*
X67400000Y-63500000D02*
X80200000Y-63500000D01*
X83900000Y-67200000D02*
X91300000Y-67200000D01*
%TO.N,PCIE_UP6_P*%
D13*
X91950000Y-48430000D02*
X61600000Y-48430000D01*
X61600000Y-48430000D02*
X61600000Y-65000000D01*
%TO.N,PCIE_UP6_N*%
X69803181Y-48930000D02*
X70884668Y-48930000D01*
X70884668Y-48930000D02*
X70966692Y-49012024D01*
X76784247Y-49012024D02*
X76784247Y-48930000D01*
X87255846Y-49012024D02*
X87255846Y-48930000D01*
X70966692Y-49012024D02*
X70966692Y-48930000D01*
X73211690Y-48930000D02*
X73293714Y-49012024D01*
X88337333Y-48930000D02*
X88419357Y-49012024D01*
X87255846Y-48930000D02*
X88337333Y-48930000D01*
X92450000Y-48930000D02*
X89500862Y-48930000D01*
X62200000Y-48930000D02*
X62200000Y-65000000D01*
X84928824Y-49012024D02*
X84928824Y-48930000D01*
X67476159Y-48930000D02*
X68557646Y-48930000D01*
X88419357Y-48930000D02*
X89500862Y-48930000D01*
X66230624Y-48930000D02*
X66312648Y-49012024D01*
X66312648Y-48930000D02*
X67394135Y-48930000D01*
X66312648Y-49012024D02*
X66312648Y-48930000D01*
X68639670Y-49012024D02*
X68639670Y-48930000D01*
X81438291Y-48930000D02*
X82519778Y-48930000D01*
X70966692Y-48930000D02*
X72048179Y-48930000D01*
X79111269Y-48930000D02*
X80192756Y-48930000D01*
X75620736Y-49012024D02*
X75620736Y-48930000D01*
X77947758Y-49012024D02*
X77947758Y-48930000D01*
X80274780Y-49012024D02*
X80274780Y-48930000D01*
X86010311Y-48930000D02*
X86092335Y-49012024D01*
X77947758Y-48930000D02*
X79029245Y-48930000D01*
X86092335Y-48930000D02*
X87173822Y-48930000D01*
X73293714Y-49012024D02*
X73293714Y-48930000D01*
X69803181Y-49012024D02*
X69803181Y-48930000D01*
X74457225Y-48930000D02*
X75538712Y-48930000D01*
X84846800Y-48930000D02*
X84928824Y-49012024D01*
X65149137Y-48930000D02*
X62200000Y-48930000D01*
X82601802Y-48930000D02*
X83683289Y-48930000D01*
X82601802Y-49012024D02*
X82601802Y-48930000D01*
X82519778Y-48930000D02*
X82601802Y-49012024D01*
X83765313Y-48930000D02*
X84846800Y-48930000D01*
X68639670Y-48930000D02*
X69721157Y-48930000D01*
X81438291Y-49012024D02*
X81438291Y-48930000D01*
X79029245Y-48930000D02*
X79111269Y-49012024D01*
X67476159Y-49012024D02*
X67476159Y-48930000D01*
X75620736Y-48930000D02*
X76702223Y-48930000D01*
X68557646Y-48930000D02*
X68639670Y-49012024D01*
X69721157Y-48930000D02*
X69803181Y-49012024D01*
X73293714Y-48930000D02*
X74375201Y-48930000D01*
X75538712Y-48930000D02*
X75620736Y-49012024D01*
X67394135Y-48930000D02*
X67476159Y-49012024D01*
X83683289Y-48930000D02*
X83765313Y-49012024D01*
X86092335Y-49012024D02*
X86092335Y-48930000D01*
X79111269Y-49012024D02*
X79111269Y-48930000D01*
X80192756Y-48930000D02*
X80274780Y-49012024D01*
X74375201Y-48930000D02*
X74457225Y-49012024D01*
X72130203Y-48930000D02*
X73211690Y-48930000D01*
X76702223Y-48930000D02*
X76784247Y-49012024D01*
X80274780Y-48930000D02*
X81356267Y-48930000D01*
X88419357Y-49012024D02*
X88419357Y-48930000D01*
X77865734Y-48930000D02*
X77947758Y-49012024D01*
X81356267Y-48930000D02*
X81438291Y-49012024D01*
X74457225Y-49012024D02*
X74457225Y-48930000D01*
X76784247Y-48930000D02*
X77865734Y-48930000D01*
X72048179Y-48930000D02*
X72130203Y-49012024D01*
X65149137Y-48930000D02*
X66230624Y-48930000D01*
X84928824Y-48930000D02*
X86010311Y-48930000D01*
X72130203Y-49012024D02*
X72130203Y-48930000D01*
X87173822Y-48930000D02*
X87255846Y-49012024D01*
X83765313Y-49012024D02*
X83765313Y-48930000D01*
%TO.N,PCIE_UP7_P*%
X63400000Y-49500000D02*
X63400000Y-65000000D01*
X93250000Y-49500000D02*
X63400000Y-49500000D01*
%TO.N,PCIE_UP7_N*%
X79138333Y-50000000D02*
X79413659Y-50275326D01*
X64000000Y-50000000D02*
X64000000Y-65000000D01*
X77809671Y-50000000D02*
X64000000Y-50000000D01*
X93750000Y-50000000D02*
X79940329Y-50000000D01*
X79413659Y-50000000D02*
X79940329Y-50000000D01*
X79413659Y-50275326D02*
X79413659Y-50000000D01*
X78611665Y-50275326D02*
X78611665Y-50000000D01*
X77809671Y-50000000D02*
X78336339Y-50000000D01*
X78611665Y-50000000D02*
X79138333Y-50000000D01*
X78336339Y-50000000D02*
X78611665Y-50275326D01*
%TO.N,PCIE_UP_OUT0_P_J2*%
X84850000Y-56834000D02*
X141220000Y-56834000D01*
%TO.N,PCIE_UP_OUT0_N_J2*%
X112576019Y-55999930D02*
X112576019Y-56334000D01*
X118152119Y-56334000D02*
X118021514Y-56334000D01*
X109192689Y-56334000D02*
X108858619Y-55999930D01*
X105939964Y-56334000D02*
X105605894Y-55999930D01*
X106999919Y-56334000D02*
X106869314Y-56334000D01*
X104676544Y-56334000D02*
X104545939Y-56334000D01*
X117687444Y-55999930D02*
X117687444Y-56334000D01*
X111051389Y-56334000D02*
X110717319Y-55999930D01*
X108393944Y-55999930D02*
X108393944Y-56334000D01*
X107464594Y-56334000D02*
X107333989Y-56334000D01*
X106535244Y-55999930D02*
X106535244Y-56334000D01*
X111646669Y-55999930D02*
X111646669Y-56334000D01*
X101888494Y-56334000D02*
X101757881Y-56334000D01*
X103747194Y-56334000D02*
X103616589Y-56334000D01*
X104211869Y-56334000D02*
X104081264Y-56334000D01*
X114768789Y-56334000D02*
X114434719Y-55999930D01*
X113374764Y-56334000D02*
X113040694Y-55999930D01*
X106404639Y-56334000D02*
X106070569Y-55999930D01*
X110122039Y-56334000D02*
X109787969Y-55999930D01*
X114899394Y-56334000D02*
X114768789Y-56334000D01*
X112576019Y-56334000D02*
X112445414Y-56334000D01*
X105475289Y-56334000D02*
X105141219Y-55999930D01*
X102687239Y-56334000D02*
X102353169Y-55999930D01*
X102353169Y-55999930D02*
X102353169Y-56334000D01*
X102817844Y-56334000D02*
X102687239Y-56334000D01*
X111181994Y-55999930D02*
X111181994Y-56334000D01*
X116293419Y-56334000D02*
X116162814Y-56334000D01*
X110252644Y-55999930D02*
X110252644Y-56334000D01*
X105010614Y-56334000D02*
X104676544Y-55999930D01*
X117222769Y-56334000D02*
X117092164Y-56334000D01*
X115364069Y-56334000D02*
X115233464Y-56334000D01*
X108393944Y-56334000D02*
X108263339Y-56334000D01*
X113839439Y-56334000D02*
X113505369Y-55999930D01*
X116627489Y-56334000D02*
X116293419Y-55999930D01*
X115828744Y-55999930D02*
X115828744Y-56334000D01*
X109657364Y-56334000D02*
X109323294Y-55999930D01*
X111181994Y-56334000D02*
X111051389Y-56334000D01*
X114434719Y-56334000D02*
X114304114Y-56334000D01*
X111980739Y-56334000D02*
X111646669Y-55999930D01*
X108728014Y-56334000D02*
X108393944Y-55999930D01*
X102222564Y-56334000D02*
X101888494Y-55999930D01*
X103747194Y-55999930D02*
X103747194Y-56334000D01*
X102817844Y-55999930D02*
X102817844Y-56334000D01*
X103151914Y-56334000D02*
X102817844Y-55999930D01*
X113970044Y-55999930D02*
X113970044Y-56334000D01*
X109787969Y-55999930D02*
X109787969Y-56334000D01*
X112111344Y-55999930D02*
X112111344Y-56334000D01*
X104081264Y-56334000D02*
X103747194Y-55999930D01*
X109323294Y-55999930D02*
X109323294Y-56334000D01*
X116758094Y-55999930D02*
X116758094Y-56334000D01*
X112445414Y-56334000D02*
X112111344Y-55999930D01*
X116162814Y-56334000D02*
X115828744Y-55999930D01*
X115364069Y-55999930D02*
X115364069Y-56334000D01*
X103282519Y-55999930D02*
X103282519Y-56334000D01*
X103616589Y-56334000D02*
X103282519Y-55999930D01*
X115828744Y-56334000D02*
X115698139Y-56334000D01*
X107929269Y-56334000D02*
X107798664Y-56334000D01*
X115233464Y-56334000D02*
X114899394Y-55999930D01*
X105141219Y-55999930D02*
X105141219Y-56334000D01*
X102353169Y-56334000D02*
X102222564Y-56334000D01*
X111646669Y-56334000D02*
X111516064Y-56334000D01*
X106869314Y-56334000D02*
X106535244Y-55999930D01*
X113505369Y-55999930D02*
X113505369Y-56334000D01*
X92900000Y-56334000D02*
X101757881Y-56334000D01*
X117687444Y-56334000D02*
X117556839Y-56334000D01*
X114434719Y-55999930D02*
X114434719Y-56334000D01*
X104545939Y-56334000D02*
X104211869Y-55999930D01*
X108858619Y-55999930D02*
X108858619Y-56334000D01*
X106535244Y-56334000D02*
X106404639Y-56334000D01*
X112910089Y-56334000D02*
X112576019Y-55999930D01*
X115698139Y-56334000D02*
X115364069Y-55999930D01*
X113040694Y-55999930D02*
X113040694Y-56334000D01*
X105141219Y-56334000D02*
X105010614Y-56334000D01*
X110586714Y-56334000D02*
X110252644Y-55999930D01*
X110252644Y-56334000D02*
X110122039Y-56334000D01*
X118021514Y-56334000D02*
X117687444Y-55999930D01*
X116758094Y-56334000D02*
X116627489Y-56334000D01*
X117222769Y-55999930D02*
X117222769Y-56334000D01*
X117092164Y-56334000D02*
X116758094Y-55999930D01*
X110717319Y-55999930D02*
X110717319Y-56334000D01*
X111516064Y-56334000D02*
X111181994Y-55999930D01*
X108263339Y-56334000D02*
X107929269Y-55999930D01*
X118152119Y-56334000D02*
X127010000Y-56334000D01*
X114899394Y-55999930D02*
X114899394Y-56334000D01*
X113505369Y-56334000D02*
X113374764Y-56334000D01*
X112111344Y-56334000D02*
X111980739Y-56334000D01*
X116293419Y-55999930D02*
X116293419Y-56334000D01*
X113970044Y-56334000D02*
X113839439Y-56334000D01*
X117556839Y-56334000D02*
X117222769Y-55999930D01*
X104211869Y-55999930D02*
X104211869Y-56334000D01*
X107929269Y-55999930D02*
X107929269Y-56334000D01*
X108858619Y-56334000D02*
X108728014Y-56334000D01*
X114304114Y-56334000D02*
X113970044Y-55999930D01*
X107798664Y-56334000D02*
X107464594Y-55999930D01*
X107333989Y-56334000D02*
X106999919Y-55999930D01*
X105605894Y-55999930D02*
X105605894Y-56334000D01*
X103282519Y-56334000D02*
X103151914Y-56334000D01*
X106999919Y-55999930D02*
X106999919Y-56334000D01*
X109787969Y-56334000D02*
X109657364Y-56334000D01*
X110717319Y-56334000D02*
X110586714Y-56334000D01*
X101888494Y-55999930D02*
X101888494Y-56334000D01*
X106070569Y-56334000D02*
X105939964Y-56334000D01*
X113040694Y-56334000D02*
X112910089Y-56334000D01*
X106070569Y-55999930D02*
X106070569Y-56334000D01*
X109323294Y-56334000D02*
X109192689Y-56334000D01*
X105605894Y-56334000D02*
X105475289Y-56334000D01*
X104676544Y-55999930D02*
X104676544Y-56334000D01*
X107464594Y-55999930D02*
X107464594Y-56334000D01*
X84350000Y-56334000D02*
X92900000Y-56334000D01*
%TO.N,PCIE_UP_OUT1_P_J2*%
X102228337Y-57783000D02*
X102076973Y-57783000D01*
X106498673Y-57783000D02*
X106158737Y-57443064D01*
X110580437Y-57443064D02*
X110580437Y-57783000D01*
X104684837Y-57443064D02*
X104684837Y-57783000D01*
X105667437Y-57783000D02*
X105516073Y-57783000D01*
X109597837Y-57783000D02*
X109446473Y-57783000D01*
X105667437Y-57443064D02*
X105667437Y-57783000D01*
X102719637Y-57443064D02*
X102719637Y-57783000D01*
X108123937Y-57443064D02*
X108123937Y-57783000D01*
X109446473Y-57783000D02*
X109106537Y-57443064D01*
X103210937Y-57443064D02*
X103210937Y-57783000D01*
X104193537Y-57443064D02*
X104193537Y-57783000D01*
X107141337Y-57443064D02*
X107141337Y-57783000D01*
X111563037Y-57443064D02*
X111563037Y-57783000D01*
X105176137Y-57783000D02*
X105024773Y-57783000D01*
X112054337Y-57443064D02*
X112054337Y-57783000D01*
X106650037Y-57443064D02*
X106650037Y-57783000D01*
X100754437Y-57783000D02*
X100603063Y-57783000D01*
X106158737Y-57443064D02*
X106158737Y-57783000D01*
X104193537Y-57783000D02*
X104042173Y-57783000D01*
X112545637Y-57783000D02*
X112394273Y-57783000D01*
X101245737Y-57443064D02*
X101245737Y-57783000D01*
X101094373Y-57783000D02*
X100754437Y-57443064D01*
X110429073Y-57783000D02*
X110089137Y-57443064D01*
X108955173Y-57783000D02*
X108615237Y-57443064D01*
X112545637Y-57443064D02*
X112545637Y-57783000D01*
X108615237Y-57443064D02*
X108615237Y-57783000D01*
X108615237Y-57783000D02*
X108463873Y-57783000D01*
X102228337Y-57443064D02*
X102228337Y-57783000D01*
X106158737Y-57783000D02*
X106007373Y-57783000D01*
X106989973Y-57783000D02*
X106650037Y-57443064D01*
X112885573Y-57783000D02*
X112545637Y-57443064D01*
X107481273Y-57783000D02*
X107141337Y-57443064D01*
X107141337Y-57783000D02*
X106989973Y-57783000D01*
X103702237Y-57783000D02*
X103550873Y-57783000D01*
X108123937Y-57783000D02*
X107972573Y-57783000D01*
X106007373Y-57783000D02*
X105667437Y-57443064D01*
X103210937Y-57783000D02*
X103059573Y-57783000D01*
X101245737Y-57783000D02*
X101094373Y-57783000D01*
X107632637Y-57443064D02*
X107632637Y-57783000D01*
X106650037Y-57783000D02*
X106498673Y-57783000D01*
X103702237Y-57443064D02*
X103702237Y-57783000D01*
X109937773Y-57783000D02*
X109597837Y-57443064D01*
X109597837Y-57443064D02*
X109597837Y-57783000D01*
X111411673Y-57783000D02*
X111071737Y-57443064D01*
X101737037Y-57443064D02*
X101737037Y-57783000D01*
X101585673Y-57783000D02*
X101245737Y-57443064D01*
X104533473Y-57783000D02*
X104193537Y-57443064D01*
X105176137Y-57443064D02*
X105176137Y-57783000D01*
X102568273Y-57783000D02*
X102228337Y-57443064D01*
X113036937Y-57783000D02*
X112885573Y-57783000D01*
X103550873Y-57783000D02*
X103210937Y-57443064D01*
X111902973Y-57783000D02*
X111563037Y-57443064D01*
X105024773Y-57783000D02*
X104684837Y-57443064D01*
X101737037Y-57783000D02*
X101585673Y-57783000D01*
X109106537Y-57783000D02*
X108955173Y-57783000D01*
X110089137Y-57783000D02*
X109937773Y-57783000D01*
X104684837Y-57783000D02*
X104533473Y-57783000D01*
X110580437Y-57783000D02*
X110429073Y-57783000D01*
X110920373Y-57783000D02*
X110580437Y-57443064D01*
X111071737Y-57443064D02*
X111071737Y-57783000D01*
X102719637Y-57783000D02*
X102568273Y-57783000D01*
X105516073Y-57783000D02*
X105176137Y-57443064D01*
X104042173Y-57783000D02*
X103702237Y-57443064D01*
X103059573Y-57783000D02*
X102719637Y-57443064D01*
X102076973Y-57783000D02*
X101737037Y-57443064D01*
X107972573Y-57783000D02*
X107632637Y-57443064D01*
X112394273Y-57783000D02*
X112054337Y-57443064D01*
X107632637Y-57783000D02*
X107481273Y-57783000D01*
X108463873Y-57783000D02*
X108123937Y-57443064D01*
X113036937Y-57783000D02*
X127590000Y-57783000D01*
X109106537Y-57443064D02*
X109106537Y-57783000D01*
X110089137Y-57443064D02*
X110089137Y-57783000D01*
X111071737Y-57783000D02*
X110920373Y-57783000D01*
X111563037Y-57783000D02*
X111411673Y-57783000D01*
X86050000Y-57783000D02*
X100603063Y-57783000D01*
X100754437Y-57443064D02*
X100754437Y-57783000D01*
X112054337Y-57783000D02*
X111902973Y-57783000D01*
%TO.N,PCIE_UP_OUT1_N_J2*%
X85500000Y-58283000D02*
X139480000Y-58283000D01*
%TO.N,PCIE_UP_OUT2_P_J2*%
X87250000Y-59732000D02*
X137160000Y-59732000D01*
%TO.N,PCIE_UP_OUT2_N_J2*%
X107135121Y-59232000D02*
X107001280Y-59232000D01*
X104294715Y-58892440D02*
X104294715Y-59232000D01*
X105107676Y-59232000D02*
X104768116Y-58892440D01*
X109028725Y-59232000D02*
X108894884Y-59232000D01*
X106188319Y-59232000D02*
X106054478Y-59232000D01*
X106661720Y-59232000D02*
X106527879Y-59232000D01*
X106188319Y-58892440D02*
X106188319Y-59232000D01*
X108081923Y-59232000D02*
X107948082Y-59232000D01*
X108421483Y-59232000D02*
X108081923Y-58892440D01*
X104294715Y-59232000D02*
X104160874Y-59232000D01*
X109841686Y-59232000D02*
X109502126Y-58892440D01*
X109975527Y-59232000D02*
X109841686Y-59232000D01*
X110448928Y-58892440D02*
X110448928Y-59232000D01*
X106054478Y-59232000D02*
X105714918Y-58892440D01*
X109502126Y-59232000D02*
X109368285Y-59232000D01*
X111735290Y-59232000D02*
X111395730Y-58892440D01*
X110315087Y-59232000D02*
X109975527Y-58892440D01*
X104160874Y-59232000D02*
X103821314Y-58892440D01*
X108894884Y-59232000D02*
X108555324Y-58892440D01*
X111869131Y-59232000D02*
X111735290Y-59232000D01*
X106661720Y-58892440D02*
X106661720Y-59232000D01*
X105714918Y-59232000D02*
X105581077Y-59232000D01*
X107135121Y-58892440D02*
X107135121Y-59232000D01*
X107001280Y-59232000D02*
X106661720Y-58892440D01*
X111869131Y-58892440D02*
X111869131Y-59232000D01*
X108555324Y-58892440D02*
X108555324Y-59232000D01*
X103821314Y-58892440D02*
X103821314Y-59232000D01*
X110448928Y-59232000D02*
X110315087Y-59232000D01*
X110922329Y-58892440D02*
X110922329Y-59232000D01*
X111395730Y-59232000D02*
X111261889Y-59232000D01*
X109028725Y-58892440D02*
X109028725Y-59232000D01*
X108081923Y-58892440D02*
X108081923Y-59232000D01*
X110922329Y-59232000D02*
X110788488Y-59232000D01*
X104634275Y-59232000D02*
X104294715Y-58892440D01*
X104768116Y-58892440D02*
X104768116Y-59232000D01*
X107608522Y-58892440D02*
X107608522Y-59232000D01*
X105714918Y-58892440D02*
X105714918Y-59232000D01*
X110788488Y-59232000D02*
X110448928Y-58892440D01*
X107474681Y-59232000D02*
X107135121Y-58892440D01*
X105241517Y-59232000D02*
X105107676Y-59232000D01*
X109975527Y-58892440D02*
X109975527Y-59232000D01*
X111261889Y-59232000D02*
X110922329Y-58892440D01*
X109368285Y-59232000D02*
X109028725Y-58892440D01*
X103821314Y-59232000D02*
X103687468Y-59232000D01*
X105241517Y-58892440D02*
X105241517Y-59232000D01*
X86700000Y-59232000D02*
X103687468Y-59232000D01*
X109502126Y-58892440D02*
X109502126Y-59232000D01*
X108555324Y-59232000D02*
X108421483Y-59232000D01*
X105581077Y-59232000D02*
X105241517Y-58892440D01*
X107948082Y-59232000D02*
X107608522Y-58892440D01*
X112342532Y-59232000D02*
X129330000Y-59232000D01*
X112208691Y-59232000D02*
X111869131Y-58892440D01*
X104768116Y-59232000D02*
X104634275Y-59232000D01*
X112342532Y-59232000D02*
X112208691Y-59232000D01*
X111395730Y-58892440D02*
X111395730Y-59232000D01*
X107608522Y-59232000D02*
X107474681Y-59232000D01*
X106527879Y-59232000D02*
X106188319Y-58892440D01*
%TO.N,PCIE_UP_OUT3_P_J2*%
X107416355Y-60681000D02*
X107087109Y-60351754D01*
X111409241Y-60681000D02*
X111079995Y-60351754D01*
X111523649Y-60681000D02*
X111409241Y-60681000D01*
X107974417Y-60351754D02*
X107974417Y-60681000D01*
X107530763Y-60351754D02*
X107530763Y-60681000D01*
X110636341Y-60351754D02*
X110636341Y-60681000D01*
X111852895Y-60681000D02*
X111523649Y-60351754D01*
X110965587Y-60681000D02*
X110636341Y-60351754D01*
X111523649Y-60351754D02*
X111523649Y-60681000D01*
X108747317Y-60681000D02*
X108418071Y-60351754D01*
X110192687Y-60681000D02*
X110078279Y-60681000D01*
X110078279Y-60681000D02*
X109749033Y-60351754D01*
X109305379Y-60351754D02*
X109305379Y-60681000D01*
X107530763Y-60681000D02*
X107416355Y-60681000D01*
X108861725Y-60681000D02*
X108747317Y-60681000D01*
X109634625Y-60681000D02*
X109305379Y-60351754D01*
X108418071Y-60681000D02*
X108303663Y-60681000D01*
X88450000Y-60681000D02*
X106972697Y-60681000D01*
X111967303Y-60681000D02*
X111852895Y-60681000D01*
X111079995Y-60681000D02*
X110965587Y-60681000D01*
X107860009Y-60681000D02*
X107530763Y-60351754D01*
X111079995Y-60351754D02*
X111079995Y-60681000D01*
X108418071Y-60351754D02*
X108418071Y-60681000D01*
X109749033Y-60351754D02*
X109749033Y-60681000D01*
X110636341Y-60681000D02*
X110521933Y-60681000D01*
X109305379Y-60681000D02*
X109190971Y-60681000D01*
X109190971Y-60681000D02*
X108861725Y-60351754D01*
X108303663Y-60681000D02*
X107974417Y-60351754D01*
X107087109Y-60681000D02*
X106972697Y-60681000D01*
X108861725Y-60351754D02*
X108861725Y-60681000D01*
X107087109Y-60351754D02*
X107087109Y-60681000D01*
X109749033Y-60681000D02*
X109634625Y-60681000D01*
X111967303Y-60681000D02*
X130490000Y-60681000D01*
X107974417Y-60681000D02*
X107860009Y-60681000D01*
X110192687Y-60351754D02*
X110192687Y-60681000D01*
X110521933Y-60681000D02*
X110192687Y-60351754D01*
%TO.N,PCIE_UP_OUT3_N_J2*%
X87900000Y-61181000D02*
X136000000Y-61181000D01*
%TO.N,PCIE_UP_OUT4_P_J2*%
X89650000Y-62630000D02*
X140060000Y-62630000D01*
%TO.N,PCIE_UP_OUT4_N_J2*%
X107420339Y-62130000D02*
X107294048Y-62130000D01*
X104972648Y-62130000D02*
X104634659Y-61792011D01*
X112527419Y-62130000D02*
X112401128Y-62130000D01*
X113329688Y-62130000D02*
X112991699Y-61792011D01*
X116241659Y-62130000D02*
X116115368Y-62130000D01*
X111134579Y-61792011D02*
X111134579Y-62130000D01*
X110206019Y-61792011D02*
X110206019Y-62130000D01*
X104508368Y-62130000D02*
X104170379Y-61792011D01*
X104634659Y-61792011D02*
X104634659Y-62130000D01*
X112991699Y-62130000D02*
X112865408Y-62130000D01*
X105098939Y-61792011D02*
X105098939Y-62130000D01*
X116579648Y-62130000D02*
X116241659Y-61792011D01*
X106027499Y-61792011D02*
X106027499Y-62130000D01*
X105563219Y-61792011D02*
X105563219Y-62130000D01*
X108348899Y-62130000D02*
X108222608Y-62130000D01*
X109151168Y-62130000D02*
X108813179Y-61792011D01*
X113793968Y-62130000D02*
X113455979Y-61792011D01*
X114722528Y-62130000D02*
X114384539Y-61792011D01*
X108222608Y-62130000D02*
X107884619Y-61792011D01*
X109277459Y-61792011D02*
X109277459Y-62130000D01*
X111134579Y-62130000D02*
X111008288Y-62130000D01*
X106027499Y-62130000D02*
X105901208Y-62130000D01*
X106956059Y-61792011D02*
X106956059Y-62130000D01*
X104044088Y-62130000D02*
X103706099Y-61792011D01*
X117043928Y-62130000D02*
X116705939Y-61792011D01*
X115651088Y-62130000D02*
X115313099Y-61792011D01*
X116115368Y-62130000D02*
X115777379Y-61792011D01*
X105436928Y-62130000D02*
X105098939Y-61792011D01*
X105563219Y-62130000D02*
X105436928Y-62130000D01*
X111598859Y-62130000D02*
X111472568Y-62130000D01*
X104634659Y-62130000D02*
X104508368Y-62130000D01*
X117170219Y-62130000D02*
X131650000Y-62130000D01*
X106829768Y-62130000D02*
X106491779Y-61792011D01*
X114384539Y-61792011D02*
X114384539Y-62130000D01*
X104170379Y-62130000D02*
X104044088Y-62130000D01*
X108686888Y-62130000D02*
X108348899Y-61792011D01*
X112991699Y-61792011D02*
X112991699Y-62130000D01*
X110670299Y-62130000D02*
X110544008Y-62130000D01*
X108348899Y-61792011D02*
X108348899Y-62130000D01*
X89100000Y-62130000D02*
X103579781Y-62130000D01*
X110670299Y-61792011D02*
X110670299Y-62130000D01*
X115777379Y-61792011D02*
X115777379Y-62130000D01*
X107758328Y-62130000D02*
X107420339Y-61792011D01*
X109741739Y-62130000D02*
X109615448Y-62130000D01*
X109277459Y-62130000D02*
X109151168Y-62130000D01*
X104170379Y-61792011D02*
X104170379Y-62130000D01*
X111008288Y-62130000D02*
X110670299Y-61792011D01*
X106365488Y-62130000D02*
X106027499Y-61792011D01*
X114258248Y-62130000D02*
X113920259Y-61792011D01*
X106491779Y-62130000D02*
X106365488Y-62130000D01*
X112401128Y-62130000D02*
X112063139Y-61792011D01*
X114384539Y-62130000D02*
X114258248Y-62130000D01*
X116705939Y-61792011D02*
X116705939Y-62130000D01*
X116705939Y-62130000D02*
X116579648Y-62130000D01*
X107420339Y-61792011D02*
X107420339Y-62130000D01*
X111472568Y-62130000D02*
X111134579Y-61792011D01*
X117170219Y-62130000D02*
X117043928Y-62130000D01*
X116241659Y-61792011D02*
X116241659Y-62130000D01*
X110206019Y-62130000D02*
X110079728Y-62130000D01*
X103706099Y-62130000D02*
X103579781Y-62130000D01*
X113920259Y-62130000D02*
X113793968Y-62130000D01*
X105901208Y-62130000D02*
X105563219Y-61792011D01*
X115186808Y-62130000D02*
X114848819Y-61792011D01*
X114848819Y-61792011D02*
X114848819Y-62130000D01*
X115313099Y-62130000D02*
X115186808Y-62130000D01*
X112865408Y-62130000D02*
X112527419Y-61792011D01*
X109615448Y-62130000D02*
X109277459Y-61792011D01*
X111598859Y-61792011D02*
X111598859Y-62130000D01*
X112063139Y-62130000D02*
X111936848Y-62130000D01*
X103706099Y-61792011D02*
X103706099Y-62130000D01*
X113920259Y-61792011D02*
X113920259Y-62130000D01*
X115313099Y-61792011D02*
X115313099Y-62130000D01*
X113455979Y-62130000D02*
X113329688Y-62130000D01*
X109741739Y-61792011D02*
X109741739Y-62130000D01*
X110079728Y-62130000D02*
X109741739Y-61792011D01*
X106491779Y-61792011D02*
X106491779Y-62130000D01*
X106956059Y-62130000D02*
X106829768Y-62130000D01*
X113455979Y-61792011D02*
X113455979Y-62130000D01*
X107294048Y-62130000D02*
X106956059Y-61792011D01*
X115777379Y-62130000D02*
X115651088Y-62130000D01*
X107884619Y-62130000D02*
X107758328Y-62130000D01*
X107884619Y-61792011D02*
X107884619Y-62130000D01*
X108813179Y-61792011D02*
X108813179Y-62130000D01*
X110544008Y-62130000D02*
X110206019Y-61792011D01*
X112527419Y-61792011D02*
X112527419Y-62130000D01*
X111936848Y-62130000D02*
X111598859Y-61792011D01*
X108813179Y-62130000D02*
X108686888Y-62130000D01*
X112063139Y-61792011D02*
X112063139Y-62130000D01*
X114848819Y-62130000D02*
X114722528Y-62130000D01*
X105098939Y-62130000D02*
X104972648Y-62130000D01*
%TO.N,PCIE_UP_OUT5_P_J2*%
X110607929Y-63247164D02*
X110607929Y-63579000D01*
X111581773Y-63579000D02*
X111426687Y-63579000D01*
X113374375Y-63579000D02*
X113042539Y-63247164D01*
X105096701Y-63579000D02*
X104764865Y-63247164D01*
X110939765Y-63579000D02*
X110607929Y-63247164D01*
X110121007Y-63579000D02*
X109965921Y-63579000D01*
X112068695Y-63579000D02*
X111913609Y-63579000D01*
X109147163Y-63247164D02*
X109147163Y-63579000D01*
X110452843Y-63579000D02*
X110121007Y-63247164D01*
X109478999Y-63579000D02*
X109147163Y-63247164D01*
X105251787Y-63247164D02*
X105251787Y-63579000D01*
X108173319Y-63579000D02*
X108018233Y-63579000D01*
X108992077Y-63579000D02*
X108660241Y-63247164D01*
X112555617Y-63247164D02*
X112555617Y-63579000D01*
X108018233Y-63579000D02*
X107686397Y-63247164D01*
X106712553Y-63579000D02*
X106557467Y-63579000D01*
X114348219Y-63579000D02*
X114016383Y-63247164D01*
X113861297Y-63579000D02*
X113529461Y-63247164D01*
X107531311Y-63579000D02*
X107199475Y-63247164D01*
X111094851Y-63579000D02*
X110939765Y-63579000D01*
X105251787Y-63579000D02*
X105096701Y-63579000D01*
X107044389Y-63579000D02*
X106712553Y-63247164D01*
X104609779Y-63579000D02*
X104277943Y-63247164D01*
X113042539Y-63247164D02*
X113042539Y-63579000D01*
X111913609Y-63579000D02*
X111581773Y-63247164D01*
X107686397Y-63579000D02*
X107531311Y-63579000D01*
X114990227Y-63579000D02*
X114835141Y-63579000D01*
X115477149Y-63579000D02*
X128750000Y-63579000D01*
X115477149Y-63579000D02*
X115322063Y-63579000D01*
X107686397Y-63247164D02*
X107686397Y-63579000D01*
X114503305Y-63579000D02*
X114348219Y-63579000D01*
X108173319Y-63247164D02*
X108173319Y-63579000D01*
X108505155Y-63579000D02*
X108173319Y-63247164D01*
X111094851Y-63247164D02*
X111094851Y-63579000D01*
X108660241Y-63247164D02*
X108660241Y-63579000D01*
X113529461Y-63579000D02*
X113374375Y-63579000D01*
X112400531Y-63579000D02*
X112068695Y-63247164D01*
X112555617Y-63579000D02*
X112400531Y-63579000D01*
X105738709Y-63579000D02*
X105583623Y-63579000D01*
X111581773Y-63247164D02*
X111581773Y-63579000D01*
X111426687Y-63579000D02*
X111094851Y-63247164D01*
X114016383Y-63247164D02*
X114016383Y-63579000D01*
X114016383Y-63579000D02*
X113861297Y-63579000D01*
X106225631Y-63579000D02*
X106070545Y-63579000D01*
X105738709Y-63247164D02*
X105738709Y-63579000D01*
X107199475Y-63579000D02*
X107044389Y-63579000D01*
X112068695Y-63247164D02*
X112068695Y-63579000D01*
X106712553Y-63247164D02*
X106712553Y-63579000D01*
X114990227Y-63247164D02*
X114990227Y-63579000D01*
X115322063Y-63579000D02*
X114990227Y-63247164D01*
X112887453Y-63579000D02*
X112555617Y-63247164D01*
X104277943Y-63579000D02*
X104122851Y-63579000D01*
X104764865Y-63579000D02*
X104609779Y-63579000D01*
X114835141Y-63579000D02*
X114503305Y-63247164D01*
X104764865Y-63247164D02*
X104764865Y-63579000D01*
X104277943Y-63247164D02*
X104277943Y-63579000D01*
X107199475Y-63247164D02*
X107199475Y-63579000D01*
X109634085Y-63247164D02*
X109634085Y-63579000D01*
X90850000Y-63579000D02*
X104122851Y-63579000D01*
X109965921Y-63579000D02*
X109634085Y-63247164D01*
X114503305Y-63247164D02*
X114503305Y-63579000D01*
X113529461Y-63247164D02*
X113529461Y-63579000D01*
X106225631Y-63247164D02*
X106225631Y-63579000D01*
X110121007Y-63247164D02*
X110121007Y-63579000D01*
X108660241Y-63579000D02*
X108505155Y-63579000D01*
X105583623Y-63579000D02*
X105251787Y-63247164D01*
X110607929Y-63579000D02*
X110452843Y-63579000D01*
X106070545Y-63579000D02*
X105738709Y-63247164D01*
X106557467Y-63579000D02*
X106225631Y-63247164D01*
X113042539Y-63579000D02*
X112887453Y-63579000D01*
X109147163Y-63579000D02*
X108992077Y-63579000D01*
X109634085Y-63579000D02*
X109478999Y-63579000D01*
%TO.N,PCIE_UP_OUT5_N_J2*%
X90300000Y-64078999D02*
X138900000Y-64078999D01*
%TO.N,PCIE_UP_OUT6_P_J2*%
X92050000Y-65528000D02*
X137740000Y-65528000D01*
%TO.N,PCIE_UP_OUT6_N_J2*%
X108488945Y-65028000D02*
X108163196Y-64702251D01*
X115300001Y-65028000D02*
X115149963Y-65028000D01*
X111017918Y-65028000D02*
X110867880Y-65028000D01*
X106260048Y-64702251D02*
X106260048Y-65028000D01*
X110066344Y-65028000D02*
X109916306Y-65028000D01*
X112921066Y-65028000D02*
X112771028Y-65028000D01*
X105784261Y-64702251D02*
X105784261Y-65028000D01*
X106735835Y-64702251D02*
X106735835Y-65028000D01*
X107061584Y-65028000D02*
X106735835Y-64702251D01*
X110066344Y-64702251D02*
X110066344Y-65028000D01*
X106260048Y-65028000D02*
X106110010Y-65028000D01*
X110542131Y-64702251D02*
X110542131Y-65028000D01*
X114198389Y-65028000D02*
X113872640Y-64702251D01*
X115300001Y-64702251D02*
X115300001Y-65028000D01*
X110867880Y-65028000D02*
X110542131Y-64702251D01*
X111493705Y-65028000D02*
X111343667Y-65028000D01*
X109590557Y-64702251D02*
X109590557Y-65028000D01*
X115775788Y-65028000D02*
X115625750Y-65028000D01*
X107687409Y-65028000D02*
X107537371Y-65028000D01*
X115149963Y-65028000D02*
X114824214Y-64702251D01*
X109440519Y-65028000D02*
X109114770Y-64702251D01*
X109114770Y-64702251D02*
X109114770Y-65028000D01*
X109916306Y-65028000D02*
X109590557Y-64702251D01*
X113722602Y-65028000D02*
X113396853Y-64702251D01*
X114348427Y-64702251D02*
X114348427Y-65028000D01*
X112921066Y-64702251D02*
X112921066Y-65028000D01*
X111493705Y-64702251D02*
X111493705Y-65028000D01*
X112295241Y-65028000D02*
X111969492Y-64702251D01*
X106110010Y-65028000D02*
X105784261Y-64702251D01*
X108013158Y-65028000D02*
X107687409Y-64702251D01*
X107211622Y-65028000D02*
X107061584Y-65028000D01*
X108638983Y-64702251D02*
X108638983Y-65028000D01*
X105784261Y-65028000D02*
X105634212Y-65028000D01*
X112445279Y-65028000D02*
X112295241Y-65028000D01*
X113872640Y-65028000D02*
X113722602Y-65028000D01*
X106735835Y-65028000D02*
X106585797Y-65028000D01*
X115775788Y-65028000D02*
X129910000Y-65028000D01*
X106585797Y-65028000D02*
X106260048Y-64702251D01*
X108163196Y-65028000D02*
X108013158Y-65028000D01*
X107687409Y-64702251D02*
X107687409Y-65028000D01*
X113396853Y-64702251D02*
X113396853Y-65028000D01*
X111969492Y-64702251D02*
X111969492Y-65028000D01*
X112445279Y-64702251D02*
X112445279Y-65028000D01*
X107537371Y-65028000D02*
X107211622Y-64702251D01*
X114674176Y-65028000D02*
X114348427Y-64702251D01*
X91500000Y-65028000D02*
X105634212Y-65028000D01*
X114348427Y-65028000D02*
X114198389Y-65028000D01*
X108638983Y-65028000D02*
X108488945Y-65028000D01*
X107211622Y-64702251D02*
X107211622Y-65028000D01*
X108964732Y-65028000D02*
X108638983Y-64702251D01*
X108163196Y-64702251D02*
X108163196Y-65028000D01*
X111819454Y-65028000D02*
X111493705Y-64702251D01*
X110392093Y-65028000D02*
X110066344Y-64702251D01*
X111017918Y-64702251D02*
X111017918Y-65028000D01*
X111343667Y-65028000D02*
X111017918Y-64702251D01*
X109114770Y-65028000D02*
X108964732Y-65028000D01*
X112771028Y-65028000D02*
X112445279Y-64702251D01*
X113396853Y-65028000D02*
X113246815Y-65028000D01*
X113246815Y-65028000D02*
X112921066Y-64702251D01*
X115625750Y-65028000D02*
X115300001Y-64702251D01*
X114824214Y-64702251D02*
X114824214Y-65028000D01*
X109590557Y-65028000D02*
X109440519Y-65028000D01*
X111969492Y-65028000D02*
X111819454Y-65028000D01*
X110542131Y-65028000D02*
X110392093Y-65028000D01*
X114824214Y-65028000D02*
X114674176Y-65028000D01*
X113872640Y-64702251D02*
X113872640Y-65028000D01*
%TO.N,PCIE_UP_OUT7_P_J2*%
X112223813Y-66477000D02*
X112055140Y-66477000D01*
X113205913Y-66477000D02*
X113037240Y-66477000D01*
X110259613Y-66154623D02*
X110259613Y-66477000D01*
X111564090Y-66477000D02*
X111241713Y-66154623D01*
X110581990Y-66477000D02*
X110259613Y-66154623D01*
X109768563Y-66154623D02*
X109768563Y-66477000D01*
X110090940Y-66477000D02*
X109768563Y-66154623D01*
X114679063Y-66477000D02*
X114510390Y-66477000D01*
X111241713Y-66477000D02*
X111073040Y-66477000D01*
X109108840Y-66477000D02*
X108786463Y-66154623D01*
X109277513Y-66154623D02*
X109277513Y-66477000D01*
X115661163Y-66154623D02*
X115661163Y-66477000D01*
X114679063Y-66154623D02*
X114679063Y-66477000D01*
X114188013Y-66154623D02*
X114188013Y-66477000D01*
X108786463Y-66154623D02*
X108786463Y-66477000D01*
X110259613Y-66477000D02*
X110090940Y-66477000D01*
X112714863Y-66477000D02*
X112546190Y-66477000D01*
X108786463Y-66477000D02*
X108617787Y-66477000D01*
X115170113Y-66477000D02*
X115001440Y-66477000D01*
X110750663Y-66477000D02*
X110581990Y-66477000D01*
X115001440Y-66477000D02*
X114679063Y-66154623D01*
X113528290Y-66477000D02*
X113205913Y-66154623D01*
X93700000Y-66477000D02*
X108617787Y-66477000D01*
X110750663Y-66154623D02*
X110750663Y-66477000D01*
X111732763Y-66477000D02*
X111564090Y-66477000D01*
X111241713Y-66154623D02*
X111241713Y-66477000D01*
X115661163Y-66477000D02*
X115492490Y-66477000D01*
X111073040Y-66477000D02*
X110750663Y-66154623D01*
X114510390Y-66477000D02*
X114188013Y-66154623D01*
X112714863Y-66154623D02*
X112714863Y-66477000D01*
X109599890Y-66477000D02*
X109277513Y-66154623D01*
X116152213Y-66477000D02*
X131070000Y-66477000D01*
X115983540Y-66477000D02*
X115661163Y-66154623D01*
X111732763Y-66154623D02*
X111732763Y-66477000D01*
X115492490Y-66477000D02*
X115170113Y-66154623D01*
X116152213Y-66477000D02*
X115983540Y-66477000D01*
X115170113Y-66154623D02*
X115170113Y-66477000D01*
X109277513Y-66477000D02*
X109108840Y-66477000D01*
X114019340Y-66477000D02*
X113696963Y-66154623D01*
X113205913Y-66154623D02*
X113205913Y-66477000D01*
X113696963Y-66154623D02*
X113696963Y-66477000D01*
X109768563Y-66477000D02*
X109599890Y-66477000D01*
X114188013Y-66477000D02*
X114019340Y-66477000D01*
X113696963Y-66477000D02*
X113528290Y-66477000D01*
X112546190Y-66477000D02*
X112223813Y-66154623D01*
X113037240Y-66477000D02*
X112714863Y-66154623D01*
X112055140Y-66477000D02*
X111732763Y-66154623D01*
X112223813Y-66154623D02*
X112223813Y-66477000D01*
%TO.N,PCIE_UP_OUT7_N_J2*%
X92700000Y-66977000D02*
X136580000Y-66977000D01*
%TO.N,PCIE_DN0_P*%
X109925624Y-67586485D02*
X109925624Y-67926000D01*
X111635248Y-67926000D02*
X111295733Y-67586485D01*
X111295733Y-67926000D02*
X111178545Y-67926000D01*
X111178545Y-67926000D02*
X110839030Y-67586485D01*
X104784703Y-67926000D02*
X104445188Y-67586485D01*
X103075079Y-67586485D02*
X103075079Y-67926000D01*
X102161673Y-67586485D02*
X102161673Y-67926000D01*
X108555515Y-67586485D02*
X108555515Y-67926000D01*
X113005357Y-67926000D02*
X112665842Y-67586485D01*
X106728703Y-67586485D02*
X106728703Y-67926000D01*
X100334861Y-67586485D02*
X100334861Y-67926000D01*
X104445188Y-67926000D02*
X104328000Y-67926000D01*
X102957891Y-67926000D02*
X102618376Y-67586485D01*
X102618376Y-67586485D02*
X102618376Y-67926000D01*
X107524921Y-67926000D02*
X107185406Y-67586485D01*
X105241406Y-67926000D02*
X104901891Y-67586485D01*
X100791564Y-67586485D02*
X100791564Y-67926000D01*
X110382327Y-67586485D02*
X110382327Y-67926000D01*
X101131079Y-67926000D02*
X100791564Y-67586485D01*
X104445188Y-67586485D02*
X104445188Y-67926000D01*
X106272000Y-67926000D02*
X106154812Y-67926000D01*
X108895030Y-67926000D02*
X108555515Y-67586485D01*
X103414594Y-67926000D02*
X103075079Y-67586485D01*
X108098812Y-67586485D02*
X108098812Y-67926000D01*
X100674376Y-67926000D02*
X100334861Y-67586485D01*
X107642109Y-67586485D02*
X107642109Y-67926000D01*
X105358594Y-67586485D02*
X105358594Y-67926000D01*
X107642109Y-67926000D02*
X107524921Y-67926000D01*
X110839030Y-67926000D02*
X110721842Y-67926000D01*
X98508049Y-67926000D02*
X98390861Y-67926000D01*
X99878158Y-67926000D02*
X99760970Y-67926000D01*
X110265139Y-67926000D02*
X109925624Y-67586485D01*
X101704970Y-67926000D02*
X101587782Y-67926000D01*
X84750000Y-67926000D02*
X97477455Y-67926000D01*
X98964752Y-67586485D02*
X98964752Y-67926000D01*
X101248267Y-67926000D02*
X101131079Y-67926000D01*
X109012218Y-67586485D02*
X109012218Y-67926000D01*
X109808436Y-67926000D02*
X109468921Y-67586485D01*
X103988485Y-67586485D02*
X103988485Y-67926000D01*
X110382327Y-67926000D02*
X110265139Y-67926000D01*
X103871297Y-67926000D02*
X103531782Y-67586485D01*
X102161673Y-67926000D02*
X102044485Y-67926000D01*
X109925624Y-67926000D02*
X109808436Y-67926000D01*
X98390861Y-67926000D02*
X98051346Y-67586485D01*
X99304267Y-67926000D02*
X98964752Y-67586485D01*
X113122545Y-67926000D02*
X113005357Y-67926000D01*
X113122545Y-67926000D02*
X125850000Y-67926000D01*
X106611515Y-67926000D02*
X106272000Y-67586485D01*
X112665842Y-67586485D02*
X112665842Y-67926000D01*
X103075079Y-67926000D02*
X102957891Y-67926000D01*
X98051346Y-67586485D02*
X98051346Y-67926000D01*
X99421455Y-67586485D02*
X99421455Y-67926000D01*
X105358594Y-67926000D02*
X105241406Y-67926000D01*
X112209139Y-67926000D02*
X112091951Y-67926000D01*
X103531782Y-67586485D02*
X103531782Y-67926000D01*
X98847564Y-67926000D02*
X98508049Y-67586485D01*
X107185406Y-67926000D02*
X107068218Y-67926000D01*
X98964752Y-67926000D02*
X98847564Y-67926000D01*
X97594643Y-67586485D02*
X97594643Y-67926000D01*
X103988485Y-67926000D02*
X103871297Y-67926000D01*
X104901891Y-67586485D02*
X104901891Y-67926000D01*
X106272000Y-67586485D02*
X106272000Y-67926000D01*
X112209139Y-67586485D02*
X112209139Y-67926000D01*
X101704970Y-67586485D02*
X101704970Y-67926000D01*
X103531782Y-67926000D02*
X103414594Y-67926000D01*
X108438327Y-67926000D02*
X108098812Y-67586485D01*
X112091951Y-67926000D02*
X111752436Y-67586485D01*
X102501188Y-67926000D02*
X102161673Y-67586485D01*
X108098812Y-67926000D02*
X107981624Y-67926000D01*
X99878158Y-67586485D02*
X99878158Y-67926000D01*
X105698109Y-67926000D02*
X105358594Y-67586485D01*
X109351733Y-67926000D02*
X109012218Y-67586485D01*
X110721842Y-67926000D02*
X110382327Y-67586485D01*
X99760970Y-67926000D02*
X99421455Y-67586485D01*
X104328000Y-67926000D02*
X103988485Y-67586485D01*
X98508049Y-67586485D02*
X98508049Y-67926000D01*
X109468921Y-67586485D02*
X109468921Y-67926000D01*
X98051346Y-67926000D02*
X97934158Y-67926000D01*
X107068218Y-67926000D02*
X106728703Y-67586485D01*
X105815297Y-67926000D02*
X105698109Y-67926000D01*
X111752436Y-67586485D02*
X111752436Y-67926000D01*
X112548654Y-67926000D02*
X112209139Y-67586485D01*
X97934158Y-67926000D02*
X97594643Y-67586485D01*
X112665842Y-67926000D02*
X112548654Y-67926000D01*
X102618376Y-67926000D02*
X102501188Y-67926000D01*
X111752436Y-67926000D02*
X111635248Y-67926000D01*
X104901891Y-67926000D02*
X104784703Y-67926000D01*
X106728703Y-67926000D02*
X106611515Y-67926000D01*
X97594643Y-67926000D02*
X97477455Y-67926000D01*
X107981624Y-67926000D02*
X107642109Y-67586485D01*
X100791564Y-67926000D02*
X100674376Y-67926000D01*
X99421455Y-67926000D02*
X99304267Y-67926000D01*
X109012218Y-67926000D02*
X108895030Y-67926000D01*
X106154812Y-67926000D02*
X105815297Y-67586485D01*
X111295733Y-67586485D02*
X111295733Y-67926000D01*
X100334861Y-67926000D02*
X100217673Y-67926000D01*
X109468921Y-67926000D02*
X109351733Y-67926000D01*
X102044485Y-67926000D02*
X101704970Y-67586485D01*
X100217673Y-67926000D02*
X99878158Y-67586485D01*
X110839030Y-67586485D02*
X110839030Y-67926000D01*
X101248267Y-67586485D02*
X101248267Y-67926000D01*
X105815297Y-67586485D02*
X105815297Y-67926000D01*
X107185406Y-67586485D02*
X107185406Y-67926000D01*
X108555515Y-67926000D02*
X108438327Y-67926000D01*
X101587782Y-67926000D02*
X101248267Y-67586485D01*
%TO.N,PCIE_DN0_N*%
X85250000Y-68426000D02*
X142380000Y-68426000D01*
%TO.N,PCIE_DN1_P*%
X85950000Y-69875000D02*
X141800000Y-69875000D01*
%TO.N,PCIE_DN1_N*%
X110681951Y-69375000D02*
X110342451Y-69035500D01*
X103156221Y-69035500D02*
X103156221Y-69375000D01*
X98225819Y-69375000D02*
X97886319Y-69035500D01*
X96928155Y-69375000D02*
X96788565Y-69375000D01*
X101239893Y-69035500D02*
X101239893Y-69375000D01*
X101239893Y-69375000D02*
X101100311Y-69375000D01*
X109723787Y-69375000D02*
X109384287Y-69035500D01*
X107807459Y-69375000D02*
X107467959Y-69035500D01*
X104593467Y-69375000D02*
X104453885Y-69375000D01*
X99663065Y-69375000D02*
X99323565Y-69035500D01*
X103635303Y-69375000D02*
X103495721Y-69375000D01*
X115612353Y-69035500D02*
X115612353Y-69375000D01*
X103635303Y-69035500D02*
X103635303Y-69375000D01*
X106030713Y-69035500D02*
X106030713Y-69375000D01*
X102058475Y-69375000D02*
X101718975Y-69035500D01*
X101100311Y-69375000D02*
X100760811Y-69035500D01*
X113216943Y-69035500D02*
X113216943Y-69375000D01*
X113077361Y-69375000D02*
X112737861Y-69035500D01*
X106509795Y-69035500D02*
X106509795Y-69375000D01*
X111640115Y-69375000D02*
X111300615Y-69035500D01*
X115133271Y-69035500D02*
X115133271Y-69375000D01*
X109244705Y-69375000D02*
X108905205Y-69035500D01*
X103495721Y-69375000D02*
X103156221Y-69035500D01*
X102677139Y-69035500D02*
X102677139Y-69375000D01*
X104453885Y-69375000D02*
X104114385Y-69035500D01*
X105412049Y-69375000D02*
X105072549Y-69035500D01*
X106030713Y-69375000D02*
X105891131Y-69375000D01*
X102537557Y-69375000D02*
X102198057Y-69035500D01*
X99802647Y-69035500D02*
X99802647Y-69375000D01*
X100760811Y-69375000D02*
X100621229Y-69375000D01*
X110342451Y-69035500D02*
X110342451Y-69375000D01*
X112258779Y-69035500D02*
X112258779Y-69375000D01*
X98365401Y-69035500D02*
X98365401Y-69375000D01*
X106509795Y-69375000D02*
X106370213Y-69375000D01*
X112598279Y-69375000D02*
X112258779Y-69035500D01*
X97886319Y-69035500D02*
X97886319Y-69375000D01*
X105551631Y-69375000D02*
X105412049Y-69375000D01*
X110821533Y-69035500D02*
X110821533Y-69375000D01*
X106988877Y-69035500D02*
X106988877Y-69375000D01*
X115133271Y-69375000D02*
X114993689Y-69375000D01*
X97407237Y-69375000D02*
X97267655Y-69375000D01*
X116091435Y-69375000D02*
X115951853Y-69375000D01*
X114175107Y-69375000D02*
X114035525Y-69375000D01*
X116091435Y-69375000D02*
X126430000Y-69375000D01*
X114175107Y-69035500D02*
X114175107Y-69375000D01*
X100142147Y-69375000D02*
X99802647Y-69035500D01*
X110821533Y-69375000D02*
X110681951Y-69375000D01*
X114035525Y-69375000D02*
X113696025Y-69035500D01*
X100760811Y-69035500D02*
X100760811Y-69375000D01*
X113696025Y-69375000D02*
X113556443Y-69375000D01*
X105891131Y-69375000D02*
X105551631Y-69035500D01*
X97407237Y-69035500D02*
X97407237Y-69375000D01*
X98844483Y-69375000D02*
X98704901Y-69375000D01*
X100281729Y-69035500D02*
X100281729Y-69375000D01*
X109863369Y-69375000D02*
X109723787Y-69375000D01*
X114993689Y-69375000D02*
X114654189Y-69035500D01*
X97746737Y-69375000D02*
X97407237Y-69035500D01*
X113696025Y-69035500D02*
X113696025Y-69375000D01*
X104932967Y-69375000D02*
X104593467Y-69035500D01*
X96928155Y-69035500D02*
X96928155Y-69375000D01*
X100621229Y-69375000D02*
X100281729Y-69035500D01*
X97267655Y-69375000D02*
X96928155Y-69035500D01*
X98844483Y-69035500D02*
X98844483Y-69375000D01*
X98365401Y-69375000D02*
X98225819Y-69375000D01*
X108426123Y-69035500D02*
X108426123Y-69375000D01*
X97886319Y-69375000D02*
X97746737Y-69375000D01*
X107328377Y-69375000D02*
X106988877Y-69035500D01*
X103974803Y-69375000D02*
X103635303Y-69035500D01*
X102198057Y-69035500D02*
X102198057Y-69375000D01*
X107467959Y-69375000D02*
X107328377Y-69375000D01*
X101579393Y-69375000D02*
X101239893Y-69035500D01*
X114654189Y-69035500D02*
X114654189Y-69375000D01*
X103156221Y-69375000D02*
X103016639Y-69375000D01*
X111300615Y-69035500D02*
X111300615Y-69375000D01*
X102677139Y-69375000D02*
X102537557Y-69375000D01*
X108765623Y-69375000D02*
X108426123Y-69035500D01*
X112258779Y-69375000D02*
X112119197Y-69375000D01*
X101718975Y-69375000D02*
X101579393Y-69375000D01*
X102198057Y-69375000D02*
X102058475Y-69375000D01*
X113556443Y-69375000D02*
X113216943Y-69035500D01*
X105072549Y-69035500D02*
X105072549Y-69375000D01*
X104593467Y-69035500D02*
X104593467Y-69375000D01*
X112119197Y-69375000D02*
X111779697Y-69035500D01*
X101718975Y-69035500D02*
X101718975Y-69375000D01*
X100281729Y-69375000D02*
X100142147Y-69375000D01*
X99802647Y-69375000D02*
X99663065Y-69375000D01*
X104114385Y-69035500D02*
X104114385Y-69375000D01*
X99323565Y-69035500D02*
X99323565Y-69375000D01*
X109384287Y-69035500D02*
X109384287Y-69375000D01*
X86450000Y-69375000D02*
X96788565Y-69375000D01*
X112737861Y-69375000D02*
X112598279Y-69375000D01*
X111779697Y-69035500D02*
X111779697Y-69375000D01*
X110202869Y-69375000D02*
X109863369Y-69035500D01*
X109384287Y-69375000D02*
X109244705Y-69375000D01*
X107947041Y-69375000D02*
X107807459Y-69375000D01*
X103016639Y-69375000D02*
X102677139Y-69035500D01*
X99183983Y-69375000D02*
X98844483Y-69035500D01*
X111779697Y-69375000D02*
X111640115Y-69375000D01*
X106370213Y-69375000D02*
X106030713Y-69035500D01*
X114514607Y-69375000D02*
X114175107Y-69035500D01*
X110342451Y-69375000D02*
X110202869Y-69375000D01*
X108905205Y-69375000D02*
X108765623Y-69375000D01*
X98704901Y-69375000D02*
X98365401Y-69035500D01*
X113216943Y-69375000D02*
X113077361Y-69375000D01*
X112737861Y-69035500D02*
X112737861Y-69375000D01*
X106849295Y-69375000D02*
X106509795Y-69035500D01*
X105551631Y-69035500D02*
X105551631Y-69375000D01*
X99323565Y-69375000D02*
X99183983Y-69375000D01*
X115951853Y-69375000D02*
X115612353Y-69035500D01*
X115472771Y-69375000D02*
X115133271Y-69035500D01*
X107947041Y-69035500D02*
X107947041Y-69375000D01*
X107467959Y-69035500D02*
X107467959Y-69375000D01*
X111300615Y-69375000D02*
X111161033Y-69375000D01*
X108286541Y-69375000D02*
X107947041Y-69035500D01*
X105072549Y-69375000D02*
X104932967Y-69375000D01*
X108905205Y-69035500D02*
X108905205Y-69375000D01*
X106988877Y-69375000D02*
X106849295Y-69375000D01*
X109863369Y-69035500D02*
X109863369Y-69375000D01*
X115612353Y-69375000D02*
X115472771Y-69375000D01*
X104114385Y-69375000D02*
X103974803Y-69375000D01*
X108426123Y-69375000D02*
X108286541Y-69375000D01*
X111161033Y-69375000D02*
X110821533Y-69035500D01*
X114654189Y-69375000D02*
X114514607Y-69375000D01*
%TO.N,PCIE_DN2_P*%
X99872758Y-70824000D02*
X99738855Y-70824000D01*
X107446966Y-70484515D02*
X107446966Y-70824000D01*
X115494562Y-70484515D02*
X115494562Y-70824000D01*
X106366287Y-70824000D02*
X106026802Y-70484515D01*
X107920354Y-70484515D02*
X107920354Y-70824000D01*
X99399370Y-70484515D02*
X99399370Y-70824000D01*
X114074398Y-70824000D02*
X113940495Y-70824000D01*
X101766310Y-70824000D02*
X101632407Y-70824000D01*
X104946123Y-70824000D02*
X104606638Y-70484515D01*
X107446966Y-70824000D02*
X107313063Y-70824000D01*
X112993719Y-70824000D02*
X112654234Y-70484515D01*
X112180846Y-70484515D02*
X112180846Y-70824000D01*
X110760682Y-70484515D02*
X110760682Y-70824000D01*
X111234070Y-70824000D02*
X111100167Y-70824000D01*
X109340518Y-70484515D02*
X109340518Y-70824000D01*
X107313063Y-70824000D02*
X106973578Y-70484515D01*
X113127622Y-70484515D02*
X113127622Y-70824000D01*
X101766310Y-70484515D02*
X101766310Y-70824000D01*
X98925982Y-70824000D02*
X98792050Y-70824000D01*
X112520331Y-70824000D02*
X112180846Y-70484515D01*
X103659862Y-70824000D02*
X103525959Y-70824000D01*
X115967950Y-70824000D02*
X115834047Y-70824000D01*
X113940495Y-70824000D02*
X113601010Y-70484515D01*
X103999347Y-70824000D02*
X103659862Y-70484515D01*
X100819534Y-70824000D02*
X100685631Y-70824000D01*
X113467107Y-70824000D02*
X113127622Y-70484515D01*
X100346146Y-70484515D02*
X100346146Y-70824000D01*
X109206615Y-70824000D02*
X108867130Y-70484515D01*
X101292922Y-70824000D02*
X101159019Y-70824000D01*
X111573555Y-70824000D02*
X111234070Y-70484515D01*
X114547786Y-70484515D02*
X114547786Y-70824000D01*
X100346146Y-70824000D02*
X100212243Y-70824000D01*
X99399370Y-70824000D02*
X99265467Y-70824000D01*
X110287294Y-70484515D02*
X110287294Y-70824000D01*
X110287294Y-70824000D02*
X110153391Y-70824000D01*
X108393742Y-70824000D02*
X108259839Y-70824000D01*
X106026802Y-70484515D02*
X106026802Y-70824000D01*
X103186474Y-70484515D02*
X103186474Y-70824000D01*
X114887271Y-70824000D02*
X114547786Y-70484515D01*
X103186474Y-70824000D02*
X103052571Y-70824000D01*
X115967950Y-70824000D02*
X127010000Y-70824000D01*
X105553414Y-70484515D02*
X105553414Y-70824000D01*
X108259839Y-70824000D02*
X107920354Y-70484515D01*
X113127622Y-70824000D02*
X112993719Y-70824000D01*
X112046943Y-70824000D02*
X111707458Y-70484515D01*
X106500190Y-70824000D02*
X106366287Y-70824000D01*
X102713086Y-70484515D02*
X102713086Y-70824000D01*
X105553414Y-70824000D02*
X105419511Y-70824000D01*
X105892899Y-70824000D02*
X105553414Y-70484515D01*
X98925982Y-70484515D02*
X98925982Y-70824000D01*
X104606638Y-70484515D02*
X104606638Y-70824000D01*
X105419511Y-70824000D02*
X105080026Y-70484515D01*
X111100167Y-70824000D02*
X110760682Y-70484515D01*
X87750000Y-70824000D02*
X98792050Y-70824000D01*
X104133250Y-70484515D02*
X104133250Y-70824000D01*
X114074398Y-70484515D02*
X114074398Y-70824000D01*
X109813906Y-70484515D02*
X109813906Y-70824000D01*
X106839675Y-70824000D02*
X106500190Y-70484515D01*
X106973578Y-70824000D02*
X106839675Y-70824000D01*
X101159019Y-70824000D02*
X100819534Y-70484515D01*
X108393742Y-70484515D02*
X108393742Y-70824000D01*
X106026802Y-70824000D02*
X105892899Y-70824000D01*
X115494562Y-70824000D02*
X115360659Y-70824000D01*
X108733227Y-70824000D02*
X108393742Y-70484515D01*
X101292922Y-70484515D02*
X101292922Y-70824000D01*
X110153391Y-70824000D02*
X109813906Y-70484515D01*
X102579183Y-70824000D02*
X102239698Y-70484515D01*
X112654234Y-70484515D02*
X112654234Y-70824000D01*
X115834047Y-70824000D02*
X115494562Y-70484515D01*
X106973578Y-70484515D02*
X106973578Y-70824000D01*
X101632407Y-70824000D02*
X101292922Y-70484515D01*
X108867130Y-70824000D02*
X108733227Y-70824000D01*
X112180846Y-70824000D02*
X112046943Y-70824000D01*
X99738855Y-70824000D02*
X99399370Y-70484515D01*
X103525959Y-70824000D02*
X103186474Y-70484515D01*
X115360659Y-70824000D02*
X115021174Y-70484515D01*
X99872758Y-70484515D02*
X99872758Y-70824000D01*
X100212243Y-70824000D02*
X99872758Y-70484515D01*
X108867130Y-70484515D02*
X108867130Y-70824000D01*
X102239698Y-70484515D02*
X102239698Y-70824000D01*
X104606638Y-70824000D02*
X104472735Y-70824000D01*
X114547786Y-70824000D02*
X114413883Y-70824000D01*
X110760682Y-70824000D02*
X110626779Y-70824000D01*
X109340518Y-70824000D02*
X109206615Y-70824000D01*
X105080026Y-70484515D02*
X105080026Y-70824000D01*
X113601010Y-70824000D02*
X113467107Y-70824000D01*
X109680003Y-70824000D02*
X109340518Y-70484515D01*
X115021174Y-70484515D02*
X115021174Y-70824000D01*
X100819534Y-70484515D02*
X100819534Y-70824000D01*
X110626779Y-70824000D02*
X110287294Y-70484515D01*
X111707458Y-70484515D02*
X111707458Y-70824000D01*
X114413883Y-70824000D02*
X114074398Y-70484515D01*
X103659862Y-70484515D02*
X103659862Y-70824000D01*
X102105795Y-70824000D02*
X101766310Y-70484515D01*
X107786451Y-70824000D02*
X107446966Y-70484515D01*
X111707458Y-70824000D02*
X111573555Y-70824000D01*
X115021174Y-70824000D02*
X114887271Y-70824000D01*
X107920354Y-70824000D02*
X107786451Y-70824000D01*
X112654234Y-70824000D02*
X112520331Y-70824000D01*
X111234070Y-70484515D02*
X111234070Y-70824000D01*
X99265467Y-70824000D02*
X98925982Y-70484515D01*
X104133250Y-70824000D02*
X103999347Y-70824000D01*
X105080026Y-70824000D02*
X104946123Y-70824000D01*
X104472735Y-70824000D02*
X104133250Y-70484515D01*
X103052571Y-70824000D02*
X102713086Y-70484515D01*
X106500190Y-70484515D02*
X106500190Y-70824000D01*
X102713086Y-70824000D02*
X102579183Y-70824000D01*
X100685631Y-70824000D02*
X100346146Y-70484515D01*
X113601010Y-70484515D02*
X113601010Y-70824000D01*
X102239698Y-70824000D02*
X102105795Y-70824000D01*
X109813906Y-70824000D02*
X109680003Y-70824000D01*
%TO.N,PCIE_DN2_N*%
X87250000Y-71324000D02*
X141220000Y-71324000D01*
%TO.N,PCIE_DN3_P*%
X88900000Y-72773000D02*
X140640000Y-72773000D01*
%TO.N,PCIE_DN3_N*%
X107718042Y-72273000D02*
X107387100Y-71942058D01*
X104732442Y-72273000D02*
X104620941Y-72273000D01*
X114023745Y-72273000D02*
X113912244Y-72273000D01*
X111700029Y-72273000D02*
X111369087Y-71942058D01*
X113581302Y-71942058D02*
X113581302Y-72273000D01*
X113469801Y-72273000D02*
X113138859Y-71942058D01*
X111369087Y-71942058D02*
X111369087Y-72273000D01*
X105617328Y-72273000D02*
X105505827Y-72273000D01*
X106944657Y-71942058D02*
X106944657Y-72273000D01*
X104289999Y-72273000D02*
X104178498Y-72273000D01*
X109599315Y-72273000D02*
X109487814Y-72273000D01*
X106502214Y-71942058D02*
X106502214Y-72273000D01*
X107829543Y-71942058D02*
X107829543Y-72273000D01*
X103847556Y-72273000D02*
X103736055Y-72273000D01*
X105948270Y-72273000D02*
X105617328Y-71942058D01*
X109930257Y-72273000D02*
X109599315Y-71942058D01*
X103405113Y-72273000D02*
X103293612Y-72273000D01*
X108714429Y-71942058D02*
X108714429Y-72273000D01*
X112253973Y-71942058D02*
X112253973Y-72273000D01*
X110926644Y-72273000D02*
X110815143Y-72273000D01*
X105174885Y-72273000D02*
X105063384Y-72273000D01*
X101635341Y-71942058D02*
X101635341Y-72273000D01*
X102520227Y-72273000D02*
X102408726Y-72273000D01*
X107829543Y-72273000D02*
X107718042Y-72273000D01*
X110484201Y-72273000D02*
X110372700Y-72273000D01*
X103405113Y-71942058D02*
X103405113Y-72273000D01*
X111369087Y-72273000D02*
X111257586Y-72273000D01*
X103293612Y-72273000D02*
X102962670Y-71942058D01*
X101966283Y-72273000D02*
X101635341Y-71942058D01*
X102077784Y-71942058D02*
X102077784Y-72273000D01*
X113138859Y-72273000D02*
X113027358Y-72273000D01*
X110815143Y-72273000D02*
X110484201Y-71942058D01*
X104620941Y-72273000D02*
X104289999Y-71942058D01*
X101635341Y-72273000D02*
X101523812Y-72273000D01*
X107387100Y-71942058D02*
X107387100Y-72273000D01*
X103847556Y-71942058D02*
X103847556Y-72273000D01*
X103736055Y-72273000D02*
X103405113Y-71942058D01*
X110926644Y-71942058D02*
X110926644Y-72273000D01*
X111811530Y-72273000D02*
X111700029Y-72273000D01*
X106944657Y-72273000D02*
X106833156Y-72273000D01*
X113912244Y-72273000D02*
X113581302Y-71942058D01*
X114466188Y-72273000D02*
X127590000Y-72273000D01*
X110372700Y-72273000D02*
X110041758Y-71942058D01*
X109045371Y-72273000D02*
X108714429Y-71942058D01*
X108271986Y-71942058D02*
X108271986Y-72273000D01*
X113581302Y-72273000D02*
X113469801Y-72273000D01*
X105505827Y-72273000D02*
X105174885Y-71942058D01*
X112584915Y-72273000D02*
X112253973Y-71942058D01*
X108602928Y-72273000D02*
X108271986Y-71942058D01*
X108160485Y-72273000D02*
X107829543Y-71942058D01*
X102520227Y-71942058D02*
X102520227Y-72273000D01*
X102962670Y-71942058D02*
X102962670Y-72273000D01*
X110041758Y-72273000D02*
X109930257Y-72273000D01*
X114354687Y-72273000D02*
X114023745Y-71942058D01*
X106059771Y-72273000D02*
X105948270Y-72273000D01*
X109156872Y-71942058D02*
X109156872Y-72273000D01*
X102851169Y-72273000D02*
X102520227Y-71942058D01*
X107387100Y-72273000D02*
X107275599Y-72273000D01*
X110041758Y-71942058D02*
X110041758Y-72273000D01*
X107275599Y-72273000D02*
X106944657Y-71942058D01*
X102962670Y-72273000D02*
X102851169Y-72273000D01*
X104178498Y-72273000D02*
X103847556Y-71942058D01*
X109487814Y-72273000D02*
X109156872Y-71942058D01*
X111257586Y-72273000D02*
X110926644Y-71942058D01*
X114023745Y-71942058D02*
X114023745Y-72273000D01*
X108714429Y-72273000D02*
X108602928Y-72273000D01*
X102077784Y-72273000D02*
X101966283Y-72273000D01*
X104289999Y-71942058D02*
X104289999Y-72273000D01*
X111811530Y-71942058D02*
X111811530Y-72273000D01*
X106390713Y-72273000D02*
X106059771Y-71942058D01*
X106502214Y-72273000D02*
X106390713Y-72273000D01*
X105063384Y-72273000D02*
X104732442Y-71942058D01*
X112142472Y-72273000D02*
X111811530Y-71942058D01*
X105174885Y-71942058D02*
X105174885Y-72273000D01*
X102408726Y-72273000D02*
X102077784Y-71942058D01*
X88400000Y-72273000D02*
X101523812Y-72273000D01*
X114466188Y-72273000D02*
X114354687Y-72273000D01*
X104732442Y-71942058D02*
X104732442Y-72273000D01*
X112696416Y-71942058D02*
X112696416Y-72273000D01*
X113138859Y-71942058D02*
X113138859Y-72273000D01*
X109156872Y-72273000D02*
X109045371Y-72273000D01*
X105617328Y-71942058D02*
X105617328Y-72273000D01*
X106833156Y-72273000D02*
X106502214Y-71942058D01*
X106059771Y-71942058D02*
X106059771Y-72273000D01*
X110484201Y-71942058D02*
X110484201Y-72273000D01*
X112253973Y-72273000D02*
X112142472Y-72273000D01*
X113027358Y-72273000D02*
X112696416Y-71942058D01*
X109599315Y-71942058D02*
X109599315Y-72273000D01*
X108271986Y-72273000D02*
X108160485Y-72273000D01*
X112696416Y-72273000D02*
X112584915Y-72273000D01*
%TO.N,PCIE_DN4_P*%
X113258064Y-73722000D02*
X113127556Y-73722000D01*
X109022791Y-73722000D02*
X108697214Y-73396423D01*
X106872874Y-73722000D02*
X106742366Y-73722000D01*
X112345894Y-73722000D02*
X112215386Y-73722000D01*
X108110621Y-73722000D02*
X107785044Y-73396423D01*
X111433724Y-73396423D02*
X111433724Y-73722000D01*
X113127556Y-73722000D02*
X112801979Y-73396423D01*
X111889809Y-73396423D02*
X111889809Y-73722000D01*
X113258064Y-73396423D02*
X113258064Y-73722000D01*
X108241129Y-73396423D02*
X108241129Y-73722000D01*
X113714149Y-73396423D02*
X113714149Y-73722000D01*
X110521554Y-73396423D02*
X110521554Y-73722000D01*
X110065469Y-73722000D02*
X109934961Y-73722000D01*
X104136364Y-73396423D02*
X104136364Y-73722000D01*
X112215386Y-73722000D02*
X111889809Y-73396423D01*
X109609384Y-73722000D02*
X109478876Y-73722000D01*
X114170234Y-73722000D02*
X128169999Y-73722000D01*
X105960704Y-73722000D02*
X105830196Y-73722000D01*
X106286281Y-73722000D02*
X105960704Y-73396423D01*
X107198451Y-73722000D02*
X106872874Y-73396423D01*
X110977639Y-73396423D02*
X110977639Y-73722000D01*
X113714149Y-73722000D02*
X113583641Y-73722000D01*
X114039726Y-73722000D02*
X113714149Y-73396423D01*
X114170234Y-73722000D02*
X114039726Y-73722000D01*
X110391046Y-73722000D02*
X110065469Y-73396423D01*
X111889809Y-73722000D02*
X111759301Y-73722000D01*
X112801979Y-73722000D02*
X112671471Y-73722000D01*
X104136364Y-73722000D02*
X104005856Y-73722000D01*
X111759301Y-73722000D02*
X111433724Y-73396423D01*
X106872874Y-73396423D02*
X106872874Y-73722000D01*
X112671471Y-73722000D02*
X112345894Y-73396423D01*
X109153299Y-73396423D02*
X109153299Y-73722000D01*
X104461941Y-73722000D02*
X104136364Y-73396423D01*
X105960704Y-73396423D02*
X105960704Y-73722000D01*
X111303216Y-73722000D02*
X110977639Y-73396423D01*
X109153299Y-73722000D02*
X109022791Y-73722000D01*
X89550000Y-73722000D02*
X103549766Y-73722000D01*
X105048534Y-73396423D02*
X105048534Y-73722000D01*
X108697214Y-73722000D02*
X108566706Y-73722000D01*
X109609384Y-73396423D02*
X109609384Y-73722000D01*
X105504619Y-73396423D02*
X105504619Y-73722000D01*
X107785044Y-73396423D02*
X107785044Y-73722000D01*
X107654536Y-73722000D02*
X107328959Y-73396423D01*
X111433724Y-73722000D02*
X111303216Y-73722000D01*
X110065469Y-73396423D02*
X110065469Y-73722000D01*
X106742366Y-73722000D02*
X106416789Y-73396423D01*
X110847131Y-73722000D02*
X110521554Y-73396423D01*
X107328959Y-73396423D02*
X107328959Y-73722000D01*
X110977639Y-73722000D02*
X110847131Y-73722000D01*
X105504619Y-73722000D02*
X105374111Y-73722000D01*
X104592449Y-73722000D02*
X104461941Y-73722000D01*
X106416789Y-73722000D02*
X106286281Y-73722000D01*
X104592449Y-73396423D02*
X104592449Y-73722000D01*
X103680279Y-73396423D02*
X103680279Y-73722000D01*
X108566706Y-73722000D02*
X108241129Y-73396423D01*
X108697214Y-73396423D02*
X108697214Y-73722000D01*
X109478876Y-73722000D02*
X109153299Y-73396423D01*
X112345894Y-73396423D02*
X112345894Y-73722000D01*
X112801979Y-73396423D02*
X112801979Y-73722000D01*
X105048534Y-73722000D02*
X104918026Y-73722000D01*
X106416789Y-73396423D02*
X106416789Y-73722000D01*
X110521554Y-73722000D02*
X110391046Y-73722000D01*
X107328959Y-73722000D02*
X107198451Y-73722000D01*
X104918026Y-73722000D02*
X104592449Y-73396423D01*
X107785044Y-73722000D02*
X107654536Y-73722000D01*
X104005856Y-73722000D02*
X103680279Y-73396423D01*
X108241129Y-73722000D02*
X108110621Y-73722000D01*
X109934961Y-73722000D02*
X109609384Y-73396423D01*
X103680279Y-73722000D02*
X103549766Y-73722000D01*
X105374111Y-73722000D02*
X105048534Y-73396423D01*
X105830196Y-73722000D02*
X105504619Y-73396423D01*
X113583641Y-73722000D02*
X113258064Y-73396423D01*
%TO.N,PCIE_DN4_N*%
X90050000Y-74222000D02*
X139480000Y-74222000D01*
%TO.N,PCIE_DN5_P*%
X90750000Y-75671000D02*
X138320000Y-75671000D01*
%TO.N,PCIE_DN5_N*%
X112160738Y-74836212D02*
X112160738Y-75171000D01*
X105701756Y-75171000D02*
X105366968Y-74836212D01*
X104461132Y-74836212D02*
X104461132Y-75171000D01*
X113066574Y-75171000D02*
X112948444Y-75171000D01*
X106607592Y-75171000D02*
X106272804Y-74836212D01*
X107178640Y-75171000D02*
X107060510Y-75171000D01*
X107966346Y-75171000D02*
X107631558Y-74836212D01*
X105819886Y-75171000D02*
X105701756Y-75171000D01*
X113972410Y-74836212D02*
X113972410Y-75171000D01*
X116118870Y-75171000D02*
X115784082Y-74836212D01*
X112948444Y-75171000D02*
X112613656Y-74836212D01*
X104914050Y-74836212D02*
X104914050Y-75171000D01*
X105248838Y-75171000D02*
X104914050Y-74836212D01*
X113854280Y-75171000D02*
X113519492Y-74836212D01*
X111707820Y-75171000D02*
X111589690Y-75171000D01*
X115784082Y-74836212D02*
X115784082Y-75171000D01*
X114425328Y-74836212D02*
X114425328Y-75171000D01*
X105366968Y-74836212D02*
X105366968Y-75171000D01*
X104914050Y-75171000D02*
X104795920Y-75171000D01*
X108084476Y-74836212D02*
X108084476Y-75171000D01*
X115213034Y-75171000D02*
X114878246Y-74836212D01*
X106154674Y-75171000D02*
X105819886Y-74836212D01*
X116237000Y-75171000D02*
X129330000Y-75171000D01*
X111136772Y-75171000D02*
X110801984Y-74836212D01*
X91250000Y-75171000D02*
X104343000Y-75171000D01*
X113066574Y-74836212D02*
X113066574Y-75171000D01*
X105366968Y-75171000D02*
X105248838Y-75171000D01*
X108419264Y-75171000D02*
X108084476Y-74836212D01*
X113519492Y-75171000D02*
X113401362Y-75171000D01*
X110801984Y-75171000D02*
X110683854Y-75171000D01*
X109443230Y-75171000D02*
X109325100Y-75171000D01*
X108990312Y-74836212D02*
X108990312Y-75171000D01*
X115784082Y-75171000D02*
X115665952Y-75171000D01*
X111254902Y-74836212D02*
X111254902Y-75171000D01*
X109778018Y-75171000D02*
X109443230Y-74836212D01*
X104795920Y-75171000D02*
X104461132Y-74836212D01*
X108990312Y-75171000D02*
X108872182Y-75171000D01*
X110349066Y-75171000D02*
X110230936Y-75171000D01*
X113401362Y-75171000D02*
X113066574Y-74836212D01*
X107631558Y-74836212D02*
X107631558Y-75171000D01*
X109896148Y-75171000D02*
X109778018Y-75171000D01*
X111707820Y-74836212D02*
X111707820Y-75171000D01*
X109443230Y-74836212D02*
X109443230Y-75171000D01*
X114760116Y-75171000D02*
X114425328Y-74836212D01*
X114425328Y-75171000D02*
X114307198Y-75171000D01*
X114307198Y-75171000D02*
X113972410Y-74836212D01*
X113972410Y-75171000D02*
X113854280Y-75171000D01*
X108872182Y-75171000D02*
X108537394Y-74836212D01*
X115665952Y-75171000D02*
X115331164Y-74836212D01*
X107060510Y-75171000D02*
X106725722Y-74836212D01*
X105819886Y-74836212D02*
X105819886Y-75171000D01*
X106725722Y-75171000D02*
X106607592Y-75171000D01*
X112160738Y-75171000D02*
X112042608Y-75171000D01*
X108084476Y-75171000D02*
X107966346Y-75171000D01*
X104461132Y-75171000D02*
X104343000Y-75171000D01*
X111589690Y-75171000D02*
X111254902Y-74836212D01*
X107513428Y-75171000D02*
X107178640Y-74836212D01*
X110683854Y-75171000D02*
X110349066Y-74836212D01*
X111254902Y-75171000D02*
X111136772Y-75171000D01*
X113519492Y-74836212D02*
X113519492Y-75171000D01*
X109325100Y-75171000D02*
X108990312Y-74836212D01*
X112042608Y-75171000D02*
X111707820Y-74836212D01*
X107178640Y-74836212D02*
X107178640Y-75171000D01*
X106725722Y-74836212D02*
X106725722Y-75171000D01*
X108537394Y-75171000D02*
X108419264Y-75171000D01*
X106272804Y-75171000D02*
X106154674Y-75171000D01*
X106272804Y-74836212D02*
X106272804Y-75171000D01*
X115331164Y-74836212D02*
X115331164Y-75171000D01*
X108537394Y-74836212D02*
X108537394Y-75171000D01*
X114878246Y-74836212D02*
X114878246Y-75171000D01*
X110801984Y-74836212D02*
X110801984Y-75171000D01*
X107631558Y-75171000D02*
X107513428Y-75171000D01*
X112613656Y-75171000D02*
X112495526Y-75171000D01*
X112613656Y-74836212D02*
X112613656Y-75171000D01*
X112495526Y-75171000D02*
X112160738Y-74836212D01*
X115331164Y-75171000D02*
X115213034Y-75171000D01*
X109896148Y-74836212D02*
X109896148Y-75171000D01*
X116237000Y-75171000D02*
X116118870Y-75171000D01*
X110349066Y-74836212D02*
X110349066Y-75171000D01*
X110230936Y-75171000D02*
X109896148Y-74836212D01*
X114878246Y-75171000D02*
X114760116Y-75171000D01*
%TO.N,PCIE_DN6_P*%
X110006664Y-76620000D02*
X109680379Y-76293715D01*
X114796604Y-76620000D02*
X114470319Y-76293715D01*
X113991325Y-76293715D02*
X113991325Y-76620000D01*
X112075349Y-76293715D02*
X112075349Y-76620000D01*
X114949313Y-76293715D02*
X114949313Y-76620000D01*
X116233586Y-76620000D02*
X115907301Y-76293715D01*
X107764403Y-76620000D02*
X107611694Y-76620000D01*
X112075349Y-76620000D02*
X111922640Y-76620000D01*
X109201385Y-76620000D02*
X109048676Y-76620000D01*
X116386295Y-76620000D02*
X130490000Y-76620000D01*
X114949313Y-76620000D02*
X114796604Y-76620000D01*
X107132700Y-76620000D02*
X106806415Y-76293715D01*
X115907301Y-76293715D02*
X115907301Y-76620000D01*
X111596355Y-76293715D02*
X111596355Y-76620000D01*
X109048676Y-76620000D02*
X108722391Y-76293715D01*
X111443646Y-76620000D02*
X111117361Y-76293715D01*
X92550000Y-76620000D02*
X106653705Y-76620000D01*
X113991325Y-76620000D02*
X113838616Y-76620000D01*
X110159373Y-76620000D02*
X110006664Y-76620000D01*
X107764403Y-76293715D02*
X107764403Y-76620000D01*
X111117361Y-76620000D02*
X110964652Y-76620000D01*
X107285409Y-76293715D02*
X107285409Y-76620000D01*
X115754592Y-76620000D02*
X115428307Y-76293715D01*
X108243397Y-76293715D02*
X108243397Y-76620000D01*
X115275598Y-76620000D02*
X114949313Y-76293715D01*
X110159373Y-76293715D02*
X110159373Y-76620000D01*
X111596355Y-76620000D02*
X111443646Y-76620000D01*
X114317610Y-76620000D02*
X113991325Y-76293715D01*
X108722391Y-76293715D02*
X108722391Y-76620000D01*
X112401634Y-76620000D02*
X112075349Y-76293715D01*
X115428307Y-76293715D02*
X115428307Y-76620000D01*
X108243397Y-76620000D02*
X108090688Y-76620000D01*
X112880628Y-76620000D02*
X112554343Y-76293715D01*
X111117361Y-76293715D02*
X111117361Y-76620000D01*
X110485658Y-76620000D02*
X110159373Y-76293715D01*
X106806415Y-76620000D02*
X106653705Y-76620000D01*
X112554343Y-76620000D02*
X112401634Y-76620000D01*
X107611694Y-76620000D02*
X107285409Y-76293715D01*
X114470319Y-76293715D02*
X114470319Y-76620000D01*
X108722391Y-76620000D02*
X108569682Y-76620000D01*
X113512331Y-76620000D02*
X113359622Y-76620000D01*
X115907301Y-76620000D02*
X115754592Y-76620000D01*
X109680379Y-76620000D02*
X109527670Y-76620000D01*
X106806415Y-76293715D02*
X106806415Y-76620000D01*
X113359622Y-76620000D02*
X113033337Y-76293715D01*
X110638367Y-76293715D02*
X110638367Y-76620000D01*
X110964652Y-76620000D02*
X110638367Y-76293715D01*
X113838616Y-76620000D02*
X113512331Y-76293715D01*
X113033337Y-76293715D02*
X113033337Y-76620000D01*
X113033337Y-76620000D02*
X112880628Y-76620000D01*
X109201385Y-76293715D02*
X109201385Y-76620000D01*
X114470319Y-76620000D02*
X114317610Y-76620000D01*
X110638367Y-76620000D02*
X110485658Y-76620000D01*
X109680379Y-76293715D02*
X109680379Y-76620000D01*
X112554343Y-76293715D02*
X112554343Y-76620000D01*
X107285409Y-76620000D02*
X107132700Y-76620000D01*
X115428307Y-76620000D02*
X115275598Y-76620000D01*
X111922640Y-76620000D02*
X111596355Y-76293715D01*
X113512331Y-76293715D02*
X113512331Y-76620000D01*
X116386295Y-76620000D02*
X116233586Y-76620000D01*
X108090688Y-76620000D02*
X107764403Y-76293715D01*
X108569682Y-76620000D02*
X108243397Y-76293715D01*
X109527670Y-76620000D02*
X109201385Y-76293715D01*
%TO.N,PCIE_DN6_N*%
X92050000Y-77120000D02*
X137160000Y-77120000D01*
%TO.N,PCIE_DN7_P*%
X93700000Y-78569000D02*
X136000000Y-78569000D01*
%TO.N,PCIE_DN7_N*%
X112479368Y-78069000D02*
X112370635Y-78069000D01*
X93200000Y-78069000D02*
X110286317Y-78069000D01*
X110395053Y-78069000D02*
X110286317Y-78069000D01*
X114038087Y-78069000D02*
X113729957Y-77760870D01*
X113729957Y-78069000D02*
X113621224Y-78069000D01*
X114146820Y-78069000D02*
X114038087Y-78069000D01*
X114454950Y-78069000D02*
X114146820Y-77760870D01*
X111645642Y-77760870D02*
X111645642Y-78069000D01*
X111228779Y-78069000D02*
X111120046Y-78069000D01*
X111953772Y-78069000D02*
X111645642Y-77760870D01*
X114563683Y-78069000D02*
X114454950Y-78069000D01*
X113313094Y-77760870D02*
X113313094Y-78069000D01*
X112896231Y-78069000D02*
X112787498Y-78069000D01*
X111120046Y-78069000D02*
X110811916Y-77760870D01*
X111645642Y-78069000D02*
X111536909Y-78069000D01*
X113729957Y-77760870D02*
X113729957Y-78069000D01*
X110811916Y-78069000D02*
X110703183Y-78069000D01*
X110395053Y-77760870D02*
X110395053Y-78069000D01*
X112370635Y-78069000D02*
X112062505Y-77760870D01*
X112062505Y-77760870D02*
X112062505Y-78069000D01*
X113313094Y-78069000D02*
X113204361Y-78069000D01*
X114563683Y-78069000D02*
X131650000Y-78069000D01*
X112787498Y-78069000D02*
X112479368Y-77760870D01*
X111536909Y-78069000D02*
X111228779Y-77760870D01*
X113204361Y-78069000D02*
X112896231Y-77760870D01*
X113621224Y-78069000D02*
X113313094Y-77760870D01*
X112062505Y-78069000D02*
X111953772Y-78069000D01*
X110811916Y-77760870D02*
X110811916Y-78069000D01*
X112479368Y-77760870D02*
X112479368Y-78069000D01*
X114146820Y-77760870D02*
X114146820Y-78069000D01*
X112896231Y-77760870D02*
X112896231Y-78069000D01*
X111228779Y-77760870D02*
X111228779Y-78069000D01*
X110703183Y-78069000D02*
X110395053Y-77760870D01*
%TO.N,PCIE_DN_OUT1_N_MCIO*%
X86050000Y-39870000D02*
X60400000Y-39870000D01*
%TO.N,PCIE_UP1_P*%
X86500000Y-35590000D02*
X62200000Y-35590000D01*
%TO.N,PCIE_DN_OUT2_P_MCIO*%
X86700000Y-39300000D02*
X79122868Y-39300000D01*
X66712745Y-39300000D02*
X67766735Y-39300000D01*
X67766735Y-39300000D02*
X67848358Y-39381623D01*
X66712745Y-39381623D02*
X66712745Y-39300000D01*
X78068875Y-39381623D02*
X78068875Y-39300000D01*
X74662036Y-39381623D02*
X74662036Y-39300000D01*
X76851639Y-39300000D02*
X76933262Y-39381623D01*
X68983971Y-39300000D02*
X70037961Y-39300000D01*
X65577132Y-39300000D02*
X66631122Y-39300000D01*
X72390810Y-39381623D02*
X72390810Y-39300000D01*
X74580413Y-39300000D02*
X74662036Y-39381623D01*
X78068875Y-39300000D02*
X79122868Y-39300000D01*
X73526423Y-39300000D02*
X74580413Y-39300000D01*
X75797649Y-39300000D02*
X76851639Y-39300000D01*
X75797649Y-39381623D02*
X75797649Y-39300000D01*
X67848358Y-39300000D02*
X68902348Y-39300000D01*
X65577132Y-39300000D02*
X58000000Y-39300000D01*
X72390810Y-39300000D02*
X73444800Y-39300000D01*
X77987252Y-39300000D02*
X78068875Y-39381623D01*
X71173574Y-39300000D02*
X71255197Y-39381623D01*
X66631122Y-39300000D02*
X66712745Y-39381623D01*
X72309187Y-39300000D02*
X72390810Y-39381623D01*
X70037961Y-39300000D02*
X70119584Y-39381623D01*
X74662036Y-39300000D02*
X75716026Y-39300000D01*
X70119584Y-39381623D02*
X70119584Y-39300000D01*
X73526423Y-39381623D02*
X73526423Y-39300000D01*
X76933262Y-39381623D02*
X76933262Y-39300000D01*
X67848358Y-39381623D02*
X67848358Y-39300000D01*
X68983971Y-39381623D02*
X68983971Y-39300000D01*
X68902348Y-39300000D02*
X68983971Y-39381623D01*
X71255197Y-39300000D02*
X72309187Y-39300000D01*
X75716026Y-39300000D02*
X75797649Y-39381623D01*
X70119584Y-39300000D02*
X71173574Y-39300000D01*
X73444800Y-39300000D02*
X73526423Y-39381623D01*
X76933262Y-39300000D02*
X77987252Y-39300000D01*
X71255197Y-39381623D02*
X71255197Y-39300000D01*
%TO.N,PCIE_UP2_P*%
X87200000Y-45220000D02*
X59200000Y-45220000D01*
%TO.N,PCIE_DN_OUT2_N_MCIO*%
X87250000Y-38800000D02*
X57400000Y-38800000D01*
%TO.N,PCIE_UP2_N*%
X87700000Y-45720000D02*
X58600000Y-45720000D01*
%TO.N,PCIE_DN_OUT3_P_MCIO*%
X64077132Y-38230000D02*
X65131122Y-38230000D01*
X65212745Y-38230000D02*
X66266735Y-38230000D01*
X73162036Y-38230000D02*
X74216026Y-38230000D01*
X69673574Y-38230000D02*
X69755197Y-38311623D01*
X67402348Y-38230000D02*
X67483971Y-38311623D01*
X70809187Y-38230000D02*
X70890810Y-38311623D01*
X66266735Y-38230000D02*
X66348358Y-38311623D01*
X69755197Y-38230000D02*
X70809187Y-38230000D01*
X70890810Y-38311623D02*
X70890810Y-38230000D01*
X72026423Y-38230000D02*
X73080413Y-38230000D01*
X73080413Y-38230000D02*
X73162036Y-38311623D01*
X68619584Y-38311623D02*
X68619584Y-38230000D01*
X67483971Y-38230000D02*
X68537961Y-38230000D01*
X76487252Y-38230000D02*
X76568875Y-38311623D01*
X64077132Y-38230000D02*
X53800000Y-38230000D01*
X76568875Y-38311623D02*
X76568875Y-38230000D01*
X74297649Y-38230000D02*
X75351639Y-38230000D01*
X68619584Y-38230000D02*
X69673574Y-38230000D01*
X70890810Y-38230000D02*
X71944800Y-38230000D01*
X74216026Y-38230000D02*
X74297649Y-38311623D01*
X69755197Y-38311623D02*
X69755197Y-38230000D01*
X72026423Y-38311623D02*
X72026423Y-38230000D01*
X65212745Y-38311623D02*
X65212745Y-38230000D01*
X75351639Y-38230000D02*
X75433262Y-38311623D01*
X75433262Y-38311623D02*
X75433262Y-38230000D01*
X73162036Y-38311623D02*
X73162036Y-38230000D01*
X66348358Y-38230000D02*
X67402348Y-38230000D01*
X75433262Y-38230000D02*
X76487252Y-38230000D01*
X76568875Y-38230000D02*
X77622868Y-38230000D01*
X66348358Y-38311623D02*
X66348358Y-38230000D01*
X65131122Y-38230000D02*
X65212745Y-38311623D01*
X74297649Y-38311623D02*
X74297649Y-38230000D01*
X68537961Y-38230000D02*
X68619584Y-38311623D01*
X87900000Y-38230000D02*
X77622868Y-38230000D01*
X67483971Y-38311623D02*
X67483971Y-38230000D01*
X71944800Y-38230000D02*
X72026423Y-38311623D01*
%TO.N,PCIE_UP3_P*%
X73946841Y-33950000D02*
X74971306Y-33950000D01*
X69453151Y-33950000D02*
X69532317Y-34029166D01*
X73946841Y-34029166D02*
X73946841Y-33950000D01*
X66221424Y-33950000D02*
X55000000Y-33950000D01*
X76154103Y-33950000D02*
X77178576Y-33950000D01*
X76074937Y-33950000D02*
X76154103Y-34029166D01*
X69532317Y-34029166D02*
X69532317Y-33950000D01*
X88400000Y-33950000D02*
X77178576Y-33950000D01*
X68428686Y-33950000D02*
X69453151Y-33950000D01*
X73867675Y-33950000D02*
X73946841Y-34029166D01*
X68428686Y-34029166D02*
X68428686Y-33950000D01*
X70635948Y-34029166D02*
X70635948Y-33950000D01*
X71660413Y-33950000D02*
X71739579Y-34029166D01*
X71739579Y-34029166D02*
X71739579Y-33950000D01*
X72764044Y-33950000D02*
X72843210Y-34029166D01*
X67325055Y-34029166D02*
X67325055Y-33950000D01*
X75050472Y-33950000D02*
X76074937Y-33950000D01*
X76154103Y-34029166D02*
X76154103Y-33950000D01*
X66221424Y-33950000D02*
X67245889Y-33950000D01*
X75050472Y-34029166D02*
X75050472Y-33950000D01*
X67245889Y-33950000D02*
X67325055Y-34029166D01*
X69532317Y-33950000D02*
X70556782Y-33950000D01*
X72843210Y-33950000D02*
X73867675Y-33950000D01*
X74971306Y-33950000D02*
X75050472Y-34029166D01*
X68349520Y-33950000D02*
X68428686Y-34029166D01*
X70556782Y-33950000D02*
X70635948Y-34029166D01*
X72843210Y-34029166D02*
X72843210Y-33950000D01*
X71739579Y-33950000D02*
X72764044Y-33950000D01*
X70635948Y-33950000D02*
X71660413Y-33950000D01*
X67325055Y-33950000D02*
X68349520Y-33950000D01*
%TO.N,PCIE_DN_OUT3_N_MCIO*%
X88450000Y-37730000D02*
X53200000Y-37730000D01*
%TO.N,PCIE_UP3_N*%
X88900000Y-33450000D02*
X54400000Y-33450000D01*
%TO.N,DS320_STRAP_A_ADDR0_7-0*%
D12*
X83110000Y-56790000D02*
X84210000Y-57890000D01*
X84210000Y-57890000D02*
X84210000Y-63890000D01*
X83110000Y-53190000D02*
X83110000Y-56790000D01*
X82910000Y-52990000D02*
X83110000Y-53190000D01*
%TO.N,DS320_STRAP_B_ADDR0_7-0*%
X83760000Y-57990000D02*
X83760000Y-64190000D01*
X82760000Y-56990000D02*
X83760000Y-57990000D01*
X82360000Y-54490000D02*
X82760000Y-54890000D01*
X83760000Y-64190000D02*
X84160000Y-64590000D01*
X84160000Y-64590000D02*
X84160000Y-66690000D01*
X82760000Y-54890000D02*
X82760000Y-56990000D01*
%TO.N,DS320_STRAP_B_ADDR1_7-0*%
X104050000Y-52179600D02*
X104150000Y-52279600D01*
X105250000Y-54279600D02*
X105550000Y-54279600D01*
X103050000Y-51879600D02*
X103450000Y-51879600D01*
X103450000Y-51879600D02*
X103550000Y-51979600D01*
X105550000Y-54279600D02*
X106750000Y-55479600D01*
X104150000Y-53179600D02*
X105250000Y-54279600D01*
X104050000Y-52079600D02*
X104050000Y-52179600D01*
X103850000Y-51979600D02*
X103950000Y-52079600D01*
X103550000Y-51979600D02*
X103850000Y-51979600D01*
X103950000Y-52079600D02*
X104050000Y-52079600D01*
X104150000Y-52279600D02*
X104150000Y-53179600D01*
%TO.N,PCIE_DN_OUT0_P_MCIO*%
D13*
X74790810Y-41440000D02*
X75844800Y-41440000D01*
X75926423Y-41440000D02*
X76980413Y-41440000D01*
X78116026Y-41440000D02*
X78197649Y-41521623D01*
X74709187Y-41440000D02*
X74790810Y-41521623D01*
X79333262Y-41440000D02*
X80387252Y-41440000D01*
X80468875Y-41521623D02*
X80468875Y-41440000D01*
X75844800Y-41440000D02*
X75926423Y-41521623D01*
X78197649Y-41521623D02*
X78197649Y-41440000D01*
X77062036Y-41521623D02*
X77062036Y-41440000D01*
X70248358Y-41440000D02*
X71302348Y-41440000D01*
X71383971Y-41521623D02*
X71383971Y-41440000D01*
X79251639Y-41440000D02*
X79333262Y-41521623D01*
X80468875Y-41440000D02*
X81522868Y-41440000D01*
X73655197Y-41521623D02*
X73655197Y-41440000D01*
X71302348Y-41440000D02*
X71383971Y-41521623D01*
X72437961Y-41440000D02*
X72519584Y-41521623D01*
X69112745Y-41521623D02*
X69112745Y-41440000D01*
X67977132Y-41440000D02*
X69031122Y-41440000D01*
X73573574Y-41440000D02*
X73655197Y-41521623D01*
X72519584Y-41521623D02*
X72519584Y-41440000D01*
X69031122Y-41440000D02*
X69112745Y-41521623D01*
X74790810Y-41521623D02*
X74790810Y-41440000D01*
X72519584Y-41440000D02*
X73573574Y-41440000D01*
X71383971Y-41440000D02*
X72437961Y-41440000D01*
X84300000Y-41440000D02*
X81522868Y-41440000D01*
X70248358Y-41521623D02*
X70248358Y-41440000D01*
X76980413Y-41440000D02*
X77062036Y-41521623D01*
X75926423Y-41521623D02*
X75926423Y-41440000D01*
X70166735Y-41440000D02*
X70248358Y-41521623D01*
X80387252Y-41440000D02*
X80468875Y-41521623D01*
X79333262Y-41521623D02*
X79333262Y-41440000D01*
X78197649Y-41440000D02*
X79251639Y-41440000D01*
X67977132Y-41440000D02*
X65200000Y-41440000D01*
X73655197Y-41440000D02*
X74709187Y-41440000D01*
X69112745Y-41440000D02*
X70166735Y-41440000D01*
X77062036Y-41440000D02*
X78116026Y-41440000D01*
%TO.N,PCIE_UP0_N*%
X84800000Y-37160000D02*
X64599999Y-37160000D01*
%TO.N,PCIE_DN_OUT0_N_MCIO*%
X84850000Y-40940000D02*
X64599999Y-40940000D01*
%TO.N,PCIE_UP0_P*%
X80723097Y-36660000D02*
X81845663Y-36660000D01*
X77102469Y-36660000D02*
X78225031Y-36660000D01*
X73481841Y-36575686D02*
X73481841Y-36660000D01*
X73481841Y-36660000D02*
X74604403Y-36660000D01*
X79516221Y-36575686D02*
X79516221Y-36660000D01*
X70983775Y-36660000D02*
X71068089Y-36575686D01*
X78309345Y-36660000D02*
X79431907Y-36660000D01*
X75895593Y-36575686D02*
X75895593Y-36660000D01*
X74688717Y-36575686D02*
X74688717Y-36660000D01*
X71068089Y-36660000D02*
X72190651Y-36660000D01*
X72190651Y-36660000D02*
X72274965Y-36575686D01*
X73397527Y-36660000D02*
X73481841Y-36575686D01*
X75811279Y-36660000D02*
X75895593Y-36575686D01*
X75895593Y-36660000D02*
X77018155Y-36660000D01*
X71068089Y-36575686D02*
X71068089Y-36660000D01*
X77018155Y-36660000D02*
X77102469Y-36575686D01*
X74604403Y-36660000D02*
X74688717Y-36575686D01*
X69776899Y-36660000D02*
X69861213Y-36575686D01*
X80723097Y-36575686D02*
X80723097Y-36660000D01*
X69861213Y-36575686D02*
X69861213Y-36660000D01*
X78225031Y-36660000D02*
X78309345Y-36575686D01*
X85300000Y-36660000D02*
X81845663Y-36660000D01*
X77102469Y-36575686D02*
X77102469Y-36660000D01*
X72274965Y-36575686D02*
X72274965Y-36660000D01*
X80638783Y-36660000D02*
X80723097Y-36575686D01*
X72274965Y-36660000D02*
X73397527Y-36660000D01*
X68654337Y-36660000D02*
X69776899Y-36660000D01*
X74688717Y-36660000D02*
X75811279Y-36660000D01*
X69861213Y-36660000D02*
X70983775Y-36660000D01*
X68654337Y-36660000D02*
X65200000Y-36660000D01*
X79431907Y-36660000D02*
X79516221Y-36575686D01*
X79516221Y-36660000D02*
X80638783Y-36660000D01*
X78309345Y-36575686D02*
X78309345Y-36660000D01*
%TO.N,PCIE_DN_OUT1_P_MCIO*%
X71019584Y-40451623D02*
X71019584Y-40370000D01*
X72073574Y-40370000D02*
X72155197Y-40451623D01*
X69883971Y-40370000D02*
X70937961Y-40370000D01*
X68748358Y-40370000D02*
X69802348Y-40370000D01*
X68748358Y-40451623D02*
X68748358Y-40370000D01*
X74426423Y-40370000D02*
X75480413Y-40370000D01*
X67531122Y-40370000D02*
X67612745Y-40451623D01*
X75480413Y-40370000D02*
X75562036Y-40451623D01*
X78968875Y-40370000D02*
X80022868Y-40370000D01*
X69802348Y-40370000D02*
X69883971Y-40451623D01*
X85500000Y-40370000D02*
X80022868Y-40370000D01*
X76697649Y-40370000D02*
X77751639Y-40370000D01*
X66477132Y-40370000D02*
X67531122Y-40370000D01*
X72155197Y-40370000D02*
X73209187Y-40370000D01*
X66477132Y-40370000D02*
X61000000Y-40370000D01*
X67612745Y-40451623D02*
X67612745Y-40370000D01*
X78887252Y-40370000D02*
X78968875Y-40451623D01*
X68666735Y-40370000D02*
X68748358Y-40451623D01*
X75562036Y-40370000D02*
X76616026Y-40370000D01*
X77833262Y-40370000D02*
X78887252Y-40370000D01*
X75562036Y-40451623D02*
X75562036Y-40370000D01*
X76616026Y-40370000D02*
X76697649Y-40451623D01*
X76697649Y-40451623D02*
X76697649Y-40370000D01*
X77833262Y-40451623D02*
X77833262Y-40370000D01*
X77751639Y-40370000D02*
X77833262Y-40451623D01*
X71019584Y-40370000D02*
X72073574Y-40370000D01*
X69883971Y-40451623D02*
X69883971Y-40370000D01*
X74426423Y-40451623D02*
X74426423Y-40370000D01*
X78968875Y-40451623D02*
X78968875Y-40370000D01*
X67612745Y-40370000D02*
X68666735Y-40370000D01*
X73209187Y-40370000D02*
X73290810Y-40451623D01*
X73290810Y-40451623D02*
X73290810Y-40370000D01*
X72155197Y-40451623D02*
X72155197Y-40370000D01*
X70937961Y-40370000D02*
X71019584Y-40451623D01*
X73290810Y-40370000D02*
X74344800Y-40370000D01*
X74344800Y-40370000D02*
X74426423Y-40451623D01*
%TO.N,PCIE_UP1_N*%
X86000000Y-36090000D02*
X61600000Y-36090000D01*
%TD*%
M02*
