%TF.GenerationSoftware,KiCad,Pcbnew,10.0.5*%
%TF.CreationDate,2026-09-19T00:00:00+08:00*%
%TF.ProjectId,k2_v4_8L.m7t8a,6b325f76-345f-4384-9c2e-6d377438612e,rev?*%
%TF.SameCoordinates,Original*%
%TF.FileFunction,Legend,Top*%
%TF.FilePolarity,Positive*%
%FSLAX46Y46*%
G04 Gerber Fmt 4.6, Leading zero omitted, Abs format (unit mm)*
G04 Created by KiCad (PCBNEW 10.0.5) date 2026-09-19T00:00:00+08:00+08:00*
%MOMM*%
%LPD*%
G01*
G04 APERTURE LIST*
%ADD10C,0.150000*%
G04 APERTURE END LIST*
D10*
X35238095Y-50454819D02*
X35238095Y-51264342D01*
X35238095Y-51264342D02*
X35285714Y-51359580D01*
X35285714Y-51359580D02*
X35333333Y-51407200D01*
X35333333Y-51407200D02*
X35428571Y-51454819D01*
X35428571Y-51454819D02*
X35619047Y-51454819D01*
X35619047Y-51454819D02*
X35714285Y-51407200D01*
X35714285Y-51407200D02*
X35761904Y-51359580D01*
X35761904Y-51359580D02*
X35809523Y-51264342D01*
X35809523Y-51264342D02*
X35809523Y-50454819D01*
X36809523Y-51454819D02*
X36238095Y-51454819D01*
X36523809Y-51454819D02*
X36523809Y-50454819D01*
X36523809Y-50454819D02*
X36428571Y-50597676D01*
X36428571Y-50597676D02*
X36333333Y-50692914D01*
X36333333Y-50692914D02*
X36238095Y-50740533D01*
X28857142Y-36454819D02*
X28523809Y-35978628D01*
X28285714Y-36454819D02*
X28285714Y-35454819D01*
X28285714Y-35454819D02*
X28666666Y-35454819D01*
X28666666Y-35454819D02*
X28761904Y-35502438D01*
X28761904Y-35502438D02*
X28809523Y-35550057D01*
X28809523Y-35550057D02*
X28857142Y-35645295D01*
X28857142Y-35645295D02*
X28857142Y-35788152D01*
X28857142Y-35788152D02*
X28809523Y-35883390D01*
X28809523Y-35883390D02*
X28761904Y-35931009D01*
X28761904Y-35931009D02*
X28666666Y-35978628D01*
X28666666Y-35978628D02*
X28285714Y-35978628D01*
X29714285Y-35788152D02*
X29714285Y-36454819D01*
X29476190Y-35407200D02*
X29238095Y-36121485D01*
X29238095Y-36121485D02*
X29857142Y-36121485D01*
X30761904Y-36454819D02*
X30190476Y-36454819D01*
X30476190Y-36454819D02*
X30476190Y-35454819D01*
X30476190Y-35454819D02*
X30380952Y-35597676D01*
X30380952Y-35597676D02*
X30285714Y-35692914D01*
X30285714Y-35692914D02*
X30190476Y-35740533D01*
X28857142Y-43359580D02*
X28809523Y-43407200D01*
X28809523Y-43407200D02*
X28666666Y-43454819D01*
X28666666Y-43454819D02*
X28571428Y-43454819D01*
X28571428Y-43454819D02*
X28428571Y-43407200D01*
X28428571Y-43407200D02*
X28333333Y-43311961D01*
X28333333Y-43311961D02*
X28285714Y-43216723D01*
X28285714Y-43216723D02*
X28238095Y-43026247D01*
X28238095Y-43026247D02*
X28238095Y-42883390D01*
X28238095Y-42883390D02*
X28285714Y-42692914D01*
X28285714Y-42692914D02*
X28333333Y-42597676D01*
X28333333Y-42597676D02*
X28428571Y-42502438D01*
X28428571Y-42502438D02*
X28571428Y-42454819D01*
X28571428Y-42454819D02*
X28666666Y-42454819D01*
X28666666Y-42454819D02*
X28809523Y-42502438D01*
X28809523Y-42502438D02*
X28857142Y-42550057D01*
X29428571Y-42883390D02*
X29333333Y-42835771D01*
X29333333Y-42835771D02*
X29285714Y-42788152D01*
X29285714Y-42788152D02*
X29238095Y-42692914D01*
X29238095Y-42692914D02*
X29238095Y-42645295D01*
X29238095Y-42645295D02*
X29285714Y-42550057D01*
X29285714Y-42550057D02*
X29333333Y-42502438D01*
X29333333Y-42502438D02*
X29428571Y-42454819D01*
X29428571Y-42454819D02*
X29619047Y-42454819D01*
X29619047Y-42454819D02*
X29714285Y-42502438D01*
X29714285Y-42502438D02*
X29761904Y-42550057D01*
X29761904Y-42550057D02*
X29809523Y-42645295D01*
X29809523Y-42645295D02*
X29809523Y-42692914D01*
X29809523Y-42692914D02*
X29761904Y-42788152D01*
X29761904Y-42788152D02*
X29714285Y-42835771D01*
X29714285Y-42835771D02*
X29619047Y-42883390D01*
X29619047Y-42883390D02*
X29428571Y-42883390D01*
X29428571Y-42883390D02*
X29333333Y-42931009D01*
X29333333Y-42931009D02*
X29285714Y-42978628D01*
X29285714Y-42978628D02*
X29238095Y-43073866D01*
X29238095Y-43073866D02*
X29238095Y-43264342D01*
X29238095Y-43264342D02*
X29285714Y-43359580D01*
X29285714Y-43359580D02*
X29333333Y-43407200D01*
X29333333Y-43407200D02*
X29428571Y-43454819D01*
X29428571Y-43454819D02*
X29619047Y-43454819D01*
X29619047Y-43454819D02*
X29714285Y-43407200D01*
X29714285Y-43407200D02*
X29761904Y-43359580D01*
X29761904Y-43359580D02*
X29809523Y-43264342D01*
X29809523Y-43264342D02*
X29809523Y-43073866D01*
X29809523Y-43073866D02*
X29761904Y-42978628D01*
X29761904Y-42978628D02*
X29714285Y-42931009D01*
X29714285Y-42931009D02*
X29619047Y-42883390D01*
X30380952Y-42883390D02*
X30285714Y-42835771D01*
X30285714Y-42835771D02*
X30238095Y-42788152D01*
X30238095Y-42788152D02*
X30190476Y-42692914D01*
X30190476Y-42692914D02*
X30190476Y-42645295D01*
X30190476Y-42645295D02*
X30238095Y-42550057D01*
X30238095Y-42550057D02*
X30285714Y-42502438D01*
X30285714Y-42502438D02*
X30380952Y-42454819D01*
X30380952Y-42454819D02*
X30571428Y-42454819D01*
X30571428Y-42454819D02*
X30666666Y-42502438D01*
X30666666Y-42502438D02*
X30714285Y-42550057D01*
X30714285Y-42550057D02*
X30761904Y-42645295D01*
X30761904Y-42645295D02*
X30761904Y-42692914D01*
X30761904Y-42692914D02*
X30714285Y-42788152D01*
X30714285Y-42788152D02*
X30666666Y-42835771D01*
X30666666Y-42835771D02*
X30571428Y-42883390D01*
X30571428Y-42883390D02*
X30380952Y-42883390D01*
X30380952Y-42883390D02*
X30285714Y-42931009D01*
X30285714Y-42931009D02*
X30238095Y-42978628D01*
X30238095Y-42978628D02*
X30190476Y-43073866D01*
X30190476Y-43073866D02*
X30190476Y-43264342D01*
X30190476Y-43264342D02*
X30238095Y-43359580D01*
X30238095Y-43359580D02*
X30285714Y-43407200D01*
X30285714Y-43407200D02*
X30380952Y-43454819D01*
X30380952Y-43454819D02*
X30571428Y-43454819D01*
X30571428Y-43454819D02*
X30666666Y-43407200D01*
X30666666Y-43407200D02*
X30714285Y-43359580D01*
X30714285Y-43359580D02*
X30761904Y-43264342D01*
X30761904Y-43264342D02*
X30761904Y-43073866D01*
X30761904Y-43073866D02*
X30714285Y-42978628D01*
X30714285Y-42978628D02*
X30666666Y-42931009D01*
X30666666Y-42931009D02*
X30571428Y-42883390D01*
X90357142Y-58359580D02*
X90309523Y-58407200D01*
X90309523Y-58407200D02*
X90166666Y-58454819D01*
X90166666Y-58454819D02*
X90071428Y-58454819D01*
X90071428Y-58454819D02*
X89928571Y-58407200D01*
X89928571Y-58407200D02*
X89833333Y-58311961D01*
X89833333Y-58311961D02*
X89785714Y-58216723D01*
X89785714Y-58216723D02*
X89738095Y-58026247D01*
X89738095Y-58026247D02*
X89738095Y-57883390D01*
X89738095Y-57883390D02*
X89785714Y-57692914D01*
X89785714Y-57692914D02*
X89833333Y-57597676D01*
X89833333Y-57597676D02*
X89928571Y-57502438D01*
X89928571Y-57502438D02*
X90071428Y-57454819D01*
X90071428Y-57454819D02*
X90166666Y-57454819D01*
X90166666Y-57454819D02*
X90309523Y-57502438D01*
X90309523Y-57502438D02*
X90357142Y-57550057D01*
X90928571Y-57883390D02*
X90833333Y-57835771D01*
X90833333Y-57835771D02*
X90785714Y-57788152D01*
X90785714Y-57788152D02*
X90738095Y-57692914D01*
X90738095Y-57692914D02*
X90738095Y-57645295D01*
X90738095Y-57645295D02*
X90785714Y-57550057D01*
X90785714Y-57550057D02*
X90833333Y-57502438D01*
X90833333Y-57502438D02*
X90928571Y-57454819D01*
X90928571Y-57454819D02*
X91119047Y-57454819D01*
X91119047Y-57454819D02*
X91214285Y-57502438D01*
X91214285Y-57502438D02*
X91261904Y-57550057D01*
X91261904Y-57550057D02*
X91309523Y-57645295D01*
X91309523Y-57645295D02*
X91309523Y-57692914D01*
X91309523Y-57692914D02*
X91261904Y-57788152D01*
X91261904Y-57788152D02*
X91214285Y-57835771D01*
X91214285Y-57835771D02*
X91119047Y-57883390D01*
X91119047Y-57883390D02*
X90928571Y-57883390D01*
X90928571Y-57883390D02*
X90833333Y-57931009D01*
X90833333Y-57931009D02*
X90785714Y-57978628D01*
X90785714Y-57978628D02*
X90738095Y-58073866D01*
X90738095Y-58073866D02*
X90738095Y-58264342D01*
X90738095Y-58264342D02*
X90785714Y-58359580D01*
X90785714Y-58359580D02*
X90833333Y-58407200D01*
X90833333Y-58407200D02*
X90928571Y-58454819D01*
X90928571Y-58454819D02*
X91119047Y-58454819D01*
X91119047Y-58454819D02*
X91214285Y-58407200D01*
X91214285Y-58407200D02*
X91261904Y-58359580D01*
X91261904Y-58359580D02*
X91309523Y-58264342D01*
X91309523Y-58264342D02*
X91309523Y-58073866D01*
X91309523Y-58073866D02*
X91261904Y-57978628D01*
X91261904Y-57978628D02*
X91214285Y-57931009D01*
X91214285Y-57931009D02*
X91119047Y-57883390D01*
X92261904Y-58454819D02*
X91690476Y-58454819D01*
X91976190Y-58454819D02*
X91976190Y-57454819D01*
X91976190Y-57454819D02*
X91880952Y-57597676D01*
X91880952Y-57597676D02*
X91785714Y-57692914D01*
X91785714Y-57692914D02*
X91690476Y-57740533D01*
X90357142Y-36859580D02*
X90309523Y-36907200D01*
X90309523Y-36907200D02*
X90166666Y-36954819D01*
X90166666Y-36954819D02*
X90071428Y-36954819D01*
X90071428Y-36954819D02*
X89928571Y-36907200D01*
X89928571Y-36907200D02*
X89833333Y-36811961D01*
X89833333Y-36811961D02*
X89785714Y-36716723D01*
X89785714Y-36716723D02*
X89738095Y-36526247D01*
X89738095Y-36526247D02*
X89738095Y-36383390D01*
X89738095Y-36383390D02*
X89785714Y-36192914D01*
X89785714Y-36192914D02*
X89833333Y-36097676D01*
X89833333Y-36097676D02*
X89928571Y-36002438D01*
X89928571Y-36002438D02*
X90071428Y-35954819D01*
X90071428Y-35954819D02*
X90166666Y-35954819D01*
X90166666Y-35954819D02*
X90309523Y-36002438D01*
X90309523Y-36002438D02*
X90357142Y-36050057D01*
X90690476Y-35954819D02*
X91357142Y-35954819D01*
X91357142Y-35954819D02*
X90928571Y-36954819D01*
X91880952Y-36383390D02*
X91785714Y-36335771D01*
X91785714Y-36335771D02*
X91738095Y-36288152D01*
X91738095Y-36288152D02*
X91690476Y-36192914D01*
X91690476Y-36192914D02*
X91690476Y-36145295D01*
X91690476Y-36145295D02*
X91738095Y-36050057D01*
X91738095Y-36050057D02*
X91785714Y-36002438D01*
X91785714Y-36002438D02*
X91880952Y-35954819D01*
X91880952Y-35954819D02*
X92071428Y-35954819D01*
X92071428Y-35954819D02*
X92166666Y-36002438D01*
X92166666Y-36002438D02*
X92214285Y-36050057D01*
X92214285Y-36050057D02*
X92261904Y-36145295D01*
X92261904Y-36145295D02*
X92261904Y-36192914D01*
X92261904Y-36192914D02*
X92214285Y-36288152D01*
X92214285Y-36288152D02*
X92166666Y-36335771D01*
X92166666Y-36335771D02*
X92071428Y-36383390D01*
X92071428Y-36383390D02*
X91880952Y-36383390D01*
X91880952Y-36383390D02*
X91785714Y-36431009D01*
X91785714Y-36431009D02*
X91738095Y-36478628D01*
X91738095Y-36478628D02*
X91690476Y-36573866D01*
X91690476Y-36573866D02*
X91690476Y-36764342D01*
X91690476Y-36764342D02*
X91738095Y-36859580D01*
X91738095Y-36859580D02*
X91785714Y-36907200D01*
X91785714Y-36907200D02*
X91880952Y-36954819D01*
X91880952Y-36954819D02*
X92071428Y-36954819D01*
X92071428Y-36954819D02*
X92166666Y-36907200D01*
X92166666Y-36907200D02*
X92214285Y-36859580D01*
X92214285Y-36859580D02*
X92261904Y-36764342D01*
X92261904Y-36764342D02*
X92261904Y-36573866D01*
X92261904Y-36573866D02*
X92214285Y-36478628D01*
X92214285Y-36478628D02*
X92166666Y-36431009D01*
X92166666Y-36431009D02*
X92071428Y-36383390D01*
X52857142Y-39454819D02*
X52523809Y-38978628D01*
X52285714Y-39454819D02*
X52285714Y-38454819D01*
X52285714Y-38454819D02*
X52666666Y-38454819D01*
X52666666Y-38454819D02*
X52761904Y-38502438D01*
X52761904Y-38502438D02*
X52809523Y-38550057D01*
X52809523Y-38550057D02*
X52857142Y-38645295D01*
X52857142Y-38645295D02*
X52857142Y-38788152D01*
X52857142Y-38788152D02*
X52809523Y-38883390D01*
X52809523Y-38883390D02*
X52761904Y-38931009D01*
X52761904Y-38931009D02*
X52666666Y-38978628D01*
X52666666Y-38978628D02*
X52285714Y-38978628D01*
X53238095Y-38550057D02*
X53285714Y-38502438D01*
X53285714Y-38502438D02*
X53380952Y-38454819D01*
X53380952Y-38454819D02*
X53619047Y-38454819D01*
X53619047Y-38454819D02*
X53714285Y-38502438D01*
X53714285Y-38502438D02*
X53761904Y-38550057D01*
X53761904Y-38550057D02*
X53809523Y-38645295D01*
X53809523Y-38645295D02*
X53809523Y-38740533D01*
X53809523Y-38740533D02*
X53761904Y-38883390D01*
X53761904Y-38883390D02*
X53190476Y-39454819D01*
X53190476Y-39454819D02*
X53809523Y-39454819D01*
X54285714Y-39454819D02*
X54476190Y-39454819D01*
X54476190Y-39454819D02*
X54571428Y-39407200D01*
X54571428Y-39407200D02*
X54619047Y-39359580D01*
X54619047Y-39359580D02*
X54714285Y-39216723D01*
X54714285Y-39216723D02*
X54761904Y-39026247D01*
X54761904Y-39026247D02*
X54761904Y-38645295D01*
X54761904Y-38645295D02*
X54714285Y-38550057D01*
X54714285Y-38550057D02*
X54666666Y-38502438D01*
X54666666Y-38502438D02*
X54571428Y-38454819D01*
X54571428Y-38454819D02*
X54380952Y-38454819D01*
X54380952Y-38454819D02*
X54285714Y-38502438D01*
X54285714Y-38502438D02*
X54238095Y-38550057D01*
X54238095Y-38550057D02*
X54190476Y-38645295D01*
X54190476Y-38645295D02*
X54190476Y-38883390D01*
X54190476Y-38883390D02*
X54238095Y-38978628D01*
X54238095Y-38978628D02*
X54285714Y-39026247D01*
X54285714Y-39026247D02*
X54380952Y-39073866D01*
X54380952Y-39073866D02*
X54571428Y-39073866D01*
X54571428Y-39073866D02*
X54666666Y-39026247D01*
X54666666Y-39026247D02*
X54714285Y-38978628D01*
X54714285Y-38978628D02*
X54761904Y-38883390D01*
X59166666Y-60154819D02*
X59166666Y-60869104D01*
X59166666Y-60869104D02*
X59119047Y-61011961D01*
X59119047Y-61011961D02*
X59023809Y-61107200D01*
X59023809Y-61107200D02*
X58880952Y-61154819D01*
X58880952Y-61154819D02*
X58785714Y-61154819D01*
X60071428Y-60488152D02*
X60071428Y-61154819D01*
X59833333Y-60107200D02*
X59595238Y-60821485D01*
X59595238Y-60821485D02*
X60214285Y-60821485D01*
X140038095Y-73104819D02*
X140038095Y-72104819D01*
X140038095Y-72581009D02*
X140609523Y-72581009D01*
X140609523Y-73104819D02*
X140609523Y-72104819D01*
X141514285Y-72438152D02*
X141514285Y-73104819D01*
X141276190Y-72057200D02*
X141038095Y-72771485D01*
X141038095Y-72771485D02*
X141657142Y-72771485D01*
X43357142Y-37359580D02*
X43309523Y-37407200D01*
X43309523Y-37407200D02*
X43166666Y-37454819D01*
X43166666Y-37454819D02*
X43071428Y-37454819D01*
X43071428Y-37454819D02*
X42928571Y-37407200D01*
X42928571Y-37407200D02*
X42833333Y-37311961D01*
X42833333Y-37311961D02*
X42785714Y-37216723D01*
X42785714Y-37216723D02*
X42738095Y-37026247D01*
X42738095Y-37026247D02*
X42738095Y-36883390D01*
X42738095Y-36883390D02*
X42785714Y-36692914D01*
X42785714Y-36692914D02*
X42833333Y-36597676D01*
X42833333Y-36597676D02*
X42928571Y-36502438D01*
X42928571Y-36502438D02*
X43071428Y-36454819D01*
X43071428Y-36454819D02*
X43166666Y-36454819D01*
X43166666Y-36454819D02*
X43309523Y-36502438D01*
X43309523Y-36502438D02*
X43357142Y-36550057D01*
X43928571Y-36883390D02*
X43833333Y-36835771D01*
X43833333Y-36835771D02*
X43785714Y-36788152D01*
X43785714Y-36788152D02*
X43738095Y-36692914D01*
X43738095Y-36692914D02*
X43738095Y-36645295D01*
X43738095Y-36645295D02*
X43785714Y-36550057D01*
X43785714Y-36550057D02*
X43833333Y-36502438D01*
X43833333Y-36502438D02*
X43928571Y-36454819D01*
X43928571Y-36454819D02*
X44119047Y-36454819D01*
X44119047Y-36454819D02*
X44214285Y-36502438D01*
X44214285Y-36502438D02*
X44261904Y-36550057D01*
X44261904Y-36550057D02*
X44309523Y-36645295D01*
X44309523Y-36645295D02*
X44309523Y-36692914D01*
X44309523Y-36692914D02*
X44261904Y-36788152D01*
X44261904Y-36788152D02*
X44214285Y-36835771D01*
X44214285Y-36835771D02*
X44119047Y-36883390D01*
X44119047Y-36883390D02*
X43928571Y-36883390D01*
X43928571Y-36883390D02*
X43833333Y-36931009D01*
X43833333Y-36931009D02*
X43785714Y-36978628D01*
X43785714Y-36978628D02*
X43738095Y-37073866D01*
X43738095Y-37073866D02*
X43738095Y-37264342D01*
X43738095Y-37264342D02*
X43785714Y-37359580D01*
X43785714Y-37359580D02*
X43833333Y-37407200D01*
X43833333Y-37407200D02*
X43928571Y-37454819D01*
X43928571Y-37454819D02*
X44119047Y-37454819D01*
X44119047Y-37454819D02*
X44214285Y-37407200D01*
X44214285Y-37407200D02*
X44261904Y-37359580D01*
X44261904Y-37359580D02*
X44309523Y-37264342D01*
X44309523Y-37264342D02*
X44309523Y-37073866D01*
X44309523Y-37073866D02*
X44261904Y-36978628D01*
X44261904Y-36978628D02*
X44214285Y-36931009D01*
X44214285Y-36931009D02*
X44119047Y-36883390D01*
X44642857Y-36454819D02*
X45309523Y-36454819D01*
X45309523Y-36454819D02*
X44880952Y-37454819D01*
X53333333Y-35454819D02*
X53000000Y-34978628D01*
X52761905Y-35454819D02*
X52761905Y-34454819D01*
X52761905Y-34454819D02*
X53142857Y-34454819D01*
X53142857Y-34454819D02*
X53238095Y-34502438D01*
X53238095Y-34502438D02*
X53285714Y-34550057D01*
X53285714Y-34550057D02*
X53333333Y-34645295D01*
X53333333Y-34645295D02*
X53333333Y-34788152D01*
X53333333Y-34788152D02*
X53285714Y-34883390D01*
X53285714Y-34883390D02*
X53238095Y-34931009D01*
X53238095Y-34931009D02*
X53142857Y-34978628D01*
X53142857Y-34978628D02*
X52761905Y-34978628D01*
X53666667Y-34454819D02*
X54285714Y-34454819D01*
X54285714Y-34454819D02*
X53952381Y-34835771D01*
X53952381Y-34835771D02*
X54095238Y-34835771D01*
X54095238Y-34835771D02*
X54190476Y-34883390D01*
X54190476Y-34883390D02*
X54238095Y-34931009D01*
X54238095Y-34931009D02*
X54285714Y-35026247D01*
X54285714Y-35026247D02*
X54285714Y-35264342D01*
X54285714Y-35264342D02*
X54238095Y-35359580D01*
X54238095Y-35359580D02*
X54190476Y-35407200D01*
X54190476Y-35407200D02*
X54095238Y-35454819D01*
X54095238Y-35454819D02*
X53809524Y-35454819D01*
X53809524Y-35454819D02*
X53714286Y-35407200D01*
X53714286Y-35407200D02*
X53666667Y-35359580D01*
X90357142Y-39359580D02*
X90309523Y-39407200D01*
X90309523Y-39407200D02*
X90166666Y-39454819D01*
X90166666Y-39454819D02*
X90071428Y-39454819D01*
X90071428Y-39454819D02*
X89928571Y-39407200D01*
X89928571Y-39407200D02*
X89833333Y-39311961D01*
X89833333Y-39311961D02*
X89785714Y-39216723D01*
X89785714Y-39216723D02*
X89738095Y-39026247D01*
X89738095Y-39026247D02*
X89738095Y-38883390D01*
X89738095Y-38883390D02*
X89785714Y-38692914D01*
X89785714Y-38692914D02*
X89833333Y-38597676D01*
X89833333Y-38597676D02*
X89928571Y-38502438D01*
X89928571Y-38502438D02*
X90071428Y-38454819D01*
X90071428Y-38454819D02*
X90166666Y-38454819D01*
X90166666Y-38454819D02*
X90309523Y-38502438D01*
X90309523Y-38502438D02*
X90357142Y-38550057D01*
X90690476Y-38454819D02*
X91357142Y-38454819D01*
X91357142Y-38454819D02*
X90928571Y-39454819D01*
X92214285Y-38454819D02*
X91738095Y-38454819D01*
X91738095Y-38454819D02*
X91690476Y-38931009D01*
X91690476Y-38931009D02*
X91738095Y-38883390D01*
X91738095Y-38883390D02*
X91833333Y-38835771D01*
X91833333Y-38835771D02*
X92071428Y-38835771D01*
X92071428Y-38835771D02*
X92166666Y-38883390D01*
X92166666Y-38883390D02*
X92214285Y-38931009D01*
X92214285Y-38931009D02*
X92261904Y-39026247D01*
X92261904Y-39026247D02*
X92261904Y-39264342D01*
X92261904Y-39264342D02*
X92214285Y-39359580D01*
X92214285Y-39359580D02*
X92166666Y-39407200D01*
X92166666Y-39407200D02*
X92071428Y-39454819D01*
X92071428Y-39454819D02*
X91833333Y-39454819D01*
X91833333Y-39454819D02*
X91738095Y-39407200D01*
X91738095Y-39407200D02*
X91690476Y-39359580D01*
X90357142Y-59359580D02*
X90309523Y-59407200D01*
X90309523Y-59407200D02*
X90166666Y-59454819D01*
X90166666Y-59454819D02*
X90071428Y-59454819D01*
X90071428Y-59454819D02*
X89928571Y-59407200D01*
X89928571Y-59407200D02*
X89833333Y-59311961D01*
X89833333Y-59311961D02*
X89785714Y-59216723D01*
X89785714Y-59216723D02*
X89738095Y-59026247D01*
X89738095Y-59026247D02*
X89738095Y-58883390D01*
X89738095Y-58883390D02*
X89785714Y-58692914D01*
X89785714Y-58692914D02*
X89833333Y-58597676D01*
X89833333Y-58597676D02*
X89928571Y-58502438D01*
X89928571Y-58502438D02*
X90071428Y-58454819D01*
X90071428Y-58454819D02*
X90166666Y-58454819D01*
X90166666Y-58454819D02*
X90309523Y-58502438D01*
X90309523Y-58502438D02*
X90357142Y-58550057D01*
X90690476Y-58454819D02*
X91357142Y-58454819D01*
X91357142Y-58454819D02*
X90928571Y-59454819D01*
X91785714Y-59454819D02*
X91976190Y-59454819D01*
X91976190Y-59454819D02*
X92071428Y-59407200D01*
X92071428Y-59407200D02*
X92119047Y-59359580D01*
X92119047Y-59359580D02*
X92214285Y-59216723D01*
X92214285Y-59216723D02*
X92261904Y-59026247D01*
X92261904Y-59026247D02*
X92261904Y-58645295D01*
X92261904Y-58645295D02*
X92214285Y-58550057D01*
X92214285Y-58550057D02*
X92166666Y-58502438D01*
X92166666Y-58502438D02*
X92071428Y-58454819D01*
X92071428Y-58454819D02*
X91880952Y-58454819D01*
X91880952Y-58454819D02*
X91785714Y-58502438D01*
X91785714Y-58502438D02*
X91738095Y-58550057D01*
X91738095Y-58550057D02*
X91690476Y-58645295D01*
X91690476Y-58645295D02*
X91690476Y-58883390D01*
X91690476Y-58883390D02*
X91738095Y-58978628D01*
X91738095Y-58978628D02*
X91785714Y-59026247D01*
X91785714Y-59026247D02*
X91880952Y-59073866D01*
X91880952Y-59073866D02*
X92071428Y-59073866D01*
X92071428Y-59073866D02*
X92166666Y-59026247D01*
X92166666Y-59026247D02*
X92214285Y-58978628D01*
X92214285Y-58978628D02*
X92261904Y-58883390D01*
X24309395Y-73233519D02*
X24309395Y-72233519D01*
X24309395Y-72709709D02*
X24880823Y-72709709D01*
X24880823Y-73233519D02*
X24880823Y-72233519D01*
X25880823Y-73233519D02*
X25309395Y-73233519D01*
X25595109Y-73233519D02*
X25595109Y-72233519D01*
X25595109Y-72233519D02*
X25499871Y-72376376D01*
X25499871Y-72376376D02*
X25404633Y-72471614D01*
X25404633Y-72471614D02*
X25309395Y-72519233D01*
X133491666Y-51154819D02*
X133491666Y-51869104D01*
X133491666Y-51869104D02*
X133444047Y-52011961D01*
X133444047Y-52011961D02*
X133348809Y-52107200D01*
X133348809Y-52107200D02*
X133205952Y-52154819D01*
X133205952Y-52154819D02*
X133110714Y-52154819D01*
X133920238Y-51250057D02*
X133967857Y-51202438D01*
X133967857Y-51202438D02*
X134063095Y-51154819D01*
X134063095Y-51154819D02*
X134301190Y-51154819D01*
X134301190Y-51154819D02*
X134396428Y-51202438D01*
X134396428Y-51202438D02*
X134444047Y-51250057D01*
X134444047Y-51250057D02*
X134491666Y-51345295D01*
X134491666Y-51345295D02*
X134491666Y-51440533D01*
X134491666Y-51440533D02*
X134444047Y-51583390D01*
X134444047Y-51583390D02*
X133872619Y-52154819D01*
X133872619Y-52154819D02*
X134491666Y-52154819D01*
X82957142Y-60004819D02*
X82623809Y-59528628D01*
X82385714Y-60004819D02*
X82385714Y-59004819D01*
X82385714Y-59004819D02*
X82766666Y-59004819D01*
X82766666Y-59004819D02*
X82861904Y-59052438D01*
X82861904Y-59052438D02*
X82909523Y-59100057D01*
X82909523Y-59100057D02*
X82957142Y-59195295D01*
X82957142Y-59195295D02*
X82957142Y-59338152D01*
X82957142Y-59338152D02*
X82909523Y-59433390D01*
X82909523Y-59433390D02*
X82861904Y-59481009D01*
X82861904Y-59481009D02*
X82766666Y-59528628D01*
X82766666Y-59528628D02*
X82385714Y-59528628D01*
X83290476Y-59004819D02*
X83909523Y-59004819D01*
X83909523Y-59004819D02*
X83576190Y-59385771D01*
X83576190Y-59385771D02*
X83719047Y-59385771D01*
X83719047Y-59385771D02*
X83814285Y-59433390D01*
X83814285Y-59433390D02*
X83861904Y-59481009D01*
X83861904Y-59481009D02*
X83909523Y-59576247D01*
X83909523Y-59576247D02*
X83909523Y-59814342D01*
X83909523Y-59814342D02*
X83861904Y-59909580D01*
X83861904Y-59909580D02*
X83814285Y-59957200D01*
X83814285Y-59957200D02*
X83719047Y-60004819D01*
X83719047Y-60004819D02*
X83433333Y-60004819D01*
X83433333Y-60004819D02*
X83338095Y-59957200D01*
X83338095Y-59957200D02*
X83290476Y-59909580D01*
X84814285Y-59004819D02*
X84338095Y-59004819D01*
X84338095Y-59004819D02*
X84290476Y-59481009D01*
X84290476Y-59481009D02*
X84338095Y-59433390D01*
X84338095Y-59433390D02*
X84433333Y-59385771D01*
X84433333Y-59385771D02*
X84671428Y-59385771D01*
X84671428Y-59385771D02*
X84766666Y-59433390D01*
X84766666Y-59433390D02*
X84814285Y-59481009D01*
X84814285Y-59481009D02*
X84861904Y-59576247D01*
X84861904Y-59576247D02*
X84861904Y-59814342D01*
X84861904Y-59814342D02*
X84814285Y-59909580D01*
X84814285Y-59909580D02*
X84766666Y-59957200D01*
X84766666Y-59957200D02*
X84671428Y-60004819D01*
X84671428Y-60004819D02*
X84433333Y-60004819D01*
X84433333Y-60004819D02*
X84338095Y-59957200D01*
X84338095Y-59957200D02*
X84290476Y-59909580D01*
X90357142Y-40359580D02*
X90309523Y-40407200D01*
X90309523Y-40407200D02*
X90166666Y-40454819D01*
X90166666Y-40454819D02*
X90071428Y-40454819D01*
X90071428Y-40454819D02*
X89928571Y-40407200D01*
X89928571Y-40407200D02*
X89833333Y-40311961D01*
X89833333Y-40311961D02*
X89785714Y-40216723D01*
X89785714Y-40216723D02*
X89738095Y-40026247D01*
X89738095Y-40026247D02*
X89738095Y-39883390D01*
X89738095Y-39883390D02*
X89785714Y-39692914D01*
X89785714Y-39692914D02*
X89833333Y-39597676D01*
X89833333Y-39597676D02*
X89928571Y-39502438D01*
X89928571Y-39502438D02*
X90071428Y-39454819D01*
X90071428Y-39454819D02*
X90166666Y-39454819D01*
X90166666Y-39454819D02*
X90309523Y-39502438D01*
X90309523Y-39502438D02*
X90357142Y-39550057D01*
X90690476Y-39454819D02*
X91357142Y-39454819D01*
X91357142Y-39454819D02*
X90928571Y-40454819D01*
X92166666Y-39454819D02*
X91976190Y-39454819D01*
X91976190Y-39454819D02*
X91880952Y-39502438D01*
X91880952Y-39502438D02*
X91833333Y-39550057D01*
X91833333Y-39550057D02*
X91738095Y-39692914D01*
X91738095Y-39692914D02*
X91690476Y-39883390D01*
X91690476Y-39883390D02*
X91690476Y-40264342D01*
X91690476Y-40264342D02*
X91738095Y-40359580D01*
X91738095Y-40359580D02*
X91785714Y-40407200D01*
X91785714Y-40407200D02*
X91880952Y-40454819D01*
X91880952Y-40454819D02*
X92071428Y-40454819D01*
X92071428Y-40454819D02*
X92166666Y-40407200D01*
X92166666Y-40407200D02*
X92214285Y-40359580D01*
X92214285Y-40359580D02*
X92261904Y-40264342D01*
X92261904Y-40264342D02*
X92261904Y-40026247D01*
X92261904Y-40026247D02*
X92214285Y-39931009D01*
X92214285Y-39931009D02*
X92166666Y-39883390D01*
X92166666Y-39883390D02*
X92071428Y-39835771D01*
X92071428Y-39835771D02*
X91880952Y-39835771D01*
X91880952Y-39835771D02*
X91785714Y-39883390D01*
X91785714Y-39883390D02*
X91738095Y-39931009D01*
X91738095Y-39931009D02*
X91690476Y-40026247D01*
X29357142Y-51859580D02*
X29309523Y-51907200D01*
X29309523Y-51907200D02*
X29166666Y-51954819D01*
X29166666Y-51954819D02*
X29071428Y-51954819D01*
X29071428Y-51954819D02*
X28928571Y-51907200D01*
X28928571Y-51907200D02*
X28833333Y-51811961D01*
X28833333Y-51811961D02*
X28785714Y-51716723D01*
X28785714Y-51716723D02*
X28738095Y-51526247D01*
X28738095Y-51526247D02*
X28738095Y-51383390D01*
X28738095Y-51383390D02*
X28785714Y-51192914D01*
X28785714Y-51192914D02*
X28833333Y-51097676D01*
X28833333Y-51097676D02*
X28928571Y-51002438D01*
X28928571Y-51002438D02*
X29071428Y-50954819D01*
X29071428Y-50954819D02*
X29166666Y-50954819D01*
X29166666Y-50954819D02*
X29309523Y-51002438D01*
X29309523Y-51002438D02*
X29357142Y-51050057D01*
X29833333Y-51954819D02*
X30023809Y-51954819D01*
X30023809Y-51954819D02*
X30119047Y-51907200D01*
X30119047Y-51907200D02*
X30166666Y-51859580D01*
X30166666Y-51859580D02*
X30261904Y-51716723D01*
X30261904Y-51716723D02*
X30309523Y-51526247D01*
X30309523Y-51526247D02*
X30309523Y-51145295D01*
X30309523Y-51145295D02*
X30261904Y-51050057D01*
X30261904Y-51050057D02*
X30214285Y-51002438D01*
X30214285Y-51002438D02*
X30119047Y-50954819D01*
X30119047Y-50954819D02*
X29928571Y-50954819D01*
X29928571Y-50954819D02*
X29833333Y-51002438D01*
X29833333Y-51002438D02*
X29785714Y-51050057D01*
X29785714Y-51050057D02*
X29738095Y-51145295D01*
X29738095Y-51145295D02*
X29738095Y-51383390D01*
X29738095Y-51383390D02*
X29785714Y-51478628D01*
X29785714Y-51478628D02*
X29833333Y-51526247D01*
X29833333Y-51526247D02*
X29928571Y-51573866D01*
X29928571Y-51573866D02*
X30119047Y-51573866D01*
X30119047Y-51573866D02*
X30214285Y-51526247D01*
X30214285Y-51526247D02*
X30261904Y-51478628D01*
X30261904Y-51478628D02*
X30309523Y-51383390D01*
X30928571Y-50954819D02*
X31023809Y-50954819D01*
X31023809Y-50954819D02*
X31119047Y-51002438D01*
X31119047Y-51002438D02*
X31166666Y-51050057D01*
X31166666Y-51050057D02*
X31214285Y-51145295D01*
X31214285Y-51145295D02*
X31261904Y-51335771D01*
X31261904Y-51335771D02*
X31261904Y-51573866D01*
X31261904Y-51573866D02*
X31214285Y-51764342D01*
X31214285Y-51764342D02*
X31166666Y-51859580D01*
X31166666Y-51859580D02*
X31119047Y-51907200D01*
X31119047Y-51907200D02*
X31023809Y-51954819D01*
X31023809Y-51954819D02*
X30928571Y-51954819D01*
X30928571Y-51954819D02*
X30833333Y-51907200D01*
X30833333Y-51907200D02*
X30785714Y-51859580D01*
X30785714Y-51859580D02*
X30738095Y-51764342D01*
X30738095Y-51764342D02*
X30690476Y-51573866D01*
X30690476Y-51573866D02*
X30690476Y-51335771D01*
X30690476Y-51335771D02*
X30738095Y-51145295D01*
X30738095Y-51145295D02*
X30785714Y-51050057D01*
X30785714Y-51050057D02*
X30833333Y-51002438D01*
X30833333Y-51002438D02*
X30928571Y-50954819D01*
X27357142Y-50259580D02*
X27309523Y-50307200D01*
X27309523Y-50307200D02*
X27166666Y-50354819D01*
X27166666Y-50354819D02*
X27071428Y-50354819D01*
X27071428Y-50354819D02*
X26928571Y-50307200D01*
X26928571Y-50307200D02*
X26833333Y-50211961D01*
X26833333Y-50211961D02*
X26785714Y-50116723D01*
X26785714Y-50116723D02*
X26738095Y-49926247D01*
X26738095Y-49926247D02*
X26738095Y-49783390D01*
X26738095Y-49783390D02*
X26785714Y-49592914D01*
X26785714Y-49592914D02*
X26833333Y-49497676D01*
X26833333Y-49497676D02*
X26928571Y-49402438D01*
X26928571Y-49402438D02*
X27071428Y-49354819D01*
X27071428Y-49354819D02*
X27166666Y-49354819D01*
X27166666Y-49354819D02*
X27309523Y-49402438D01*
X27309523Y-49402438D02*
X27357142Y-49450057D01*
X27690476Y-49354819D02*
X28357142Y-49354819D01*
X28357142Y-49354819D02*
X27928571Y-50354819D01*
X28642857Y-49354819D02*
X29261904Y-49354819D01*
X29261904Y-49354819D02*
X28928571Y-49735771D01*
X28928571Y-49735771D02*
X29071428Y-49735771D01*
X29071428Y-49735771D02*
X29166666Y-49783390D01*
X29166666Y-49783390D02*
X29214285Y-49831009D01*
X29214285Y-49831009D02*
X29261904Y-49926247D01*
X29261904Y-49926247D02*
X29261904Y-50164342D01*
X29261904Y-50164342D02*
X29214285Y-50259580D01*
X29214285Y-50259580D02*
X29166666Y-50307200D01*
X29166666Y-50307200D02*
X29071428Y-50354819D01*
X29071428Y-50354819D02*
X28785714Y-50354819D01*
X28785714Y-50354819D02*
X28690476Y-50307200D01*
X28690476Y-50307200D02*
X28642857Y-50259580D01*
X90357142Y-57359580D02*
X90309523Y-57407200D01*
X90309523Y-57407200D02*
X90166666Y-57454819D01*
X90166666Y-57454819D02*
X90071428Y-57454819D01*
X90071428Y-57454819D02*
X89928571Y-57407200D01*
X89928571Y-57407200D02*
X89833333Y-57311961D01*
X89833333Y-57311961D02*
X89785714Y-57216723D01*
X89785714Y-57216723D02*
X89738095Y-57026247D01*
X89738095Y-57026247D02*
X89738095Y-56883390D01*
X89738095Y-56883390D02*
X89785714Y-56692914D01*
X89785714Y-56692914D02*
X89833333Y-56597676D01*
X89833333Y-56597676D02*
X89928571Y-56502438D01*
X89928571Y-56502438D02*
X90071428Y-56454819D01*
X90071428Y-56454819D02*
X90166666Y-56454819D01*
X90166666Y-56454819D02*
X90309523Y-56502438D01*
X90309523Y-56502438D02*
X90357142Y-56550057D01*
X90928571Y-56883390D02*
X90833333Y-56835771D01*
X90833333Y-56835771D02*
X90785714Y-56788152D01*
X90785714Y-56788152D02*
X90738095Y-56692914D01*
X90738095Y-56692914D02*
X90738095Y-56645295D01*
X90738095Y-56645295D02*
X90785714Y-56550057D01*
X90785714Y-56550057D02*
X90833333Y-56502438D01*
X90833333Y-56502438D02*
X90928571Y-56454819D01*
X90928571Y-56454819D02*
X91119047Y-56454819D01*
X91119047Y-56454819D02*
X91214285Y-56502438D01*
X91214285Y-56502438D02*
X91261904Y-56550057D01*
X91261904Y-56550057D02*
X91309523Y-56645295D01*
X91309523Y-56645295D02*
X91309523Y-56692914D01*
X91309523Y-56692914D02*
X91261904Y-56788152D01*
X91261904Y-56788152D02*
X91214285Y-56835771D01*
X91214285Y-56835771D02*
X91119047Y-56883390D01*
X91119047Y-56883390D02*
X90928571Y-56883390D01*
X90928571Y-56883390D02*
X90833333Y-56931009D01*
X90833333Y-56931009D02*
X90785714Y-56978628D01*
X90785714Y-56978628D02*
X90738095Y-57073866D01*
X90738095Y-57073866D02*
X90738095Y-57264342D01*
X90738095Y-57264342D02*
X90785714Y-57359580D01*
X90785714Y-57359580D02*
X90833333Y-57407200D01*
X90833333Y-57407200D02*
X90928571Y-57454819D01*
X90928571Y-57454819D02*
X91119047Y-57454819D01*
X91119047Y-57454819D02*
X91214285Y-57407200D01*
X91214285Y-57407200D02*
X91261904Y-57359580D01*
X91261904Y-57359580D02*
X91309523Y-57264342D01*
X91309523Y-57264342D02*
X91309523Y-57073866D01*
X91309523Y-57073866D02*
X91261904Y-56978628D01*
X91261904Y-56978628D02*
X91214285Y-56931009D01*
X91214285Y-56931009D02*
X91119047Y-56883390D01*
X91928571Y-56454819D02*
X92023809Y-56454819D01*
X92023809Y-56454819D02*
X92119047Y-56502438D01*
X92119047Y-56502438D02*
X92166666Y-56550057D01*
X92166666Y-56550057D02*
X92214285Y-56645295D01*
X92214285Y-56645295D02*
X92261904Y-56835771D01*
X92261904Y-56835771D02*
X92261904Y-57073866D01*
X92261904Y-57073866D02*
X92214285Y-57264342D01*
X92214285Y-57264342D02*
X92166666Y-57359580D01*
X92166666Y-57359580D02*
X92119047Y-57407200D01*
X92119047Y-57407200D02*
X92023809Y-57454819D01*
X92023809Y-57454819D02*
X91928571Y-57454819D01*
X91928571Y-57454819D02*
X91833333Y-57407200D01*
X91833333Y-57407200D02*
X91785714Y-57359580D01*
X91785714Y-57359580D02*
X91738095Y-57264342D01*
X91738095Y-57264342D02*
X91690476Y-57073866D01*
X91690476Y-57073866D02*
X91690476Y-56835771D01*
X91690476Y-56835771D02*
X91738095Y-56645295D01*
X91738095Y-56645295D02*
X91785714Y-56550057D01*
X91785714Y-56550057D02*
X91833333Y-56502438D01*
X91833333Y-56502438D02*
X91928571Y-56454819D01*
X43309524Y-58931009D02*
X43642857Y-58931009D01*
X43785714Y-59454819D02*
X43309524Y-59454819D01*
X43309524Y-59454819D02*
X43309524Y-58454819D01*
X43309524Y-58454819D02*
X43785714Y-58454819D01*
X44166667Y-58550057D02*
X44214286Y-58502438D01*
X44214286Y-58502438D02*
X44309524Y-58454819D01*
X44309524Y-58454819D02*
X44547619Y-58454819D01*
X44547619Y-58454819D02*
X44642857Y-58502438D01*
X44642857Y-58502438D02*
X44690476Y-58550057D01*
X44690476Y-58550057D02*
X44738095Y-58645295D01*
X44738095Y-58645295D02*
X44738095Y-58740533D01*
X44738095Y-58740533D02*
X44690476Y-58883390D01*
X44690476Y-58883390D02*
X44119048Y-59454819D01*
X44119048Y-59454819D02*
X44738095Y-59454819D01*
X50333333Y-37454819D02*
X50000000Y-36978628D01*
X49761905Y-37454819D02*
X49761905Y-36454819D01*
X49761905Y-36454819D02*
X50142857Y-36454819D01*
X50142857Y-36454819D02*
X50238095Y-36502438D01*
X50238095Y-36502438D02*
X50285714Y-36550057D01*
X50285714Y-36550057D02*
X50333333Y-36645295D01*
X50333333Y-36645295D02*
X50333333Y-36788152D01*
X50333333Y-36788152D02*
X50285714Y-36883390D01*
X50285714Y-36883390D02*
X50238095Y-36931009D01*
X50238095Y-36931009D02*
X50142857Y-36978628D01*
X50142857Y-36978628D02*
X49761905Y-36978628D01*
X51285714Y-37454819D02*
X50714286Y-37454819D01*
X51000000Y-37454819D02*
X51000000Y-36454819D01*
X51000000Y-36454819D02*
X50904762Y-36597676D01*
X50904762Y-36597676D02*
X50809524Y-36692914D01*
X50809524Y-36692914D02*
X50714286Y-36740533D01*
X54857142Y-67954819D02*
X54523809Y-67478628D01*
X54285714Y-67954819D02*
X54285714Y-66954819D01*
X54285714Y-66954819D02*
X54666666Y-66954819D01*
X54666666Y-66954819D02*
X54761904Y-67002438D01*
X54761904Y-67002438D02*
X54809523Y-67050057D01*
X54809523Y-67050057D02*
X54857142Y-67145295D01*
X54857142Y-67145295D02*
X54857142Y-67288152D01*
X54857142Y-67288152D02*
X54809523Y-67383390D01*
X54809523Y-67383390D02*
X54761904Y-67431009D01*
X54761904Y-67431009D02*
X54666666Y-67478628D01*
X54666666Y-67478628D02*
X54285714Y-67478628D01*
X55190476Y-66954819D02*
X55809523Y-66954819D01*
X55809523Y-66954819D02*
X55476190Y-67335771D01*
X55476190Y-67335771D02*
X55619047Y-67335771D01*
X55619047Y-67335771D02*
X55714285Y-67383390D01*
X55714285Y-67383390D02*
X55761904Y-67431009D01*
X55761904Y-67431009D02*
X55809523Y-67526247D01*
X55809523Y-67526247D02*
X55809523Y-67764342D01*
X55809523Y-67764342D02*
X55761904Y-67859580D01*
X55761904Y-67859580D02*
X55714285Y-67907200D01*
X55714285Y-67907200D02*
X55619047Y-67954819D01*
X55619047Y-67954819D02*
X55333333Y-67954819D01*
X55333333Y-67954819D02*
X55238095Y-67907200D01*
X55238095Y-67907200D02*
X55190476Y-67859580D01*
X56666666Y-67288152D02*
X56666666Y-67954819D01*
X56428571Y-66907200D02*
X56190476Y-67621485D01*
X56190476Y-67621485D02*
X56809523Y-67621485D01*
X91038095Y-53154819D02*
X91038095Y-53964342D01*
X91038095Y-53964342D02*
X91085714Y-54059580D01*
X91085714Y-54059580D02*
X91133333Y-54107200D01*
X91133333Y-54107200D02*
X91228571Y-54154819D01*
X91228571Y-54154819D02*
X91419047Y-54154819D01*
X91419047Y-54154819D02*
X91514285Y-54107200D01*
X91514285Y-54107200D02*
X91561904Y-54059580D01*
X91561904Y-54059580D02*
X91609523Y-53964342D01*
X91609523Y-53964342D02*
X91609523Y-53154819D01*
X92514285Y-53154819D02*
X92323809Y-53154819D01*
X92323809Y-53154819D02*
X92228571Y-53202438D01*
X92228571Y-53202438D02*
X92180952Y-53250057D01*
X92180952Y-53250057D02*
X92085714Y-53392914D01*
X92085714Y-53392914D02*
X92038095Y-53583390D01*
X92038095Y-53583390D02*
X92038095Y-53964342D01*
X92038095Y-53964342D02*
X92085714Y-54059580D01*
X92085714Y-54059580D02*
X92133333Y-54107200D01*
X92133333Y-54107200D02*
X92228571Y-54154819D01*
X92228571Y-54154819D02*
X92419047Y-54154819D01*
X92419047Y-54154819D02*
X92514285Y-54107200D01*
X92514285Y-54107200D02*
X92561904Y-54059580D01*
X92561904Y-54059580D02*
X92609523Y-53964342D01*
X92609523Y-53964342D02*
X92609523Y-53726247D01*
X92609523Y-53726247D02*
X92561904Y-53631009D01*
X92561904Y-53631009D02*
X92514285Y-53583390D01*
X92514285Y-53583390D02*
X92419047Y-53535771D01*
X92419047Y-53535771D02*
X92228571Y-53535771D01*
X92228571Y-53535771D02*
X92133333Y-53583390D01*
X92133333Y-53583390D02*
X92085714Y-53631009D01*
X92085714Y-53631009D02*
X92038095Y-53726247D01*
X92657142Y-60004819D02*
X92323809Y-59528628D01*
X92085714Y-60004819D02*
X92085714Y-59004819D01*
X92085714Y-59004819D02*
X92466666Y-59004819D01*
X92466666Y-59004819D02*
X92561904Y-59052438D01*
X92561904Y-59052438D02*
X92609523Y-59100057D01*
X92609523Y-59100057D02*
X92657142Y-59195295D01*
X92657142Y-59195295D02*
X92657142Y-59338152D01*
X92657142Y-59338152D02*
X92609523Y-59433390D01*
X92609523Y-59433390D02*
X92561904Y-59481009D01*
X92561904Y-59481009D02*
X92466666Y-59528628D01*
X92466666Y-59528628D02*
X92085714Y-59528628D01*
X93514285Y-59338152D02*
X93514285Y-60004819D01*
X93276190Y-58957200D02*
X93038095Y-59671485D01*
X93038095Y-59671485D02*
X93657142Y-59671485D01*
X93990476Y-59100057D02*
X94038095Y-59052438D01*
X94038095Y-59052438D02*
X94133333Y-59004819D01*
X94133333Y-59004819D02*
X94371428Y-59004819D01*
X94371428Y-59004819D02*
X94466666Y-59052438D01*
X94466666Y-59052438D02*
X94514285Y-59100057D01*
X94514285Y-59100057D02*
X94561904Y-59195295D01*
X94561904Y-59195295D02*
X94561904Y-59290533D01*
X94561904Y-59290533D02*
X94514285Y-59433390D01*
X94514285Y-59433390D02*
X93942857Y-60004819D01*
X93942857Y-60004819D02*
X94561904Y-60004819D01*
X85957142Y-60004819D02*
X85623809Y-59528628D01*
X85385714Y-60004819D02*
X85385714Y-59004819D01*
X85385714Y-59004819D02*
X85766666Y-59004819D01*
X85766666Y-59004819D02*
X85861904Y-59052438D01*
X85861904Y-59052438D02*
X85909523Y-59100057D01*
X85909523Y-59100057D02*
X85957142Y-59195295D01*
X85957142Y-59195295D02*
X85957142Y-59338152D01*
X85957142Y-59338152D02*
X85909523Y-59433390D01*
X85909523Y-59433390D02*
X85861904Y-59481009D01*
X85861904Y-59481009D02*
X85766666Y-59528628D01*
X85766666Y-59528628D02*
X85385714Y-59528628D01*
X86814285Y-59338152D02*
X86814285Y-60004819D01*
X86576190Y-58957200D02*
X86338095Y-59671485D01*
X86338095Y-59671485D02*
X86957142Y-59671485D01*
X87766666Y-59338152D02*
X87766666Y-60004819D01*
X87528571Y-58957200D02*
X87290476Y-59671485D01*
X87290476Y-59671485D02*
X87909523Y-59671485D01*
X90357142Y-60359580D02*
X90309523Y-60407200D01*
X90309523Y-60407200D02*
X90166666Y-60454819D01*
X90166666Y-60454819D02*
X90071428Y-60454819D01*
X90071428Y-60454819D02*
X89928571Y-60407200D01*
X89928571Y-60407200D02*
X89833333Y-60311961D01*
X89833333Y-60311961D02*
X89785714Y-60216723D01*
X89785714Y-60216723D02*
X89738095Y-60026247D01*
X89738095Y-60026247D02*
X89738095Y-59883390D01*
X89738095Y-59883390D02*
X89785714Y-59692914D01*
X89785714Y-59692914D02*
X89833333Y-59597676D01*
X89833333Y-59597676D02*
X89928571Y-59502438D01*
X89928571Y-59502438D02*
X90071428Y-59454819D01*
X90071428Y-59454819D02*
X90166666Y-59454819D01*
X90166666Y-59454819D02*
X90309523Y-59502438D01*
X90309523Y-59502438D02*
X90357142Y-59550057D01*
X90928571Y-59883390D02*
X90833333Y-59835771D01*
X90833333Y-59835771D02*
X90785714Y-59788152D01*
X90785714Y-59788152D02*
X90738095Y-59692914D01*
X90738095Y-59692914D02*
X90738095Y-59645295D01*
X90738095Y-59645295D02*
X90785714Y-59550057D01*
X90785714Y-59550057D02*
X90833333Y-59502438D01*
X90833333Y-59502438D02*
X90928571Y-59454819D01*
X90928571Y-59454819D02*
X91119047Y-59454819D01*
X91119047Y-59454819D02*
X91214285Y-59502438D01*
X91214285Y-59502438D02*
X91261904Y-59550057D01*
X91261904Y-59550057D02*
X91309523Y-59645295D01*
X91309523Y-59645295D02*
X91309523Y-59692914D01*
X91309523Y-59692914D02*
X91261904Y-59788152D01*
X91261904Y-59788152D02*
X91214285Y-59835771D01*
X91214285Y-59835771D02*
X91119047Y-59883390D01*
X91119047Y-59883390D02*
X90928571Y-59883390D01*
X90928571Y-59883390D02*
X90833333Y-59931009D01*
X90833333Y-59931009D02*
X90785714Y-59978628D01*
X90785714Y-59978628D02*
X90738095Y-60073866D01*
X90738095Y-60073866D02*
X90738095Y-60264342D01*
X90738095Y-60264342D02*
X90785714Y-60359580D01*
X90785714Y-60359580D02*
X90833333Y-60407200D01*
X90833333Y-60407200D02*
X90928571Y-60454819D01*
X90928571Y-60454819D02*
X91119047Y-60454819D01*
X91119047Y-60454819D02*
X91214285Y-60407200D01*
X91214285Y-60407200D02*
X91261904Y-60359580D01*
X91261904Y-60359580D02*
X91309523Y-60264342D01*
X91309523Y-60264342D02*
X91309523Y-60073866D01*
X91309523Y-60073866D02*
X91261904Y-59978628D01*
X91261904Y-59978628D02*
X91214285Y-59931009D01*
X91214285Y-59931009D02*
X91119047Y-59883390D01*
X91642857Y-59454819D02*
X92261904Y-59454819D01*
X92261904Y-59454819D02*
X91928571Y-59835771D01*
X91928571Y-59835771D02*
X92071428Y-59835771D01*
X92071428Y-59835771D02*
X92166666Y-59883390D01*
X92166666Y-59883390D02*
X92214285Y-59931009D01*
X92214285Y-59931009D02*
X92261904Y-60026247D01*
X92261904Y-60026247D02*
X92261904Y-60264342D01*
X92261904Y-60264342D02*
X92214285Y-60359580D01*
X92214285Y-60359580D02*
X92166666Y-60407200D01*
X92166666Y-60407200D02*
X92071428Y-60454819D01*
X92071428Y-60454819D02*
X91785714Y-60454819D01*
X91785714Y-60454819D02*
X91690476Y-60407200D01*
X91690476Y-60407200D02*
X91642857Y-60359580D01*
X54857142Y-66954819D02*
X54523809Y-66478628D01*
X54285714Y-66954819D02*
X54285714Y-65954819D01*
X54285714Y-65954819D02*
X54666666Y-65954819D01*
X54666666Y-65954819D02*
X54761904Y-66002438D01*
X54761904Y-66002438D02*
X54809523Y-66050057D01*
X54809523Y-66050057D02*
X54857142Y-66145295D01*
X54857142Y-66145295D02*
X54857142Y-66288152D01*
X54857142Y-66288152D02*
X54809523Y-66383390D01*
X54809523Y-66383390D02*
X54761904Y-66431009D01*
X54761904Y-66431009D02*
X54666666Y-66478628D01*
X54666666Y-66478628D02*
X54285714Y-66478628D01*
X55190476Y-65954819D02*
X55809523Y-65954819D01*
X55809523Y-65954819D02*
X55476190Y-66335771D01*
X55476190Y-66335771D02*
X55619047Y-66335771D01*
X55619047Y-66335771D02*
X55714285Y-66383390D01*
X55714285Y-66383390D02*
X55761904Y-66431009D01*
X55761904Y-66431009D02*
X55809523Y-66526247D01*
X55809523Y-66526247D02*
X55809523Y-66764342D01*
X55809523Y-66764342D02*
X55761904Y-66859580D01*
X55761904Y-66859580D02*
X55714285Y-66907200D01*
X55714285Y-66907200D02*
X55619047Y-66954819D01*
X55619047Y-66954819D02*
X55333333Y-66954819D01*
X55333333Y-66954819D02*
X55238095Y-66907200D01*
X55238095Y-66907200D02*
X55190476Y-66859580D01*
X56142857Y-65954819D02*
X56761904Y-65954819D01*
X56761904Y-65954819D02*
X56428571Y-66335771D01*
X56428571Y-66335771D02*
X56571428Y-66335771D01*
X56571428Y-66335771D02*
X56666666Y-66383390D01*
X56666666Y-66383390D02*
X56714285Y-66431009D01*
X56714285Y-66431009D02*
X56761904Y-66526247D01*
X56761904Y-66526247D02*
X56761904Y-66764342D01*
X56761904Y-66764342D02*
X56714285Y-66859580D01*
X56714285Y-66859580D02*
X56666666Y-66907200D01*
X56666666Y-66907200D02*
X56571428Y-66954819D01*
X56571428Y-66954819D02*
X56285714Y-66954819D01*
X56285714Y-66954819D02*
X56190476Y-66907200D01*
X56190476Y-66907200D02*
X56142857Y-66859580D01*
X140166795Y-31376119D02*
X140166795Y-30376119D01*
X140166795Y-30852309D02*
X140738223Y-30852309D01*
X140738223Y-31376119D02*
X140738223Y-30376119D01*
X141166795Y-30471357D02*
X141214414Y-30423738D01*
X141214414Y-30423738D02*
X141309652Y-30376119D01*
X141309652Y-30376119D02*
X141547747Y-30376119D01*
X141547747Y-30376119D02*
X141642985Y-30423738D01*
X141642985Y-30423738D02*
X141690604Y-30471357D01*
X141690604Y-30471357D02*
X141738223Y-30566595D01*
X141738223Y-30566595D02*
X141738223Y-30661833D01*
X141738223Y-30661833D02*
X141690604Y-30804690D01*
X141690604Y-30804690D02*
X141119176Y-31376119D01*
X141119176Y-31376119D02*
X141738223Y-31376119D01*
X28857142Y-39654819D02*
X28523809Y-39178628D01*
X28285714Y-39654819D02*
X28285714Y-38654819D01*
X28285714Y-38654819D02*
X28666666Y-38654819D01*
X28666666Y-38654819D02*
X28761904Y-38702438D01*
X28761904Y-38702438D02*
X28809523Y-38750057D01*
X28809523Y-38750057D02*
X28857142Y-38845295D01*
X28857142Y-38845295D02*
X28857142Y-38988152D01*
X28857142Y-38988152D02*
X28809523Y-39083390D01*
X28809523Y-39083390D02*
X28761904Y-39131009D01*
X28761904Y-39131009D02*
X28666666Y-39178628D01*
X28666666Y-39178628D02*
X28285714Y-39178628D01*
X29714285Y-38988152D02*
X29714285Y-39654819D01*
X29476190Y-38607200D02*
X29238095Y-39321485D01*
X29238095Y-39321485D02*
X29857142Y-39321485D01*
X30428571Y-38654819D02*
X30523809Y-38654819D01*
X30523809Y-38654819D02*
X30619047Y-38702438D01*
X30619047Y-38702438D02*
X30666666Y-38750057D01*
X30666666Y-38750057D02*
X30714285Y-38845295D01*
X30714285Y-38845295D02*
X30761904Y-39035771D01*
X30761904Y-39035771D02*
X30761904Y-39273866D01*
X30761904Y-39273866D02*
X30714285Y-39464342D01*
X30714285Y-39464342D02*
X30666666Y-39559580D01*
X30666666Y-39559580D02*
X30619047Y-39607200D01*
X30619047Y-39607200D02*
X30523809Y-39654819D01*
X30523809Y-39654819D02*
X30428571Y-39654819D01*
X30428571Y-39654819D02*
X30333333Y-39607200D01*
X30333333Y-39607200D02*
X30285714Y-39559580D01*
X30285714Y-39559580D02*
X30238095Y-39464342D01*
X30238095Y-39464342D02*
X30190476Y-39273866D01*
X30190476Y-39273866D02*
X30190476Y-39035771D01*
X30190476Y-39035771D02*
X30238095Y-38845295D01*
X30238095Y-38845295D02*
X30285714Y-38750057D01*
X30285714Y-38750057D02*
X30333333Y-38702438D01*
X30333333Y-38702438D02*
X30428571Y-38654819D01*
X37961905Y-35554819D02*
X37961905Y-34554819D01*
X37961905Y-34554819D02*
X38200000Y-34554819D01*
X38200000Y-34554819D02*
X38342857Y-34602438D01*
X38342857Y-34602438D02*
X38438095Y-34697676D01*
X38438095Y-34697676D02*
X38485714Y-34792914D01*
X38485714Y-34792914D02*
X38533333Y-34983390D01*
X38533333Y-34983390D02*
X38533333Y-35126247D01*
X38533333Y-35126247D02*
X38485714Y-35316723D01*
X38485714Y-35316723D02*
X38438095Y-35411961D01*
X38438095Y-35411961D02*
X38342857Y-35507200D01*
X38342857Y-35507200D02*
X38200000Y-35554819D01*
X38200000Y-35554819D02*
X37961905Y-35554819D01*
X38914286Y-34650057D02*
X38961905Y-34602438D01*
X38961905Y-34602438D02*
X39057143Y-34554819D01*
X39057143Y-34554819D02*
X39295238Y-34554819D01*
X39295238Y-34554819D02*
X39390476Y-34602438D01*
X39390476Y-34602438D02*
X39438095Y-34650057D01*
X39438095Y-34650057D02*
X39485714Y-34745295D01*
X39485714Y-34745295D02*
X39485714Y-34840533D01*
X39485714Y-34840533D02*
X39438095Y-34983390D01*
X39438095Y-34983390D02*
X38866667Y-35554819D01*
X38866667Y-35554819D02*
X39485714Y-35554819D01*
X32238095Y-38454819D02*
X32238095Y-39264342D01*
X32238095Y-39264342D02*
X32285714Y-39359580D01*
X32285714Y-39359580D02*
X32333333Y-39407200D01*
X32333333Y-39407200D02*
X32428571Y-39454819D01*
X32428571Y-39454819D02*
X32619047Y-39454819D01*
X32619047Y-39454819D02*
X32714285Y-39407200D01*
X32714285Y-39407200D02*
X32761904Y-39359580D01*
X32761904Y-39359580D02*
X32809523Y-39264342D01*
X32809523Y-39264342D02*
X32809523Y-38454819D01*
X33238095Y-38550057D02*
X33285714Y-38502438D01*
X33285714Y-38502438D02*
X33380952Y-38454819D01*
X33380952Y-38454819D02*
X33619047Y-38454819D01*
X33619047Y-38454819D02*
X33714285Y-38502438D01*
X33714285Y-38502438D02*
X33761904Y-38550057D01*
X33761904Y-38550057D02*
X33809523Y-38645295D01*
X33809523Y-38645295D02*
X33809523Y-38740533D01*
X33809523Y-38740533D02*
X33761904Y-38883390D01*
X33761904Y-38883390D02*
X33190476Y-39454819D01*
X33190476Y-39454819D02*
X33809523Y-39454819D01*
X90357142Y-62359580D02*
X90309523Y-62407200D01*
X90309523Y-62407200D02*
X90166666Y-62454819D01*
X90166666Y-62454819D02*
X90071428Y-62454819D01*
X90071428Y-62454819D02*
X89928571Y-62407200D01*
X89928571Y-62407200D02*
X89833333Y-62311961D01*
X89833333Y-62311961D02*
X89785714Y-62216723D01*
X89785714Y-62216723D02*
X89738095Y-62026247D01*
X89738095Y-62026247D02*
X89738095Y-61883390D01*
X89738095Y-61883390D02*
X89785714Y-61692914D01*
X89785714Y-61692914D02*
X89833333Y-61597676D01*
X89833333Y-61597676D02*
X89928571Y-61502438D01*
X89928571Y-61502438D02*
X90071428Y-61454819D01*
X90071428Y-61454819D02*
X90166666Y-61454819D01*
X90166666Y-61454819D02*
X90309523Y-61502438D01*
X90309523Y-61502438D02*
X90357142Y-61550057D01*
X90928571Y-61883390D02*
X90833333Y-61835771D01*
X90833333Y-61835771D02*
X90785714Y-61788152D01*
X90785714Y-61788152D02*
X90738095Y-61692914D01*
X90738095Y-61692914D02*
X90738095Y-61645295D01*
X90738095Y-61645295D02*
X90785714Y-61550057D01*
X90785714Y-61550057D02*
X90833333Y-61502438D01*
X90833333Y-61502438D02*
X90928571Y-61454819D01*
X90928571Y-61454819D02*
X91119047Y-61454819D01*
X91119047Y-61454819D02*
X91214285Y-61502438D01*
X91214285Y-61502438D02*
X91261904Y-61550057D01*
X91261904Y-61550057D02*
X91309523Y-61645295D01*
X91309523Y-61645295D02*
X91309523Y-61692914D01*
X91309523Y-61692914D02*
X91261904Y-61788152D01*
X91261904Y-61788152D02*
X91214285Y-61835771D01*
X91214285Y-61835771D02*
X91119047Y-61883390D01*
X91119047Y-61883390D02*
X90928571Y-61883390D01*
X90928571Y-61883390D02*
X90833333Y-61931009D01*
X90833333Y-61931009D02*
X90785714Y-61978628D01*
X90785714Y-61978628D02*
X90738095Y-62073866D01*
X90738095Y-62073866D02*
X90738095Y-62264342D01*
X90738095Y-62264342D02*
X90785714Y-62359580D01*
X90785714Y-62359580D02*
X90833333Y-62407200D01*
X90833333Y-62407200D02*
X90928571Y-62454819D01*
X90928571Y-62454819D02*
X91119047Y-62454819D01*
X91119047Y-62454819D02*
X91214285Y-62407200D01*
X91214285Y-62407200D02*
X91261904Y-62359580D01*
X91261904Y-62359580D02*
X91309523Y-62264342D01*
X91309523Y-62264342D02*
X91309523Y-62073866D01*
X91309523Y-62073866D02*
X91261904Y-61978628D01*
X91261904Y-61978628D02*
X91214285Y-61931009D01*
X91214285Y-61931009D02*
X91119047Y-61883390D01*
X91690476Y-61550057D02*
X91738095Y-61502438D01*
X91738095Y-61502438D02*
X91833333Y-61454819D01*
X91833333Y-61454819D02*
X92071428Y-61454819D01*
X92071428Y-61454819D02*
X92166666Y-61502438D01*
X92166666Y-61502438D02*
X92214285Y-61550057D01*
X92214285Y-61550057D02*
X92261904Y-61645295D01*
X92261904Y-61645295D02*
X92261904Y-61740533D01*
X92261904Y-61740533D02*
X92214285Y-61883390D01*
X92214285Y-61883390D02*
X91642857Y-62454819D01*
X91642857Y-62454819D02*
X92261904Y-62454819D01*
X99757142Y-58004819D02*
X99423809Y-57528628D01*
X99185714Y-58004819D02*
X99185714Y-57004819D01*
X99185714Y-57004819D02*
X99566666Y-57004819D01*
X99566666Y-57004819D02*
X99661904Y-57052438D01*
X99661904Y-57052438D02*
X99709523Y-57100057D01*
X99709523Y-57100057D02*
X99757142Y-57195295D01*
X99757142Y-57195295D02*
X99757142Y-57338152D01*
X99757142Y-57338152D02*
X99709523Y-57433390D01*
X99709523Y-57433390D02*
X99661904Y-57481009D01*
X99661904Y-57481009D02*
X99566666Y-57528628D01*
X99566666Y-57528628D02*
X99185714Y-57528628D01*
X100090476Y-57004819D02*
X100709523Y-57004819D01*
X100709523Y-57004819D02*
X100376190Y-57385771D01*
X100376190Y-57385771D02*
X100519047Y-57385771D01*
X100519047Y-57385771D02*
X100614285Y-57433390D01*
X100614285Y-57433390D02*
X100661904Y-57481009D01*
X100661904Y-57481009D02*
X100709523Y-57576247D01*
X100709523Y-57576247D02*
X100709523Y-57814342D01*
X100709523Y-57814342D02*
X100661904Y-57909580D01*
X100661904Y-57909580D02*
X100614285Y-57957200D01*
X100614285Y-57957200D02*
X100519047Y-58004819D01*
X100519047Y-58004819D02*
X100233333Y-58004819D01*
X100233333Y-58004819D02*
X100138095Y-57957200D01*
X100138095Y-57957200D02*
X100090476Y-57909580D01*
X101566666Y-57004819D02*
X101376190Y-57004819D01*
X101376190Y-57004819D02*
X101280952Y-57052438D01*
X101280952Y-57052438D02*
X101233333Y-57100057D01*
X101233333Y-57100057D02*
X101138095Y-57242914D01*
X101138095Y-57242914D02*
X101090476Y-57433390D01*
X101090476Y-57433390D02*
X101090476Y-57814342D01*
X101090476Y-57814342D02*
X101138095Y-57909580D01*
X101138095Y-57909580D02*
X101185714Y-57957200D01*
X101185714Y-57957200D02*
X101280952Y-58004819D01*
X101280952Y-58004819D02*
X101471428Y-58004819D01*
X101471428Y-58004819D02*
X101566666Y-57957200D01*
X101566666Y-57957200D02*
X101614285Y-57909580D01*
X101614285Y-57909580D02*
X101661904Y-57814342D01*
X101661904Y-57814342D02*
X101661904Y-57576247D01*
X101661904Y-57576247D02*
X101614285Y-57481009D01*
X101614285Y-57481009D02*
X101566666Y-57433390D01*
X101566666Y-57433390D02*
X101471428Y-57385771D01*
X101471428Y-57385771D02*
X101280952Y-57385771D01*
X101280952Y-57385771D02*
X101185714Y-57433390D01*
X101185714Y-57433390D02*
X101138095Y-57481009D01*
X101138095Y-57481009D02*
X101090476Y-57576247D01*
X32833333Y-42654819D02*
X32357143Y-42654819D01*
X32357143Y-42654819D02*
X32357143Y-41654819D01*
X33690476Y-42654819D02*
X33119048Y-42654819D01*
X33404762Y-42654819D02*
X33404762Y-41654819D01*
X33404762Y-41654819D02*
X33309524Y-41797676D01*
X33309524Y-41797676D02*
X33214286Y-41892914D01*
X33214286Y-41892914D02*
X33119048Y-41940533D01*
X90357142Y-41359580D02*
X90309523Y-41407200D01*
X90309523Y-41407200D02*
X90166666Y-41454819D01*
X90166666Y-41454819D02*
X90071428Y-41454819D01*
X90071428Y-41454819D02*
X89928571Y-41407200D01*
X89928571Y-41407200D02*
X89833333Y-41311961D01*
X89833333Y-41311961D02*
X89785714Y-41216723D01*
X89785714Y-41216723D02*
X89738095Y-41026247D01*
X89738095Y-41026247D02*
X89738095Y-40883390D01*
X89738095Y-40883390D02*
X89785714Y-40692914D01*
X89785714Y-40692914D02*
X89833333Y-40597676D01*
X89833333Y-40597676D02*
X89928571Y-40502438D01*
X89928571Y-40502438D02*
X90071428Y-40454819D01*
X90071428Y-40454819D02*
X90166666Y-40454819D01*
X90166666Y-40454819D02*
X90309523Y-40502438D01*
X90309523Y-40502438D02*
X90357142Y-40550057D01*
X90690476Y-40454819D02*
X91357142Y-40454819D01*
X91357142Y-40454819D02*
X90928571Y-41454819D01*
X91642857Y-40454819D02*
X92309523Y-40454819D01*
X92309523Y-40454819D02*
X91880952Y-41454819D01*
X82957142Y-58004819D02*
X82623809Y-57528628D01*
X82385714Y-58004819D02*
X82385714Y-57004819D01*
X82385714Y-57004819D02*
X82766666Y-57004819D01*
X82766666Y-57004819D02*
X82861904Y-57052438D01*
X82861904Y-57052438D02*
X82909523Y-57100057D01*
X82909523Y-57100057D02*
X82957142Y-57195295D01*
X82957142Y-57195295D02*
X82957142Y-57338152D01*
X82957142Y-57338152D02*
X82909523Y-57433390D01*
X82909523Y-57433390D02*
X82861904Y-57481009D01*
X82861904Y-57481009D02*
X82766666Y-57528628D01*
X82766666Y-57528628D02*
X82385714Y-57528628D01*
X83814285Y-57338152D02*
X83814285Y-58004819D01*
X83576190Y-56957200D02*
X83338095Y-57671485D01*
X83338095Y-57671485D02*
X83957142Y-57671485D01*
X84242857Y-57004819D02*
X84861904Y-57004819D01*
X84861904Y-57004819D02*
X84528571Y-57385771D01*
X84528571Y-57385771D02*
X84671428Y-57385771D01*
X84671428Y-57385771D02*
X84766666Y-57433390D01*
X84766666Y-57433390D02*
X84814285Y-57481009D01*
X84814285Y-57481009D02*
X84861904Y-57576247D01*
X84861904Y-57576247D02*
X84861904Y-57814342D01*
X84861904Y-57814342D02*
X84814285Y-57909580D01*
X84814285Y-57909580D02*
X84766666Y-57957200D01*
X84766666Y-57957200D02*
X84671428Y-58004819D01*
X84671428Y-58004819D02*
X84385714Y-58004819D01*
X84385714Y-58004819D02*
X84290476Y-57957200D01*
X84290476Y-57957200D02*
X84242857Y-57909580D01*
X47761905Y-68954819D02*
X47761905Y-67954819D01*
X47761905Y-67954819D02*
X48000000Y-67954819D01*
X48000000Y-67954819D02*
X48142857Y-68002438D01*
X48142857Y-68002438D02*
X48238095Y-68097676D01*
X48238095Y-68097676D02*
X48285714Y-68192914D01*
X48285714Y-68192914D02*
X48333333Y-68383390D01*
X48333333Y-68383390D02*
X48333333Y-68526247D01*
X48333333Y-68526247D02*
X48285714Y-68716723D01*
X48285714Y-68716723D02*
X48238095Y-68811961D01*
X48238095Y-68811961D02*
X48142857Y-68907200D01*
X48142857Y-68907200D02*
X48000000Y-68954819D01*
X48000000Y-68954819D02*
X47761905Y-68954819D01*
X49285714Y-68954819D02*
X48714286Y-68954819D01*
X49000000Y-68954819D02*
X49000000Y-67954819D01*
X49000000Y-67954819D02*
X48904762Y-68097676D01*
X48904762Y-68097676D02*
X48809524Y-68192914D01*
X48809524Y-68192914D02*
X48714286Y-68240533D01*
X39238095Y-38454819D02*
X39238095Y-39264342D01*
X39238095Y-39264342D02*
X39285714Y-39359580D01*
X39285714Y-39359580D02*
X39333333Y-39407200D01*
X39333333Y-39407200D02*
X39428571Y-39454819D01*
X39428571Y-39454819D02*
X39619047Y-39454819D01*
X39619047Y-39454819D02*
X39714285Y-39407200D01*
X39714285Y-39407200D02*
X39761904Y-39359580D01*
X39761904Y-39359580D02*
X39809523Y-39264342D01*
X39809523Y-39264342D02*
X39809523Y-38454819D01*
X40714285Y-38788152D02*
X40714285Y-39454819D01*
X40476190Y-38407200D02*
X40238095Y-39121485D01*
X40238095Y-39121485D02*
X40857142Y-39121485D01*
X99757142Y-60004819D02*
X99423809Y-59528628D01*
X99185714Y-60004819D02*
X99185714Y-59004819D01*
X99185714Y-59004819D02*
X99566666Y-59004819D01*
X99566666Y-59004819D02*
X99661904Y-59052438D01*
X99661904Y-59052438D02*
X99709523Y-59100057D01*
X99709523Y-59100057D02*
X99757142Y-59195295D01*
X99757142Y-59195295D02*
X99757142Y-59338152D01*
X99757142Y-59338152D02*
X99709523Y-59433390D01*
X99709523Y-59433390D02*
X99661904Y-59481009D01*
X99661904Y-59481009D02*
X99566666Y-59528628D01*
X99566666Y-59528628D02*
X99185714Y-59528628D01*
X100090476Y-59004819D02*
X100709523Y-59004819D01*
X100709523Y-59004819D02*
X100376190Y-59385771D01*
X100376190Y-59385771D02*
X100519047Y-59385771D01*
X100519047Y-59385771D02*
X100614285Y-59433390D01*
X100614285Y-59433390D02*
X100661904Y-59481009D01*
X100661904Y-59481009D02*
X100709523Y-59576247D01*
X100709523Y-59576247D02*
X100709523Y-59814342D01*
X100709523Y-59814342D02*
X100661904Y-59909580D01*
X100661904Y-59909580D02*
X100614285Y-59957200D01*
X100614285Y-59957200D02*
X100519047Y-60004819D01*
X100519047Y-60004819D02*
X100233333Y-60004819D01*
X100233333Y-60004819D02*
X100138095Y-59957200D01*
X100138095Y-59957200D02*
X100090476Y-59909580D01*
X101185714Y-60004819D02*
X101376190Y-60004819D01*
X101376190Y-60004819D02*
X101471428Y-59957200D01*
X101471428Y-59957200D02*
X101519047Y-59909580D01*
X101519047Y-59909580D02*
X101614285Y-59766723D01*
X101614285Y-59766723D02*
X101661904Y-59576247D01*
X101661904Y-59576247D02*
X101661904Y-59195295D01*
X101661904Y-59195295D02*
X101614285Y-59100057D01*
X101614285Y-59100057D02*
X101566666Y-59052438D01*
X101566666Y-59052438D02*
X101471428Y-59004819D01*
X101471428Y-59004819D02*
X101280952Y-59004819D01*
X101280952Y-59004819D02*
X101185714Y-59052438D01*
X101185714Y-59052438D02*
X101138095Y-59100057D01*
X101138095Y-59100057D02*
X101090476Y-59195295D01*
X101090476Y-59195295D02*
X101090476Y-59433390D01*
X101090476Y-59433390D02*
X101138095Y-59528628D01*
X101138095Y-59528628D02*
X101185714Y-59576247D01*
X101185714Y-59576247D02*
X101280952Y-59623866D01*
X101280952Y-59623866D02*
X101471428Y-59623866D01*
X101471428Y-59623866D02*
X101566666Y-59576247D01*
X101566666Y-59576247D02*
X101614285Y-59528628D01*
X101614285Y-59528628D02*
X101661904Y-59433390D01*
X43738095Y-53454819D02*
X43738095Y-54264342D01*
X43738095Y-54264342D02*
X43785714Y-54359580D01*
X43785714Y-54359580D02*
X43833333Y-54407200D01*
X43833333Y-54407200D02*
X43928571Y-54454819D01*
X43928571Y-54454819D02*
X44119047Y-54454819D01*
X44119047Y-54454819D02*
X44214285Y-54407200D01*
X44214285Y-54407200D02*
X44261904Y-54359580D01*
X44261904Y-54359580D02*
X44309523Y-54264342D01*
X44309523Y-54264342D02*
X44309523Y-53454819D01*
X45261904Y-53454819D02*
X44785714Y-53454819D01*
X44785714Y-53454819D02*
X44738095Y-53931009D01*
X44738095Y-53931009D02*
X44785714Y-53883390D01*
X44785714Y-53883390D02*
X44880952Y-53835771D01*
X44880952Y-53835771D02*
X45119047Y-53835771D01*
X45119047Y-53835771D02*
X45214285Y-53883390D01*
X45214285Y-53883390D02*
X45261904Y-53931009D01*
X45261904Y-53931009D02*
X45309523Y-54026247D01*
X45309523Y-54026247D02*
X45309523Y-54264342D01*
X45309523Y-54264342D02*
X45261904Y-54359580D01*
X45261904Y-54359580D02*
X45214285Y-54407200D01*
X45214285Y-54407200D02*
X45119047Y-54454819D01*
X45119047Y-54454819D02*
X44880952Y-54454819D01*
X44880952Y-54454819D02*
X44785714Y-54407200D01*
X44785714Y-54407200D02*
X44738095Y-54359580D01*
X24309395Y-31376119D02*
X24309395Y-30376119D01*
X24309395Y-30852309D02*
X24880823Y-30852309D01*
X24880823Y-31376119D02*
X24880823Y-30376119D01*
X25261776Y-30376119D02*
X25880823Y-30376119D01*
X25880823Y-30376119D02*
X25547490Y-30757071D01*
X25547490Y-30757071D02*
X25690347Y-30757071D01*
X25690347Y-30757071D02*
X25785585Y-30804690D01*
X25785585Y-30804690D02*
X25833204Y-30852309D01*
X25833204Y-30852309D02*
X25880823Y-30947547D01*
X25880823Y-30947547D02*
X25880823Y-31185642D01*
X25880823Y-31185642D02*
X25833204Y-31280880D01*
X25833204Y-31280880D02*
X25785585Y-31328500D01*
X25785585Y-31328500D02*
X25690347Y-31376119D01*
X25690347Y-31376119D02*
X25404633Y-31376119D01*
X25404633Y-31376119D02*
X25309395Y-31328500D01*
X25309395Y-31328500D02*
X25261776Y-31280880D01*
X102757142Y-60004819D02*
X102423809Y-59528628D01*
X102185714Y-60004819D02*
X102185714Y-59004819D01*
X102185714Y-59004819D02*
X102566666Y-59004819D01*
X102566666Y-59004819D02*
X102661904Y-59052438D01*
X102661904Y-59052438D02*
X102709523Y-59100057D01*
X102709523Y-59100057D02*
X102757142Y-59195295D01*
X102757142Y-59195295D02*
X102757142Y-59338152D01*
X102757142Y-59338152D02*
X102709523Y-59433390D01*
X102709523Y-59433390D02*
X102661904Y-59481009D01*
X102661904Y-59481009D02*
X102566666Y-59528628D01*
X102566666Y-59528628D02*
X102185714Y-59528628D01*
X103090476Y-59004819D02*
X103709523Y-59004819D01*
X103709523Y-59004819D02*
X103376190Y-59385771D01*
X103376190Y-59385771D02*
X103519047Y-59385771D01*
X103519047Y-59385771D02*
X103614285Y-59433390D01*
X103614285Y-59433390D02*
X103661904Y-59481009D01*
X103661904Y-59481009D02*
X103709523Y-59576247D01*
X103709523Y-59576247D02*
X103709523Y-59814342D01*
X103709523Y-59814342D02*
X103661904Y-59909580D01*
X103661904Y-59909580D02*
X103614285Y-59957200D01*
X103614285Y-59957200D02*
X103519047Y-60004819D01*
X103519047Y-60004819D02*
X103233333Y-60004819D01*
X103233333Y-60004819D02*
X103138095Y-59957200D01*
X103138095Y-59957200D02*
X103090476Y-59909580D01*
X104280952Y-59433390D02*
X104185714Y-59385771D01*
X104185714Y-59385771D02*
X104138095Y-59338152D01*
X104138095Y-59338152D02*
X104090476Y-59242914D01*
X104090476Y-59242914D02*
X104090476Y-59195295D01*
X104090476Y-59195295D02*
X104138095Y-59100057D01*
X104138095Y-59100057D02*
X104185714Y-59052438D01*
X104185714Y-59052438D02*
X104280952Y-59004819D01*
X104280952Y-59004819D02*
X104471428Y-59004819D01*
X104471428Y-59004819D02*
X104566666Y-59052438D01*
X104566666Y-59052438D02*
X104614285Y-59100057D01*
X104614285Y-59100057D02*
X104661904Y-59195295D01*
X104661904Y-59195295D02*
X104661904Y-59242914D01*
X104661904Y-59242914D02*
X104614285Y-59338152D01*
X104614285Y-59338152D02*
X104566666Y-59385771D01*
X104566666Y-59385771D02*
X104471428Y-59433390D01*
X104471428Y-59433390D02*
X104280952Y-59433390D01*
X104280952Y-59433390D02*
X104185714Y-59481009D01*
X104185714Y-59481009D02*
X104138095Y-59528628D01*
X104138095Y-59528628D02*
X104090476Y-59623866D01*
X104090476Y-59623866D02*
X104090476Y-59814342D01*
X104090476Y-59814342D02*
X104138095Y-59909580D01*
X104138095Y-59909580D02*
X104185714Y-59957200D01*
X104185714Y-59957200D02*
X104280952Y-60004819D01*
X104280952Y-60004819D02*
X104471428Y-60004819D01*
X104471428Y-60004819D02*
X104566666Y-59957200D01*
X104566666Y-59957200D02*
X104614285Y-59909580D01*
X104614285Y-59909580D02*
X104661904Y-59814342D01*
X104661904Y-59814342D02*
X104661904Y-59623866D01*
X104661904Y-59623866D02*
X104614285Y-59528628D01*
X104614285Y-59528628D02*
X104566666Y-59481009D01*
X104566666Y-59481009D02*
X104471428Y-59433390D01*
X49857142Y-43454819D02*
X49523809Y-42978628D01*
X49285714Y-43454819D02*
X49285714Y-42454819D01*
X49285714Y-42454819D02*
X49666666Y-42454819D01*
X49666666Y-42454819D02*
X49761904Y-42502438D01*
X49761904Y-42502438D02*
X49809523Y-42550057D01*
X49809523Y-42550057D02*
X49857142Y-42645295D01*
X49857142Y-42645295D02*
X49857142Y-42788152D01*
X49857142Y-42788152D02*
X49809523Y-42883390D01*
X49809523Y-42883390D02*
X49761904Y-42931009D01*
X49761904Y-42931009D02*
X49666666Y-42978628D01*
X49666666Y-42978628D02*
X49285714Y-42978628D01*
X50238095Y-42550057D02*
X50285714Y-42502438D01*
X50285714Y-42502438D02*
X50380952Y-42454819D01*
X50380952Y-42454819D02*
X50619047Y-42454819D01*
X50619047Y-42454819D02*
X50714285Y-42502438D01*
X50714285Y-42502438D02*
X50761904Y-42550057D01*
X50761904Y-42550057D02*
X50809523Y-42645295D01*
X50809523Y-42645295D02*
X50809523Y-42740533D01*
X50809523Y-42740533D02*
X50761904Y-42883390D01*
X50761904Y-42883390D02*
X50190476Y-43454819D01*
X50190476Y-43454819D02*
X50809523Y-43454819D01*
X51380952Y-42883390D02*
X51285714Y-42835771D01*
X51285714Y-42835771D02*
X51238095Y-42788152D01*
X51238095Y-42788152D02*
X51190476Y-42692914D01*
X51190476Y-42692914D02*
X51190476Y-42645295D01*
X51190476Y-42645295D02*
X51238095Y-42550057D01*
X51238095Y-42550057D02*
X51285714Y-42502438D01*
X51285714Y-42502438D02*
X51380952Y-42454819D01*
X51380952Y-42454819D02*
X51571428Y-42454819D01*
X51571428Y-42454819D02*
X51666666Y-42502438D01*
X51666666Y-42502438D02*
X51714285Y-42550057D01*
X51714285Y-42550057D02*
X51761904Y-42645295D01*
X51761904Y-42645295D02*
X51761904Y-42692914D01*
X51761904Y-42692914D02*
X51714285Y-42788152D01*
X51714285Y-42788152D02*
X51666666Y-42835771D01*
X51666666Y-42835771D02*
X51571428Y-42883390D01*
X51571428Y-42883390D02*
X51380952Y-42883390D01*
X51380952Y-42883390D02*
X51285714Y-42931009D01*
X51285714Y-42931009D02*
X51238095Y-42978628D01*
X51238095Y-42978628D02*
X51190476Y-43073866D01*
X51190476Y-43073866D02*
X51190476Y-43264342D01*
X51190476Y-43264342D02*
X51238095Y-43359580D01*
X51238095Y-43359580D02*
X51285714Y-43407200D01*
X51285714Y-43407200D02*
X51380952Y-43454819D01*
X51380952Y-43454819D02*
X51571428Y-43454819D01*
X51571428Y-43454819D02*
X51666666Y-43407200D01*
X51666666Y-43407200D02*
X51714285Y-43359580D01*
X51714285Y-43359580D02*
X51761904Y-43264342D01*
X51761904Y-43264342D02*
X51761904Y-43073866D01*
X51761904Y-43073866D02*
X51714285Y-42978628D01*
X51714285Y-42978628D02*
X51666666Y-42931009D01*
X51666666Y-42931009D02*
X51571428Y-42883390D01*
X54857142Y-65954819D02*
X54523809Y-65478628D01*
X54285714Y-65954819D02*
X54285714Y-64954819D01*
X54285714Y-64954819D02*
X54666666Y-64954819D01*
X54666666Y-64954819D02*
X54761904Y-65002438D01*
X54761904Y-65002438D02*
X54809523Y-65050057D01*
X54809523Y-65050057D02*
X54857142Y-65145295D01*
X54857142Y-65145295D02*
X54857142Y-65288152D01*
X54857142Y-65288152D02*
X54809523Y-65383390D01*
X54809523Y-65383390D02*
X54761904Y-65431009D01*
X54761904Y-65431009D02*
X54666666Y-65478628D01*
X54666666Y-65478628D02*
X54285714Y-65478628D01*
X55190476Y-64954819D02*
X55809523Y-64954819D01*
X55809523Y-64954819D02*
X55476190Y-65335771D01*
X55476190Y-65335771D02*
X55619047Y-65335771D01*
X55619047Y-65335771D02*
X55714285Y-65383390D01*
X55714285Y-65383390D02*
X55761904Y-65431009D01*
X55761904Y-65431009D02*
X55809523Y-65526247D01*
X55809523Y-65526247D02*
X55809523Y-65764342D01*
X55809523Y-65764342D02*
X55761904Y-65859580D01*
X55761904Y-65859580D02*
X55714285Y-65907200D01*
X55714285Y-65907200D02*
X55619047Y-65954819D01*
X55619047Y-65954819D02*
X55333333Y-65954819D01*
X55333333Y-65954819D02*
X55238095Y-65907200D01*
X55238095Y-65907200D02*
X55190476Y-65859580D01*
X56190476Y-65050057D02*
X56238095Y-65002438D01*
X56238095Y-65002438D02*
X56333333Y-64954819D01*
X56333333Y-64954819D02*
X56571428Y-64954819D01*
X56571428Y-64954819D02*
X56666666Y-65002438D01*
X56666666Y-65002438D02*
X56714285Y-65050057D01*
X56714285Y-65050057D02*
X56761904Y-65145295D01*
X56761904Y-65145295D02*
X56761904Y-65240533D01*
X56761904Y-65240533D02*
X56714285Y-65383390D01*
X56714285Y-65383390D02*
X56142857Y-65954819D01*
X56142857Y-65954819D02*
X56761904Y-65954819D01*
X25130476Y-45994819D02*
X25130476Y-46709104D01*
X25130476Y-46709104D02*
X25082857Y-46851961D01*
X25082857Y-46851961D02*
X24987619Y-46947200D01*
X24987619Y-46947200D02*
X24844762Y-46994819D01*
X24844762Y-46994819D02*
X24749524Y-46994819D01*
X26130476Y-46994819D02*
X25559048Y-46994819D01*
X25844762Y-46994819D02*
X25844762Y-45994819D01*
X25844762Y-45994819D02*
X25749524Y-46137676D01*
X25749524Y-46137676D02*
X25654286Y-46232914D01*
X25654286Y-46232914D02*
X25559048Y-46280533D01*
X26463810Y-45994819D02*
X27082857Y-45994819D01*
X27082857Y-45994819D02*
X26749524Y-46375771D01*
X26749524Y-46375771D02*
X26892381Y-46375771D01*
X26892381Y-46375771D02*
X26987619Y-46423390D01*
X26987619Y-46423390D02*
X27035238Y-46471009D01*
X27035238Y-46471009D02*
X27082857Y-46566247D01*
X27082857Y-46566247D02*
X27082857Y-46804342D01*
X27082857Y-46804342D02*
X27035238Y-46899580D01*
X27035238Y-46899580D02*
X26987619Y-46947200D01*
X26987619Y-46947200D02*
X26892381Y-46994819D01*
X26892381Y-46994819D02*
X26606667Y-46994819D01*
X26606667Y-46994819D02*
X26511429Y-46947200D01*
X26511429Y-46947200D02*
X26463810Y-46899580D01*
X59166666Y-45954819D02*
X59166666Y-46669104D01*
X59166666Y-46669104D02*
X59119047Y-46811961D01*
X59119047Y-46811961D02*
X59023809Y-46907200D01*
X59023809Y-46907200D02*
X58880952Y-46954819D01*
X58880952Y-46954819D02*
X58785714Y-46954819D01*
X59547619Y-45954819D02*
X60166666Y-45954819D01*
X60166666Y-45954819D02*
X59833333Y-46335771D01*
X59833333Y-46335771D02*
X59976190Y-46335771D01*
X59976190Y-46335771D02*
X60071428Y-46383390D01*
X60071428Y-46383390D02*
X60119047Y-46431009D01*
X60119047Y-46431009D02*
X60166666Y-46526247D01*
X60166666Y-46526247D02*
X60166666Y-46764342D01*
X60166666Y-46764342D02*
X60119047Y-46859580D01*
X60119047Y-46859580D02*
X60071428Y-46907200D01*
X60071428Y-46907200D02*
X59976190Y-46954819D01*
X59976190Y-46954819D02*
X59690476Y-46954819D01*
X59690476Y-46954819D02*
X59595238Y-46907200D01*
X59595238Y-46907200D02*
X59547619Y-46859580D01*
X43357142Y-42359580D02*
X43309523Y-42407200D01*
X43309523Y-42407200D02*
X43166666Y-42454819D01*
X43166666Y-42454819D02*
X43071428Y-42454819D01*
X43071428Y-42454819D02*
X42928571Y-42407200D01*
X42928571Y-42407200D02*
X42833333Y-42311961D01*
X42833333Y-42311961D02*
X42785714Y-42216723D01*
X42785714Y-42216723D02*
X42738095Y-42026247D01*
X42738095Y-42026247D02*
X42738095Y-41883390D01*
X42738095Y-41883390D02*
X42785714Y-41692914D01*
X42785714Y-41692914D02*
X42833333Y-41597676D01*
X42833333Y-41597676D02*
X42928571Y-41502438D01*
X42928571Y-41502438D02*
X43071428Y-41454819D01*
X43071428Y-41454819D02*
X43166666Y-41454819D01*
X43166666Y-41454819D02*
X43309523Y-41502438D01*
X43309523Y-41502438D02*
X43357142Y-41550057D01*
X43928571Y-41883390D02*
X43833333Y-41835771D01*
X43833333Y-41835771D02*
X43785714Y-41788152D01*
X43785714Y-41788152D02*
X43738095Y-41692914D01*
X43738095Y-41692914D02*
X43738095Y-41645295D01*
X43738095Y-41645295D02*
X43785714Y-41550057D01*
X43785714Y-41550057D02*
X43833333Y-41502438D01*
X43833333Y-41502438D02*
X43928571Y-41454819D01*
X43928571Y-41454819D02*
X44119047Y-41454819D01*
X44119047Y-41454819D02*
X44214285Y-41502438D01*
X44214285Y-41502438D02*
X44261904Y-41550057D01*
X44261904Y-41550057D02*
X44309523Y-41645295D01*
X44309523Y-41645295D02*
X44309523Y-41692914D01*
X44309523Y-41692914D02*
X44261904Y-41788152D01*
X44261904Y-41788152D02*
X44214285Y-41835771D01*
X44214285Y-41835771D02*
X44119047Y-41883390D01*
X44119047Y-41883390D02*
X43928571Y-41883390D01*
X43928571Y-41883390D02*
X43833333Y-41931009D01*
X43833333Y-41931009D02*
X43785714Y-41978628D01*
X43785714Y-41978628D02*
X43738095Y-42073866D01*
X43738095Y-42073866D02*
X43738095Y-42264342D01*
X43738095Y-42264342D02*
X43785714Y-42359580D01*
X43785714Y-42359580D02*
X43833333Y-42407200D01*
X43833333Y-42407200D02*
X43928571Y-42454819D01*
X43928571Y-42454819D02*
X44119047Y-42454819D01*
X44119047Y-42454819D02*
X44214285Y-42407200D01*
X44214285Y-42407200D02*
X44261904Y-42359580D01*
X44261904Y-42359580D02*
X44309523Y-42264342D01*
X44309523Y-42264342D02*
X44309523Y-42073866D01*
X44309523Y-42073866D02*
X44261904Y-41978628D01*
X44261904Y-41978628D02*
X44214285Y-41931009D01*
X44214285Y-41931009D02*
X44119047Y-41883390D01*
X45166666Y-41788152D02*
X45166666Y-42454819D01*
X44928571Y-41407200D02*
X44690476Y-42121485D01*
X44690476Y-42121485D02*
X45309523Y-42121485D01*
X54857142Y-64954819D02*
X54523809Y-64478628D01*
X54285714Y-64954819D02*
X54285714Y-63954819D01*
X54285714Y-63954819D02*
X54666666Y-63954819D01*
X54666666Y-63954819D02*
X54761904Y-64002438D01*
X54761904Y-64002438D02*
X54809523Y-64050057D01*
X54809523Y-64050057D02*
X54857142Y-64145295D01*
X54857142Y-64145295D02*
X54857142Y-64288152D01*
X54857142Y-64288152D02*
X54809523Y-64383390D01*
X54809523Y-64383390D02*
X54761904Y-64431009D01*
X54761904Y-64431009D02*
X54666666Y-64478628D01*
X54666666Y-64478628D02*
X54285714Y-64478628D01*
X55190476Y-63954819D02*
X55809523Y-63954819D01*
X55809523Y-63954819D02*
X55476190Y-64335771D01*
X55476190Y-64335771D02*
X55619047Y-64335771D01*
X55619047Y-64335771D02*
X55714285Y-64383390D01*
X55714285Y-64383390D02*
X55761904Y-64431009D01*
X55761904Y-64431009D02*
X55809523Y-64526247D01*
X55809523Y-64526247D02*
X55809523Y-64764342D01*
X55809523Y-64764342D02*
X55761904Y-64859580D01*
X55761904Y-64859580D02*
X55714285Y-64907200D01*
X55714285Y-64907200D02*
X55619047Y-64954819D01*
X55619047Y-64954819D02*
X55333333Y-64954819D01*
X55333333Y-64954819D02*
X55238095Y-64907200D01*
X55238095Y-64907200D02*
X55190476Y-64859580D01*
X56761904Y-64954819D02*
X56190476Y-64954819D01*
X56476190Y-64954819D02*
X56476190Y-63954819D01*
X56476190Y-63954819D02*
X56380952Y-64097676D01*
X56380952Y-64097676D02*
X56285714Y-64192914D01*
X56285714Y-64192914D02*
X56190476Y-64240533D01*
X30907142Y-61209580D02*
X30859523Y-61257200D01*
X30859523Y-61257200D02*
X30716666Y-61304819D01*
X30716666Y-61304819D02*
X30621428Y-61304819D01*
X30621428Y-61304819D02*
X30478571Y-61257200D01*
X30478571Y-61257200D02*
X30383333Y-61161961D01*
X30383333Y-61161961D02*
X30335714Y-61066723D01*
X30335714Y-61066723D02*
X30288095Y-60876247D01*
X30288095Y-60876247D02*
X30288095Y-60733390D01*
X30288095Y-60733390D02*
X30335714Y-60542914D01*
X30335714Y-60542914D02*
X30383333Y-60447676D01*
X30383333Y-60447676D02*
X30478571Y-60352438D01*
X30478571Y-60352438D02*
X30621428Y-60304819D01*
X30621428Y-60304819D02*
X30716666Y-60304819D01*
X30716666Y-60304819D02*
X30859523Y-60352438D01*
X30859523Y-60352438D02*
X30907142Y-60400057D01*
X31478571Y-60733390D02*
X31383333Y-60685771D01*
X31383333Y-60685771D02*
X31335714Y-60638152D01*
X31335714Y-60638152D02*
X31288095Y-60542914D01*
X31288095Y-60542914D02*
X31288095Y-60495295D01*
X31288095Y-60495295D02*
X31335714Y-60400057D01*
X31335714Y-60400057D02*
X31383333Y-60352438D01*
X31383333Y-60352438D02*
X31478571Y-60304819D01*
X31478571Y-60304819D02*
X31669047Y-60304819D01*
X31669047Y-60304819D02*
X31764285Y-60352438D01*
X31764285Y-60352438D02*
X31811904Y-60400057D01*
X31811904Y-60400057D02*
X31859523Y-60495295D01*
X31859523Y-60495295D02*
X31859523Y-60542914D01*
X31859523Y-60542914D02*
X31811904Y-60638152D01*
X31811904Y-60638152D02*
X31764285Y-60685771D01*
X31764285Y-60685771D02*
X31669047Y-60733390D01*
X31669047Y-60733390D02*
X31478571Y-60733390D01*
X31478571Y-60733390D02*
X31383333Y-60781009D01*
X31383333Y-60781009D02*
X31335714Y-60828628D01*
X31335714Y-60828628D02*
X31288095Y-60923866D01*
X31288095Y-60923866D02*
X31288095Y-61114342D01*
X31288095Y-61114342D02*
X31335714Y-61209580D01*
X31335714Y-61209580D02*
X31383333Y-61257200D01*
X31383333Y-61257200D02*
X31478571Y-61304819D01*
X31478571Y-61304819D02*
X31669047Y-61304819D01*
X31669047Y-61304819D02*
X31764285Y-61257200D01*
X31764285Y-61257200D02*
X31811904Y-61209580D01*
X31811904Y-61209580D02*
X31859523Y-61114342D01*
X31859523Y-61114342D02*
X31859523Y-60923866D01*
X31859523Y-60923866D02*
X31811904Y-60828628D01*
X31811904Y-60828628D02*
X31764285Y-60781009D01*
X31764285Y-60781009D02*
X31669047Y-60733390D01*
X32716666Y-60304819D02*
X32526190Y-60304819D01*
X32526190Y-60304819D02*
X32430952Y-60352438D01*
X32430952Y-60352438D02*
X32383333Y-60400057D01*
X32383333Y-60400057D02*
X32288095Y-60542914D01*
X32288095Y-60542914D02*
X32240476Y-60733390D01*
X32240476Y-60733390D02*
X32240476Y-61114342D01*
X32240476Y-61114342D02*
X32288095Y-61209580D01*
X32288095Y-61209580D02*
X32335714Y-61257200D01*
X32335714Y-61257200D02*
X32430952Y-61304819D01*
X32430952Y-61304819D02*
X32621428Y-61304819D01*
X32621428Y-61304819D02*
X32716666Y-61257200D01*
X32716666Y-61257200D02*
X32764285Y-61209580D01*
X32764285Y-61209580D02*
X32811904Y-61114342D01*
X32811904Y-61114342D02*
X32811904Y-60876247D01*
X32811904Y-60876247D02*
X32764285Y-60781009D01*
X32764285Y-60781009D02*
X32716666Y-60733390D01*
X32716666Y-60733390D02*
X32621428Y-60685771D01*
X32621428Y-60685771D02*
X32430952Y-60685771D01*
X32430952Y-60685771D02*
X32335714Y-60733390D01*
X32335714Y-60733390D02*
X32288095Y-60781009D01*
X32288095Y-60781009D02*
X32240476Y-60876247D01*
X92657142Y-58004819D02*
X92323809Y-57528628D01*
X92085714Y-58004819D02*
X92085714Y-57004819D01*
X92085714Y-57004819D02*
X92466666Y-57004819D01*
X92466666Y-57004819D02*
X92561904Y-57052438D01*
X92561904Y-57052438D02*
X92609523Y-57100057D01*
X92609523Y-57100057D02*
X92657142Y-57195295D01*
X92657142Y-57195295D02*
X92657142Y-57338152D01*
X92657142Y-57338152D02*
X92609523Y-57433390D01*
X92609523Y-57433390D02*
X92561904Y-57481009D01*
X92561904Y-57481009D02*
X92466666Y-57528628D01*
X92466666Y-57528628D02*
X92085714Y-57528628D01*
X93514285Y-57338152D02*
X93514285Y-58004819D01*
X93276190Y-56957200D02*
X93038095Y-57671485D01*
X93038095Y-57671485D02*
X93657142Y-57671485D01*
X94514285Y-57004819D02*
X94038095Y-57004819D01*
X94038095Y-57004819D02*
X93990476Y-57481009D01*
X93990476Y-57481009D02*
X94038095Y-57433390D01*
X94038095Y-57433390D02*
X94133333Y-57385771D01*
X94133333Y-57385771D02*
X94371428Y-57385771D01*
X94371428Y-57385771D02*
X94466666Y-57433390D01*
X94466666Y-57433390D02*
X94514285Y-57481009D01*
X94514285Y-57481009D02*
X94561904Y-57576247D01*
X94561904Y-57576247D02*
X94561904Y-57814342D01*
X94561904Y-57814342D02*
X94514285Y-57909580D01*
X94514285Y-57909580D02*
X94466666Y-57957200D01*
X94466666Y-57957200D02*
X94371428Y-58004819D01*
X94371428Y-58004819D02*
X94133333Y-58004819D01*
X94133333Y-58004819D02*
X94038095Y-57957200D01*
X94038095Y-57957200D02*
X93990476Y-57909580D01*
X44857142Y-68954819D02*
X44523809Y-68478628D01*
X44285714Y-68954819D02*
X44285714Y-67954819D01*
X44285714Y-67954819D02*
X44666666Y-67954819D01*
X44666666Y-67954819D02*
X44761904Y-68002438D01*
X44761904Y-68002438D02*
X44809523Y-68050057D01*
X44809523Y-68050057D02*
X44857142Y-68145295D01*
X44857142Y-68145295D02*
X44857142Y-68288152D01*
X44857142Y-68288152D02*
X44809523Y-68383390D01*
X44809523Y-68383390D02*
X44761904Y-68431009D01*
X44761904Y-68431009D02*
X44666666Y-68478628D01*
X44666666Y-68478628D02*
X44285714Y-68478628D01*
X45238095Y-68050057D02*
X45285714Y-68002438D01*
X45285714Y-68002438D02*
X45380952Y-67954819D01*
X45380952Y-67954819D02*
X45619047Y-67954819D01*
X45619047Y-67954819D02*
X45714285Y-68002438D01*
X45714285Y-68002438D02*
X45761904Y-68050057D01*
X45761904Y-68050057D02*
X45809523Y-68145295D01*
X45809523Y-68145295D02*
X45809523Y-68240533D01*
X45809523Y-68240533D02*
X45761904Y-68383390D01*
X45761904Y-68383390D02*
X45190476Y-68954819D01*
X45190476Y-68954819D02*
X45809523Y-68954819D01*
X46761904Y-68954819D02*
X46190476Y-68954819D01*
X46476190Y-68954819D02*
X46476190Y-67954819D01*
X46476190Y-67954819D02*
X46380952Y-68097676D01*
X46380952Y-68097676D02*
X46285714Y-68192914D01*
X46285714Y-68192914D02*
X46190476Y-68240533D01*
X102757142Y-58004819D02*
X102423809Y-57528628D01*
X102185714Y-58004819D02*
X102185714Y-57004819D01*
X102185714Y-57004819D02*
X102566666Y-57004819D01*
X102566666Y-57004819D02*
X102661904Y-57052438D01*
X102661904Y-57052438D02*
X102709523Y-57100057D01*
X102709523Y-57100057D02*
X102757142Y-57195295D01*
X102757142Y-57195295D02*
X102757142Y-57338152D01*
X102757142Y-57338152D02*
X102709523Y-57433390D01*
X102709523Y-57433390D02*
X102661904Y-57481009D01*
X102661904Y-57481009D02*
X102566666Y-57528628D01*
X102566666Y-57528628D02*
X102185714Y-57528628D01*
X103090476Y-57004819D02*
X103709523Y-57004819D01*
X103709523Y-57004819D02*
X103376190Y-57385771D01*
X103376190Y-57385771D02*
X103519047Y-57385771D01*
X103519047Y-57385771D02*
X103614285Y-57433390D01*
X103614285Y-57433390D02*
X103661904Y-57481009D01*
X103661904Y-57481009D02*
X103709523Y-57576247D01*
X103709523Y-57576247D02*
X103709523Y-57814342D01*
X103709523Y-57814342D02*
X103661904Y-57909580D01*
X103661904Y-57909580D02*
X103614285Y-57957200D01*
X103614285Y-57957200D02*
X103519047Y-58004819D01*
X103519047Y-58004819D02*
X103233333Y-58004819D01*
X103233333Y-58004819D02*
X103138095Y-57957200D01*
X103138095Y-57957200D02*
X103090476Y-57909580D01*
X104042857Y-57004819D02*
X104709523Y-57004819D01*
X104709523Y-57004819D02*
X104280952Y-58004819D01*
X90357142Y-38359580D02*
X90309523Y-38407200D01*
X90309523Y-38407200D02*
X90166666Y-38454819D01*
X90166666Y-38454819D02*
X90071428Y-38454819D01*
X90071428Y-38454819D02*
X89928571Y-38407200D01*
X89928571Y-38407200D02*
X89833333Y-38311961D01*
X89833333Y-38311961D02*
X89785714Y-38216723D01*
X89785714Y-38216723D02*
X89738095Y-38026247D01*
X89738095Y-38026247D02*
X89738095Y-37883390D01*
X89738095Y-37883390D02*
X89785714Y-37692914D01*
X89785714Y-37692914D02*
X89833333Y-37597676D01*
X89833333Y-37597676D02*
X89928571Y-37502438D01*
X89928571Y-37502438D02*
X90071428Y-37454819D01*
X90071428Y-37454819D02*
X90166666Y-37454819D01*
X90166666Y-37454819D02*
X90309523Y-37502438D01*
X90309523Y-37502438D02*
X90357142Y-37550057D01*
X90690476Y-37454819D02*
X91357142Y-37454819D01*
X91357142Y-37454819D02*
X90928571Y-38454819D01*
X92166666Y-37788152D02*
X92166666Y-38454819D01*
X91928571Y-37407200D02*
X91690476Y-38121485D01*
X91690476Y-38121485D02*
X92309523Y-38121485D01*
X29057142Y-60859580D02*
X29009523Y-60907200D01*
X29009523Y-60907200D02*
X28866666Y-60954819D01*
X28866666Y-60954819D02*
X28771428Y-60954819D01*
X28771428Y-60954819D02*
X28628571Y-60907200D01*
X28628571Y-60907200D02*
X28533333Y-60811961D01*
X28533333Y-60811961D02*
X28485714Y-60716723D01*
X28485714Y-60716723D02*
X28438095Y-60526247D01*
X28438095Y-60526247D02*
X28438095Y-60383390D01*
X28438095Y-60383390D02*
X28485714Y-60192914D01*
X28485714Y-60192914D02*
X28533333Y-60097676D01*
X28533333Y-60097676D02*
X28628571Y-60002438D01*
X28628571Y-60002438D02*
X28771428Y-59954819D01*
X28771428Y-59954819D02*
X28866666Y-59954819D01*
X28866666Y-59954819D02*
X29009523Y-60002438D01*
X29009523Y-60002438D02*
X29057142Y-60050057D01*
X29628571Y-60383390D02*
X29533333Y-60335771D01*
X29533333Y-60335771D02*
X29485714Y-60288152D01*
X29485714Y-60288152D02*
X29438095Y-60192914D01*
X29438095Y-60192914D02*
X29438095Y-60145295D01*
X29438095Y-60145295D02*
X29485714Y-60050057D01*
X29485714Y-60050057D02*
X29533333Y-60002438D01*
X29533333Y-60002438D02*
X29628571Y-59954819D01*
X29628571Y-59954819D02*
X29819047Y-59954819D01*
X29819047Y-59954819D02*
X29914285Y-60002438D01*
X29914285Y-60002438D02*
X29961904Y-60050057D01*
X29961904Y-60050057D02*
X30009523Y-60145295D01*
X30009523Y-60145295D02*
X30009523Y-60192914D01*
X30009523Y-60192914D02*
X29961904Y-60288152D01*
X29961904Y-60288152D02*
X29914285Y-60335771D01*
X29914285Y-60335771D02*
X29819047Y-60383390D01*
X29819047Y-60383390D02*
X29628571Y-60383390D01*
X29628571Y-60383390D02*
X29533333Y-60431009D01*
X29533333Y-60431009D02*
X29485714Y-60478628D01*
X29485714Y-60478628D02*
X29438095Y-60573866D01*
X29438095Y-60573866D02*
X29438095Y-60764342D01*
X29438095Y-60764342D02*
X29485714Y-60859580D01*
X29485714Y-60859580D02*
X29533333Y-60907200D01*
X29533333Y-60907200D02*
X29628571Y-60954819D01*
X29628571Y-60954819D02*
X29819047Y-60954819D01*
X29819047Y-60954819D02*
X29914285Y-60907200D01*
X29914285Y-60907200D02*
X29961904Y-60859580D01*
X29961904Y-60859580D02*
X30009523Y-60764342D01*
X30009523Y-60764342D02*
X30009523Y-60573866D01*
X30009523Y-60573866D02*
X29961904Y-60478628D01*
X29961904Y-60478628D02*
X29914285Y-60431009D01*
X29914285Y-60431009D02*
X29819047Y-60383390D01*
X30914285Y-59954819D02*
X30438095Y-59954819D01*
X30438095Y-59954819D02*
X30390476Y-60431009D01*
X30390476Y-60431009D02*
X30438095Y-60383390D01*
X30438095Y-60383390D02*
X30533333Y-60335771D01*
X30533333Y-60335771D02*
X30771428Y-60335771D01*
X30771428Y-60335771D02*
X30866666Y-60383390D01*
X30866666Y-60383390D02*
X30914285Y-60431009D01*
X30914285Y-60431009D02*
X30961904Y-60526247D01*
X30961904Y-60526247D02*
X30961904Y-60764342D01*
X30961904Y-60764342D02*
X30914285Y-60859580D01*
X30914285Y-60859580D02*
X30866666Y-60907200D01*
X30866666Y-60907200D02*
X30771428Y-60954819D01*
X30771428Y-60954819D02*
X30533333Y-60954819D01*
X30533333Y-60954819D02*
X30438095Y-60907200D01*
X30438095Y-60907200D02*
X30390476Y-60859580D01*
X25130476Y-42304819D02*
X25130476Y-43019104D01*
X25130476Y-43019104D02*
X25082857Y-43161961D01*
X25082857Y-43161961D02*
X24987619Y-43257200D01*
X24987619Y-43257200D02*
X24844762Y-43304819D01*
X24844762Y-43304819D02*
X24749524Y-43304819D01*
X26130476Y-43304819D02*
X25559048Y-43304819D01*
X25844762Y-43304819D02*
X25844762Y-42304819D01*
X25844762Y-42304819D02*
X25749524Y-42447676D01*
X25749524Y-42447676D02*
X25654286Y-42542914D01*
X25654286Y-42542914D02*
X25559048Y-42590533D01*
X26511429Y-42400057D02*
X26559048Y-42352438D01*
X26559048Y-42352438D02*
X26654286Y-42304819D01*
X26654286Y-42304819D02*
X26892381Y-42304819D01*
X26892381Y-42304819D02*
X26987619Y-42352438D01*
X26987619Y-42352438D02*
X27035238Y-42400057D01*
X27035238Y-42400057D02*
X27082857Y-42495295D01*
X27082857Y-42495295D02*
X27082857Y-42590533D01*
X27082857Y-42590533D02*
X27035238Y-42733390D01*
X27035238Y-42733390D02*
X26463810Y-43304819D01*
X26463810Y-43304819D02*
X27082857Y-43304819D01*
M02*
