%TF.GenerationSoftware,KiCad,Pcbnew,10.0.5*%
%TF.CreationDate,2026-09-19T00:00:00+08:00*%
%TF.ProjectId,k2_v4_8L.m7t8a,6b325f76-345f-4384-9c2e-6d377438612e,rev?*%
%TF.SameCoordinates,Original*%
%TF.FileFunction,Copper,L3,Inr*%
%TF.FilePolarity,Positive*%
%FSLAX46Y46*%
G04 Gerber Fmt 4.6, Leading zero omitted, Abs format (unit mm)*
G04 Created by KiCad (PCBNEW 10.0.5) date 2026-09-19T00:00:00+08:00+08:00*
%MOMM*%
%LPD*%
G01*
G04 APERTURE LIST*
%TA.AperFunction,ComponentPad*%
%ADD10C,1.500000*%
%TD*%
%TA.AperFunction,ViaPad*%
%ADD11C,0.350000*%
%TD*%
%TA.AperFunction,ViaPad*%
%ADD12C,0.450000*%
%TD*%
%TA.AperFunction,Conductor*%
%ADD13C,0.200000*%
%TD*%
%TA.AperFunction,Conductor*%
%ADD14C,0.250000*%
%TD*%
%TA.AperFunction,Conductor*%
%ADD15C,0.160000*%
%TD*%
%TA.AperFunction,Conductor*%
%ADD16C,0.205000*%
%TD*%
%ADD17C,0.200000*%
%ADD18C,0.250000*%
%ADD19C,0.350000*%
G04 APERTURE END LIST*
D10*
%TO.N,SWDIO*%
%TO.C,J13*%
X31750000Y-46540000D03*
%TO.N,SWCLK_BOOT0*%
X29210000Y-46540000D03*
%TO.N,GND*%
X26670000Y-46540000D03*
%TO.N,MCU_VDD*%
X24130000Y-46540000D03*
%TD*%
%TO.N,12V_IN*%
%TO.C,J12*%
X29210000Y-42850000D03*
%TO.N,GND*%
X26670000Y-42850000D03*
%TD*%
D11*
%TO.N,GND*%
X133775000Y-54900000D03*
X95475000Y-54500000D03*
X142080000Y-47100000D03*
X133775000Y-44700000D03*
X92025000Y-43000000D03*
X135475000Y-57300000D03*
X102675000Y-50980000D03*
X132650000Y-62050000D03*
X108170000Y-40540000D03*
X134430000Y-57300000D03*
X33350000Y-53200000D03*
X94275000Y-54500000D03*
X133875000Y-47100000D03*
X101050000Y-50755000D03*
X134430000Y-59100000D03*
X95050000Y-50755000D03*
X64300000Y-66750000D03*
X104170000Y-40920000D03*
X94425000Y-53000000D03*
X61900000Y-66150000D03*
X92025000Y-41000000D03*
X103651000Y-53115000D03*
X126170000Y-48140000D03*
X59500000Y-60625000D03*
X96825000Y-53000000D03*
X92025000Y-53000000D03*
X57700000Y-64775000D03*
X99075000Y-50980000D03*
X100150000Y-49135000D03*
X101475000Y-50980000D03*
X86025000Y-53000000D03*
X59500000Y-64775000D03*
X135475000Y-50100000D03*
X83430000Y-52715000D03*
X137140000Y-44700000D03*
X97450000Y-50755000D03*
X45950000Y-60395000D03*
X121580000Y-43800000D03*
X96675000Y-54500000D03*
X84675000Y-53000000D03*
X117580000Y-47220000D03*
X103651000Y-54765000D03*
X97750000Y-49135000D03*
X88425000Y-53000000D03*
X133775000Y-57300000D03*
X133875000Y-52500000D03*
X102825000Y-53000000D03*
X59500000Y-50500000D03*
X133875000Y-43500000D03*
X133830000Y-63300000D03*
X31050000Y-40765000D03*
X103400000Y-50505000D03*
X98025000Y-53000000D03*
X103176000Y-52390000D03*
X82285000Y-53590000D03*
X42050000Y-59095000D03*
X79480000Y-59050000D03*
X133875000Y-55500000D03*
X133775000Y-45300000D03*
X75770000Y-58550000D03*
X93225000Y-54500000D03*
X102550000Y-49135000D03*
X92025000Y-40000000D03*
X99225000Y-53000000D03*
X83575000Y-56516000D03*
X133775000Y-50700000D03*
X30450000Y-53550000D03*
X48050000Y-64500000D03*
X62500000Y-65950000D03*
X133775000Y-62100000D03*
X47900000Y-44300000D03*
X132650000Y-42250000D03*
X105315000Y-54790000D03*
X100275000Y-50980000D03*
X127580000Y-40380000D03*
X91450000Y-37675000D03*
X103651000Y-51315000D03*
X89625000Y-53000000D03*
X50250000Y-42300000D03*
X101350000Y-49135000D03*
X65525000Y-63950000D03*
X133775000Y-60300000D03*
X81480000Y-59050000D03*
X130560000Y-44700000D03*
X140340000Y-43500000D03*
X95625000Y-53000000D03*
X81770000Y-57550000D03*
X65525000Y-61450000D03*
X116170000Y-40160000D03*
X84574000Y-54190000D03*
X102250000Y-50755000D03*
X123580000Y-42280000D03*
X106170000Y-42440000D03*
X33150000Y-55000000D03*
X29950000Y-44965000D03*
X102675000Y-54500000D03*
X99850000Y-50755000D03*
X133775000Y-53700000D03*
X28450000Y-51900000D03*
X28250000Y-51440000D03*
X84574000Y-53590000D03*
X90825000Y-53000000D03*
X58900000Y-50700000D03*
X133775000Y-50100000D03*
X100425000Y-53000000D03*
X136125000Y-45300000D03*
X92025000Y-42000000D03*
X98950000Y-49135000D03*
X102770000Y-44700000D03*
X56500000Y-40250000D03*
X94425000Y-50980000D03*
X53475000Y-61450000D03*
X57700000Y-62275000D03*
X29350000Y-58500000D03*
X129960000Y-48300000D03*
X99075000Y-54500000D03*
X131525000Y-46500000D03*
X100275000Y-54500000D03*
X135475000Y-50700000D03*
X96250000Y-50755000D03*
X50250000Y-42800000D03*
X63700000Y-66349999D03*
X51725000Y-41000000D03*
X103651000Y-52515000D03*
X53475000Y-63950000D03*
X101625000Y-53000000D03*
X96675000Y-50980000D03*
X96550000Y-49135000D03*
X135475000Y-53700000D03*
X95475000Y-50980000D03*
X113580000Y-46460000D03*
X97875000Y-54500000D03*
X58300000Y-65150000D03*
X110770000Y-48300000D03*
X101475000Y-54500000D03*
X133875000Y-59100000D03*
X98650000Y-50755000D03*
X42450000Y-59395000D03*
X28250000Y-49840000D03*
X95350000Y-49135000D03*
X132650000Y-57350000D03*
X84055000Y-54490000D03*
X46650000Y-59600000D03*
X103750000Y-49135000D03*
X83430000Y-50865000D03*
X103651000Y-55365000D03*
X133775000Y-48300000D03*
X64900000Y-56900000D03*
X42050000Y-61195000D03*
X112170000Y-42060000D03*
X133229999Y-60300000D03*
X138060000Y-50100000D03*
X105315000Y-53590000D03*
X103400000Y-53815000D03*
X33150000Y-53650000D03*
X136125000Y-44700000D03*
X120170000Y-39400000D03*
X102100000Y-43200000D03*
X55900000Y-40650000D03*
X133875000Y-48900000D03*
X83430000Y-51515000D03*
X97875000Y-50980000D03*
X87225000Y-53000000D03*
X44600000Y-44000000D03*
X93225000Y-53000000D03*
%TO.N,MCU_VDD*%
X50850000Y-51800000D03*
X56725000Y-66500000D03*
X44750000Y-59495000D03*
X45950000Y-59095000D03*
X56725000Y-68500000D03*
X51450000Y-39800000D03*
X56725000Y-69500000D03*
X56725000Y-67500000D03*
%TO.N,NRST*%
X30850000Y-54700000D03*
X30637500Y-54250000D03*
X27750000Y-52100000D03*
X41837500Y-49550000D03*
%TO.N,PERSTA#*%
X43750000Y-39000000D03*
X50050000Y-39000000D03*
X43637500Y-41300000D03*
X31837500Y-55800000D03*
X59800000Y-40900000D03*
X32137500Y-55450000D03*
X51250000Y-37600000D03*
X133700000Y-56300000D03*
X59750000Y-41400000D03*
%TO.N,PWR_BTN_OUT*%
X33150000Y-57100000D03*
X53050000Y-37000000D03*
X50850000Y-38400000D03*
%TO.N,GPIO_LED*%
X36050000Y-60662500D03*
X45050000Y-70462500D03*
%TO.N,P3V3_AUX*%
X58900000Y-62275000D03*
D12*
X50950000Y-39000000D03*
D11*
X34250000Y-56200000D03*
X59864700Y-48439700D03*
X34250000Y-58050001D03*
X51725000Y-37000000D03*
X30650000Y-55300000D03*
D12*
X29650000Y-53500000D03*
D11*
X59850000Y-46500000D03*
X59750000Y-44700000D03*
%TO.N,I2C2_SCL*%
X37750000Y-56200000D03*
X48850000Y-56600000D03*
X82866700Y-51215000D03*
X55050000Y-68500000D03*
%TO.N,I2C2_SDA*%
X40850000Y-59762500D03*
X55203900Y-69922900D03*
X55050000Y-69500000D03*
X82910000Y-51790000D03*
%TO.N,SWDIO*%
X32650000Y-46940000D03*
X39250000Y-50740000D03*
%TO.N,SWCLK_BOOT0*%
X40110000Y-50140000D03*
X29610000Y-45840000D03*
X40562500Y-50000000D03*
X49462500Y-45200000D03*
D12*
%TO.N,I2C1_SCL*%
X45950000Y-61637500D03*
X33750000Y-49737500D03*
%TO.N,I2C1_SDA*%
X46450000Y-62905000D03*
D11*
X135000000Y-56137500D03*
D12*
X51500000Y-50937500D03*
D11*
X62800000Y-50437500D03*
X50950000Y-66805000D03*
D12*
X51500000Y-50437500D03*
D11*
%TO.N,12V_IN*%
X34937500Y-41635000D03*
X33037500Y-43135000D03*
%TO.N,P3V3*%
X31790000Y-42100000D03*
X93800000Y-53975000D03*
X86600000Y-53975000D03*
X96200000Y-53975000D03*
X81000000Y-60600000D03*
X95000000Y-53975000D03*
D12*
X42800000Y-39000000D03*
D11*
X104170000Y-55690000D03*
X85400000Y-53975000D03*
X88275000Y-54000000D03*
X90650000Y-42275000D03*
X90200000Y-53975000D03*
X98125000Y-54000000D03*
X100525000Y-54000000D03*
X94525000Y-54000000D03*
X102200000Y-53975000D03*
X89975000Y-41000000D03*
X93800000Y-53525000D03*
X90825000Y-54000000D03*
X97400000Y-53975000D03*
X99325000Y-54000000D03*
X98600000Y-53975000D03*
X104690000Y-55990000D03*
X28990000Y-41200000D03*
X94500000Y-64700000D03*
X89775000Y-38500000D03*
X89975000Y-40000000D03*
X101000000Y-53975000D03*
D12*
X36700000Y-34600000D03*
D11*
X92600000Y-53525000D03*
X91875000Y-54000000D03*
X40950000Y-41950000D03*
X85875000Y-54000000D03*
X101725000Y-54000000D03*
X87800000Y-53975000D03*
X99800000Y-53975000D03*
X92600000Y-53975000D03*
X87225000Y-54000000D03*
X90650000Y-41275000D03*
X89000000Y-53975000D03*
X36850000Y-42150000D03*
X89625000Y-54000000D03*
X91400000Y-53975000D03*
X95725000Y-54000000D03*
X96925000Y-54000000D03*
%TO.N,PCIE_DN_OUT4_P_MCIO*%
X54400000Y-60200000D03*
X89100000Y-52366000D03*
X54400000Y-42010000D03*
%TO.N,PCIE_DN_OUT4_N_MCIO*%
X89650000Y-51423000D03*
X55000000Y-60200000D03*
X55000000Y-42510000D03*
%TO.N,PCIE_DN_OUT5_P_MCIO*%
X56200000Y-60200000D03*
X90300000Y-52366000D03*
X56200000Y-43080000D03*
%TO.N,PCIE_DN_OUT5_N_MCIO*%
X90850000Y-51423000D03*
X56800000Y-60200000D03*
X56800000Y-43580000D03*
%TO.N,PCIE_REFCLK1_N*%
X131070000Y-50800000D03*
X133824999Y-51490000D03*
%TO.N,PCIE_DN_OUT6_P_MCIO*%
X91500000Y-52366000D03*
X61600000Y-60200000D03*
X61600000Y-44150000D03*
%TO.N,PCIE_DN_OUT6_N_MCIO*%
X62200000Y-60200000D03*
X92050000Y-51423000D03*
X62200000Y-44650000D03*
%TO.N,PCIE_DN_OUT7_P_MCIO*%
X63400000Y-60200000D03*
X92700000Y-52366000D03*
X63400000Y-34520000D03*
%TO.N,PCIE_DN_OUT7_N_MCIO*%
X64000000Y-60200000D03*
X93700000Y-51673000D03*
X64000000Y-35020000D03*
%TO.N,PCIE_UP4_P*%
X54400000Y-65000000D03*
X90100000Y-49360000D03*
X90100000Y-46290000D03*
%TO.N,PCIE_UP4_N*%
X89600000Y-50580000D03*
X55000000Y-65000000D03*
X89600000Y-46790000D03*
%TO.N,PCIE_UP5_P*%
X91300000Y-49360000D03*
X56200000Y-65000000D03*
X91300000Y-47360000D03*
%TO.N,PCIE_UP5_N*%
X90800000Y-50580000D03*
X56800000Y-65000000D03*
X90800000Y-47860000D03*
%TO.N,PERSTB#*%
X60200000Y-64000000D03*
X135000000Y-62100000D03*
X67400000Y-63500000D03*
%TO.N,PCIE_UP6_P*%
X61600000Y-65000000D03*
X91950000Y-50630000D03*
X91950000Y-48430000D03*
%TO.N,PCIE_UP6_N*%
X62200000Y-65000000D03*
X92450000Y-49410000D03*
X92450000Y-48930000D03*
%TO.N,PCIE_UP7_P*%
X93250000Y-50580000D03*
X63400000Y-65000000D03*
X93250000Y-49500000D03*
%TO.N,PCIE_UP7_N*%
X93750000Y-49310000D03*
X64000000Y-65000000D03*
X93750000Y-50000000D03*
%TO.N,PWR_BTN_ISO*%
X47400000Y-50900000D03*
X53930800Y-37016100D03*
%TO.N,PCIE_UP_OUT0_P_J2*%
X141220000Y-42650000D03*
X84850000Y-54880000D03*
X141220000Y-56834000D03*
%TO.N,PCIE_UP_OUT0_N_J2*%
X127010000Y-43250000D03*
X84350000Y-55723000D03*
X127010000Y-56334000D03*
%TO.N,PCIE_UP_OUT1_P_J2*%
X86050000Y-54880000D03*
X127590000Y-43850000D03*
X127590000Y-57783000D03*
%TO.N,PCIE_UP_OUT1_N_J2*%
X139480000Y-43850000D03*
X85500000Y-55823000D03*
X139480000Y-58283000D03*
%TO.N,PCIE_REFCLK0_N*%
X131449999Y-45400000D03*
X133824999Y-46090000D03*
%TO.N,PCIE_UP_OUT2_P_J2*%
X137160000Y-46250000D03*
X87250000Y-54880000D03*
X137160000Y-59732000D03*
%TO.N,PCIE_UP_OUT2_N_J2*%
X86700000Y-55823000D03*
X129330000Y-46850000D03*
X129330000Y-59232000D03*
%TO.N,PCIE_UP_OUT3_P_J2*%
X88450000Y-54880000D03*
X130490000Y-47450000D03*
X130490000Y-60681000D03*
%TO.N,PCIE_UP_OUT3_N_J2*%
X136000000Y-47450000D03*
X87900000Y-55823000D03*
X136000000Y-61181000D03*
%TO.N,PCIE_UP_OUT4_P_J2*%
X140060000Y-48050000D03*
X89650000Y-54880000D03*
X140060000Y-62630000D03*
%TO.N,PCIE_UP_OUT4_N_J2*%
X89100000Y-55823000D03*
X131650000Y-48650000D03*
X131650000Y-62130000D03*
%TO.N,PCIE_UP_OUT5_P_J2*%
X128750000Y-49250000D03*
X90850000Y-54880000D03*
X128750000Y-63579000D03*
%TO.N,PCIE_UP_OUT5_N_J2*%
X90300000Y-55823000D03*
X138900000Y-49250000D03*
X138900000Y-64078999D03*
%TO.N,PCIE_UP_OUT6_P_J2*%
X92050000Y-54880000D03*
X137740000Y-51650000D03*
X137740000Y-65528000D03*
%TO.N,PCIE_UP_OUT6_N_J2*%
X129910000Y-52250000D03*
X91500000Y-55823000D03*
X129910000Y-65028000D03*
%TO.N,PCIE_UP_OUT7_P_J2*%
X131070000Y-52850000D03*
X93700000Y-55130000D03*
X131070000Y-66477000D03*
%TO.N,PCIE_UP_OUT7_N_J2*%
X136580000Y-52850000D03*
X92700000Y-55823000D03*
X136580000Y-66977000D03*
%TO.N,PCIE_DN0_P*%
X84750000Y-56770000D03*
X125850000Y-54050000D03*
X125850000Y-67926000D03*
X84750000Y-67926000D03*
%TO.N,PCIE_DN0_N*%
X85250000Y-57990000D03*
X142380000Y-54050000D03*
X142380000Y-68426000D03*
X85250000Y-68426000D03*
%TO.N,PCIE_DN1_P*%
X85950000Y-56770000D03*
X141800000Y-54650000D03*
X85950000Y-69875000D03*
X141800000Y-69875000D03*
%TO.N,PCIE_DN1_N*%
X126430000Y-55250000D03*
X86450000Y-57990000D03*
X126430000Y-69375000D03*
X86450000Y-69375000D03*
%TO.N,PCIE_DN2_P*%
X87750000Y-58090000D03*
X127010000Y-57650000D03*
X127010000Y-70824000D03*
X87750000Y-70824000D03*
%TO.N,PCIE_DN2_N*%
X141220000Y-57650000D03*
X87250000Y-56820000D03*
X87250000Y-71324000D03*
X141220000Y-71324000D03*
%TO.N,PCIE_DN3_P*%
X140640000Y-58250000D03*
X88900000Y-58040000D03*
X88900000Y-72773000D03*
X140640000Y-72773000D03*
%TO.N,PCIE_DN3_N*%
X88400000Y-56820000D03*
X127590000Y-58850000D03*
X88400000Y-72273000D03*
X127590000Y-72273000D03*
%TO.N,PCIE_DN4_P*%
X128169999Y-59450000D03*
X89550000Y-56770000D03*
X89550000Y-73722000D03*
X128169999Y-73722000D03*
%TO.N,PCIE_DN4_N*%
X139480000Y-59450000D03*
X90050000Y-57990000D03*
X139480000Y-74222000D03*
X90050000Y-74222000D03*
%TO.N,PCIE_DN5_P*%
X138320000Y-60050000D03*
X90750000Y-56770000D03*
X90750000Y-75671000D03*
X138320000Y-75671000D03*
%TO.N,PCIE_DN5_N*%
X91250000Y-57990000D03*
X129330000Y-60650000D03*
X129330000Y-75171000D03*
X91250000Y-75171000D03*
%TO.N,PCIE_DN6_P*%
X130490000Y-63050000D03*
X92550000Y-58090000D03*
X130490000Y-76620000D03*
X92550000Y-76620000D03*
%TO.N,PCIE_DN6_N*%
X92050000Y-56820000D03*
X137160000Y-63050000D03*
X137160000Y-77120000D03*
X92050000Y-77120000D03*
%TO.N,PCIE_DN7_P*%
X136000000Y-63650000D03*
X93700000Y-58040000D03*
X93700000Y-78569000D03*
X136000000Y-78569000D03*
%TO.N,PCIE_DN7_N*%
X131650000Y-64250000D03*
X93200000Y-56820000D03*
X131650000Y-78069000D03*
X93200000Y-78069000D03*
%TO.N,DS320_STRAP_MODE*%
X104215700Y-52711100D03*
X82775000Y-61550000D03*
%TO.N,PCIE_DN_OUT1_N_MCIO*%
X86050000Y-51423000D03*
X60400000Y-51500000D03*
X60400000Y-39870000D03*
%TO.N,PCIE_UP1_P*%
X86500000Y-49360000D03*
X62200000Y-34500000D03*
X86500000Y-35590000D03*
X62200000Y-35590000D03*
%TO.N,PCIE_DN_OUT2_P_MCIO*%
X86700000Y-52366000D03*
X58000000Y-51500000D03*
X58000000Y-39300000D03*
%TO.N,PCIE_UP2_P*%
X59200000Y-34500000D03*
X87200000Y-50580000D03*
X87200000Y-45220000D03*
X59200000Y-45220000D03*
%TO.N,PCIE_DN_OUT2_N_MCIO*%
X87250000Y-51423000D03*
X57400000Y-51500000D03*
X57400000Y-38800000D03*
%TO.N,PCIE_UP2_N*%
X58600000Y-34500000D03*
X87700000Y-49360000D03*
X87700000Y-45720000D03*
X58600000Y-45720000D03*
%TO.N,PCIE_DN_OUT3_P_MCIO*%
X87900000Y-52366000D03*
X53800000Y-51500000D03*
X53800000Y-38230000D03*
%TO.N,PCIE_UP3_P*%
X88400000Y-50580000D03*
X55000000Y-34500000D03*
X88400000Y-33950000D03*
X55000000Y-33950000D03*
%TO.N,PCIE_DN_OUT3_N_MCIO*%
X53200000Y-51500000D03*
X88450000Y-51423000D03*
X53200000Y-37730000D03*
%TO.N,PCIE_UP3_N*%
X88900000Y-49360000D03*
X54400000Y-34500000D03*
X54400000Y-33450000D03*
X88900000Y-33450000D03*
%TO.N,DS320_STRAP_A_ADDR0_7-0*%
X82910000Y-52990000D03*
X84210000Y-63890000D03*
X96110000Y-63890000D03*
X99610000Y-59590000D03*
%TO.N,DS320_STRAP_B_ADDR0_7-0*%
X102560000Y-61590000D03*
X84160000Y-66690000D03*
X82360000Y-54490000D03*
X97560000Y-66090000D03*
%TO.N,DS320_STRAP_B_ADDR1_7-0*%
X83650000Y-50279600D03*
X99850000Y-60779600D03*
X103050000Y-51879600D03*
X106750000Y-55479600D03*
%TO.N,DS320_STRAP_A_ADDR0_15-8*%
X94250400Y-60525000D03*
X104170400Y-56290000D03*
%TO.N,DS320_STRAP_B_ADDR1_15-8*%
X104215700Y-51511100D03*
X94889800Y-58903000D03*
%TO.N,DS320_STRAP_B_ADDR0_15-8*%
X82025000Y-62190000D03*
X105125000Y-52090000D03*
%TO.N,DS320_STRAP_A_ADDR1_7-0*%
X95300000Y-66140000D03*
X102600000Y-59540000D03*
X84000000Y-58240000D03*
X84200000Y-66140000D03*
%TO.N,PCIE_DN_OUT0_P_MCIO*%
X84300000Y-52366000D03*
X65200000Y-51500000D03*
X65200000Y-41440000D03*
%TO.N,PCIE_UP0_N*%
X84800000Y-50580000D03*
X64599999Y-34500000D03*
X64599999Y-37160000D03*
X84800000Y-37160000D03*
%TO.N,PCIE_DN_OUT0_N_MCIO*%
X84850000Y-51423000D03*
X64599999Y-51500000D03*
X64599999Y-40940000D03*
%TO.N,PCIE_UP0_P*%
X85300000Y-49360000D03*
X65200000Y-34500000D03*
X65200000Y-36660000D03*
X85300000Y-36660000D03*
%TO.N,PCIE_DN_OUT1_P_MCIO*%
X61000000Y-51500000D03*
X85500000Y-52366000D03*
X61000000Y-40370000D03*
%TO.N,PCIE_UP1_N*%
X86000000Y-50580000D03*
X61600000Y-34500000D03*
X61600000Y-36090000D03*
X86000000Y-36090000D03*
%TO.N,SW_U2*%
X31550000Y-39595000D03*
X34050000Y-44195000D03*
%TO.N,LED_A*%
X47350000Y-70500000D03*
X48950000Y-70500000D03*
%TD*%
%TO.N,GND*%
D13*
X49150000Y-48000000D02*
X49250000Y-47900000D01*
X49150000Y-48000000D02*
X49250000Y-47900000D01*
X50250000Y-44800000D02*
X50250000Y-42800000D01*
X47650000Y-52700000D02*
X47750000Y-52600000D01*
X49850000Y-45900000D02*
X49950000Y-45800000D01*
X49850000Y-45900000D02*
X49950000Y-45800000D01*
X46750000Y-55700000D02*
X46750000Y-55500000D01*
X49950000Y-45800000D02*
X49950000Y-45500000D01*
X49950000Y-45800000D02*
X49950000Y-45500000D01*
X48650000Y-49600000D02*
X48750000Y-49500000D01*
X48650000Y-49600000D02*
X48750000Y-49500000D01*
X49450000Y-47100000D02*
X49550000Y-47000000D01*
X49450000Y-47100000D02*
X49550000Y-47000000D01*
X46950000Y-55100000D02*
X46950000Y-54900000D01*
X47350000Y-53600000D02*
X47450000Y-53500000D01*
X45000000Y-44100000D02*
X44800000Y-44100000D01*
X47650000Y-52900000D02*
X47650000Y-52700000D01*
X46650000Y-59600000D02*
X46650000Y-55800000D01*
X50050000Y-45200000D02*
X50150000Y-45100000D01*
X50050000Y-45200000D02*
X50150000Y-45100000D01*
X48550000Y-50100000D02*
X48550000Y-49900000D01*
X48550000Y-50100000D02*
X48550000Y-49900000D01*
X47850000Y-52300000D02*
X47850000Y-52100000D01*
X47150000Y-54400000D02*
X47150000Y-54200000D01*
X49650000Y-46500000D02*
X49750000Y-46400000D01*
X49650000Y-46500000D02*
X49750000Y-46400000D01*
X46850000Y-55200000D02*
X46950000Y-55100000D01*
X48850000Y-49000000D02*
X48950000Y-48900000D01*
X48850000Y-49000000D02*
X48950000Y-48900000D01*
X48550000Y-49900000D02*
X48650000Y-49800000D01*
X48550000Y-49900000D02*
X48650000Y-49800000D01*
X47050000Y-54800000D02*
X47050000Y-54500000D01*
X48250000Y-51000000D02*
X48250000Y-50800000D01*
X48250000Y-51000000D02*
X48250000Y-50800000D01*
X45300000Y-44200000D02*
X45100000Y-44200000D01*
X49050000Y-48300000D02*
X49150000Y-48200000D01*
X49050000Y-48300000D02*
X49150000Y-48200000D01*
X48350000Y-50700000D02*
X48350000Y-50500000D01*
X48350000Y-50700000D02*
X48350000Y-50500000D01*
X46650000Y-55800000D02*
X46750000Y-55700000D01*
X49850000Y-46100000D02*
X49850000Y-45900000D01*
X49850000Y-46100000D02*
X49850000Y-45900000D01*
X48950000Y-48900000D02*
X48950000Y-48600000D01*
X48950000Y-48900000D02*
X48950000Y-48600000D01*
X48050000Y-51400000D02*
X48150000Y-51300000D01*
X48050000Y-51400000D02*
X48150000Y-51300000D01*
X49050000Y-48500000D02*
X49050000Y-48300000D01*
X49050000Y-48500000D02*
X49050000Y-48300000D01*
X49750000Y-46200000D02*
X49850000Y-46100000D01*
X49750000Y-46200000D02*
X49850000Y-46100000D01*
X47250000Y-54100000D02*
X47250000Y-53900000D01*
X47750000Y-52600000D02*
X47750000Y-52400000D01*
X49650000Y-46700000D02*
X49650000Y-46500000D01*
X49650000Y-46700000D02*
X49650000Y-46500000D01*
X49350000Y-47400000D02*
X49450000Y-47300000D01*
X49350000Y-47400000D02*
X49450000Y-47300000D01*
X50050000Y-45400000D02*
X50050000Y-45200000D01*
X50050000Y-45400000D02*
X50050000Y-45200000D01*
X47450000Y-53500000D02*
X47450000Y-53300000D01*
X50150000Y-44900000D02*
X50250000Y-44800000D01*
X50150000Y-44900000D02*
X50250000Y-44800000D01*
X48150000Y-51100000D02*
X48250000Y-51000000D01*
X48150000Y-51100000D02*
X48250000Y-51000000D01*
X28250000Y-49840000D02*
X28250000Y-51440000D01*
X49950000Y-45500000D02*
X50050000Y-45400000D01*
X49950000Y-45500000D02*
X50050000Y-45400000D01*
X50250000Y-44800000D02*
X50250000Y-42300000D01*
X47900000Y-44300000D02*
X45400000Y-44300000D01*
X48150000Y-51300000D02*
X48150000Y-51100000D01*
X48150000Y-51300000D02*
X48150000Y-51100000D01*
X47850000Y-52100000D02*
X47950000Y-52000000D01*
X49550000Y-47000000D02*
X49550000Y-46800000D01*
X49550000Y-47000000D02*
X49550000Y-46800000D01*
X47950000Y-51800000D02*
X48050000Y-51700000D01*
X48750000Y-49300000D02*
X48850000Y-49200000D01*
X48750000Y-49300000D02*
X48850000Y-49200000D01*
X42050000Y-61195000D02*
X42050000Y-59095000D01*
X47950000Y-52000000D02*
X47950000Y-51800000D01*
X47150000Y-54200000D02*
X47250000Y-54100000D01*
X46850000Y-55400000D02*
X46850000Y-55200000D01*
X49250000Y-47700000D02*
X49350000Y-47600000D01*
X49250000Y-47700000D02*
X49350000Y-47600000D01*
X48650000Y-49800000D02*
X48650000Y-49600000D01*
X48650000Y-49800000D02*
X48650000Y-49600000D01*
X47550000Y-53000000D02*
X47650000Y-52900000D01*
X47350000Y-53800000D02*
X47350000Y-53600000D01*
X48450000Y-50400000D02*
X48450000Y-50200000D01*
X48450000Y-50400000D02*
X48450000Y-50200000D01*
X49750000Y-46400000D02*
X49750000Y-46200000D01*
X49750000Y-46400000D02*
X49750000Y-46200000D01*
X46950000Y-54900000D02*
X47050000Y-54800000D01*
X49350000Y-47600000D02*
X49350000Y-47400000D01*
X49350000Y-47600000D02*
X49350000Y-47400000D01*
X49150000Y-48200000D02*
X49150000Y-48000000D01*
X49150000Y-48200000D02*
X49150000Y-48000000D01*
X47050000Y-54500000D02*
X47150000Y-54400000D01*
X48850000Y-49200000D02*
X48850000Y-49000000D01*
X48850000Y-49200000D02*
X48850000Y-49000000D01*
X44800000Y-44100000D02*
X44700000Y-44000000D01*
X45100000Y-44200000D02*
X45000000Y-44100000D01*
X45400000Y-44300000D02*
X45300000Y-44200000D01*
X47550000Y-53200000D02*
X47550000Y-53000000D01*
X46750000Y-55500000D02*
X46850000Y-55400000D01*
X47250000Y-53900000D02*
X47350000Y-53800000D01*
X48050000Y-64500000D02*
X48050000Y-51400000D01*
X47450000Y-53300000D02*
X47550000Y-53200000D01*
X48050000Y-51700000D02*
X48050000Y-51400000D01*
X48350000Y-50500000D02*
X48450000Y-50400000D01*
X48350000Y-50500000D02*
X48450000Y-50400000D01*
X44700000Y-44000000D02*
X44600000Y-44000000D01*
X49450000Y-47300000D02*
X49450000Y-47100000D01*
X49450000Y-47300000D02*
X49450000Y-47100000D01*
X49250000Y-47900000D02*
X49250000Y-47700000D01*
X49250000Y-47900000D02*
X49250000Y-47700000D01*
X48750000Y-49500000D02*
X48750000Y-49300000D01*
X48750000Y-49500000D02*
X48750000Y-49300000D01*
X48250000Y-50800000D02*
X48350000Y-50700000D01*
X48250000Y-50800000D02*
X48350000Y-50700000D01*
X49550000Y-46800000D02*
X49650000Y-46700000D01*
X49550000Y-46800000D02*
X49650000Y-46700000D01*
X47750000Y-52400000D02*
X47850000Y-52300000D01*
X48450000Y-50200000D02*
X48550000Y-50100000D01*
X48450000Y-50200000D02*
X48550000Y-50100000D01*
X48950000Y-48600000D02*
X49050000Y-48500000D01*
X48950000Y-48600000D02*
X49050000Y-48500000D01*
X50150000Y-45100000D02*
X50150000Y-44900000D01*
X50150000Y-45100000D02*
X50150000Y-44900000D01*
%TO.N,MCU_VDD*%
X51050000Y-40900000D02*
X51150000Y-40800000D01*
X44850000Y-59495000D02*
X44950000Y-59395000D01*
X45750000Y-59195000D02*
X45850000Y-59095000D01*
X44750000Y-59495000D02*
X44850000Y-59495000D01*
X51350000Y-40000000D02*
X51450000Y-39900000D01*
X45450000Y-59295000D02*
X45550000Y-59195000D01*
X51250000Y-40300000D02*
X51350000Y-40200000D01*
X50950000Y-41200000D02*
X51050000Y-41100000D01*
X45150000Y-59395000D02*
X45250000Y-59295000D01*
X45550000Y-59195000D02*
X45750000Y-59195000D01*
X44950000Y-59395000D02*
X45150000Y-59395000D01*
X50850000Y-41600000D02*
X50950000Y-41500000D01*
X51150000Y-40600000D02*
X51250000Y-40500000D01*
X51350000Y-40200000D02*
X51350000Y-40000000D01*
X51250000Y-40500000D02*
X51250000Y-40300000D01*
X51150000Y-40800000D02*
X51150000Y-40600000D01*
X45850000Y-59095000D02*
X45950000Y-59095000D01*
X45250000Y-59295000D02*
X45450000Y-59295000D01*
X51050000Y-41100000D02*
X51050000Y-40900000D01*
X50850000Y-51800000D02*
X50850000Y-41600000D01*
X50950000Y-41500000D02*
X50950000Y-41200000D01*
X51450000Y-39900000D02*
X51450000Y-39800000D01*
%TO.N,PERSTA#*%
X31937500Y-55600000D02*
X31837500Y-55700000D01*
X32637500Y-53400000D02*
X32537500Y-53500000D01*
X32637500Y-53200000D02*
X32637500Y-53400000D01*
X43637500Y-41300000D02*
X35737500Y-49200000D01*
X32437500Y-54000000D02*
X32337500Y-54100000D01*
X32137500Y-55450000D02*
X31937500Y-55650000D01*
X31937500Y-55400000D02*
X31937500Y-55600000D01*
X33237500Y-49500000D02*
X33137500Y-49600000D01*
X32037500Y-55300000D02*
X31937500Y-55400000D01*
X32237500Y-54500000D02*
X32237500Y-54700000D01*
X31837500Y-55700000D02*
X31837500Y-55800000D01*
X32837500Y-52600000D02*
X32837500Y-52800000D01*
X33037500Y-52000000D02*
X33037500Y-52200000D01*
X32337500Y-54400000D02*
X32237500Y-54500000D01*
X33237500Y-49400000D02*
X33237500Y-49500000D01*
X32537500Y-53700000D02*
X32437500Y-53800000D01*
X33137500Y-49600000D02*
X33137500Y-51900000D01*
X43750000Y-39000000D02*
X50050000Y-39000000D01*
X32137500Y-54800000D02*
X32137500Y-55000000D01*
X33437500Y-49200000D02*
X33237500Y-49400000D01*
X32537500Y-53500000D02*
X32537500Y-53700000D01*
X32737500Y-53100000D02*
X32637500Y-53200000D01*
X33037500Y-52200000D02*
X32937500Y-52300000D01*
X33137500Y-51900000D02*
X33037500Y-52000000D01*
X32837500Y-52800000D02*
X32737500Y-52900000D01*
X32037500Y-55100000D02*
X32037500Y-55300000D01*
X35737500Y-49200000D02*
X33437500Y-49200000D01*
X32937500Y-52500000D02*
X32837500Y-52600000D01*
X31937500Y-55650000D02*
X31837500Y-55750000D01*
X32237500Y-54700000D02*
X32137500Y-54800000D01*
X32937500Y-52300000D02*
X32937500Y-52500000D01*
X32737500Y-52900000D02*
X32737500Y-53100000D01*
X32437500Y-53800000D02*
X32437500Y-54000000D01*
X32337500Y-54100000D02*
X32337500Y-54400000D01*
X32137500Y-55000000D02*
X32037500Y-55100000D01*
%TO.N,PWR_BTN_OUT*%
X53200000Y-37000000D02*
X53050000Y-37000000D01*
X51150000Y-38400000D02*
X51250000Y-38500000D01*
X51350000Y-38500000D02*
X51450000Y-38600000D01*
X50850000Y-38400000D02*
X51150000Y-38400000D01*
X51500000Y-38700000D02*
X51300000Y-38500000D01*
X51250000Y-38500000D02*
X51350000Y-38500000D01*
X51500001Y-38699999D02*
X53200000Y-37000000D01*
%TO.N,GPIO_LED*%
X44750000Y-69462500D02*
X44750000Y-69662500D01*
X45050000Y-70362500D02*
X45050000Y-70462500D01*
X44950000Y-70062500D02*
X44950000Y-70262500D01*
X44750000Y-69662500D02*
X44850000Y-69762500D01*
X44850000Y-69962500D02*
X44950000Y-70062500D01*
X44650000Y-69362500D02*
X44750000Y-69462500D01*
X44850000Y-69762500D02*
X44850000Y-69962500D01*
X36050000Y-60662500D02*
X44650000Y-69262500D01*
X44650000Y-69262500D02*
X44650000Y-69362500D01*
X44950000Y-70262500D02*
X45050000Y-70362500D01*
%TO.N,P3V3_AUX*%
X59850000Y-46500000D02*
X59750000Y-46400000D01*
X59750000Y-46400000D02*
X59750000Y-44700000D01*
%TO.N,I2C2_SDA*%
X49650000Y-68762500D02*
X49750000Y-68862500D01*
X50650000Y-69062500D02*
X50750000Y-69162500D01*
X51350000Y-69362500D02*
X51450000Y-69362500D01*
X49150000Y-68662500D02*
X49350000Y-68662500D01*
X50050000Y-68862500D02*
X50150000Y-68962500D01*
X49050000Y-68562500D02*
X49150000Y-68662500D01*
X41650000Y-61662500D02*
X48350000Y-68362500D01*
X41550000Y-61462500D02*
X41650000Y-61562500D01*
X41550000Y-60462500D02*
X41550000Y-61462500D01*
X48750000Y-68462500D02*
X48850000Y-68562500D01*
X51050000Y-69262500D02*
X51250000Y-69262500D01*
X50350000Y-68962500D02*
X50450000Y-69062500D01*
X40850000Y-59762500D02*
X41550000Y-60462500D01*
X50150000Y-68962500D02*
X50350000Y-68962500D01*
X48350000Y-68362500D02*
X48450000Y-68362500D01*
X56500000Y-70000000D02*
X61700000Y-70000000D01*
X56400000Y-69900000D02*
X56500000Y-70000000D01*
X49750000Y-68862500D02*
X50050000Y-68862500D01*
X61700000Y-70000000D02*
X79910000Y-51790000D01*
X50750000Y-69162500D02*
X50950000Y-69162500D01*
X49450000Y-68762500D02*
X49650000Y-68762500D01*
X48450000Y-68362500D02*
X48550000Y-68462500D01*
X49350000Y-68662500D02*
X49450000Y-68762500D01*
X55000000Y-69500000D02*
X51500001Y-69500000D01*
X48850000Y-68562500D02*
X49050000Y-68562500D01*
X50950000Y-69162500D02*
X51050000Y-69262500D01*
X79910000Y-51790000D02*
X82910000Y-51790000D01*
X55200000Y-69900000D02*
X56400000Y-69900000D01*
X41650000Y-61562500D02*
X41650000Y-61662500D01*
X48550000Y-68462500D02*
X48750000Y-68462500D01*
X50450000Y-69062500D02*
X50650000Y-69062500D01*
X51250000Y-69262500D02*
X51350000Y-69362500D01*
%TO.N,SWCLK_BOOT0*%
X48662500Y-45500000D02*
X48762500Y-45400000D01*
X45962500Y-46300000D02*
X46162500Y-46300000D01*
X44662500Y-46700000D02*
X44862500Y-46700000D01*
X45662500Y-46400000D02*
X45862500Y-46400000D01*
X47462500Y-45800000D02*
X47662500Y-45800000D01*
X47162500Y-45900000D02*
X47362500Y-45900000D01*
X44562500Y-46800000D02*
X44662500Y-46700000D01*
X48362500Y-45500000D02*
X48662500Y-45500000D01*
X48762500Y-45400000D02*
X48962500Y-45400000D01*
X44862500Y-46700000D02*
X44962500Y-46600000D01*
X40562500Y-50000000D02*
X43462500Y-47100000D01*
X48062500Y-45600000D02*
X48262500Y-45600000D01*
X44362500Y-46800000D02*
X44562500Y-46800000D01*
X49262500Y-45300000D02*
X49362500Y-45200000D01*
X48262500Y-45600000D02*
X48362500Y-45500000D01*
X47962500Y-45700000D02*
X48062500Y-45600000D01*
X43462500Y-47100000D02*
X43662500Y-47100000D01*
X45262500Y-46500000D02*
X45562500Y-46500000D01*
X47662500Y-45800000D02*
X47762500Y-45700000D01*
X46862500Y-46000000D02*
X47062500Y-46000000D01*
X47762500Y-45700000D02*
X47962500Y-45700000D01*
X45162500Y-46600000D02*
X45262500Y-46500000D01*
X47062500Y-46000000D02*
X47162500Y-45900000D01*
X46462500Y-46200000D02*
X46562500Y-46100000D01*
X46262500Y-46200000D02*
X46462500Y-46200000D01*
X43662500Y-47100000D02*
X43762500Y-47000000D01*
X46162500Y-46300000D02*
X46262500Y-46200000D01*
X44062500Y-46900000D02*
X44262500Y-46900000D01*
X49062500Y-45300000D02*
X49262500Y-45300000D01*
X46562500Y-46100000D02*
X46762500Y-46100000D01*
X43962500Y-47000000D02*
X44062500Y-46900000D01*
X43762500Y-47000000D02*
X43962500Y-47000000D01*
X48962500Y-45400000D02*
X49062500Y-45300000D01*
X49362500Y-45200000D02*
X49462500Y-45200000D01*
X47362500Y-45900000D02*
X47462500Y-45800000D01*
X46762500Y-46100000D02*
X46862500Y-46000000D01*
X45862500Y-46400000D02*
X45962500Y-46300000D01*
X45562500Y-46500000D02*
X45662500Y-46400000D01*
X44262500Y-46900000D02*
X44362500Y-46800000D01*
X44962500Y-46600000D02*
X45162500Y-46600000D01*
%TO.N,I2C1_SCL*%
D14*
X45850000Y-61637500D02*
X45950000Y-61637500D01*
X45550000Y-61537500D02*
X45750000Y-61537500D01*
X45750000Y-61537500D02*
X45850000Y-61637500D01*
X33750000Y-49737500D02*
X45550000Y-61537500D01*
%TO.N,12V_IN*%
D13*
X34737500Y-41735000D02*
X34837500Y-41635000D01*
X34837500Y-41635000D02*
X34937500Y-41635000D01*
X34337500Y-41835000D02*
X34437500Y-41835000D01*
X34537500Y-41735000D02*
X34737500Y-41735000D01*
X33037500Y-43135000D02*
X34337500Y-41835000D01*
X34437500Y-41835000D02*
X34537500Y-41735000D01*
%TO.N,P3V3*%
X36850000Y-42150000D02*
X40450000Y-42150000D01*
X30790000Y-41800000D02*
X30690000Y-41700000D01*
X31590000Y-42000000D02*
X31390000Y-42000000D01*
X29190000Y-41300000D02*
X29090000Y-41200000D01*
X29690000Y-41400000D02*
X29490000Y-41400000D01*
X30090000Y-41600000D02*
X29990000Y-41500000D01*
X31690000Y-42100000D02*
X31590000Y-42000000D01*
X30390000Y-41700000D02*
X30290000Y-41600000D01*
X40450000Y-42150000D02*
X40550000Y-42050000D01*
X31790000Y-42100000D02*
X31690000Y-42100000D01*
X40750000Y-42050000D02*
X40850000Y-41950000D01*
X31090000Y-41900000D02*
X30990000Y-41800000D01*
X31390000Y-42000000D02*
X31290000Y-41900000D01*
X29490000Y-41400000D02*
X29390000Y-41300000D01*
X29990000Y-41500000D02*
X29790000Y-41500000D01*
X30290000Y-41600000D02*
X30090000Y-41600000D01*
X29090000Y-41200000D02*
X28990000Y-41200000D01*
X29790000Y-41500000D02*
X29690000Y-41400000D01*
X30690000Y-41700000D02*
X30390000Y-41700000D01*
X29390000Y-41300000D02*
X29190000Y-41300000D01*
X40850000Y-41950000D02*
X40950000Y-41950000D01*
X30990000Y-41800000D02*
X30790000Y-41800000D01*
X40550000Y-42050000D02*
X40750000Y-42050000D01*
X31290000Y-41900000D02*
X31090000Y-41900000D01*
%TO.N,PCIE_DN_OUT4_P_MCIO*%
D15*
X54400000Y-42010000D02*
X54400000Y-60200000D01*
%TO.N,PCIE_DN_OUT4_N_MCIO*%
X55000000Y-42510000D02*
X55000000Y-60200000D01*
%TO.N,PCIE_DN_OUT5_P_MCIO*%
X56200000Y-43080000D02*
X56200000Y-60200000D01*
%TO.N,PCIE_DN_OUT5_N_MCIO*%
X56800000Y-43580000D02*
X56800000Y-60200000D01*
%TO.N,PCIE_REFCLK1_N*%
D16*
X131570000Y-48150000D02*
X132200000Y-48150000D01*
X131070000Y-50800000D02*
X131070000Y-48650000D01*
X133200000Y-51490000D02*
X133825000Y-51490000D01*
X132700000Y-48650000D02*
X132700000Y-50990000D01*
X132200000Y-48150000D02*
G75*
G02*
X132700000Y-48650000I0J-500000D01*
G01*
X132700000Y-50990000D02*
G75*
G03*
X133200000Y-51490000I500000J0D01*
G01*
X131070000Y-48650000D02*
G75*
G02*
X131570000Y-48150000I500000J0D01*
G01*
%TO.N,PCIE_DN_OUT6_P_MCIO*%
D15*
X61600000Y-44150000D02*
X61600000Y-60200000D01*
%TO.N,PCIE_DN_OUT6_N_MCIO*%
X62200000Y-44650000D02*
X62200000Y-60200000D01*
%TO.N,PCIE_DN_OUT7_P_MCIO*%
X63400000Y-34520000D02*
X63400000Y-60200000D01*
%TO.N,PCIE_DN_OUT7_N_MCIO*%
X64000000Y-35020000D02*
X64000000Y-60200000D01*
%TO.N,PCIE_UP4_P*%
X90100000Y-49360000D02*
X90100000Y-46290000D01*
%TO.N,PCIE_UP4_N*%
X89600000Y-50580000D02*
X89600000Y-46790000D01*
%TO.N,PCIE_UP5_P*%
X91300000Y-49360000D02*
X91300000Y-47360000D01*
%TO.N,PCIE_UP5_N*%
X90800000Y-50580000D02*
X90800000Y-47860000D01*
%TO.N,PERSTB#*%
D13*
X60200000Y-64000000D02*
X64700000Y-64000000D01*
X65200000Y-63500000D02*
X67400000Y-63500000D01*
X64700000Y-64000000D02*
X65200000Y-63500000D01*
%TO.N,PCIE_UP6_P*%
D15*
X91950000Y-50630000D02*
X91950000Y-48430000D01*
%TO.N,PCIE_UP6_N*%
X92450000Y-49410000D02*
X92450000Y-48930000D01*
%TO.N,PCIE_UP7_P*%
X93250000Y-50580000D02*
X93250000Y-49500000D01*
%TO.N,PCIE_UP7_N*%
X93750000Y-49310000D02*
X93750000Y-50000000D01*
%TO.N,PCIE_UP_OUT0_P_J2*%
X141220000Y-56834000D02*
X141220000Y-42650000D01*
%TO.N,PCIE_UP_OUT0_N_J2*%
X127010000Y-43330000D02*
X127010000Y-43250000D01*
X127023714Y-43330000D02*
X127010000Y-43330000D01*
X127010000Y-56254000D02*
X127023714Y-56254000D01*
X127010000Y-56334000D02*
X127010000Y-56254000D01*
X127023714Y-56254000D02*
X127023714Y-43330000D01*
%TO.N,PCIE_UP_OUT1_P_J2*%
X127590000Y-43930000D02*
X127590000Y-43850000D01*
X127600736Y-43930000D02*
X127590000Y-43930000D01*
X127600736Y-57703000D02*
X127600736Y-43930000D01*
X127590000Y-57703000D02*
X127600736Y-57703000D01*
X127590000Y-57783000D02*
X127590000Y-57703000D01*
%TO.N,PCIE_UP_OUT1_N_J2*%
X139480000Y-58283000D02*
X139480000Y-43850000D01*
%TO.N,PCIE_REFCLK0_N*%
D16*
X131450000Y-45400000D02*
X132927893Y-45400000D01*
X133281447Y-45546447D02*
X133825000Y-46090000D01*
X132927893Y-45400000D02*
G75*
G02*
X133281450Y-45546444I7J-500000D01*
G01*
%TO.N,PCIE_UP_OUT2_P_J2*%
D15*
X137160000Y-59732000D02*
X137160000Y-46250000D01*
%TO.N,PCIE_UP_OUT2_N_J2*%
X129330000Y-59152000D02*
X129339930Y-59152000D01*
X129330000Y-46930000D02*
X129330000Y-46850000D01*
X129339930Y-46930000D02*
X129330000Y-46930000D01*
X129330000Y-59232000D02*
X129330000Y-59152000D01*
X129339930Y-59152000D02*
X129339930Y-46930000D01*
%TO.N,PCIE_UP_OUT3_P_J2*%
X130490000Y-60681000D02*
X130490000Y-47450000D01*
%TO.N,PCIE_UP_OUT3_N_J2*%
X136014749Y-47530000D02*
X136000000Y-47530000D01*
X136000000Y-61181000D02*
X136000000Y-61101000D01*
X136014749Y-61101000D02*
X136014749Y-47530000D01*
X136000000Y-47530000D02*
X136000000Y-47450000D01*
X136000000Y-61101000D02*
X136014749Y-61101000D01*
%TO.N,PCIE_UP_OUT4_P_J2*%
X140060000Y-62630000D02*
X140060000Y-48050000D01*
%TO.N,PCIE_UP_OUT4_N_J2*%
X131670439Y-48730000D02*
X131650000Y-48730000D01*
X131670439Y-62050000D02*
X131670439Y-48730000D01*
X131650000Y-62050000D02*
X131670439Y-62050000D01*
X131650000Y-62130000D02*
X131650000Y-62050000D01*
X131650000Y-48730000D02*
X131650000Y-48650000D01*
%TO.N,PCIE_UP_OUT5_P_J2*%
X128750000Y-49330000D02*
X128750000Y-49250000D01*
X128761574Y-63499000D02*
X128761574Y-49330000D01*
X128750000Y-63499000D02*
X128761574Y-63499000D01*
X128761574Y-49330000D02*
X128750000Y-49330000D01*
X128750000Y-63579000D02*
X128750000Y-63499000D01*
%TO.N,PCIE_UP_OUT5_N_J2*%
X138900000Y-64078999D02*
X138900000Y-49250000D01*
%TO.N,PCIE_UP_OUT6_P_J2*%
X137740000Y-65528000D02*
X137740000Y-51650000D01*
%TO.N,PCIE_UP_OUT6_N_J2*%
X129910000Y-64948000D02*
X129923623Y-64948000D01*
X129910000Y-65028000D02*
X129910000Y-64948000D01*
X129910000Y-52330000D02*
X129910000Y-52250000D01*
X129923623Y-52330000D02*
X129910000Y-52330000D01*
X129923623Y-64948000D02*
X129923623Y-52330000D01*
%TO.N,PCIE_UP_OUT7_P_J2*%
X131070000Y-66397000D02*
X131084279Y-66397000D01*
X131070000Y-66477000D02*
X131070000Y-66397000D01*
X131084279Y-66397000D02*
X131084279Y-52930000D01*
X131084279Y-52930000D02*
X131070000Y-52930000D01*
X131070000Y-52930000D02*
X131070000Y-52850000D01*
%TO.N,PCIE_UP_OUT7_N_J2*%
X136580000Y-66977000D02*
X136580000Y-52850000D01*
%TO.N,PCIE_DN0_P*%
X84750000Y-56770000D02*
X84750000Y-67926000D01*
X125850000Y-67926000D02*
X125850000Y-54050000D01*
%TO.N,PCIE_DN0_N*%
X85250000Y-57990000D02*
X85250000Y-68426000D01*
X142380000Y-68426000D02*
X142380000Y-54050000D01*
%TO.N,PCIE_DN1_P*%
X85950000Y-56770000D02*
X85950000Y-69875000D01*
X141800000Y-69875000D02*
X141800000Y-54650000D01*
%TO.N,PCIE_DN1_N*%
X86450000Y-57990000D02*
X86450000Y-69375000D01*
X126430000Y-69375000D02*
X126430000Y-55250000D01*
%TO.N,PCIE_DN2_P*%
X127010000Y-70824000D02*
X127010000Y-57650000D01*
X87750000Y-58090000D02*
X87750000Y-70824000D01*
%TO.N,PCIE_DN2_N*%
X141220000Y-71324000D02*
X141220000Y-57650000D01*
X87250000Y-56820000D02*
X87250000Y-71324000D01*
%TO.N,PCIE_DN3_P*%
X140640000Y-72773000D02*
X140640000Y-58250000D01*
X88900000Y-58040000D02*
X88900000Y-72773000D01*
%TO.N,PCIE_DN3_N*%
X88400000Y-56820000D02*
X88400000Y-72273000D01*
X127590000Y-72273000D02*
X127590000Y-58850000D01*
%TO.N,PCIE_DN4_P*%
X128169999Y-73722000D02*
X128169999Y-59450000D01*
X89550000Y-56770000D02*
X89550000Y-73722000D01*
%TO.N,PCIE_DN4_N*%
X139480000Y-74222000D02*
X139480000Y-59450000D01*
X90050000Y-57990000D02*
X90050000Y-74222000D01*
%TO.N,PCIE_DN5_P*%
X90750000Y-56770000D02*
X90750000Y-75671000D01*
X138320000Y-75671000D02*
X138320000Y-60050000D01*
%TO.N,PCIE_DN5_N*%
X91250000Y-57990000D02*
X91250000Y-75171000D01*
X129330000Y-75171000D02*
X129330000Y-60650000D01*
%TO.N,PCIE_DN6_P*%
X92550000Y-58090000D02*
X92550000Y-76620000D01*
X130490000Y-76620000D02*
X130490000Y-63050000D01*
%TO.N,PCIE_DN6_N*%
X92050000Y-56820000D02*
X92050000Y-77120000D01*
X137160000Y-77120000D02*
X137160000Y-63050000D01*
%TO.N,PCIE_DN7_P*%
X136000000Y-78569000D02*
X136000000Y-63650000D01*
X93700000Y-58040000D02*
X93700000Y-78569000D01*
%TO.N,PCIE_DN7_N*%
X131650000Y-78069000D02*
X131650000Y-64250000D01*
X93200000Y-56820000D02*
X93200000Y-78069000D01*
%TO.N,DS320_STRAP_MODE*%
D13*
X88200000Y-55300000D02*
X88300000Y-55400000D01*
X85900000Y-55400000D02*
X86500000Y-55400000D01*
X87700000Y-55400000D02*
X87800000Y-55300000D01*
X88900000Y-55400000D02*
X89000000Y-55300000D01*
X103100000Y-54700000D02*
X103200000Y-54600000D01*
X90100000Y-55400000D02*
X90200000Y-55300000D01*
X87800000Y-55300000D02*
X88200000Y-55300000D01*
X88300000Y-55400000D02*
X88900000Y-55400000D01*
X103000000Y-54900000D02*
X103100000Y-54800000D01*
X103200000Y-54600000D02*
X103200000Y-54300000D01*
X83100000Y-61200000D02*
X83100000Y-56300000D01*
X86600000Y-55300000D02*
X87000000Y-55300000D01*
X89000000Y-55300000D02*
X89400000Y-55300000D01*
X102900000Y-54900000D02*
X103000000Y-54900000D01*
X91300000Y-55400000D02*
X91400000Y-55300000D01*
X82800000Y-61500000D02*
X83100000Y-61200000D01*
X86500000Y-55400000D02*
X86600000Y-55300000D01*
X83100000Y-56300000D02*
X84200000Y-55200000D01*
X84200000Y-55200000D02*
X84500000Y-55200000D01*
X103100000Y-54800000D02*
X103100000Y-54700000D01*
X91400000Y-55300000D02*
X91800000Y-55300000D01*
X93200000Y-55300000D02*
X93500000Y-55600000D01*
X101900000Y-55000000D02*
X102800000Y-55000000D01*
X91800000Y-55300000D02*
X91900000Y-55400000D01*
X101300000Y-55600000D02*
X101900000Y-55000000D01*
X85400000Y-55300000D02*
X85800000Y-55300000D01*
X89500000Y-55400000D02*
X90100000Y-55400000D01*
X102800000Y-55000000D02*
X102900000Y-54900000D01*
X90600000Y-55300000D02*
X90700000Y-55400000D01*
X104215700Y-54300000D02*
X104215700Y-52711100D01*
X85300000Y-55400000D02*
X85400000Y-55300000D01*
X84700000Y-55400000D02*
X85300000Y-55400000D01*
X92600000Y-55300000D02*
X93200000Y-55300000D01*
X91900000Y-55400000D02*
X92500000Y-55400000D01*
X89400000Y-55300000D02*
X89500000Y-55400000D01*
X87100000Y-55400000D02*
X87700000Y-55400000D01*
X93500000Y-55600000D02*
X101300000Y-55600000D01*
X87000000Y-55300000D02*
X87100000Y-55400000D01*
X84500000Y-55200000D02*
X84700000Y-55400000D01*
X92500000Y-55400000D02*
X92600000Y-55300000D01*
X90700000Y-55400000D02*
X91300000Y-55400000D01*
X90200000Y-55300000D02*
X90600000Y-55300000D01*
X85800000Y-55300000D02*
X85900000Y-55400000D01*
X103200000Y-54300000D02*
X104215700Y-54300000D01*
%TO.N,PCIE_DN_OUT1_N_MCIO*%
D15*
X60400000Y-39870000D02*
X60400000Y-51500000D01*
%TO.N,PCIE_UP1_P*%
X86500000Y-41775419D02*
X86500000Y-42101283D01*
X86500000Y-42312068D02*
X86500000Y-42637932D01*
X86710785Y-42312068D02*
X86500000Y-42312068D01*
X86500000Y-49360000D02*
X86500000Y-43711230D01*
X86500000Y-41564634D02*
X86710785Y-41775419D01*
X86500000Y-42101283D02*
X86710785Y-42312068D01*
X62200000Y-35590000D02*
X62200000Y-34500000D01*
X86500000Y-41238770D02*
X86500000Y-41564634D01*
X86500000Y-42848717D02*
X86500000Y-43174581D01*
X86500000Y-42637932D02*
X86710785Y-42848717D01*
X86500000Y-43174581D02*
X86710785Y-43385366D01*
X86710785Y-41775419D02*
X86500000Y-41775419D01*
X86710785Y-43385366D02*
X86500000Y-43385366D01*
X86710785Y-42848717D02*
X86500000Y-42848717D01*
X86500000Y-43385366D02*
X86500000Y-43711230D01*
X86500000Y-41238770D02*
X86500000Y-35590000D01*
%TO.N,PCIE_DN_OUT2_P_MCIO*%
X58000000Y-39300000D02*
X58000000Y-51500000D01*
%TO.N,PCIE_UP2_P*%
X59200000Y-45220000D02*
X59200000Y-34500000D01*
X87200000Y-50580000D02*
X87200000Y-45220000D01*
%TO.N,PCIE_DN_OUT2_N_MCIO*%
X57400000Y-38800000D02*
X57400000Y-51500000D01*
%TO.N,PCIE_UP2_N*%
X58600000Y-45720000D02*
X58600000Y-34500000D01*
X87700000Y-49360000D02*
X87700000Y-45720000D01*
%TO.N,PCIE_DN_OUT3_P_MCIO*%
X53800000Y-38230000D02*
X53800000Y-51500000D01*
%TO.N,PCIE_UP3_P*%
X55000000Y-33950000D02*
X55000000Y-34500000D01*
X88400000Y-50580000D02*
X88400000Y-33950000D01*
%TO.N,PCIE_DN_OUT3_N_MCIO*%
X53200000Y-37730000D02*
X53200000Y-51500000D01*
%TO.N,PCIE_UP3_N*%
X88900000Y-49360000D02*
X88900000Y-33450000D01*
X54400000Y-33450000D02*
X54400000Y-34500000D01*
%TO.N,DS320_STRAP_A_ADDR0_7-0*%
D13*
X96110000Y-63890000D02*
X99210000Y-60790000D01*
X99310000Y-60590000D02*
X99310000Y-60390000D01*
X99210000Y-60690000D02*
X99310000Y-60590000D01*
X99510000Y-59790000D02*
X99610000Y-59690000D01*
X99510000Y-59990000D02*
X99510000Y-59790000D01*
X99310000Y-60390000D02*
X99410000Y-60290000D01*
X99410000Y-60090000D02*
X99510000Y-59990000D01*
X99610000Y-59690000D02*
X99610000Y-59590000D01*
X99410000Y-60290000D02*
X99410000Y-60090000D01*
X99210000Y-60790000D02*
X99210000Y-60690000D01*
%TO.N,DS320_STRAP_B_ADDR0_7-0*%
X102460000Y-61590000D02*
X102560000Y-61590000D01*
X102160000Y-61690000D02*
X102360000Y-61690000D01*
X97560000Y-66090000D02*
X101860000Y-61790000D01*
X102060000Y-61790000D02*
X102160000Y-61690000D01*
X101860000Y-61790000D02*
X102060000Y-61790000D01*
X102360000Y-61690000D02*
X102460000Y-61590000D01*
%TO.N,DS320_STRAP_B_ADDR1_7-0*%
X84550000Y-51879600D02*
X92950000Y-51879600D01*
X101350000Y-59579600D02*
X101250000Y-59579600D01*
X106750000Y-55479600D02*
X103150000Y-59079600D01*
X84350000Y-51679600D02*
X84550000Y-51879600D01*
X93250000Y-52179600D02*
X102650000Y-52179600D01*
X101750000Y-59379600D02*
X101650000Y-59479600D01*
X84350000Y-50979600D02*
X84350000Y-51679600D01*
X102650000Y-52179600D02*
X102950000Y-51879600D01*
X102250000Y-59079600D02*
X101950000Y-59379600D01*
X100050000Y-60779600D02*
X99850000Y-60779600D01*
X103150000Y-59079600D02*
X102250000Y-59079600D01*
X92950000Y-51879600D02*
X93250000Y-52179600D01*
X83650000Y-50279600D02*
X84350000Y-50979600D01*
X101950000Y-59379600D02*
X101750000Y-59379600D01*
X101650000Y-59479600D02*
X101450000Y-59479600D01*
X102950000Y-51879600D02*
X103050000Y-51879600D01*
X101450000Y-59479600D02*
X101350000Y-59579600D01*
X101250000Y-59579600D02*
X100050000Y-60779600D01*
%TO.N,DS320_STRAP_A_ADDR0_15-8*%
X94300000Y-56290000D02*
X104170400Y-56290000D01*
X94300000Y-60500000D02*
X94300000Y-56290000D01*
%TO.N,DS320_STRAP_B_ADDR1_15-8*%
X109888900Y-51511100D02*
X104215700Y-51511100D01*
X94900000Y-58900000D02*
X96800000Y-58900000D01*
X97800000Y-57900000D02*
X103500000Y-57900000D01*
X103500000Y-57900000D02*
X109888900Y-51511100D01*
X96800000Y-58900000D02*
X97800000Y-57900000D01*
%TO.N,DS320_STRAP_A_ADDR1_7-0*%
X102100000Y-59740000D02*
X102200000Y-59640000D01*
X102200000Y-59640000D02*
X102400000Y-59640000D01*
X83700000Y-63640000D02*
X83700000Y-64140000D01*
X102500000Y-59540000D02*
X102600000Y-59540000D01*
X101800000Y-59840000D02*
X101900000Y-59740000D01*
X83700000Y-64140000D02*
X84200000Y-64640000D01*
X84200000Y-64640000D02*
X84200000Y-66140000D01*
X102400000Y-59640000D02*
X102500000Y-59540000D01*
X101600000Y-59840000D02*
X101800000Y-59840000D01*
X84000000Y-63340000D02*
X83700000Y-63640000D01*
X84000000Y-58240000D02*
X84000000Y-63340000D01*
X101900000Y-59740000D02*
X102100000Y-59740000D01*
X95300000Y-66140000D02*
X101600000Y-59840000D01*
%TO.N,PCIE_DN_OUT0_P_MCIO*%
D15*
X65200000Y-41440000D02*
X65200000Y-51500000D01*
%TO.N,PCIE_UP0_N*%
X84800000Y-50580000D02*
X84800000Y-37160000D01*
X64599999Y-37160000D02*
X64599999Y-34500000D01*
%TO.N,PCIE_DN_OUT0_N_MCIO*%
X64599999Y-40940000D02*
X64599999Y-51500000D01*
%TO.N,PCIE_UP0_P*%
X85300000Y-49360000D02*
X85300000Y-36660000D01*
X65200000Y-36660000D02*
X65200000Y-34500000D01*
%TO.N,PCIE_DN_OUT1_P_MCIO*%
X61000000Y-40370000D02*
X61000000Y-51500000D01*
%TO.N,PCIE_UP1_N*%
X86000000Y-50580000D02*
X86000000Y-36090000D01*
X61600000Y-36090000D02*
X61600000Y-34500000D01*
%TO.N,LED_A*%
D13*
X47350000Y-70500000D02*
X48950000Y-70500000D01*
%TD*%
D17*
X133775000Y-54900000D03*
X95475000Y-54500000D03*
X142080000Y-47100000D03*
X133775000Y-44700000D03*
X92025000Y-43000000D03*
X135475000Y-57300000D03*
X102675000Y-50980000D03*
X132650000Y-62050000D03*
X108170000Y-40540000D03*
X134430000Y-57300000D03*
X33350000Y-53200000D03*
X94275000Y-54500000D03*
X133875000Y-47100000D03*
X101050000Y-50755000D03*
X134430000Y-59100000D03*
X95050000Y-50755000D03*
X64300000Y-66750000D03*
X104170000Y-40920000D03*
X94425000Y-53000000D03*
X61900000Y-66150000D03*
X92025000Y-41000000D03*
X103651000Y-53115000D03*
X126170000Y-48140000D03*
X59500000Y-60625000D03*
X96825000Y-53000000D03*
X92025000Y-53000000D03*
X57700000Y-64775000D03*
X99075000Y-50980000D03*
X100150000Y-49135000D03*
X101475000Y-50980000D03*
X86025000Y-53000000D03*
X59500000Y-64775000D03*
X135475000Y-50100000D03*
X83430000Y-52715000D03*
X137140000Y-44700000D03*
X97450000Y-50755000D03*
X45950000Y-60395000D03*
X121580000Y-43800000D03*
X96675000Y-54500000D03*
X84675000Y-53000000D03*
X117580000Y-47220000D03*
X103651000Y-54765000D03*
X97750000Y-49135000D03*
X88425000Y-53000000D03*
X133775000Y-57300000D03*
X133875000Y-52500000D03*
X102825000Y-53000000D03*
X59500000Y-50500000D03*
X133875000Y-43500000D03*
X133830000Y-63300000D03*
X31050000Y-40765000D03*
X103400000Y-50505000D03*
X98025000Y-53000000D03*
X103176000Y-52390000D03*
X82285000Y-53590000D03*
X42050000Y-59095000D03*
X79480000Y-59050000D03*
X133875000Y-55500000D03*
X133775000Y-45300000D03*
X75770000Y-58550000D03*
X93225000Y-54500000D03*
X102550000Y-49135000D03*
X92025000Y-40000000D03*
X99225000Y-53000000D03*
X83575000Y-56516000D03*
X133775000Y-50700000D03*
X30450000Y-53550000D03*
X48050000Y-64500000D03*
X62500000Y-65950000D03*
X133775000Y-62100000D03*
X47900000Y-44300000D03*
X132650000Y-42250000D03*
X105315000Y-54790000D03*
X100275000Y-50980000D03*
X127580000Y-40380000D03*
X91450000Y-37675000D03*
X103651000Y-51315000D03*
X89625000Y-53000000D03*
X50250000Y-42300000D03*
X101350000Y-49135000D03*
X65525000Y-63950000D03*
X133775000Y-60300000D03*
X81480000Y-59050000D03*
X130560000Y-44700000D03*
X140340000Y-43500000D03*
X95625000Y-53000000D03*
X81770000Y-57550000D03*
X65525000Y-61450000D03*
X116170000Y-40160000D03*
X84574000Y-54190000D03*
X102250000Y-50755000D03*
X123580000Y-42280000D03*
X106170000Y-42440000D03*
X33150000Y-55000000D03*
X29950000Y-44965000D03*
X102675000Y-54500000D03*
X99850000Y-50755000D03*
X133775000Y-53700000D03*
X28450000Y-51900000D03*
X28250000Y-51440000D03*
X84574000Y-53590000D03*
X90825000Y-53000000D03*
X58900000Y-50700000D03*
X133775000Y-50100000D03*
X100425000Y-53000000D03*
X136125000Y-45300000D03*
X92025000Y-42000000D03*
X98950000Y-49135000D03*
X102770000Y-44700000D03*
X56500000Y-40250000D03*
X94425000Y-50980000D03*
X53475000Y-61450000D03*
X57700000Y-62275000D03*
X29350000Y-58500000D03*
X129960000Y-48300000D03*
X99075000Y-54500000D03*
X131525000Y-46500000D03*
X100275000Y-54500000D03*
X135475000Y-50700000D03*
X96250000Y-50755000D03*
X50250000Y-42800000D03*
X63700000Y-66349999D03*
X51725000Y-41000000D03*
X103651000Y-52515000D03*
X53475000Y-63950000D03*
X101625000Y-53000000D03*
X96675000Y-50980000D03*
X96550000Y-49135000D03*
X135475000Y-53700000D03*
X95475000Y-50980000D03*
X113580000Y-46460000D03*
X97875000Y-54500000D03*
X58300000Y-65150000D03*
X110770000Y-48300000D03*
X101475000Y-54500000D03*
X133875000Y-59100000D03*
X98650000Y-50755000D03*
X42450000Y-59395000D03*
X28250000Y-49840000D03*
X95350000Y-49135000D03*
X132650000Y-57350000D03*
X84055000Y-54490000D03*
X46650000Y-59600000D03*
X103750000Y-49135000D03*
X83430000Y-50865000D03*
X103651000Y-55365000D03*
X133775000Y-48300000D03*
X64900000Y-56900000D03*
X42050000Y-61195000D03*
X112170000Y-42060000D03*
X133229999Y-60300000D03*
X138060000Y-50100000D03*
X105315000Y-53590000D03*
X103400000Y-53815000D03*
X33150000Y-53650000D03*
X136125000Y-44700000D03*
X120170000Y-39400000D03*
X102100000Y-43200000D03*
X55900000Y-40650000D03*
X133875000Y-48900000D03*
X83430000Y-51515000D03*
X97875000Y-50980000D03*
X87225000Y-53000000D03*
X44600000Y-44000000D03*
X93225000Y-53000000D03*
X50850000Y-51800000D03*
X56725000Y-66500000D03*
X44750000Y-59495000D03*
X45950000Y-59095000D03*
X56725000Y-68500000D03*
X51450000Y-39800000D03*
X56725000Y-69500000D03*
X56725000Y-67500000D03*
X30850000Y-54700000D03*
X30637500Y-54250000D03*
X27750000Y-52100000D03*
X41837500Y-49550000D03*
X43750000Y-39000000D03*
X50050000Y-39000000D03*
X43637500Y-41300000D03*
X31837500Y-55800000D03*
X59800000Y-40900000D03*
X32137500Y-55450000D03*
X51250000Y-37600000D03*
X133700000Y-56300000D03*
X59750000Y-41400000D03*
X33150000Y-57100000D03*
X53050000Y-37000000D03*
X50850000Y-38400000D03*
X36050000Y-60662500D03*
X45050000Y-70462500D03*
X58900000Y-62275000D03*
D18*
X50950000Y-39000000D03*
D17*
X34250000Y-56200000D03*
X59864700Y-48439700D03*
X34250000Y-58050001D03*
X51725000Y-37000000D03*
X30650000Y-55300000D03*
D18*
X29650000Y-53500000D03*
D17*
X59850000Y-46500000D03*
X59750000Y-44700000D03*
X37750000Y-56200000D03*
X48850000Y-56600000D03*
X82866700Y-51215000D03*
X55050000Y-68500000D03*
X40850000Y-59762500D03*
X55203900Y-69922900D03*
X55050000Y-69500000D03*
X82910000Y-51790000D03*
X32650000Y-46940000D03*
X39250000Y-50740000D03*
X40110000Y-50140000D03*
X29610000Y-45840000D03*
X40562500Y-50000000D03*
X49462500Y-45200000D03*
D18*
X45950000Y-61637500D03*
X33750000Y-49737500D03*
X46450000Y-62905000D03*
D17*
X135000000Y-56137500D03*
D18*
X51500000Y-50937500D03*
D17*
X62800000Y-50437500D03*
X50950000Y-66805000D03*
D18*
X51500000Y-50437500D03*
D17*
X34937500Y-41635000D03*
X33037500Y-43135000D03*
X31790000Y-42100000D03*
X93800000Y-53975000D03*
X86600000Y-53975000D03*
X96200000Y-53975000D03*
X81000000Y-60600000D03*
X95000000Y-53975000D03*
D18*
X42800000Y-39000000D03*
D17*
X104170000Y-55690000D03*
X85400000Y-53975000D03*
X88275000Y-54000000D03*
X90650000Y-42275000D03*
X90200000Y-53975000D03*
X98125000Y-54000000D03*
X100525000Y-54000000D03*
X94525000Y-54000000D03*
X102200000Y-53975000D03*
X89975000Y-41000000D03*
X93800000Y-53525000D03*
X90825000Y-54000000D03*
X97400000Y-53975000D03*
X99325000Y-54000000D03*
X98600000Y-53975000D03*
X104690000Y-55990000D03*
X28990000Y-41200000D03*
X94500000Y-64700000D03*
X89775000Y-38500000D03*
X89975000Y-40000000D03*
X101000000Y-53975000D03*
D18*
X36700000Y-34600000D03*
D17*
X92600000Y-53525000D03*
X91875000Y-54000000D03*
X40950000Y-41950000D03*
X85875000Y-54000000D03*
X101725000Y-54000000D03*
X87800000Y-53975000D03*
X99800000Y-53975000D03*
X92600000Y-53975000D03*
X87225000Y-54000000D03*
X90650000Y-41275000D03*
X89000000Y-53975000D03*
X36850000Y-42150000D03*
X89625000Y-54000000D03*
X91400000Y-53975000D03*
X95725000Y-54000000D03*
X96925000Y-54000000D03*
X54400000Y-60200000D03*
X89100000Y-52366000D03*
X54400000Y-42010000D03*
X89650000Y-51423000D03*
X55000000Y-60200000D03*
X55000000Y-42510000D03*
X56200000Y-60200000D03*
X90300000Y-52366000D03*
X56200000Y-43080000D03*
X90850000Y-51423000D03*
X56800000Y-60200000D03*
X56800000Y-43580000D03*
X131070000Y-50800000D03*
X133824999Y-51490000D03*
X91500000Y-52366000D03*
X61600000Y-60200000D03*
X61600000Y-44150000D03*
X62200000Y-60200000D03*
X92050000Y-51423000D03*
X62200000Y-44650000D03*
X63400000Y-60200000D03*
X92700000Y-52366000D03*
X63400000Y-34520000D03*
X64000000Y-60200000D03*
X93700000Y-51673000D03*
X64000000Y-35020000D03*
X54400000Y-65000000D03*
X90100000Y-49360000D03*
X90100000Y-46290000D03*
X89600000Y-50580000D03*
X55000000Y-65000000D03*
X89600000Y-46790000D03*
X91300000Y-49360000D03*
X56200000Y-65000000D03*
X91300000Y-47360000D03*
X90800000Y-50580000D03*
X56800000Y-65000000D03*
X90800000Y-47860000D03*
X60200000Y-64000000D03*
X135000000Y-62100000D03*
X67400000Y-63500000D03*
X61600000Y-65000000D03*
X91950000Y-50630000D03*
X91950000Y-48430000D03*
X62200000Y-65000000D03*
X92450000Y-49410000D03*
X92450000Y-48930000D03*
X93250000Y-50580000D03*
X63400000Y-65000000D03*
X93250000Y-49500000D03*
X93750000Y-49310000D03*
X64000000Y-65000000D03*
X93750000Y-50000000D03*
X47400000Y-50900000D03*
X53930800Y-37016100D03*
X141220000Y-42650000D03*
X84850000Y-54880000D03*
X141220000Y-56834000D03*
X127010000Y-43250000D03*
X84350000Y-55723000D03*
X127010000Y-56334000D03*
X86050000Y-54880000D03*
X127590000Y-43850000D03*
X127590000Y-57783000D03*
X139480000Y-43850000D03*
X85500000Y-55823000D03*
X139480000Y-58283000D03*
X131449999Y-45400000D03*
X133824999Y-46090000D03*
X137160000Y-46250000D03*
X87250000Y-54880000D03*
X137160000Y-59732000D03*
X86700000Y-55823000D03*
X129330000Y-46850000D03*
X129330000Y-59232000D03*
X88450000Y-54880000D03*
X130490000Y-47450000D03*
X130490000Y-60681000D03*
X136000000Y-47450000D03*
X87900000Y-55823000D03*
X136000000Y-61181000D03*
X140060000Y-48050000D03*
X89650000Y-54880000D03*
X140060000Y-62630000D03*
X89100000Y-55823000D03*
X131650000Y-48650000D03*
X131650000Y-62130000D03*
X128750000Y-49250000D03*
X90850000Y-54880000D03*
X128750000Y-63579000D03*
X90300000Y-55823000D03*
X138900000Y-49250000D03*
X138900000Y-64078999D03*
X92050000Y-54880000D03*
X137740000Y-51650000D03*
X137740000Y-65528000D03*
X129910000Y-52250000D03*
X91500000Y-55823000D03*
X129910000Y-65028000D03*
X131070000Y-52850000D03*
X93700000Y-55130000D03*
X131070000Y-66477000D03*
X136580000Y-52850000D03*
X92700000Y-55823000D03*
X136580000Y-66977000D03*
X84750000Y-56770000D03*
X125850000Y-54050000D03*
X125850000Y-67926000D03*
X84750000Y-67926000D03*
X85250000Y-57990000D03*
X142380000Y-54050000D03*
X142380000Y-68426000D03*
X85250000Y-68426000D03*
X85950000Y-56770000D03*
X141800000Y-54650000D03*
X85950000Y-69875000D03*
X141800000Y-69875000D03*
X126430000Y-55250000D03*
X86450000Y-57990000D03*
X126430000Y-69375000D03*
X86450000Y-69375000D03*
X87750000Y-58090000D03*
X127010000Y-57650000D03*
X127010000Y-70824000D03*
X87750000Y-70824000D03*
X141220000Y-57650000D03*
X87250000Y-56820000D03*
X87250000Y-71324000D03*
X141220000Y-71324000D03*
X140640000Y-58250000D03*
X88900000Y-58040000D03*
X88900000Y-72773000D03*
X140640000Y-72773000D03*
X88400000Y-56820000D03*
X127590000Y-58850000D03*
X88400000Y-72273000D03*
X127590000Y-72273000D03*
X128169999Y-59450000D03*
X89550000Y-56770000D03*
X89550000Y-73722000D03*
X128169999Y-73722000D03*
X139480000Y-59450000D03*
X90050000Y-57990000D03*
X139480000Y-74222000D03*
X90050000Y-74222000D03*
X138320000Y-60050000D03*
X90750000Y-56770000D03*
X90750000Y-75671000D03*
X138320000Y-75671000D03*
X91250000Y-57990000D03*
X129330000Y-60650000D03*
X129330000Y-75171000D03*
X91250000Y-75171000D03*
X130490000Y-63050000D03*
X92550000Y-58090000D03*
X130490000Y-76620000D03*
X92550000Y-76620000D03*
X92050000Y-56820000D03*
X137160000Y-63050000D03*
X137160000Y-77120000D03*
X92050000Y-77120000D03*
X136000000Y-63650000D03*
X93700000Y-58040000D03*
X93700000Y-78569000D03*
X136000000Y-78569000D03*
X131650000Y-64250000D03*
X93200000Y-56820000D03*
X131650000Y-78069000D03*
X93200000Y-78069000D03*
X104215700Y-52711100D03*
X82775000Y-61550000D03*
X86050000Y-51423000D03*
X60400000Y-51500000D03*
X60400000Y-39870000D03*
X86500000Y-49360000D03*
X62200000Y-34500000D03*
X86500000Y-35590000D03*
X62200000Y-35590000D03*
X86700000Y-52366000D03*
X58000000Y-51500000D03*
X58000000Y-39300000D03*
X59200000Y-34500000D03*
X87200000Y-50580000D03*
X87200000Y-45220000D03*
X59200000Y-45220000D03*
X87250000Y-51423000D03*
X57400000Y-51500000D03*
X57400000Y-38800000D03*
X58600000Y-34500000D03*
X87700000Y-49360000D03*
X87700000Y-45720000D03*
X58600000Y-45720000D03*
X87900000Y-52366000D03*
X53800000Y-51500000D03*
X53800000Y-38230000D03*
X88400000Y-50580000D03*
X55000000Y-34500000D03*
X88400000Y-33950000D03*
X55000000Y-33950000D03*
X53200000Y-51500000D03*
X88450000Y-51423000D03*
X53200000Y-37730000D03*
X88900000Y-49360000D03*
X54400000Y-34500000D03*
X54400000Y-33450000D03*
X88900000Y-33450000D03*
X82910000Y-52990000D03*
X84210000Y-63890000D03*
X96110000Y-63890000D03*
X99610000Y-59590000D03*
X102560000Y-61590000D03*
X84160000Y-66690000D03*
X82360000Y-54490000D03*
X97560000Y-66090000D03*
X83650000Y-50279600D03*
X99850000Y-60779600D03*
X103050000Y-51879600D03*
X106750000Y-55479600D03*
X94250400Y-60525000D03*
X104170400Y-56290000D03*
X104215700Y-51511100D03*
X94889800Y-58903000D03*
X82025000Y-62190000D03*
X105125000Y-52090000D03*
X95300000Y-66140000D03*
X102600000Y-59540000D03*
X84000000Y-58240000D03*
X84200000Y-66140000D03*
X84300000Y-52366000D03*
X65200000Y-51500000D03*
X65200000Y-41440000D03*
X84800000Y-50580000D03*
X64599999Y-34500000D03*
X64599999Y-37160000D03*
X84800000Y-37160000D03*
X84850000Y-51423000D03*
X64599999Y-51500000D03*
X64599999Y-40940000D03*
X85300000Y-49360000D03*
X65200000Y-34500000D03*
X65200000Y-36660000D03*
X85300000Y-36660000D03*
X61000000Y-51500000D03*
X85500000Y-52366000D03*
X61000000Y-40370000D03*
X86000000Y-50580000D03*
X61600000Y-34500000D03*
X61600000Y-36090000D03*
X86000000Y-36090000D03*
X31550000Y-39595000D03*
X34050000Y-44195000D03*
X47350000Y-70500000D03*
X48950000Y-70500000D03*
D19*
X140800000Y-76800000D03*
X25071300Y-76928700D03*
X140928700Y-35071300D03*
X25071300Y-35071300D03*
X31750000Y-46540000D03*
X29210000Y-46540000D03*
X26670000Y-46540000D03*
X24130000Y-46540000D03*
X29210000Y-42850000D03*
X26670000Y-42850000D03*
M02*
