M48
; DRILL file KiCad 10.0.5 date 2026-09-12T00:00:00+08:00
; FORMAT={-:-/ absolute / metric / decimal}
; #@! TF.CreationDate,2026-09-12T00:00:00+08:00
; #@! TF.GenerationSoftware,Kicad,Pcbnew,10.0.5
; #@! TF.FileFunction,Plated,1,3,Blind
FMAT,2
METRIC
; #@! TA.AperFunction,Plated,Buried,ViaDrill
T1C0.200
%
G90
G05
T1
X53.2Y-51.5
X53.8Y-51.5
X54.4Y-34.5
X54.4Y-60.2
X55.0Y-34.5
X55.0Y-60.2
X56.2Y-60.2
X56.8Y-60.2
X57.4Y-51.5
X58.0Y-51.5
X58.6Y-34.5
X59.2Y-34.5
X60.4Y-51.5
X61.0Y-51.5
X61.6Y-34.5
X61.6Y-60.2
X62.2Y-34.5
X62.2Y-60.2
X63.4Y-60.2
X64.0Y-60.2
X64.6Y-34.5
X64.6Y-51.5
X65.2Y-34.5
X65.2Y-51.5
X84.75Y-56.77
X84.8Y-50.58
X85.25Y-57.99
X85.3Y-49.36
X85.95Y-56.77
X86.0Y-50.58
X86.45Y-57.99
X86.5Y-49.36
X87.2Y-50.58
X87.25Y-56.82
X87.7Y-49.36
X87.75Y-58.09
X88.4Y-50.58
X88.4Y-56.82
X88.9Y-49.36
X88.9Y-58.04
X89.55Y-56.77
X89.6Y-50.58
X90.05Y-57.99
X90.1Y-49.36
X90.75Y-56.77
X90.8Y-50.58
X91.25Y-57.99
X91.3Y-49.36
X91.95Y-50.63
X92.05Y-56.82
X92.45Y-49.41
X92.55Y-58.09
X93.2Y-56.82
X93.25Y-50.58
X93.7Y-58.04
X93.75Y-49.31
X125.85Y-54.05
X126.43Y-55.25
X127.01Y-43.25
X127.01Y-57.65
X127.59Y-43.85
X127.59Y-58.85
X128.17Y-59.45
X128.75Y-49.25
X129.33Y-46.85
X129.33Y-60.65
X129.91Y-52.25
X130.49Y-47.45
X130.49Y-63.05
X131.07Y-50.8
X131.07Y-52.85
X131.45Y-45.4
X131.65Y-48.65
X131.65Y-64.25
X133.825Y-46.09
X133.825Y-51.49
X136.0Y-47.45
X136.0Y-63.65
X136.58Y-52.85
X137.16Y-46.25
X137.16Y-63.05
X137.74Y-51.65
X138.32Y-60.05
X138.9Y-49.25
X139.48Y-43.85
X139.48Y-59.45
X140.06Y-48.05
X140.64Y-58.25
X141.22Y-42.65
X141.22Y-57.65
X141.8Y-54.65
X142.38Y-54.05
M30
