%TF.GenerationSoftware,KiCad,Pcbnew,10.0.5*%
%TF.CreationDate,2026-09-19T00:00:00+08:00*%
%TF.ProjectId,k2_v4_8L.m7t6_final,6b325f76-345f-4384-9c2e-6d3774365f66,rev?*%
%TF.SameCoordinates,Original*%
%TF.FileFunction,Copper,L4,Inr*%
%TF.FilePolarity,Positive*%
%FSLAX46Y46*%
G04 Gerber Fmt 4.6, Leading zero omitted, Abs format (unit mm)*
G04 Created by KiCad (PCBNEW 10.0.5) date 2026-09-19T00:00:00+08:00+08:00*
%MOMM*%
%LPD*%
G01*
G04 APERTURE LIST*
%TA.AperFunction,ComponentPad*%
%ADD10C,1.500000*%
%TD*%
%TA.AperFunction,ViaPad*%
%ADD11C,0.350000*%
%TD*%
%TA.AperFunction,ViaPad*%
%ADD12C,0.450000*%
%TD*%
%ADD13C,0.200000*%
%ADD14C,0.250000*%
%ADD15C,0.350000*%
G04 APERTURE END LIST*
D10*
%TO.N,SWDIO*%
%TO.C,J13*%
X31750000Y-46540000D03*
%TO.N,SWCLK_BOOT0*%
X29210000Y-46540000D03*
%TO.N,GND*%
X26670000Y-46540000D03*
%TO.N,MCU_VDD*%
X24130000Y-46540000D03*
%TD*%
%TO.N,12V_IN*%
%TO.C,J12*%
X29210000Y-42850000D03*
%TO.N,GND*%
X26670000Y-42850000D03*
%TD*%
D11*
%TO.N,GND*%
X133775000Y-54900000D03*
X95475000Y-54500000D03*
X142080000Y-47100000D03*
X133775000Y-44700000D03*
X92025000Y-43000000D03*
X135475000Y-57300000D03*
X102675000Y-50980000D03*
X132650000Y-62050000D03*
X108170000Y-40540000D03*
X134430000Y-57300000D03*
X33350000Y-53200000D03*
X94275000Y-54500000D03*
X133875000Y-47100000D03*
X101050000Y-50755000D03*
X134430000Y-59100000D03*
X95050000Y-50755000D03*
X64300000Y-66750000D03*
X104170000Y-40920000D03*
X94425000Y-53000000D03*
X61900000Y-66150000D03*
X92025000Y-41000000D03*
X103651000Y-53115000D03*
X126170000Y-48140000D03*
X59500000Y-60625000D03*
X96825000Y-53000000D03*
X92025000Y-53000000D03*
X57700000Y-64775000D03*
X99075000Y-50980000D03*
X100150000Y-49135000D03*
X101475000Y-50980000D03*
X86025000Y-53000000D03*
X59500000Y-64775000D03*
X135475000Y-50100000D03*
X83430000Y-52715000D03*
X137140000Y-44700000D03*
X97450000Y-50755000D03*
X45950000Y-60395000D03*
X121580000Y-43800000D03*
X96675000Y-54500000D03*
X84675000Y-53000000D03*
X117580000Y-47220000D03*
X103651000Y-54765000D03*
X97750000Y-49135000D03*
X88425000Y-53000000D03*
X133775000Y-57300000D03*
X133875000Y-52500000D03*
X102825000Y-53000000D03*
X59500000Y-50500000D03*
X133875000Y-43500000D03*
X133830000Y-63300000D03*
X31050000Y-40765000D03*
X103400000Y-50505000D03*
X98025000Y-53000000D03*
X103176000Y-52390000D03*
X82285000Y-53590000D03*
X79480000Y-59050000D03*
X133875000Y-55500000D03*
X133775000Y-45300000D03*
X75770000Y-58550000D03*
X93225000Y-54500000D03*
X102550000Y-49135000D03*
X92025000Y-40000000D03*
X99225000Y-53000000D03*
X83575000Y-56516000D03*
X133775000Y-50700000D03*
X30450000Y-53550000D03*
X62500000Y-65950000D03*
X133775000Y-62100000D03*
X132650000Y-42250000D03*
X105315000Y-54790000D03*
X100275000Y-50980000D03*
X127580000Y-40380000D03*
X91450000Y-37675000D03*
X103651000Y-51315000D03*
X89625000Y-53000000D03*
X101350000Y-49135000D03*
X65525000Y-63950000D03*
X133775000Y-60300000D03*
X81480000Y-59050000D03*
X130560000Y-44700000D03*
X140340000Y-43500000D03*
X95625000Y-53000000D03*
X81770000Y-57550000D03*
X65525000Y-61450000D03*
X116170000Y-40160000D03*
X84574000Y-54190000D03*
X102250000Y-50755000D03*
X123580000Y-42280000D03*
X106170000Y-42440000D03*
X33150000Y-55000000D03*
X29950000Y-44965000D03*
X102675000Y-54500000D03*
X99850000Y-50755000D03*
X133775000Y-53700000D03*
X28450000Y-51900000D03*
X84574000Y-53590000D03*
X90825000Y-53000000D03*
X58900000Y-50700000D03*
X133775000Y-50100000D03*
X100425000Y-53000000D03*
X136125000Y-45300000D03*
X92025000Y-42000000D03*
X98950000Y-49135000D03*
X102770000Y-44700000D03*
X56500000Y-40250000D03*
X94425000Y-50980000D03*
X53475000Y-61450000D03*
X57700000Y-62275000D03*
X29350000Y-58500000D03*
X129960000Y-48300000D03*
X99075000Y-54500000D03*
X131525000Y-46500000D03*
X100275000Y-54500000D03*
X135475000Y-50700000D03*
X96250000Y-50755000D03*
X63700000Y-66349999D03*
X51725000Y-41000000D03*
X103651000Y-52515000D03*
X53475000Y-63950000D03*
X101625000Y-53000000D03*
X96675000Y-50980000D03*
X96550000Y-49135000D03*
X135475000Y-53700000D03*
X95475000Y-50980000D03*
X113580000Y-46460000D03*
X97875000Y-54500000D03*
X58300000Y-65150000D03*
X110770000Y-48300000D03*
X101475000Y-54500000D03*
X133875000Y-59100000D03*
X98650000Y-50755000D03*
X42450000Y-59395000D03*
X95350000Y-49135000D03*
X132650000Y-57350000D03*
X84055000Y-54490000D03*
X103750000Y-49135000D03*
X83430000Y-50865000D03*
X103651000Y-55365000D03*
X133775000Y-48300000D03*
X64900000Y-56900000D03*
X112170000Y-42060000D03*
X133229999Y-60300000D03*
X138060000Y-50100000D03*
X105315000Y-53590000D03*
X103400000Y-53815000D03*
X33150000Y-53650000D03*
X136125000Y-44700000D03*
X120170000Y-39400000D03*
X102100000Y-43200000D03*
X55900000Y-40650000D03*
X133875000Y-48900000D03*
X83430000Y-51515000D03*
X97875000Y-50980000D03*
X87225000Y-53000000D03*
X93225000Y-53000000D03*
%TO.N,MCU_VDD*%
X56725000Y-66500000D03*
X56725000Y-68500000D03*
X56725000Y-69500000D03*
X56725000Y-67500000D03*
%TO.N,NRST*%
X30850000Y-54700000D03*
X30637500Y-54250000D03*
X27750000Y-52100000D03*
X41837500Y-49550000D03*
%TO.N,PERSTA#*%
X59800000Y-40900000D03*
X51250000Y-37600000D03*
X133700000Y-56300000D03*
X59750000Y-41400000D03*
%TO.N,PWR_BTN_OUT*%
X33150000Y-57100000D03*
X50850000Y-38400000D03*
%TO.N,P3V3_AUX*%
X58900000Y-62275000D03*
D12*
X50950000Y-39000000D03*
D11*
X34250000Y-56200000D03*
X59864700Y-48439700D03*
X34250000Y-58050001D03*
X51725000Y-37000000D03*
X30650000Y-55300000D03*
D12*
X29650000Y-53500000D03*
D11*
X59750000Y-44700000D03*
%TO.N,I2C2_SCL*%
X37750000Y-56200000D03*
X48850000Y-56600000D03*
X82866700Y-51215000D03*
X55050000Y-68500000D03*
%TO.N,SWDIO*%
X32650000Y-46940000D03*
X39250000Y-50740000D03*
%TO.N,SWCLK_BOOT0*%
X40110000Y-50140000D03*
X29610000Y-45840000D03*
D12*
%TO.N,I2C1_SDA*%
X46450000Y-62905000D03*
D11*
X135000000Y-56137500D03*
D12*
X51500000Y-50937500D03*
D11*
X62800000Y-50437500D03*
X50950000Y-66805000D03*
D12*
X51500000Y-50437500D03*
D11*
%TO.N,P3V3*%
X93800000Y-53975000D03*
X86600000Y-53975000D03*
X96200000Y-53975000D03*
X81000000Y-60600000D03*
X95000000Y-53975000D03*
D12*
X42800000Y-39000000D03*
D11*
X104170000Y-55690000D03*
X85400000Y-53975000D03*
X88275000Y-54000000D03*
X90650000Y-42275000D03*
X90200000Y-53975000D03*
X98125000Y-54000000D03*
X100525000Y-54000000D03*
X94525000Y-54000000D03*
X102200000Y-53975000D03*
X89975000Y-41000000D03*
X93800000Y-53525000D03*
X90825000Y-54000000D03*
X97400000Y-53975000D03*
X99325000Y-54000000D03*
X98600000Y-53975000D03*
X104690000Y-55990000D03*
X94500000Y-64700000D03*
X89775000Y-38500000D03*
X89975000Y-40000000D03*
X101000000Y-53975000D03*
D12*
X36700000Y-34600000D03*
D11*
X92600000Y-53525000D03*
X91875000Y-54000000D03*
X85875000Y-54000000D03*
X101725000Y-54000000D03*
X87800000Y-53975000D03*
X99800000Y-53975000D03*
X92600000Y-53975000D03*
X87225000Y-54000000D03*
X90650000Y-41275000D03*
X89000000Y-53975000D03*
X89625000Y-54000000D03*
X91400000Y-53975000D03*
X95725000Y-54000000D03*
X96925000Y-54000000D03*
%TO.N,PCIE_DN_OUT4_P_MCIO*%
X89100000Y-52366000D03*
X54400000Y-42010000D03*
%TO.N,PCIE_DN_OUT4_N_MCIO*%
X89650000Y-51423000D03*
X55000000Y-42510000D03*
%TO.N,PCIE_DN_OUT5_P_MCIO*%
X90300000Y-52366000D03*
X56200000Y-43080000D03*
%TO.N,PCIE_DN_OUT5_N_MCIO*%
X90850000Y-51423000D03*
X56800000Y-43580000D03*
%TO.N,PCIE_DN_OUT6_P_MCIO*%
X91500000Y-52366000D03*
X61600000Y-44150000D03*
%TO.N,PCIE_DN_OUT6_N_MCIO*%
X92050000Y-51423000D03*
X62200000Y-44650000D03*
%TO.N,PCIE_DN_OUT7_P_MCIO*%
X92700000Y-52366000D03*
X63400000Y-34520000D03*
%TO.N,PCIE_DN_OUT7_N_MCIO*%
X93700000Y-51673000D03*
X64000000Y-35020000D03*
%TO.N,PCIE_UP4_P*%
X54400000Y-65000000D03*
X90100000Y-46290000D03*
%TO.N,PCIE_UP4_N*%
X55000000Y-65000000D03*
X89600000Y-46790000D03*
%TO.N,PCIE_UP5_P*%
X56200000Y-65000000D03*
X91300000Y-47360000D03*
%TO.N,PCIE_UP5_N*%
X56800000Y-65000000D03*
X90800000Y-47860000D03*
%TO.N,PERSTB#*%
X135000000Y-62100000D03*
X67400000Y-63500000D03*
%TO.N,PCIE_UP6_P*%
X61600000Y-65000000D03*
X91950000Y-48430000D03*
%TO.N,PCIE_UP6_N*%
X62200000Y-65000000D03*
X92450000Y-48930000D03*
%TO.N,PCIE_UP7_P*%
X63400000Y-65000000D03*
X93250000Y-49500000D03*
%TO.N,PCIE_UP7_N*%
X64000000Y-65000000D03*
X93750000Y-50000000D03*
%TO.N,PWR_BTN_ISO*%
X47400000Y-50900000D03*
X53930800Y-37016100D03*
%TO.N,PCIE_UP_OUT0_P_J2*%
X84850000Y-54880000D03*
X141220000Y-56834000D03*
%TO.N,PCIE_UP_OUT0_N_J2*%
X84350000Y-55723000D03*
X127010000Y-56334000D03*
%TO.N,PCIE_UP_OUT1_P_J2*%
X86050000Y-54880000D03*
X127590000Y-57783000D03*
%TO.N,PCIE_UP_OUT1_N_J2*%
X85500000Y-55823000D03*
X139480000Y-58283000D03*
%TO.N,PCIE_UP_OUT2_P_J2*%
X87250000Y-54880000D03*
X137160000Y-59732000D03*
%TO.N,PCIE_UP_OUT2_N_J2*%
X86700000Y-55823000D03*
X129330000Y-59232000D03*
%TO.N,PCIE_UP_OUT3_P_J2*%
X88450000Y-54880000D03*
X130490000Y-60681000D03*
%TO.N,PCIE_UP_OUT3_N_J2*%
X87900000Y-55823000D03*
X136000000Y-61181000D03*
%TO.N,PCIE_UP_OUT4_P_J2*%
X89650000Y-54880000D03*
X140060000Y-62630000D03*
%TO.N,PCIE_UP_OUT4_N_J2*%
X89100000Y-55823000D03*
X131650000Y-62130000D03*
%TO.N,PCIE_UP_OUT5_P_J2*%
X90850000Y-54880000D03*
X128750000Y-63579000D03*
%TO.N,PCIE_UP_OUT5_N_J2*%
X90300000Y-55823000D03*
X138900000Y-64078999D03*
%TO.N,PCIE_UP_OUT6_P_J2*%
X92050000Y-54880000D03*
X137740000Y-65528000D03*
%TO.N,PCIE_UP_OUT6_N_J2*%
X91500000Y-55823000D03*
X129910000Y-65028000D03*
%TO.N,PCIE_UP_OUT7_P_J2*%
X93700000Y-55130000D03*
X131070000Y-66477000D03*
%TO.N,PCIE_UP_OUT7_N_J2*%
X92700000Y-55823000D03*
X136580000Y-66977000D03*
%TO.N,PCIE_DN0_P*%
X125850000Y-67926000D03*
X84750000Y-67926000D03*
%TO.N,PCIE_DN0_N*%
X142380000Y-68426000D03*
X85250000Y-68426000D03*
%TO.N,PCIE_DN1_P*%
X85950000Y-69875000D03*
X141800000Y-69875000D03*
%TO.N,PCIE_DN1_N*%
X126430000Y-69375000D03*
X86450000Y-69375000D03*
%TO.N,PCIE_DN2_P*%
X127010000Y-70824000D03*
X87750000Y-70824000D03*
%TO.N,PCIE_DN2_N*%
X87250000Y-71324000D03*
X141220000Y-71324000D03*
%TO.N,PCIE_DN3_P*%
X88900000Y-72773000D03*
X140640000Y-72773000D03*
%TO.N,PCIE_DN3_N*%
X88400000Y-72273000D03*
X127590000Y-72273000D03*
%TO.N,PCIE_DN4_P*%
X89550000Y-73722000D03*
X128169999Y-73722000D03*
%TO.N,PCIE_DN4_N*%
X139480000Y-74222000D03*
X90050000Y-74222000D03*
%TO.N,PCIE_DN5_P*%
X90750000Y-75671000D03*
X138320000Y-75671000D03*
%TO.N,PCIE_DN5_N*%
X129330000Y-75171000D03*
X91250000Y-75171000D03*
%TO.N,PCIE_DN6_P*%
X130490000Y-76620000D03*
X92550000Y-76620000D03*
%TO.N,PCIE_DN6_N*%
X137160000Y-77120000D03*
X92050000Y-77120000D03*
%TO.N,PCIE_DN7_P*%
X93700000Y-78569000D03*
X136000000Y-78569000D03*
%TO.N,PCIE_DN7_N*%
X131650000Y-78069000D03*
X93200000Y-78069000D03*
%TO.N,PCIE_DN_OUT1_N_MCIO*%
X86050000Y-51423000D03*
X60400000Y-39870000D03*
%TO.N,PCIE_UP1_P*%
X86500000Y-35590000D03*
X62200000Y-35590000D03*
%TO.N,PCIE_DN_OUT2_P_MCIO*%
X86700000Y-52366000D03*
X58000000Y-39300000D03*
%TO.N,PCIE_UP2_P*%
X87200000Y-45220000D03*
X59200000Y-45220000D03*
%TO.N,PCIE_DN_OUT2_N_MCIO*%
X87250000Y-51423000D03*
X57400000Y-38800000D03*
%TO.N,PCIE_UP2_N*%
X87700000Y-45720000D03*
X58600000Y-45720000D03*
%TO.N,PCIE_DN_OUT3_P_MCIO*%
X87900000Y-52366000D03*
X53800000Y-38230000D03*
%TO.N,PCIE_UP3_P*%
X88400000Y-33950000D03*
X55000000Y-33950000D03*
%TO.N,PCIE_DN_OUT3_N_MCIO*%
X88450000Y-51423000D03*
X53200000Y-37730000D03*
%TO.N,PCIE_UP3_N*%
X54400000Y-33450000D03*
X88900000Y-33450000D03*
%TO.N,DS320_STRAP_A_ADDR0_7-0*%
X82910000Y-52990000D03*
X84210000Y-63890000D03*
%TO.N,DS320_STRAP_B_ADDR0_7-0*%
X84160000Y-66690000D03*
X82360000Y-54490000D03*
%TO.N,DS320_STRAP_B_ADDR1_7-0*%
X103050000Y-51879600D03*
X106750000Y-55479600D03*
%TO.N,DS320_STRAP_B_ADDR0_15-8*%
X82025000Y-62190000D03*
X105125000Y-52090000D03*
%TO.N,PCIE_DN_OUT0_P_MCIO*%
X84300000Y-52366000D03*
X65200000Y-41440000D03*
%TO.N,PCIE_UP0_N*%
X64599999Y-37160000D03*
X84800000Y-37160000D03*
%TO.N,PCIE_DN_OUT0_N_MCIO*%
X84850000Y-51423000D03*
X64599999Y-40940000D03*
%TO.N,PCIE_UP0_P*%
X65200000Y-36660000D03*
X85300000Y-36660000D03*
%TO.N,PCIE_DN_OUT1_P_MCIO*%
X85500000Y-52366000D03*
X61000000Y-40370000D03*
%TO.N,PCIE_UP1_N*%
X61600000Y-36090000D03*
X86000000Y-36090000D03*
%TO.N,SW_U2*%
X31550000Y-39595000D03*
X34050000Y-44195000D03*
%TD*%
%TA.AperFunction,Conductor*%
%TO.N,GND*%
G36*
X53996676Y-33520185D02*
G01*
X54042431Y-33572989D01*
X54049411Y-33592405D01*
X54050089Y-33594936D01*
X54050089Y-33594937D01*
X54057127Y-33607127D01*
X54099525Y-33680562D01*
X54169438Y-33750475D01*
X54255062Y-33799910D01*
X54350565Y-33825500D01*
X54350567Y-33825500D01*
X54449432Y-33825500D01*
X54449435Y-33825500D01*
X54468408Y-33820416D01*
X54538256Y-33822079D01*
X54596119Y-33861241D01*
X54623623Y-33925470D01*
X54624500Y-33940191D01*
X54624500Y-33999435D01*
X54650090Y-34094938D01*
X54699525Y-34180562D01*
X54769438Y-34250475D01*
X54855062Y-34299910D01*
X54950565Y-34325500D01*
X54950567Y-34325500D01*
X55049432Y-34325500D01*
X55049435Y-34325500D01*
X55144938Y-34299910D01*
X55230562Y-34250475D01*
X55300475Y-34180562D01*
X55349910Y-34094938D01*
X55375500Y-33999435D01*
X55375500Y-33900565D01*
X55349910Y-33805062D01*
X55300475Y-33719438D01*
X55293218Y-33712181D01*
X55259733Y-33650858D01*
X55264717Y-33581166D01*
X55306589Y-33525233D01*
X55372053Y-33500816D01*
X55380899Y-33500500D01*
X88019101Y-33500500D01*
X88086140Y-33520185D01*
X88131895Y-33572989D01*
X88141839Y-33642147D01*
X88112814Y-33705703D01*
X88106782Y-33712181D01*
X88099526Y-33719436D01*
X88050091Y-33805059D01*
X88050091Y-33805060D01*
X88050090Y-33805062D01*
X88024500Y-33900565D01*
X88024500Y-33999435D01*
X88050090Y-34094938D01*
X88099525Y-34180562D01*
X88169438Y-34250475D01*
X88255062Y-34299910D01*
X88350565Y-34325500D01*
X88350567Y-34325500D01*
X88449432Y-34325500D01*
X88449435Y-34325500D01*
X88544938Y-34299910D01*
X88630562Y-34250475D01*
X88700475Y-34180562D01*
X88749910Y-34094938D01*
X88775500Y-33999435D01*
X88775500Y-33949500D01*
X88795185Y-33882461D01*
X88847989Y-33836706D01*
X88899500Y-33825500D01*
X88949432Y-33825500D01*
X88949435Y-33825500D01*
X89044938Y-33799910D01*
X89130562Y-33750475D01*
X89200475Y-33680562D01*
X89249910Y-33594938D01*
X89250589Y-33592405D01*
X89251743Y-33590510D01*
X89253018Y-33587434D01*
X89253497Y-33587632D01*
X89286954Y-33532745D01*
X89349802Y-33502217D01*
X89370363Y-33500500D01*
X112708754Y-33500500D01*
X112775793Y-33520185D01*
X112821548Y-33572989D01*
X112831492Y-33642147D01*
X112802467Y-33705703D01*
X112779878Y-33726075D01*
X112671637Y-33801866D01*
X112671635Y-33801867D01*
X112301867Y-34171635D01*
X112301862Y-34171642D01*
X112001925Y-34599995D01*
X112001923Y-34599999D01*
X111780923Y-35073937D01*
X111780920Y-35073943D01*
X111645576Y-35579052D01*
X111645575Y-35579060D01*
X111600000Y-36099997D01*
X111600000Y-36100002D01*
X111645575Y-36620938D01*
X111645576Y-36620946D01*
X111780920Y-37126055D01*
X111780921Y-37126057D01*
X111780922Y-37126060D01*
X112001923Y-37600000D01*
X112301866Y-38028362D01*
X112671637Y-38398133D01*
X112816440Y-38499525D01*
X113099995Y-38698073D01*
X113099997Y-38698074D01*
X113100000Y-38698076D01*
X113573939Y-38919077D01*
X114079055Y-39054423D01*
X114451158Y-39086978D01*
X114599998Y-39100000D01*
X114600000Y-39100000D01*
X114600002Y-39100000D01*
X114730236Y-39088605D01*
X115120944Y-39054423D01*
X115626060Y-38919077D01*
X116100000Y-38698076D01*
X116528362Y-38398133D01*
X116898133Y-38028362D01*
X117198076Y-37600000D01*
X117419077Y-37126060D01*
X117554423Y-36620944D01*
X117600000Y-36100000D01*
X117599768Y-36097352D01*
X117566977Y-35722546D01*
X117554423Y-35579055D01*
X117419077Y-35073939D01*
X117198076Y-34600000D01*
X117198074Y-34599997D01*
X117198073Y-34599995D01*
X117015138Y-34338737D01*
X116898133Y-34171637D01*
X116528362Y-33801866D01*
X116420118Y-33726072D01*
X116376495Y-33671498D01*
X116369303Y-33601999D01*
X116400825Y-33539645D01*
X116461055Y-33504231D01*
X116491244Y-33500500D01*
X138168997Y-33500500D01*
X138236036Y-33520185D01*
X138281791Y-33572989D01*
X138291735Y-33642147D01*
X138281379Y-33676903D01*
X138177084Y-33900567D01*
X138109623Y-34045237D01*
X138109620Y-34045243D01*
X137974276Y-34550352D01*
X137974275Y-34550360D01*
X137928700Y-35071297D01*
X137928700Y-35071302D01*
X137974275Y-35592238D01*
X137974276Y-35592246D01*
X138109620Y-36097355D01*
X138109621Y-36097357D01*
X138109622Y-36097360D01*
X138330623Y-36571300D01*
X138630566Y-36999662D01*
X139000337Y-37369433D01*
X139186001Y-37499436D01*
X139428695Y-37669373D01*
X139428697Y-37669374D01*
X139428700Y-37669376D01*
X139902639Y-37890377D01*
X140407755Y-38025723D01*
X140779858Y-38058278D01*
X140928698Y-38071300D01*
X140928700Y-38071300D01*
X140928702Y-38071300D01*
X141058936Y-38059905D01*
X141449644Y-38025723D01*
X141954760Y-37890377D01*
X142323098Y-37718618D01*
X142392173Y-37708127D01*
X142455957Y-37736647D01*
X142494196Y-37795123D01*
X142499500Y-37831001D01*
X142499500Y-67926500D01*
X142479815Y-67993539D01*
X142427011Y-68039294D01*
X142375500Y-68050500D01*
X142330565Y-68050500D01*
X142235062Y-68076090D01*
X142235060Y-68076091D01*
X142235059Y-68076091D01*
X142149436Y-68125526D01*
X142079526Y-68195436D01*
X142030091Y-68281059D01*
X142030091Y-68281060D01*
X142030090Y-68281062D01*
X142004500Y-68376565D01*
X142004500Y-68475435D01*
X142030090Y-68570938D01*
X142079525Y-68656562D01*
X142149438Y-68726475D01*
X142235062Y-68775910D01*
X142330565Y-68801500D01*
X142330567Y-68801500D01*
X142375500Y-68801500D01*
X142442539Y-68821185D01*
X142488294Y-68873989D01*
X142499500Y-68925500D01*
X142499500Y-75609759D01*
X142479815Y-75676798D01*
X142427011Y-75722553D01*
X142357853Y-75732497D01*
X142294297Y-75703472D01*
X142277124Y-75685246D01*
X142214368Y-75603461D01*
X142194265Y-75577262D01*
X142194263Y-75577260D01*
X142194260Y-75577256D01*
X142022743Y-75405739D01*
X142022736Y-75405733D01*
X141830293Y-75258067D01*
X141830292Y-75258066D01*
X141830289Y-75258064D01*
X141620212Y-75136776D01*
X141620205Y-75136773D01*
X141396104Y-75043947D01*
X141161785Y-74981161D01*
X140921289Y-74949500D01*
X140921288Y-74949500D01*
X140678712Y-74949500D01*
X140678711Y-74949500D01*
X140438214Y-74981161D01*
X140203895Y-75043947D01*
X139979794Y-75136773D01*
X139979785Y-75136777D01*
X139769706Y-75258067D01*
X139577263Y-75405733D01*
X139577256Y-75405739D01*
X139405739Y-75577256D01*
X139405733Y-75577263D01*
X139258067Y-75769706D01*
X139136777Y-75979785D01*
X139136773Y-75979794D01*
X139043947Y-76203895D01*
X138981161Y-76438214D01*
X138949500Y-76678711D01*
X138949500Y-76921288D01*
X138981161Y-77161785D01*
X139043947Y-77396104D01*
X139136773Y-77620205D01*
X139136776Y-77620212D01*
X139258064Y-77830289D01*
X139258066Y-77830292D01*
X139258067Y-77830293D01*
X139405733Y-78022736D01*
X139405739Y-78022743D01*
X139577256Y-78194260D01*
X139577263Y-78194266D01*
X139685246Y-78277124D01*
X139726449Y-78333552D01*
X139730604Y-78403298D01*
X139696392Y-78464218D01*
X139634675Y-78496971D01*
X139609760Y-78499500D01*
X136464012Y-78499500D01*
X136396973Y-78479815D01*
X136354499Y-78430797D01*
X136353974Y-78431101D01*
X136352400Y-78428375D01*
X136351218Y-78427011D01*
X136350007Y-78424230D01*
X136337922Y-78403298D01*
X136300475Y-78338438D01*
X136230562Y-78268525D01*
X136144938Y-78219090D01*
X136049435Y-78193500D01*
X135950565Y-78193500D01*
X135855062Y-78219090D01*
X135855060Y-78219091D01*
X135855059Y-78219091D01*
X135769436Y-78268526D01*
X135699527Y-78338435D01*
X135699525Y-78338437D01*
X135699525Y-78338438D01*
X135688316Y-78357853D01*
X135646026Y-78431101D01*
X135644631Y-78430295D01*
X135606708Y-78477356D01*
X135540413Y-78499421D01*
X135535988Y-78499500D01*
X132048504Y-78499500D01*
X131981465Y-78479815D01*
X131935710Y-78427011D01*
X131925766Y-78357853D01*
X131947168Y-78307037D01*
X131946411Y-78306600D01*
X131949890Y-78300573D01*
X131950124Y-78300019D01*
X131950469Y-78299567D01*
X131950475Y-78299562D01*
X131999910Y-78213938D01*
X132025500Y-78118435D01*
X132025500Y-78019565D01*
X131999910Y-77924062D01*
X131950475Y-77838438D01*
X131880562Y-77768525D01*
X131794938Y-77719090D01*
X131699435Y-77693500D01*
X131600565Y-77693500D01*
X131505062Y-77719090D01*
X131505060Y-77719091D01*
X131505059Y-77719091D01*
X131419436Y-77768526D01*
X131349526Y-77838436D01*
X131300091Y-77924059D01*
X131300091Y-77924060D01*
X131300090Y-77924062D01*
X131274500Y-78019565D01*
X131274500Y-78118435D01*
X131300090Y-78213938D01*
X131300091Y-78213939D01*
X131300091Y-78213940D01*
X131303065Y-78219091D01*
X131346485Y-78294297D01*
X131349526Y-78299563D01*
X131349876Y-78300019D01*
X131350051Y-78300472D01*
X131353589Y-78306600D01*
X131352633Y-78307151D01*
X131375067Y-78365189D01*
X131361025Y-78433633D01*
X131312208Y-78483620D01*
X131251496Y-78499500D01*
X94164012Y-78499500D01*
X94096973Y-78479815D01*
X94054499Y-78430797D01*
X94053974Y-78431101D01*
X94052400Y-78428375D01*
X94051218Y-78427011D01*
X94050007Y-78424230D01*
X94037922Y-78403298D01*
X94000475Y-78338438D01*
X93930562Y-78268525D01*
X93844938Y-78219090D01*
X93749435Y-78193500D01*
X93699500Y-78193500D01*
X93632461Y-78173815D01*
X93586706Y-78121011D01*
X93575500Y-78069500D01*
X93575500Y-78019567D01*
X93575500Y-78019565D01*
X93549910Y-77924062D01*
X93500475Y-77838438D01*
X93430562Y-77768525D01*
X93344938Y-77719090D01*
X93249435Y-77693500D01*
X93150565Y-77693500D01*
X93055062Y-77719090D01*
X93055060Y-77719091D01*
X93055059Y-77719091D01*
X92969436Y-77768526D01*
X92899526Y-77838436D01*
X92850091Y-77924059D01*
X92850091Y-77924060D01*
X92850090Y-77924062D01*
X92824500Y-78019565D01*
X92824500Y-78118435D01*
X92850090Y-78213938D01*
X92850091Y-78213939D01*
X92850091Y-78213940D01*
X92853065Y-78219091D01*
X92896485Y-78294297D01*
X92899526Y-78299563D01*
X92899876Y-78300019D01*
X92900051Y-78300472D01*
X92903589Y-78306600D01*
X92902633Y-78307151D01*
X92925067Y-78365189D01*
X92911025Y-78433633D01*
X92862208Y-78483620D01*
X92801496Y-78499500D01*
X27831002Y-78499500D01*
X27763963Y-78479815D01*
X27718208Y-78427011D01*
X27708264Y-78357853D01*
X27718620Y-78323095D01*
X27729169Y-78300472D01*
X27890377Y-77954760D01*
X28025723Y-77449644D01*
X28058888Y-77070565D01*
X91674500Y-77070565D01*
X91674500Y-77169435D01*
X91700090Y-77264938D01*
X91749525Y-77350562D01*
X91819438Y-77420475D01*
X91905062Y-77469910D01*
X92000565Y-77495500D01*
X92000567Y-77495500D01*
X92099432Y-77495500D01*
X92099435Y-77495500D01*
X92194938Y-77469910D01*
X92280562Y-77420475D01*
X92350475Y-77350562D01*
X92399910Y-77264938D01*
X92425500Y-77169435D01*
X92425500Y-77119500D01*
X92439869Y-77070565D01*
X136784500Y-77070565D01*
X136784500Y-77169435D01*
X136810090Y-77264938D01*
X136859525Y-77350562D01*
X136929438Y-77420475D01*
X137015062Y-77469910D01*
X137110565Y-77495500D01*
X137110567Y-77495500D01*
X137209432Y-77495500D01*
X137209435Y-77495500D01*
X137304938Y-77469910D01*
X137390562Y-77420475D01*
X137460475Y-77350562D01*
X137509910Y-77264938D01*
X137535500Y-77169435D01*
X137535500Y-77070565D01*
X137509910Y-76975062D01*
X137460475Y-76889438D01*
X137390562Y-76819525D01*
X137304938Y-76770090D01*
X137209435Y-76744500D01*
X137110565Y-76744500D01*
X137015062Y-76770090D01*
X137015060Y-76770091D01*
X137015059Y-76770091D01*
X136929436Y-76819526D01*
X136859526Y-76889436D01*
X136810091Y-76975059D01*
X136810091Y-76975060D01*
X136810090Y-76975062D01*
X136784500Y-77070565D01*
X92439869Y-77070565D01*
X92445185Y-77052461D01*
X92497989Y-77006706D01*
X92549500Y-76995500D01*
X92599432Y-76995500D01*
X92599435Y-76995500D01*
X92694938Y-76969910D01*
X92780562Y-76920475D01*
X92850475Y-76850562D01*
X92899910Y-76764938D01*
X92925500Y-76669435D01*
X92925500Y-76570565D01*
X130114500Y-76570565D01*
X130114500Y-76669435D01*
X130140090Y-76764938D01*
X130140091Y-76764939D01*
X130140091Y-76764940D01*
X130143065Y-76770091D01*
X130189525Y-76850562D01*
X130259438Y-76920475D01*
X130345062Y-76969910D01*
X130440565Y-76995500D01*
X130440567Y-76995500D01*
X130539432Y-76995500D01*
X130539435Y-76995500D01*
X130634938Y-76969910D01*
X130720562Y-76920475D01*
X130790475Y-76850562D01*
X130839910Y-76764938D01*
X130865500Y-76669435D01*
X130865500Y-76570565D01*
X130839910Y-76475062D01*
X130790475Y-76389438D01*
X130720562Y-76319525D01*
X130634938Y-76270090D01*
X130539435Y-76244500D01*
X130440565Y-76244500D01*
X130345062Y-76270090D01*
X130345060Y-76270091D01*
X130345059Y-76270091D01*
X130259436Y-76319526D01*
X130189526Y-76389436D01*
X130140091Y-76475059D01*
X130140091Y-76475060D01*
X130140090Y-76475062D01*
X130114500Y-76570565D01*
X92925500Y-76570565D01*
X92899910Y-76475062D01*
X92850475Y-76389438D01*
X92780562Y-76319525D01*
X92694938Y-76270090D01*
X92599435Y-76244500D01*
X92500565Y-76244500D01*
X92405062Y-76270090D01*
X92405060Y-76270091D01*
X92405059Y-76270091D01*
X92319436Y-76319526D01*
X92249526Y-76389436D01*
X92200091Y-76475059D01*
X92200091Y-76475060D01*
X92200090Y-76475062D01*
X92174500Y-76570565D01*
X92174500Y-76570567D01*
X92174500Y-76620500D01*
X92154815Y-76687539D01*
X92102011Y-76733294D01*
X92050500Y-76744500D01*
X92000565Y-76744500D01*
X91905062Y-76770090D01*
X91905060Y-76770091D01*
X91905059Y-76770091D01*
X91819436Y-76819526D01*
X91749526Y-76889436D01*
X91700091Y-76975059D01*
X91700091Y-76975060D01*
X91700090Y-76975062D01*
X91674500Y-77070565D01*
X28058888Y-77070565D01*
X28071300Y-76928700D01*
X28070580Y-76920475D01*
X28056973Y-76764938D01*
X28025723Y-76407755D01*
X27890377Y-75902639D01*
X27759310Y-75621565D01*
X90374500Y-75621565D01*
X90374500Y-75720435D01*
X90400090Y-75815938D01*
X90449525Y-75901562D01*
X90519438Y-75971475D01*
X90605062Y-76020910D01*
X90700565Y-76046500D01*
X90700567Y-76046500D01*
X90799432Y-76046500D01*
X90799435Y-76046500D01*
X90894938Y-76020910D01*
X90980562Y-75971475D01*
X91050475Y-75901562D01*
X91099910Y-75815938D01*
X91125500Y-75720435D01*
X91125500Y-75670500D01*
X91139869Y-75621565D01*
X137944500Y-75621565D01*
X137944500Y-75720435D01*
X137970090Y-75815938D01*
X138019525Y-75901562D01*
X138089438Y-75971475D01*
X138175062Y-76020910D01*
X138270565Y-76046500D01*
X138270567Y-76046500D01*
X138369432Y-76046500D01*
X138369435Y-76046500D01*
X138464938Y-76020910D01*
X138550562Y-75971475D01*
X138620475Y-75901562D01*
X138669910Y-75815938D01*
X138695500Y-75720435D01*
X138695500Y-75621565D01*
X138669910Y-75526062D01*
X138620475Y-75440438D01*
X138550562Y-75370525D01*
X138464938Y-75321090D01*
X138369435Y-75295500D01*
X138270565Y-75295500D01*
X138175062Y-75321090D01*
X138175060Y-75321091D01*
X138175059Y-75321091D01*
X138089436Y-75370526D01*
X138019526Y-75440436D01*
X137970091Y-75526059D01*
X137970091Y-75526060D01*
X137970090Y-75526062D01*
X137944500Y-75621565D01*
X91139869Y-75621565D01*
X91145185Y-75603461D01*
X91197989Y-75557706D01*
X91249500Y-75546500D01*
X91299432Y-75546500D01*
X91299435Y-75546500D01*
X91394938Y-75520910D01*
X91480562Y-75471475D01*
X91550475Y-75401562D01*
X91599910Y-75315938D01*
X91625500Y-75220435D01*
X91625500Y-75121565D01*
X128954500Y-75121565D01*
X128954500Y-75220435D01*
X128980090Y-75315938D01*
X128980091Y-75315939D01*
X128980091Y-75315940D01*
X128983065Y-75321091D01*
X129029525Y-75401562D01*
X129099438Y-75471475D01*
X129185062Y-75520910D01*
X129280565Y-75546500D01*
X129280567Y-75546500D01*
X129379432Y-75546500D01*
X129379435Y-75546500D01*
X129474938Y-75520910D01*
X129560562Y-75471475D01*
X129630475Y-75401562D01*
X129679910Y-75315938D01*
X129705500Y-75220435D01*
X129705500Y-75121565D01*
X129679910Y-75026062D01*
X129630475Y-74940438D01*
X129560562Y-74870525D01*
X129474938Y-74821090D01*
X129379435Y-74795500D01*
X129280565Y-74795500D01*
X129185062Y-74821090D01*
X129185060Y-74821091D01*
X129185059Y-74821091D01*
X129099436Y-74870526D01*
X129029526Y-74940436D01*
X128980091Y-75026059D01*
X128980091Y-75026060D01*
X128980090Y-75026062D01*
X128954500Y-75121565D01*
X91625500Y-75121565D01*
X91599910Y-75026062D01*
X91550475Y-74940438D01*
X91480562Y-74870525D01*
X91394938Y-74821090D01*
X91299435Y-74795500D01*
X91200565Y-74795500D01*
X91105062Y-74821090D01*
X91105060Y-74821091D01*
X91105059Y-74821091D01*
X91019436Y-74870526D01*
X90949526Y-74940436D01*
X90900091Y-75026059D01*
X90900091Y-75026060D01*
X90900090Y-75026062D01*
X90874500Y-75121565D01*
X90874500Y-75121567D01*
X90874500Y-75171500D01*
X90854815Y-75238539D01*
X90802011Y-75284294D01*
X90750500Y-75295500D01*
X90700565Y-75295500D01*
X90605062Y-75321090D01*
X90605060Y-75321091D01*
X90605059Y-75321091D01*
X90519436Y-75370526D01*
X90449526Y-75440436D01*
X90400091Y-75526059D01*
X90400091Y-75526060D01*
X90400090Y-75526062D01*
X90374500Y-75621565D01*
X27759310Y-75621565D01*
X27669376Y-75428700D01*
X27669374Y-75428697D01*
X27669373Y-75428695D01*
X27464969Y-75136777D01*
X27369433Y-75000337D01*
X26999662Y-74630566D01*
X26571300Y-74330623D01*
X26097360Y-74109622D01*
X26097357Y-74109621D01*
X26097355Y-74109620D01*
X25592246Y-73974276D01*
X25592238Y-73974275D01*
X25071302Y-73928700D01*
X25071298Y-73928700D01*
X24550360Y-73974275D01*
X24550352Y-73974276D01*
X24045243Y-74109620D01*
X24045232Y-74109624D01*
X23676904Y-74281378D01*
X23607827Y-74291870D01*
X23544043Y-74263350D01*
X23505804Y-74204873D01*
X23500500Y-74168996D01*
X23500500Y-73672565D01*
X89174500Y-73672565D01*
X89174500Y-73771435D01*
X89200090Y-73866938D01*
X89200091Y-73866939D01*
X89200091Y-73866940D01*
X89203065Y-73872091D01*
X89249525Y-73952562D01*
X89319438Y-74022475D01*
X89405062Y-74071910D01*
X89500565Y-74097500D01*
X89500567Y-74097500D01*
X89550500Y-74097500D01*
X89617539Y-74117185D01*
X89663294Y-74169989D01*
X89674500Y-74221500D01*
X89674500Y-74271435D01*
X89700090Y-74366938D01*
X89749525Y-74452562D01*
X89819438Y-74522475D01*
X89905062Y-74571910D01*
X90000565Y-74597500D01*
X90000567Y-74597500D01*
X90099432Y-74597500D01*
X90099435Y-74597500D01*
X90194938Y-74571910D01*
X90280562Y-74522475D01*
X90350475Y-74452562D01*
X90399910Y-74366938D01*
X90425500Y-74271435D01*
X90425500Y-74172565D01*
X139104500Y-74172565D01*
X139104500Y-74271435D01*
X139130090Y-74366938D01*
X139179525Y-74452562D01*
X139249438Y-74522475D01*
X139335062Y-74571910D01*
X139430565Y-74597500D01*
X139430567Y-74597500D01*
X139529432Y-74597500D01*
X139529435Y-74597500D01*
X139624938Y-74571910D01*
X139710562Y-74522475D01*
X139780475Y-74452562D01*
X139829910Y-74366938D01*
X139855500Y-74271435D01*
X139855500Y-74172565D01*
X139829910Y-74077062D01*
X139780475Y-73991438D01*
X139710562Y-73921525D01*
X139624938Y-73872090D01*
X139529435Y-73846500D01*
X139430565Y-73846500D01*
X139335062Y-73872090D01*
X139335060Y-73872091D01*
X139335059Y-73872091D01*
X139249436Y-73921526D01*
X139179526Y-73991436D01*
X139130091Y-74077059D01*
X139130091Y-74077060D01*
X139130090Y-74077062D01*
X139104500Y-74172565D01*
X90425500Y-74172565D01*
X90399910Y-74077062D01*
X90350475Y-73991438D01*
X90280562Y-73921525D01*
X90194938Y-73872090D01*
X90099435Y-73846500D01*
X90049500Y-73846500D01*
X90040814Y-73843949D01*
X90031853Y-73845238D01*
X90007812Y-73834259D01*
X89982461Y-73826815D01*
X89976533Y-73819974D01*
X89968297Y-73816213D01*
X89954007Y-73793978D01*
X89936706Y-73774011D01*
X89934418Y-73763496D01*
X89930523Y-73757435D01*
X89925500Y-73722500D01*
X89925500Y-73672567D01*
X89925500Y-73672565D01*
X127794499Y-73672565D01*
X127794499Y-73771435D01*
X127820089Y-73866938D01*
X127820090Y-73866939D01*
X127820090Y-73866940D01*
X127823064Y-73872091D01*
X127869524Y-73952562D01*
X127939437Y-74022475D01*
X128025061Y-74071910D01*
X128120564Y-74097500D01*
X128120566Y-74097500D01*
X128219431Y-74097500D01*
X128219434Y-74097500D01*
X128314937Y-74071910D01*
X128400561Y-74022475D01*
X128470474Y-73952562D01*
X128519909Y-73866938D01*
X128545499Y-73771435D01*
X128545499Y-73672565D01*
X128519909Y-73577062D01*
X128470474Y-73491438D01*
X128400561Y-73421525D01*
X128314937Y-73372090D01*
X128219434Y-73346500D01*
X128120564Y-73346500D01*
X128025061Y-73372090D01*
X128025059Y-73372091D01*
X128025058Y-73372091D01*
X127939435Y-73421526D01*
X127869525Y-73491436D01*
X127820090Y-73577059D01*
X127820090Y-73577060D01*
X127820089Y-73577062D01*
X127794499Y-73672565D01*
X89925500Y-73672565D01*
X89899910Y-73577062D01*
X89850475Y-73491438D01*
X89780562Y-73421525D01*
X89694938Y-73372090D01*
X89599435Y-73346500D01*
X89500565Y-73346500D01*
X89405062Y-73372090D01*
X89405060Y-73372091D01*
X89405059Y-73372091D01*
X89319436Y-73421526D01*
X89249526Y-73491436D01*
X89200091Y-73577059D01*
X89200091Y-73577060D01*
X89200090Y-73577062D01*
X89174500Y-73672565D01*
X23500500Y-73672565D01*
X23500500Y-72223565D01*
X88024500Y-72223565D01*
X88024500Y-72322435D01*
X88050090Y-72417938D01*
X88050091Y-72417939D01*
X88050091Y-72417940D01*
X88053065Y-72423091D01*
X88099525Y-72503562D01*
X88169438Y-72573475D01*
X88255062Y-72622910D01*
X88350565Y-72648500D01*
X88350567Y-72648500D01*
X88400500Y-72648500D01*
X88467539Y-72668185D01*
X88513294Y-72720989D01*
X88524500Y-72772500D01*
X88524500Y-72822435D01*
X88550090Y-72917938D01*
X88599525Y-73003562D01*
X88669438Y-73073475D01*
X88755062Y-73122910D01*
X88850565Y-73148500D01*
X88850567Y-73148500D01*
X88949432Y-73148500D01*
X88949435Y-73148500D01*
X89044938Y-73122910D01*
X89130562Y-73073475D01*
X89200475Y-73003562D01*
X89249910Y-72917938D01*
X89275500Y-72822435D01*
X89275500Y-72723565D01*
X140264500Y-72723565D01*
X140264500Y-72822435D01*
X140290090Y-72917938D01*
X140339525Y-73003562D01*
X140409438Y-73073475D01*
X140495062Y-73122910D01*
X140590565Y-73148500D01*
X140590567Y-73148500D01*
X140689432Y-73148500D01*
X140689435Y-73148500D01*
X140784938Y-73122910D01*
X140870562Y-73073475D01*
X140940475Y-73003562D01*
X140989910Y-72917938D01*
X141015500Y-72822435D01*
X141015500Y-72723565D01*
X140989910Y-72628062D01*
X140940475Y-72542438D01*
X140870562Y-72472525D01*
X140784938Y-72423090D01*
X140689435Y-72397500D01*
X140590565Y-72397500D01*
X140495062Y-72423090D01*
X140495060Y-72423091D01*
X140495059Y-72423091D01*
X140409436Y-72472526D01*
X140339526Y-72542436D01*
X140290091Y-72628059D01*
X140290091Y-72628060D01*
X140290090Y-72628062D01*
X140264500Y-72723565D01*
X89275500Y-72723565D01*
X89249910Y-72628062D01*
X89200475Y-72542438D01*
X89130562Y-72472525D01*
X89044938Y-72423090D01*
X88949435Y-72397500D01*
X88899500Y-72397500D01*
X88890814Y-72394949D01*
X88881853Y-72396238D01*
X88857812Y-72385259D01*
X88832461Y-72377815D01*
X88826533Y-72370974D01*
X88818297Y-72367213D01*
X88804007Y-72344978D01*
X88786706Y-72325011D01*
X88784418Y-72314496D01*
X88780523Y-72308435D01*
X88775500Y-72273500D01*
X88775500Y-72223567D01*
X88775500Y-72223565D01*
X127214500Y-72223565D01*
X127214500Y-72322435D01*
X127240090Y-72417938D01*
X127240091Y-72417939D01*
X127240091Y-72417940D01*
X127243065Y-72423091D01*
X127289525Y-72503562D01*
X127359438Y-72573475D01*
X127445062Y-72622910D01*
X127540565Y-72648500D01*
X127540567Y-72648500D01*
X127639432Y-72648500D01*
X127639435Y-72648500D01*
X127734938Y-72622910D01*
X127820562Y-72573475D01*
X127890475Y-72503562D01*
X127939910Y-72417938D01*
X127965500Y-72322435D01*
X127965500Y-72223565D01*
X127939910Y-72128062D01*
X127890475Y-72042438D01*
X127820562Y-71972525D01*
X127734938Y-71923090D01*
X127639435Y-71897500D01*
X127540565Y-71897500D01*
X127445062Y-71923090D01*
X127445060Y-71923091D01*
X127445059Y-71923091D01*
X127359436Y-71972526D01*
X127289526Y-72042436D01*
X127240091Y-72128059D01*
X127240091Y-72128060D01*
X127240090Y-72128062D01*
X127214500Y-72223565D01*
X88775500Y-72223565D01*
X88749910Y-72128062D01*
X88700475Y-72042438D01*
X88630562Y-71972525D01*
X88544938Y-71923090D01*
X88449435Y-71897500D01*
X88350565Y-71897500D01*
X88255062Y-71923090D01*
X88255060Y-71923091D01*
X88255059Y-71923091D01*
X88169436Y-71972526D01*
X88099526Y-72042436D01*
X88050091Y-72128059D01*
X88050091Y-72128060D01*
X88050090Y-72128062D01*
X88024500Y-72223565D01*
X23500500Y-72223565D01*
X23500500Y-71274565D01*
X86874500Y-71274565D01*
X86874500Y-71373435D01*
X86900090Y-71468938D01*
X86949525Y-71554562D01*
X87019438Y-71624475D01*
X87105062Y-71673910D01*
X87200565Y-71699500D01*
X87200567Y-71699500D01*
X87299432Y-71699500D01*
X87299435Y-71699500D01*
X87394938Y-71673910D01*
X87480562Y-71624475D01*
X87550475Y-71554562D01*
X87599910Y-71468938D01*
X87625500Y-71373435D01*
X87625500Y-71323500D01*
X87639869Y-71274565D01*
X140844500Y-71274565D01*
X140844500Y-71373435D01*
X140870090Y-71468938D01*
X140919525Y-71554562D01*
X140989438Y-71624475D01*
X141075062Y-71673910D01*
X141170565Y-71699500D01*
X141170567Y-71699500D01*
X141269432Y-71699500D01*
X141269435Y-71699500D01*
X141364938Y-71673910D01*
X141450562Y-71624475D01*
X141520475Y-71554562D01*
X141569910Y-71468938D01*
X141595500Y-71373435D01*
X141595500Y-71274565D01*
X141569910Y-71179062D01*
X141520475Y-71093438D01*
X141450562Y-71023525D01*
X141364938Y-70974090D01*
X141269435Y-70948500D01*
X141170565Y-70948500D01*
X141075062Y-70974090D01*
X141075060Y-70974091D01*
X141075059Y-70974091D01*
X140989436Y-71023526D01*
X140919526Y-71093436D01*
X140870091Y-71179059D01*
X140870091Y-71179060D01*
X140870090Y-71179062D01*
X140844500Y-71274565D01*
X87639869Y-71274565D01*
X87645185Y-71256461D01*
X87697989Y-71210706D01*
X87749500Y-71199500D01*
X87799432Y-71199500D01*
X87799435Y-71199500D01*
X87894938Y-71173910D01*
X87980562Y-71124475D01*
X88050475Y-71054562D01*
X88099910Y-70968938D01*
X88125500Y-70873435D01*
X88125500Y-70774565D01*
X126634500Y-70774565D01*
X126634500Y-70873435D01*
X126660090Y-70968938D01*
X126660091Y-70968939D01*
X126660091Y-70968940D01*
X126663065Y-70974091D01*
X126709525Y-71054562D01*
X126779438Y-71124475D01*
X126865062Y-71173910D01*
X126960565Y-71199500D01*
X126960567Y-71199500D01*
X127059432Y-71199500D01*
X127059435Y-71199500D01*
X127154938Y-71173910D01*
X127240562Y-71124475D01*
X127310475Y-71054562D01*
X127359910Y-70968938D01*
X127385500Y-70873435D01*
X127385500Y-70774565D01*
X127359910Y-70679062D01*
X127310475Y-70593438D01*
X127240562Y-70523525D01*
X127154938Y-70474090D01*
X127059435Y-70448500D01*
X126960565Y-70448500D01*
X126865062Y-70474090D01*
X126865060Y-70474091D01*
X126865059Y-70474091D01*
X126779436Y-70523526D01*
X126709526Y-70593436D01*
X126660091Y-70679059D01*
X126660091Y-70679060D01*
X126660090Y-70679062D01*
X126634500Y-70774565D01*
X88125500Y-70774565D01*
X88099910Y-70679062D01*
X88050475Y-70593438D01*
X87980562Y-70523525D01*
X87894938Y-70474090D01*
X87799435Y-70448500D01*
X87700565Y-70448500D01*
X87605062Y-70474090D01*
X87605060Y-70474091D01*
X87605059Y-70474091D01*
X87519436Y-70523526D01*
X87449526Y-70593436D01*
X87400091Y-70679059D01*
X87400091Y-70679060D01*
X87400090Y-70679062D01*
X87374500Y-70774565D01*
X87374500Y-70774567D01*
X87374500Y-70824500D01*
X87354815Y-70891539D01*
X87302011Y-70937294D01*
X87250500Y-70948500D01*
X87200565Y-70948500D01*
X87105062Y-70974090D01*
X87105060Y-70974091D01*
X87105059Y-70974091D01*
X87019436Y-71023526D01*
X86949526Y-71093436D01*
X86900091Y-71179059D01*
X86900091Y-71179060D01*
X86900090Y-71179062D01*
X86874500Y-71274565D01*
X23500500Y-71274565D01*
X23500500Y-69450565D01*
X56349500Y-69450565D01*
X56349500Y-69549435D01*
X56375090Y-69644938D01*
X56424525Y-69730562D01*
X56494438Y-69800475D01*
X56580062Y-69849910D01*
X56675565Y-69875500D01*
X56675567Y-69875500D01*
X56774432Y-69875500D01*
X56774435Y-69875500D01*
X56869938Y-69849910D01*
X56912105Y-69825565D01*
X85574500Y-69825565D01*
X85574500Y-69924435D01*
X85600090Y-70019938D01*
X85649525Y-70105562D01*
X85719438Y-70175475D01*
X85805062Y-70224910D01*
X85900565Y-70250500D01*
X85900567Y-70250500D01*
X85999432Y-70250500D01*
X85999435Y-70250500D01*
X86094938Y-70224910D01*
X86180562Y-70175475D01*
X86250475Y-70105562D01*
X86299910Y-70019938D01*
X86325500Y-69924435D01*
X86325500Y-69874500D01*
X86339869Y-69825565D01*
X141424500Y-69825565D01*
X141424500Y-69924435D01*
X141450090Y-70019938D01*
X141499525Y-70105562D01*
X141569438Y-70175475D01*
X141655062Y-70224910D01*
X141750565Y-70250500D01*
X141750567Y-70250500D01*
X141849432Y-70250500D01*
X141849435Y-70250500D01*
X141944938Y-70224910D01*
X142030562Y-70175475D01*
X142100475Y-70105562D01*
X142149910Y-70019938D01*
X142175500Y-69924435D01*
X142175500Y-69825565D01*
X142149910Y-69730062D01*
X142100475Y-69644438D01*
X142030562Y-69574525D01*
X141944938Y-69525090D01*
X141849435Y-69499500D01*
X141750565Y-69499500D01*
X141655062Y-69525090D01*
X141655060Y-69525091D01*
X141655059Y-69525091D01*
X141569436Y-69574526D01*
X141499526Y-69644436D01*
X141450091Y-69730059D01*
X141450091Y-69730060D01*
X141450090Y-69730062D01*
X141424500Y-69825565D01*
X86339869Y-69825565D01*
X86345185Y-69807461D01*
X86397989Y-69761706D01*
X86449500Y-69750500D01*
X86499432Y-69750500D01*
X86499435Y-69750500D01*
X86594938Y-69724910D01*
X86680562Y-69675475D01*
X86750475Y-69605562D01*
X86799910Y-69519938D01*
X86825500Y-69424435D01*
X86825500Y-69325565D01*
X126054500Y-69325565D01*
X126054500Y-69424435D01*
X126080090Y-69519938D01*
X126080091Y-69519939D01*
X126080091Y-69519940D01*
X126083065Y-69525091D01*
X126129525Y-69605562D01*
X126199438Y-69675475D01*
X126285062Y-69724910D01*
X126380565Y-69750500D01*
X126380567Y-69750500D01*
X126479432Y-69750500D01*
X126479435Y-69750500D01*
X126574938Y-69724910D01*
X126660562Y-69675475D01*
X126730475Y-69605562D01*
X126779910Y-69519938D01*
X126805500Y-69424435D01*
X126805500Y-69325565D01*
X126779910Y-69230062D01*
X126730475Y-69144438D01*
X126660562Y-69074525D01*
X126574938Y-69025090D01*
X126479435Y-68999500D01*
X126380565Y-68999500D01*
X126285062Y-69025090D01*
X126285060Y-69025091D01*
X126285059Y-69025091D01*
X126199436Y-69074526D01*
X126129526Y-69144436D01*
X126080091Y-69230059D01*
X126080091Y-69230060D01*
X126080090Y-69230062D01*
X126054500Y-69325565D01*
X86825500Y-69325565D01*
X86799910Y-69230062D01*
X86750475Y-69144438D01*
X86680562Y-69074525D01*
X86594938Y-69025090D01*
X86499435Y-68999500D01*
X86400565Y-68999500D01*
X86305062Y-69025090D01*
X86305060Y-69025091D01*
X86305059Y-69025091D01*
X86219436Y-69074526D01*
X86149526Y-69144436D01*
X86100091Y-69230059D01*
X86100091Y-69230060D01*
X86100090Y-69230062D01*
X86074500Y-69325565D01*
X86074500Y-69325567D01*
X86074500Y-69375500D01*
X86054815Y-69442539D01*
X86002011Y-69488294D01*
X85950500Y-69499500D01*
X85900565Y-69499500D01*
X85805062Y-69525090D01*
X85805060Y-69525091D01*
X85805059Y-69525091D01*
X85719436Y-69574526D01*
X85649526Y-69644436D01*
X85600091Y-69730059D01*
X85600091Y-69730060D01*
X85600090Y-69730062D01*
X85574500Y-69825565D01*
X56912105Y-69825565D01*
X56955562Y-69800475D01*
X57025475Y-69730562D01*
X57074910Y-69644938D01*
X57100500Y-69549435D01*
X57100500Y-69450565D01*
X57074910Y-69355062D01*
X57025475Y-69269438D01*
X56955562Y-69199525D01*
X56869938Y-69150090D01*
X56774435Y-69124500D01*
X56675565Y-69124500D01*
X56580062Y-69150090D01*
X56580060Y-69150091D01*
X56580059Y-69150091D01*
X56494436Y-69199526D01*
X56424526Y-69269436D01*
X56375091Y-69355059D01*
X56375091Y-69355060D01*
X56375090Y-69355062D01*
X56349500Y-69450565D01*
X23500500Y-69450565D01*
X23500500Y-68450565D01*
X54674500Y-68450565D01*
X54674500Y-68549435D01*
X54700090Y-68644938D01*
X54749525Y-68730562D01*
X54819438Y-68800475D01*
X54905062Y-68849910D01*
X55000565Y-68875500D01*
X55000567Y-68875500D01*
X55099432Y-68875500D01*
X55099435Y-68875500D01*
X55194938Y-68849910D01*
X55280562Y-68800475D01*
X55350475Y-68730562D01*
X55399910Y-68644938D01*
X55425500Y-68549435D01*
X55425500Y-68450565D01*
X56349500Y-68450565D01*
X56349500Y-68549435D01*
X56375090Y-68644938D01*
X56424525Y-68730562D01*
X56494438Y-68800475D01*
X56580062Y-68849910D01*
X56675565Y-68875500D01*
X56675567Y-68875500D01*
X56774432Y-68875500D01*
X56774435Y-68875500D01*
X56869938Y-68849910D01*
X56955562Y-68800475D01*
X57025475Y-68730562D01*
X57074910Y-68644938D01*
X57100500Y-68549435D01*
X57100500Y-68450565D01*
X57074910Y-68355062D01*
X57025475Y-68269438D01*
X56955562Y-68199525D01*
X56869938Y-68150090D01*
X56774435Y-68124500D01*
X56675565Y-68124500D01*
X56580062Y-68150090D01*
X56580060Y-68150091D01*
X56580059Y-68150091D01*
X56494436Y-68199526D01*
X56424526Y-68269436D01*
X56375091Y-68355059D01*
X56375091Y-68355060D01*
X56375090Y-68355062D01*
X56349500Y-68450565D01*
X55425500Y-68450565D01*
X55399910Y-68355062D01*
X55350475Y-68269438D01*
X55280562Y-68199525D01*
X55194938Y-68150090D01*
X55099435Y-68124500D01*
X55000565Y-68124500D01*
X54905062Y-68150090D01*
X54905060Y-68150091D01*
X54905059Y-68150091D01*
X54819436Y-68199526D01*
X54749526Y-68269436D01*
X54700091Y-68355059D01*
X54700091Y-68355060D01*
X54700090Y-68355062D01*
X54674500Y-68450565D01*
X23500500Y-68450565D01*
X23500500Y-67876565D01*
X84374500Y-67876565D01*
X84374500Y-67975435D01*
X84400090Y-68070938D01*
X84400091Y-68070939D01*
X84400091Y-68070940D01*
X84403065Y-68076091D01*
X84449525Y-68156562D01*
X84519438Y-68226475D01*
X84605062Y-68275910D01*
X84700565Y-68301500D01*
X84700567Y-68301500D01*
X84750500Y-68301500D01*
X84817539Y-68321185D01*
X84863294Y-68373989D01*
X84874500Y-68425500D01*
X84874500Y-68475435D01*
X84900090Y-68570938D01*
X84949525Y-68656562D01*
X85019438Y-68726475D01*
X85105062Y-68775910D01*
X85200565Y-68801500D01*
X85200567Y-68801500D01*
X85299432Y-68801500D01*
X85299435Y-68801500D01*
X85394938Y-68775910D01*
X85480562Y-68726475D01*
X85550475Y-68656562D01*
X85599910Y-68570938D01*
X85625500Y-68475435D01*
X85625500Y-68376565D01*
X85599910Y-68281062D01*
X85550475Y-68195438D01*
X85480562Y-68125525D01*
X85394938Y-68076090D01*
X85299435Y-68050500D01*
X85249500Y-68050500D01*
X85240814Y-68047949D01*
X85231853Y-68049238D01*
X85207812Y-68038259D01*
X85182461Y-68030815D01*
X85176533Y-68023974D01*
X85168297Y-68020213D01*
X85154007Y-67997978D01*
X85136706Y-67978011D01*
X85134418Y-67967496D01*
X85130523Y-67961435D01*
X85125500Y-67926500D01*
X85125500Y-67876567D01*
X85125500Y-67876565D01*
X125474500Y-67876565D01*
X125474500Y-67975435D01*
X125500090Y-68070938D01*
X125500091Y-68070939D01*
X125500091Y-68070940D01*
X125503065Y-68076091D01*
X125549525Y-68156562D01*
X125619438Y-68226475D01*
X125705062Y-68275910D01*
X125800565Y-68301500D01*
X125800567Y-68301500D01*
X125899432Y-68301500D01*
X125899435Y-68301500D01*
X125994938Y-68275910D01*
X126080562Y-68226475D01*
X126150475Y-68156562D01*
X126199910Y-68070938D01*
X126225500Y-67975435D01*
X126225500Y-67876565D01*
X126199910Y-67781062D01*
X126150475Y-67695438D01*
X126080562Y-67625525D01*
X125994938Y-67576090D01*
X125899435Y-67550500D01*
X125800565Y-67550500D01*
X125705062Y-67576090D01*
X125705060Y-67576091D01*
X125705059Y-67576091D01*
X125619436Y-67625526D01*
X125549526Y-67695436D01*
X125500091Y-67781059D01*
X125500091Y-67781060D01*
X125500090Y-67781062D01*
X125474500Y-67876565D01*
X85125500Y-67876565D01*
X85099910Y-67781062D01*
X85050475Y-67695438D01*
X84980562Y-67625525D01*
X84894938Y-67576090D01*
X84799435Y-67550500D01*
X84700565Y-67550500D01*
X84605062Y-67576090D01*
X84605060Y-67576091D01*
X84605059Y-67576091D01*
X84519436Y-67625526D01*
X84449526Y-67695436D01*
X84400091Y-67781059D01*
X84400091Y-67781060D01*
X84400090Y-67781062D01*
X84374500Y-67876565D01*
X23500500Y-67876565D01*
X23500500Y-67450565D01*
X56349500Y-67450565D01*
X56349500Y-67549435D01*
X56375090Y-67644938D01*
X56424525Y-67730562D01*
X56494438Y-67800475D01*
X56580062Y-67849910D01*
X56675565Y-67875500D01*
X56675567Y-67875500D01*
X56774432Y-67875500D01*
X56774435Y-67875500D01*
X56869938Y-67849910D01*
X56955562Y-67800475D01*
X57025475Y-67730562D01*
X57074910Y-67644938D01*
X57100500Y-67549435D01*
X57100500Y-67450565D01*
X57074910Y-67355062D01*
X57025475Y-67269438D01*
X56955562Y-67199525D01*
X56869938Y-67150090D01*
X56774435Y-67124500D01*
X56675565Y-67124500D01*
X56580062Y-67150090D01*
X56580060Y-67150091D01*
X56580059Y-67150091D01*
X56494436Y-67199526D01*
X56424526Y-67269436D01*
X56375091Y-67355059D01*
X56375091Y-67355060D01*
X56375090Y-67355062D01*
X56349500Y-67450565D01*
X23500500Y-67450565D01*
X23500500Y-66755565D01*
X50574500Y-66755565D01*
X50574500Y-66854435D01*
X50600090Y-66949938D01*
X50649525Y-67035562D01*
X50719438Y-67105475D01*
X50805062Y-67154910D01*
X50900565Y-67180500D01*
X50900567Y-67180500D01*
X50999432Y-67180500D01*
X50999435Y-67180500D01*
X51094938Y-67154910D01*
X51180562Y-67105475D01*
X51250475Y-67035562D01*
X51299910Y-66949938D01*
X51325500Y-66854435D01*
X51325500Y-66755565D01*
X51299910Y-66660062D01*
X51250475Y-66574438D01*
X51180562Y-66504525D01*
X51094938Y-66455090D01*
X51078051Y-66450565D01*
X56349500Y-66450565D01*
X56349500Y-66549435D01*
X56375090Y-66644938D01*
X56424525Y-66730562D01*
X56494438Y-66800475D01*
X56580062Y-66849910D01*
X56675565Y-66875500D01*
X56675567Y-66875500D01*
X56774432Y-66875500D01*
X56774435Y-66875500D01*
X56869938Y-66849910D01*
X56955562Y-66800475D01*
X57025475Y-66730562D01*
X57074910Y-66644938D01*
X57076082Y-66640565D01*
X83784500Y-66640565D01*
X83784500Y-66739435D01*
X83810090Y-66834938D01*
X83859525Y-66920562D01*
X83929438Y-66990475D01*
X84015062Y-67039910D01*
X84110565Y-67065500D01*
X84110567Y-67065500D01*
X84209432Y-67065500D01*
X84209435Y-67065500D01*
X84304938Y-67039910D01*
X84390562Y-66990475D01*
X84453472Y-66927565D01*
X136204500Y-66927565D01*
X136204500Y-67026435D01*
X136230090Y-67121938D01*
X136279525Y-67207562D01*
X136349438Y-67277475D01*
X136435062Y-67326910D01*
X136530565Y-67352500D01*
X136530567Y-67352500D01*
X136629432Y-67352500D01*
X136629435Y-67352500D01*
X136724938Y-67326910D01*
X136810562Y-67277475D01*
X136880475Y-67207562D01*
X136929910Y-67121938D01*
X136955500Y-67026435D01*
X136955500Y-66927565D01*
X136929910Y-66832062D01*
X136880475Y-66746438D01*
X136810562Y-66676525D01*
X136724938Y-66627090D01*
X136629435Y-66601500D01*
X136530565Y-66601500D01*
X136435062Y-66627090D01*
X136435060Y-66627091D01*
X136435059Y-66627091D01*
X136349436Y-66676526D01*
X136279526Y-66746436D01*
X136230091Y-66832059D01*
X136230091Y-66832060D01*
X136230090Y-66832062D01*
X136204500Y-66927565D01*
X84453472Y-66927565D01*
X84460475Y-66920562D01*
X84509910Y-66834938D01*
X84535500Y-66739435D01*
X84535500Y-66640565D01*
X84509910Y-66545062D01*
X84460475Y-66459438D01*
X84428602Y-66427565D01*
X130694500Y-66427565D01*
X130694500Y-66526435D01*
X130720090Y-66621938D01*
X130720091Y-66621939D01*
X130720091Y-66621940D01*
X130723065Y-66627091D01*
X130769525Y-66707562D01*
X130839438Y-66777475D01*
X130925062Y-66826910D01*
X131020565Y-66852500D01*
X131020567Y-66852500D01*
X131119432Y-66852500D01*
X131119435Y-66852500D01*
X131214938Y-66826910D01*
X131300562Y-66777475D01*
X131370475Y-66707562D01*
X131419910Y-66621938D01*
X131445500Y-66526435D01*
X131445500Y-66427565D01*
X131419910Y-66332062D01*
X131370475Y-66246438D01*
X131300562Y-66176525D01*
X131214938Y-66127090D01*
X131119435Y-66101500D01*
X131020565Y-66101500D01*
X130925062Y-66127090D01*
X130925060Y-66127091D01*
X130925059Y-66127091D01*
X130839436Y-66176526D01*
X130769526Y-66246436D01*
X130720091Y-66332059D01*
X130720091Y-66332060D01*
X130720090Y-66332062D01*
X130694500Y-66427565D01*
X84428602Y-66427565D01*
X84390562Y-66389525D01*
X84304938Y-66340090D01*
X84209435Y-66314500D01*
X84110565Y-66314500D01*
X84015062Y-66340090D01*
X84015060Y-66340091D01*
X84015059Y-66340091D01*
X83929436Y-66389526D01*
X83859526Y-66459436D01*
X83810091Y-66545059D01*
X83810091Y-66545060D01*
X83810090Y-66545062D01*
X83784500Y-66640565D01*
X57076082Y-66640565D01*
X57100500Y-66549435D01*
X57100500Y-66450565D01*
X57074910Y-66355062D01*
X57025475Y-66269438D01*
X56955562Y-66199525D01*
X56869938Y-66150090D01*
X56774435Y-66124500D01*
X56675565Y-66124500D01*
X56580062Y-66150090D01*
X56580060Y-66150091D01*
X56580059Y-66150091D01*
X56494436Y-66199526D01*
X56424526Y-66269436D01*
X56375091Y-66355059D01*
X56375091Y-66355060D01*
X56375090Y-66355062D01*
X56349500Y-66450565D01*
X51078051Y-66450565D01*
X50999435Y-66429500D01*
X50900565Y-66429500D01*
X50805062Y-66455090D01*
X50805060Y-66455091D01*
X50805059Y-66455091D01*
X50719436Y-66504526D01*
X50649526Y-66574436D01*
X50600091Y-66660059D01*
X50600091Y-66660060D01*
X50600090Y-66660062D01*
X50574500Y-66755565D01*
X23500500Y-66755565D01*
X23500500Y-65478565D01*
X137364500Y-65478565D01*
X137364500Y-65577435D01*
X137390090Y-65672938D01*
X137439525Y-65758562D01*
X137509438Y-65828475D01*
X137595062Y-65877910D01*
X137690565Y-65903500D01*
X137690567Y-65903500D01*
X137789432Y-65903500D01*
X137789435Y-65903500D01*
X137884938Y-65877910D01*
X137970562Y-65828475D01*
X138040475Y-65758562D01*
X138089910Y-65672938D01*
X138115500Y-65577435D01*
X138115500Y-65478565D01*
X138089910Y-65383062D01*
X138040475Y-65297438D01*
X137970562Y-65227525D01*
X137884938Y-65178090D01*
X137789435Y-65152500D01*
X137690565Y-65152500D01*
X137595062Y-65178090D01*
X137595060Y-65178091D01*
X137595059Y-65178091D01*
X137509436Y-65227526D01*
X137439526Y-65297436D01*
X137390091Y-65383059D01*
X137390091Y-65383060D01*
X137390090Y-65383062D01*
X137364500Y-65478565D01*
X23500500Y-65478565D01*
X23500500Y-64950565D01*
X54024500Y-64950565D01*
X54024500Y-65049435D01*
X54050090Y-65144938D01*
X54099525Y-65230562D01*
X54169438Y-65300475D01*
X54255062Y-65349910D01*
X54350565Y-65375500D01*
X54350567Y-65375500D01*
X54449432Y-65375500D01*
X54449435Y-65375500D01*
X54544938Y-65349910D01*
X54630562Y-65300475D01*
X54630563Y-65300473D01*
X54637600Y-65296411D01*
X54639321Y-65299392D01*
X54689669Y-65279922D01*
X54758116Y-65293953D01*
X54762275Y-65296626D01*
X54762400Y-65296411D01*
X54769436Y-65300473D01*
X54769438Y-65300475D01*
X54855062Y-65349910D01*
X54950565Y-65375500D01*
X54950567Y-65375500D01*
X55049432Y-65375500D01*
X55049435Y-65375500D01*
X55144938Y-65349910D01*
X55230562Y-65300475D01*
X55300475Y-65230562D01*
X55349910Y-65144938D01*
X55375500Y-65049435D01*
X55375500Y-64950565D01*
X55824500Y-64950565D01*
X55824500Y-65049435D01*
X55850090Y-65144938D01*
X55899525Y-65230562D01*
X55969438Y-65300475D01*
X56055062Y-65349910D01*
X56150565Y-65375500D01*
X56150567Y-65375500D01*
X56249432Y-65375500D01*
X56249435Y-65375500D01*
X56344938Y-65349910D01*
X56430562Y-65300475D01*
X56430563Y-65300473D01*
X56437600Y-65296411D01*
X56439321Y-65299392D01*
X56489669Y-65279922D01*
X56558116Y-65293953D01*
X56562275Y-65296626D01*
X56562400Y-65296411D01*
X56569436Y-65300473D01*
X56569438Y-65300475D01*
X56655062Y-65349910D01*
X56750565Y-65375500D01*
X56750567Y-65375500D01*
X56849432Y-65375500D01*
X56849435Y-65375500D01*
X56944938Y-65349910D01*
X57030562Y-65300475D01*
X57100475Y-65230562D01*
X57149910Y-65144938D01*
X57175500Y-65049435D01*
X57175500Y-64950565D01*
X61224500Y-64950565D01*
X61224500Y-65049435D01*
X61250090Y-65144938D01*
X61299525Y-65230562D01*
X61369438Y-65300475D01*
X61455062Y-65349910D01*
X61550565Y-65375500D01*
X61550567Y-65375500D01*
X61649432Y-65375500D01*
X61649435Y-65375500D01*
X61744938Y-65349910D01*
X61830562Y-65300475D01*
X61830563Y-65300473D01*
X61837600Y-65296411D01*
X61839321Y-65299392D01*
X61889669Y-65279922D01*
X61958116Y-65293953D01*
X61962275Y-65296626D01*
X61962400Y-65296411D01*
X61969436Y-65300473D01*
X61969438Y-65300475D01*
X62055062Y-65349910D01*
X62150565Y-65375500D01*
X62150567Y-65375500D01*
X62249432Y-65375500D01*
X62249435Y-65375500D01*
X62344938Y-65349910D01*
X62430562Y-65300475D01*
X62500475Y-65230562D01*
X62549910Y-65144938D01*
X62575500Y-65049435D01*
X62575500Y-64950565D01*
X63024500Y-64950565D01*
X63024500Y-65049435D01*
X63050090Y-65144938D01*
X63099525Y-65230562D01*
X63169438Y-65300475D01*
X63255062Y-65349910D01*
X63350565Y-65375500D01*
X63350567Y-65375500D01*
X63449432Y-65375500D01*
X63449435Y-65375500D01*
X63544938Y-65349910D01*
X63630562Y-65300475D01*
X63630563Y-65300473D01*
X63637600Y-65296411D01*
X63639321Y-65299392D01*
X63689669Y-65279922D01*
X63758116Y-65293953D01*
X63762275Y-65296626D01*
X63762400Y-65296411D01*
X63769436Y-65300473D01*
X63769438Y-65300475D01*
X63855062Y-65349910D01*
X63950565Y-65375500D01*
X63950567Y-65375500D01*
X64049432Y-65375500D01*
X64049435Y-65375500D01*
X64144938Y-65349910D01*
X64230562Y-65300475D01*
X64300475Y-65230562D01*
X64349910Y-65144938D01*
X64375500Y-65049435D01*
X64375500Y-64950565D01*
X64349910Y-64855062D01*
X64300475Y-64769438D01*
X64230562Y-64699525D01*
X64145761Y-64650565D01*
X94124500Y-64650565D01*
X94124500Y-64749435D01*
X94150090Y-64844938D01*
X94199525Y-64930562D01*
X94269438Y-65000475D01*
X94355062Y-65049910D01*
X94450565Y-65075500D01*
X94450567Y-65075500D01*
X94549432Y-65075500D01*
X94549435Y-65075500D01*
X94644938Y-65049910D01*
X94730562Y-65000475D01*
X94752472Y-64978565D01*
X129534500Y-64978565D01*
X129534500Y-65077435D01*
X129560090Y-65172938D01*
X129560091Y-65172939D01*
X129560091Y-65172940D01*
X129563065Y-65178091D01*
X129609525Y-65258562D01*
X129679438Y-65328475D01*
X129765062Y-65377910D01*
X129860565Y-65403500D01*
X129860567Y-65403500D01*
X129959432Y-65403500D01*
X129959435Y-65403500D01*
X130054938Y-65377910D01*
X130140562Y-65328475D01*
X130210475Y-65258562D01*
X130259910Y-65172938D01*
X130285500Y-65077435D01*
X130285500Y-64978565D01*
X130259910Y-64883062D01*
X130210475Y-64797438D01*
X130140562Y-64727525D01*
X130054938Y-64678090D01*
X129959435Y-64652500D01*
X129860565Y-64652500D01*
X129765062Y-64678090D01*
X129765060Y-64678091D01*
X129765059Y-64678091D01*
X129679436Y-64727526D01*
X129609526Y-64797436D01*
X129560091Y-64883059D01*
X129560091Y-64883060D01*
X129560090Y-64883062D01*
X129534500Y-64978565D01*
X94752472Y-64978565D01*
X94800475Y-64930562D01*
X94849910Y-64844938D01*
X94875500Y-64749435D01*
X94875500Y-64650565D01*
X94849910Y-64555062D01*
X94800475Y-64469438D01*
X94730562Y-64399525D01*
X94644938Y-64350090D01*
X94549435Y-64324500D01*
X94450565Y-64324500D01*
X94355062Y-64350090D01*
X94355060Y-64350091D01*
X94355059Y-64350091D01*
X94269436Y-64399526D01*
X94199526Y-64469436D01*
X94150091Y-64555059D01*
X94150091Y-64555060D01*
X94150090Y-64555062D01*
X94124500Y-64650565D01*
X64145761Y-64650565D01*
X64144938Y-64650090D01*
X64049435Y-64624500D01*
X63950565Y-64624500D01*
X63855062Y-64650090D01*
X63855060Y-64650091D01*
X63855059Y-64650091D01*
X63806563Y-64678091D01*
X63769438Y-64699525D01*
X63769436Y-64699526D01*
X63762400Y-64703589D01*
X63760693Y-64700632D01*
X63710136Y-64720093D01*
X63641712Y-64705954D01*
X63637716Y-64703386D01*
X63637600Y-64703589D01*
X63630563Y-64699526D01*
X63630562Y-64699525D01*
X63544938Y-64650090D01*
X63449435Y-64624500D01*
X63350565Y-64624500D01*
X63255062Y-64650090D01*
X63255060Y-64650091D01*
X63255059Y-64650091D01*
X63169436Y-64699526D01*
X63099526Y-64769436D01*
X63050091Y-64855059D01*
X63050091Y-64855060D01*
X63050090Y-64855062D01*
X63024500Y-64950565D01*
X62575500Y-64950565D01*
X62549910Y-64855062D01*
X62500475Y-64769438D01*
X62430562Y-64699525D01*
X62344938Y-64650090D01*
X62249435Y-64624500D01*
X62150565Y-64624500D01*
X62055062Y-64650090D01*
X62055060Y-64650091D01*
X62055059Y-64650091D01*
X62006563Y-64678091D01*
X61969438Y-64699525D01*
X61969436Y-64699526D01*
X61962400Y-64703589D01*
X61960693Y-64700632D01*
X61910136Y-64720093D01*
X61841712Y-64705954D01*
X61837716Y-64703386D01*
X61837600Y-64703589D01*
X61830563Y-64699526D01*
X61830562Y-64699525D01*
X61744938Y-64650090D01*
X61649435Y-64624500D01*
X61550565Y-64624500D01*
X61455062Y-64650090D01*
X61455060Y-64650091D01*
X61455059Y-64650091D01*
X61369436Y-64699526D01*
X61299526Y-64769436D01*
X61250091Y-64855059D01*
X61250091Y-64855060D01*
X61250090Y-64855062D01*
X61224500Y-64950565D01*
X57175500Y-64950565D01*
X57149910Y-64855062D01*
X57100475Y-64769438D01*
X57030562Y-64699525D01*
X56944938Y-64650090D01*
X56849435Y-64624500D01*
X56750565Y-64624500D01*
X56655062Y-64650090D01*
X56655060Y-64650091D01*
X56655059Y-64650091D01*
X56606563Y-64678091D01*
X56569438Y-64699525D01*
X56569436Y-64699526D01*
X56562400Y-64703589D01*
X56560693Y-64700632D01*
X56510136Y-64720093D01*
X56441712Y-64705954D01*
X56437716Y-64703386D01*
X56437600Y-64703589D01*
X56430563Y-64699526D01*
X56430562Y-64699525D01*
X56344938Y-64650090D01*
X56249435Y-64624500D01*
X56150565Y-64624500D01*
X56055062Y-64650090D01*
X56055060Y-64650091D01*
X56055059Y-64650091D01*
X55969436Y-64699526D01*
X55899526Y-64769436D01*
X55850091Y-64855059D01*
X55850091Y-64855060D01*
X55850090Y-64855062D01*
X55824500Y-64950565D01*
X55375500Y-64950565D01*
X55349910Y-64855062D01*
X55300475Y-64769438D01*
X55230562Y-64699525D01*
X55144938Y-64650090D01*
X55049435Y-64624500D01*
X54950565Y-64624500D01*
X54855062Y-64650090D01*
X54855060Y-64650091D01*
X54855059Y-64650091D01*
X54806563Y-64678091D01*
X54769438Y-64699525D01*
X54769436Y-64699526D01*
X54762400Y-64703589D01*
X54760693Y-64700632D01*
X54710136Y-64720093D01*
X54641712Y-64705954D01*
X54637716Y-64703386D01*
X54637600Y-64703589D01*
X54630563Y-64699526D01*
X54630562Y-64699525D01*
X54544938Y-64650090D01*
X54449435Y-64624500D01*
X54350565Y-64624500D01*
X54255062Y-64650090D01*
X54255060Y-64650091D01*
X54255059Y-64650091D01*
X54169436Y-64699526D01*
X54099526Y-64769436D01*
X54050091Y-64855059D01*
X54050091Y-64855060D01*
X54050090Y-64855062D01*
X54024500Y-64950565D01*
X23500500Y-64950565D01*
X23500500Y-63450565D01*
X67024500Y-63450565D01*
X67024500Y-63549435D01*
X67050090Y-63644938D01*
X67099525Y-63730562D01*
X67169438Y-63800475D01*
X67255062Y-63849910D01*
X67350565Y-63875500D01*
X67350567Y-63875500D01*
X67449432Y-63875500D01*
X67449435Y-63875500D01*
X67544938Y-63849910D01*
X67561124Y-63840565D01*
X83834500Y-63840565D01*
X83834500Y-63939435D01*
X83860090Y-64034938D01*
X83909525Y-64120562D01*
X83979438Y-64190475D01*
X84065062Y-64239910D01*
X84160565Y-64265500D01*
X84160567Y-64265500D01*
X84259432Y-64265500D01*
X84259435Y-64265500D01*
X84354938Y-64239910D01*
X84440562Y-64190475D01*
X84510475Y-64120562D01*
X84559910Y-64034938D01*
X84561350Y-64029564D01*
X138524500Y-64029564D01*
X138524500Y-64128434D01*
X138550090Y-64223937D01*
X138599525Y-64309561D01*
X138669438Y-64379474D01*
X138755062Y-64428909D01*
X138850565Y-64454499D01*
X138850567Y-64454499D01*
X138949432Y-64454499D01*
X138949435Y-64454499D01*
X139044938Y-64428909D01*
X139130562Y-64379474D01*
X139200475Y-64309561D01*
X139249910Y-64223937D01*
X139275500Y-64128434D01*
X139275500Y-64029564D01*
X139249910Y-63934061D01*
X139200475Y-63848437D01*
X139130562Y-63778524D01*
X139044938Y-63729089D01*
X138949435Y-63703499D01*
X138850565Y-63703499D01*
X138755062Y-63729089D01*
X138755060Y-63729090D01*
X138755059Y-63729090D01*
X138669436Y-63778525D01*
X138599526Y-63848435D01*
X138550091Y-63934058D01*
X138550091Y-63934059D01*
X138550090Y-63934061D01*
X138524500Y-64029564D01*
X84561350Y-64029564D01*
X84585500Y-63939435D01*
X84585500Y-63840565D01*
X84559910Y-63745062D01*
X84510475Y-63659438D01*
X84440562Y-63589525D01*
X84354938Y-63540090D01*
X84315658Y-63529565D01*
X128374500Y-63529565D01*
X128374500Y-63628435D01*
X128400090Y-63723938D01*
X128400091Y-63723939D01*
X128400091Y-63723940D01*
X128403914Y-63730562D01*
X128449525Y-63809562D01*
X128519438Y-63879475D01*
X128605062Y-63928910D01*
X128700565Y-63954500D01*
X128700567Y-63954500D01*
X128799432Y-63954500D01*
X128799435Y-63954500D01*
X128894938Y-63928910D01*
X128980562Y-63879475D01*
X129050475Y-63809562D01*
X129099910Y-63723938D01*
X129125500Y-63628435D01*
X129125500Y-63529565D01*
X129099910Y-63434062D01*
X129050475Y-63348438D01*
X128980562Y-63278525D01*
X128894938Y-63229090D01*
X128799435Y-63203500D01*
X128700565Y-63203500D01*
X128605062Y-63229090D01*
X128605060Y-63229091D01*
X128605059Y-63229091D01*
X128519436Y-63278526D01*
X128449526Y-63348436D01*
X128400091Y-63434059D01*
X128400091Y-63434060D01*
X128400090Y-63434062D01*
X128374500Y-63529565D01*
X84315658Y-63529565D01*
X84259435Y-63514500D01*
X84160565Y-63514500D01*
X84065062Y-63540090D01*
X84065060Y-63540091D01*
X84065059Y-63540091D01*
X83979436Y-63589526D01*
X83909526Y-63659436D01*
X83860091Y-63745059D01*
X83860091Y-63745060D01*
X83860090Y-63745062D01*
X83834500Y-63840565D01*
X67561124Y-63840565D01*
X67630562Y-63800475D01*
X67700475Y-63730562D01*
X67749910Y-63644938D01*
X67775500Y-63549435D01*
X67775500Y-63450565D01*
X67749910Y-63355062D01*
X67700475Y-63269438D01*
X67630562Y-63199525D01*
X67544938Y-63150090D01*
X67449435Y-63124500D01*
X67350565Y-63124500D01*
X67255062Y-63150090D01*
X67255060Y-63150091D01*
X67255059Y-63150091D01*
X67169436Y-63199526D01*
X67099526Y-63269436D01*
X67050091Y-63355059D01*
X67050091Y-63355060D01*
X67050090Y-63355062D01*
X67024500Y-63450565D01*
X23500500Y-63450565D01*
X23500500Y-62848982D01*
X46024500Y-62848982D01*
X46024500Y-62961018D01*
X46053497Y-63069237D01*
X46109515Y-63166263D01*
X46188737Y-63245485D01*
X46285763Y-63301503D01*
X46393982Y-63330500D01*
X46393984Y-63330500D01*
X46506016Y-63330500D01*
X46506018Y-63330500D01*
X46614237Y-63301503D01*
X46711263Y-63245485D01*
X46790485Y-63166263D01*
X46846503Y-63069237D01*
X46875500Y-62961018D01*
X46875500Y-62848982D01*
X46846503Y-62740763D01*
X46790485Y-62643737D01*
X46711263Y-62564515D01*
X46614237Y-62508497D01*
X46506018Y-62479500D01*
X46393982Y-62479500D01*
X46285763Y-62508497D01*
X46285760Y-62508498D01*
X46188740Y-62564513D01*
X46188734Y-62564517D01*
X46109517Y-62643734D01*
X46109513Y-62643740D01*
X46053498Y-62740760D01*
X46053497Y-62740763D01*
X46024500Y-62848982D01*
X23500500Y-62848982D01*
X23500500Y-62225565D01*
X58524500Y-62225565D01*
X58524500Y-62324435D01*
X58550090Y-62419938D01*
X58550091Y-62419939D01*
X58550091Y-62419940D01*
X58563337Y-62442882D01*
X58599525Y-62505562D01*
X58669438Y-62575475D01*
X58755062Y-62624910D01*
X58850565Y-62650500D01*
X58850567Y-62650500D01*
X58949432Y-62650500D01*
X58949435Y-62650500D01*
X59044938Y-62624910D01*
X59121746Y-62580565D01*
X139684500Y-62580565D01*
X139684500Y-62679435D01*
X139710090Y-62774938D01*
X139759525Y-62860562D01*
X139829438Y-62930475D01*
X139915062Y-62979910D01*
X140010565Y-63005500D01*
X140010567Y-63005500D01*
X140109432Y-63005500D01*
X140109435Y-63005500D01*
X140204938Y-62979910D01*
X140290562Y-62930475D01*
X140360475Y-62860562D01*
X140409910Y-62774938D01*
X140435500Y-62679435D01*
X140435500Y-62580565D01*
X140409910Y-62485062D01*
X140360475Y-62399438D01*
X140290562Y-62329525D01*
X140204938Y-62280090D01*
X140109435Y-62254500D01*
X140010565Y-62254500D01*
X139915062Y-62280090D01*
X139915060Y-62280091D01*
X139915059Y-62280091D01*
X139829436Y-62329526D01*
X139759526Y-62399436D01*
X139710091Y-62485059D01*
X139710091Y-62485060D01*
X139710090Y-62485062D01*
X139684500Y-62580565D01*
X59121746Y-62580565D01*
X59130562Y-62575475D01*
X59200475Y-62505562D01*
X59249910Y-62419938D01*
X59275500Y-62324435D01*
X59275500Y-62225565D01*
X59252724Y-62140565D01*
X81649500Y-62140565D01*
X81649500Y-62239435D01*
X81675090Y-62334938D01*
X81724525Y-62420562D01*
X81794438Y-62490475D01*
X81880062Y-62539910D01*
X81975565Y-62565500D01*
X81975567Y-62565500D01*
X82074432Y-62565500D01*
X82074435Y-62565500D01*
X82169938Y-62539910D01*
X82255562Y-62490475D01*
X82325475Y-62420562D01*
X82374910Y-62334938D01*
X82400500Y-62239435D01*
X82400500Y-62140565D01*
X82384423Y-62080565D01*
X131274500Y-62080565D01*
X131274500Y-62179435D01*
X131300090Y-62274938D01*
X131300091Y-62274939D01*
X131300091Y-62274940D01*
X131303065Y-62280091D01*
X131349525Y-62360562D01*
X131419438Y-62430475D01*
X131505062Y-62479910D01*
X131600565Y-62505500D01*
X131600567Y-62505500D01*
X131699432Y-62505500D01*
X131699435Y-62505500D01*
X131794938Y-62479910D01*
X131880562Y-62430475D01*
X131950475Y-62360562D01*
X131999910Y-62274938D01*
X132025500Y-62179435D01*
X132025500Y-62080565D01*
X132017462Y-62050565D01*
X134624500Y-62050565D01*
X134624500Y-62149435D01*
X134650090Y-62244938D01*
X134699525Y-62330562D01*
X134769438Y-62400475D01*
X134855062Y-62449910D01*
X134950565Y-62475500D01*
X134950567Y-62475500D01*
X135049432Y-62475500D01*
X135049435Y-62475500D01*
X135144938Y-62449910D01*
X135230562Y-62400475D01*
X135300475Y-62330562D01*
X135349910Y-62244938D01*
X135375500Y-62149435D01*
X135375500Y-62050565D01*
X135349910Y-61955062D01*
X135300475Y-61869438D01*
X135230562Y-61799525D01*
X135144938Y-61750090D01*
X135049435Y-61724500D01*
X134950565Y-61724500D01*
X134855062Y-61750090D01*
X134855060Y-61750091D01*
X134855059Y-61750091D01*
X134769436Y-61799526D01*
X134699526Y-61869436D01*
X134650091Y-61955059D01*
X134650091Y-61955060D01*
X134650090Y-61955062D01*
X134624500Y-62050565D01*
X132017462Y-62050565D01*
X131999910Y-61985062D01*
X131950475Y-61899438D01*
X131880562Y-61829525D01*
X131794938Y-61780090D01*
X131699435Y-61754500D01*
X131600565Y-61754500D01*
X131505062Y-61780090D01*
X131505060Y-61780091D01*
X131505059Y-61780091D01*
X131419436Y-61829526D01*
X131349526Y-61899436D01*
X131300091Y-61985059D01*
X131300091Y-61985060D01*
X131300090Y-61985062D01*
X131274500Y-62080565D01*
X82384423Y-62080565D01*
X82374910Y-62045062D01*
X82325475Y-61959438D01*
X82255562Y-61889525D01*
X82169938Y-61840090D01*
X82074435Y-61814500D01*
X81975565Y-61814500D01*
X81880062Y-61840090D01*
X81880060Y-61840091D01*
X81880059Y-61840091D01*
X81794436Y-61889526D01*
X81724526Y-61959436D01*
X81675091Y-62045059D01*
X81675091Y-62045060D01*
X81675090Y-62045062D01*
X81649500Y-62140565D01*
X59252724Y-62140565D01*
X59249910Y-62130062D01*
X59200475Y-62044438D01*
X59130562Y-61974525D01*
X59044938Y-61925090D01*
X58949435Y-61899500D01*
X58850565Y-61899500D01*
X58755062Y-61925090D01*
X58755060Y-61925091D01*
X58755059Y-61925091D01*
X58669436Y-61974526D01*
X58599526Y-62044436D01*
X58550091Y-62130059D01*
X58550091Y-62130060D01*
X58550090Y-62130062D01*
X58524500Y-62225565D01*
X23500500Y-62225565D01*
X23500500Y-61131565D01*
X135624500Y-61131565D01*
X135624500Y-61230435D01*
X135650090Y-61325938D01*
X135699525Y-61411562D01*
X135769438Y-61481475D01*
X135855062Y-61530910D01*
X135950565Y-61556500D01*
X135950567Y-61556500D01*
X136049432Y-61556500D01*
X136049435Y-61556500D01*
X136144938Y-61530910D01*
X136230562Y-61481475D01*
X136300475Y-61411562D01*
X136349910Y-61325938D01*
X136375500Y-61230435D01*
X136375500Y-61131565D01*
X136349910Y-61036062D01*
X136300475Y-60950438D01*
X136230562Y-60880525D01*
X136144938Y-60831090D01*
X136049435Y-60805500D01*
X135950565Y-60805500D01*
X135855062Y-60831090D01*
X135855060Y-60831091D01*
X135855059Y-60831091D01*
X135769436Y-60880526D01*
X135699526Y-60950436D01*
X135650091Y-61036059D01*
X135650091Y-61036060D01*
X135650090Y-61036062D01*
X135624500Y-61131565D01*
X23500500Y-61131565D01*
X23500500Y-60550565D01*
X80624500Y-60550565D01*
X80624500Y-60649435D01*
X80650090Y-60744938D01*
X80699525Y-60830562D01*
X80769438Y-60900475D01*
X80855062Y-60949910D01*
X80950565Y-60975500D01*
X80950567Y-60975500D01*
X81049432Y-60975500D01*
X81049435Y-60975500D01*
X81144938Y-60949910D01*
X81230562Y-60900475D01*
X81300475Y-60830562D01*
X81349910Y-60744938D01*
X81375500Y-60649435D01*
X81375500Y-60631565D01*
X130114500Y-60631565D01*
X130114500Y-60730435D01*
X130140090Y-60825938D01*
X130140091Y-60825939D01*
X130140091Y-60825940D01*
X130143065Y-60831091D01*
X130189525Y-60911562D01*
X130259438Y-60981475D01*
X130345062Y-61030910D01*
X130440565Y-61056500D01*
X130440567Y-61056500D01*
X130539432Y-61056500D01*
X130539435Y-61056500D01*
X130634938Y-61030910D01*
X130720562Y-60981475D01*
X130790475Y-60911562D01*
X130839910Y-60825938D01*
X130865500Y-60730435D01*
X130865500Y-60631565D01*
X130839910Y-60536062D01*
X130790475Y-60450438D01*
X130720562Y-60380525D01*
X130634938Y-60331090D01*
X130539435Y-60305500D01*
X130440565Y-60305500D01*
X130345062Y-60331090D01*
X130345060Y-60331091D01*
X130345059Y-60331091D01*
X130259436Y-60380526D01*
X130189526Y-60450436D01*
X130140091Y-60536059D01*
X130140091Y-60536060D01*
X130140090Y-60536062D01*
X130114500Y-60631565D01*
X81375500Y-60631565D01*
X81375500Y-60550565D01*
X81349910Y-60455062D01*
X81300475Y-60369438D01*
X81230562Y-60299525D01*
X81144938Y-60250090D01*
X81049435Y-60224500D01*
X80950565Y-60224500D01*
X80855062Y-60250090D01*
X80855060Y-60250091D01*
X80855059Y-60250091D01*
X80769436Y-60299526D01*
X80699526Y-60369436D01*
X80650091Y-60455059D01*
X80650091Y-60455060D01*
X80650090Y-60455062D01*
X80624500Y-60550565D01*
X23500500Y-60550565D01*
X23500500Y-59682565D01*
X136784500Y-59682565D01*
X136784500Y-59781435D01*
X136810090Y-59876938D01*
X136859525Y-59962562D01*
X136929438Y-60032475D01*
X137015062Y-60081910D01*
X137110565Y-60107500D01*
X137110567Y-60107500D01*
X137209432Y-60107500D01*
X137209435Y-60107500D01*
X137304938Y-60081910D01*
X137390562Y-60032475D01*
X137460475Y-59962562D01*
X137509910Y-59876938D01*
X137535500Y-59781435D01*
X137535500Y-59682565D01*
X137509910Y-59587062D01*
X137460475Y-59501438D01*
X137390562Y-59431525D01*
X137304938Y-59382090D01*
X137209435Y-59356500D01*
X137110565Y-59356500D01*
X137015062Y-59382090D01*
X137015060Y-59382091D01*
X137015059Y-59382091D01*
X136929436Y-59431526D01*
X136859526Y-59501436D01*
X136810091Y-59587059D01*
X136810091Y-59587060D01*
X136810090Y-59587062D01*
X136784500Y-59682565D01*
X23500500Y-59682565D01*
X23500500Y-59182565D01*
X128954500Y-59182565D01*
X128954500Y-59281435D01*
X128980090Y-59376938D01*
X128980091Y-59376939D01*
X128980091Y-59376940D01*
X128983065Y-59382091D01*
X129029525Y-59462562D01*
X129099438Y-59532475D01*
X129185062Y-59581910D01*
X129280565Y-59607500D01*
X129280567Y-59607500D01*
X129379432Y-59607500D01*
X129379435Y-59607500D01*
X129474938Y-59581910D01*
X129560562Y-59532475D01*
X129630475Y-59462562D01*
X129679910Y-59376938D01*
X129705500Y-59281435D01*
X129705500Y-59182565D01*
X129679910Y-59087062D01*
X129630475Y-59001438D01*
X129560562Y-58931525D01*
X129474938Y-58882090D01*
X129379435Y-58856500D01*
X129280565Y-58856500D01*
X129185062Y-58882090D01*
X129185060Y-58882091D01*
X129185059Y-58882091D01*
X129099436Y-58931526D01*
X129029526Y-59001436D01*
X128980091Y-59087059D01*
X128980091Y-59087060D01*
X128980090Y-59087062D01*
X128954500Y-59182565D01*
X23500500Y-59182565D01*
X23500500Y-58000566D01*
X33874500Y-58000566D01*
X33874500Y-58099436D01*
X33900090Y-58194939D01*
X33949525Y-58280563D01*
X34019438Y-58350476D01*
X34105062Y-58399911D01*
X34200565Y-58425501D01*
X34200567Y-58425501D01*
X34299432Y-58425501D01*
X34299435Y-58425501D01*
X34394938Y-58399911D01*
X34480562Y-58350476D01*
X34550475Y-58280563D01*
X34577609Y-58233565D01*
X139104500Y-58233565D01*
X139104500Y-58332435D01*
X139130090Y-58427938D01*
X139179525Y-58513562D01*
X139249438Y-58583475D01*
X139335062Y-58632910D01*
X139430565Y-58658500D01*
X139430567Y-58658500D01*
X139529432Y-58658500D01*
X139529435Y-58658500D01*
X139624938Y-58632910D01*
X139710562Y-58583475D01*
X139780475Y-58513562D01*
X139829910Y-58427938D01*
X139855500Y-58332435D01*
X139855500Y-58233565D01*
X139829910Y-58138062D01*
X139780475Y-58052438D01*
X139710562Y-57982525D01*
X139624938Y-57933090D01*
X139529435Y-57907500D01*
X139430565Y-57907500D01*
X139335062Y-57933090D01*
X139335060Y-57933091D01*
X139335059Y-57933091D01*
X139249436Y-57982526D01*
X139179526Y-58052436D01*
X139130091Y-58138059D01*
X139130091Y-58138060D01*
X139130090Y-58138062D01*
X139104500Y-58233565D01*
X34577609Y-58233565D01*
X34599910Y-58194939D01*
X34625500Y-58099436D01*
X34625500Y-58000566D01*
X34599910Y-57905063D01*
X34550475Y-57819439D01*
X34480562Y-57749526D01*
X34452917Y-57733565D01*
X127214500Y-57733565D01*
X127214500Y-57832435D01*
X127240090Y-57927938D01*
X127240091Y-57927939D01*
X127240091Y-57927940D01*
X127243065Y-57933091D01*
X127289525Y-58013562D01*
X127359438Y-58083475D01*
X127445062Y-58132910D01*
X127540565Y-58158500D01*
X127540567Y-58158500D01*
X127639432Y-58158500D01*
X127639435Y-58158500D01*
X127734938Y-58132910D01*
X127820562Y-58083475D01*
X127890475Y-58013562D01*
X127939910Y-57927938D01*
X127965500Y-57832435D01*
X127965500Y-57733565D01*
X127939910Y-57638062D01*
X127890475Y-57552438D01*
X127820562Y-57482525D01*
X127734938Y-57433090D01*
X127639435Y-57407500D01*
X127540565Y-57407500D01*
X127445062Y-57433090D01*
X127445060Y-57433091D01*
X127445059Y-57433091D01*
X127359436Y-57482526D01*
X127289526Y-57552436D01*
X127240091Y-57638059D01*
X127240091Y-57638060D01*
X127240090Y-57638062D01*
X127214500Y-57733565D01*
X34452917Y-57733565D01*
X34394938Y-57700091D01*
X34299435Y-57674501D01*
X34200565Y-57674501D01*
X34105062Y-57700091D01*
X34105060Y-57700092D01*
X34105059Y-57700092D01*
X34019436Y-57749527D01*
X33949526Y-57819437D01*
X33900091Y-57905060D01*
X33900091Y-57905061D01*
X33900090Y-57905063D01*
X33874500Y-58000566D01*
X23500500Y-58000566D01*
X23500500Y-57050565D01*
X32774500Y-57050565D01*
X32774500Y-57149435D01*
X32800090Y-57244938D01*
X32849525Y-57330562D01*
X32919438Y-57400475D01*
X33005062Y-57449910D01*
X33100565Y-57475500D01*
X33100567Y-57475500D01*
X33199432Y-57475500D01*
X33199435Y-57475500D01*
X33294938Y-57449910D01*
X33380562Y-57400475D01*
X33450475Y-57330562D01*
X33499910Y-57244938D01*
X33525500Y-57149435D01*
X33525500Y-57050565D01*
X33499910Y-56955062D01*
X33450475Y-56869438D01*
X33380562Y-56799525D01*
X33294938Y-56750090D01*
X33199435Y-56724500D01*
X33100565Y-56724500D01*
X33005062Y-56750090D01*
X33005060Y-56750091D01*
X33005059Y-56750091D01*
X32919436Y-56799526D01*
X32849526Y-56869436D01*
X32800091Y-56955059D01*
X32800091Y-56955060D01*
X32800090Y-56955062D01*
X32774500Y-57050565D01*
X23500500Y-57050565D01*
X23500500Y-56150565D01*
X33874500Y-56150565D01*
X33874500Y-56249435D01*
X33900090Y-56344938D01*
X33900091Y-56344939D01*
X33900091Y-56344940D01*
X33902686Y-56349435D01*
X33949525Y-56430562D01*
X34019438Y-56500475D01*
X34105062Y-56549910D01*
X34200565Y-56575500D01*
X34200567Y-56575500D01*
X34299432Y-56575500D01*
X34299435Y-56575500D01*
X34394938Y-56549910D01*
X34480562Y-56500475D01*
X34550475Y-56430562D01*
X34599910Y-56344938D01*
X34625500Y-56249435D01*
X34625500Y-56150565D01*
X37374500Y-56150565D01*
X37374500Y-56249435D01*
X37400090Y-56344938D01*
X37400091Y-56344939D01*
X37400091Y-56344940D01*
X37402686Y-56349435D01*
X37449525Y-56430562D01*
X37519438Y-56500475D01*
X37605062Y-56549910D01*
X37700565Y-56575500D01*
X37700567Y-56575500D01*
X37799432Y-56575500D01*
X37799435Y-56575500D01*
X37892494Y-56550565D01*
X48474500Y-56550565D01*
X48474500Y-56649435D01*
X48500090Y-56744938D01*
X48500091Y-56744939D01*
X48500091Y-56744940D01*
X48503065Y-56750091D01*
X48549525Y-56830562D01*
X48619438Y-56900475D01*
X48705062Y-56949910D01*
X48800565Y-56975500D01*
X48800567Y-56975500D01*
X48899432Y-56975500D01*
X48899435Y-56975500D01*
X48994938Y-56949910D01*
X49080562Y-56900475D01*
X49150475Y-56830562D01*
X49177031Y-56784565D01*
X140844500Y-56784565D01*
X140844500Y-56883435D01*
X140870090Y-56978938D01*
X140919525Y-57064562D01*
X140989438Y-57134475D01*
X141075062Y-57183910D01*
X141170565Y-57209500D01*
X141170567Y-57209500D01*
X141269432Y-57209500D01*
X141269435Y-57209500D01*
X141364938Y-57183910D01*
X141450562Y-57134475D01*
X141520475Y-57064562D01*
X141569910Y-56978938D01*
X141595500Y-56883435D01*
X141595500Y-56784565D01*
X141569910Y-56689062D01*
X141520475Y-56603438D01*
X141450562Y-56533525D01*
X141364938Y-56484090D01*
X141269435Y-56458500D01*
X141170565Y-56458500D01*
X141075062Y-56484090D01*
X141075060Y-56484091D01*
X141075059Y-56484091D01*
X140989436Y-56533526D01*
X140919526Y-56603436D01*
X140870091Y-56689059D01*
X140870091Y-56689060D01*
X140870090Y-56689062D01*
X140844500Y-56784565D01*
X49177031Y-56784565D01*
X49199910Y-56744938D01*
X49225500Y-56649435D01*
X49225500Y-56550565D01*
X49199910Y-56455062D01*
X49150475Y-56369438D01*
X49080562Y-56299525D01*
X48994938Y-56250090D01*
X48899435Y-56224500D01*
X48800565Y-56224500D01*
X48705062Y-56250090D01*
X48705060Y-56250091D01*
X48705059Y-56250091D01*
X48619436Y-56299526D01*
X48549526Y-56369436D01*
X48500091Y-56455059D01*
X48500091Y-56455060D01*
X48500090Y-56455062D01*
X48474500Y-56550565D01*
X37892494Y-56550565D01*
X37894938Y-56549910D01*
X37980562Y-56500475D01*
X38050475Y-56430562D01*
X38099910Y-56344938D01*
X38125500Y-56249435D01*
X38125500Y-56150565D01*
X38099910Y-56055062D01*
X38050475Y-55969438D01*
X37980562Y-55899525D01*
X37894938Y-55850090D01*
X37799435Y-55824500D01*
X37700565Y-55824500D01*
X37605062Y-55850090D01*
X37605060Y-55850091D01*
X37605059Y-55850091D01*
X37519436Y-55899526D01*
X37449526Y-55969436D01*
X37400091Y-56055059D01*
X37400091Y-56055060D01*
X37400090Y-56055062D01*
X37374500Y-56150565D01*
X34625500Y-56150565D01*
X34599910Y-56055062D01*
X34550475Y-55969438D01*
X34480562Y-55899525D01*
X34394938Y-55850090D01*
X34299435Y-55824500D01*
X34200565Y-55824500D01*
X34105062Y-55850090D01*
X34105060Y-55850091D01*
X34105059Y-55850091D01*
X34019436Y-55899526D01*
X33949526Y-55969436D01*
X33900091Y-56055059D01*
X33900091Y-56055060D01*
X33900090Y-56055062D01*
X33874500Y-56150565D01*
X23500500Y-56150565D01*
X23500500Y-54200565D01*
X30262000Y-54200565D01*
X30262000Y-54299435D01*
X30287590Y-54394938D01*
X30337025Y-54480562D01*
X30406938Y-54550475D01*
X30406939Y-54550476D01*
X30406941Y-54550477D01*
X30412496Y-54553684D01*
X30460714Y-54604249D01*
X30474500Y-54661073D01*
X30474500Y-54749435D01*
X30500090Y-54844938D01*
X30500091Y-54844939D01*
X30500531Y-54846581D01*
X30498868Y-54916431D01*
X30459706Y-54974294D01*
X30442762Y-54986058D01*
X30419438Y-54999525D01*
X30419435Y-54999527D01*
X30349526Y-55069436D01*
X30300091Y-55155059D01*
X30300091Y-55155060D01*
X30300090Y-55155062D01*
X30274500Y-55250565D01*
X30274500Y-55349435D01*
X30300090Y-55444938D01*
X30349525Y-55530562D01*
X30419438Y-55600475D01*
X30505062Y-55649910D01*
X30600565Y-55675500D01*
X30600567Y-55675500D01*
X30699432Y-55675500D01*
X30699435Y-55675500D01*
X30706657Y-55673565D01*
X83974500Y-55673565D01*
X83974500Y-55772435D01*
X84000090Y-55867938D01*
X84000091Y-55867939D01*
X84000091Y-55867940D01*
X84002686Y-55872435D01*
X84049525Y-55953562D01*
X84119438Y-56023475D01*
X84205062Y-56072910D01*
X84300565Y-56098500D01*
X84300567Y-56098500D01*
X84399432Y-56098500D01*
X84399435Y-56098500D01*
X84494938Y-56072910D01*
X84580562Y-56023475D01*
X84650475Y-55953562D01*
X84699910Y-55867938D01*
X84725197Y-55773565D01*
X85124500Y-55773565D01*
X85124500Y-55872435D01*
X85150090Y-55967938D01*
X85199525Y-56053562D01*
X85269438Y-56123475D01*
X85355062Y-56172910D01*
X85450565Y-56198500D01*
X85450567Y-56198500D01*
X85549432Y-56198500D01*
X85549435Y-56198500D01*
X85644938Y-56172910D01*
X85730562Y-56123475D01*
X85800475Y-56053562D01*
X85849910Y-55967938D01*
X85875500Y-55872435D01*
X85875500Y-55773565D01*
X86324500Y-55773565D01*
X86324500Y-55872435D01*
X86350090Y-55967938D01*
X86399525Y-56053562D01*
X86469438Y-56123475D01*
X86555062Y-56172910D01*
X86650565Y-56198500D01*
X86650567Y-56198500D01*
X86749432Y-56198500D01*
X86749435Y-56198500D01*
X86844938Y-56172910D01*
X86930562Y-56123475D01*
X87000475Y-56053562D01*
X87049910Y-55967938D01*
X87075500Y-55872435D01*
X87075500Y-55773565D01*
X87524500Y-55773565D01*
X87524500Y-55872435D01*
X87550090Y-55967938D01*
X87599525Y-56053562D01*
X87669438Y-56123475D01*
X87755062Y-56172910D01*
X87850565Y-56198500D01*
X87850567Y-56198500D01*
X87949432Y-56198500D01*
X87949435Y-56198500D01*
X88044938Y-56172910D01*
X88130562Y-56123475D01*
X88200475Y-56053562D01*
X88249910Y-55967938D01*
X88275500Y-55872435D01*
X88275500Y-55773565D01*
X88724500Y-55773565D01*
X88724500Y-55872435D01*
X88750090Y-55967938D01*
X88799525Y-56053562D01*
X88869438Y-56123475D01*
X88955062Y-56172910D01*
X89050565Y-56198500D01*
X89050567Y-56198500D01*
X89149432Y-56198500D01*
X89149435Y-56198500D01*
X89244938Y-56172910D01*
X89330562Y-56123475D01*
X89400475Y-56053562D01*
X89449910Y-55967938D01*
X89475500Y-55872435D01*
X89475500Y-55773565D01*
X89924500Y-55773565D01*
X89924500Y-55872435D01*
X89950090Y-55967938D01*
X89999525Y-56053562D01*
X90069438Y-56123475D01*
X90155062Y-56172910D01*
X90250565Y-56198500D01*
X90250567Y-56198500D01*
X90349432Y-56198500D01*
X90349435Y-56198500D01*
X90444938Y-56172910D01*
X90530562Y-56123475D01*
X90600475Y-56053562D01*
X90649910Y-55967938D01*
X90675500Y-55872435D01*
X90675500Y-55773565D01*
X91124500Y-55773565D01*
X91124500Y-55872435D01*
X91150090Y-55967938D01*
X91199525Y-56053562D01*
X91269438Y-56123475D01*
X91355062Y-56172910D01*
X91450565Y-56198500D01*
X91450567Y-56198500D01*
X91549432Y-56198500D01*
X91549435Y-56198500D01*
X91644938Y-56172910D01*
X91730562Y-56123475D01*
X91800475Y-56053562D01*
X91849910Y-55967938D01*
X91875500Y-55872435D01*
X91875500Y-55773565D01*
X92324500Y-55773565D01*
X92324500Y-55872435D01*
X92350090Y-55967938D01*
X92399525Y-56053562D01*
X92469438Y-56123475D01*
X92555062Y-56172910D01*
X92650565Y-56198500D01*
X92650567Y-56198500D01*
X92749432Y-56198500D01*
X92749435Y-56198500D01*
X92844938Y-56172910D01*
X92930562Y-56123475D01*
X93000475Y-56053562D01*
X93049910Y-55967938D01*
X93075500Y-55872435D01*
X93075500Y-55773565D01*
X93049910Y-55678062D01*
X93028261Y-55640565D01*
X103794500Y-55640565D01*
X103794500Y-55739435D01*
X103820090Y-55834938D01*
X103820091Y-55834939D01*
X103820091Y-55834940D01*
X103825933Y-55845059D01*
X103869525Y-55920562D01*
X103939438Y-55990475D01*
X104025062Y-56039910D01*
X104120565Y-56065500D01*
X104120567Y-56065500D01*
X104227563Y-56065500D01*
X104227563Y-56068844D01*
X104281227Y-56077189D01*
X104333503Y-56123547D01*
X104335813Y-56128021D01*
X104336026Y-56127899D01*
X104340089Y-56134937D01*
X104340090Y-56134938D01*
X104389525Y-56220562D01*
X104459438Y-56290475D01*
X104545062Y-56339910D01*
X104640565Y-56365500D01*
X104640567Y-56365500D01*
X104739432Y-56365500D01*
X104739435Y-56365500D01*
X104834938Y-56339910D01*
X104920562Y-56290475D01*
X104926472Y-56284565D01*
X126634500Y-56284565D01*
X126634500Y-56383435D01*
X126660090Y-56478938D01*
X126660091Y-56478939D01*
X126660091Y-56478940D01*
X126663065Y-56484091D01*
X126709525Y-56564562D01*
X126779438Y-56634475D01*
X126865062Y-56683910D01*
X126960565Y-56709500D01*
X126960567Y-56709500D01*
X127059432Y-56709500D01*
X127059435Y-56709500D01*
X127154938Y-56683910D01*
X127240562Y-56634475D01*
X127310475Y-56564562D01*
X127359910Y-56478938D01*
X127385500Y-56383435D01*
X127385500Y-56284565D01*
X127376390Y-56250565D01*
X133324500Y-56250565D01*
X133324500Y-56349435D01*
X133350090Y-56444938D01*
X133399525Y-56530562D01*
X133469438Y-56600475D01*
X133555062Y-56649910D01*
X133650565Y-56675500D01*
X133650567Y-56675500D01*
X133749432Y-56675500D01*
X133749435Y-56675500D01*
X133844938Y-56649910D01*
X133930562Y-56600475D01*
X134000475Y-56530562D01*
X134049910Y-56444938D01*
X134075500Y-56349435D01*
X134075500Y-56250565D01*
X134049910Y-56155062D01*
X134011229Y-56088065D01*
X134624500Y-56088065D01*
X134624500Y-56186935D01*
X134650090Y-56282438D01*
X134699525Y-56368062D01*
X134769438Y-56437975D01*
X134855062Y-56487410D01*
X134950565Y-56513000D01*
X134950567Y-56513000D01*
X135049432Y-56513000D01*
X135049435Y-56513000D01*
X135144938Y-56487410D01*
X135230562Y-56437975D01*
X135300475Y-56368062D01*
X135349910Y-56282438D01*
X135375500Y-56186935D01*
X135375500Y-56088065D01*
X135349910Y-55992562D01*
X135300475Y-55906938D01*
X135230562Y-55837025D01*
X135144938Y-55787590D01*
X135049435Y-55762000D01*
X134950565Y-55762000D01*
X134855062Y-55787590D01*
X134855060Y-55787591D01*
X134855059Y-55787591D01*
X134769436Y-55837026D01*
X134699526Y-55906936D01*
X134650091Y-55992559D01*
X134650091Y-55992560D01*
X134650090Y-55992562D01*
X134624500Y-56088065D01*
X134011229Y-56088065D01*
X134000475Y-56069438D01*
X133930562Y-55999525D01*
X133844938Y-55950090D01*
X133749435Y-55924500D01*
X133650565Y-55924500D01*
X133555062Y-55950090D01*
X133555060Y-55950091D01*
X133555059Y-55950091D01*
X133469436Y-55999526D01*
X133399526Y-56069436D01*
X133350091Y-56155059D01*
X133350091Y-56155060D01*
X133350090Y-56155062D01*
X133324500Y-56250565D01*
X127376390Y-56250565D01*
X127359910Y-56189062D01*
X127310475Y-56103438D01*
X127240562Y-56033525D01*
X127154938Y-55984090D01*
X127059435Y-55958500D01*
X126960565Y-55958500D01*
X126865062Y-55984090D01*
X126865060Y-55984091D01*
X126865059Y-55984091D01*
X126779436Y-56033526D01*
X126709526Y-56103436D01*
X126660091Y-56189059D01*
X126660091Y-56189060D01*
X126660090Y-56189062D01*
X126634500Y-56284565D01*
X104926472Y-56284565D01*
X104990475Y-56220562D01*
X105039910Y-56134938D01*
X105065500Y-56039435D01*
X105065500Y-55940565D01*
X105039910Y-55845062D01*
X104990475Y-55759438D01*
X104920562Y-55689525D01*
X104834938Y-55640090D01*
X104739435Y-55614500D01*
X104640565Y-55614500D01*
X104632438Y-55614500D01*
X104632438Y-55611182D01*
X104627892Y-55610469D01*
X104607996Y-55612351D01*
X104594083Y-55605162D01*
X104578611Y-55602734D01*
X104563675Y-55589450D01*
X104545922Y-55580278D01*
X104534334Y-55563357D01*
X104526401Y-55556301D01*
X104524130Y-55552516D01*
X104519974Y-55545303D01*
X104519910Y-55545062D01*
X104470475Y-55459438D01*
X104441202Y-55430165D01*
X106374500Y-55430165D01*
X106374500Y-55529035D01*
X106400090Y-55624538D01*
X106400091Y-55624539D01*
X106400091Y-55624540D01*
X106409343Y-55640565D01*
X106449525Y-55710162D01*
X106519438Y-55780075D01*
X106605062Y-55829510D01*
X106700565Y-55855100D01*
X106700567Y-55855100D01*
X106799432Y-55855100D01*
X106799435Y-55855100D01*
X106894938Y-55829510D01*
X106980562Y-55780075D01*
X107050475Y-55710162D01*
X107099910Y-55624538D01*
X107125500Y-55529035D01*
X107125500Y-55430165D01*
X107099910Y-55334662D01*
X107050475Y-55249038D01*
X106980562Y-55179125D01*
X106894938Y-55129690D01*
X106799435Y-55104100D01*
X106700565Y-55104100D01*
X106605062Y-55129690D01*
X106605060Y-55129691D01*
X106605059Y-55129691D01*
X106519436Y-55179126D01*
X106449526Y-55249036D01*
X106400091Y-55334659D01*
X106400091Y-55334660D01*
X106400090Y-55334662D01*
X106374500Y-55430165D01*
X104441202Y-55430165D01*
X104400562Y-55389525D01*
X104314938Y-55340090D01*
X104219435Y-55314500D01*
X104120565Y-55314500D01*
X104025062Y-55340090D01*
X104025060Y-55340091D01*
X104025059Y-55340091D01*
X103939436Y-55389526D01*
X103869526Y-55459436D01*
X103820091Y-55545059D01*
X103820091Y-55545060D01*
X103820090Y-55545062D01*
X103794500Y-55640565D01*
X93028261Y-55640565D01*
X93000475Y-55592438D01*
X92930562Y-55522525D01*
X92844938Y-55473090D01*
X92749435Y-55447500D01*
X92650565Y-55447500D01*
X92555062Y-55473090D01*
X92555060Y-55473091D01*
X92555059Y-55473091D01*
X92469436Y-55522526D01*
X92399526Y-55592436D01*
X92350091Y-55678059D01*
X92350091Y-55678060D01*
X92350090Y-55678062D01*
X92324500Y-55773565D01*
X91875500Y-55773565D01*
X91849910Y-55678062D01*
X91800475Y-55592438D01*
X91730562Y-55522525D01*
X91644938Y-55473090D01*
X91549435Y-55447500D01*
X91450565Y-55447500D01*
X91355062Y-55473090D01*
X91355060Y-55473091D01*
X91355059Y-55473091D01*
X91269436Y-55522526D01*
X91199526Y-55592436D01*
X91150091Y-55678059D01*
X91150091Y-55678060D01*
X91150090Y-55678062D01*
X91124500Y-55773565D01*
X90675500Y-55773565D01*
X90649910Y-55678062D01*
X90600475Y-55592438D01*
X90530562Y-55522525D01*
X90444938Y-55473090D01*
X90349435Y-55447500D01*
X90250565Y-55447500D01*
X90155062Y-55473090D01*
X90155060Y-55473091D01*
X90155059Y-55473091D01*
X90069436Y-55522526D01*
X89999526Y-55592436D01*
X89950091Y-55678059D01*
X89950091Y-55678060D01*
X89950090Y-55678062D01*
X89924500Y-55773565D01*
X89475500Y-55773565D01*
X89449910Y-55678062D01*
X89400475Y-55592438D01*
X89330562Y-55522525D01*
X89244938Y-55473090D01*
X89149435Y-55447500D01*
X89050565Y-55447500D01*
X88955062Y-55473090D01*
X88955060Y-55473091D01*
X88955059Y-55473091D01*
X88869436Y-55522526D01*
X88799526Y-55592436D01*
X88750091Y-55678059D01*
X88750091Y-55678060D01*
X88750090Y-55678062D01*
X88724500Y-55773565D01*
X88275500Y-55773565D01*
X88249910Y-55678062D01*
X88200475Y-55592438D01*
X88130562Y-55522525D01*
X88044938Y-55473090D01*
X87949435Y-55447500D01*
X87850565Y-55447500D01*
X87755062Y-55473090D01*
X87755060Y-55473091D01*
X87755059Y-55473091D01*
X87669436Y-55522526D01*
X87599526Y-55592436D01*
X87550091Y-55678059D01*
X87550091Y-55678060D01*
X87550090Y-55678062D01*
X87524500Y-55773565D01*
X87075500Y-55773565D01*
X87049910Y-55678062D01*
X87000475Y-55592438D01*
X86930562Y-55522525D01*
X86844938Y-55473090D01*
X86749435Y-55447500D01*
X86650565Y-55447500D01*
X86555062Y-55473090D01*
X86555060Y-55473091D01*
X86555059Y-55473091D01*
X86469436Y-55522526D01*
X86399526Y-55592436D01*
X86350091Y-55678059D01*
X86350091Y-55678060D01*
X86350090Y-55678062D01*
X86324500Y-55773565D01*
X85875500Y-55773565D01*
X85849910Y-55678062D01*
X85800475Y-55592438D01*
X85730562Y-55522525D01*
X85644938Y-55473090D01*
X85549435Y-55447500D01*
X85450565Y-55447500D01*
X85355062Y-55473090D01*
X85355060Y-55473091D01*
X85355059Y-55473091D01*
X85269436Y-55522526D01*
X85199526Y-55592436D01*
X85150091Y-55678059D01*
X85150091Y-55678060D01*
X85150090Y-55678062D01*
X85124500Y-55773565D01*
X84725197Y-55773565D01*
X84725500Y-55772435D01*
X84725500Y-55673565D01*
X84699910Y-55578062D01*
X84650475Y-55492438D01*
X84580562Y-55422525D01*
X84494938Y-55373090D01*
X84399435Y-55347500D01*
X84300565Y-55347500D01*
X84205062Y-55373090D01*
X84205060Y-55373091D01*
X84205059Y-55373091D01*
X84119436Y-55422526D01*
X84049526Y-55492436D01*
X84000091Y-55578059D01*
X84000091Y-55578060D01*
X84000090Y-55578062D01*
X83974500Y-55673565D01*
X30706657Y-55673565D01*
X30794938Y-55649910D01*
X30880562Y-55600475D01*
X30950475Y-55530562D01*
X30999910Y-55444938D01*
X31025500Y-55349435D01*
X31025500Y-55250565D01*
X30999910Y-55155062D01*
X30999907Y-55155057D01*
X30999468Y-55153418D01*
X31001131Y-55083569D01*
X31040293Y-55025706D01*
X31057235Y-55013942D01*
X31080562Y-55000475D01*
X31150475Y-54930562D01*
X31199910Y-54844938D01*
X31225500Y-54749435D01*
X31225500Y-54650565D01*
X31199910Y-54555062D01*
X31150475Y-54469438D01*
X31121602Y-54440565D01*
X81984500Y-54440565D01*
X81984500Y-54539435D01*
X82010090Y-54634938D01*
X82059525Y-54720562D01*
X82129438Y-54790475D01*
X82215062Y-54839910D01*
X82310565Y-54865500D01*
X82310567Y-54865500D01*
X82409432Y-54865500D01*
X82409435Y-54865500D01*
X82504938Y-54839910D01*
X82521124Y-54830565D01*
X84474500Y-54830565D01*
X84474500Y-54929435D01*
X84500090Y-55024938D01*
X84549525Y-55110562D01*
X84619438Y-55180475D01*
X84705062Y-55229910D01*
X84800565Y-55255500D01*
X84800568Y-55255500D01*
X84899432Y-55255500D01*
X84899435Y-55255500D01*
X84994938Y-55229910D01*
X85080562Y-55180475D01*
X85150475Y-55110562D01*
X85199910Y-55024938D01*
X85225500Y-54929435D01*
X85225500Y-54830565D01*
X85199910Y-54735062D01*
X85150475Y-54649438D01*
X85080562Y-54579525D01*
X84994938Y-54530090D01*
X84899435Y-54504500D01*
X84800565Y-54504500D01*
X84705062Y-54530090D01*
X84705060Y-54530091D01*
X84705059Y-54530091D01*
X84619436Y-54579526D01*
X84549526Y-54649436D01*
X84500091Y-54735059D01*
X84500091Y-54735060D01*
X84500090Y-54735062D01*
X84474500Y-54830565D01*
X82521124Y-54830565D01*
X82590562Y-54790475D01*
X82660475Y-54720562D01*
X82709910Y-54634938D01*
X82735500Y-54539435D01*
X82735500Y-54440565D01*
X82709910Y-54345062D01*
X82660475Y-54259438D01*
X82590562Y-54189525D01*
X82504938Y-54140090D01*
X82409435Y-54114500D01*
X82310565Y-54114500D01*
X82215062Y-54140090D01*
X82215060Y-54140091D01*
X82215059Y-54140091D01*
X82129436Y-54189526D01*
X82059526Y-54259436D01*
X82010091Y-54345059D01*
X82010091Y-54345060D01*
X82010090Y-54345062D01*
X81984500Y-54440565D01*
X31121602Y-54440565D01*
X31080562Y-54399525D01*
X31059251Y-54387221D01*
X31046774Y-54373986D01*
X31038849Y-54358397D01*
X31026782Y-54345741D01*
X31021641Y-54324551D01*
X31015110Y-54311703D01*
X31016115Y-54301768D01*
X31013000Y-54288926D01*
X31013000Y-54200567D01*
X31013000Y-54200565D01*
X30987410Y-54105062D01*
X30937975Y-54019438D01*
X30868062Y-53949525D01*
X30826562Y-53925565D01*
X85024500Y-53925565D01*
X85024500Y-54024435D01*
X85050090Y-54119938D01*
X85099525Y-54205562D01*
X85169438Y-54275475D01*
X85255062Y-54324910D01*
X85350565Y-54350500D01*
X85350567Y-54350500D01*
X85449432Y-54350500D01*
X85449435Y-54350500D01*
X85544938Y-54324910D01*
X85553849Y-54319764D01*
X85621744Y-54303291D01*
X85677848Y-54319764D01*
X85730057Y-54349907D01*
X85730058Y-54349908D01*
X85730062Y-54349910D01*
X85775219Y-54362009D01*
X85834878Y-54398374D01*
X85865407Y-54461221D01*
X85857112Y-54530597D01*
X85824276Y-54572869D01*
X85825185Y-54573778D01*
X85749526Y-54649436D01*
X85700091Y-54735059D01*
X85700091Y-54735060D01*
X85700090Y-54735062D01*
X85674500Y-54830565D01*
X85674500Y-54929435D01*
X85700090Y-55024938D01*
X85749525Y-55110562D01*
X85819438Y-55180475D01*
X85905062Y-55229910D01*
X86000565Y-55255500D01*
X86000567Y-55255500D01*
X86099432Y-55255500D01*
X86099435Y-55255500D01*
X86194938Y-55229910D01*
X86280562Y-55180475D01*
X86350475Y-55110562D01*
X86399910Y-55024938D01*
X86425500Y-54929435D01*
X86425500Y-54830565D01*
X86399910Y-54735062D01*
X86350475Y-54649438D01*
X86280562Y-54579525D01*
X86194938Y-54530090D01*
X86194937Y-54530089D01*
X86194933Y-54530088D01*
X86149780Y-54517989D01*
X86090120Y-54481624D01*
X86059592Y-54418776D01*
X86067887Y-54349401D01*
X86100726Y-54307133D01*
X86099815Y-54306222D01*
X86162319Y-54243718D01*
X86223642Y-54210233D01*
X86293334Y-54215217D01*
X86337681Y-54243718D01*
X86369438Y-54275475D01*
X86455062Y-54324910D01*
X86550565Y-54350500D01*
X86550567Y-54350500D01*
X86649432Y-54350500D01*
X86649435Y-54350500D01*
X86744938Y-54324910D01*
X86830562Y-54275475D01*
X86830564Y-54275472D01*
X86836203Y-54272217D01*
X86904103Y-54255743D01*
X86970130Y-54278595D01*
X86985885Y-54291922D01*
X86994438Y-54300475D01*
X87062603Y-54339830D01*
X87110818Y-54390395D01*
X87124042Y-54459002D01*
X87098074Y-54523867D01*
X87062605Y-54554602D01*
X87019436Y-54579526D01*
X86949526Y-54649436D01*
X86900091Y-54735059D01*
X86900091Y-54735060D01*
X86900090Y-54735062D01*
X86874500Y-54830565D01*
X86874500Y-54929435D01*
X86900090Y-55024938D01*
X86949525Y-55110562D01*
X87019438Y-55180475D01*
X87105062Y-55229910D01*
X87200565Y-55255500D01*
X87200567Y-55255500D01*
X87299432Y-55255500D01*
X87299435Y-55255500D01*
X87394938Y-55229910D01*
X87480562Y-55180475D01*
X87550475Y-55110562D01*
X87599910Y-55024938D01*
X87625500Y-54929435D01*
X87625500Y-54830565D01*
X87599910Y-54735062D01*
X87550475Y-54649438D01*
X87480562Y-54579525D01*
X87412394Y-54540168D01*
X87364180Y-54489603D01*
X87350957Y-54420996D01*
X87376925Y-54356131D01*
X87412392Y-54325398D01*
X87455562Y-54300475D01*
X87455570Y-54300466D01*
X87457313Y-54299130D01*
X87459061Y-54298454D01*
X87462600Y-54296411D01*
X87462918Y-54296962D01*
X87522482Y-54273935D01*
X87590927Y-54287973D01*
X87594787Y-54290110D01*
X87655062Y-54324910D01*
X87750565Y-54350500D01*
X87750567Y-54350500D01*
X87849432Y-54350500D01*
X87849435Y-54350500D01*
X87944938Y-54324910D01*
X87953849Y-54319764D01*
X88021744Y-54303291D01*
X88077848Y-54319764D01*
X88130057Y-54349907D01*
X88130058Y-54349908D01*
X88130062Y-54349910D01*
X88175219Y-54362009D01*
X88234878Y-54398374D01*
X88265407Y-54461221D01*
X88257112Y-54530597D01*
X88224276Y-54572869D01*
X88225185Y-54573778D01*
X88149526Y-54649436D01*
X88100091Y-54735059D01*
X88100091Y-54735060D01*
X88100090Y-54735062D01*
X88074500Y-54830565D01*
X88074500Y-54929435D01*
X88100090Y-55024938D01*
X88149525Y-55110562D01*
X88219438Y-55180475D01*
X88305062Y-55229910D01*
X88400565Y-55255500D01*
X88400567Y-55255500D01*
X88499432Y-55255500D01*
X88499435Y-55255500D01*
X88594938Y-55229910D01*
X88680562Y-55180475D01*
X88750475Y-55110562D01*
X88799910Y-55024938D01*
X88825500Y-54929435D01*
X88825500Y-54830565D01*
X88799910Y-54735062D01*
X88750475Y-54649438D01*
X88680562Y-54579525D01*
X88594938Y-54530090D01*
X88594937Y-54530089D01*
X88594933Y-54530088D01*
X88549780Y-54517989D01*
X88490120Y-54481624D01*
X88459592Y-54418776D01*
X88467887Y-54349401D01*
X88500726Y-54307133D01*
X88499815Y-54306222D01*
X88562319Y-54243718D01*
X88623642Y-54210233D01*
X88693334Y-54215217D01*
X88737681Y-54243718D01*
X88769438Y-54275475D01*
X88855062Y-54324910D01*
X88950565Y-54350500D01*
X88950567Y-54350500D01*
X89049432Y-54350500D01*
X89049435Y-54350500D01*
X89144938Y-54324910D01*
X89230562Y-54275475D01*
X89230564Y-54275472D01*
X89236203Y-54272217D01*
X89304103Y-54255743D01*
X89370130Y-54278595D01*
X89385885Y-54291922D01*
X89394438Y-54300475D01*
X89462603Y-54339830D01*
X89510818Y-54390395D01*
X89524042Y-54459002D01*
X89498074Y-54523867D01*
X89462605Y-54554602D01*
X89419436Y-54579526D01*
X89349526Y-54649436D01*
X89300091Y-54735059D01*
X89300091Y-54735060D01*
X89300090Y-54735062D01*
X89274500Y-54830565D01*
X89274500Y-54929435D01*
X89300090Y-55024938D01*
X89349525Y-55110562D01*
X89419438Y-55180475D01*
X89505062Y-55229910D01*
X89600565Y-55255500D01*
X89600567Y-55255500D01*
X89699432Y-55255500D01*
X89699435Y-55255500D01*
X89794938Y-55229910D01*
X89880562Y-55180475D01*
X89950475Y-55110562D01*
X89999910Y-55024938D01*
X90025500Y-54929435D01*
X90025500Y-54830565D01*
X89999910Y-54735062D01*
X89950475Y-54649438D01*
X89880562Y-54579525D01*
X89812394Y-54540168D01*
X89764180Y-54489603D01*
X89750957Y-54420996D01*
X89776925Y-54356131D01*
X89812392Y-54325398D01*
X89855562Y-54300475D01*
X89855570Y-54300466D01*
X89857313Y-54299130D01*
X89859061Y-54298454D01*
X89862600Y-54296411D01*
X89862918Y-54296962D01*
X89922482Y-54273935D01*
X89990927Y-54287973D01*
X89994787Y-54290110D01*
X90055062Y-54324910D01*
X90150565Y-54350500D01*
X90150567Y-54350500D01*
X90249432Y-54350500D01*
X90249435Y-54350500D01*
X90344938Y-54324910D01*
X90430562Y-54275475D01*
X90430564Y-54275472D01*
X90436203Y-54272217D01*
X90504103Y-54255743D01*
X90570130Y-54278595D01*
X90585885Y-54291922D01*
X90594438Y-54300475D01*
X90662603Y-54339830D01*
X90710818Y-54390395D01*
X90724042Y-54459002D01*
X90698074Y-54523867D01*
X90662605Y-54554602D01*
X90619436Y-54579526D01*
X90549526Y-54649436D01*
X90500091Y-54735059D01*
X90500091Y-54735060D01*
X90500090Y-54735062D01*
X90474500Y-54830565D01*
X90474500Y-54929435D01*
X90500090Y-55024938D01*
X90549525Y-55110562D01*
X90619438Y-55180475D01*
X90705062Y-55229910D01*
X90800565Y-55255500D01*
X90800567Y-55255500D01*
X90899432Y-55255500D01*
X90899435Y-55255500D01*
X90994938Y-55229910D01*
X91080562Y-55180475D01*
X91150475Y-55110562D01*
X91199910Y-55024938D01*
X91225500Y-54929435D01*
X91225500Y-54830565D01*
X91199910Y-54735062D01*
X91150475Y-54649438D01*
X91080562Y-54579525D01*
X91012394Y-54540168D01*
X90964180Y-54489603D01*
X90950957Y-54420996D01*
X90976925Y-54356131D01*
X91012392Y-54325398D01*
X91055562Y-54300475D01*
X91055570Y-54300466D01*
X91057313Y-54299130D01*
X91059061Y-54298454D01*
X91062600Y-54296411D01*
X91062918Y-54296962D01*
X91122482Y-54273935D01*
X91190927Y-54287973D01*
X91194787Y-54290110D01*
X91255062Y-54324910D01*
X91350565Y-54350500D01*
X91350567Y-54350500D01*
X91449432Y-54350500D01*
X91449435Y-54350500D01*
X91544938Y-54324910D01*
X91553849Y-54319764D01*
X91621744Y-54303291D01*
X91677848Y-54319764D01*
X91730057Y-54349907D01*
X91730058Y-54349908D01*
X91730062Y-54349910D01*
X91775219Y-54362009D01*
X91834878Y-54398374D01*
X91865407Y-54461221D01*
X91857112Y-54530597D01*
X91824276Y-54572869D01*
X91825185Y-54573778D01*
X91749526Y-54649436D01*
X91700091Y-54735059D01*
X91700091Y-54735060D01*
X91700090Y-54735062D01*
X91674500Y-54830565D01*
X91674500Y-54929435D01*
X91700090Y-55024938D01*
X91749525Y-55110562D01*
X91819438Y-55180475D01*
X91905062Y-55229910D01*
X92000565Y-55255500D01*
X92000567Y-55255500D01*
X92099432Y-55255500D01*
X92099435Y-55255500D01*
X92194938Y-55229910D01*
X92280562Y-55180475D01*
X92350475Y-55110562D01*
X92367794Y-55080565D01*
X93324500Y-55080565D01*
X93324500Y-55179435D01*
X93350090Y-55274938D01*
X93399525Y-55360562D01*
X93469438Y-55430475D01*
X93555062Y-55479910D01*
X93650565Y-55505500D01*
X93650567Y-55505500D01*
X93749432Y-55505500D01*
X93749435Y-55505500D01*
X93844938Y-55479910D01*
X93930562Y-55430475D01*
X94000475Y-55360562D01*
X94049910Y-55274938D01*
X94075500Y-55179435D01*
X94075500Y-55080565D01*
X94049910Y-54985062D01*
X94000475Y-54899438D01*
X93930562Y-54829525D01*
X93844938Y-54780090D01*
X93749435Y-54754500D01*
X93650565Y-54754500D01*
X93555062Y-54780090D01*
X93555060Y-54780091D01*
X93555059Y-54780091D01*
X93469436Y-54829526D01*
X93399526Y-54899436D01*
X93350091Y-54985059D01*
X93350091Y-54985060D01*
X93350090Y-54985062D01*
X93324500Y-55080565D01*
X92367794Y-55080565D01*
X92399910Y-55024938D01*
X92425500Y-54929435D01*
X92425500Y-54830565D01*
X92399910Y-54735062D01*
X92350475Y-54649438D01*
X92280562Y-54579525D01*
X92194938Y-54530090D01*
X92194937Y-54530089D01*
X92194933Y-54530088D01*
X92149780Y-54517989D01*
X92090120Y-54481624D01*
X92059592Y-54418776D01*
X92067887Y-54349401D01*
X92100726Y-54307133D01*
X92099815Y-54306222D01*
X92162319Y-54243718D01*
X92223642Y-54210233D01*
X92293334Y-54215217D01*
X92337681Y-54243718D01*
X92369438Y-54275475D01*
X92455062Y-54324910D01*
X92550565Y-54350500D01*
X92550567Y-54350500D01*
X92649432Y-54350500D01*
X92649435Y-54350500D01*
X92744938Y-54324910D01*
X92830562Y-54275475D01*
X92900475Y-54205562D01*
X92949910Y-54119938D01*
X92975500Y-54024435D01*
X92975500Y-53925565D01*
X92949910Y-53830062D01*
X92939482Y-53812001D01*
X92923009Y-53744102D01*
X92939483Y-53687998D01*
X92940049Y-53687018D01*
X92949910Y-53669938D01*
X92975500Y-53574435D01*
X92975500Y-53475565D01*
X93424500Y-53475565D01*
X93424500Y-53574435D01*
X93450090Y-53669938D01*
X93450091Y-53669939D01*
X93450091Y-53669940D01*
X93460519Y-53688003D01*
X93476989Y-53755904D01*
X93460519Y-53811997D01*
X93450091Y-53830059D01*
X93450091Y-53830060D01*
X93450090Y-53830062D01*
X93424500Y-53925565D01*
X93424500Y-54024435D01*
X93450090Y-54119938D01*
X93499525Y-54205562D01*
X93569438Y-54275475D01*
X93655062Y-54324910D01*
X93750565Y-54350500D01*
X93750567Y-54350500D01*
X93849432Y-54350500D01*
X93849435Y-54350500D01*
X93944938Y-54324910D01*
X94030562Y-54275475D01*
X94062319Y-54243718D01*
X94123642Y-54210233D01*
X94193334Y-54215217D01*
X94237681Y-54243718D01*
X94294438Y-54300475D01*
X94380062Y-54349910D01*
X94475565Y-54375500D01*
X94475567Y-54375500D01*
X94574432Y-54375500D01*
X94574435Y-54375500D01*
X94669938Y-54349910D01*
X94722151Y-54319764D01*
X94790050Y-54303292D01*
X94846151Y-54319766D01*
X94855056Y-54324907D01*
X94855057Y-54324908D01*
X94855059Y-54324908D01*
X94855062Y-54324910D01*
X94950565Y-54350500D01*
X94950567Y-54350500D01*
X95049432Y-54350500D01*
X95049435Y-54350500D01*
X95144938Y-54324910D01*
X95230562Y-54275475D01*
X95262319Y-54243718D01*
X95323642Y-54210233D01*
X95393334Y-54215217D01*
X95437681Y-54243718D01*
X95494438Y-54300475D01*
X95580062Y-54349910D01*
X95675565Y-54375500D01*
X95675567Y-54375500D01*
X95774432Y-54375500D01*
X95774435Y-54375500D01*
X95869938Y-54349910D01*
X95922151Y-54319764D01*
X95990050Y-54303292D01*
X96046151Y-54319766D01*
X96055056Y-54324907D01*
X96055057Y-54324908D01*
X96055059Y-54324908D01*
X96055062Y-54324910D01*
X96150565Y-54350500D01*
X96150567Y-54350500D01*
X96249432Y-54350500D01*
X96249435Y-54350500D01*
X96344938Y-54324910D01*
X96430562Y-54275475D01*
X96462319Y-54243718D01*
X96523642Y-54210233D01*
X96593334Y-54215217D01*
X96637681Y-54243718D01*
X96694438Y-54300475D01*
X96780062Y-54349910D01*
X96875565Y-54375500D01*
X96875567Y-54375500D01*
X96974432Y-54375500D01*
X96974435Y-54375500D01*
X97069938Y-54349910D01*
X97122151Y-54319764D01*
X97190050Y-54303292D01*
X97246151Y-54319766D01*
X97255056Y-54324907D01*
X97255057Y-54324908D01*
X97255059Y-54324908D01*
X97255062Y-54324910D01*
X97350565Y-54350500D01*
X97350567Y-54350500D01*
X97449432Y-54350500D01*
X97449435Y-54350500D01*
X97544938Y-54324910D01*
X97630562Y-54275475D01*
X97662319Y-54243718D01*
X97723642Y-54210233D01*
X97793334Y-54215217D01*
X97837681Y-54243718D01*
X97894438Y-54300475D01*
X97980062Y-54349910D01*
X98075565Y-54375500D01*
X98075567Y-54375500D01*
X98174432Y-54375500D01*
X98174435Y-54375500D01*
X98269938Y-54349910D01*
X98322151Y-54319764D01*
X98390050Y-54303292D01*
X98446151Y-54319766D01*
X98455056Y-54324907D01*
X98455057Y-54324908D01*
X98455059Y-54324908D01*
X98455062Y-54324910D01*
X98550565Y-54350500D01*
X98550567Y-54350500D01*
X98649432Y-54350500D01*
X98649435Y-54350500D01*
X98744938Y-54324910D01*
X98830562Y-54275475D01*
X98862319Y-54243718D01*
X98923642Y-54210233D01*
X98993334Y-54215217D01*
X99037681Y-54243718D01*
X99094438Y-54300475D01*
X99180062Y-54349910D01*
X99275565Y-54375500D01*
X99275567Y-54375500D01*
X99374432Y-54375500D01*
X99374435Y-54375500D01*
X99469938Y-54349910D01*
X99522151Y-54319764D01*
X99590050Y-54303292D01*
X99646151Y-54319766D01*
X99655056Y-54324907D01*
X99655057Y-54324908D01*
X99655059Y-54324908D01*
X99655062Y-54324910D01*
X99750565Y-54350500D01*
X99750567Y-54350500D01*
X99849432Y-54350500D01*
X99849435Y-54350500D01*
X99944938Y-54324910D01*
X100030562Y-54275475D01*
X100062319Y-54243718D01*
X100123642Y-54210233D01*
X100193334Y-54215217D01*
X100237681Y-54243718D01*
X100294438Y-54300475D01*
X100380062Y-54349910D01*
X100475565Y-54375500D01*
X100475567Y-54375500D01*
X100574432Y-54375500D01*
X100574435Y-54375500D01*
X100669938Y-54349910D01*
X100722151Y-54319764D01*
X100790050Y-54303292D01*
X100846151Y-54319766D01*
X100855056Y-54324907D01*
X100855057Y-54324908D01*
X100855059Y-54324908D01*
X100855062Y-54324910D01*
X100950565Y-54350500D01*
X100950567Y-54350500D01*
X101049432Y-54350500D01*
X101049435Y-54350500D01*
X101144938Y-54324910D01*
X101230562Y-54275475D01*
X101262319Y-54243718D01*
X101323642Y-54210233D01*
X101393334Y-54215217D01*
X101437681Y-54243718D01*
X101494438Y-54300475D01*
X101580062Y-54349910D01*
X101675565Y-54375500D01*
X101675567Y-54375500D01*
X101774432Y-54375500D01*
X101774435Y-54375500D01*
X101869938Y-54349910D01*
X101922151Y-54319764D01*
X101990050Y-54303292D01*
X102046151Y-54319766D01*
X102055056Y-54324907D01*
X102055057Y-54324908D01*
X102055059Y-54324908D01*
X102055062Y-54324910D01*
X102150565Y-54350500D01*
X102150567Y-54350500D01*
X102249432Y-54350500D01*
X102249435Y-54350500D01*
X102344938Y-54324910D01*
X102430562Y-54275475D01*
X102500475Y-54205562D01*
X102549910Y-54119938D01*
X102575500Y-54024435D01*
X102575500Y-53925565D01*
X102549910Y-53830062D01*
X102500475Y-53744438D01*
X102430562Y-53674525D01*
X102344938Y-53625090D01*
X102249435Y-53599500D01*
X102150565Y-53599500D01*
X102055062Y-53625090D01*
X102055060Y-53625090D01*
X102055060Y-53625091D01*
X102055057Y-53625092D01*
X102002847Y-53655235D01*
X101934947Y-53671706D01*
X101878853Y-53655236D01*
X101869944Y-53650093D01*
X101869941Y-53650091D01*
X101869938Y-53650090D01*
X101774435Y-53624500D01*
X101675565Y-53624500D01*
X101580062Y-53650090D01*
X101580060Y-53650091D01*
X101580059Y-53650091D01*
X101494436Y-53699526D01*
X101462681Y-53731282D01*
X101401358Y-53764767D01*
X101331666Y-53759783D01*
X101287319Y-53731282D01*
X101230563Y-53674526D01*
X101230562Y-53674525D01*
X101144938Y-53625090D01*
X101049435Y-53599500D01*
X100950565Y-53599500D01*
X100855062Y-53625090D01*
X100855060Y-53625090D01*
X100855060Y-53625091D01*
X100855057Y-53625092D01*
X100802847Y-53655235D01*
X100734947Y-53671706D01*
X100678853Y-53655236D01*
X100669944Y-53650093D01*
X100669941Y-53650091D01*
X100669938Y-53650090D01*
X100574435Y-53624500D01*
X100475565Y-53624500D01*
X100380062Y-53650090D01*
X100380060Y-53650091D01*
X100380059Y-53650091D01*
X100294436Y-53699526D01*
X100262681Y-53731282D01*
X100201358Y-53764767D01*
X100131666Y-53759783D01*
X100087319Y-53731282D01*
X100030563Y-53674526D01*
X100030562Y-53674525D01*
X99944938Y-53625090D01*
X99849435Y-53599500D01*
X99750565Y-53599500D01*
X99655062Y-53625090D01*
X99655060Y-53625090D01*
X99655060Y-53625091D01*
X99655057Y-53625092D01*
X99602847Y-53655235D01*
X99534947Y-53671706D01*
X99478853Y-53655236D01*
X99469944Y-53650093D01*
X99469941Y-53650091D01*
X99469938Y-53650090D01*
X99374435Y-53624500D01*
X99275565Y-53624500D01*
X99180062Y-53650090D01*
X99180060Y-53650091D01*
X99180059Y-53650091D01*
X99094436Y-53699526D01*
X99062681Y-53731282D01*
X99001358Y-53764767D01*
X98931666Y-53759783D01*
X98887319Y-53731282D01*
X98830563Y-53674526D01*
X98830562Y-53674525D01*
X98744938Y-53625090D01*
X98649435Y-53599500D01*
X98550565Y-53599500D01*
X98455062Y-53625090D01*
X98455060Y-53625090D01*
X98455060Y-53625091D01*
X98455057Y-53625092D01*
X98402847Y-53655235D01*
X98334947Y-53671706D01*
X98278853Y-53655236D01*
X98269944Y-53650093D01*
X98269941Y-53650091D01*
X98269938Y-53650090D01*
X98174435Y-53624500D01*
X98075565Y-53624500D01*
X97980062Y-53650090D01*
X97980060Y-53650091D01*
X97980059Y-53650091D01*
X97894436Y-53699526D01*
X97862681Y-53731282D01*
X97801358Y-53764767D01*
X97731666Y-53759783D01*
X97687319Y-53731282D01*
X97630563Y-53674526D01*
X97630562Y-53674525D01*
X97544938Y-53625090D01*
X97449435Y-53599500D01*
X97350565Y-53599500D01*
X97255062Y-53625090D01*
X97255060Y-53625090D01*
X97255060Y-53625091D01*
X97255057Y-53625092D01*
X97202847Y-53655235D01*
X97134947Y-53671706D01*
X97078853Y-53655236D01*
X97069944Y-53650093D01*
X97069941Y-53650091D01*
X97069938Y-53650090D01*
X96974435Y-53624500D01*
X96875565Y-53624500D01*
X96780062Y-53650090D01*
X96780060Y-53650091D01*
X96780059Y-53650091D01*
X96694436Y-53699526D01*
X96662681Y-53731282D01*
X96601358Y-53764767D01*
X96531666Y-53759783D01*
X96487319Y-53731282D01*
X96430563Y-53674526D01*
X96430562Y-53674525D01*
X96344938Y-53625090D01*
X96249435Y-53599500D01*
X96150565Y-53599500D01*
X96055062Y-53625090D01*
X96055060Y-53625090D01*
X96055060Y-53625091D01*
X96055057Y-53625092D01*
X96002847Y-53655235D01*
X95934947Y-53671706D01*
X95878853Y-53655236D01*
X95869944Y-53650093D01*
X95869941Y-53650091D01*
X95869938Y-53650090D01*
X95774435Y-53624500D01*
X95675565Y-53624500D01*
X95580062Y-53650090D01*
X95580060Y-53650091D01*
X95580059Y-53650091D01*
X95494436Y-53699526D01*
X95462681Y-53731282D01*
X95401358Y-53764767D01*
X95331666Y-53759783D01*
X95287319Y-53731282D01*
X95230563Y-53674526D01*
X95230562Y-53674525D01*
X95144938Y-53625090D01*
X95049435Y-53599500D01*
X94950565Y-53599500D01*
X94855062Y-53625090D01*
X94855060Y-53625090D01*
X94855060Y-53625091D01*
X94855057Y-53625092D01*
X94802847Y-53655235D01*
X94734947Y-53671706D01*
X94678853Y-53655236D01*
X94669944Y-53650093D01*
X94669941Y-53650091D01*
X94669938Y-53650090D01*
X94574435Y-53624500D01*
X94475565Y-53624500D01*
X94380062Y-53650090D01*
X94361498Y-53660808D01*
X94293597Y-53677278D01*
X94227571Y-53654425D01*
X94184381Y-53599503D01*
X94175500Y-53553419D01*
X94175500Y-53475567D01*
X94175500Y-53475565D01*
X94149910Y-53380062D01*
X94100475Y-53294438D01*
X94030562Y-53224525D01*
X93944938Y-53175090D01*
X93849435Y-53149500D01*
X93750565Y-53149500D01*
X93655062Y-53175090D01*
X93655060Y-53175091D01*
X93655059Y-53175091D01*
X93569436Y-53224526D01*
X93499526Y-53294436D01*
X93450091Y-53380059D01*
X93450091Y-53380060D01*
X93450090Y-53380062D01*
X93424500Y-53475565D01*
X92975500Y-53475565D01*
X92949910Y-53380062D01*
X92900475Y-53294438D01*
X92830562Y-53224525D01*
X92744938Y-53175090D01*
X92649435Y-53149500D01*
X92550565Y-53149500D01*
X92455062Y-53175090D01*
X92455060Y-53175091D01*
X92455059Y-53175091D01*
X92369436Y-53224526D01*
X92299526Y-53294436D01*
X92250091Y-53380059D01*
X92250091Y-53380060D01*
X92250090Y-53380062D01*
X92224500Y-53475565D01*
X92224500Y-53475567D01*
X92224500Y-53553419D01*
X92204815Y-53620458D01*
X92152011Y-53666213D01*
X92082853Y-53676157D01*
X92038502Y-53660808D01*
X92027446Y-53654425D01*
X92019938Y-53650090D01*
X91924435Y-53624500D01*
X91825565Y-53624500D01*
X91730062Y-53650090D01*
X91730060Y-53650090D01*
X91730060Y-53650091D01*
X91730057Y-53650092D01*
X91721148Y-53655236D01*
X91653248Y-53671707D01*
X91597152Y-53655236D01*
X91544938Y-53625090D01*
X91449435Y-53599500D01*
X91350565Y-53599500D01*
X91255062Y-53625090D01*
X91255060Y-53625091D01*
X91255059Y-53625091D01*
X91169431Y-53674529D01*
X91167672Y-53675879D01*
X91165923Y-53676554D01*
X91162400Y-53678589D01*
X91162082Y-53678039D01*
X91102500Y-53701065D01*
X91034057Y-53687018D01*
X91030198Y-53684881D01*
X90969940Y-53650091D01*
X90969939Y-53650090D01*
X90969938Y-53650090D01*
X90874435Y-53624500D01*
X90775565Y-53624500D01*
X90680062Y-53650090D01*
X90680060Y-53650091D01*
X90680059Y-53650091D01*
X90588795Y-53702783D01*
X90520895Y-53719256D01*
X90454868Y-53696403D01*
X90439114Y-53683077D01*
X90430563Y-53674526D01*
X90430562Y-53674525D01*
X90344938Y-53625090D01*
X90249435Y-53599500D01*
X90150565Y-53599500D01*
X90055062Y-53625090D01*
X90055060Y-53625091D01*
X90055059Y-53625091D01*
X89969431Y-53674529D01*
X89967672Y-53675879D01*
X89965923Y-53676554D01*
X89962400Y-53678589D01*
X89962082Y-53678039D01*
X89902500Y-53701065D01*
X89834057Y-53687018D01*
X89830198Y-53684881D01*
X89769940Y-53650091D01*
X89769939Y-53650090D01*
X89769938Y-53650090D01*
X89674435Y-53624500D01*
X89575565Y-53624500D01*
X89480062Y-53650090D01*
X89480060Y-53650091D01*
X89480059Y-53650091D01*
X89388795Y-53702783D01*
X89320895Y-53719256D01*
X89254868Y-53696403D01*
X89239114Y-53683077D01*
X89230563Y-53674526D01*
X89230562Y-53674525D01*
X89144938Y-53625090D01*
X89049435Y-53599500D01*
X88950565Y-53599500D01*
X88855062Y-53625090D01*
X88855060Y-53625091D01*
X88855059Y-53625091D01*
X88769436Y-53674526D01*
X88712681Y-53731282D01*
X88651358Y-53764767D01*
X88581666Y-53759783D01*
X88537319Y-53731282D01*
X88505563Y-53699526D01*
X88505562Y-53699525D01*
X88419938Y-53650090D01*
X88324435Y-53624500D01*
X88225565Y-53624500D01*
X88130062Y-53650090D01*
X88130060Y-53650090D01*
X88130060Y-53650091D01*
X88130057Y-53650092D01*
X88121148Y-53655236D01*
X88053248Y-53671707D01*
X87997152Y-53655236D01*
X87944938Y-53625090D01*
X87849435Y-53599500D01*
X87750565Y-53599500D01*
X87655062Y-53625090D01*
X87655060Y-53625091D01*
X87655059Y-53625091D01*
X87569431Y-53674529D01*
X87567672Y-53675879D01*
X87565923Y-53676554D01*
X87562400Y-53678589D01*
X87562082Y-53678039D01*
X87502500Y-53701065D01*
X87434057Y-53687018D01*
X87430198Y-53684881D01*
X87369940Y-53650091D01*
X87369939Y-53650090D01*
X87369938Y-53650090D01*
X87274435Y-53624500D01*
X87175565Y-53624500D01*
X87080062Y-53650090D01*
X87080060Y-53650091D01*
X87080059Y-53650091D01*
X86988795Y-53702783D01*
X86920895Y-53719256D01*
X86854868Y-53696403D01*
X86839114Y-53683077D01*
X86830563Y-53674526D01*
X86830562Y-53674525D01*
X86744938Y-53625090D01*
X86649435Y-53599500D01*
X86550565Y-53599500D01*
X86455062Y-53625090D01*
X86455060Y-53625091D01*
X86455059Y-53625091D01*
X86369436Y-53674526D01*
X86312681Y-53731282D01*
X86251358Y-53764767D01*
X86181666Y-53759783D01*
X86137319Y-53731282D01*
X86105563Y-53699526D01*
X86105562Y-53699525D01*
X86019938Y-53650090D01*
X85924435Y-53624500D01*
X85825565Y-53624500D01*
X85730062Y-53650090D01*
X85730060Y-53650090D01*
X85730060Y-53650091D01*
X85730057Y-53650092D01*
X85721148Y-53655236D01*
X85653248Y-53671707D01*
X85597152Y-53655236D01*
X85544938Y-53625090D01*
X85449435Y-53599500D01*
X85350565Y-53599500D01*
X85255062Y-53625090D01*
X85255060Y-53625091D01*
X85255059Y-53625091D01*
X85169436Y-53674526D01*
X85099526Y-53744436D01*
X85050091Y-53830059D01*
X85050091Y-53830060D01*
X85050090Y-53830062D01*
X85024500Y-53925565D01*
X30826562Y-53925565D01*
X30782438Y-53900090D01*
X30686935Y-53874500D01*
X30588065Y-53874500D01*
X30492562Y-53900090D01*
X30492560Y-53900091D01*
X30492559Y-53900091D01*
X30406936Y-53949526D01*
X30337026Y-54019436D01*
X30287591Y-54105059D01*
X30287591Y-54105060D01*
X30287590Y-54105062D01*
X30262000Y-54200565D01*
X23500500Y-54200565D01*
X23500500Y-53443982D01*
X29224500Y-53443982D01*
X29224500Y-53556018D01*
X29249707Y-53650090D01*
X29253497Y-53664236D01*
X29253498Y-53664239D01*
X29260379Y-53676157D01*
X29309515Y-53761263D01*
X29388737Y-53840485D01*
X29485763Y-53896503D01*
X29593982Y-53925500D01*
X29593984Y-53925500D01*
X29706016Y-53925500D01*
X29706018Y-53925500D01*
X29814237Y-53896503D01*
X29911263Y-53840485D01*
X29990485Y-53761263D01*
X30046503Y-53664237D01*
X30075500Y-53556018D01*
X30075500Y-53443982D01*
X30046503Y-53335763D01*
X29990485Y-53238737D01*
X29911263Y-53159515D01*
X29814237Y-53103497D01*
X29706018Y-53074500D01*
X29593982Y-53074500D01*
X29485763Y-53103497D01*
X29485760Y-53103498D01*
X29388740Y-53159513D01*
X29388734Y-53159517D01*
X29309517Y-53238734D01*
X29309513Y-53238740D01*
X29253498Y-53335760D01*
X29253497Y-53335763D01*
X29224500Y-53443982D01*
X23500500Y-53443982D01*
X23500500Y-52940565D01*
X82534500Y-52940565D01*
X82534500Y-53039435D01*
X82560090Y-53134938D01*
X82609525Y-53220562D01*
X82679438Y-53290475D01*
X82765062Y-53339910D01*
X82860565Y-53365500D01*
X82860567Y-53365500D01*
X82959432Y-53365500D01*
X82959435Y-53365500D01*
X83054938Y-53339910D01*
X83140562Y-53290475D01*
X83210475Y-53220562D01*
X83259910Y-53134938D01*
X83285500Y-53039435D01*
X83285500Y-52940565D01*
X83259910Y-52845062D01*
X83210475Y-52759438D01*
X83140562Y-52689525D01*
X83054938Y-52640090D01*
X82959435Y-52614500D01*
X82860565Y-52614500D01*
X82765062Y-52640090D01*
X82765060Y-52640091D01*
X82765059Y-52640091D01*
X82679436Y-52689526D01*
X82609526Y-52759436D01*
X82560091Y-52845059D01*
X82560091Y-52845060D01*
X82560090Y-52845062D01*
X82534500Y-52940565D01*
X23500500Y-52940565D01*
X23500500Y-52050565D01*
X27374500Y-52050565D01*
X27374500Y-52149435D01*
X27400090Y-52244938D01*
X27449525Y-52330562D01*
X27519438Y-52400475D01*
X27605062Y-52449910D01*
X27700565Y-52475500D01*
X27700567Y-52475500D01*
X27799432Y-52475500D01*
X27799435Y-52475500D01*
X27894938Y-52449910D01*
X27980562Y-52400475D01*
X28050475Y-52330562D01*
X28058556Y-52316565D01*
X83924500Y-52316565D01*
X83924500Y-52415435D01*
X83950090Y-52510938D01*
X83999525Y-52596562D01*
X84069438Y-52666475D01*
X84155062Y-52715910D01*
X84250565Y-52741500D01*
X84250567Y-52741500D01*
X84349432Y-52741500D01*
X84349435Y-52741500D01*
X84444938Y-52715910D01*
X84530562Y-52666475D01*
X84600475Y-52596562D01*
X84649910Y-52510938D01*
X84675500Y-52415435D01*
X84675500Y-52316565D01*
X85124500Y-52316565D01*
X85124500Y-52415435D01*
X85150090Y-52510938D01*
X85199525Y-52596562D01*
X85269438Y-52666475D01*
X85355062Y-52715910D01*
X85450565Y-52741500D01*
X85450567Y-52741500D01*
X85549432Y-52741500D01*
X85549435Y-52741500D01*
X85644938Y-52715910D01*
X85730562Y-52666475D01*
X85800475Y-52596562D01*
X85849910Y-52510938D01*
X85875500Y-52415435D01*
X85875500Y-52316565D01*
X86324500Y-52316565D01*
X86324500Y-52415435D01*
X86350090Y-52510938D01*
X86399525Y-52596562D01*
X86469438Y-52666475D01*
X86555062Y-52715910D01*
X86650565Y-52741500D01*
X86650567Y-52741500D01*
X86749432Y-52741500D01*
X86749435Y-52741500D01*
X86844938Y-52715910D01*
X86930562Y-52666475D01*
X87000475Y-52596562D01*
X87049910Y-52510938D01*
X87075500Y-52415435D01*
X87075500Y-52316565D01*
X87524500Y-52316565D01*
X87524500Y-52415435D01*
X87550090Y-52510938D01*
X87599525Y-52596562D01*
X87669438Y-52666475D01*
X87755062Y-52715910D01*
X87850565Y-52741500D01*
X87850567Y-52741500D01*
X87949432Y-52741500D01*
X87949435Y-52741500D01*
X88044938Y-52715910D01*
X88130562Y-52666475D01*
X88200475Y-52596562D01*
X88249910Y-52510938D01*
X88275500Y-52415435D01*
X88275500Y-52316565D01*
X88724500Y-52316565D01*
X88724500Y-52415435D01*
X88750090Y-52510938D01*
X88799525Y-52596562D01*
X88869438Y-52666475D01*
X88955062Y-52715910D01*
X89050565Y-52741500D01*
X89050567Y-52741500D01*
X89149432Y-52741500D01*
X89149435Y-52741500D01*
X89244938Y-52715910D01*
X89330562Y-52666475D01*
X89400475Y-52596562D01*
X89449910Y-52510938D01*
X89475500Y-52415435D01*
X89475500Y-52316565D01*
X89924500Y-52316565D01*
X89924500Y-52415435D01*
X89950090Y-52510938D01*
X89999525Y-52596562D01*
X90069438Y-52666475D01*
X90155062Y-52715910D01*
X90250565Y-52741500D01*
X90250567Y-52741500D01*
X90349432Y-52741500D01*
X90349435Y-52741500D01*
X90444938Y-52715910D01*
X90530562Y-52666475D01*
X90600475Y-52596562D01*
X90649910Y-52510938D01*
X90675500Y-52415435D01*
X90675500Y-52316565D01*
X91124500Y-52316565D01*
X91124500Y-52415435D01*
X91150090Y-52510938D01*
X91199525Y-52596562D01*
X91269438Y-52666475D01*
X91355062Y-52715910D01*
X91450565Y-52741500D01*
X91450567Y-52741500D01*
X91549432Y-52741500D01*
X91549435Y-52741500D01*
X91644938Y-52715910D01*
X91730562Y-52666475D01*
X91800475Y-52596562D01*
X91849910Y-52510938D01*
X91875500Y-52415435D01*
X91875500Y-52316565D01*
X92324500Y-52316565D01*
X92324500Y-52415435D01*
X92350090Y-52510938D01*
X92399525Y-52596562D01*
X92469438Y-52666475D01*
X92555062Y-52715910D01*
X92650565Y-52741500D01*
X92650567Y-52741500D01*
X92749432Y-52741500D01*
X92749435Y-52741500D01*
X92844938Y-52715910D01*
X92930562Y-52666475D01*
X93000475Y-52596562D01*
X93049910Y-52510938D01*
X93075500Y-52415435D01*
X93075500Y-52316565D01*
X93049910Y-52221062D01*
X93000475Y-52135438D01*
X92930562Y-52065525D01*
X92844938Y-52016090D01*
X92749435Y-51990500D01*
X92650565Y-51990500D01*
X92555062Y-52016090D01*
X92555060Y-52016091D01*
X92555059Y-52016091D01*
X92469436Y-52065526D01*
X92399526Y-52135436D01*
X92350091Y-52221059D01*
X92350091Y-52221060D01*
X92350090Y-52221062D01*
X92324500Y-52316565D01*
X91875500Y-52316565D01*
X91849910Y-52221062D01*
X91800475Y-52135438D01*
X91730562Y-52065525D01*
X91644938Y-52016090D01*
X91549435Y-51990500D01*
X91450565Y-51990500D01*
X91355062Y-52016090D01*
X91355060Y-52016091D01*
X91355059Y-52016091D01*
X91269436Y-52065526D01*
X91199526Y-52135436D01*
X91150091Y-52221059D01*
X91150091Y-52221060D01*
X91150090Y-52221062D01*
X91124500Y-52316565D01*
X90675500Y-52316565D01*
X90649910Y-52221062D01*
X90600475Y-52135438D01*
X90530562Y-52065525D01*
X90444938Y-52016090D01*
X90349435Y-51990500D01*
X90250565Y-51990500D01*
X90155062Y-52016090D01*
X90155060Y-52016091D01*
X90155059Y-52016091D01*
X90069436Y-52065526D01*
X89999526Y-52135436D01*
X89950091Y-52221059D01*
X89950091Y-52221060D01*
X89950090Y-52221062D01*
X89924500Y-52316565D01*
X89475500Y-52316565D01*
X89449910Y-52221062D01*
X89400475Y-52135438D01*
X89330562Y-52065525D01*
X89244938Y-52016090D01*
X89149435Y-51990500D01*
X89050565Y-51990500D01*
X88955062Y-52016090D01*
X88955060Y-52016091D01*
X88955059Y-52016091D01*
X88869436Y-52065526D01*
X88799526Y-52135436D01*
X88750091Y-52221059D01*
X88750091Y-52221060D01*
X88750090Y-52221062D01*
X88724500Y-52316565D01*
X88275500Y-52316565D01*
X88249910Y-52221062D01*
X88200475Y-52135438D01*
X88130562Y-52065525D01*
X88044938Y-52016090D01*
X87949435Y-51990500D01*
X87850565Y-51990500D01*
X87755062Y-52016090D01*
X87755060Y-52016091D01*
X87755059Y-52016091D01*
X87669436Y-52065526D01*
X87599526Y-52135436D01*
X87550091Y-52221059D01*
X87550091Y-52221060D01*
X87550090Y-52221062D01*
X87524500Y-52316565D01*
X87075500Y-52316565D01*
X87049910Y-52221062D01*
X87000475Y-52135438D01*
X86930562Y-52065525D01*
X86844938Y-52016090D01*
X86749435Y-51990500D01*
X86650565Y-51990500D01*
X86555062Y-52016090D01*
X86555060Y-52016091D01*
X86555059Y-52016091D01*
X86469436Y-52065526D01*
X86399526Y-52135436D01*
X86350091Y-52221059D01*
X86350091Y-52221060D01*
X86350090Y-52221062D01*
X86324500Y-52316565D01*
X85875500Y-52316565D01*
X85849910Y-52221062D01*
X85800475Y-52135438D01*
X85730562Y-52065525D01*
X85644938Y-52016090D01*
X85549435Y-51990500D01*
X85450565Y-51990500D01*
X85355062Y-52016090D01*
X85355060Y-52016091D01*
X85355059Y-52016091D01*
X85269436Y-52065526D01*
X85199526Y-52135436D01*
X85150091Y-52221059D01*
X85150091Y-52221060D01*
X85150090Y-52221062D01*
X85124500Y-52316565D01*
X84675500Y-52316565D01*
X84649910Y-52221062D01*
X84600475Y-52135438D01*
X84530562Y-52065525D01*
X84444938Y-52016090D01*
X84349435Y-51990500D01*
X84250565Y-51990500D01*
X84155062Y-52016090D01*
X84155060Y-52016091D01*
X84155059Y-52016091D01*
X84069436Y-52065526D01*
X83999526Y-52135436D01*
X83950091Y-52221059D01*
X83950091Y-52221060D01*
X83950090Y-52221062D01*
X83924500Y-52316565D01*
X28058556Y-52316565D01*
X28099910Y-52244938D01*
X28125500Y-52149435D01*
X28125500Y-52050565D01*
X28099910Y-51955062D01*
X28050475Y-51869438D01*
X27980562Y-51799525D01*
X27894938Y-51750090D01*
X27799435Y-51724500D01*
X27700565Y-51724500D01*
X27605062Y-51750090D01*
X27605060Y-51750091D01*
X27605059Y-51750091D01*
X27519436Y-51799526D01*
X27449526Y-51869436D01*
X27400091Y-51955059D01*
X27400091Y-51955060D01*
X27400090Y-51955062D01*
X27374500Y-52050565D01*
X23500500Y-52050565D01*
X23500500Y-50690565D01*
X38874500Y-50690565D01*
X38874500Y-50789435D01*
X38900090Y-50884938D01*
X38949525Y-50970562D01*
X39019438Y-51040475D01*
X39105062Y-51089910D01*
X39200565Y-51115500D01*
X39200567Y-51115500D01*
X39299432Y-51115500D01*
X39299435Y-51115500D01*
X39394938Y-51089910D01*
X39480562Y-51040475D01*
X39550475Y-50970562D01*
X39599910Y-50884938D01*
X39609120Y-50850565D01*
X47024500Y-50850565D01*
X47024500Y-50949435D01*
X47050090Y-51044938D01*
X47099525Y-51130562D01*
X47169438Y-51200475D01*
X47255062Y-51249910D01*
X47350565Y-51275500D01*
X47350567Y-51275500D01*
X47449432Y-51275500D01*
X47449435Y-51275500D01*
X47544938Y-51249910D01*
X47630562Y-51200475D01*
X47700475Y-51130562D01*
X47749910Y-51044938D01*
X47775500Y-50949435D01*
X47775500Y-50850565D01*
X47749910Y-50755062D01*
X47700475Y-50669438D01*
X47630562Y-50599525D01*
X47544938Y-50550090D01*
X47449435Y-50524500D01*
X47350565Y-50524500D01*
X47255062Y-50550090D01*
X47255060Y-50550091D01*
X47255059Y-50550091D01*
X47169436Y-50599526D01*
X47099526Y-50669436D01*
X47050091Y-50755059D01*
X47050091Y-50755060D01*
X47050090Y-50755062D01*
X47024500Y-50850565D01*
X39609120Y-50850565D01*
X39625500Y-50789435D01*
X39625500Y-50690565D01*
X39599910Y-50595062D01*
X39550475Y-50509438D01*
X39480562Y-50439525D01*
X39394938Y-50390090D01*
X39299435Y-50364500D01*
X39200565Y-50364500D01*
X39105062Y-50390090D01*
X39105060Y-50390091D01*
X39105059Y-50390091D01*
X39019436Y-50439526D01*
X38949526Y-50509436D01*
X38900091Y-50595059D01*
X38900091Y-50595060D01*
X38900090Y-50595062D01*
X38874500Y-50690565D01*
X23500500Y-50690565D01*
X23500500Y-50090565D01*
X39734500Y-50090565D01*
X39734500Y-50189435D01*
X39760090Y-50284938D01*
X39760091Y-50284939D01*
X39760091Y-50284940D01*
X39764492Y-50292562D01*
X39809525Y-50370562D01*
X39879438Y-50440475D01*
X39965062Y-50489910D01*
X40060565Y-50515500D01*
X40060567Y-50515500D01*
X40159432Y-50515500D01*
X40159435Y-50515500D01*
X40254938Y-50489910D01*
X40340562Y-50440475D01*
X40399555Y-50381482D01*
X51074500Y-50381482D01*
X51074500Y-50493518D01*
X51102905Y-50599525D01*
X51103497Y-50601736D01*
X51103497Y-50601737D01*
X51117217Y-50625501D01*
X51133688Y-50693402D01*
X51117217Y-50749499D01*
X51103497Y-50773262D01*
X51103497Y-50773263D01*
X51074500Y-50881482D01*
X51074500Y-50993518D01*
X51100328Y-51089908D01*
X51103497Y-51101736D01*
X51103498Y-51101739D01*
X51120139Y-51130562D01*
X51159515Y-51198763D01*
X51238737Y-51277985D01*
X51335763Y-51334003D01*
X51443982Y-51363000D01*
X51443984Y-51363000D01*
X51556016Y-51363000D01*
X51556018Y-51363000D01*
X51664237Y-51334003D01*
X51761263Y-51277985D01*
X51840485Y-51198763D01*
X51859652Y-51165565D01*
X82491200Y-51165565D01*
X82491200Y-51264435D01*
X82516790Y-51359938D01*
X82516791Y-51359939D01*
X82516791Y-51359940D01*
X82524659Y-51373567D01*
X82566225Y-51445562D01*
X82636138Y-51515475D01*
X82721762Y-51564910D01*
X82817265Y-51590500D01*
X82817267Y-51590500D01*
X82916132Y-51590500D01*
X82916135Y-51590500D01*
X83011638Y-51564910D01*
X83097262Y-51515475D01*
X83167175Y-51445562D01*
X83208742Y-51373565D01*
X84474500Y-51373565D01*
X84474500Y-51472435D01*
X84500090Y-51567938D01*
X84549525Y-51653562D01*
X84619438Y-51723475D01*
X84705062Y-51772910D01*
X84800565Y-51798500D01*
X84800567Y-51798500D01*
X84899432Y-51798500D01*
X84899435Y-51798500D01*
X84994938Y-51772910D01*
X85080562Y-51723475D01*
X85150475Y-51653562D01*
X85199910Y-51567938D01*
X85225500Y-51472435D01*
X85225500Y-51373565D01*
X85674500Y-51373565D01*
X85674500Y-51472435D01*
X85700090Y-51567938D01*
X85749525Y-51653562D01*
X85819438Y-51723475D01*
X85905062Y-51772910D01*
X86000565Y-51798500D01*
X86000567Y-51798500D01*
X86099432Y-51798500D01*
X86099435Y-51798500D01*
X86194938Y-51772910D01*
X86280562Y-51723475D01*
X86350475Y-51653562D01*
X86399910Y-51567938D01*
X86425500Y-51472435D01*
X86425500Y-51373565D01*
X86874500Y-51373565D01*
X86874500Y-51472435D01*
X86900090Y-51567938D01*
X86949525Y-51653562D01*
X87019438Y-51723475D01*
X87105062Y-51772910D01*
X87200565Y-51798500D01*
X87200567Y-51798500D01*
X87299432Y-51798500D01*
X87299435Y-51798500D01*
X87394938Y-51772910D01*
X87480562Y-51723475D01*
X87550475Y-51653562D01*
X87599910Y-51567938D01*
X87625500Y-51472435D01*
X87625500Y-51373565D01*
X88074500Y-51373565D01*
X88074500Y-51472435D01*
X88100090Y-51567938D01*
X88149525Y-51653562D01*
X88219438Y-51723475D01*
X88305062Y-51772910D01*
X88400565Y-51798500D01*
X88400567Y-51798500D01*
X88499432Y-51798500D01*
X88499435Y-51798500D01*
X88594938Y-51772910D01*
X88680562Y-51723475D01*
X88750475Y-51653562D01*
X88799910Y-51567938D01*
X88825500Y-51472435D01*
X88825500Y-51373565D01*
X89274500Y-51373565D01*
X89274500Y-51472435D01*
X89300090Y-51567938D01*
X89349525Y-51653562D01*
X89419438Y-51723475D01*
X89505062Y-51772910D01*
X89600565Y-51798500D01*
X89600567Y-51798500D01*
X89699432Y-51798500D01*
X89699435Y-51798500D01*
X89794938Y-51772910D01*
X89880562Y-51723475D01*
X89950475Y-51653562D01*
X89999910Y-51567938D01*
X90025500Y-51472435D01*
X90025500Y-51373565D01*
X90474500Y-51373565D01*
X90474500Y-51472435D01*
X90500090Y-51567938D01*
X90549525Y-51653562D01*
X90619438Y-51723475D01*
X90705062Y-51772910D01*
X90800565Y-51798500D01*
X90800567Y-51798500D01*
X90899432Y-51798500D01*
X90899435Y-51798500D01*
X90994938Y-51772910D01*
X91080562Y-51723475D01*
X91150475Y-51653562D01*
X91199910Y-51567938D01*
X91225500Y-51472435D01*
X91225500Y-51373565D01*
X91674500Y-51373565D01*
X91674500Y-51472435D01*
X91700090Y-51567938D01*
X91749525Y-51653562D01*
X91819438Y-51723475D01*
X91905062Y-51772910D01*
X92000565Y-51798500D01*
X92000567Y-51798500D01*
X92099432Y-51798500D01*
X92099435Y-51798500D01*
X92194938Y-51772910D01*
X92280562Y-51723475D01*
X92350475Y-51653562D01*
X92367794Y-51623565D01*
X93324500Y-51623565D01*
X93324500Y-51722435D01*
X93350090Y-51817938D01*
X93399525Y-51903562D01*
X93469438Y-51973475D01*
X93555062Y-52022910D01*
X93650565Y-52048500D01*
X93650567Y-52048500D01*
X93749432Y-52048500D01*
X93749435Y-52048500D01*
X93844938Y-52022910D01*
X93930562Y-51973475D01*
X94000475Y-51903562D01*
X94042851Y-51830165D01*
X102674500Y-51830165D01*
X102674500Y-51929035D01*
X102700090Y-52024538D01*
X102749525Y-52110162D01*
X102819438Y-52180075D01*
X102905062Y-52229510D01*
X103000565Y-52255100D01*
X103000567Y-52255100D01*
X103099432Y-52255100D01*
X103099435Y-52255100D01*
X103194938Y-52229510D01*
X103280562Y-52180075D01*
X103350475Y-52110162D01*
X103390657Y-52040565D01*
X104749500Y-52040565D01*
X104749500Y-52139435D01*
X104775090Y-52234938D01*
X104824525Y-52320562D01*
X104894438Y-52390475D01*
X104980062Y-52439910D01*
X105075565Y-52465500D01*
X105075567Y-52465500D01*
X105174432Y-52465500D01*
X105174435Y-52465500D01*
X105269938Y-52439910D01*
X105355562Y-52390475D01*
X105425475Y-52320562D01*
X105474910Y-52234938D01*
X105500500Y-52139435D01*
X105500500Y-52040565D01*
X105474910Y-51945062D01*
X105425475Y-51859438D01*
X105355562Y-51789525D01*
X105269938Y-51740090D01*
X105174435Y-51714500D01*
X105075565Y-51714500D01*
X104980062Y-51740090D01*
X104980060Y-51740091D01*
X104980059Y-51740091D01*
X104894436Y-51789526D01*
X104824526Y-51859436D01*
X104775091Y-51945059D01*
X104775091Y-51945060D01*
X104775090Y-51945062D01*
X104749500Y-52040565D01*
X103390657Y-52040565D01*
X103399910Y-52024538D01*
X103425500Y-51929035D01*
X103425500Y-51830165D01*
X103399910Y-51734662D01*
X103350475Y-51649038D01*
X103280562Y-51579125D01*
X103194938Y-51529690D01*
X103099435Y-51504100D01*
X103000565Y-51504100D01*
X102905062Y-51529690D01*
X102905060Y-51529691D01*
X102905059Y-51529691D01*
X102819436Y-51579126D01*
X102749526Y-51649036D01*
X102700091Y-51734659D01*
X102700091Y-51734660D01*
X102700090Y-51734662D01*
X102674500Y-51830165D01*
X94042851Y-51830165D01*
X94049910Y-51817938D01*
X94075500Y-51722435D01*
X94075500Y-51623565D01*
X94049910Y-51528062D01*
X94000475Y-51442438D01*
X93930562Y-51372525D01*
X93844938Y-51323090D01*
X93749435Y-51297500D01*
X93650565Y-51297500D01*
X93555062Y-51323090D01*
X93555060Y-51323091D01*
X93555059Y-51323091D01*
X93469436Y-51372526D01*
X93399526Y-51442436D01*
X93350091Y-51528059D01*
X93350091Y-51528060D01*
X93350090Y-51528062D01*
X93324500Y-51623565D01*
X92367794Y-51623565D01*
X92399910Y-51567938D01*
X92425500Y-51472435D01*
X92425500Y-51373565D01*
X92399910Y-51278062D01*
X92350475Y-51192438D01*
X92280562Y-51122525D01*
X92194938Y-51073090D01*
X92099435Y-51047500D01*
X92000565Y-51047500D01*
X91905062Y-51073090D01*
X91905060Y-51073091D01*
X91905059Y-51073091D01*
X91819436Y-51122526D01*
X91749526Y-51192436D01*
X91700091Y-51278059D01*
X91700091Y-51278060D01*
X91700090Y-51278062D01*
X91674500Y-51373565D01*
X91225500Y-51373565D01*
X91199910Y-51278062D01*
X91150475Y-51192438D01*
X91080562Y-51122525D01*
X90994938Y-51073090D01*
X90899435Y-51047500D01*
X90800565Y-51047500D01*
X90705062Y-51073090D01*
X90705060Y-51073091D01*
X90705059Y-51073091D01*
X90619436Y-51122526D01*
X90549526Y-51192436D01*
X90500091Y-51278059D01*
X90500091Y-51278060D01*
X90500090Y-51278062D01*
X90474500Y-51373565D01*
X90025500Y-51373565D01*
X89999910Y-51278062D01*
X89950475Y-51192438D01*
X89880562Y-51122525D01*
X89794938Y-51073090D01*
X89699435Y-51047500D01*
X89600565Y-51047500D01*
X89505062Y-51073090D01*
X89505060Y-51073091D01*
X89505059Y-51073091D01*
X89419436Y-51122526D01*
X89349526Y-51192436D01*
X89300091Y-51278059D01*
X89300091Y-51278060D01*
X89300090Y-51278062D01*
X89274500Y-51373565D01*
X88825500Y-51373565D01*
X88799910Y-51278062D01*
X88750475Y-51192438D01*
X88680562Y-51122525D01*
X88594938Y-51073090D01*
X88499435Y-51047500D01*
X88400565Y-51047500D01*
X88305062Y-51073090D01*
X88305060Y-51073091D01*
X88305059Y-51073091D01*
X88219436Y-51122526D01*
X88149526Y-51192436D01*
X88100091Y-51278059D01*
X88100091Y-51278060D01*
X88100090Y-51278062D01*
X88074500Y-51373565D01*
X87625500Y-51373565D01*
X87599910Y-51278062D01*
X87550475Y-51192438D01*
X87480562Y-51122525D01*
X87394938Y-51073090D01*
X87299435Y-51047500D01*
X87200565Y-51047500D01*
X87105062Y-51073090D01*
X87105060Y-51073091D01*
X87105059Y-51073091D01*
X87019436Y-51122526D01*
X86949526Y-51192436D01*
X86900091Y-51278059D01*
X86900091Y-51278060D01*
X86900090Y-51278062D01*
X86874500Y-51373565D01*
X86425500Y-51373565D01*
X86399910Y-51278062D01*
X86350475Y-51192438D01*
X86280562Y-51122525D01*
X86194938Y-51073090D01*
X86099435Y-51047500D01*
X86000565Y-51047500D01*
X85905062Y-51073090D01*
X85905060Y-51073091D01*
X85905059Y-51073091D01*
X85819436Y-51122526D01*
X85749526Y-51192436D01*
X85700091Y-51278059D01*
X85700091Y-51278060D01*
X85700090Y-51278062D01*
X85674500Y-51373565D01*
X85225500Y-51373565D01*
X85199910Y-51278062D01*
X85150475Y-51192438D01*
X85080562Y-51122525D01*
X84994938Y-51073090D01*
X84899435Y-51047500D01*
X84800565Y-51047500D01*
X84705062Y-51073090D01*
X84705060Y-51073091D01*
X84705059Y-51073091D01*
X84619436Y-51122526D01*
X84549526Y-51192436D01*
X84500091Y-51278059D01*
X84500091Y-51278060D01*
X84500090Y-51278062D01*
X84474500Y-51373565D01*
X83208742Y-51373565D01*
X83216610Y-51359938D01*
X83242200Y-51264435D01*
X83242200Y-51165565D01*
X83216610Y-51070062D01*
X83167175Y-50984438D01*
X83097262Y-50914525D01*
X83011638Y-50865090D01*
X82916135Y-50839500D01*
X82817265Y-50839500D01*
X82721762Y-50865090D01*
X82721760Y-50865091D01*
X82721759Y-50865091D01*
X82636136Y-50914526D01*
X82566226Y-50984436D01*
X82516791Y-51070059D01*
X82516791Y-51070060D01*
X82516790Y-51070062D01*
X82491200Y-51165565D01*
X51859652Y-51165565D01*
X51896503Y-51101737D01*
X51925500Y-50993518D01*
X51925500Y-50881482D01*
X51896503Y-50773263D01*
X51882783Y-50749499D01*
X51866310Y-50681603D01*
X51882783Y-50625500D01*
X51896503Y-50601737D01*
X51925500Y-50493518D01*
X51925500Y-50388065D01*
X62424500Y-50388065D01*
X62424500Y-50486935D01*
X62450090Y-50582438D01*
X62499525Y-50668062D01*
X62569438Y-50737975D01*
X62655062Y-50787410D01*
X62750565Y-50813000D01*
X62750567Y-50813000D01*
X62849432Y-50813000D01*
X62849435Y-50813000D01*
X62944938Y-50787410D01*
X63030562Y-50737975D01*
X63100475Y-50668062D01*
X63149910Y-50582438D01*
X63175500Y-50486935D01*
X63175500Y-50388065D01*
X63149910Y-50292562D01*
X63100475Y-50206938D01*
X63030562Y-50137025D01*
X62944938Y-50087590D01*
X62849435Y-50062000D01*
X62750565Y-50062000D01*
X62655062Y-50087590D01*
X62655060Y-50087591D01*
X62655059Y-50087591D01*
X62569436Y-50137026D01*
X62499526Y-50206936D01*
X62450091Y-50292559D01*
X62450091Y-50292560D01*
X62450090Y-50292562D01*
X62424500Y-50388065D01*
X51925500Y-50388065D01*
X51925500Y-50381482D01*
X51896503Y-50273263D01*
X51840485Y-50176237D01*
X51761263Y-50097015D01*
X51664237Y-50040997D01*
X51556018Y-50012000D01*
X51443982Y-50012000D01*
X51335763Y-50040997D01*
X51335760Y-50040998D01*
X51238740Y-50097013D01*
X51238734Y-50097017D01*
X51159517Y-50176234D01*
X51159513Y-50176240D01*
X51103498Y-50273260D01*
X51103497Y-50273263D01*
X51074500Y-50381482D01*
X40399555Y-50381482D01*
X40410475Y-50370562D01*
X40459910Y-50284938D01*
X40485500Y-50189435D01*
X40485500Y-50090565D01*
X40459910Y-49995062D01*
X40410475Y-49909438D01*
X40340562Y-49839525D01*
X40254938Y-49790090D01*
X40159435Y-49764500D01*
X40060565Y-49764500D01*
X39965062Y-49790090D01*
X39965060Y-49790091D01*
X39965059Y-49790091D01*
X39879436Y-49839526D01*
X39809526Y-49909436D01*
X39760091Y-49995059D01*
X39760091Y-49995060D01*
X39760090Y-49995062D01*
X39734500Y-50090565D01*
X23500500Y-50090565D01*
X23500500Y-49500565D01*
X41462000Y-49500565D01*
X41462000Y-49599435D01*
X41487590Y-49694938D01*
X41537025Y-49780562D01*
X41606938Y-49850475D01*
X41692562Y-49899910D01*
X41788065Y-49925500D01*
X41788067Y-49925500D01*
X41886932Y-49925500D01*
X41886935Y-49925500D01*
X41982438Y-49899910D01*
X42068062Y-49850475D01*
X42137975Y-49780562D01*
X42187410Y-49694938D01*
X42213000Y-49599435D01*
X42213000Y-49500565D01*
X42199603Y-49450565D01*
X92874500Y-49450565D01*
X92874500Y-49549435D01*
X92900090Y-49644938D01*
X92900091Y-49644939D01*
X92900091Y-49644940D01*
X92903065Y-49650091D01*
X92949525Y-49730562D01*
X93019438Y-49800475D01*
X93105062Y-49849910D01*
X93200565Y-49875500D01*
X93200567Y-49875500D01*
X93250500Y-49875500D01*
X93317539Y-49895185D01*
X93363294Y-49947989D01*
X93374500Y-49999500D01*
X93374500Y-50049435D01*
X93400090Y-50144938D01*
X93449525Y-50230562D01*
X93519438Y-50300475D01*
X93605062Y-50349910D01*
X93700565Y-50375500D01*
X93700567Y-50375500D01*
X93799432Y-50375500D01*
X93799435Y-50375500D01*
X93894938Y-50349910D01*
X93980562Y-50300475D01*
X94050475Y-50230562D01*
X94099910Y-50144938D01*
X94125500Y-50049435D01*
X94125500Y-49950565D01*
X94099910Y-49855062D01*
X94050475Y-49769438D01*
X93980562Y-49699525D01*
X93894938Y-49650090D01*
X93799435Y-49624500D01*
X93749500Y-49624500D01*
X93682461Y-49604815D01*
X93636706Y-49552011D01*
X93625500Y-49500500D01*
X93625500Y-49450567D01*
X93625500Y-49450565D01*
X93599910Y-49355062D01*
X93550475Y-49269438D01*
X93480562Y-49199525D01*
X93394938Y-49150090D01*
X93299435Y-49124500D01*
X93200565Y-49124500D01*
X93105062Y-49150090D01*
X93105060Y-49150091D01*
X93105059Y-49150091D01*
X93019438Y-49199525D01*
X93002615Y-49216347D01*
X93002612Y-49216350D01*
X92949525Y-49269438D01*
X92900090Y-49355062D01*
X92874500Y-49450565D01*
X42199603Y-49450565D01*
X42187410Y-49405062D01*
X42137975Y-49319438D01*
X42068062Y-49249525D01*
X41982438Y-49200090D01*
X41886935Y-49174500D01*
X41788065Y-49174500D01*
X41692562Y-49200090D01*
X41692560Y-49200091D01*
X41692559Y-49200091D01*
X41606936Y-49249526D01*
X41537026Y-49319436D01*
X41487591Y-49405059D01*
X41487591Y-49405060D01*
X41487590Y-49405062D01*
X41462000Y-49500565D01*
X23500500Y-49500565D01*
X23500500Y-48390265D01*
X59489200Y-48390265D01*
X59489200Y-48489135D01*
X59514790Y-48584638D01*
X59564225Y-48670262D01*
X59634138Y-48740175D01*
X59719762Y-48789610D01*
X59815265Y-48815200D01*
X59815267Y-48815200D01*
X59914132Y-48815200D01*
X59914135Y-48815200D01*
X60009638Y-48789610D01*
X60095262Y-48740175D01*
X60165175Y-48670262D01*
X60214610Y-48584638D01*
X60240200Y-48489135D01*
X60240200Y-48390265D01*
X60237601Y-48380565D01*
X91574500Y-48380565D01*
X91574500Y-48479435D01*
X91600090Y-48574938D01*
X91600091Y-48574939D01*
X91600091Y-48574940D01*
X91603065Y-48580091D01*
X91649525Y-48660562D01*
X91719438Y-48730475D01*
X91805062Y-48779910D01*
X91900565Y-48805500D01*
X91900567Y-48805500D01*
X91950500Y-48805500D01*
X92017539Y-48825185D01*
X92063294Y-48877989D01*
X92074500Y-48929500D01*
X92074500Y-48979435D01*
X92100090Y-49074938D01*
X92149525Y-49160562D01*
X92219438Y-49230475D01*
X92305062Y-49279910D01*
X92400565Y-49305500D01*
X92400567Y-49305500D01*
X92499432Y-49305500D01*
X92499435Y-49305500D01*
X92594938Y-49279910D01*
X92680562Y-49230475D01*
X92750475Y-49160562D01*
X92799910Y-49074938D01*
X92825500Y-48979435D01*
X92825500Y-48880565D01*
X92799910Y-48785062D01*
X92750475Y-48699438D01*
X92680562Y-48629525D01*
X92594938Y-48580090D01*
X92499435Y-48554500D01*
X92449500Y-48554500D01*
X92382461Y-48534815D01*
X92336706Y-48482011D01*
X92325500Y-48430500D01*
X92325500Y-48380567D01*
X92325500Y-48380565D01*
X92299910Y-48285062D01*
X92250475Y-48199438D01*
X92180562Y-48129525D01*
X92094938Y-48080090D01*
X91999435Y-48054500D01*
X91900565Y-48054500D01*
X91805062Y-48080090D01*
X91805060Y-48080091D01*
X91805059Y-48080091D01*
X91719436Y-48129526D01*
X91649526Y-48199436D01*
X91600091Y-48285059D01*
X91600091Y-48285060D01*
X91600090Y-48285062D01*
X91574500Y-48380565D01*
X60237601Y-48380565D01*
X60214610Y-48294762D01*
X60165175Y-48209138D01*
X60095262Y-48139225D01*
X60009638Y-48089790D01*
X59914135Y-48064200D01*
X59815265Y-48064200D01*
X59719762Y-48089790D01*
X59719760Y-48089791D01*
X59719759Y-48089791D01*
X59634136Y-48139226D01*
X59564226Y-48209136D01*
X59514791Y-48294759D01*
X59514791Y-48294760D01*
X59514790Y-48294762D01*
X59489200Y-48390265D01*
X23500500Y-48390265D01*
X23500500Y-47810565D01*
X90424500Y-47810565D01*
X90424500Y-47909435D01*
X90450090Y-48004938D01*
X90499525Y-48090562D01*
X90569438Y-48160475D01*
X90655062Y-48209910D01*
X90750565Y-48235500D01*
X90750567Y-48235500D01*
X90849432Y-48235500D01*
X90849435Y-48235500D01*
X90944938Y-48209910D01*
X91030562Y-48160475D01*
X91100475Y-48090562D01*
X91149910Y-48004938D01*
X91175500Y-47909435D01*
X91175500Y-47859500D01*
X91195185Y-47792461D01*
X91247989Y-47746706D01*
X91299500Y-47735500D01*
X91349432Y-47735500D01*
X91349435Y-47735500D01*
X91444938Y-47709910D01*
X91530562Y-47660475D01*
X91600475Y-47590562D01*
X91649910Y-47504938D01*
X91675500Y-47409435D01*
X91675500Y-47310565D01*
X91649910Y-47215062D01*
X91600475Y-47129438D01*
X91530562Y-47059525D01*
X91444938Y-47010090D01*
X91349435Y-46984500D01*
X91250565Y-46984500D01*
X91155062Y-47010090D01*
X91155060Y-47010091D01*
X91155059Y-47010091D01*
X91069436Y-47059526D01*
X90999526Y-47129436D01*
X90950091Y-47215059D01*
X90950091Y-47215060D01*
X90950090Y-47215062D01*
X90924500Y-47310565D01*
X90924500Y-47310567D01*
X90924500Y-47360500D01*
X90904815Y-47427539D01*
X90852011Y-47473294D01*
X90800500Y-47484500D01*
X90750565Y-47484500D01*
X90655062Y-47510090D01*
X90655060Y-47510091D01*
X90655059Y-47510091D01*
X90569436Y-47559526D01*
X90499526Y-47629436D01*
X90450091Y-47715059D01*
X90450091Y-47715060D01*
X90450090Y-47715062D01*
X90424500Y-47810565D01*
X23500500Y-47810565D01*
X23500500Y-47493382D01*
X23520185Y-47426343D01*
X23572989Y-47380588D01*
X23642147Y-47370644D01*
X23673722Y-47381000D01*
X23674141Y-47379991D01*
X23679769Y-47382322D01*
X23852749Y-47453973D01*
X24006220Y-47484500D01*
X24036379Y-47490499D01*
X24036383Y-47490500D01*
X24036384Y-47490500D01*
X24223617Y-47490500D01*
X24223618Y-47490499D01*
X24407251Y-47453973D01*
X24580231Y-47382322D01*
X24735908Y-47278302D01*
X24868302Y-47145908D01*
X24972322Y-46990231D01*
X25043973Y-46817251D01*
X25080500Y-46633616D01*
X25080500Y-46446384D01*
X25080499Y-46446379D01*
X28259500Y-46446379D01*
X28259500Y-46633620D01*
X28296025Y-46817243D01*
X28296027Y-46817251D01*
X28367676Y-46990228D01*
X28367681Y-46990237D01*
X28471697Y-47145907D01*
X28471700Y-47145911D01*
X28604088Y-47278299D01*
X28604092Y-47278302D01*
X28759762Y-47382318D01*
X28759768Y-47382321D01*
X28759769Y-47382322D01*
X28932749Y-47453973D01*
X29086220Y-47484500D01*
X29116379Y-47490499D01*
X29116383Y-47490500D01*
X29116384Y-47490500D01*
X29303617Y-47490500D01*
X29303618Y-47490499D01*
X29487251Y-47453973D01*
X29660231Y-47382322D01*
X29815908Y-47278302D01*
X29948302Y-47145908D01*
X30052322Y-46990231D01*
X30123973Y-46817251D01*
X30160500Y-46633616D01*
X30160500Y-46446384D01*
X30160499Y-46446379D01*
X30799500Y-46446379D01*
X30799500Y-46633620D01*
X30836025Y-46817243D01*
X30836027Y-46817251D01*
X30907676Y-46990228D01*
X30907681Y-46990237D01*
X31011697Y-47145907D01*
X31011700Y-47145911D01*
X31144088Y-47278299D01*
X31144092Y-47278302D01*
X31299762Y-47382318D01*
X31299768Y-47382321D01*
X31299769Y-47382322D01*
X31472749Y-47453973D01*
X31626220Y-47484500D01*
X31656379Y-47490499D01*
X31656383Y-47490500D01*
X31656384Y-47490500D01*
X31843617Y-47490500D01*
X31843618Y-47490499D01*
X32027251Y-47453973D01*
X32200231Y-47382322D01*
X32351615Y-47281170D01*
X32418290Y-47260293D01*
X32482503Y-47276885D01*
X32505062Y-47289910D01*
X32600565Y-47315500D01*
X32600567Y-47315500D01*
X32699432Y-47315500D01*
X32699435Y-47315500D01*
X32794938Y-47289910D01*
X32880562Y-47240475D01*
X32950475Y-47170562D01*
X32999910Y-47084938D01*
X33025500Y-46989435D01*
X33025500Y-46890565D01*
X32999910Y-46795062D01*
X32968446Y-46740565D01*
X89224500Y-46740565D01*
X89224500Y-46839435D01*
X89250090Y-46934938D01*
X89299525Y-47020562D01*
X89369438Y-47090475D01*
X89455062Y-47139910D01*
X89550565Y-47165500D01*
X89550567Y-47165500D01*
X89649432Y-47165500D01*
X89649435Y-47165500D01*
X89744938Y-47139910D01*
X89830562Y-47090475D01*
X89900475Y-47020562D01*
X89949910Y-46934938D01*
X89975500Y-46839435D01*
X89975500Y-46789500D01*
X89995185Y-46722461D01*
X90047989Y-46676706D01*
X90099500Y-46665500D01*
X90149432Y-46665500D01*
X90149435Y-46665500D01*
X90244938Y-46639910D01*
X90330562Y-46590475D01*
X90400475Y-46520562D01*
X90449910Y-46434938D01*
X90475500Y-46339435D01*
X90475500Y-46240565D01*
X90449910Y-46145062D01*
X90400475Y-46059438D01*
X90330562Y-45989525D01*
X90244938Y-45940090D01*
X90149435Y-45914500D01*
X90050565Y-45914500D01*
X89955062Y-45940090D01*
X89955060Y-45940091D01*
X89955059Y-45940091D01*
X89869436Y-45989526D01*
X89799526Y-46059436D01*
X89750091Y-46145059D01*
X89750091Y-46145060D01*
X89750090Y-46145062D01*
X89724500Y-46240565D01*
X89724500Y-46240567D01*
X89724500Y-46290500D01*
X89704815Y-46357539D01*
X89652011Y-46403294D01*
X89600500Y-46414500D01*
X89550565Y-46414500D01*
X89455062Y-46440090D01*
X89455060Y-46440091D01*
X89455059Y-46440091D01*
X89369436Y-46489526D01*
X89299526Y-46559436D01*
X89250091Y-46645059D01*
X89250091Y-46645060D01*
X89250090Y-46645062D01*
X89224500Y-46740565D01*
X32968446Y-46740565D01*
X32950475Y-46709438D01*
X32880562Y-46639525D01*
X32823479Y-46606568D01*
X32794937Y-46590089D01*
X32792405Y-46589411D01*
X32790510Y-46588256D01*
X32787434Y-46586982D01*
X32787632Y-46586502D01*
X32732745Y-46553046D01*
X32702217Y-46490198D01*
X32700500Y-46469637D01*
X32700500Y-46446383D01*
X32700499Y-46446379D01*
X32682828Y-46357539D01*
X32663973Y-46262749D01*
X32592322Y-46089769D01*
X32592321Y-46089768D01*
X32592318Y-46089762D01*
X32488302Y-45934092D01*
X32488299Y-45934088D01*
X32355908Y-45801697D01*
X32301794Y-45765540D01*
X32200237Y-45697681D01*
X32200228Y-45697676D01*
X32134776Y-45670565D01*
X58224500Y-45670565D01*
X58224500Y-45769435D01*
X58250090Y-45864938D01*
X58299525Y-45950562D01*
X58369438Y-46020475D01*
X58455062Y-46069910D01*
X58550565Y-46095500D01*
X58550567Y-46095500D01*
X58649432Y-46095500D01*
X58649435Y-46095500D01*
X58744938Y-46069910D01*
X58830562Y-46020475D01*
X58900475Y-45950562D01*
X58949910Y-45864938D01*
X58975500Y-45769435D01*
X58975500Y-45710191D01*
X58995185Y-45643152D01*
X59047989Y-45597397D01*
X59117147Y-45587453D01*
X59131582Y-45590413D01*
X59150565Y-45595500D01*
X59150568Y-45595500D01*
X59249432Y-45595500D01*
X59249435Y-45595500D01*
X59344938Y-45569910D01*
X59430562Y-45520475D01*
X59500475Y-45450562D01*
X59549910Y-45364938D01*
X59575500Y-45269435D01*
X59575500Y-45199500D01*
X59583996Y-45170565D01*
X86824500Y-45170565D01*
X86824500Y-45269435D01*
X86850090Y-45364938D01*
X86850091Y-45364939D01*
X86850091Y-45364940D01*
X86853065Y-45370091D01*
X86899525Y-45450562D01*
X86969438Y-45520475D01*
X87055062Y-45569910D01*
X87150565Y-45595500D01*
X87150567Y-45595500D01*
X87200500Y-45595500D01*
X87267539Y-45615185D01*
X87313294Y-45667989D01*
X87324500Y-45719500D01*
X87324500Y-45769435D01*
X87350090Y-45864938D01*
X87399525Y-45950562D01*
X87469438Y-46020475D01*
X87555062Y-46069910D01*
X87650565Y-46095500D01*
X87650567Y-46095500D01*
X87749432Y-46095500D01*
X87749435Y-46095500D01*
X87844938Y-46069910D01*
X87930562Y-46020475D01*
X88000475Y-45950562D01*
X88049910Y-45864938D01*
X88075500Y-45769435D01*
X88075500Y-45670565D01*
X88049910Y-45575062D01*
X88000475Y-45489438D01*
X87930562Y-45419525D01*
X87844938Y-45370090D01*
X87749435Y-45344500D01*
X87699500Y-45344500D01*
X87632461Y-45324815D01*
X87586706Y-45272011D01*
X87575500Y-45220500D01*
X87575500Y-45170567D01*
X87575500Y-45170565D01*
X87549910Y-45075062D01*
X87500475Y-44989438D01*
X87430562Y-44919525D01*
X87344938Y-44870090D01*
X87249435Y-44844500D01*
X87150565Y-44844500D01*
X87055062Y-44870090D01*
X87055060Y-44870091D01*
X87055059Y-44870091D01*
X86969436Y-44919526D01*
X86899526Y-44989436D01*
X86850091Y-45075059D01*
X86850091Y-45075060D01*
X86850090Y-45075062D01*
X86824500Y-45170565D01*
X59583996Y-45170565D01*
X59595185Y-45132461D01*
X59647989Y-45086706D01*
X59699500Y-45075500D01*
X59799432Y-45075500D01*
X59799435Y-45075500D01*
X59894938Y-45049910D01*
X59980562Y-45000475D01*
X60050475Y-44930562D01*
X60099910Y-44844938D01*
X60125500Y-44749435D01*
X60125500Y-44650565D01*
X60099910Y-44555062D01*
X60050475Y-44469438D01*
X59980562Y-44399525D01*
X59894938Y-44350090D01*
X59799435Y-44324500D01*
X59700565Y-44324500D01*
X59605062Y-44350090D01*
X59605060Y-44350091D01*
X59605059Y-44350091D01*
X59519436Y-44399526D01*
X59449526Y-44469436D01*
X59400091Y-44555059D01*
X59400091Y-44555060D01*
X59400090Y-44555062D01*
X59374500Y-44650565D01*
X59374500Y-44650567D01*
X59374500Y-44720500D01*
X59354815Y-44787539D01*
X59302011Y-44833294D01*
X59250500Y-44844500D01*
X59249435Y-44844500D01*
X59150565Y-44844500D01*
X59055062Y-44870090D01*
X59055060Y-44870091D01*
X59055059Y-44870091D01*
X58969436Y-44919526D01*
X58899526Y-44989436D01*
X58850091Y-45075059D01*
X58850091Y-45075060D01*
X58850090Y-45075062D01*
X58824500Y-45170565D01*
X58824500Y-45170567D01*
X58824500Y-45229808D01*
X58804815Y-45296847D01*
X58752011Y-45342602D01*
X58682853Y-45352546D01*
X58668410Y-45349584D01*
X58657722Y-45346720D01*
X58649435Y-45344500D01*
X58550565Y-45344500D01*
X58455062Y-45370090D01*
X58455060Y-45370091D01*
X58455059Y-45370091D01*
X58369436Y-45419526D01*
X58299526Y-45489436D01*
X58250091Y-45575059D01*
X58250091Y-45575060D01*
X58250090Y-45575062D01*
X58224500Y-45670565D01*
X32134776Y-45670565D01*
X32027251Y-45626027D01*
X32027243Y-45626025D01*
X31843620Y-45589500D01*
X31843616Y-45589500D01*
X31656384Y-45589500D01*
X31656379Y-45589500D01*
X31472756Y-45626025D01*
X31472748Y-45626027D01*
X31299771Y-45697676D01*
X31299762Y-45697681D01*
X31144092Y-45801697D01*
X31144088Y-45801700D01*
X31011700Y-45934088D01*
X31011697Y-45934092D01*
X30907681Y-46089762D01*
X30907676Y-46089771D01*
X30836027Y-46262748D01*
X30836025Y-46262756D01*
X30799500Y-46446379D01*
X30160499Y-46446379D01*
X30123973Y-46262749D01*
X30052322Y-46089769D01*
X29997524Y-46007759D01*
X29976647Y-45941082D01*
X29980853Y-45906776D01*
X29985500Y-45889435D01*
X29985500Y-45790565D01*
X29959910Y-45695062D01*
X29910475Y-45609438D01*
X29840562Y-45539525D01*
X29754938Y-45490090D01*
X29659435Y-45464500D01*
X29560565Y-45464500D01*
X29465062Y-45490090D01*
X29465060Y-45490091D01*
X29465059Y-45490091D01*
X29379436Y-45539525D01*
X29365781Y-45553181D01*
X29304458Y-45586666D01*
X29278100Y-45589500D01*
X29116379Y-45589500D01*
X28932756Y-45626025D01*
X28932748Y-45626027D01*
X28759771Y-45697676D01*
X28759762Y-45697681D01*
X28604092Y-45801697D01*
X28604088Y-45801700D01*
X28471700Y-45934088D01*
X28471697Y-45934092D01*
X28367681Y-46089762D01*
X28367676Y-46089771D01*
X28296027Y-46262748D01*
X28296025Y-46262756D01*
X28259500Y-46446379D01*
X25080499Y-46446379D01*
X25043973Y-46262749D01*
X24972322Y-46089769D01*
X24972321Y-46089768D01*
X24972318Y-46089762D01*
X24868302Y-45934092D01*
X24868299Y-45934088D01*
X24735911Y-45801700D01*
X24735907Y-45801697D01*
X24580237Y-45697681D01*
X24580228Y-45697676D01*
X24407251Y-45626027D01*
X24407243Y-45626025D01*
X24223620Y-45589500D01*
X24223616Y-45589500D01*
X24036384Y-45589500D01*
X24036379Y-45589500D01*
X23852756Y-45626025D01*
X23852748Y-45626027D01*
X23674141Y-45700009D01*
X23673304Y-45697988D01*
X23614528Y-45710215D01*
X23549289Y-45685203D01*
X23507928Y-45628891D01*
X23500500Y-45586617D01*
X23500500Y-44145565D01*
X33674500Y-44145565D01*
X33674500Y-44244435D01*
X33700090Y-44339938D01*
X33749525Y-44425562D01*
X33819438Y-44495475D01*
X33905062Y-44544910D01*
X34000565Y-44570500D01*
X34000567Y-44570500D01*
X34099432Y-44570500D01*
X34099435Y-44570500D01*
X34194938Y-44544910D01*
X34280562Y-44495475D01*
X34350475Y-44425562D01*
X34399910Y-44339938D01*
X34425500Y-44244435D01*
X34425500Y-44145565D01*
X34413442Y-44100565D01*
X61224500Y-44100565D01*
X61224500Y-44199435D01*
X61250090Y-44294938D01*
X61250091Y-44294939D01*
X61250091Y-44294940D01*
X61253065Y-44300091D01*
X61299525Y-44380562D01*
X61369438Y-44450475D01*
X61455062Y-44499910D01*
X61550565Y-44525500D01*
X61550567Y-44525500D01*
X61649432Y-44525500D01*
X61649435Y-44525500D01*
X61668408Y-44520416D01*
X61738256Y-44522079D01*
X61796119Y-44561241D01*
X61823623Y-44625470D01*
X61824500Y-44640191D01*
X61824500Y-44699435D01*
X61850090Y-44794938D01*
X61899525Y-44880562D01*
X61969438Y-44950475D01*
X62055062Y-44999910D01*
X62150565Y-45025500D01*
X62150567Y-45025500D01*
X62249432Y-45025500D01*
X62249435Y-45025500D01*
X62344938Y-44999910D01*
X62430562Y-44950475D01*
X62500475Y-44880562D01*
X62549910Y-44794938D01*
X62575500Y-44699435D01*
X62575500Y-44600565D01*
X62549910Y-44505062D01*
X62500475Y-44419438D01*
X62430562Y-44349525D01*
X62344938Y-44300090D01*
X62249435Y-44274500D01*
X62150565Y-44274500D01*
X62131590Y-44279584D01*
X62061740Y-44277919D01*
X62003879Y-44238754D01*
X61976376Y-44174525D01*
X61975500Y-44159808D01*
X61975500Y-44100567D01*
X61975500Y-44100565D01*
X61949910Y-44005062D01*
X61900475Y-43919438D01*
X61830562Y-43849525D01*
X61744938Y-43800090D01*
X61649435Y-43774500D01*
X61550565Y-43774500D01*
X61455062Y-43800090D01*
X61455060Y-43800091D01*
X61455059Y-43800091D01*
X61369436Y-43849526D01*
X61299526Y-43919436D01*
X61250091Y-44005059D01*
X61250091Y-44005060D01*
X61250090Y-44005062D01*
X61224500Y-44100565D01*
X34413442Y-44100565D01*
X34399910Y-44050062D01*
X34350475Y-43964438D01*
X34280562Y-43894525D01*
X34194938Y-43845090D01*
X34099435Y-43819500D01*
X34000565Y-43819500D01*
X33905062Y-43845090D01*
X33905060Y-43845091D01*
X33905059Y-43845091D01*
X33819436Y-43894526D01*
X33749526Y-43964436D01*
X33700091Y-44050059D01*
X33700091Y-44050060D01*
X33700090Y-44050062D01*
X33674500Y-44145565D01*
X23500500Y-44145565D01*
X23500500Y-42756379D01*
X28259500Y-42756379D01*
X28259500Y-42943620D01*
X28296025Y-43127243D01*
X28296027Y-43127251D01*
X28367676Y-43300228D01*
X28367681Y-43300237D01*
X28471697Y-43455907D01*
X28471700Y-43455911D01*
X28604088Y-43588299D01*
X28604092Y-43588302D01*
X28759762Y-43692318D01*
X28759768Y-43692321D01*
X28759769Y-43692322D01*
X28932749Y-43763973D01*
X29114323Y-43800090D01*
X29116379Y-43800499D01*
X29116383Y-43800500D01*
X29116384Y-43800500D01*
X29303617Y-43800500D01*
X29303618Y-43800499D01*
X29487251Y-43763973D01*
X29660231Y-43692322D01*
X29815908Y-43588302D01*
X29948302Y-43455908D01*
X30052322Y-43300231D01*
X30123973Y-43127251D01*
X30135719Y-43068195D01*
X30143205Y-43030565D01*
X55824500Y-43030565D01*
X55824500Y-43129435D01*
X55850090Y-43224938D01*
X55850091Y-43224939D01*
X55850091Y-43224940D01*
X55853065Y-43230091D01*
X55899525Y-43310562D01*
X55969438Y-43380475D01*
X56055062Y-43429910D01*
X56150565Y-43455500D01*
X56150567Y-43455500D01*
X56249432Y-43455500D01*
X56249435Y-43455500D01*
X56268408Y-43450416D01*
X56338256Y-43452079D01*
X56396119Y-43491241D01*
X56423623Y-43555470D01*
X56424500Y-43570191D01*
X56424500Y-43629435D01*
X56450090Y-43724938D01*
X56499525Y-43810562D01*
X56569438Y-43880475D01*
X56655062Y-43929910D01*
X56750565Y-43955500D01*
X56750567Y-43955500D01*
X56849432Y-43955500D01*
X56849435Y-43955500D01*
X56944938Y-43929910D01*
X57030562Y-43880475D01*
X57100475Y-43810562D01*
X57149910Y-43724938D01*
X57175500Y-43629435D01*
X57175500Y-43530565D01*
X57149910Y-43435062D01*
X57100475Y-43349438D01*
X57030562Y-43279525D01*
X56944938Y-43230090D01*
X56849435Y-43204500D01*
X56750565Y-43204500D01*
X56731590Y-43209584D01*
X56661740Y-43207919D01*
X56603879Y-43168754D01*
X56576376Y-43104525D01*
X56575500Y-43089808D01*
X56575500Y-43030567D01*
X56575500Y-43030565D01*
X56549910Y-42935062D01*
X56500475Y-42849438D01*
X56430562Y-42779525D01*
X56344938Y-42730090D01*
X56249435Y-42704500D01*
X56150565Y-42704500D01*
X56055062Y-42730090D01*
X56055060Y-42730091D01*
X56055059Y-42730091D01*
X55969436Y-42779526D01*
X55899526Y-42849436D01*
X55850091Y-42935059D01*
X55850091Y-42935060D01*
X55850090Y-42935062D01*
X55824500Y-43030565D01*
X30143205Y-43030565D01*
X30149634Y-42998247D01*
X30160499Y-42943620D01*
X30160500Y-42943617D01*
X30160500Y-42756383D01*
X30160499Y-42756379D01*
X30150180Y-42704500D01*
X30123973Y-42572749D01*
X30052322Y-42399769D01*
X30052321Y-42399768D01*
X30052318Y-42399762D01*
X29948302Y-42244092D01*
X29948299Y-42244088D01*
X29815911Y-42111700D01*
X29815907Y-42111697D01*
X29731862Y-42055540D01*
X29660237Y-42007681D01*
X29660228Y-42007676D01*
X29546491Y-41960565D01*
X54024500Y-41960565D01*
X54024500Y-42059435D01*
X54050090Y-42154938D01*
X54050091Y-42154939D01*
X54050091Y-42154940D01*
X54053065Y-42160091D01*
X54099525Y-42240562D01*
X54169438Y-42310475D01*
X54255062Y-42359910D01*
X54350565Y-42385500D01*
X54350567Y-42385500D01*
X54449432Y-42385500D01*
X54449435Y-42385500D01*
X54468408Y-42380416D01*
X54538256Y-42382079D01*
X54596119Y-42421241D01*
X54623623Y-42485470D01*
X54624500Y-42500191D01*
X54624500Y-42559435D01*
X54650090Y-42654938D01*
X54699525Y-42740562D01*
X54769438Y-42810475D01*
X54855062Y-42859910D01*
X54950565Y-42885500D01*
X54950567Y-42885500D01*
X55049432Y-42885500D01*
X55049435Y-42885500D01*
X55144938Y-42859910D01*
X55230562Y-42810475D01*
X55300475Y-42740562D01*
X55349910Y-42654938D01*
X55375500Y-42559435D01*
X55375500Y-42460565D01*
X55349910Y-42365062D01*
X55300475Y-42279438D01*
X55246602Y-42225565D01*
X90274500Y-42225565D01*
X90274500Y-42324435D01*
X90300090Y-42419938D01*
X90349525Y-42505562D01*
X90419438Y-42575475D01*
X90505062Y-42624910D01*
X90600565Y-42650500D01*
X90600567Y-42650500D01*
X90699432Y-42650500D01*
X90699435Y-42650500D01*
X90794938Y-42624910D01*
X90880562Y-42575475D01*
X90950475Y-42505562D01*
X90999910Y-42419938D01*
X91025500Y-42324435D01*
X91025500Y-42225565D01*
X90999910Y-42130062D01*
X90950475Y-42044438D01*
X90880562Y-41974525D01*
X90794938Y-41925090D01*
X90699435Y-41899500D01*
X90600565Y-41899500D01*
X90505062Y-41925090D01*
X90505060Y-41925091D01*
X90505059Y-41925091D01*
X90419436Y-41974526D01*
X90349526Y-42044436D01*
X90300091Y-42130059D01*
X90300091Y-42130060D01*
X90300090Y-42130062D01*
X90274500Y-42225565D01*
X55246602Y-42225565D01*
X55230562Y-42209525D01*
X55144938Y-42160090D01*
X55049435Y-42134500D01*
X54950565Y-42134500D01*
X54931590Y-42139584D01*
X54861740Y-42137919D01*
X54803879Y-42098754D01*
X54776376Y-42034525D01*
X54775500Y-42019808D01*
X54775500Y-41960567D01*
X54775500Y-41960565D01*
X54749910Y-41865062D01*
X54700475Y-41779438D01*
X54630562Y-41709525D01*
X54544938Y-41660090D01*
X54449435Y-41634500D01*
X54350565Y-41634500D01*
X54255062Y-41660090D01*
X54255060Y-41660091D01*
X54255059Y-41660091D01*
X54169436Y-41709526D01*
X54099526Y-41779436D01*
X54050091Y-41865059D01*
X54050091Y-41865060D01*
X54050090Y-41865062D01*
X54024500Y-41960565D01*
X29546491Y-41960565D01*
X29487251Y-41936027D01*
X29487243Y-41936025D01*
X29303620Y-41899500D01*
X29303616Y-41899500D01*
X29116384Y-41899500D01*
X29116379Y-41899500D01*
X28932756Y-41936025D01*
X28932748Y-41936027D01*
X28759771Y-42007676D01*
X28759762Y-42007681D01*
X28604092Y-42111697D01*
X28604088Y-42111700D01*
X28471700Y-42244088D01*
X28471697Y-42244092D01*
X28367681Y-42399762D01*
X28367676Y-42399771D01*
X28296027Y-42572748D01*
X28296025Y-42572756D01*
X28259500Y-42756379D01*
X23500500Y-42756379D01*
X23500500Y-41350565D01*
X59374500Y-41350565D01*
X59374500Y-41449435D01*
X59400090Y-41544938D01*
X59449525Y-41630562D01*
X59519438Y-41700475D01*
X59605062Y-41749910D01*
X59700565Y-41775500D01*
X59700567Y-41775500D01*
X59799432Y-41775500D01*
X59799435Y-41775500D01*
X59894938Y-41749910D01*
X59980562Y-41700475D01*
X60050475Y-41630562D01*
X60099910Y-41544938D01*
X60125500Y-41449435D01*
X60125500Y-41350565D01*
X60099910Y-41255062D01*
X60099908Y-41255059D01*
X60099908Y-41255057D01*
X60096798Y-41247548D01*
X60098042Y-41247032D01*
X60083575Y-41187400D01*
X60100048Y-41131299D01*
X60100471Y-41130565D01*
X60100475Y-41130562D01*
X60149910Y-41044938D01*
X60175500Y-40949435D01*
X60175500Y-40890565D01*
X64224499Y-40890565D01*
X64224499Y-40989435D01*
X64250089Y-41084938D01*
X64250090Y-41084939D01*
X64250090Y-41084940D01*
X64253064Y-41090091D01*
X64299524Y-41170562D01*
X64369437Y-41240475D01*
X64455061Y-41289910D01*
X64550564Y-41315500D01*
X64550566Y-41315500D01*
X64649431Y-41315500D01*
X64649434Y-41315500D01*
X64668407Y-41310416D01*
X64738253Y-41312077D01*
X64796117Y-41351238D01*
X64823623Y-41415465D01*
X64824500Y-41430190D01*
X64824500Y-41489435D01*
X64850090Y-41584938D01*
X64899525Y-41670562D01*
X64969438Y-41740475D01*
X65055062Y-41789910D01*
X65150565Y-41815500D01*
X65150567Y-41815500D01*
X65249432Y-41815500D01*
X65249435Y-41815500D01*
X65344938Y-41789910D01*
X65430562Y-41740475D01*
X65500475Y-41670562D01*
X65549910Y-41584938D01*
X65575500Y-41489435D01*
X65575500Y-41390565D01*
X65549910Y-41295062D01*
X65500475Y-41209438D01*
X65430562Y-41139525D01*
X65344938Y-41090090D01*
X65249435Y-41064500D01*
X65150565Y-41064500D01*
X65118415Y-41073114D01*
X65104784Y-41073696D01*
X65083582Y-41068440D01*
X65061742Y-41067921D01*
X65050335Y-41060200D01*
X65036967Y-41056887D01*
X65021971Y-41041002D01*
X65003880Y-41028758D01*
X64998458Y-41016096D01*
X64989003Y-41006081D01*
X64984975Y-40984611D01*
X64976376Y-40964529D01*
X64975544Y-40950565D01*
X89599500Y-40950565D01*
X89599500Y-41049435D01*
X89625090Y-41144938D01*
X89674525Y-41230562D01*
X89744438Y-41300475D01*
X89830062Y-41349910D01*
X89925565Y-41375500D01*
X89925567Y-41375500D01*
X90024432Y-41375500D01*
X90024435Y-41375500D01*
X90119938Y-41349910D01*
X90119947Y-41349904D01*
X90127448Y-41346799D01*
X90127957Y-41348028D01*
X90187637Y-41333542D01*
X90253667Y-41356385D01*
X90296865Y-41411300D01*
X90298310Y-41415642D01*
X90300089Y-41419936D01*
X90300090Y-41419938D01*
X90349525Y-41505562D01*
X90419438Y-41575475D01*
X90505062Y-41624910D01*
X90600565Y-41650500D01*
X90600567Y-41650500D01*
X90699432Y-41650500D01*
X90699435Y-41650500D01*
X90794938Y-41624910D01*
X90880562Y-41575475D01*
X90950475Y-41505562D01*
X90999910Y-41419938D01*
X91025500Y-41324435D01*
X91025500Y-41225565D01*
X90999910Y-41130062D01*
X90950475Y-41044438D01*
X90880562Y-40974525D01*
X90794938Y-40925090D01*
X90699435Y-40899500D01*
X90600565Y-40899500D01*
X90505062Y-40925090D01*
X90505060Y-40925090D01*
X90505060Y-40925091D01*
X90497552Y-40928201D01*
X90497043Y-40926974D01*
X90437341Y-40941456D01*
X90371314Y-40918602D01*
X90328126Y-40863679D01*
X90326684Y-40859345D01*
X90324911Y-40855067D01*
X90324910Y-40855062D01*
X90275475Y-40769438D01*
X90205562Y-40699525D01*
X90119938Y-40650090D01*
X90024435Y-40624500D01*
X89925565Y-40624500D01*
X89830062Y-40650090D01*
X89830060Y-40650091D01*
X89830059Y-40650091D01*
X89744436Y-40699526D01*
X89674526Y-40769436D01*
X89625091Y-40855059D01*
X89625091Y-40855060D01*
X89625090Y-40855062D01*
X89599500Y-40950565D01*
X64975544Y-40950565D01*
X64975499Y-40949809D01*
X64975499Y-40890567D01*
X64975499Y-40890565D01*
X64949909Y-40795062D01*
X64900474Y-40709438D01*
X64830561Y-40639525D01*
X64744937Y-40590090D01*
X64649434Y-40564500D01*
X64550564Y-40564500D01*
X64455061Y-40590090D01*
X64455059Y-40590091D01*
X64455058Y-40590091D01*
X64369435Y-40639526D01*
X64299525Y-40709436D01*
X64250090Y-40795059D01*
X64250090Y-40795060D01*
X64250089Y-40795062D01*
X64224499Y-40890565D01*
X60175500Y-40890565D01*
X60175500Y-40850565D01*
X60149910Y-40755062D01*
X60100475Y-40669438D01*
X60030562Y-40599525D01*
X59944938Y-40550090D01*
X59849435Y-40524500D01*
X59750565Y-40524500D01*
X59655062Y-40550090D01*
X59655060Y-40550091D01*
X59655059Y-40550091D01*
X59569436Y-40599526D01*
X59499526Y-40669436D01*
X59450091Y-40755059D01*
X59450091Y-40755060D01*
X59450090Y-40755062D01*
X59424500Y-40850565D01*
X59424500Y-40949435D01*
X59450090Y-41044938D01*
X59450091Y-41044939D01*
X59453201Y-41052448D01*
X59451957Y-41052963D01*
X59466423Y-41112604D01*
X59449952Y-41168697D01*
X59400090Y-41255061D01*
X59400090Y-41255062D01*
X59374500Y-41350565D01*
X23500500Y-41350565D01*
X23500500Y-39545565D01*
X31174500Y-39545565D01*
X31174500Y-39644435D01*
X31200090Y-39739938D01*
X31249525Y-39825562D01*
X31319438Y-39895475D01*
X31405062Y-39944910D01*
X31500565Y-39970500D01*
X31500567Y-39970500D01*
X31599432Y-39970500D01*
X31599435Y-39970500D01*
X31694938Y-39944910D01*
X31780562Y-39895475D01*
X31850475Y-39825562D01*
X31853360Y-39820565D01*
X60024500Y-39820565D01*
X60024500Y-39919435D01*
X60050090Y-40014938D01*
X60050091Y-40014939D01*
X60050091Y-40014940D01*
X60053065Y-40020091D01*
X60099525Y-40100562D01*
X60169438Y-40170475D01*
X60255062Y-40219910D01*
X60350565Y-40245500D01*
X60350567Y-40245500D01*
X60449432Y-40245500D01*
X60449435Y-40245500D01*
X60468408Y-40240416D01*
X60538256Y-40242079D01*
X60596119Y-40281241D01*
X60623623Y-40345470D01*
X60624500Y-40360191D01*
X60624500Y-40419435D01*
X60650090Y-40514938D01*
X60699525Y-40600562D01*
X60769438Y-40670475D01*
X60855062Y-40719910D01*
X60950565Y-40745500D01*
X60950567Y-40745500D01*
X61049432Y-40745500D01*
X61049435Y-40745500D01*
X61144938Y-40719910D01*
X61230562Y-40670475D01*
X61300475Y-40600562D01*
X61349910Y-40514938D01*
X61375500Y-40419435D01*
X61375500Y-40320565D01*
X61349910Y-40225062D01*
X61300475Y-40139438D01*
X61230562Y-40069525D01*
X61144938Y-40020090D01*
X61049435Y-39994500D01*
X60950565Y-39994500D01*
X60931590Y-39999584D01*
X60861740Y-39997919D01*
X60803879Y-39958754D01*
X60800372Y-39950565D01*
X89599500Y-39950565D01*
X89599500Y-40049435D01*
X89625090Y-40144938D01*
X89674525Y-40230562D01*
X89744438Y-40300475D01*
X89830062Y-40349910D01*
X89925565Y-40375500D01*
X89925567Y-40375500D01*
X90024432Y-40375500D01*
X90024435Y-40375500D01*
X90119938Y-40349910D01*
X90205562Y-40300475D01*
X90275475Y-40230562D01*
X90324910Y-40144938D01*
X90350500Y-40049435D01*
X90350500Y-39950565D01*
X90324910Y-39855062D01*
X90275475Y-39769438D01*
X90205562Y-39699525D01*
X90119938Y-39650090D01*
X90024435Y-39624500D01*
X89925565Y-39624500D01*
X89830062Y-39650090D01*
X89830060Y-39650091D01*
X89830059Y-39650091D01*
X89744436Y-39699526D01*
X89674526Y-39769436D01*
X89625091Y-39855059D01*
X89625091Y-39855060D01*
X89625090Y-39855062D01*
X89599500Y-39950565D01*
X60800372Y-39950565D01*
X60776376Y-39894525D01*
X60775500Y-39879808D01*
X60775500Y-39820567D01*
X60775500Y-39820565D01*
X60749910Y-39725062D01*
X60700475Y-39639438D01*
X60630562Y-39569525D01*
X60544938Y-39520090D01*
X60449435Y-39494500D01*
X60350565Y-39494500D01*
X60255062Y-39520090D01*
X60255060Y-39520091D01*
X60255059Y-39520091D01*
X60169436Y-39569526D01*
X60099526Y-39639436D01*
X60050091Y-39725059D01*
X60050091Y-39725060D01*
X60050090Y-39725062D01*
X60024500Y-39820565D01*
X31853360Y-39820565D01*
X31899910Y-39739938D01*
X31925500Y-39644435D01*
X31925500Y-39545565D01*
X31899910Y-39450062D01*
X31850475Y-39364438D01*
X31780562Y-39294525D01*
X31694938Y-39245090D01*
X31599435Y-39219500D01*
X31500565Y-39219500D01*
X31405062Y-39245090D01*
X31405060Y-39245091D01*
X31405059Y-39245091D01*
X31319436Y-39294526D01*
X31249526Y-39364436D01*
X31200091Y-39450059D01*
X31200091Y-39450060D01*
X31200090Y-39450062D01*
X31174500Y-39545565D01*
X23500500Y-39545565D01*
X23500500Y-38943982D01*
X42374500Y-38943982D01*
X42374500Y-39056018D01*
X42378096Y-39069436D01*
X42403497Y-39164236D01*
X42403498Y-39164239D01*
X42410000Y-39175500D01*
X42459515Y-39261263D01*
X42538737Y-39340485D01*
X42635763Y-39396503D01*
X42743982Y-39425500D01*
X42743984Y-39425500D01*
X42856016Y-39425500D01*
X42856018Y-39425500D01*
X42964237Y-39396503D01*
X43061263Y-39340485D01*
X43140485Y-39261263D01*
X43196503Y-39164237D01*
X43225500Y-39056018D01*
X43225500Y-38943982D01*
X43196503Y-38835763D01*
X43140485Y-38738737D01*
X43061263Y-38659515D01*
X42971013Y-38607409D01*
X42964239Y-38603498D01*
X42964238Y-38603497D01*
X42964237Y-38603497D01*
X42856018Y-38574500D01*
X42743982Y-38574500D01*
X42635763Y-38603497D01*
X42635760Y-38603498D01*
X42538740Y-38659513D01*
X42538734Y-38659517D01*
X42459517Y-38738734D01*
X42459513Y-38738740D01*
X42403498Y-38835760D01*
X42403497Y-38835763D01*
X42374500Y-38943982D01*
X23500500Y-38943982D01*
X23500500Y-38350565D01*
X50474500Y-38350565D01*
X50474500Y-38449435D01*
X50500090Y-38544938D01*
X50500091Y-38544939D01*
X50500091Y-38544940D01*
X50502686Y-38549435D01*
X50535055Y-38605500D01*
X50549526Y-38630563D01*
X50559871Y-38640908D01*
X50593356Y-38702231D01*
X50588372Y-38771923D01*
X50579578Y-38790587D01*
X50553499Y-38835758D01*
X50553497Y-38835763D01*
X50524500Y-38943982D01*
X50524500Y-39056018D01*
X50528096Y-39069436D01*
X50553497Y-39164236D01*
X50553498Y-39164239D01*
X50560000Y-39175500D01*
X50609515Y-39261263D01*
X50688737Y-39340485D01*
X50785763Y-39396503D01*
X50893982Y-39425500D01*
X50893984Y-39425500D01*
X51006016Y-39425500D01*
X51006018Y-39425500D01*
X51114237Y-39396503D01*
X51211263Y-39340485D01*
X51290485Y-39261263D01*
X51346503Y-39164237D01*
X51375500Y-39056018D01*
X51375500Y-38943982D01*
X51346503Y-38835763D01*
X51297314Y-38750565D01*
X57024500Y-38750565D01*
X57024500Y-38849435D01*
X57050090Y-38944938D01*
X57050091Y-38944939D01*
X57050091Y-38944940D01*
X57053065Y-38950091D01*
X57099525Y-39030562D01*
X57169438Y-39100475D01*
X57255062Y-39149910D01*
X57350565Y-39175500D01*
X57350567Y-39175500D01*
X57449432Y-39175500D01*
X57449435Y-39175500D01*
X57468408Y-39170416D01*
X57538256Y-39172079D01*
X57596119Y-39211241D01*
X57623623Y-39275470D01*
X57624500Y-39290191D01*
X57624500Y-39349435D01*
X57650090Y-39444938D01*
X57650091Y-39444939D01*
X57650091Y-39444940D01*
X57653047Y-39450060D01*
X57699525Y-39530562D01*
X57769438Y-39600475D01*
X57855062Y-39649910D01*
X57950565Y-39675500D01*
X57950567Y-39675500D01*
X58049432Y-39675500D01*
X58049435Y-39675500D01*
X58144938Y-39649910D01*
X58230562Y-39600475D01*
X58300475Y-39530562D01*
X58349910Y-39444938D01*
X58375500Y-39349435D01*
X58375500Y-39250565D01*
X58349910Y-39155062D01*
X58300475Y-39069438D01*
X58230562Y-38999525D01*
X58144938Y-38950090D01*
X58049435Y-38924500D01*
X57950565Y-38924500D01*
X57931590Y-38929584D01*
X57861740Y-38927919D01*
X57803879Y-38888754D01*
X57776376Y-38824525D01*
X57775500Y-38809808D01*
X57775500Y-38750567D01*
X57775500Y-38750565D01*
X57749910Y-38655062D01*
X57700475Y-38569438D01*
X57630562Y-38499525D01*
X57545761Y-38450565D01*
X89399500Y-38450565D01*
X89399500Y-38549435D01*
X89425090Y-38644938D01*
X89474525Y-38730562D01*
X89544438Y-38800475D01*
X89630062Y-38849910D01*
X89725565Y-38875500D01*
X89725567Y-38875500D01*
X89824432Y-38875500D01*
X89824435Y-38875500D01*
X89919938Y-38849910D01*
X90005562Y-38800475D01*
X90075475Y-38730562D01*
X90124910Y-38644938D01*
X90150500Y-38549435D01*
X90150500Y-38450565D01*
X90124910Y-38355062D01*
X90075475Y-38269438D01*
X90005562Y-38199525D01*
X89919938Y-38150090D01*
X89824435Y-38124500D01*
X89725565Y-38124500D01*
X89630062Y-38150090D01*
X89630060Y-38150091D01*
X89630059Y-38150091D01*
X89544436Y-38199526D01*
X89474526Y-38269436D01*
X89425091Y-38355059D01*
X89425091Y-38355060D01*
X89425090Y-38355062D01*
X89399500Y-38450565D01*
X57545761Y-38450565D01*
X57544938Y-38450090D01*
X57449435Y-38424500D01*
X57350565Y-38424500D01*
X57255062Y-38450090D01*
X57255060Y-38450091D01*
X57255059Y-38450091D01*
X57169436Y-38499526D01*
X57099526Y-38569436D01*
X57050091Y-38655059D01*
X57050091Y-38655060D01*
X57050090Y-38655062D01*
X57024500Y-38750565D01*
X51297314Y-38750565D01*
X51290485Y-38738737D01*
X51222870Y-38671122D01*
X51218185Y-38665118D01*
X51208014Y-38639433D01*
X51194778Y-38615192D01*
X51195334Y-38607409D01*
X51192462Y-38600155D01*
X51197791Y-38573051D01*
X51199213Y-38553165D01*
X51197806Y-38552788D01*
X51199908Y-38544939D01*
X51199910Y-38544938D01*
X51225500Y-38449435D01*
X51225500Y-38350565D01*
X51199910Y-38255062D01*
X51150475Y-38169438D01*
X51150473Y-38169436D01*
X51146411Y-38162400D01*
X51149240Y-38160766D01*
X51129540Y-38109852D01*
X51143559Y-38041403D01*
X51192359Y-37991400D01*
X51253107Y-37975500D01*
X51299432Y-37975500D01*
X51299435Y-37975500D01*
X51394938Y-37949910D01*
X51480562Y-37900475D01*
X51550475Y-37830562D01*
X51599910Y-37744938D01*
X51617159Y-37680565D01*
X52824500Y-37680565D01*
X52824500Y-37779435D01*
X52850090Y-37874938D01*
X52850091Y-37874939D01*
X52850091Y-37874940D01*
X52859004Y-37890377D01*
X52899525Y-37960562D01*
X52969438Y-38030475D01*
X53055062Y-38079910D01*
X53150565Y-38105500D01*
X53150567Y-38105500D01*
X53249432Y-38105500D01*
X53249435Y-38105500D01*
X53268408Y-38100416D01*
X53338256Y-38102079D01*
X53396119Y-38141241D01*
X53423623Y-38205470D01*
X53424500Y-38220191D01*
X53424500Y-38279435D01*
X53450090Y-38374938D01*
X53499525Y-38460562D01*
X53569438Y-38530475D01*
X53655062Y-38579910D01*
X53750565Y-38605500D01*
X53750567Y-38605500D01*
X53849432Y-38605500D01*
X53849435Y-38605500D01*
X53944938Y-38579910D01*
X54030562Y-38530475D01*
X54100475Y-38460562D01*
X54149910Y-38374938D01*
X54175500Y-38279435D01*
X54175500Y-38180565D01*
X54149910Y-38085062D01*
X54100475Y-37999438D01*
X54030562Y-37929525D01*
X53944938Y-37880090D01*
X53849435Y-37854500D01*
X53750565Y-37854500D01*
X53731590Y-37859584D01*
X53661740Y-37857919D01*
X53603879Y-37818754D01*
X53576376Y-37754525D01*
X53575500Y-37739808D01*
X53575500Y-37680567D01*
X53575500Y-37680565D01*
X53549910Y-37585062D01*
X53500475Y-37499438D01*
X53430562Y-37429525D01*
X53344938Y-37380090D01*
X53249435Y-37354500D01*
X53150565Y-37354500D01*
X53055062Y-37380090D01*
X53055060Y-37380091D01*
X53055059Y-37380091D01*
X52969436Y-37429526D01*
X52899526Y-37499436D01*
X52850091Y-37585059D01*
X52850091Y-37585060D01*
X52850090Y-37585062D01*
X52824500Y-37680565D01*
X51617159Y-37680565D01*
X51625500Y-37649435D01*
X51625500Y-37550565D01*
X51616882Y-37518404D01*
X51616303Y-37504765D01*
X51621559Y-37483572D01*
X51622079Y-37461744D01*
X51629804Y-37450329D01*
X51633123Y-37436950D01*
X51649002Y-37421963D01*
X51661241Y-37403881D01*
X51673912Y-37398454D01*
X51683936Y-37388995D01*
X51705396Y-37384972D01*
X51725470Y-37376377D01*
X51740191Y-37375500D01*
X51774432Y-37375500D01*
X51774435Y-37375500D01*
X51869938Y-37349910D01*
X51955562Y-37300475D01*
X52025475Y-37230562D01*
X52074910Y-37144938D01*
X52100500Y-37049435D01*
X52100500Y-36966665D01*
X53555300Y-36966665D01*
X53555300Y-37065535D01*
X53580890Y-37161038D01*
X53630325Y-37246662D01*
X53700238Y-37316575D01*
X53785862Y-37366010D01*
X53881365Y-37391600D01*
X53881367Y-37391600D01*
X53980232Y-37391600D01*
X53980235Y-37391600D01*
X54075738Y-37366010D01*
X54161362Y-37316575D01*
X54231275Y-37246662D01*
X54280710Y-37161038D01*
X54294234Y-37110565D01*
X64224499Y-37110565D01*
X64224499Y-37209435D01*
X64250089Y-37304938D01*
X64299524Y-37390562D01*
X64369437Y-37460475D01*
X64455061Y-37509910D01*
X64550564Y-37535500D01*
X64550566Y-37535500D01*
X64649431Y-37535500D01*
X64649434Y-37535500D01*
X64744937Y-37509910D01*
X64830561Y-37460475D01*
X64900474Y-37390562D01*
X64949909Y-37304938D01*
X64975499Y-37209435D01*
X64975499Y-37150190D01*
X64987134Y-37110565D01*
X84424500Y-37110565D01*
X84424500Y-37209435D01*
X84450090Y-37304938D01*
X84499525Y-37390562D01*
X84569438Y-37460475D01*
X84655062Y-37509910D01*
X84750565Y-37535500D01*
X84750567Y-37535500D01*
X84849432Y-37535500D01*
X84849435Y-37535500D01*
X84944938Y-37509910D01*
X85030562Y-37460475D01*
X85100475Y-37390562D01*
X85149910Y-37304938D01*
X85175500Y-37209435D01*
X85175500Y-37159500D01*
X85195185Y-37092461D01*
X85247989Y-37046706D01*
X85299500Y-37035500D01*
X85349432Y-37035500D01*
X85349435Y-37035500D01*
X85444938Y-37009910D01*
X85530562Y-36960475D01*
X85600475Y-36890562D01*
X85649910Y-36804938D01*
X85675500Y-36709435D01*
X85675500Y-36610565D01*
X85666022Y-36575192D01*
X85667685Y-36505346D01*
X85706847Y-36447484D01*
X85771075Y-36419979D01*
X85839978Y-36431565D01*
X85847793Y-36435713D01*
X85855062Y-36439910D01*
X85950565Y-36465500D01*
X85950567Y-36465500D01*
X86049432Y-36465500D01*
X86049435Y-36465500D01*
X86144938Y-36439910D01*
X86230562Y-36390475D01*
X86300475Y-36320562D01*
X86349910Y-36234938D01*
X86375500Y-36139435D01*
X86375500Y-36089500D01*
X86395185Y-36022461D01*
X86447989Y-35976706D01*
X86499500Y-35965500D01*
X86549432Y-35965500D01*
X86549435Y-35965500D01*
X86644938Y-35939910D01*
X86730562Y-35890475D01*
X86800475Y-35820562D01*
X86849910Y-35734938D01*
X86875500Y-35639435D01*
X86875500Y-35540565D01*
X86849910Y-35445062D01*
X86800475Y-35359438D01*
X86730562Y-35289525D01*
X86644938Y-35240090D01*
X86549435Y-35214500D01*
X86450565Y-35214500D01*
X86355062Y-35240090D01*
X86355060Y-35240091D01*
X86355059Y-35240091D01*
X86269436Y-35289526D01*
X86199526Y-35359436D01*
X86150091Y-35445059D01*
X86150091Y-35445060D01*
X86150090Y-35445062D01*
X86124500Y-35540565D01*
X86124500Y-35540567D01*
X86124500Y-35590500D01*
X86104815Y-35657539D01*
X86052011Y-35703294D01*
X86000500Y-35714500D01*
X85950565Y-35714500D01*
X85855062Y-35740090D01*
X85855060Y-35740091D01*
X85855059Y-35740091D01*
X85769436Y-35789526D01*
X85699526Y-35859436D01*
X85650091Y-35945059D01*
X85650091Y-35945060D01*
X85650090Y-35945062D01*
X85624500Y-36040565D01*
X85624500Y-36040567D01*
X85624500Y-36139436D01*
X85633977Y-36174805D01*
X85632314Y-36244655D01*
X85593151Y-36302517D01*
X85528922Y-36330020D01*
X85460020Y-36318433D01*
X85452216Y-36314292D01*
X85444938Y-36310090D01*
X85349435Y-36284500D01*
X85250565Y-36284500D01*
X85155062Y-36310090D01*
X85155060Y-36310091D01*
X85155059Y-36310091D01*
X85069436Y-36359526D01*
X84999526Y-36429436D01*
X84950091Y-36515059D01*
X84950091Y-36515060D01*
X84950090Y-36515062D01*
X84924500Y-36610565D01*
X84924500Y-36610567D01*
X84924500Y-36660500D01*
X84904815Y-36727539D01*
X84852011Y-36773294D01*
X84800500Y-36784500D01*
X84750565Y-36784500D01*
X84655062Y-36810090D01*
X84655060Y-36810091D01*
X84655059Y-36810091D01*
X84569436Y-36859526D01*
X84499526Y-36929436D01*
X84450091Y-37015059D01*
X84450091Y-37015060D01*
X84450090Y-37015062D01*
X84424500Y-37110565D01*
X64987134Y-37110565D01*
X64995184Y-37083151D01*
X65047988Y-37037396D01*
X65117146Y-37027452D01*
X65131575Y-37030411D01*
X65150565Y-37035500D01*
X65150568Y-37035500D01*
X65249432Y-37035500D01*
X65249435Y-37035500D01*
X65344938Y-37009910D01*
X65430562Y-36960475D01*
X65500475Y-36890562D01*
X65549910Y-36804938D01*
X65575500Y-36709435D01*
X65575500Y-36610565D01*
X65549910Y-36515062D01*
X65500475Y-36429438D01*
X65430562Y-36359525D01*
X65344938Y-36310090D01*
X65249435Y-36284500D01*
X65150565Y-36284500D01*
X65055062Y-36310090D01*
X65055060Y-36310091D01*
X65055059Y-36310091D01*
X64969436Y-36359526D01*
X64899526Y-36429436D01*
X64850091Y-36515059D01*
X64850091Y-36515060D01*
X64850090Y-36515062D01*
X64824500Y-36610565D01*
X64824500Y-36610567D01*
X64824500Y-36669809D01*
X64804815Y-36736848D01*
X64752011Y-36782603D01*
X64682853Y-36792547D01*
X64668410Y-36789584D01*
X64649434Y-36784500D01*
X64550564Y-36784500D01*
X64455061Y-36810090D01*
X64455059Y-36810091D01*
X64455058Y-36810091D01*
X64369435Y-36859526D01*
X64299525Y-36929436D01*
X64250090Y-37015059D01*
X64250090Y-37015060D01*
X64250089Y-37015062D01*
X64224499Y-37110565D01*
X54294234Y-37110565D01*
X54306300Y-37065535D01*
X54306300Y-36966665D01*
X54280710Y-36871162D01*
X54231275Y-36785538D01*
X54161362Y-36715625D01*
X54075738Y-36666190D01*
X53980235Y-36640600D01*
X53881365Y-36640600D01*
X53785862Y-36666190D01*
X53785860Y-36666191D01*
X53785859Y-36666191D01*
X53700236Y-36715626D01*
X53630326Y-36785536D01*
X53580891Y-36871159D01*
X53580891Y-36871160D01*
X53580890Y-36871162D01*
X53555300Y-36966665D01*
X52100500Y-36966665D01*
X52100500Y-36950565D01*
X52074910Y-36855062D01*
X52025475Y-36769438D01*
X51955562Y-36699525D01*
X51869938Y-36650090D01*
X51774435Y-36624500D01*
X51675565Y-36624500D01*
X51580062Y-36650090D01*
X51580060Y-36650091D01*
X51580059Y-36650091D01*
X51494436Y-36699526D01*
X51424526Y-36769436D01*
X51375091Y-36855059D01*
X51375091Y-36855060D01*
X51375090Y-36855062D01*
X51349500Y-36950565D01*
X51349500Y-37049435D01*
X51354583Y-37068408D01*
X51352921Y-37138256D01*
X51313759Y-37196119D01*
X51249530Y-37223623D01*
X51234809Y-37224500D01*
X51200565Y-37224500D01*
X51105062Y-37250090D01*
X51105060Y-37250091D01*
X51105059Y-37250091D01*
X51019436Y-37299526D01*
X50949526Y-37369436D01*
X50900091Y-37455059D01*
X50900091Y-37455060D01*
X50900090Y-37455062D01*
X50874500Y-37550565D01*
X50874500Y-37649435D01*
X50900090Y-37744938D01*
X50949525Y-37830562D01*
X50949526Y-37830563D01*
X50953589Y-37837600D01*
X50950759Y-37839233D01*
X50970460Y-37890148D01*
X50956441Y-37958597D01*
X50907641Y-38008600D01*
X50846893Y-38024500D01*
X50800565Y-38024500D01*
X50705062Y-38050090D01*
X50705060Y-38050091D01*
X50705059Y-38050091D01*
X50619436Y-38099526D01*
X50549526Y-38169436D01*
X50500091Y-38255059D01*
X50500091Y-38255060D01*
X50500090Y-38255062D01*
X50474500Y-38350565D01*
X23500500Y-38350565D01*
X23500500Y-37831002D01*
X23520185Y-37763963D01*
X23572989Y-37718208D01*
X23642147Y-37708264D01*
X23676903Y-37718619D01*
X24045239Y-37890377D01*
X24550355Y-38025723D01*
X24922458Y-38058278D01*
X25071298Y-38071300D01*
X25071300Y-38071300D01*
X25071302Y-38071300D01*
X25201536Y-38059905D01*
X25592244Y-38025723D01*
X26097360Y-37890377D01*
X26571300Y-37669376D01*
X26999662Y-37369433D01*
X27369433Y-36999662D01*
X27669376Y-36571300D01*
X27890377Y-36097360D01*
X27905595Y-36040565D01*
X61224500Y-36040565D01*
X61224500Y-36139435D01*
X61250090Y-36234938D01*
X61299525Y-36320562D01*
X61369438Y-36390475D01*
X61455062Y-36439910D01*
X61550565Y-36465500D01*
X61550567Y-36465500D01*
X61649432Y-36465500D01*
X61649435Y-36465500D01*
X61744938Y-36439910D01*
X61830562Y-36390475D01*
X61900475Y-36320562D01*
X61949910Y-36234938D01*
X61975500Y-36139435D01*
X61975500Y-36080191D01*
X61995185Y-36013152D01*
X62047989Y-35967397D01*
X62117147Y-35957453D01*
X62131582Y-35960413D01*
X62150565Y-35965500D01*
X62150568Y-35965500D01*
X62249432Y-35965500D01*
X62249435Y-35965500D01*
X62344938Y-35939910D01*
X62430562Y-35890475D01*
X62500475Y-35820562D01*
X62549910Y-35734938D01*
X62575500Y-35639435D01*
X62575500Y-35540565D01*
X62549910Y-35445062D01*
X62500475Y-35359438D01*
X62430562Y-35289525D01*
X62344938Y-35240090D01*
X62249435Y-35214500D01*
X62150565Y-35214500D01*
X62055062Y-35240090D01*
X62055060Y-35240091D01*
X62055059Y-35240091D01*
X61969436Y-35289526D01*
X61899526Y-35359436D01*
X61850091Y-35445059D01*
X61850091Y-35445060D01*
X61850090Y-35445062D01*
X61824500Y-35540565D01*
X61824500Y-35540567D01*
X61824500Y-35599808D01*
X61804815Y-35666847D01*
X61752011Y-35712602D01*
X61682853Y-35722546D01*
X61668410Y-35719584D01*
X61657722Y-35716720D01*
X61649435Y-35714500D01*
X61550565Y-35714500D01*
X61455062Y-35740090D01*
X61455060Y-35740091D01*
X61455059Y-35740091D01*
X61369436Y-35789526D01*
X61299526Y-35859436D01*
X61250091Y-35945059D01*
X61250091Y-35945060D01*
X61250090Y-35945062D01*
X61224500Y-36040565D01*
X27905595Y-36040565D01*
X28025723Y-35592244D01*
X28071300Y-35071300D01*
X28025723Y-34550355D01*
X28024015Y-34543982D01*
X36274500Y-34543982D01*
X36274500Y-34656018D01*
X36303497Y-34764237D01*
X36359515Y-34861263D01*
X36438737Y-34940485D01*
X36535763Y-34996503D01*
X36643982Y-35025500D01*
X36643984Y-35025500D01*
X36756016Y-35025500D01*
X36756018Y-35025500D01*
X36864237Y-34996503D01*
X36961263Y-34940485D01*
X37040485Y-34861263D01*
X37096503Y-34764237D01*
X37125500Y-34656018D01*
X37125500Y-34543982D01*
X37105828Y-34470565D01*
X63024500Y-34470565D01*
X63024500Y-34569435D01*
X63050090Y-34664938D01*
X63050091Y-34664939D01*
X63050091Y-34664940D01*
X63053065Y-34670091D01*
X63099525Y-34750562D01*
X63169438Y-34820475D01*
X63255062Y-34869910D01*
X63350565Y-34895500D01*
X63350567Y-34895500D01*
X63449432Y-34895500D01*
X63449435Y-34895500D01*
X63468408Y-34890416D01*
X63538256Y-34892079D01*
X63596119Y-34931241D01*
X63623623Y-34995470D01*
X63624500Y-35010191D01*
X63624500Y-35069435D01*
X63650090Y-35164938D01*
X63699525Y-35250562D01*
X63769438Y-35320475D01*
X63855062Y-35369910D01*
X63950565Y-35395500D01*
X63950567Y-35395500D01*
X64049432Y-35395500D01*
X64049435Y-35395500D01*
X64144938Y-35369910D01*
X64230562Y-35320475D01*
X64300475Y-35250562D01*
X64349910Y-35164938D01*
X64375500Y-35069435D01*
X64375500Y-34970565D01*
X64349910Y-34875062D01*
X64300475Y-34789438D01*
X64230562Y-34719525D01*
X64144938Y-34670090D01*
X64049435Y-34644500D01*
X63950565Y-34644500D01*
X63931590Y-34649584D01*
X63861740Y-34647919D01*
X63803879Y-34608754D01*
X63776376Y-34544525D01*
X63775500Y-34529808D01*
X63775500Y-34470567D01*
X63775500Y-34470565D01*
X63749910Y-34375062D01*
X63700475Y-34289438D01*
X63630562Y-34219525D01*
X63544938Y-34170090D01*
X63449435Y-34144500D01*
X63350565Y-34144500D01*
X63255062Y-34170090D01*
X63255060Y-34170091D01*
X63255059Y-34170091D01*
X63169436Y-34219526D01*
X63099526Y-34289436D01*
X63050091Y-34375059D01*
X63050091Y-34375060D01*
X63050090Y-34375062D01*
X63024500Y-34470565D01*
X37105828Y-34470565D01*
X37096503Y-34435763D01*
X37040485Y-34338737D01*
X36961263Y-34259515D01*
X36864237Y-34203497D01*
X36756018Y-34174500D01*
X36643982Y-34174500D01*
X36535763Y-34203497D01*
X36535760Y-34203498D01*
X36438740Y-34259513D01*
X36438734Y-34259517D01*
X36359517Y-34338734D01*
X36359513Y-34338740D01*
X36303498Y-34435760D01*
X36303497Y-34435763D01*
X36274500Y-34543982D01*
X28024015Y-34543982D01*
X27890377Y-34045239D01*
X27718619Y-33676903D01*
X27708128Y-33607827D01*
X27736648Y-33544043D01*
X27795124Y-33505804D01*
X27831002Y-33500500D01*
X53929637Y-33500500D01*
X53996676Y-33520185D01*
G37*
%TD.AperFunction*%
%TD*%
D13*
X133775000Y-54900000D03*
X95475000Y-54500000D03*
X142080000Y-47100000D03*
X133775000Y-44700000D03*
X92025000Y-43000000D03*
X135475000Y-57300000D03*
X102675000Y-50980000D03*
X132650000Y-62050000D03*
X108170000Y-40540000D03*
X134430000Y-57300000D03*
X33350000Y-53200000D03*
X94275000Y-54500000D03*
X133875000Y-47100000D03*
X101050000Y-50755000D03*
X134430000Y-59100000D03*
X95050000Y-50755000D03*
X64300000Y-66750000D03*
X104170000Y-40920000D03*
X94425000Y-53000000D03*
X61900000Y-66150000D03*
X92025000Y-41000000D03*
X103651000Y-53115000D03*
X126170000Y-48140000D03*
X59500000Y-60625000D03*
X96825000Y-53000000D03*
X92025000Y-53000000D03*
X57700000Y-64775000D03*
X99075000Y-50980000D03*
X100150000Y-49135000D03*
X101475000Y-50980000D03*
X86025000Y-53000000D03*
X59500000Y-64775000D03*
X135475000Y-50100000D03*
X83430000Y-52715000D03*
X137140000Y-44700000D03*
X97450000Y-50755000D03*
X45950000Y-60395000D03*
X121580000Y-43800000D03*
X96675000Y-54500000D03*
X84675000Y-53000000D03*
X117580000Y-47220000D03*
X103651000Y-54765000D03*
X97750000Y-49135000D03*
X88425000Y-53000000D03*
X133775000Y-57300000D03*
X133875000Y-52500000D03*
X102825000Y-53000000D03*
X59500000Y-50500000D03*
X133875000Y-43500000D03*
X133830000Y-63300000D03*
X31050000Y-40765000D03*
X103400000Y-50505000D03*
X98025000Y-53000000D03*
X103176000Y-52390000D03*
X82285000Y-53590000D03*
X79480000Y-59050000D03*
X133875000Y-55500000D03*
X133775000Y-45300000D03*
X75770000Y-58550000D03*
X93225000Y-54500000D03*
X102550000Y-49135000D03*
X92025000Y-40000000D03*
X99225000Y-53000000D03*
X83575000Y-56516000D03*
X133775000Y-50700000D03*
X30450000Y-53550000D03*
X62500000Y-65950000D03*
X133775000Y-62100000D03*
X132650000Y-42250000D03*
X105315000Y-54790000D03*
X100275000Y-50980000D03*
X127580000Y-40380000D03*
X91450000Y-37675000D03*
X103651000Y-51315000D03*
X89625000Y-53000000D03*
X101350000Y-49135000D03*
X65525000Y-63950000D03*
X133775000Y-60300000D03*
X81480000Y-59050000D03*
X130560000Y-44700000D03*
X140340000Y-43500000D03*
X95625000Y-53000000D03*
X81770000Y-57550000D03*
X65525000Y-61450000D03*
X116170000Y-40160000D03*
X84574000Y-54190000D03*
X102250000Y-50755000D03*
X123580000Y-42280000D03*
X106170000Y-42440000D03*
X33150000Y-55000000D03*
X29950000Y-44965000D03*
X102675000Y-54500000D03*
X99850000Y-50755000D03*
X133775000Y-53700000D03*
X28450000Y-51900000D03*
X84574000Y-53590000D03*
X90825000Y-53000000D03*
X58900000Y-50700000D03*
X133775000Y-50100000D03*
X100425000Y-53000000D03*
X136125000Y-45300000D03*
X92025000Y-42000000D03*
X98950000Y-49135000D03*
X102770000Y-44700000D03*
X56500000Y-40250000D03*
X94425000Y-50980000D03*
X53475000Y-61450000D03*
X57700000Y-62275000D03*
X29350000Y-58500000D03*
X129960000Y-48300000D03*
X99075000Y-54500000D03*
X131525000Y-46500000D03*
X100275000Y-54500000D03*
X135475000Y-50700000D03*
X96250000Y-50755000D03*
X63700000Y-66349999D03*
X51725000Y-41000000D03*
X103651000Y-52515000D03*
X53475000Y-63950000D03*
X101625000Y-53000000D03*
X96675000Y-50980000D03*
X96550000Y-49135000D03*
X135475000Y-53700000D03*
X95475000Y-50980000D03*
X113580000Y-46460000D03*
X97875000Y-54500000D03*
X58300000Y-65150000D03*
X110770000Y-48300000D03*
X101475000Y-54500000D03*
X133875000Y-59100000D03*
X98650000Y-50755000D03*
X42450000Y-59395000D03*
X95350000Y-49135000D03*
X132650000Y-57350000D03*
X84055000Y-54490000D03*
X103750000Y-49135000D03*
X83430000Y-50865000D03*
X103651000Y-55365000D03*
X133775000Y-48300000D03*
X64900000Y-56900000D03*
X112170000Y-42060000D03*
X133229999Y-60300000D03*
X138060000Y-50100000D03*
X105315000Y-53590000D03*
X103400000Y-53815000D03*
X33150000Y-53650000D03*
X136125000Y-44700000D03*
X120170000Y-39400000D03*
X102100000Y-43200000D03*
X55900000Y-40650000D03*
X133875000Y-48900000D03*
X83430000Y-51515000D03*
X97875000Y-50980000D03*
X87225000Y-53000000D03*
X93225000Y-53000000D03*
X56725000Y-66500000D03*
X56725000Y-68500000D03*
X56725000Y-69500000D03*
X56725000Y-67500000D03*
X30850000Y-54700000D03*
X30637500Y-54250000D03*
X27750000Y-52100000D03*
X41837500Y-49550000D03*
X59800000Y-40900000D03*
X51250000Y-37600000D03*
X133700000Y-56300000D03*
X59750000Y-41400000D03*
X33150000Y-57100000D03*
X50850000Y-38400000D03*
X58900000Y-62275000D03*
D14*
X50950000Y-39000000D03*
D13*
X34250000Y-56200000D03*
X59864700Y-48439700D03*
X34250000Y-58050001D03*
X51725000Y-37000000D03*
X30650000Y-55300000D03*
D14*
X29650000Y-53500000D03*
D13*
X59750000Y-44700000D03*
X37750000Y-56200000D03*
X48850000Y-56600000D03*
X82866700Y-51215000D03*
X55050000Y-68500000D03*
X32650000Y-46940000D03*
X39250000Y-50740000D03*
X40110000Y-50140000D03*
X29610000Y-45840000D03*
D14*
X46450000Y-62905000D03*
D13*
X135000000Y-56137500D03*
D14*
X51500000Y-50937500D03*
D13*
X62800000Y-50437500D03*
X50950000Y-66805000D03*
D14*
X51500000Y-50437500D03*
D13*
X93800000Y-53975000D03*
X86600000Y-53975000D03*
X96200000Y-53975000D03*
X81000000Y-60600000D03*
X95000000Y-53975000D03*
D14*
X42800000Y-39000000D03*
D13*
X104170000Y-55690000D03*
X85400000Y-53975000D03*
X88275000Y-54000000D03*
X90650000Y-42275000D03*
X90200000Y-53975000D03*
X98125000Y-54000000D03*
X100525000Y-54000000D03*
X94525000Y-54000000D03*
X102200000Y-53975000D03*
X89975000Y-41000000D03*
X93800000Y-53525000D03*
X90825000Y-54000000D03*
X97400000Y-53975000D03*
X99325000Y-54000000D03*
X98600000Y-53975000D03*
X104690000Y-55990000D03*
X94500000Y-64700000D03*
X89775000Y-38500000D03*
X89975000Y-40000000D03*
X101000000Y-53975000D03*
D14*
X36700000Y-34600000D03*
D13*
X92600000Y-53525000D03*
X91875000Y-54000000D03*
X85875000Y-54000000D03*
X101725000Y-54000000D03*
X87800000Y-53975000D03*
X99800000Y-53975000D03*
X92600000Y-53975000D03*
X87225000Y-54000000D03*
X90650000Y-41275000D03*
X89000000Y-53975000D03*
X89625000Y-54000000D03*
X91400000Y-53975000D03*
X95725000Y-54000000D03*
X96925000Y-54000000D03*
X89100000Y-52366000D03*
X54400000Y-42010000D03*
X89650000Y-51423000D03*
X55000000Y-42510000D03*
X90300000Y-52366000D03*
X56200000Y-43080000D03*
X90850000Y-51423000D03*
X56800000Y-43580000D03*
X91500000Y-52366000D03*
X61600000Y-44150000D03*
X92050000Y-51423000D03*
X62200000Y-44650000D03*
X92700000Y-52366000D03*
X63400000Y-34520000D03*
X93700000Y-51673000D03*
X64000000Y-35020000D03*
X54400000Y-65000000D03*
X90100000Y-46290000D03*
X55000000Y-65000000D03*
X89600000Y-46790000D03*
X56200000Y-65000000D03*
X91300000Y-47360000D03*
X56800000Y-65000000D03*
X90800000Y-47860000D03*
X135000000Y-62100000D03*
X67400000Y-63500000D03*
X61600000Y-65000000D03*
X91950000Y-48430000D03*
X62200000Y-65000000D03*
X92450000Y-48930000D03*
X63400000Y-65000000D03*
X93250000Y-49500000D03*
X64000000Y-65000000D03*
X93750000Y-50000000D03*
X47400000Y-50900000D03*
X53930800Y-37016100D03*
X84850000Y-54880000D03*
X141220000Y-56834000D03*
X84350000Y-55723000D03*
X127010000Y-56334000D03*
X86050000Y-54880000D03*
X127590000Y-57783000D03*
X85500000Y-55823000D03*
X139480000Y-58283000D03*
X87250000Y-54880000D03*
X137160000Y-59732000D03*
X86700000Y-55823000D03*
X129330000Y-59232000D03*
X88450000Y-54880000D03*
X130490000Y-60681000D03*
X87900000Y-55823000D03*
X136000000Y-61181000D03*
X89650000Y-54880000D03*
X140060000Y-62630000D03*
X89100000Y-55823000D03*
X131650000Y-62130000D03*
X90850000Y-54880000D03*
X128750000Y-63579000D03*
X90300000Y-55823000D03*
X138900000Y-64078999D03*
X92050000Y-54880000D03*
X137740000Y-65528000D03*
X91500000Y-55823000D03*
X129910000Y-65028000D03*
X93700000Y-55130000D03*
X131070000Y-66477000D03*
X92700000Y-55823000D03*
X136580000Y-66977000D03*
X125850000Y-67926000D03*
X84750000Y-67926000D03*
X142380000Y-68426000D03*
X85250000Y-68426000D03*
X85950000Y-69875000D03*
X141800000Y-69875000D03*
X126430000Y-69375000D03*
X86450000Y-69375000D03*
X127010000Y-70824000D03*
X87750000Y-70824000D03*
X87250000Y-71324000D03*
X141220000Y-71324000D03*
X88900000Y-72773000D03*
X140640000Y-72773000D03*
X88400000Y-72273000D03*
X127590000Y-72273000D03*
X89550000Y-73722000D03*
X128169999Y-73722000D03*
X139480000Y-74222000D03*
X90050000Y-74222000D03*
X90750000Y-75671000D03*
X138320000Y-75671000D03*
X129330000Y-75171000D03*
X91250000Y-75171000D03*
X130490000Y-76620000D03*
X92550000Y-76620000D03*
X137160000Y-77120000D03*
X92050000Y-77120000D03*
X93700000Y-78569000D03*
X136000000Y-78569000D03*
X131650000Y-78069000D03*
X93200000Y-78069000D03*
X86050000Y-51423000D03*
X60400000Y-39870000D03*
X86500000Y-35590000D03*
X62200000Y-35590000D03*
X86700000Y-52366000D03*
X58000000Y-39300000D03*
X87200000Y-45220000D03*
X59200000Y-45220000D03*
X87250000Y-51423000D03*
X57400000Y-38800000D03*
X87700000Y-45720000D03*
X58600000Y-45720000D03*
X87900000Y-52366000D03*
X53800000Y-38230000D03*
X88400000Y-33950000D03*
X55000000Y-33950000D03*
X88450000Y-51423000D03*
X53200000Y-37730000D03*
X54400000Y-33450000D03*
X88900000Y-33450000D03*
X82910000Y-52990000D03*
X84210000Y-63890000D03*
X84160000Y-66690000D03*
X82360000Y-54490000D03*
X103050000Y-51879600D03*
X106750000Y-55479600D03*
X82025000Y-62190000D03*
X105125000Y-52090000D03*
X84300000Y-52366000D03*
X65200000Y-41440000D03*
X64599999Y-37160000D03*
X84800000Y-37160000D03*
X84850000Y-51423000D03*
X64599999Y-40940000D03*
X65200000Y-36660000D03*
X85300000Y-36660000D03*
X85500000Y-52366000D03*
X61000000Y-40370000D03*
X61600000Y-36090000D03*
X86000000Y-36090000D03*
X31550000Y-39595000D03*
X34050000Y-44195000D03*
D15*
X140800000Y-76800000D03*
X25071300Y-76928700D03*
X140928700Y-35071300D03*
X25071300Y-35071300D03*
X31750000Y-46540000D03*
X29210000Y-46540000D03*
X26670000Y-46540000D03*
X24130000Y-46540000D03*
X29210000Y-42850000D03*
X26670000Y-42850000D03*
M02*
