M48
; DRILL file KiCad 10.0.5 date 2026-09-19T00:00:00+08:00
; FORMAT={-:-/ absolute / metric / decimal}
; #@! TF.CreationDate,2026-09-19T00:00:00+08:00
; #@! TF.GenerationSoftware,Kicad,Pcbnew,10.0.5
; #@! TF.FileFunction,Plated,6,8,Blind
FMAT,2
METRIC
; #@! TA.AperFunction,Plated,Buried,ViaDrill
T1C0.200
%
G90
G05
T1
X41.3Y-48.037
X69.5Y-50.6
X82.3Y-51.438
X84.3Y-41.44
X84.35Y-56.334
X84.85Y-40.94
X84.85Y-56.834
X85.5Y-40.37
X85.5Y-58.283
X86.05Y-39.87
X86.05Y-57.783
X86.7Y-39.3
X86.7Y-59.232
X87.25Y-38.8
X87.25Y-59.732
X87.9Y-38.23
X87.9Y-61.181
X88.45Y-37.73
X88.45Y-60.681
X89.1Y-42.01
X89.1Y-62.13
X89.65Y-42.51
X89.65Y-62.63
X90.3Y-43.08
X90.3Y-64.079
X90.85Y-43.58
X90.85Y-63.579
X91.3Y-67.2
X91.5Y-44.15
X91.5Y-65.028
X92.05Y-44.65
X92.05Y-65.528
X92.7Y-34.52
X92.7Y-66.977
X93.7Y-35.02
X93.7Y-66.477
X102.5Y-52.137
M30
