M48
; DRILL file KiCad 10.0.5 date 2026-09-19T00:00:00+08:00
; FORMAT={-:-/ absolute / metric / decimal}
; #@! TF.CreationDate,2026-09-19T00:00:00+08:00
; #@! TF.GenerationSoftware,Kicad,Pcbnew,10.0.5
; #@! TF.FileFunction,Plated,3,6,Buried
FMAT,2
METRIC
; #@! TA.AperFunction,Plated,Buried,ViaDrill
T1C0.200
%
G90
G05
T1
X50.85Y-38.4
X53.2Y-37.73
X53.8Y-38.23
X54.4Y-33.45
X54.4Y-42.01
X55.0Y-33.95
X55.0Y-42.51
X56.2Y-43.08
X56.8Y-43.58
X57.4Y-38.8
X58.0Y-39.3
X58.6Y-45.72
X59.2Y-45.22
X59.75Y-44.7
X60.4Y-39.87
X61.0Y-40.37
X61.6Y-36.09
X61.6Y-44.15
X62.2Y-35.59
X62.2Y-44.65
X63.4Y-34.52
X64.0Y-35.02
X64.6Y-37.16
X64.6Y-40.94
X65.2Y-36.66
X65.2Y-41.44
X67.4Y-63.5
X84.75Y-67.926
X84.8Y-37.16
X85.25Y-68.426
X85.3Y-36.66
X85.95Y-69.875
X86.0Y-36.09
X86.45Y-69.375
X86.5Y-35.59
X87.2Y-45.22
X87.25Y-71.324
X87.7Y-45.72
X87.75Y-70.824
X88.4Y-33.95
X88.4Y-72.273
X88.9Y-33.45
X88.9Y-72.773
X89.55Y-73.722
X89.6Y-46.79
X90.05Y-74.222
X90.1Y-46.29
X90.75Y-75.671
X90.8Y-47.86
X91.25Y-75.171
X91.3Y-47.36
X91.95Y-48.43
X92.05Y-77.12
X92.45Y-48.93
X92.55Y-76.62
X93.2Y-78.069
X93.25Y-49.5
X93.7Y-78.569
X93.75Y-50.0
X103.05Y-51.88
X106.75Y-55.48
X125.85Y-67.926
X126.43Y-69.375
X127.01Y-56.334
X127.01Y-70.824
X127.59Y-57.783
X127.59Y-72.273
X128.17Y-73.722
X128.75Y-63.579
X129.33Y-59.232
X129.33Y-75.171
X129.91Y-65.028
X130.49Y-60.681
X130.49Y-76.62
X131.07Y-66.477
X131.65Y-62.13
X131.65Y-78.069
X136.0Y-61.181
X136.0Y-78.569
X136.58Y-66.977
X137.16Y-59.732
X137.16Y-77.12
X137.74Y-65.528
X138.32Y-75.671
X138.9Y-64.079
X139.48Y-58.283
X139.48Y-74.222
X140.06Y-62.63
X140.64Y-72.773
X141.22Y-56.834
X141.22Y-71.324
X141.8Y-69.875
X142.38Y-68.426
M30
