M48
; DRILL file KiCad 10.0.5 date 2026-09-19T00:00:00+08:00
; FORMAT={-:-/ absolute / metric / decimal}
; #@! TF.CreationDate,2026-09-19T00:00:00+08:00
; #@! TF.GenerationSoftware,Kicad,Pcbnew,10.0.5
; #@! TF.FileFunction,MixedPlating,1,8
FMAT,2
METRIC
; #@! TA.AperFunction,Plated,PTH,ViaDrill
T1C0.200
; #@! TA.AperFunction,Plated,PTH,ViaDrill
T2C0.250
; #@! TA.AperFunction,Plated,PTH,ComponentDrill
T3C0.800
; #@! TA.AperFunction,NonPlated,NPTH,ComponentDrill
T4C3.200
%
G90
G05
T1
X27.75Y-52.1
X29.61Y-45.84
X30.65Y-55.3
X30.85Y-54.7
X33.15Y-57.1
X34.25Y-56.2
X40.11Y-50.14
X50.95Y-66.805
X51.725Y-37.0
X51.725Y-41.0
X53.475Y-61.45
X53.475Y-63.95
X53.931Y-37.016
X55.05Y-68.5
X55.9Y-40.65
X56.5Y-40.25
X56.725Y-66.5
X56.725Y-67.5
X56.725Y-68.5
X56.725Y-69.5
X57.7Y-62.275
X57.7Y-64.775
X58.3Y-65.15
X58.9Y-50.7
X58.9Y-62.275
X59.5Y-50.5
X59.5Y-60.625
X59.5Y-64.775
X59.8Y-40.9
X59.865Y-48.44
X61.9Y-66.15
X62.5Y-65.95
X62.8Y-50.438
X63.7Y-66.35
X64.3Y-66.75
X64.9Y-56.9
X65.525Y-61.45
X65.525Y-63.95
X75.77Y-58.55
X79.48Y-59.05
X81.48Y-59.05
X81.77Y-57.55
X82.025Y-62.19
X82.285Y-53.59
X82.867Y-51.215
X83.43Y-50.865
X83.43Y-51.515
X83.43Y-52.715
X83.575Y-56.516
X84.055Y-54.49
X84.3Y-52.366
X84.35Y-55.723
X84.574Y-53.59
X84.574Y-54.19
X84.675Y-53.0
X84.85Y-51.423
X84.85Y-54.88
X85.4Y-53.975
X85.5Y-52.366
X85.5Y-55.823
X85.875Y-54.0
X86.025Y-53.0
X86.05Y-51.423
X86.05Y-54.88
X86.6Y-53.975
X86.7Y-52.366
X86.7Y-55.823
X87.225Y-53.0
X87.225Y-54.0
X87.25Y-51.423
X87.25Y-54.88
X87.8Y-53.975
X87.9Y-52.366
X87.9Y-55.823
X88.275Y-54.0
X88.425Y-53.0
X88.45Y-51.423
X88.45Y-54.88
X89.0Y-53.975
X89.1Y-52.366
X89.1Y-55.823
X89.625Y-53.0
X89.625Y-54.0
X89.65Y-51.423
X89.65Y-54.88
X89.775Y-38.5
X89.975Y-40.0
X89.975Y-41.0
X90.2Y-53.975
X90.3Y-52.366
X90.3Y-55.823
X90.65Y-41.275
X90.65Y-42.275
X90.825Y-53.0
X90.825Y-54.0
X90.85Y-51.423
X90.85Y-54.88
X91.4Y-53.975
X91.45Y-37.675
X91.5Y-52.366
X91.5Y-55.823
X91.875Y-54.0
X92.025Y-40.0
X92.025Y-41.0
X92.025Y-42.0
X92.025Y-43.0
X92.025Y-53.0
X92.05Y-51.423
X92.05Y-54.88
X92.6Y-53.525
X92.6Y-53.975
X92.7Y-52.366
X92.7Y-55.823
X93.225Y-53.0
X93.225Y-54.5
X93.7Y-51.673
X93.7Y-55.13
X93.8Y-53.525
X93.8Y-53.975
X94.275Y-54.5
X94.425Y-50.98
X94.425Y-53.0
X94.525Y-54.0
X95.0Y-53.975
X95.05Y-50.755
X95.35Y-49.135
X95.475Y-50.98
X95.475Y-54.5
X95.625Y-53.0
X95.725Y-54.0
X96.2Y-53.975
X96.25Y-50.755
X96.55Y-49.135
X96.675Y-50.98
X96.675Y-54.5
X96.825Y-53.0
X96.925Y-54.0
X97.4Y-53.975
X97.45Y-50.755
X97.75Y-49.135
X97.875Y-50.98
X97.875Y-54.5
X98.025Y-53.0
X98.125Y-54.0
X98.6Y-53.975
X98.65Y-50.755
X98.95Y-49.135
X99.075Y-50.98
X99.075Y-54.5
X99.225Y-53.0
X99.325Y-54.0
X99.8Y-53.975
X99.85Y-50.755
X100.15Y-49.135
X100.275Y-50.98
X100.275Y-54.5
X100.425Y-53.0
X100.525Y-54.0
X101.0Y-53.975
X101.05Y-50.755
X101.35Y-49.135
X101.475Y-50.98
X101.475Y-54.5
X101.625Y-53.0
X101.725Y-54.0
X102.1Y-43.2
X102.2Y-53.975
X102.25Y-50.755
X102.55Y-49.135
X102.675Y-50.98
X102.675Y-54.5
X102.77Y-44.7
X102.825Y-53.0
X103.176Y-52.39
X103.4Y-50.505
X103.4Y-53.815
X103.651Y-51.315
X103.651Y-52.515
X103.651Y-53.115
X103.651Y-54.765
X103.651Y-55.365
X103.75Y-49.135
X104.17Y-40.92
X105.125Y-52.09
X105.315Y-53.59
X105.315Y-54.79
X106.17Y-42.44
X108.17Y-40.54
X110.77Y-48.3
X112.17Y-42.06
X113.58Y-46.46
X116.17Y-40.16
X117.58Y-47.22
X120.17Y-39.4
X121.58Y-43.8
X123.58Y-42.28
X126.17Y-48.14
X127.58Y-40.38
X129.96Y-48.3
X130.56Y-44.7
X131.525Y-46.5
X132.65Y-42.25
X132.65Y-57.35
X132.65Y-62.05
X133.23Y-60.3
X133.775Y-44.7
X133.775Y-45.3
X133.775Y-48.3
X133.775Y-50.1
X133.775Y-50.7
X133.775Y-53.7
X133.775Y-54.9
X133.775Y-57.3
X133.775Y-60.3
X133.775Y-62.1
X133.83Y-63.3
X133.875Y-43.5
X133.875Y-47.1
X133.875Y-48.9
X133.875Y-52.5
X133.875Y-55.5
X133.875Y-59.1
X134.43Y-57.3
X134.43Y-59.1
X135.0Y-56.137
X135.0Y-62.1
X135.475Y-50.1
X135.475Y-50.7
X135.475Y-53.7
X135.475Y-57.3
X136.125Y-44.7
X136.125Y-45.3
X137.14Y-44.7
X138.06Y-50.1
X140.34Y-43.5
X142.08Y-47.1
T2
X46.45Y-62.905
X50.95Y-39.0
X51.5Y-50.438
X51.5Y-50.938
T3
X24.13Y-46.54
X26.67Y-42.85
X26.67Y-46.54
X29.21Y-42.85
X29.21Y-46.54
X31.75Y-46.54
T4
X25.071Y-35.071
X25.071Y-76.929
X140.8Y-76.8
X140.929Y-35.071
M30
