M48
; DRILL file KiCad 10.0.5 date 2026-09-19T00:00:00+08:00
; FORMAT={-:-/ absolute / metric / decimal}
; #@! TF.CreationDate,2026-09-19T00:00:00+08:00
; #@! TF.GenerationSoftware,Kicad,Pcbnew,10.0.5
; #@! TF.FileFunction,Plated,1,3,Blind
FMAT,2
METRIC
; #@! TA.AperFunction,Plated,Buried,ViaDrill
T1C0.200
; #@! TA.AperFunction,Plated,Buried,ViaDrill
T2C0.250
%
G90
G05
T1
X28.25Y-49.84
X28.25Y-51.44
X28.99Y-41.2
X31.79Y-42.1
X31.837Y-55.8
X32.137Y-55.45
X33.038Y-43.135
X34.938Y-41.635
X36.05Y-60.662
X36.85Y-42.15
X40.562Y-50.0
X40.85Y-59.762
X40.95Y-41.95
X42.05Y-59.095
X42.05Y-61.195
X43.637Y-41.3
X43.75Y-39.0
X44.6Y-44.0
X44.75Y-59.495
X45.05Y-70.462
X45.95Y-59.095
X46.65Y-59.6
X47.35Y-70.5
X47.9Y-44.3
X48.05Y-64.5
X48.95Y-70.5
X49.462Y-45.2
X50.05Y-39.0
X50.25Y-42.3
X50.25Y-42.8
X50.85Y-51.8
X51.45Y-39.8
X53.05Y-37.0
X53.2Y-51.5
X53.8Y-51.5
X54.4Y-34.5
X54.4Y-60.2
X55.0Y-34.5
X55.0Y-60.2
X55.05Y-69.5
X55.204Y-69.923
X56.2Y-60.2
X56.8Y-60.2
X57.4Y-51.5
X58.0Y-51.5
X58.6Y-34.5
X59.2Y-34.5
X59.85Y-46.5
X60.2Y-64.0
X60.4Y-51.5
X61.0Y-51.5
X61.6Y-34.5
X61.6Y-60.2
X62.2Y-34.5
X62.2Y-60.2
X63.4Y-60.2
X64.0Y-60.2
X64.6Y-34.5
X64.6Y-51.5
X65.2Y-34.5
X65.2Y-51.5
X82.775Y-61.55
X82.91Y-51.79
X83.65Y-50.28
X84.0Y-58.24
X84.2Y-66.14
X84.75Y-56.77
X84.8Y-50.58
X85.25Y-57.99
X85.3Y-49.36
X85.95Y-56.77
X86.0Y-50.58
X86.45Y-57.99
X86.5Y-49.36
X87.2Y-50.58
X87.25Y-56.82
X87.7Y-49.36
X87.75Y-58.09
X88.4Y-50.58
X88.4Y-56.82
X88.9Y-49.36
X88.9Y-58.04
X89.55Y-56.77
X89.6Y-50.58
X90.05Y-57.99
X90.1Y-49.36
X90.75Y-56.77
X90.8Y-50.58
X91.25Y-57.99
X91.3Y-49.36
X91.95Y-50.63
X92.05Y-56.82
X92.45Y-49.41
X92.55Y-58.09
X93.2Y-56.82
X93.25Y-50.58
X93.7Y-58.04
X93.75Y-49.31
X94.25Y-60.525
X94.89Y-58.903
X95.3Y-66.14
X96.11Y-63.89
X97.56Y-66.09
X99.61Y-59.59
X99.85Y-60.78
X102.56Y-61.59
X102.6Y-59.54
X104.17Y-56.29
X104.216Y-51.511
X104.216Y-52.711
X125.85Y-54.05
X126.43Y-55.25
X127.01Y-43.25
X127.01Y-57.65
X127.59Y-43.85
X127.59Y-58.85
X128.17Y-59.45
X128.75Y-49.25
X129.33Y-46.85
X129.33Y-60.65
X129.91Y-52.25
X130.49Y-47.45
X130.49Y-63.05
X131.07Y-50.8
X131.07Y-52.85
X131.45Y-45.4
X131.65Y-48.65
X131.65Y-64.25
X133.825Y-46.09
X133.825Y-51.49
X136.0Y-47.45
X136.0Y-63.65
X136.58Y-52.85
X137.16Y-46.25
X137.16Y-63.05
X137.74Y-51.65
X138.32Y-60.05
X138.9Y-49.25
X139.48Y-43.85
X139.48Y-59.45
X140.06Y-48.05
X140.64Y-58.25
X141.22Y-42.65
X141.22Y-57.65
X141.8Y-54.65
X142.38Y-54.05
T2
X33.75Y-49.737
X45.95Y-61.637
M30
