%TF.GenerationSoftware,KiCad,Pcbnew,10.0.5*%
%TF.CreationDate,2026-09-19T00:00:00+08:00*%
%TF.ProjectId,k2_v4_8L.l14,6b325f76-345f-4384-9c2e-6c31342e6b69,rev?*%
%TF.SameCoordinates,Original*%
%TF.FileFunction,Copper,L3,Inr*%
%TF.FilePolarity,Positive*%
%FSLAX46Y46*%
G04 Gerber Fmt 4.6, Leading zero omitted, Abs format (unit mm)*
G04 Created by KiCad (PCBNEW 10.0.5) date 2026-09-19T00:00:00+08:00*
%MOMM*%
%LPD*%
G01*
G04 APERTURE LIST*
%TA.AperFunction,ComponentPad*%
%ADD10C,1.500000*%
%TD*%
%TA.AperFunction,ViaPad*%
%ADD11C,0.350000*%
%TD*%
%TA.AperFunction,Conductor*%
%ADD12C,0.200000*%
%TD*%
%TA.AperFunction,Conductor*%
%ADD13C,0.160000*%
%TD*%
%ADD14C,0.200000*%
%ADD15C,0.350000*%
G04 APERTURE END LIST*
D10*
%TO.N,GND*%
%TO.C,J11*%
X31750000Y-65380000D03*
%TO.N,I2C2_SCL*%
X29210000Y-65380000D03*
%TO.N,I2C2_SDA*%
X26670000Y-65380000D03*
%TO.N,P3V3_AUX*%
X24130000Y-65380000D03*
%TD*%
%TO.N,UART_TX*%
%TO.C,J9*%
X31750000Y-55960000D03*
%TO.N,UART_RX*%
X29210000Y-55960000D03*
%TO.N,GND*%
X26670000Y-55960000D03*
%TO.N,MCU_VDD*%
X24130000Y-55960000D03*
%TD*%
%TO.N,SWDIO*%
%TO.C,J13*%
X31750000Y-46540000D03*
%TO.N,SWCLK_BOOT0*%
X29210000Y-46540000D03*
%TO.N,GND*%
X26670000Y-46540000D03*
%TO.N,MCU_VDD*%
X24130000Y-46540000D03*
%TD*%
%TO.N,PWR_CTRL_OUT*%
%TO.C,J6*%
X29210000Y-39660000D03*
%TO.N,GND*%
X26670000Y-39660000D03*
%TD*%
%TO.N,12V_IN*%
%TO.C,J12*%
X29210000Y-42850000D03*
%TO.N,GND*%
X26670000Y-42850000D03*
%TD*%
D11*
%TO.N,GND*%
X133775000Y-54900000D03*
X95475000Y-54500000D03*
X142080000Y-47100000D03*
X133775000Y-44700000D03*
X92025000Y-43000000D03*
X30725000Y-41500000D03*
X135475000Y-57300000D03*
X102675000Y-50980000D03*
X132650000Y-62050000D03*
X35750000Y-55175000D03*
X108170000Y-40540000D03*
X134430000Y-57300000D03*
X94275000Y-54500000D03*
X133875000Y-47100000D03*
X101050000Y-50755000D03*
X134430000Y-59100000D03*
X95050000Y-50755000D03*
X64300000Y-66750000D03*
X104170000Y-40920000D03*
X94425000Y-53000000D03*
X61900000Y-66150000D03*
X42050000Y-57170000D03*
X92025000Y-41000000D03*
X103651000Y-53115000D03*
X126170000Y-48140000D03*
X59500000Y-60625000D03*
X96825000Y-53000000D03*
X92025000Y-53000000D03*
X57700000Y-64775000D03*
X99075000Y-50980000D03*
X100150000Y-49135000D03*
X101475000Y-50980000D03*
X86025000Y-53000000D03*
X37250000Y-48925000D03*
X59500000Y-64775000D03*
X135475000Y-50100000D03*
X83430000Y-52715000D03*
X137140000Y-44700000D03*
X97450000Y-50755000D03*
X121580000Y-43800000D03*
X96675000Y-54500000D03*
X84675000Y-53000000D03*
X117580000Y-47220000D03*
X103651000Y-54765000D03*
X97750000Y-49135000D03*
X88425000Y-53000000D03*
X30738266Y-53088225D03*
X133775000Y-57300000D03*
X133875000Y-52500000D03*
X45475000Y-40000000D03*
X102825000Y-53000000D03*
X59500000Y-50500000D03*
X133875000Y-43500000D03*
X133830000Y-63300000D03*
X103400000Y-50505000D03*
X98025000Y-53000000D03*
X103176000Y-52390000D03*
X82285000Y-53590000D03*
X79480000Y-59050000D03*
X42050000Y-62830000D03*
X133875000Y-55500000D03*
X133775000Y-45300000D03*
X31825000Y-36365000D03*
X75770000Y-58550000D03*
X93225000Y-54500000D03*
X45025000Y-35000000D03*
X102550000Y-49135000D03*
X92025000Y-40000000D03*
X99225000Y-53000000D03*
X83575000Y-56516000D03*
X46725000Y-59365000D03*
X133775000Y-50700000D03*
X62500000Y-65950000D03*
X133775000Y-62100000D03*
X132650000Y-42250000D03*
X105315000Y-54790000D03*
X100275000Y-50980000D03*
X127580000Y-40380000D03*
X43200000Y-53725000D03*
X91450000Y-37675000D03*
X103651000Y-51315000D03*
X89625000Y-53000000D03*
X101350000Y-49135000D03*
X65525000Y-63950000D03*
X133775000Y-60300000D03*
X81480000Y-59050000D03*
X39074999Y-53250000D03*
X130560000Y-44700000D03*
X140340000Y-43500000D03*
X95625000Y-53000000D03*
X81770000Y-57550000D03*
X65525000Y-61450000D03*
X116170000Y-40160000D03*
X84574000Y-54190000D03*
X102250000Y-50755000D03*
X123580000Y-42280000D03*
X106170000Y-42440000D03*
X102675000Y-54500000D03*
X99850000Y-50755000D03*
X133775000Y-53700000D03*
X45800000Y-50275000D03*
X84574000Y-53590000D03*
X90825000Y-53000000D03*
X58900000Y-50700000D03*
X35250000Y-48575000D03*
X133775000Y-50100000D03*
X100425000Y-53000000D03*
X136125000Y-45300000D03*
X92025000Y-42000000D03*
X36750000Y-55425000D03*
X36250000Y-55425000D03*
X36750000Y-49775000D03*
X98950000Y-49135000D03*
X102770000Y-44700000D03*
X56500000Y-40250000D03*
X94425000Y-50980000D03*
X53475000Y-61450000D03*
X57700000Y-62275000D03*
X129960000Y-48300000D03*
X99075000Y-54500000D03*
X131525000Y-46500000D03*
X100275000Y-54500000D03*
X135475000Y-50700000D03*
X96250000Y-50755000D03*
X63700000Y-66349999D03*
X51725000Y-41000000D03*
X103651000Y-52515000D03*
X53475000Y-63950000D03*
X101625000Y-53000000D03*
X36625000Y-54700000D03*
X96675000Y-50980000D03*
X96550000Y-49135000D03*
X135475000Y-53700000D03*
X95475000Y-50980000D03*
X42050000Y-61560000D03*
X113580000Y-46460000D03*
X97875000Y-54500000D03*
X58300000Y-65150000D03*
X110770000Y-48300000D03*
X101475000Y-54500000D03*
X133875000Y-59100000D03*
X98650000Y-50755000D03*
X95350000Y-49135000D03*
X132650000Y-57350000D03*
X84055000Y-54490000D03*
X103750000Y-49135000D03*
X32966779Y-51169323D03*
X83430000Y-50865000D03*
X103651000Y-55365000D03*
X133775000Y-48300000D03*
X64900000Y-56900000D03*
X34750000Y-48925000D03*
X112170000Y-42060000D03*
X133229999Y-60300000D03*
X138060000Y-50100000D03*
X45225000Y-37500000D03*
X105315000Y-53590000D03*
X103400000Y-53815000D03*
X136125000Y-44700000D03*
X120170000Y-39400000D03*
X102100000Y-43200000D03*
X55900000Y-40650000D03*
X133875000Y-48900000D03*
X83430000Y-51515000D03*
X97875000Y-50980000D03*
X87225000Y-53000000D03*
X93225000Y-53000000D03*
%TO.N,MCU_VDD*%
X30800000Y-51650000D03*
X28800000Y-54900000D03*
X30475000Y-54500000D03*
X30000000Y-54350000D03*
X39500000Y-36200000D03*
X56725000Y-66500000D03*
X45950000Y-57170000D03*
X30700000Y-51200000D03*
X41275000Y-59365000D03*
X40000000Y-36100000D03*
X56725000Y-68500000D03*
X30000000Y-54800000D03*
X56725000Y-69500000D03*
X41300000Y-36500000D03*
X56725000Y-67500000D03*
%TO.N,PERSTA#*%
X32525000Y-54500000D03*
X31900000Y-54500000D03*
X43750000Y-37000000D03*
X59800000Y-40900000D03*
X133700000Y-56300000D03*
X59750000Y-41400000D03*
X50050000Y-37000000D03*
%TO.N,PWR_BTN_OUT*%
X33198700Y-56303500D03*
X53050000Y-37000000D03*
%TO.N,P3V3_AUX*%
X34350000Y-57200000D03*
X58900000Y-62275000D03*
X50550000Y-37800000D03*
X34250000Y-55262500D03*
X28975000Y-53000000D03*
X51150000Y-38000000D03*
X59864700Y-48439700D03*
X51725000Y-37000000D03*
X59850000Y-46500000D03*
X59750000Y-44700000D03*
%TO.N,I2C2_SCL*%
X82866700Y-51215000D03*
X29960000Y-65380000D03*
X55050000Y-68500000D03*
X37750000Y-56337500D03*
%TO.N,I2C2_SDA*%
X38250000Y-55962500D03*
X38250000Y-55462500D03*
X55203900Y-69922900D03*
X55050000Y-69500000D03*
X27420000Y-65380000D03*
X82910000Y-51790000D03*
%TO.N,UART_TX*%
X39987500Y-52750000D03*
X32725000Y-56000000D03*
X30411329Y-56062563D03*
%TO.N,UART_RX*%
X40162500Y-51250000D03*
%TO.N,SWCLK_BOOT0*%
X29836871Y-47099923D03*
%TO.N,I2C1_SCL*%
X45950000Y-60635000D03*
X33750000Y-47837500D03*
%TO.N,I2C1_SDA*%
X135000000Y-56137500D03*
X62800000Y-50437500D03*
X45950000Y-61905000D03*
X45400000Y-48037500D03*
X33225000Y-47880800D03*
X33300000Y-48837500D03*
%TO.N,FB_U2*%
X28990000Y-34000000D03*
X30525000Y-37635000D03*
%TO.N,12V_IN*%
X35725000Y-37635000D03*
X31050000Y-39830000D03*
X28275000Y-41500000D03*
X34637500Y-37950000D03*
X31937500Y-40250000D03*
%TO.N,P3V3*%
X40707106Y-35932106D03*
X93800000Y-53975000D03*
X86600000Y-53975000D03*
X96200000Y-53975000D03*
X81000000Y-60600000D03*
X95000000Y-53975000D03*
X34950000Y-39830000D03*
X104170000Y-55690000D03*
X85400000Y-53975000D03*
X88275000Y-54000000D03*
X90650000Y-42275000D03*
X28990000Y-38200000D03*
X90200000Y-53975000D03*
X98125000Y-54000000D03*
X100525000Y-54000000D03*
X94525000Y-54000000D03*
X102200000Y-53975000D03*
X89975000Y-41000000D03*
X93800000Y-53525000D03*
X40950000Y-38775000D03*
X90825000Y-54000000D03*
X97400000Y-53975000D03*
X99325000Y-54000000D03*
X42525000Y-40000000D03*
X98600000Y-53975000D03*
X104690000Y-55990000D03*
X94500000Y-64700000D03*
X89775000Y-38500000D03*
X89975000Y-40000000D03*
X101000000Y-53975000D03*
X92600000Y-53525000D03*
X91875000Y-54000000D03*
X85875000Y-54000000D03*
X101725000Y-54000000D03*
X87800000Y-53975000D03*
X99800000Y-53975000D03*
X92600000Y-53975000D03*
X87225000Y-54000000D03*
X90650000Y-41275000D03*
X89000000Y-53975000D03*
X89625000Y-54000000D03*
X91400000Y-53975000D03*
X95725000Y-54000000D03*
X96925000Y-54000000D03*
%TO.N,PCIE_DN_OUT4_P_MCIO*%
X54400000Y-60200000D03*
X89100000Y-52366000D03*
X54400000Y-42010000D03*
%TO.N,PCIE_DN_OUT4_N_MCIO*%
X89650000Y-51423000D03*
X55000000Y-60200000D03*
X55000000Y-42510000D03*
%TO.N,PCIE_DN_OUT5_P_MCIO*%
X56200000Y-60200000D03*
X90300000Y-52366000D03*
X56200000Y-43080000D03*
%TO.N,PCIE_DN_OUT5_N_MCIO*%
X90850000Y-51423000D03*
X56800000Y-60200000D03*
X56800000Y-43580000D03*
%TO.N,PCIE_REFCLK1_N*%
X131070000Y-50800000D03*
X133824999Y-51490000D03*
%TO.N,PCIE_DN_OUT6_P_MCIO*%
X91500000Y-52366000D03*
X61600000Y-60200000D03*
X61600000Y-44150000D03*
%TO.N,PCIE_DN_OUT6_N_MCIO*%
X62200000Y-60200000D03*
X92050000Y-51423000D03*
X62200000Y-44650000D03*
%TO.N,PCIE_DN_OUT7_P_MCIO*%
X63400000Y-60200000D03*
X92700000Y-52366000D03*
X63400000Y-34520000D03*
%TO.N,PCIE_DN_OUT7_N_MCIO*%
X64000000Y-60200000D03*
X93700000Y-51673000D03*
X64000000Y-35020000D03*
%TO.N,PCIE_UP4_P*%
X54400000Y-65000000D03*
X90100000Y-49360000D03*
X90100000Y-46290000D03*
%TO.N,PCIE_UP4_N*%
X89600000Y-50580000D03*
X55000000Y-65000000D03*
X89600000Y-46790000D03*
%TO.N,PCIE_UP5_P*%
X91300000Y-49360000D03*
X56200000Y-65000000D03*
X91300000Y-47360000D03*
%TO.N,PCIE_UP5_N*%
X90800000Y-50580000D03*
X56800000Y-65000000D03*
X90800000Y-47860000D03*
%TO.N,PERSTB#*%
X60200000Y-64000000D03*
X135000000Y-62100000D03*
X67400000Y-63500000D03*
%TO.N,PCIE_UP6_P*%
X61600000Y-65000000D03*
X91950000Y-50630000D03*
X91950000Y-48430000D03*
%TO.N,PCIE_UP6_N*%
X62200000Y-65000000D03*
X92450000Y-49410000D03*
X92450000Y-48930000D03*
%TO.N,PCIE_UP7_P*%
X93250000Y-50580000D03*
X63400000Y-65000000D03*
X93250000Y-49500000D03*
%TO.N,PCIE_UP7_N*%
X93750000Y-49310000D03*
X64000000Y-65000000D03*
X93750000Y-50000000D03*
%TO.N,PWR_BTN_ISO*%
X43200000Y-51100000D03*
X53930800Y-37016100D03*
%TO.N,PCIE_UP_OUT0_P_J2*%
X141220000Y-42650000D03*
X84850000Y-54880000D03*
X141220000Y-56834000D03*
%TO.N,PCIE_UP_OUT0_N_J2*%
X127010000Y-43250000D03*
X84350000Y-55723000D03*
X127010000Y-56334000D03*
%TO.N,PCIE_UP_OUT1_P_J2*%
X86050000Y-54880000D03*
X127590000Y-43850000D03*
X127590000Y-57783000D03*
%TO.N,PCIE_UP_OUT1_N_J2*%
X139480000Y-43850000D03*
X85500000Y-55823000D03*
X139480000Y-58283000D03*
%TO.N,PCIE_REFCLK0_N*%
X131449999Y-45400000D03*
X133824999Y-46090000D03*
%TO.N,PCIE_UP_OUT2_P_J2*%
X137160000Y-46250000D03*
X87250000Y-54880000D03*
X137160000Y-59732000D03*
%TO.N,PCIE_UP_OUT2_N_J2*%
X86700000Y-55823000D03*
X129330000Y-46850000D03*
X129330000Y-59232000D03*
%TO.N,PCIE_UP_OUT3_P_J2*%
X88450000Y-54880000D03*
X130490000Y-47450000D03*
X130490000Y-60681000D03*
%TO.N,PCIE_UP_OUT3_N_J2*%
X136000000Y-47450000D03*
X87900000Y-55823000D03*
X136000000Y-61181000D03*
%TO.N,PCIE_UP_OUT4_P_J2*%
X140060000Y-48050000D03*
X89650000Y-54880000D03*
X140060000Y-62630000D03*
%TO.N,PCIE_UP_OUT4_N_J2*%
X89100000Y-55823000D03*
X131650000Y-48650000D03*
X131650000Y-62130000D03*
%TO.N,PCIE_UP_OUT5_P_J2*%
X128750000Y-49250000D03*
X90850000Y-54880000D03*
X128750000Y-63579000D03*
%TO.N,PCIE_UP_OUT5_N_J2*%
X90300000Y-55823000D03*
X138900000Y-49250000D03*
X138900000Y-64078999D03*
%TO.N,PCIE_UP_OUT6_P_J2*%
X92050000Y-54880000D03*
X137740000Y-51650000D03*
X137740000Y-65528000D03*
%TO.N,PCIE_UP_OUT6_N_J2*%
X129910000Y-52250000D03*
X91500000Y-55823000D03*
X129910000Y-65028000D03*
%TO.N,PCIE_UP_OUT7_P_J2*%
X131070000Y-52850000D03*
X93700000Y-55130000D03*
X131070000Y-66477000D03*
%TO.N,PCIE_UP_OUT7_N_J2*%
X136580000Y-52850000D03*
X92700000Y-55823000D03*
X136580000Y-66977000D03*
%TO.N,PCIE_DN0_P*%
X84750000Y-56770000D03*
X125850000Y-54050000D03*
X125850000Y-67926000D03*
X84750000Y-67926000D03*
%TO.N,PCIE_DN0_N*%
X85250000Y-57990000D03*
X142380000Y-54050000D03*
X142380000Y-68426000D03*
X85250000Y-68426000D03*
%TO.N,PCIE_DN1_P*%
X85950000Y-56770000D03*
X141800000Y-54650000D03*
X85950000Y-69875000D03*
X141800000Y-69875000D03*
%TO.N,PCIE_DN1_N*%
X126430000Y-55250000D03*
X86450000Y-57990000D03*
X126430000Y-69375000D03*
X86450000Y-69375000D03*
%TO.N,PCIE_DN2_P*%
X87750000Y-58090000D03*
X127010000Y-57650000D03*
X127010000Y-70824000D03*
X87750000Y-70824000D03*
%TO.N,PCIE_DN2_N*%
X141220000Y-57650000D03*
X87250000Y-56820000D03*
X87250000Y-71324000D03*
X141220000Y-71324000D03*
%TO.N,PCIE_DN3_P*%
X140640000Y-58250000D03*
X88900000Y-58040000D03*
X88900000Y-72773000D03*
X140640000Y-72773000D03*
%TO.N,PCIE_DN3_N*%
X88400000Y-56820000D03*
X127590000Y-58850000D03*
X88400000Y-72273000D03*
X127590000Y-72273000D03*
%TO.N,PCIE_DN4_P*%
X128169999Y-59450000D03*
X89550000Y-56770000D03*
X89550000Y-73722000D03*
X128169999Y-73722000D03*
%TO.N,PCIE_DN4_N*%
X139480000Y-59450000D03*
X90050000Y-57990000D03*
X139480000Y-74222000D03*
X90050000Y-74222000D03*
%TO.N,PCIE_DN5_P*%
X138320000Y-60050000D03*
X90750000Y-56770000D03*
X90750000Y-75671000D03*
X138320000Y-75671000D03*
%TO.N,PCIE_DN5_N*%
X91250000Y-57990000D03*
X129330000Y-60650000D03*
X129330000Y-75171000D03*
X91250000Y-75171000D03*
%TO.N,PCIE_DN6_P*%
X130490000Y-63050000D03*
X92550000Y-58090000D03*
X130490000Y-76620000D03*
X92550000Y-76620000D03*
%TO.N,PCIE_DN6_N*%
X92050000Y-56820000D03*
X137160000Y-63050000D03*
X137160000Y-77120000D03*
X92050000Y-77120000D03*
%TO.N,PCIE_DN7_P*%
X136000000Y-63650000D03*
X93700000Y-58040000D03*
X93700000Y-78569000D03*
X136000000Y-78569000D03*
%TO.N,PCIE_DN7_N*%
X131650000Y-64250000D03*
X93200000Y-56820000D03*
X131650000Y-78069000D03*
X93200000Y-78069000D03*
%TO.N,DS320_STRAP_MODE*%
X104215700Y-52711100D03*
X82775000Y-61550000D03*
%TO.N,PCIE_DN_OUT1_N_MCIO*%
X86050000Y-51423000D03*
X60400000Y-51500000D03*
X60400000Y-39870000D03*
%TO.N,PCIE_UP1_P*%
X86500000Y-49360000D03*
X62200000Y-34500000D03*
X86500000Y-35590000D03*
X62200000Y-35590000D03*
%TO.N,PCIE_DN_OUT2_P_MCIO*%
X86700000Y-52366000D03*
X58000000Y-51500000D03*
X58000000Y-39300000D03*
%TO.N,PCIE_UP2_P*%
X59200000Y-34500000D03*
X87200000Y-50580000D03*
X87200000Y-45220000D03*
X59200000Y-45220000D03*
%TO.N,PCIE_DN_OUT2_N_MCIO*%
X87250000Y-51423000D03*
X57400000Y-51500000D03*
X57400000Y-38800000D03*
%TO.N,PCIE_UP2_N*%
X58600000Y-34500000D03*
X87700000Y-49360000D03*
X87700000Y-45720000D03*
X58600000Y-45720000D03*
%TO.N,PCIE_DN_OUT3_P_MCIO*%
X87900000Y-52366000D03*
X53800000Y-51500000D03*
X53800000Y-38230000D03*
%TO.N,PCIE_UP3_P*%
X88400000Y-50580000D03*
X55000000Y-34500000D03*
X88400000Y-33950000D03*
X55000000Y-33950000D03*
%TO.N,PCIE_DN_OUT3_N_MCIO*%
X53200000Y-51500000D03*
X88450000Y-51423000D03*
X53200000Y-37730000D03*
%TO.N,PCIE_UP3_N*%
X88900000Y-49360000D03*
X54400000Y-34500000D03*
X54400000Y-33450000D03*
X88900000Y-33450000D03*
%TO.N,DS320_STRAP_A_ADDR0_7-0*%
X82910000Y-52990000D03*
X84210000Y-63890000D03*
X96110000Y-63890000D03*
X99610000Y-59590000D03*
%TO.N,DS320_STRAP_B_ADDR0_7-0*%
X102560000Y-61590000D03*
X84160000Y-66690000D03*
X82360000Y-54490000D03*
X97560000Y-66090000D03*
%TO.N,DS320_STRAP_B_ADDR1_7-0*%
X83650000Y-50279600D03*
X99850000Y-60779600D03*
X103050000Y-51879600D03*
X106750000Y-55479600D03*
%TO.N,DS320_STRAP_A_ADDR0_15-8*%
X94250400Y-60525000D03*
X104170400Y-56290000D03*
%TO.N,DS320_STRAP_B_ADDR1_15-8*%
X104215700Y-51511100D03*
X94889800Y-58903000D03*
%TO.N,DS320_STRAP_B_ADDR0_15-8*%
X82025000Y-62190000D03*
X105125000Y-52090000D03*
%TO.N,DS320_STRAP_A_ADDR1_7-0*%
X95300000Y-66140000D03*
X102600000Y-59540000D03*
X84000000Y-58240000D03*
X84200000Y-66140000D03*
%TO.N,PCIE_DN_OUT0_P_MCIO*%
X84300000Y-52366000D03*
X65200000Y-51500000D03*
X65200000Y-41440000D03*
%TO.N,PCIE_UP0_N*%
X84800000Y-50580000D03*
X64599999Y-34500000D03*
X64599999Y-37160000D03*
X84800000Y-37160000D03*
%TO.N,PCIE_DN_OUT0_N_MCIO*%
X84850000Y-51423000D03*
X64599999Y-51500000D03*
X64599999Y-40940000D03*
%TO.N,PCIE_UP0_P*%
X85300000Y-49360000D03*
X65200000Y-34500000D03*
X65200000Y-36660000D03*
X85300000Y-36660000D03*
%TO.N,PCIE_DN_OUT1_P_MCIO*%
X61000000Y-51500000D03*
X85500000Y-52366000D03*
X61000000Y-40370000D03*
%TO.N,PCIE_UP1_N*%
X86000000Y-50580000D03*
X61600000Y-34500000D03*
X61600000Y-36090000D03*
X86000000Y-36090000D03*
%TO.N,SW_U2*%
X34162500Y-35095000D03*
X40700000Y-34600000D03*
%TO.N,LED_A*%
X49725000Y-66500000D03*
%TO.N,PWR_CTRL_OUT*%
X45800000Y-52900000D03*
%TD*%
%TO.N,MCU_VDD*%
D12*
X33600000Y-46100000D02*
X33600000Y-46300000D01*
X33900000Y-45400000D02*
X33800000Y-45500000D01*
X41300000Y-36500000D02*
X40600000Y-36500000D01*
X34900000Y-42100000D02*
X34900000Y-42300000D01*
X34800000Y-42400000D02*
X34800000Y-42600000D01*
X34400000Y-43600000D02*
X34400000Y-43800000D01*
X40400000Y-36400000D02*
X40100000Y-36100000D01*
X34100000Y-44600000D02*
X34100000Y-44800000D01*
X34500000Y-43300000D02*
X34500000Y-43500000D01*
X34200000Y-44300000D02*
X34200000Y-44500000D01*
X35000000Y-42000000D02*
X34900000Y-42100000D01*
X33700000Y-46000000D02*
X33600000Y-46100000D01*
X28800000Y-54900000D02*
X29000000Y-54900000D01*
X33400000Y-46700000D02*
X33400000Y-46900000D01*
X33800000Y-45500000D02*
X33800000Y-45700000D01*
X35500000Y-40400000D02*
X35400000Y-40500000D01*
X33900000Y-45200000D02*
X33900000Y-45400000D01*
X32600000Y-49300000D02*
X30700000Y-51200000D01*
X40100000Y-36100000D02*
X40000000Y-36100000D01*
X30800000Y-52250000D02*
X30800000Y-51650000D01*
X35100000Y-41700000D02*
X35000000Y-41800000D01*
X30000000Y-54350000D02*
X30200000Y-54150000D01*
X32700000Y-47600000D02*
X32700000Y-49100000D01*
X33500000Y-46400000D02*
X33500000Y-46600000D01*
X40500000Y-36400000D02*
X40400000Y-36400000D01*
X34700000Y-42900000D02*
X34600000Y-43000000D01*
X33500000Y-46600000D02*
X33400000Y-46700000D01*
X33800000Y-45700000D02*
X33700000Y-45800000D01*
X29000000Y-54900000D02*
X29100000Y-54800000D01*
X34500000Y-43500000D02*
X34400000Y-43600000D01*
X34000000Y-44900000D02*
X34000000Y-45100000D01*
X32600000Y-49200000D02*
X32600000Y-49300000D01*
X35500000Y-40200000D02*
X35500000Y-40400000D01*
X33400000Y-46900000D02*
X32700000Y-47600000D01*
X35400000Y-40500000D02*
X35400000Y-40700000D01*
X33600000Y-46300000D02*
X33500000Y-46400000D01*
X35200000Y-41400000D02*
X35100000Y-41500000D01*
X34700000Y-42700000D02*
X34700000Y-42900000D01*
X32700000Y-49100000D02*
X32600000Y-49200000D01*
X35300000Y-41000000D02*
X35200000Y-41100000D01*
X34100000Y-44800000D02*
X34000000Y-44900000D01*
X34800000Y-42600000D02*
X34700000Y-42700000D01*
X30200000Y-52850000D02*
X30800000Y-52250000D01*
X35200000Y-41100000D02*
X35200000Y-41400000D01*
X35400000Y-40700000D02*
X35300000Y-40800000D01*
X39500000Y-36200000D02*
X35500000Y-40200000D01*
X35000000Y-41800000D02*
X35000000Y-42000000D01*
X34400000Y-43800000D02*
X34300000Y-43900000D01*
X34900000Y-42300000D02*
X34800000Y-42400000D01*
X33700000Y-45800000D02*
X33700000Y-46000000D01*
X30200000Y-54150000D02*
X30200000Y-52850000D01*
X34300000Y-44200000D02*
X34200000Y-44300000D01*
X34600000Y-43200000D02*
X34500000Y-43300000D01*
X34600000Y-43000000D02*
X34600000Y-43200000D01*
X29100000Y-54800000D02*
X30000000Y-54800000D01*
X34200000Y-44500000D02*
X34100000Y-44600000D01*
X35100000Y-41500000D02*
X35100000Y-41700000D01*
X40600000Y-36500000D02*
X40500000Y-36400000D01*
X34300000Y-43900000D02*
X34300000Y-44200000D01*
X34000000Y-45100000D02*
X33900000Y-45200000D01*
X35300000Y-40800000D02*
X35300000Y-41000000D01*
%TO.N,PERSTA#*%
X31900000Y-52900000D02*
X31900000Y-54500000D01*
X43800000Y-41000000D02*
X31900000Y-52900000D01*
X43800000Y-37000000D02*
X43800000Y-41000000D01*
%TO.N,PWR_BTN_OUT*%
X53200000Y-37000000D02*
X53050000Y-37000000D01*
X33700000Y-56300000D02*
X34000000Y-56000000D01*
X33200000Y-56300000D02*
X33700000Y-56300000D01*
X34000000Y-56000000D02*
X34200000Y-56000000D01*
X34200000Y-56000000D02*
X53200000Y-37000000D01*
%TO.N,P3V3_AUX*%
X59850000Y-46500000D02*
X59750000Y-46400000D01*
X59750000Y-46400000D02*
X59750000Y-44700000D01*
%TO.N,I2C2_SCL*%
X28720000Y-65380000D02*
X29960000Y-65380000D01*
X37800000Y-56300000D02*
X28720000Y-65380000D01*
%TO.N,I2C2_SDA*%
X38250000Y-69500000D02*
X38250000Y-55462500D01*
X55000000Y-69500000D02*
X38250000Y-69500000D01*
X38000000Y-55900000D02*
X37900000Y-55900000D01*
X37400000Y-55800000D02*
X27820000Y-65380000D01*
X56500000Y-70000000D02*
X61700000Y-70000000D01*
X56400000Y-69900000D02*
X56500000Y-70000000D01*
X38100000Y-56000000D02*
X38000000Y-55900000D01*
X61700000Y-70000000D02*
X79910000Y-51790000D01*
X37800000Y-55800000D02*
X37400000Y-55800000D01*
X79910000Y-51790000D02*
X82910000Y-51790000D01*
X55200000Y-69900000D02*
X56400000Y-69900000D01*
X27820000Y-65380000D02*
X27420000Y-65380000D01*
X38200000Y-56000000D02*
X38100000Y-56000000D01*
X37900000Y-55900000D02*
X37800000Y-55800000D01*
%TO.N,FB_U2*%
X30500000Y-37600000D02*
X30500000Y-34000000D01*
X30500000Y-34000000D02*
X28990000Y-34000000D01*
%TO.N,12V_IN*%
X32537500Y-40050000D02*
X32437500Y-40050000D01*
X32037500Y-40250000D02*
X31937500Y-40250000D01*
X32137500Y-40150000D02*
X32037500Y-40250000D01*
X32337500Y-40150000D02*
X32137500Y-40150000D01*
X32437500Y-40050000D02*
X32337500Y-40150000D01*
X34637500Y-37950000D02*
X32537500Y-40050000D01*
%TO.N,PCIE_DN_OUT4_P_MCIO*%
D13*
X54400000Y-42010000D02*
X54400000Y-60200000D01*
%TO.N,PCIE_DN_OUT4_N_MCIO*%
X55000000Y-42510000D02*
X55000000Y-60200000D01*
%TO.N,PCIE_DN_OUT5_P_MCIO*%
X56200000Y-43080000D02*
X56200000Y-60200000D01*
%TO.N,PCIE_DN_OUT5_N_MCIO*%
X56800000Y-43580000D02*
X56800000Y-60200000D01*
%TO.N,PCIE_REFCLK1_N*%
X132699999Y-48150000D02*
X131070000Y-48150000D01*
X131070000Y-48150000D02*
X131070000Y-50800000D01*
X132699999Y-51490000D02*
X132699999Y-48150000D01*
X133824999Y-51490000D02*
X132699999Y-51490000D01*
%TO.N,PCIE_DN_OUT6_P_MCIO*%
X61600000Y-44150000D02*
X61600000Y-60200000D01*
%TO.N,PCIE_DN_OUT6_N_MCIO*%
X62200000Y-44650000D02*
X62200000Y-60200000D01*
%TO.N,PCIE_DN_OUT7_P_MCIO*%
X63400000Y-34520000D02*
X63400000Y-60200000D01*
%TO.N,PCIE_DN_OUT7_N_MCIO*%
X64000000Y-35020000D02*
X64000000Y-60200000D01*
%TO.N,PCIE_UP4_P*%
X90100000Y-49360000D02*
X90100000Y-46290000D01*
%TO.N,PCIE_UP4_N*%
X89600000Y-50580000D02*
X89600000Y-46790000D01*
%TO.N,PCIE_UP5_P*%
X91300000Y-49360000D02*
X91300000Y-47360000D01*
%TO.N,PCIE_UP5_N*%
X90800000Y-50580000D02*
X90800000Y-47860000D01*
%TO.N,PERSTB#*%
D12*
X60200000Y-64000000D02*
X64700000Y-64000000D01*
X65200000Y-63500000D02*
X67400000Y-63500000D01*
X64700000Y-64000000D02*
X65200000Y-63500000D01*
%TO.N,PCIE_UP6_P*%
D13*
X91950000Y-50630000D02*
X91950000Y-48430000D01*
%TO.N,PCIE_UP6_N*%
X92450000Y-49410000D02*
X92450000Y-48930000D01*
%TO.N,PCIE_UP7_P*%
X93250000Y-50580000D02*
X93250000Y-49500000D01*
%TO.N,PCIE_UP7_N*%
X93750000Y-49310000D02*
X93750000Y-50000000D01*
%TO.N,PCIE_UP_OUT0_P_J2*%
X141220000Y-56834000D02*
X141220000Y-42650000D01*
%TO.N,PCIE_UP_OUT0_N_J2*%
X127010000Y-43330000D02*
X127010000Y-43250000D01*
X127023714Y-43330000D02*
X127010000Y-43330000D01*
X127010000Y-56254000D02*
X127023714Y-56254000D01*
X127010000Y-56334000D02*
X127010000Y-56254000D01*
X127023714Y-56254000D02*
X127023714Y-43330000D01*
%TO.N,PCIE_UP_OUT1_P_J2*%
X127590000Y-43930000D02*
X127590000Y-43850000D01*
X127600736Y-43930000D02*
X127590000Y-43930000D01*
X127600736Y-57703000D02*
X127600736Y-43930000D01*
X127590000Y-57703000D02*
X127600736Y-57703000D01*
X127590000Y-57783000D02*
X127590000Y-57703000D01*
%TO.N,PCIE_UP_OUT1_N_J2*%
X139480000Y-58283000D02*
X139480000Y-43850000D01*
%TO.N,PCIE_REFCLK0_N*%
D12*
X133135000Y-45400000D02*
X131450000Y-45400000D01*
X133825000Y-46090000D02*
X133135000Y-45400000D01*
%TO.N,PCIE_UP_OUT2_P_J2*%
D13*
X137160000Y-59732000D02*
X137160000Y-46250000D01*
%TO.N,PCIE_UP_OUT2_N_J2*%
X129330000Y-59152000D02*
X129339930Y-59152000D01*
X129330000Y-46930000D02*
X129330000Y-46850000D01*
X129339930Y-46930000D02*
X129330000Y-46930000D01*
X129330000Y-59232000D02*
X129330000Y-59152000D01*
X129339930Y-59152000D02*
X129339930Y-46930000D01*
%TO.N,PCIE_UP_OUT3_P_J2*%
X130490000Y-60681000D02*
X130490000Y-47450000D01*
%TO.N,PCIE_UP_OUT3_N_J2*%
X136014749Y-47530000D02*
X136000000Y-47530000D01*
X136000000Y-61181000D02*
X136000000Y-61101000D01*
X136014749Y-61101000D02*
X136014749Y-47530000D01*
X136000000Y-47530000D02*
X136000000Y-47450000D01*
X136000000Y-61101000D02*
X136014749Y-61101000D01*
%TO.N,PCIE_UP_OUT4_P_J2*%
X140060000Y-62630000D02*
X140060000Y-48050000D01*
%TO.N,PCIE_UP_OUT4_N_J2*%
X131670439Y-48730000D02*
X131650000Y-48730000D01*
X131670439Y-62050000D02*
X131670439Y-48730000D01*
X131650000Y-62050000D02*
X131670439Y-62050000D01*
X131650000Y-62130000D02*
X131650000Y-62050000D01*
X131650000Y-48730000D02*
X131650000Y-48650000D01*
%TO.N,PCIE_UP_OUT5_P_J2*%
X128750000Y-49330000D02*
X128750000Y-49250000D01*
X128761574Y-63499000D02*
X128761574Y-49330000D01*
X128750000Y-63499000D02*
X128761574Y-63499000D01*
X128761574Y-49330000D02*
X128750000Y-49330000D01*
X128750000Y-63579000D02*
X128750000Y-63499000D01*
%TO.N,PCIE_UP_OUT5_N_J2*%
X138900000Y-64078999D02*
X138900000Y-49250000D01*
%TO.N,PCIE_UP_OUT6_P_J2*%
X137740000Y-65528000D02*
X137740000Y-51650000D01*
%TO.N,PCIE_UP_OUT6_N_J2*%
X129910000Y-64948000D02*
X129923623Y-64948000D01*
X129910000Y-65028000D02*
X129910000Y-64948000D01*
X129910000Y-52330000D02*
X129910000Y-52250000D01*
X129923623Y-52330000D02*
X129910000Y-52330000D01*
X129923623Y-64948000D02*
X129923623Y-52330000D01*
%TO.N,PCIE_UP_OUT7_P_J2*%
X131070000Y-66397000D02*
X131084279Y-66397000D01*
X131070000Y-66477000D02*
X131070000Y-66397000D01*
X131084279Y-66397000D02*
X131084279Y-52930000D01*
X131084279Y-52930000D02*
X131070000Y-52930000D01*
X131070000Y-52930000D02*
X131070000Y-52850000D01*
%TO.N,PCIE_UP_OUT7_N_J2*%
X136580000Y-66977000D02*
X136580000Y-52850000D01*
%TO.N,PCIE_DN0_P*%
X84750000Y-56770000D02*
X84750000Y-67926000D01*
X125850000Y-67926000D02*
X125850000Y-54050000D01*
%TO.N,PCIE_DN0_N*%
X85250000Y-57990000D02*
X85250000Y-68426000D01*
X142380000Y-68426000D02*
X142380000Y-54050000D01*
%TO.N,PCIE_DN1_P*%
X85950000Y-56770000D02*
X85950000Y-69875000D01*
X141800000Y-69875000D02*
X141800000Y-54650000D01*
%TO.N,PCIE_DN1_N*%
X86450000Y-57990000D02*
X86450000Y-69375000D01*
X126430000Y-69375000D02*
X126430000Y-55250000D01*
%TO.N,PCIE_DN2_P*%
X127010000Y-70824000D02*
X127010000Y-57650000D01*
X87750000Y-58090000D02*
X87750000Y-70824000D01*
%TO.N,PCIE_DN2_N*%
X141220000Y-71324000D02*
X141220000Y-57650000D01*
X87250000Y-56820000D02*
X87250000Y-71324000D01*
%TO.N,PCIE_DN3_P*%
X140640000Y-72773000D02*
X140640000Y-58250000D01*
X88900000Y-58040000D02*
X88900000Y-72773000D01*
%TO.N,PCIE_DN3_N*%
X88400000Y-56820000D02*
X88400000Y-72273000D01*
X127590000Y-72273000D02*
X127590000Y-58850000D01*
%TO.N,PCIE_DN4_P*%
X128169999Y-73722000D02*
X128169999Y-59450000D01*
X89550000Y-56770000D02*
X89550000Y-73722000D01*
%TO.N,PCIE_DN4_N*%
X139480000Y-74222000D02*
X139480000Y-59450000D01*
X90050000Y-57990000D02*
X90050000Y-74222000D01*
%TO.N,PCIE_DN5_P*%
X90750000Y-56770000D02*
X90750000Y-75671000D01*
X138320000Y-75671000D02*
X138320000Y-60050000D01*
%TO.N,PCIE_DN5_N*%
X91250000Y-57990000D02*
X91250000Y-75171000D01*
X129330000Y-75171000D02*
X129330000Y-60650000D01*
%TO.N,PCIE_DN6_P*%
X92550000Y-58090000D02*
X92550000Y-76620000D01*
X130490000Y-76620000D02*
X130490000Y-63050000D01*
%TO.N,PCIE_DN6_N*%
X92050000Y-56820000D02*
X92050000Y-77120000D01*
X137160000Y-77120000D02*
X137160000Y-63050000D01*
%TO.N,PCIE_DN7_P*%
X136000000Y-78569000D02*
X136000000Y-63650000D01*
X93700000Y-58040000D02*
X93700000Y-78569000D01*
%TO.N,PCIE_DN7_N*%
X131650000Y-78069000D02*
X131650000Y-64250000D01*
X93200000Y-56820000D02*
X93200000Y-78069000D01*
%TO.N,DS320_STRAP_MODE*%
D12*
X88200000Y-55300000D02*
X88300000Y-55400000D01*
X85900000Y-55400000D02*
X86500000Y-55400000D01*
X87700000Y-55400000D02*
X87800000Y-55300000D01*
X88900000Y-55400000D02*
X89000000Y-55300000D01*
X103100000Y-54700000D02*
X103200000Y-54600000D01*
X90100000Y-55400000D02*
X90200000Y-55300000D01*
X87800000Y-55300000D02*
X88200000Y-55300000D01*
X88300000Y-55400000D02*
X88900000Y-55400000D01*
X103000000Y-54900000D02*
X103100000Y-54800000D01*
X103200000Y-54600000D02*
X103200000Y-54300000D01*
X83100000Y-61200000D02*
X83100000Y-56300000D01*
X86600000Y-55300000D02*
X87000000Y-55300000D01*
X89000000Y-55300000D02*
X89400000Y-55300000D01*
X102900000Y-54900000D02*
X103000000Y-54900000D01*
X91300000Y-55400000D02*
X91400000Y-55300000D01*
X82800000Y-61500000D02*
X83100000Y-61200000D01*
X86500000Y-55400000D02*
X86600000Y-55300000D01*
X83100000Y-56300000D02*
X84200000Y-55200000D01*
X84200000Y-55200000D02*
X84500000Y-55200000D01*
X103100000Y-54800000D02*
X103100000Y-54700000D01*
X91400000Y-55300000D02*
X91800000Y-55300000D01*
X93200000Y-55300000D02*
X93500000Y-55600000D01*
X101900000Y-55000000D02*
X102800000Y-55000000D01*
X91800000Y-55300000D02*
X91900000Y-55400000D01*
X101300000Y-55600000D02*
X101900000Y-55000000D01*
X85400000Y-55300000D02*
X85800000Y-55300000D01*
X89500000Y-55400000D02*
X90100000Y-55400000D01*
X102800000Y-55000000D02*
X102900000Y-54900000D01*
X90600000Y-55300000D02*
X90700000Y-55400000D01*
X104215700Y-54300000D02*
X104215700Y-52711100D01*
X85300000Y-55400000D02*
X85400000Y-55300000D01*
X84700000Y-55400000D02*
X85300000Y-55400000D01*
X92600000Y-55300000D02*
X93200000Y-55300000D01*
X91900000Y-55400000D02*
X92500000Y-55400000D01*
X89400000Y-55300000D02*
X89500000Y-55400000D01*
X87100000Y-55400000D02*
X87700000Y-55400000D01*
X93500000Y-55600000D02*
X101300000Y-55600000D01*
X87000000Y-55300000D02*
X87100000Y-55400000D01*
X84500000Y-55200000D02*
X84700000Y-55400000D01*
X92500000Y-55400000D02*
X92600000Y-55300000D01*
X90700000Y-55400000D02*
X91300000Y-55400000D01*
X90200000Y-55300000D02*
X90600000Y-55300000D01*
X85800000Y-55300000D02*
X85900000Y-55400000D01*
X103200000Y-54300000D02*
X104215700Y-54300000D01*
%TO.N,PCIE_DN_OUT1_N_MCIO*%
D13*
X60400000Y-39870000D02*
X60400000Y-51500000D01*
%TO.N,PCIE_UP1_P*%
X86500000Y-41775419D02*
X86500000Y-42101283D01*
X86500000Y-42312068D02*
X86500000Y-42637932D01*
X86710785Y-42312068D02*
X86500000Y-42312068D01*
X86500000Y-49360000D02*
X86500000Y-43711230D01*
X86500000Y-41564634D02*
X86710785Y-41775419D01*
X86500000Y-42101283D02*
X86710785Y-42312068D01*
X62200000Y-35590000D02*
X62200000Y-34500000D01*
X86500000Y-41238770D02*
X86500000Y-41564634D01*
X86500000Y-42848717D02*
X86500000Y-43174581D01*
X86500000Y-42637932D02*
X86710785Y-42848717D01*
X86500000Y-43174581D02*
X86710785Y-43385366D01*
X86710785Y-41775419D02*
X86500000Y-41775419D01*
X86710785Y-43385366D02*
X86500000Y-43385366D01*
X86710785Y-42848717D02*
X86500000Y-42848717D01*
X86500000Y-43385366D02*
X86500000Y-43711230D01*
X86500000Y-41238770D02*
X86500000Y-35590000D01*
%TO.N,PCIE_DN_OUT2_P_MCIO*%
X58000000Y-39300000D02*
X58000000Y-51500000D01*
%TO.N,PCIE_UP2_P*%
X59200000Y-45220000D02*
X59200000Y-34500000D01*
X87200000Y-50580000D02*
X87200000Y-45220000D01*
%TO.N,PCIE_DN_OUT2_N_MCIO*%
X57400000Y-38800000D02*
X57400000Y-51500000D01*
%TO.N,PCIE_UP2_N*%
X58600000Y-45720000D02*
X58600000Y-34500000D01*
X87700000Y-49360000D02*
X87700000Y-45720000D01*
%TO.N,PCIE_DN_OUT3_P_MCIO*%
X53800000Y-38230000D02*
X53800000Y-51500000D01*
%TO.N,PCIE_UP3_P*%
X55000000Y-33950000D02*
X55000000Y-34500000D01*
X88400000Y-50580000D02*
X88400000Y-33950000D01*
%TO.N,PCIE_DN_OUT3_N_MCIO*%
X53200000Y-37730000D02*
X53200000Y-51500000D01*
%TO.N,PCIE_UP3_N*%
X88900000Y-49360000D02*
X88900000Y-33450000D01*
X54400000Y-33450000D02*
X54400000Y-34500000D01*
%TO.N,DS320_STRAP_A_ADDR0_7-0*%
D12*
X96110000Y-63890000D02*
X99210000Y-60790000D01*
X99310000Y-60590000D02*
X99310000Y-60390000D01*
X99210000Y-60690000D02*
X99310000Y-60590000D01*
X99510000Y-59790000D02*
X99610000Y-59690000D01*
X99510000Y-59990000D02*
X99510000Y-59790000D01*
X99310000Y-60390000D02*
X99410000Y-60290000D01*
X99410000Y-60090000D02*
X99510000Y-59990000D01*
X99610000Y-59690000D02*
X99610000Y-59590000D01*
X99410000Y-60290000D02*
X99410000Y-60090000D01*
X99210000Y-60790000D02*
X99210000Y-60690000D01*
%TO.N,DS320_STRAP_B_ADDR0_7-0*%
X102460000Y-61590000D02*
X102560000Y-61590000D01*
X102160000Y-61690000D02*
X102360000Y-61690000D01*
X97560000Y-66090000D02*
X101860000Y-61790000D01*
X102060000Y-61790000D02*
X102160000Y-61690000D01*
X101860000Y-61790000D02*
X102060000Y-61790000D01*
X102360000Y-61690000D02*
X102460000Y-61590000D01*
%TO.N,DS320_STRAP_B_ADDR1_7-0*%
X84550000Y-51879600D02*
X92950000Y-51879600D01*
X101350000Y-59579600D02*
X101250000Y-59579600D01*
X106750000Y-55479600D02*
X103150000Y-59079600D01*
X84350000Y-51679600D02*
X84550000Y-51879600D01*
X93250000Y-52179600D02*
X102650000Y-52179600D01*
X101750000Y-59379600D02*
X101650000Y-59479600D01*
X84350000Y-50979600D02*
X84350000Y-51679600D01*
X102650000Y-52179600D02*
X102950000Y-51879600D01*
X102250000Y-59079600D02*
X101950000Y-59379600D01*
X100050000Y-60779600D02*
X99850000Y-60779600D01*
X103150000Y-59079600D02*
X102250000Y-59079600D01*
X92950000Y-51879600D02*
X93250000Y-52179600D01*
X83650000Y-50279600D02*
X84350000Y-50979600D01*
X101950000Y-59379600D02*
X101750000Y-59379600D01*
X101650000Y-59479600D02*
X101450000Y-59479600D01*
X102950000Y-51879600D02*
X103050000Y-51879600D01*
X101450000Y-59479600D02*
X101350000Y-59579600D01*
X101250000Y-59579600D02*
X100050000Y-60779600D01*
%TO.N,DS320_STRAP_A_ADDR0_15-8*%
X94300000Y-56290000D02*
X104170400Y-56290000D01*
X94300000Y-60500000D02*
X94300000Y-56290000D01*
%TO.N,DS320_STRAP_B_ADDR1_15-8*%
X109888900Y-51511100D02*
X104215700Y-51511100D01*
X94900000Y-58900000D02*
X96800000Y-58900000D01*
X97800000Y-57900000D02*
X103500000Y-57900000D01*
X103500000Y-57900000D02*
X109888900Y-51511100D01*
X96800000Y-58900000D02*
X97800000Y-57900000D01*
%TO.N,DS320_STRAP_A_ADDR1_7-0*%
X102100000Y-59740000D02*
X102200000Y-59640000D01*
X102200000Y-59640000D02*
X102400000Y-59640000D01*
X83700000Y-63640000D02*
X83700000Y-64140000D01*
X102500000Y-59540000D02*
X102600000Y-59540000D01*
X101800000Y-59840000D02*
X101900000Y-59740000D01*
X83700000Y-64140000D02*
X84200000Y-64640000D01*
X84200000Y-64640000D02*
X84200000Y-66140000D01*
X102400000Y-59640000D02*
X102500000Y-59540000D01*
X101600000Y-59840000D02*
X101800000Y-59840000D01*
X84000000Y-63340000D02*
X83700000Y-63640000D01*
X84000000Y-58240000D02*
X84000000Y-63340000D01*
X101900000Y-59740000D02*
X102100000Y-59740000D01*
X95300000Y-66140000D02*
X101600000Y-59840000D01*
%TO.N,PCIE_DN_OUT0_P_MCIO*%
D13*
X65200000Y-41440000D02*
X65200000Y-51500000D01*
%TO.N,PCIE_UP0_N*%
X84800000Y-50580000D02*
X84800000Y-37160000D01*
X64599999Y-37160000D02*
X64599999Y-34500000D01*
%TO.N,PCIE_DN_OUT0_N_MCIO*%
X64599999Y-40940000D02*
X64599999Y-51500000D01*
%TO.N,PCIE_UP0_P*%
X85300000Y-49360000D02*
X85300000Y-36660000D01*
X65200000Y-36660000D02*
X65200000Y-34500000D01*
%TO.N,PCIE_DN_OUT1_P_MCIO*%
X61000000Y-40370000D02*
X61000000Y-51500000D01*
%TO.N,PCIE_UP1_N*%
X86000000Y-50580000D02*
X86000000Y-36090000D01*
X61600000Y-36090000D02*
X61600000Y-34500000D01*
%TD*%
D14*
X133775000Y-54900000D03*
X95475000Y-54500000D03*
X142080000Y-47100000D03*
X133775000Y-44700000D03*
X92025000Y-43000000D03*
X30725000Y-41500000D03*
X135475000Y-57300000D03*
X102675000Y-50980000D03*
X132650000Y-62050000D03*
X35750000Y-55175000D03*
X108170000Y-40540000D03*
X134430000Y-57300000D03*
X94275000Y-54500000D03*
X133875000Y-47100000D03*
X101050000Y-50755000D03*
X134430000Y-59100000D03*
X95050000Y-50755000D03*
X64300000Y-66750000D03*
X104170000Y-40920000D03*
X94425000Y-53000000D03*
X61900000Y-66150000D03*
X42050000Y-57170000D03*
X92025000Y-41000000D03*
X103651000Y-53115000D03*
X126170000Y-48140000D03*
X59500000Y-60625000D03*
X96825000Y-53000000D03*
X92025000Y-53000000D03*
X57700000Y-64775000D03*
X99075000Y-50980000D03*
X100150000Y-49135000D03*
X101475000Y-50980000D03*
X86025000Y-53000000D03*
X37250000Y-48925000D03*
X59500000Y-64775000D03*
X135475000Y-50100000D03*
X83430000Y-52715000D03*
X137140000Y-44700000D03*
X97450000Y-50755000D03*
X121580000Y-43800000D03*
X96675000Y-54500000D03*
X84675000Y-53000000D03*
X117580000Y-47220000D03*
X103651000Y-54765000D03*
X97750000Y-49135000D03*
X88425000Y-53000000D03*
X30738266Y-53088225D03*
X133775000Y-57300000D03*
X133875000Y-52500000D03*
X45475000Y-40000000D03*
X102825000Y-53000000D03*
X59500000Y-50500000D03*
X133875000Y-43500000D03*
X133830000Y-63300000D03*
X103400000Y-50505000D03*
X98025000Y-53000000D03*
X103176000Y-52390000D03*
X82285000Y-53590000D03*
X79480000Y-59050000D03*
X42050000Y-62830000D03*
X133875000Y-55500000D03*
X133775000Y-45300000D03*
X31825000Y-36365000D03*
X75770000Y-58550000D03*
X93225000Y-54500000D03*
X45025000Y-35000000D03*
X102550000Y-49135000D03*
X92025000Y-40000000D03*
X99225000Y-53000000D03*
X83575000Y-56516000D03*
X46725000Y-59365000D03*
X133775000Y-50700000D03*
X62500000Y-65950000D03*
X133775000Y-62100000D03*
X132650000Y-42250000D03*
X105315000Y-54790000D03*
X100275000Y-50980000D03*
X127580000Y-40380000D03*
X43200000Y-53725000D03*
X91450000Y-37675000D03*
X103651000Y-51315000D03*
X89625000Y-53000000D03*
X101350000Y-49135000D03*
X65525000Y-63950000D03*
X133775000Y-60300000D03*
X81480000Y-59050000D03*
X39074999Y-53250000D03*
X130560000Y-44700000D03*
X140340000Y-43500000D03*
X95625000Y-53000000D03*
X81770000Y-57550000D03*
X65525000Y-61450000D03*
X116170000Y-40160000D03*
X84574000Y-54190000D03*
X102250000Y-50755000D03*
X123580000Y-42280000D03*
X106170000Y-42440000D03*
X102675000Y-54500000D03*
X99850000Y-50755000D03*
X133775000Y-53700000D03*
X45800000Y-50275000D03*
X84574000Y-53590000D03*
X90825000Y-53000000D03*
X58900000Y-50700000D03*
X35250000Y-48575000D03*
X133775000Y-50100000D03*
X100425000Y-53000000D03*
X136125000Y-45300000D03*
X92025000Y-42000000D03*
X36750000Y-55425000D03*
X36250000Y-55425000D03*
X36750000Y-49775000D03*
X98950000Y-49135000D03*
X102770000Y-44700000D03*
X56500000Y-40250000D03*
X94425000Y-50980000D03*
X53475000Y-61450000D03*
X57700000Y-62275000D03*
X129960000Y-48300000D03*
X99075000Y-54500000D03*
X131525000Y-46500000D03*
X100275000Y-54500000D03*
X135475000Y-50700000D03*
X96250000Y-50755000D03*
X63700000Y-66349999D03*
X51725000Y-41000000D03*
X103651000Y-52515000D03*
X53475000Y-63950000D03*
X101625000Y-53000000D03*
X36625000Y-54700000D03*
X96675000Y-50980000D03*
X96550000Y-49135000D03*
X135475000Y-53700000D03*
X95475000Y-50980000D03*
X42050000Y-61560000D03*
X113580000Y-46460000D03*
X97875000Y-54500000D03*
X58300000Y-65150000D03*
X110770000Y-48300000D03*
X101475000Y-54500000D03*
X133875000Y-59100000D03*
X98650000Y-50755000D03*
X95350000Y-49135000D03*
X132650000Y-57350000D03*
X84055000Y-54490000D03*
X103750000Y-49135000D03*
X32966779Y-51169323D03*
X83430000Y-50865000D03*
X103651000Y-55365000D03*
X133775000Y-48300000D03*
X64900000Y-56900000D03*
X34750000Y-48925000D03*
X112170000Y-42060000D03*
X133229999Y-60300000D03*
X138060000Y-50100000D03*
X45225000Y-37500000D03*
X105315000Y-53590000D03*
X103400000Y-53815000D03*
X136125000Y-44700000D03*
X120170000Y-39400000D03*
X102100000Y-43200000D03*
X55900000Y-40650000D03*
X133875000Y-48900000D03*
X83430000Y-51515000D03*
X97875000Y-50980000D03*
X87225000Y-53000000D03*
X93225000Y-53000000D03*
X30800000Y-51650000D03*
X28800000Y-54900000D03*
X30475000Y-54500000D03*
X30000000Y-54350000D03*
X39500000Y-36200000D03*
X56725000Y-66500000D03*
X45950000Y-57170000D03*
X30700000Y-51200000D03*
X41275000Y-59365000D03*
X40000000Y-36100000D03*
X56725000Y-68500000D03*
X30000000Y-54800000D03*
X56725000Y-69500000D03*
X41300000Y-36500000D03*
X56725000Y-67500000D03*
X32525000Y-54500000D03*
X31900000Y-54500000D03*
X43750000Y-37000000D03*
X59800000Y-40900000D03*
X133700000Y-56300000D03*
X59750000Y-41400000D03*
X50050000Y-37000000D03*
X33198700Y-56303500D03*
X53050000Y-37000000D03*
X34350000Y-57200000D03*
X58900000Y-62275000D03*
X50550000Y-37800000D03*
X34250000Y-55262500D03*
X28975000Y-53000000D03*
X51150000Y-38000000D03*
X59864700Y-48439700D03*
X51725000Y-37000000D03*
X59850000Y-46500000D03*
X59750000Y-44700000D03*
X82866700Y-51215000D03*
X29960000Y-65380000D03*
X55050000Y-68500000D03*
X37750000Y-56337500D03*
X38250000Y-55962500D03*
X38250000Y-55462500D03*
X55203900Y-69922900D03*
X55050000Y-69500000D03*
X27420000Y-65380000D03*
X82910000Y-51790000D03*
X39987500Y-52750000D03*
X32725000Y-56000000D03*
X30411329Y-56062563D03*
X40162500Y-51250000D03*
X29836871Y-47099923D03*
X45950000Y-60635000D03*
X33750000Y-47837500D03*
X135000000Y-56137500D03*
X62800000Y-50437500D03*
X45950000Y-61905000D03*
X45400000Y-48037500D03*
X33225000Y-47880800D03*
X33300000Y-48837500D03*
X28990000Y-34000000D03*
X30525000Y-37635000D03*
X35725000Y-37635000D03*
X31050000Y-39830000D03*
X28275000Y-41500000D03*
X34637500Y-37950000D03*
X31937500Y-40250000D03*
X40707106Y-35932106D03*
X93800000Y-53975000D03*
X86600000Y-53975000D03*
X96200000Y-53975000D03*
X81000000Y-60600000D03*
X95000000Y-53975000D03*
X34950000Y-39830000D03*
X104170000Y-55690000D03*
X85400000Y-53975000D03*
X88275000Y-54000000D03*
X90650000Y-42275000D03*
X28990000Y-38200000D03*
X90200000Y-53975000D03*
X98125000Y-54000000D03*
X100525000Y-54000000D03*
X94525000Y-54000000D03*
X102200000Y-53975000D03*
X89975000Y-41000000D03*
X93800000Y-53525000D03*
X40950000Y-38775000D03*
X90825000Y-54000000D03*
X97400000Y-53975000D03*
X99325000Y-54000000D03*
X42525000Y-40000000D03*
X98600000Y-53975000D03*
X104690000Y-55990000D03*
X94500000Y-64700000D03*
X89775000Y-38500000D03*
X89975000Y-40000000D03*
X101000000Y-53975000D03*
X92600000Y-53525000D03*
X91875000Y-54000000D03*
X85875000Y-54000000D03*
X101725000Y-54000000D03*
X87800000Y-53975000D03*
X99800000Y-53975000D03*
X92600000Y-53975000D03*
X87225000Y-54000000D03*
X90650000Y-41275000D03*
X89000000Y-53975000D03*
X89625000Y-54000000D03*
X91400000Y-53975000D03*
X95725000Y-54000000D03*
X96925000Y-54000000D03*
X54400000Y-60200000D03*
X89100000Y-52366000D03*
X54400000Y-42010000D03*
X89650000Y-51423000D03*
X55000000Y-60200000D03*
X55000000Y-42510000D03*
X56200000Y-60200000D03*
X90300000Y-52366000D03*
X56200000Y-43080000D03*
X90850000Y-51423000D03*
X56800000Y-60200000D03*
X56800000Y-43580000D03*
X131070000Y-50800000D03*
X133824999Y-51490000D03*
X91500000Y-52366000D03*
X61600000Y-60200000D03*
X61600000Y-44150000D03*
X62200000Y-60200000D03*
X92050000Y-51423000D03*
X62200000Y-44650000D03*
X63400000Y-60200000D03*
X92700000Y-52366000D03*
X63400000Y-34520000D03*
X64000000Y-60200000D03*
X93700000Y-51673000D03*
X64000000Y-35020000D03*
X54400000Y-65000000D03*
X90100000Y-49360000D03*
X90100000Y-46290000D03*
X89600000Y-50580000D03*
X55000000Y-65000000D03*
X89600000Y-46790000D03*
X91300000Y-49360000D03*
X56200000Y-65000000D03*
X91300000Y-47360000D03*
X90800000Y-50580000D03*
X56800000Y-65000000D03*
X90800000Y-47860000D03*
X60200000Y-64000000D03*
X135000000Y-62100000D03*
X67400000Y-63500000D03*
X61600000Y-65000000D03*
X91950000Y-50630000D03*
X91950000Y-48430000D03*
X62200000Y-65000000D03*
X92450000Y-49410000D03*
X92450000Y-48930000D03*
X93250000Y-50580000D03*
X63400000Y-65000000D03*
X93250000Y-49500000D03*
X93750000Y-49310000D03*
X64000000Y-65000000D03*
X93750000Y-50000000D03*
X43200000Y-51100000D03*
X53930800Y-37016100D03*
X141220000Y-42650000D03*
X84850000Y-54880000D03*
X141220000Y-56834000D03*
X127010000Y-43250000D03*
X84350000Y-55723000D03*
X127010000Y-56334000D03*
X86050000Y-54880000D03*
X127590000Y-43850000D03*
X127590000Y-57783000D03*
X139480000Y-43850000D03*
X85500000Y-55823000D03*
X139480000Y-58283000D03*
X131449999Y-45400000D03*
X133824999Y-46090000D03*
X137160000Y-46250000D03*
X87250000Y-54880000D03*
X137160000Y-59732000D03*
X86700000Y-55823000D03*
X129330000Y-46850000D03*
X129330000Y-59232000D03*
X88450000Y-54880000D03*
X130490000Y-47450000D03*
X130490000Y-60681000D03*
X136000000Y-47450000D03*
X87900000Y-55823000D03*
X136000000Y-61181000D03*
X140060000Y-48050000D03*
X89650000Y-54880000D03*
X140060000Y-62630000D03*
X89100000Y-55823000D03*
X131650000Y-48650000D03*
X131650000Y-62130000D03*
X128750000Y-49250000D03*
X90850000Y-54880000D03*
X128750000Y-63579000D03*
X90300000Y-55823000D03*
X138900000Y-49250000D03*
X138900000Y-64078999D03*
X92050000Y-54880000D03*
X137740000Y-51650000D03*
X137740000Y-65528000D03*
X129910000Y-52250000D03*
X91500000Y-55823000D03*
X129910000Y-65028000D03*
X131070000Y-52850000D03*
X93700000Y-55130000D03*
X131070000Y-66477000D03*
X136580000Y-52850000D03*
X92700000Y-55823000D03*
X136580000Y-66977000D03*
X84750000Y-56770000D03*
X125850000Y-54050000D03*
X125850000Y-67926000D03*
X84750000Y-67926000D03*
X85250000Y-57990000D03*
X142380000Y-54050000D03*
X142380000Y-68426000D03*
X85250000Y-68426000D03*
X85950000Y-56770000D03*
X141800000Y-54650000D03*
X85950000Y-69875000D03*
X141800000Y-69875000D03*
X126430000Y-55250000D03*
X86450000Y-57990000D03*
X126430000Y-69375000D03*
X86450000Y-69375000D03*
X87750000Y-58090000D03*
X127010000Y-57650000D03*
X127010000Y-70824000D03*
X87750000Y-70824000D03*
X141220000Y-57650000D03*
X87250000Y-56820000D03*
X87250000Y-71324000D03*
X141220000Y-71324000D03*
X140640000Y-58250000D03*
X88900000Y-58040000D03*
X88900000Y-72773000D03*
X140640000Y-72773000D03*
X88400000Y-56820000D03*
X127590000Y-58850000D03*
X88400000Y-72273000D03*
X127590000Y-72273000D03*
X128169999Y-59450000D03*
X89550000Y-56770000D03*
X89550000Y-73722000D03*
X128169999Y-73722000D03*
X139480000Y-59450000D03*
X90050000Y-57990000D03*
X139480000Y-74222000D03*
X90050000Y-74222000D03*
X138320000Y-60050000D03*
X90750000Y-56770000D03*
X90750000Y-75671000D03*
X138320000Y-75671000D03*
X91250000Y-57990000D03*
X129330000Y-60650000D03*
X129330000Y-75171000D03*
X91250000Y-75171000D03*
X130490000Y-63050000D03*
X92550000Y-58090000D03*
X130490000Y-76620000D03*
X92550000Y-76620000D03*
X92050000Y-56820000D03*
X137160000Y-63050000D03*
X137160000Y-77120000D03*
X92050000Y-77120000D03*
X136000000Y-63650000D03*
X93700000Y-58040000D03*
X93700000Y-78569000D03*
X136000000Y-78569000D03*
X131650000Y-64250000D03*
X93200000Y-56820000D03*
X131650000Y-78069000D03*
X93200000Y-78069000D03*
X104215700Y-52711100D03*
X82775000Y-61550000D03*
X86050000Y-51423000D03*
X60400000Y-51500000D03*
X60400000Y-39870000D03*
X86500000Y-49360000D03*
X62200000Y-34500000D03*
X86500000Y-35590000D03*
X62200000Y-35590000D03*
X86700000Y-52366000D03*
X58000000Y-51500000D03*
X58000000Y-39300000D03*
X59200000Y-34500000D03*
X87200000Y-50580000D03*
X87200000Y-45220000D03*
X59200000Y-45220000D03*
X87250000Y-51423000D03*
X57400000Y-51500000D03*
X57400000Y-38800000D03*
X58600000Y-34500000D03*
X87700000Y-49360000D03*
X87700000Y-45720000D03*
X58600000Y-45720000D03*
X87900000Y-52366000D03*
X53800000Y-51500000D03*
X53800000Y-38230000D03*
X88400000Y-50580000D03*
X55000000Y-34500000D03*
X88400000Y-33950000D03*
X55000000Y-33950000D03*
X53200000Y-51500000D03*
X88450000Y-51423000D03*
X53200000Y-37730000D03*
X88900000Y-49360000D03*
X54400000Y-34500000D03*
X54400000Y-33450000D03*
X88900000Y-33450000D03*
X82910000Y-52990000D03*
X84210000Y-63890000D03*
X96110000Y-63890000D03*
X99610000Y-59590000D03*
X102560000Y-61590000D03*
X84160000Y-66690000D03*
X82360000Y-54490000D03*
X97560000Y-66090000D03*
X83650000Y-50279600D03*
X99850000Y-60779600D03*
X103050000Y-51879600D03*
X106750000Y-55479600D03*
X94250400Y-60525000D03*
X104170400Y-56290000D03*
X104215700Y-51511100D03*
X94889800Y-58903000D03*
X82025000Y-62190000D03*
X105125000Y-52090000D03*
X95300000Y-66140000D03*
X102600000Y-59540000D03*
X84000000Y-58240000D03*
X84200000Y-66140000D03*
X84300000Y-52366000D03*
X65200000Y-51500000D03*
X65200000Y-41440000D03*
X84800000Y-50580000D03*
X64599999Y-34500000D03*
X64599999Y-37160000D03*
X84800000Y-37160000D03*
X84850000Y-51423000D03*
X64599999Y-51500000D03*
X64599999Y-40940000D03*
X85300000Y-49360000D03*
X65200000Y-34500000D03*
X65200000Y-36660000D03*
X85300000Y-36660000D03*
X61000000Y-51500000D03*
X85500000Y-52366000D03*
X61000000Y-40370000D03*
X86000000Y-50580000D03*
X61600000Y-34500000D03*
X61600000Y-36090000D03*
X86000000Y-36090000D03*
X34162500Y-35095000D03*
X40700000Y-34600000D03*
X49725000Y-66500000D03*
X45800000Y-52900000D03*
D15*
X140800000Y-76800000D03*
X25071300Y-76928700D03*
X31750000Y-65380000D03*
X29210000Y-65380000D03*
X26670000Y-65380000D03*
X24130000Y-65380000D03*
X31750000Y-55960000D03*
X29210000Y-55960000D03*
X26670000Y-55960000D03*
X24130000Y-55960000D03*
X140928700Y-35071300D03*
X25071300Y-35071300D03*
X31750000Y-46540000D03*
X29210000Y-46540000D03*
X26670000Y-46540000D03*
X24130000Y-46540000D03*
X29210000Y-39660000D03*
X26670000Y-39660000D03*
X29210000Y-42850000D03*
X26670000Y-42850000D03*
M02*
