%TF.GenerationSoftware,KiCad,Pcbnew,10.0.5*%
%TF.CreationDate,2026-09-12T00:00:00+08:00*%
%TF.ProjectId,k2_v4_8L.l4,6b325f76-345f-4384-9c2e-6c342e6b6963,rev?*%
%TF.SameCoordinates,Original*%
%TF.FileFunction,Copper,L8,Bot*%
%TF.FilePolarity,Positive*%
%FSLAX46Y46*%
G04 Gerber Fmt 4.6, Leading zero omitted, Abs format (unit mm)*
G04 Created by KiCad (PCBNEW 10.0.5) date 2026-09-12T00:00:00+08:00*
%MOMM*%
%LPD*%
G01*
G04 APERTURE LIST*
%TA.AperFunction,ViaPad*%
%ADD10C,0.350000*%
%TD*%
%TA.AperFunction,Conductor*%
%ADD11C,0.205000*%
%TD*%
%ADD12C,0.200000*%
G04 APERTURE END LIST*
D10*
%TO.N,GND*%
X100150000Y-49135000D03*
X100275000Y-50980000D03*
X100275000Y-54500000D03*
X100425000Y-53000000D03*
X101050000Y-50755000D03*
X101350000Y-49135000D03*
X101475000Y-50980000D03*
X101475000Y-54500000D03*
X101625000Y-53000000D03*
X102100000Y-43200000D03*
X102250000Y-50755000D03*
X102550000Y-49135000D03*
X102675000Y-50980000D03*
X102675000Y-54500000D03*
X102770000Y-44700000D03*
X102825000Y-53000000D03*
X103176000Y-52390000D03*
X103400000Y-50505000D03*
X103400000Y-53815000D03*
X103651000Y-51315000D03*
X103651000Y-52515000D03*
X103651000Y-53115000D03*
X103651000Y-54765000D03*
X103651000Y-55365000D03*
X103750000Y-49135000D03*
X104170000Y-40920000D03*
X105315000Y-53590000D03*
X105315000Y-54790000D03*
X106170000Y-42440000D03*
X108170000Y-40540000D03*
X110770000Y-48300000D03*
X112170000Y-42060000D03*
X113580000Y-46460000D03*
X116170000Y-40160000D03*
X117580000Y-47220000D03*
X120170000Y-39400000D03*
X121580000Y-43800000D03*
X123580000Y-42280000D03*
X126170000Y-48140000D03*
X127580000Y-40380000D03*
X129960000Y-48300000D03*
X130560000Y-44700000D03*
X131525000Y-46500000D03*
X132650000Y-42250000D03*
X132650000Y-57350000D03*
X132650000Y-62050000D03*
X133229999Y-60300000D03*
X133775000Y-44700000D03*
X133775000Y-45300000D03*
X133775000Y-48300000D03*
X133775000Y-50100000D03*
X133775000Y-50700000D03*
X133775000Y-53700000D03*
X133775000Y-54900000D03*
X133775000Y-57300000D03*
X133775000Y-60300000D03*
X133775000Y-62100000D03*
X133830000Y-63300000D03*
X133875000Y-43500000D03*
X133875000Y-47100000D03*
X133875000Y-48900000D03*
X133875000Y-52500000D03*
X133875000Y-55500000D03*
X133875000Y-59100000D03*
X134430000Y-57300000D03*
X134430000Y-59100000D03*
X135475000Y-50100000D03*
X135475000Y-50700000D03*
X135475000Y-53700000D03*
X135475000Y-57300000D03*
X136125000Y-44700000D03*
X136125000Y-45300000D03*
X137140000Y-44700000D03*
X138060000Y-50100000D03*
X140340000Y-43500000D03*
X142080000Y-47100000D03*
X29725000Y-47000000D03*
X30725000Y-41500000D03*
X31025000Y-53000000D03*
X31825000Y-36365000D03*
X32525000Y-54500000D03*
X32575000Y-51250000D03*
X32725000Y-56000000D03*
X34750000Y-48575000D03*
X35250000Y-48575000D03*
X35750000Y-55175000D03*
X36250000Y-55425000D03*
X36625000Y-54700000D03*
X36750000Y-55425000D03*
X37250000Y-48575000D03*
X42050000Y-57170000D03*
X42050000Y-61560000D03*
X42050000Y-62830000D03*
X43200000Y-53725000D03*
X45025000Y-35000000D03*
X45225000Y-37500000D03*
X45475000Y-40000000D03*
X45800000Y-50275000D03*
X46725000Y-59365000D03*
X49725000Y-66500000D03*
X51725000Y-41000000D03*
X53475000Y-61450000D03*
X53475000Y-63950000D03*
X55900000Y-40650000D03*
X56500000Y-40250000D03*
X57700000Y-62275000D03*
X57700000Y-64775000D03*
X58300000Y-65150000D03*
X58900000Y-50700000D03*
X59500000Y-50500000D03*
X59500000Y-60625000D03*
X59500000Y-64775000D03*
X61900000Y-66150000D03*
X62500000Y-65950000D03*
X63700000Y-66349999D03*
X64300000Y-66750000D03*
X64900000Y-56900000D03*
X65525000Y-61450000D03*
X65525000Y-63950000D03*
X75770000Y-58550000D03*
X79480000Y-59050000D03*
X81480000Y-59050000D03*
X81770000Y-57550000D03*
X82285000Y-53590000D03*
X83430000Y-50865000D03*
X83430000Y-51515000D03*
X83430000Y-52715000D03*
X83575000Y-56516000D03*
X84055000Y-54490000D03*
X84574000Y-53590000D03*
X84574000Y-54190000D03*
X84675000Y-53000000D03*
X86025000Y-53000000D03*
X87225000Y-53000000D03*
X88425000Y-53000000D03*
X89625000Y-53000000D03*
X90825000Y-53000000D03*
X91450000Y-37675000D03*
X92025000Y-40000000D03*
X92025000Y-41000000D03*
X92025000Y-42000000D03*
X92025000Y-43000000D03*
X92025000Y-53000000D03*
X93225000Y-53000000D03*
X93225000Y-54500000D03*
X94275000Y-54500000D03*
X94425000Y-50980000D03*
X94425000Y-53000000D03*
X95050000Y-50755000D03*
X95350000Y-49135000D03*
X95475000Y-50980000D03*
X95475000Y-54500000D03*
X95625000Y-53000000D03*
X96250000Y-50755000D03*
X96550000Y-49135000D03*
X96675000Y-50980000D03*
X96675000Y-54500000D03*
X96825000Y-53000000D03*
X97450000Y-50755000D03*
X97750000Y-49135000D03*
X97875000Y-50980000D03*
X97875000Y-54500000D03*
X98025000Y-53000000D03*
X98650000Y-50755000D03*
X98950000Y-49135000D03*
X99075000Y-50980000D03*
X99075000Y-54500000D03*
X99225000Y-53000000D03*
X99850000Y-50755000D03*
%TO.N,MCU_VDD*%
X30275000Y-56000000D03*
X30475000Y-54500000D03*
X36750000Y-49775000D03*
X40950000Y-38775000D03*
X41275000Y-59365000D03*
X45950000Y-57170000D03*
X50200000Y-69500000D03*
X51000000Y-40000000D03*
X55750000Y-66700000D03*
X55950000Y-65900000D03*
X56725000Y-66500000D03*
X56725000Y-67500000D03*
X56725000Y-68500000D03*
X56725000Y-69500000D03*
X56950000Y-70500000D03*
X57550000Y-68500000D03*
%TO.N,P3V3*%
X100525000Y-54000000D03*
X101000000Y-53975000D03*
X101725000Y-54000000D03*
X102200000Y-53975000D03*
X33950000Y-39900000D03*
X34950000Y-39830000D03*
X40000000Y-33600000D03*
X40000000Y-35225000D03*
X42525000Y-40000000D03*
X43100000Y-33600000D03*
X85400000Y-53975000D03*
X85875000Y-54000000D03*
X86600000Y-53975000D03*
X87225000Y-54000000D03*
X87800000Y-53975000D03*
X88275000Y-54000000D03*
X89000000Y-53975000D03*
X89625000Y-54000000D03*
X89775000Y-38500000D03*
X89975000Y-40000000D03*
X89975000Y-41000000D03*
X90200000Y-53975000D03*
X90650000Y-41275000D03*
X90650000Y-42275000D03*
X90825000Y-54000000D03*
X91400000Y-53975000D03*
X91875000Y-54000000D03*
X92600000Y-53525000D03*
X92600000Y-53975000D03*
X93800000Y-53525000D03*
X93800000Y-53975000D03*
X94525000Y-54000000D03*
X95000000Y-53975000D03*
X95725000Y-54000000D03*
X96200000Y-53975000D03*
X96925000Y-54000000D03*
X97400000Y-53975000D03*
X98125000Y-54000000D03*
X98600000Y-53975000D03*
X99325000Y-54000000D03*
X99800000Y-53975000D03*
%TO.N,P3V3_AUX*%
X26500000Y-61570000D03*
X28975000Y-53000000D03*
X29650000Y-53000000D03*
X39425000Y-53250000D03*
X39900000Y-53250000D03*
X47000000Y-49000000D03*
X47600000Y-49000000D03*
X51725000Y-37000000D03*
X55600000Y-49800000D03*
X57800000Y-63100000D03*
X58900000Y-62275000D03*
X58900000Y-63000000D03*
%TO.N,PCIE_UP_OUT1_P_J2*%
X86050000Y-54880000D03*
X86050000Y-57783000D03*
%TO.N,PCIE_DN_OUT1_N_MCIO*%
X86050000Y-51423000D03*
X86050000Y-39870000D03*
%TO.N,PCIE_UP_OUT2_N_J2*%
X86700000Y-55823000D03*
X86700000Y-59232000D03*
%TO.N,PCIE_DN_OUT2_P_MCIO*%
X86700000Y-52366000D03*
X86700000Y-39300000D03*
%TO.N,PCIE_UP_OUT2_P_J2*%
X87250000Y-54880000D03*
X87250000Y-59732000D03*
%TO.N,PCIE_DN_OUT2_N_MCIO*%
X87250000Y-51423000D03*
X87250000Y-38800000D03*
%TO.N,PCIE_UP_OUT3_N_J2*%
X87900000Y-55823000D03*
X87900000Y-61181000D03*
%TO.N,PCIE_DN_OUT3_P_MCIO*%
X87900000Y-52366000D03*
X87900000Y-38230000D03*
%TO.N,PCIE_UP_OUT3_P_J2*%
X88450000Y-54880000D03*
X88450000Y-60681000D03*
%TO.N,PCIE_DN_OUT3_N_MCIO*%
X88450000Y-51423000D03*
X88450000Y-37730000D03*
%TO.N,PCIE_UP_OUT4_N_J2*%
X89100000Y-55823000D03*
X89100000Y-62130000D03*
%TO.N,PCIE_DN_OUT4_P_MCIO*%
X89100000Y-52366000D03*
X89100000Y-42010000D03*
%TO.N,PCIE_UP_OUT4_P_J2*%
X89650000Y-54880000D03*
X89650000Y-62630000D03*
%TO.N,PCIE_DN_OUT4_N_MCIO*%
X89650000Y-51423000D03*
X89650000Y-42510000D03*
%TO.N,PCIE_UP_OUT5_N_J2*%
X90300000Y-55823000D03*
X90300000Y-64078999D03*
%TO.N,PCIE_DN_OUT5_P_MCIO*%
X90300000Y-52366000D03*
X90300000Y-43080000D03*
%TO.N,PCIE_UP_OUT5_P_J2*%
X90850000Y-54880000D03*
X90850000Y-63579000D03*
%TO.N,PCIE_DN_OUT5_N_MCIO*%
X90850000Y-51423000D03*
X90850000Y-43580000D03*
%TO.N,PCIE_UP_OUT6_N_J2*%
X91500000Y-55823000D03*
X91500000Y-65028000D03*
%TO.N,PCIE_DN_OUT6_P_MCIO*%
X91500000Y-52366000D03*
X91500000Y-44150000D03*
%TO.N,PCIE_UP_OUT6_P_J2*%
X92050000Y-54880000D03*
X92050000Y-65528000D03*
%TO.N,PCIE_DN_OUT6_N_MCIO*%
X92050000Y-51423000D03*
X92050000Y-44650000D03*
%TO.N,PCIE_UP_OUT7_N_J2*%
X92700000Y-55823000D03*
X92700000Y-66977000D03*
%TO.N,PCIE_DN_OUT7_P_MCIO*%
X92700000Y-52366000D03*
X92700000Y-34520000D03*
%TO.N,PCIE_UP_OUT7_P_J2*%
X93700000Y-55130000D03*
X93700000Y-66477000D03*
%TO.N,PCIE_DN_OUT7_N_MCIO*%
X93700000Y-51673000D03*
X93700000Y-35020000D03*
%TO.N,PCIE_UP_OUT0_N_J2*%
X84350000Y-55723000D03*
X84350000Y-56334000D03*
%TO.N,PCIE_DN_OUT0_P_MCIO*%
X84300000Y-52366000D03*
X84300000Y-41440000D03*
%TO.N,PCIE_UP_OUT0_P_J2*%
X84850000Y-54880000D03*
X84850000Y-56834000D03*
%TO.N,PCIE_DN_OUT0_N_MCIO*%
X84850000Y-51423000D03*
X84850000Y-40940000D03*
%TO.N,PCIE_UP_OUT1_N_J2*%
X85500000Y-55823000D03*
X85500000Y-58283000D03*
%TO.N,PCIE_DN_OUT1_P_MCIO*%
X85500000Y-52366000D03*
X85500000Y-40370000D03*
%TO.N,12V_IN*%
X28275000Y-41500000D03*
X31050000Y-39830000D03*
X35725000Y-37635000D03*
%TD*%
%TO.N,PCIE_UP_OUT1_P_J2*%
D11*
X86050000Y-54880000D02*
X86050000Y-57783000D01*
%TO.N,PCIE_DN_OUT1_N_MCIO*%
X86050000Y-51423000D02*
X86050000Y-39870000D01*
%TO.N,PCIE_UP_OUT2_N_J2*%
X86700000Y-55823000D02*
X86700000Y-59232000D01*
%TO.N,PCIE_DN_OUT2_P_MCIO*%
X86700000Y-52366000D02*
X86700000Y-39300000D01*
%TO.N,PCIE_UP_OUT2_P_J2*%
X87250000Y-54880000D02*
X87250000Y-59732000D01*
%TO.N,PCIE_DN_OUT2_N_MCIO*%
X87250000Y-51423000D02*
X87250000Y-38800000D01*
%TO.N,PCIE_UP_OUT3_N_J2*%
X87900000Y-55823000D02*
X87900000Y-61181000D01*
%TO.N,PCIE_DN_OUT3_P_MCIO*%
X87900000Y-52366000D02*
X87900000Y-38230000D01*
%TO.N,PCIE_UP_OUT3_P_J2*%
X88450000Y-54880000D02*
X88450000Y-60681000D01*
%TO.N,PCIE_DN_OUT3_N_MCIO*%
X88450000Y-51423000D02*
X88450000Y-37730000D01*
%TO.N,PCIE_UP_OUT4_N_J2*%
X89100000Y-55823000D02*
X89100000Y-62130000D01*
%TO.N,PCIE_DN_OUT4_P_MCIO*%
X89100000Y-52366000D02*
X89100000Y-42010000D01*
%TO.N,PCIE_UP_OUT4_P_J2*%
X89650000Y-54880000D02*
X89650000Y-62630000D01*
%TO.N,PCIE_DN_OUT4_N_MCIO*%
X89650000Y-51423000D02*
X89650000Y-42510000D01*
%TO.N,PCIE_UP_OUT5_N_J2*%
X90300000Y-55823000D02*
X90300000Y-64078999D01*
%TO.N,PCIE_DN_OUT5_P_MCIO*%
X90300000Y-52366000D02*
X90300000Y-43080000D01*
%TO.N,PCIE_UP_OUT5_P_J2*%
X90850000Y-54880000D02*
X90850000Y-63579000D01*
%TO.N,PCIE_DN_OUT5_N_MCIO*%
X90850000Y-51423000D02*
X90850000Y-43580000D01*
%TO.N,PCIE_UP_OUT6_N_J2*%
X91500000Y-55823000D02*
X91500000Y-65028000D01*
%TO.N,PCIE_DN_OUT6_P_MCIO*%
X91500000Y-52366000D02*
X91500000Y-44150000D01*
%TO.N,PCIE_UP_OUT6_P_J2*%
X92050000Y-54880000D02*
X92050000Y-65528000D01*
%TO.N,PCIE_DN_OUT6_N_MCIO*%
X92050000Y-51423000D02*
X92050000Y-44650000D01*
%TO.N,PCIE_UP_OUT7_N_J2*%
X92700000Y-55823000D02*
X92700000Y-66977000D01*
%TO.N,PCIE_DN_OUT7_P_MCIO*%
X92700000Y-52366000D02*
X92700000Y-34520000D01*
%TO.N,PCIE_UP_OUT7_P_J2*%
X93700000Y-55130000D02*
X93700000Y-66477000D01*
%TO.N,PCIE_DN_OUT7_N_MCIO*%
X93700000Y-42738791D02*
X93700000Y-35020000D01*
X93700000Y-43143930D02*
X94040000Y-42941361D01*
X93700000Y-43549070D02*
X94040000Y-43346500D01*
X93700000Y-43954209D02*
X94040000Y-43751639D01*
X93700000Y-51673000D02*
X93700000Y-43954209D01*
X94040000Y-42941361D02*
X93700000Y-42738791D01*
X94040000Y-43346500D02*
X93700000Y-43143930D01*
X94040000Y-43751639D02*
X93700000Y-43549070D01*
%TO.N,PCIE_UP_OUT0_N_J2*%
X84350000Y-55723000D02*
X84350000Y-56334000D01*
%TO.N,PCIE_DN_OUT0_P_MCIO*%
X84300000Y-52366000D02*
X84300000Y-41440000D01*
%TO.N,PCIE_UP_OUT0_P_J2*%
X84850000Y-54880000D02*
X84850000Y-56834000D01*
%TO.N,PCIE_DN_OUT0_N_MCIO*%
X84850000Y-51423000D02*
X84850000Y-40940000D01*
%TO.N,PCIE_UP_OUT1_N_J2*%
X85500000Y-55823000D02*
X85500000Y-58283000D01*
%TO.N,PCIE_DN_OUT1_P_MCIO*%
X85500000Y-52366000D02*
X85500000Y-40370000D01*
%TD*%
D12*
X100150000Y-49135000D03*
X100275000Y-50980000D03*
X100275000Y-54500000D03*
X100425000Y-53000000D03*
X101050000Y-50755000D03*
X101350000Y-49135000D03*
X101475000Y-50980000D03*
X101475000Y-54500000D03*
X101625000Y-53000000D03*
X102100000Y-43200000D03*
X102250000Y-50755000D03*
X102550000Y-49135000D03*
X102675000Y-50980000D03*
X102675000Y-54500000D03*
X102770000Y-44700000D03*
X102825000Y-53000000D03*
X103176000Y-52390000D03*
X103400000Y-50505000D03*
X103400000Y-53815000D03*
X103651000Y-51315000D03*
X103651000Y-52515000D03*
X103651000Y-53115000D03*
X103651000Y-54765000D03*
X103651000Y-55365000D03*
X103750000Y-49135000D03*
X104170000Y-40920000D03*
X105315000Y-53590000D03*
X105315000Y-54790000D03*
X106170000Y-42440000D03*
X108170000Y-40540000D03*
X110770000Y-48300000D03*
X112170000Y-42060000D03*
X113580000Y-46460000D03*
X116170000Y-40160000D03*
X117580000Y-47220000D03*
X120170000Y-39400000D03*
X121580000Y-43800000D03*
X123580000Y-42280000D03*
X126170000Y-48140000D03*
X127580000Y-40380000D03*
X129960000Y-48300000D03*
X130560000Y-44700000D03*
X131525000Y-46500000D03*
X132650000Y-42250000D03*
X132650000Y-57350000D03*
X132650000Y-62050000D03*
X133229999Y-60300000D03*
X133775000Y-44700000D03*
X133775000Y-45300000D03*
X133775000Y-48300000D03*
X133775000Y-50100000D03*
X133775000Y-50700000D03*
X133775000Y-53700000D03*
X133775000Y-54900000D03*
X133775000Y-57300000D03*
X133775000Y-60300000D03*
X133775000Y-62100000D03*
X133830000Y-63300000D03*
X133875000Y-43500000D03*
X133875000Y-47100000D03*
X133875000Y-48900000D03*
X133875000Y-52500000D03*
X133875000Y-55500000D03*
X133875000Y-59100000D03*
X134430000Y-57300000D03*
X134430000Y-59100000D03*
X135475000Y-50100000D03*
X135475000Y-50700000D03*
X135475000Y-53700000D03*
X135475000Y-57300000D03*
X136125000Y-44700000D03*
X136125000Y-45300000D03*
X137140000Y-44700000D03*
X138060000Y-50100000D03*
X140340000Y-43500000D03*
X142080000Y-47100000D03*
X29725000Y-47000000D03*
X30725000Y-41500000D03*
X31025000Y-53000000D03*
X31825000Y-36365000D03*
X32525000Y-54500000D03*
X32575000Y-51250000D03*
X32725000Y-56000000D03*
X34750000Y-48575000D03*
X35250000Y-48575000D03*
X35750000Y-55175000D03*
X36250000Y-55425000D03*
X36625000Y-54700000D03*
X36750000Y-55425000D03*
X37250000Y-48575000D03*
X42050000Y-57170000D03*
X42050000Y-61560000D03*
X42050000Y-62830000D03*
X43200000Y-53725000D03*
X45025000Y-35000000D03*
X45225000Y-37500000D03*
X45475000Y-40000000D03*
X45800000Y-50275000D03*
X46725000Y-59365000D03*
X49725000Y-66500000D03*
X51725000Y-41000000D03*
X53475000Y-61450000D03*
X53475000Y-63950000D03*
X55900000Y-40650000D03*
X56500000Y-40250000D03*
X57700000Y-62275000D03*
X57700000Y-64775000D03*
X58300000Y-65150000D03*
X58900000Y-50700000D03*
X59500000Y-50500000D03*
X59500000Y-60625000D03*
X59500000Y-64775000D03*
X61900000Y-66150000D03*
X62500000Y-65950000D03*
X63700000Y-66349999D03*
X64300000Y-66750000D03*
X64900000Y-56900000D03*
X65525000Y-61450000D03*
X65525000Y-63950000D03*
X75770000Y-58550000D03*
X79480000Y-59050000D03*
X81480000Y-59050000D03*
X81770000Y-57550000D03*
X82285000Y-53590000D03*
X83430000Y-50865000D03*
X83430000Y-51515000D03*
X83430000Y-52715000D03*
X83575000Y-56516000D03*
X84055000Y-54490000D03*
X84574000Y-53590000D03*
X84574000Y-54190000D03*
X84675000Y-53000000D03*
X86025000Y-53000000D03*
X87225000Y-53000000D03*
X88425000Y-53000000D03*
X89625000Y-53000000D03*
X90825000Y-53000000D03*
X91450000Y-37675000D03*
X92025000Y-40000000D03*
X92025000Y-41000000D03*
X92025000Y-42000000D03*
X92025000Y-43000000D03*
X92025000Y-53000000D03*
X93225000Y-53000000D03*
X93225000Y-54500000D03*
X94275000Y-54500000D03*
X94425000Y-50980000D03*
X94425000Y-53000000D03*
X95050000Y-50755000D03*
X95350000Y-49135000D03*
X95475000Y-50980000D03*
X95475000Y-54500000D03*
X95625000Y-53000000D03*
X96250000Y-50755000D03*
X96550000Y-49135000D03*
X96675000Y-50980000D03*
X96675000Y-54500000D03*
X96825000Y-53000000D03*
X97450000Y-50755000D03*
X97750000Y-49135000D03*
X97875000Y-50980000D03*
X97875000Y-54500000D03*
X98025000Y-53000000D03*
X98650000Y-50755000D03*
X98950000Y-49135000D03*
X99075000Y-50980000D03*
X99075000Y-54500000D03*
X99225000Y-53000000D03*
X99850000Y-50755000D03*
X30275000Y-56000000D03*
X30475000Y-54500000D03*
X36750000Y-49775000D03*
X40950000Y-38775000D03*
X41275000Y-59365000D03*
X45950000Y-57170000D03*
X50200000Y-69500000D03*
X51000000Y-40000000D03*
X55750000Y-66700000D03*
X55950000Y-65900000D03*
X56725000Y-66500000D03*
X56725000Y-67500000D03*
X56725000Y-68500000D03*
X56725000Y-69500000D03*
X56950000Y-70500000D03*
X57550000Y-68500000D03*
X100525000Y-54000000D03*
X101000000Y-53975000D03*
X101725000Y-54000000D03*
X102200000Y-53975000D03*
X33950000Y-39900000D03*
X34950000Y-39830000D03*
X40000000Y-33600000D03*
X40000000Y-35225000D03*
X42525000Y-40000000D03*
X43100000Y-33600000D03*
X85400000Y-53975000D03*
X85875000Y-54000000D03*
X86600000Y-53975000D03*
X87225000Y-54000000D03*
X87800000Y-53975000D03*
X88275000Y-54000000D03*
X89000000Y-53975000D03*
X89625000Y-54000000D03*
X89775000Y-38500000D03*
X89975000Y-40000000D03*
X89975000Y-41000000D03*
X90200000Y-53975000D03*
X90650000Y-41275000D03*
X90650000Y-42275000D03*
X90825000Y-54000000D03*
X91400000Y-53975000D03*
X91875000Y-54000000D03*
X92600000Y-53525000D03*
X92600000Y-53975000D03*
X93800000Y-53525000D03*
X93800000Y-53975000D03*
X94525000Y-54000000D03*
X95000000Y-53975000D03*
X95725000Y-54000000D03*
X96200000Y-53975000D03*
X96925000Y-54000000D03*
X97400000Y-53975000D03*
X98125000Y-54000000D03*
X98600000Y-53975000D03*
X99325000Y-54000000D03*
X99800000Y-53975000D03*
X26500000Y-61570000D03*
X28975000Y-53000000D03*
X29650000Y-53000000D03*
X39425000Y-53250000D03*
X39900000Y-53250000D03*
X47000000Y-49000000D03*
X47600000Y-49000000D03*
X51725000Y-37000000D03*
X55600000Y-49800000D03*
X57800000Y-63100000D03*
X58900000Y-62275000D03*
X58900000Y-63000000D03*
X86050000Y-54880000D03*
X86050000Y-57783000D03*
X86050000Y-51423000D03*
X86050000Y-39870000D03*
X86700000Y-55823000D03*
X86700000Y-59232000D03*
X86700000Y-52366000D03*
X86700000Y-39300000D03*
X87250000Y-54880000D03*
X87250000Y-59732000D03*
X87250000Y-51423000D03*
X87250000Y-38800000D03*
X87900000Y-55823000D03*
X87900000Y-61181000D03*
X87900000Y-52366000D03*
X87900000Y-38230000D03*
X88450000Y-54880000D03*
X88450000Y-60681000D03*
X88450000Y-51423000D03*
X88450000Y-37730000D03*
X89100000Y-55823000D03*
X89100000Y-62130000D03*
X89100000Y-52366000D03*
X89100000Y-42010000D03*
X89650000Y-54880000D03*
X89650000Y-62630000D03*
X89650000Y-51423000D03*
X89650000Y-42510000D03*
X90300000Y-55823000D03*
X90300000Y-64078999D03*
X90300000Y-52366000D03*
X90300000Y-43080000D03*
X90850000Y-54880000D03*
X90850000Y-63579000D03*
X90850000Y-51423000D03*
X90850000Y-43580000D03*
X91500000Y-55823000D03*
X91500000Y-65028000D03*
X91500000Y-52366000D03*
X91500000Y-44150000D03*
X92050000Y-54880000D03*
X92050000Y-65528000D03*
X92050000Y-51423000D03*
X92050000Y-44650000D03*
X92700000Y-55823000D03*
X92700000Y-66977000D03*
X92700000Y-52366000D03*
X92700000Y-34520000D03*
X93700000Y-55130000D03*
X93700000Y-66477000D03*
X93700000Y-51673000D03*
X93700000Y-35020000D03*
X84350000Y-55723000D03*
X84350000Y-56334000D03*
X84300000Y-52366000D03*
X84300000Y-41440000D03*
X84850000Y-54880000D03*
X84850000Y-56834000D03*
X84850000Y-51423000D03*
X84850000Y-40940000D03*
X85500000Y-55823000D03*
X85500000Y-58283000D03*
X85500000Y-52366000D03*
X85500000Y-40370000D03*
X28275000Y-41500000D03*
X31050000Y-39830000D03*
X35725000Y-37635000D03*
M02*
