%TF.GenerationSoftware,KiCad,Pcbnew,10.0.5*%
%TF.CreationDate,2026-09-12T00:00:00+08:00*%
%TF.ProjectId,k2_v4_8L.l4,6b325f76-345f-4384-9c2e-6c342e6b6963,rev?*%
%TF.SameCoordinates,Original*%
%TF.FileFunction,Legend,Top*%
%TF.FilePolarity,Positive*%
%FSLAX46Y46*%
G04 Gerber Fmt 4.6, Leading zero omitted, Abs format (unit mm)*
G04 Created by KiCad (PCBNEW 10.0.5) date 2026-09-12T00:00:00+08:00*
%MOMM*%
%LPD*%
G01*
G04 APERTURE LIST*
%ADD10C,0.150000*%
%ADD11C,0.100000*%
G04 APERTURE END LIST*
D10*
X43357142Y-35859580D02*
X43309523Y-35907200D01*
X43309523Y-35907200D02*
X43166666Y-35954819D01*
X43166666Y-35954819D02*
X43071428Y-35954819D01*
X43071428Y-35954819D02*
X42928571Y-35907200D01*
X42928571Y-35907200D02*
X42833333Y-35811961D01*
X42833333Y-35811961D02*
X42785714Y-35716723D01*
X42785714Y-35716723D02*
X42738095Y-35526247D01*
X42738095Y-35526247D02*
X42738095Y-35383390D01*
X42738095Y-35383390D02*
X42785714Y-35192914D01*
X42785714Y-35192914D02*
X42833333Y-35097676D01*
X42833333Y-35097676D02*
X42928571Y-35002438D01*
X42928571Y-35002438D02*
X43071428Y-34954819D01*
X43071428Y-34954819D02*
X43166666Y-34954819D01*
X43166666Y-34954819D02*
X43309523Y-35002438D01*
X43309523Y-35002438D02*
X43357142Y-35050057D01*
X43928571Y-35383390D02*
X43833333Y-35335771D01*
X43833333Y-35335771D02*
X43785714Y-35288152D01*
X43785714Y-35288152D02*
X43738095Y-35192914D01*
X43738095Y-35192914D02*
X43738095Y-35145295D01*
X43738095Y-35145295D02*
X43785714Y-35050057D01*
X43785714Y-35050057D02*
X43833333Y-35002438D01*
X43833333Y-35002438D02*
X43928571Y-34954819D01*
X43928571Y-34954819D02*
X44119047Y-34954819D01*
X44119047Y-34954819D02*
X44214285Y-35002438D01*
X44214285Y-35002438D02*
X44261904Y-35050057D01*
X44261904Y-35050057D02*
X44309523Y-35145295D01*
X44309523Y-35145295D02*
X44309523Y-35192914D01*
X44309523Y-35192914D02*
X44261904Y-35288152D01*
X44261904Y-35288152D02*
X44214285Y-35335771D01*
X44214285Y-35335771D02*
X44119047Y-35383390D01*
X44119047Y-35383390D02*
X43928571Y-35383390D01*
X43928571Y-35383390D02*
X43833333Y-35431009D01*
X43833333Y-35431009D02*
X43785714Y-35478628D01*
X43785714Y-35478628D02*
X43738095Y-35573866D01*
X43738095Y-35573866D02*
X43738095Y-35764342D01*
X43738095Y-35764342D02*
X43785714Y-35859580D01*
X43785714Y-35859580D02*
X43833333Y-35907200D01*
X43833333Y-35907200D02*
X43928571Y-35954819D01*
X43928571Y-35954819D02*
X44119047Y-35954819D01*
X44119047Y-35954819D02*
X44214285Y-35907200D01*
X44214285Y-35907200D02*
X44261904Y-35859580D01*
X44261904Y-35859580D02*
X44309523Y-35764342D01*
X44309523Y-35764342D02*
X44309523Y-35573866D01*
X44309523Y-35573866D02*
X44261904Y-35478628D01*
X44261904Y-35478628D02*
X44214285Y-35431009D01*
X44214285Y-35431009D02*
X44119047Y-35383390D01*
X44785714Y-35954819D02*
X44976190Y-35954819D01*
X44976190Y-35954819D02*
X45071428Y-35907200D01*
X45071428Y-35907200D02*
X45119047Y-35859580D01*
X45119047Y-35859580D02*
X45214285Y-35716723D01*
X45214285Y-35716723D02*
X45261904Y-35526247D01*
X45261904Y-35526247D02*
X45261904Y-35145295D01*
X45261904Y-35145295D02*
X45214285Y-35050057D01*
X45214285Y-35050057D02*
X45166666Y-35002438D01*
X45166666Y-35002438D02*
X45071428Y-34954819D01*
X45071428Y-34954819D02*
X44880952Y-34954819D01*
X44880952Y-34954819D02*
X44785714Y-35002438D01*
X44785714Y-35002438D02*
X44738095Y-35050057D01*
X44738095Y-35050057D02*
X44690476Y-35145295D01*
X44690476Y-35145295D02*
X44690476Y-35383390D01*
X44690476Y-35383390D02*
X44738095Y-35478628D01*
X44738095Y-35478628D02*
X44785714Y-35526247D01*
X44785714Y-35526247D02*
X44880952Y-35573866D01*
X44880952Y-35573866D02*
X45071428Y-35573866D01*
X45071428Y-35573866D02*
X45166666Y-35526247D01*
X45166666Y-35526247D02*
X45214285Y-35478628D01*
X45214285Y-35478628D02*
X45261904Y-35383390D01*
X30857142Y-52859580D02*
X30809523Y-52907200D01*
X30809523Y-52907200D02*
X30666666Y-52954819D01*
X30666666Y-52954819D02*
X30571428Y-52954819D01*
X30571428Y-52954819D02*
X30428571Y-52907200D01*
X30428571Y-52907200D02*
X30333333Y-52811961D01*
X30333333Y-52811961D02*
X30285714Y-52716723D01*
X30285714Y-52716723D02*
X30238095Y-52526247D01*
X30238095Y-52526247D02*
X30238095Y-52383390D01*
X30238095Y-52383390D02*
X30285714Y-52192914D01*
X30285714Y-52192914D02*
X30333333Y-52097676D01*
X30333333Y-52097676D02*
X30428571Y-52002438D01*
X30428571Y-52002438D02*
X30571428Y-51954819D01*
X30571428Y-51954819D02*
X30666666Y-51954819D01*
X30666666Y-51954819D02*
X30809523Y-52002438D01*
X30809523Y-52002438D02*
X30857142Y-52050057D01*
X31428571Y-52383390D02*
X31333333Y-52335771D01*
X31333333Y-52335771D02*
X31285714Y-52288152D01*
X31285714Y-52288152D02*
X31238095Y-52192914D01*
X31238095Y-52192914D02*
X31238095Y-52145295D01*
X31238095Y-52145295D02*
X31285714Y-52050057D01*
X31285714Y-52050057D02*
X31333333Y-52002438D01*
X31333333Y-52002438D02*
X31428571Y-51954819D01*
X31428571Y-51954819D02*
X31619047Y-51954819D01*
X31619047Y-51954819D02*
X31714285Y-52002438D01*
X31714285Y-52002438D02*
X31761904Y-52050057D01*
X31761904Y-52050057D02*
X31809523Y-52145295D01*
X31809523Y-52145295D02*
X31809523Y-52192914D01*
X31809523Y-52192914D02*
X31761904Y-52288152D01*
X31761904Y-52288152D02*
X31714285Y-52335771D01*
X31714285Y-52335771D02*
X31619047Y-52383390D01*
X31619047Y-52383390D02*
X31428571Y-52383390D01*
X31428571Y-52383390D02*
X31333333Y-52431009D01*
X31333333Y-52431009D02*
X31285714Y-52478628D01*
X31285714Y-52478628D02*
X31238095Y-52573866D01*
X31238095Y-52573866D02*
X31238095Y-52764342D01*
X31238095Y-52764342D02*
X31285714Y-52859580D01*
X31285714Y-52859580D02*
X31333333Y-52907200D01*
X31333333Y-52907200D02*
X31428571Y-52954819D01*
X31428571Y-52954819D02*
X31619047Y-52954819D01*
X31619047Y-52954819D02*
X31714285Y-52907200D01*
X31714285Y-52907200D02*
X31761904Y-52859580D01*
X31761904Y-52859580D02*
X31809523Y-52764342D01*
X31809523Y-52764342D02*
X31809523Y-52573866D01*
X31809523Y-52573866D02*
X31761904Y-52478628D01*
X31761904Y-52478628D02*
X31714285Y-52431009D01*
X31714285Y-52431009D02*
X31619047Y-52383390D01*
X32714285Y-51954819D02*
X32238095Y-51954819D01*
X32238095Y-51954819D02*
X32190476Y-52431009D01*
X32190476Y-52431009D02*
X32238095Y-52383390D01*
X32238095Y-52383390D02*
X32333333Y-52335771D01*
X32333333Y-52335771D02*
X32571428Y-52335771D01*
X32571428Y-52335771D02*
X32666666Y-52383390D01*
X32666666Y-52383390D02*
X32714285Y-52431009D01*
X32714285Y-52431009D02*
X32761904Y-52526247D01*
X32761904Y-52526247D02*
X32761904Y-52764342D01*
X32761904Y-52764342D02*
X32714285Y-52859580D01*
X32714285Y-52859580D02*
X32666666Y-52907200D01*
X32666666Y-52907200D02*
X32571428Y-52954819D01*
X32571428Y-52954819D02*
X32333333Y-52954819D01*
X32333333Y-52954819D02*
X32238095Y-52907200D01*
X32238095Y-52907200D02*
X32190476Y-52859580D01*
X39238095Y-34454819D02*
X39238095Y-35264342D01*
X39238095Y-35264342D02*
X39285714Y-35359580D01*
X39285714Y-35359580D02*
X39333333Y-35407200D01*
X39333333Y-35407200D02*
X39428571Y-35454819D01*
X39428571Y-35454819D02*
X39619047Y-35454819D01*
X39619047Y-35454819D02*
X39714285Y-35407200D01*
X39714285Y-35407200D02*
X39761904Y-35359580D01*
X39761904Y-35359580D02*
X39809523Y-35264342D01*
X39809523Y-35264342D02*
X39809523Y-34454819D01*
X40714285Y-34788152D02*
X40714285Y-35454819D01*
X40476190Y-34407200D02*
X40238095Y-35121485D01*
X40238095Y-35121485D02*
X40857142Y-35121485D01*
X90357142Y-58359580D02*
X90309523Y-58407200D01*
X90309523Y-58407200D02*
X90166666Y-58454819D01*
X90166666Y-58454819D02*
X90071428Y-58454819D01*
X90071428Y-58454819D02*
X89928571Y-58407200D01*
X89928571Y-58407200D02*
X89833333Y-58311961D01*
X89833333Y-58311961D02*
X89785714Y-58216723D01*
X89785714Y-58216723D02*
X89738095Y-58026247D01*
X89738095Y-58026247D02*
X89738095Y-57883390D01*
X89738095Y-57883390D02*
X89785714Y-57692914D01*
X89785714Y-57692914D02*
X89833333Y-57597676D01*
X89833333Y-57597676D02*
X89928571Y-57502438D01*
X89928571Y-57502438D02*
X90071428Y-57454819D01*
X90071428Y-57454819D02*
X90166666Y-57454819D01*
X90166666Y-57454819D02*
X90309523Y-57502438D01*
X90309523Y-57502438D02*
X90357142Y-57550057D01*
X90928571Y-57883390D02*
X90833333Y-57835771D01*
X90833333Y-57835771D02*
X90785714Y-57788152D01*
X90785714Y-57788152D02*
X90738095Y-57692914D01*
X90738095Y-57692914D02*
X90738095Y-57645295D01*
X90738095Y-57645295D02*
X90785714Y-57550057D01*
X90785714Y-57550057D02*
X90833333Y-57502438D01*
X90833333Y-57502438D02*
X90928571Y-57454819D01*
X90928571Y-57454819D02*
X91119047Y-57454819D01*
X91119047Y-57454819D02*
X91214285Y-57502438D01*
X91214285Y-57502438D02*
X91261904Y-57550057D01*
X91261904Y-57550057D02*
X91309523Y-57645295D01*
X91309523Y-57645295D02*
X91309523Y-57692914D01*
X91309523Y-57692914D02*
X91261904Y-57788152D01*
X91261904Y-57788152D02*
X91214285Y-57835771D01*
X91214285Y-57835771D02*
X91119047Y-57883390D01*
X91119047Y-57883390D02*
X90928571Y-57883390D01*
X90928571Y-57883390D02*
X90833333Y-57931009D01*
X90833333Y-57931009D02*
X90785714Y-57978628D01*
X90785714Y-57978628D02*
X90738095Y-58073866D01*
X90738095Y-58073866D02*
X90738095Y-58264342D01*
X90738095Y-58264342D02*
X90785714Y-58359580D01*
X90785714Y-58359580D02*
X90833333Y-58407200D01*
X90833333Y-58407200D02*
X90928571Y-58454819D01*
X90928571Y-58454819D02*
X91119047Y-58454819D01*
X91119047Y-58454819D02*
X91214285Y-58407200D01*
X91214285Y-58407200D02*
X91261904Y-58359580D01*
X91261904Y-58359580D02*
X91309523Y-58264342D01*
X91309523Y-58264342D02*
X91309523Y-58073866D01*
X91309523Y-58073866D02*
X91261904Y-57978628D01*
X91261904Y-57978628D02*
X91214285Y-57931009D01*
X91214285Y-57931009D02*
X91119047Y-57883390D01*
X92261904Y-58454819D02*
X91690476Y-58454819D01*
X91976190Y-58454819D02*
X91976190Y-57454819D01*
X91976190Y-57454819D02*
X91880952Y-57597676D01*
X91880952Y-57597676D02*
X91785714Y-57692914D01*
X91785714Y-57692914D02*
X91690476Y-57740533D01*
X50333333Y-35454819D02*
X50000000Y-34978628D01*
X49761905Y-35454819D02*
X49761905Y-34454819D01*
X49761905Y-34454819D02*
X50142857Y-34454819D01*
X50142857Y-34454819D02*
X50238095Y-34502438D01*
X50238095Y-34502438D02*
X50285714Y-34550057D01*
X50285714Y-34550057D02*
X50333333Y-34645295D01*
X50333333Y-34645295D02*
X50333333Y-34788152D01*
X50333333Y-34788152D02*
X50285714Y-34883390D01*
X50285714Y-34883390D02*
X50238095Y-34931009D01*
X50238095Y-34931009D02*
X50142857Y-34978628D01*
X50142857Y-34978628D02*
X49761905Y-34978628D01*
X51285714Y-35454819D02*
X50714286Y-35454819D01*
X51000000Y-35454819D02*
X51000000Y-34454819D01*
X51000000Y-34454819D02*
X50904762Y-34597676D01*
X50904762Y-34597676D02*
X50809524Y-34692914D01*
X50809524Y-34692914D02*
X50714286Y-34740533D01*
X43309524Y-57931009D02*
X43642857Y-57931009D01*
X43785714Y-58454819D02*
X43309524Y-58454819D01*
X43309524Y-58454819D02*
X43309524Y-57454819D01*
X43309524Y-57454819D02*
X43785714Y-57454819D01*
X44166667Y-57550057D02*
X44214286Y-57502438D01*
X44214286Y-57502438D02*
X44309524Y-57454819D01*
X44309524Y-57454819D02*
X44547619Y-57454819D01*
X44547619Y-57454819D02*
X44642857Y-57502438D01*
X44642857Y-57502438D02*
X44690476Y-57550057D01*
X44690476Y-57550057D02*
X44738095Y-57645295D01*
X44738095Y-57645295D02*
X44738095Y-57740533D01*
X44738095Y-57740533D02*
X44690476Y-57883390D01*
X44690476Y-57883390D02*
X44119048Y-58454819D01*
X44119048Y-58454819D02*
X44738095Y-58454819D01*
X105754819Y-54461904D02*
X106564342Y-54461904D01*
X106564342Y-54461904D02*
X106659580Y-54414285D01*
X106659580Y-54414285D02*
X106707200Y-54366666D01*
X106707200Y-54366666D02*
X106754819Y-54271428D01*
X106754819Y-54271428D02*
X106754819Y-54080952D01*
X106754819Y-54080952D02*
X106707200Y-53985714D01*
X106707200Y-53985714D02*
X106659580Y-53938095D01*
X106659580Y-53938095D02*
X106564342Y-53890476D01*
X106564342Y-53890476D02*
X105754819Y-53890476D01*
X105754819Y-52985714D02*
X105754819Y-53176190D01*
X105754819Y-53176190D02*
X105802438Y-53271428D01*
X105802438Y-53271428D02*
X105850057Y-53319047D01*
X105850057Y-53319047D02*
X105992914Y-53414285D01*
X105992914Y-53414285D02*
X106183390Y-53461904D01*
X106183390Y-53461904D02*
X106564342Y-53461904D01*
X106564342Y-53461904D02*
X106659580Y-53414285D01*
X106659580Y-53414285D02*
X106707200Y-53366666D01*
X106707200Y-53366666D02*
X106754819Y-53271428D01*
X106754819Y-53271428D02*
X106754819Y-53080952D01*
X106754819Y-53080952D02*
X106707200Y-52985714D01*
X106707200Y-52985714D02*
X106659580Y-52938095D01*
X106659580Y-52938095D02*
X106564342Y-52890476D01*
X106564342Y-52890476D02*
X106326247Y-52890476D01*
X106326247Y-52890476D02*
X106231009Y-52938095D01*
X106231009Y-52938095D02*
X106183390Y-52985714D01*
X106183390Y-52985714D02*
X106135771Y-53080952D01*
X106135771Y-53080952D02*
X106135771Y-53271428D01*
X106135771Y-53271428D02*
X106183390Y-53366666D01*
X106183390Y-53366666D02*
X106231009Y-53414285D01*
X106231009Y-53414285D02*
X106326247Y-53461904D01*
X52857142Y-39454819D02*
X52523809Y-38978628D01*
X52285714Y-39454819D02*
X52285714Y-38454819D01*
X52285714Y-38454819D02*
X52666666Y-38454819D01*
X52666666Y-38454819D02*
X52761904Y-38502438D01*
X52761904Y-38502438D02*
X52809523Y-38550057D01*
X52809523Y-38550057D02*
X52857142Y-38645295D01*
X52857142Y-38645295D02*
X52857142Y-38788152D01*
X52857142Y-38788152D02*
X52809523Y-38883390D01*
X52809523Y-38883390D02*
X52761904Y-38931009D01*
X52761904Y-38931009D02*
X52666666Y-38978628D01*
X52666666Y-38978628D02*
X52285714Y-38978628D01*
X53238095Y-38550057D02*
X53285714Y-38502438D01*
X53285714Y-38502438D02*
X53380952Y-38454819D01*
X53380952Y-38454819D02*
X53619047Y-38454819D01*
X53619047Y-38454819D02*
X53714285Y-38502438D01*
X53714285Y-38502438D02*
X53761904Y-38550057D01*
X53761904Y-38550057D02*
X53809523Y-38645295D01*
X53809523Y-38645295D02*
X53809523Y-38740533D01*
X53809523Y-38740533D02*
X53761904Y-38883390D01*
X53761904Y-38883390D02*
X53190476Y-39454819D01*
X53190476Y-39454819D02*
X53809523Y-39454819D01*
X54285714Y-39454819D02*
X54476190Y-39454819D01*
X54476190Y-39454819D02*
X54571428Y-39407200D01*
X54571428Y-39407200D02*
X54619047Y-39359580D01*
X54619047Y-39359580D02*
X54714285Y-39216723D01*
X54714285Y-39216723D02*
X54761904Y-39026247D01*
X54761904Y-39026247D02*
X54761904Y-38645295D01*
X54761904Y-38645295D02*
X54714285Y-38550057D01*
X54714285Y-38550057D02*
X54666666Y-38502438D01*
X54666666Y-38502438D02*
X54571428Y-38454819D01*
X54571428Y-38454819D02*
X54380952Y-38454819D01*
X54380952Y-38454819D02*
X54285714Y-38502438D01*
X54285714Y-38502438D02*
X54238095Y-38550057D01*
X54238095Y-38550057D02*
X54190476Y-38645295D01*
X54190476Y-38645295D02*
X54190476Y-38883390D01*
X54190476Y-38883390D02*
X54238095Y-38978628D01*
X54238095Y-38978628D02*
X54285714Y-39026247D01*
X54285714Y-39026247D02*
X54380952Y-39073866D01*
X54380952Y-39073866D02*
X54571428Y-39073866D01*
X54571428Y-39073866D02*
X54666666Y-39026247D01*
X54666666Y-39026247D02*
X54714285Y-38978628D01*
X54714285Y-38978628D02*
X54761904Y-38883390D01*
X90357142Y-40359580D02*
X90309523Y-40407200D01*
X90309523Y-40407200D02*
X90166666Y-40454819D01*
X90166666Y-40454819D02*
X90071428Y-40454819D01*
X90071428Y-40454819D02*
X89928571Y-40407200D01*
X89928571Y-40407200D02*
X89833333Y-40311961D01*
X89833333Y-40311961D02*
X89785714Y-40216723D01*
X89785714Y-40216723D02*
X89738095Y-40026247D01*
X89738095Y-40026247D02*
X89738095Y-39883390D01*
X89738095Y-39883390D02*
X89785714Y-39692914D01*
X89785714Y-39692914D02*
X89833333Y-39597676D01*
X89833333Y-39597676D02*
X89928571Y-39502438D01*
X89928571Y-39502438D02*
X90071428Y-39454819D01*
X90071428Y-39454819D02*
X90166666Y-39454819D01*
X90166666Y-39454819D02*
X90309523Y-39502438D01*
X90309523Y-39502438D02*
X90357142Y-39550057D01*
X90690476Y-39454819D02*
X91357142Y-39454819D01*
X91357142Y-39454819D02*
X90928571Y-40454819D01*
X92166666Y-39454819D02*
X91976190Y-39454819D01*
X91976190Y-39454819D02*
X91880952Y-39502438D01*
X91880952Y-39502438D02*
X91833333Y-39550057D01*
X91833333Y-39550057D02*
X91738095Y-39692914D01*
X91738095Y-39692914D02*
X91690476Y-39883390D01*
X91690476Y-39883390D02*
X91690476Y-40264342D01*
X91690476Y-40264342D02*
X91738095Y-40359580D01*
X91738095Y-40359580D02*
X91785714Y-40407200D01*
X91785714Y-40407200D02*
X91880952Y-40454819D01*
X91880952Y-40454819D02*
X92071428Y-40454819D01*
X92071428Y-40454819D02*
X92166666Y-40407200D01*
X92166666Y-40407200D02*
X92214285Y-40359580D01*
X92214285Y-40359580D02*
X92261904Y-40264342D01*
X92261904Y-40264342D02*
X92261904Y-40026247D01*
X92261904Y-40026247D02*
X92214285Y-39931009D01*
X92214285Y-39931009D02*
X92166666Y-39883390D01*
X92166666Y-39883390D02*
X92071428Y-39835771D01*
X92071428Y-39835771D02*
X91880952Y-39835771D01*
X91880952Y-39835771D02*
X91785714Y-39883390D01*
X91785714Y-39883390D02*
X91738095Y-39931009D01*
X91738095Y-39931009D02*
X91690476Y-40026247D01*
X90357142Y-57359580D02*
X90309523Y-57407200D01*
X90309523Y-57407200D02*
X90166666Y-57454819D01*
X90166666Y-57454819D02*
X90071428Y-57454819D01*
X90071428Y-57454819D02*
X89928571Y-57407200D01*
X89928571Y-57407200D02*
X89833333Y-57311961D01*
X89833333Y-57311961D02*
X89785714Y-57216723D01*
X89785714Y-57216723D02*
X89738095Y-57026247D01*
X89738095Y-57026247D02*
X89738095Y-56883390D01*
X89738095Y-56883390D02*
X89785714Y-56692914D01*
X89785714Y-56692914D02*
X89833333Y-56597676D01*
X89833333Y-56597676D02*
X89928571Y-56502438D01*
X89928571Y-56502438D02*
X90071428Y-56454819D01*
X90071428Y-56454819D02*
X90166666Y-56454819D01*
X90166666Y-56454819D02*
X90309523Y-56502438D01*
X90309523Y-56502438D02*
X90357142Y-56550057D01*
X90928571Y-56883390D02*
X90833333Y-56835771D01*
X90833333Y-56835771D02*
X90785714Y-56788152D01*
X90785714Y-56788152D02*
X90738095Y-56692914D01*
X90738095Y-56692914D02*
X90738095Y-56645295D01*
X90738095Y-56645295D02*
X90785714Y-56550057D01*
X90785714Y-56550057D02*
X90833333Y-56502438D01*
X90833333Y-56502438D02*
X90928571Y-56454819D01*
X90928571Y-56454819D02*
X91119047Y-56454819D01*
X91119047Y-56454819D02*
X91214285Y-56502438D01*
X91214285Y-56502438D02*
X91261904Y-56550057D01*
X91261904Y-56550057D02*
X91309523Y-56645295D01*
X91309523Y-56645295D02*
X91309523Y-56692914D01*
X91309523Y-56692914D02*
X91261904Y-56788152D01*
X91261904Y-56788152D02*
X91214285Y-56835771D01*
X91214285Y-56835771D02*
X91119047Y-56883390D01*
X91119047Y-56883390D02*
X90928571Y-56883390D01*
X90928571Y-56883390D02*
X90833333Y-56931009D01*
X90833333Y-56931009D02*
X90785714Y-56978628D01*
X90785714Y-56978628D02*
X90738095Y-57073866D01*
X90738095Y-57073866D02*
X90738095Y-57264342D01*
X90738095Y-57264342D02*
X90785714Y-57359580D01*
X90785714Y-57359580D02*
X90833333Y-57407200D01*
X90833333Y-57407200D02*
X90928571Y-57454819D01*
X90928571Y-57454819D02*
X91119047Y-57454819D01*
X91119047Y-57454819D02*
X91214285Y-57407200D01*
X91214285Y-57407200D02*
X91261904Y-57359580D01*
X91261904Y-57359580D02*
X91309523Y-57264342D01*
X91309523Y-57264342D02*
X91309523Y-57073866D01*
X91309523Y-57073866D02*
X91261904Y-56978628D01*
X91261904Y-56978628D02*
X91214285Y-56931009D01*
X91214285Y-56931009D02*
X91119047Y-56883390D01*
X91928571Y-56454819D02*
X92023809Y-56454819D01*
X92023809Y-56454819D02*
X92119047Y-56502438D01*
X92119047Y-56502438D02*
X92166666Y-56550057D01*
X92166666Y-56550057D02*
X92214285Y-56645295D01*
X92214285Y-56645295D02*
X92261904Y-56835771D01*
X92261904Y-56835771D02*
X92261904Y-57073866D01*
X92261904Y-57073866D02*
X92214285Y-57264342D01*
X92214285Y-57264342D02*
X92166666Y-57359580D01*
X92166666Y-57359580D02*
X92119047Y-57407200D01*
X92119047Y-57407200D02*
X92023809Y-57454819D01*
X92023809Y-57454819D02*
X91928571Y-57454819D01*
X91928571Y-57454819D02*
X91833333Y-57407200D01*
X91833333Y-57407200D02*
X91785714Y-57359580D01*
X91785714Y-57359580D02*
X91738095Y-57264342D01*
X91738095Y-57264342D02*
X91690476Y-57073866D01*
X91690476Y-57073866D02*
X91690476Y-56835771D01*
X91690476Y-56835771D02*
X91738095Y-56645295D01*
X91738095Y-56645295D02*
X91785714Y-56550057D01*
X91785714Y-56550057D02*
X91833333Y-56502438D01*
X91833333Y-56502438D02*
X91928571Y-56454819D01*
X90357142Y-59359580D02*
X90309523Y-59407200D01*
X90309523Y-59407200D02*
X90166666Y-59454819D01*
X90166666Y-59454819D02*
X90071428Y-59454819D01*
X90071428Y-59454819D02*
X89928571Y-59407200D01*
X89928571Y-59407200D02*
X89833333Y-59311961D01*
X89833333Y-59311961D02*
X89785714Y-59216723D01*
X89785714Y-59216723D02*
X89738095Y-59026247D01*
X89738095Y-59026247D02*
X89738095Y-58883390D01*
X89738095Y-58883390D02*
X89785714Y-58692914D01*
X89785714Y-58692914D02*
X89833333Y-58597676D01*
X89833333Y-58597676D02*
X89928571Y-58502438D01*
X89928571Y-58502438D02*
X90071428Y-58454819D01*
X90071428Y-58454819D02*
X90166666Y-58454819D01*
X90166666Y-58454819D02*
X90309523Y-58502438D01*
X90309523Y-58502438D02*
X90357142Y-58550057D01*
X90690476Y-58454819D02*
X91357142Y-58454819D01*
X91357142Y-58454819D02*
X90928571Y-59454819D01*
X91785714Y-59454819D02*
X91976190Y-59454819D01*
X91976190Y-59454819D02*
X92071428Y-59407200D01*
X92071428Y-59407200D02*
X92119047Y-59359580D01*
X92119047Y-59359580D02*
X92214285Y-59216723D01*
X92214285Y-59216723D02*
X92261904Y-59026247D01*
X92261904Y-59026247D02*
X92261904Y-58645295D01*
X92261904Y-58645295D02*
X92214285Y-58550057D01*
X92214285Y-58550057D02*
X92166666Y-58502438D01*
X92166666Y-58502438D02*
X92071428Y-58454819D01*
X92071428Y-58454819D02*
X91880952Y-58454819D01*
X91880952Y-58454819D02*
X91785714Y-58502438D01*
X91785714Y-58502438D02*
X91738095Y-58550057D01*
X91738095Y-58550057D02*
X91690476Y-58645295D01*
X91690476Y-58645295D02*
X91690476Y-58883390D01*
X91690476Y-58883390D02*
X91738095Y-58978628D01*
X91738095Y-58978628D02*
X91785714Y-59026247D01*
X91785714Y-59026247D02*
X91880952Y-59073866D01*
X91880952Y-59073866D02*
X92071428Y-59073866D01*
X92071428Y-59073866D02*
X92166666Y-59026247D01*
X92166666Y-59026247D02*
X92214285Y-58978628D01*
X92214285Y-58978628D02*
X92261904Y-58883390D01*
X90357142Y-36859580D02*
X90309523Y-36907200D01*
X90309523Y-36907200D02*
X90166666Y-36954819D01*
X90166666Y-36954819D02*
X90071428Y-36954819D01*
X90071428Y-36954819D02*
X89928571Y-36907200D01*
X89928571Y-36907200D02*
X89833333Y-36811961D01*
X89833333Y-36811961D02*
X89785714Y-36716723D01*
X89785714Y-36716723D02*
X89738095Y-36526247D01*
X89738095Y-36526247D02*
X89738095Y-36383390D01*
X89738095Y-36383390D02*
X89785714Y-36192914D01*
X89785714Y-36192914D02*
X89833333Y-36097676D01*
X89833333Y-36097676D02*
X89928571Y-36002438D01*
X89928571Y-36002438D02*
X90071428Y-35954819D01*
X90071428Y-35954819D02*
X90166666Y-35954819D01*
X90166666Y-35954819D02*
X90309523Y-36002438D01*
X90309523Y-36002438D02*
X90357142Y-36050057D01*
X90690476Y-35954819D02*
X91357142Y-35954819D01*
X91357142Y-35954819D02*
X90928571Y-36954819D01*
X91880952Y-36383390D02*
X91785714Y-36335771D01*
X91785714Y-36335771D02*
X91738095Y-36288152D01*
X91738095Y-36288152D02*
X91690476Y-36192914D01*
X91690476Y-36192914D02*
X91690476Y-36145295D01*
X91690476Y-36145295D02*
X91738095Y-36050057D01*
X91738095Y-36050057D02*
X91785714Y-36002438D01*
X91785714Y-36002438D02*
X91880952Y-35954819D01*
X91880952Y-35954819D02*
X92071428Y-35954819D01*
X92071428Y-35954819D02*
X92166666Y-36002438D01*
X92166666Y-36002438D02*
X92214285Y-36050057D01*
X92214285Y-36050057D02*
X92261904Y-36145295D01*
X92261904Y-36145295D02*
X92261904Y-36192914D01*
X92261904Y-36192914D02*
X92214285Y-36288152D01*
X92214285Y-36288152D02*
X92166666Y-36335771D01*
X92166666Y-36335771D02*
X92071428Y-36383390D01*
X92071428Y-36383390D02*
X91880952Y-36383390D01*
X91880952Y-36383390D02*
X91785714Y-36431009D01*
X91785714Y-36431009D02*
X91738095Y-36478628D01*
X91738095Y-36478628D02*
X91690476Y-36573866D01*
X91690476Y-36573866D02*
X91690476Y-36764342D01*
X91690476Y-36764342D02*
X91738095Y-36859580D01*
X91738095Y-36859580D02*
X91785714Y-36907200D01*
X91785714Y-36907200D02*
X91880952Y-36954819D01*
X91880952Y-36954819D02*
X92071428Y-36954819D01*
X92071428Y-36954819D02*
X92166666Y-36907200D01*
X92166666Y-36907200D02*
X92214285Y-36859580D01*
X92214285Y-36859580D02*
X92261904Y-36764342D01*
X92261904Y-36764342D02*
X92261904Y-36573866D01*
X92261904Y-36573866D02*
X92214285Y-36478628D01*
X92214285Y-36478628D02*
X92166666Y-36431009D01*
X92166666Y-36431009D02*
X92071428Y-36383390D01*
X27857142Y-45359580D02*
X27809523Y-45407200D01*
X27809523Y-45407200D02*
X27666666Y-45454819D01*
X27666666Y-45454819D02*
X27571428Y-45454819D01*
X27571428Y-45454819D02*
X27428571Y-45407200D01*
X27428571Y-45407200D02*
X27333333Y-45311961D01*
X27333333Y-45311961D02*
X27285714Y-45216723D01*
X27285714Y-45216723D02*
X27238095Y-45026247D01*
X27238095Y-45026247D02*
X27238095Y-44883390D01*
X27238095Y-44883390D02*
X27285714Y-44692914D01*
X27285714Y-44692914D02*
X27333333Y-44597676D01*
X27333333Y-44597676D02*
X27428571Y-44502438D01*
X27428571Y-44502438D02*
X27571428Y-44454819D01*
X27571428Y-44454819D02*
X27666666Y-44454819D01*
X27666666Y-44454819D02*
X27809523Y-44502438D01*
X27809523Y-44502438D02*
X27857142Y-44550057D01*
X28190476Y-44454819D02*
X28857142Y-44454819D01*
X28857142Y-44454819D02*
X28428571Y-45454819D01*
X29142857Y-44454819D02*
X29761904Y-44454819D01*
X29761904Y-44454819D02*
X29428571Y-44835771D01*
X29428571Y-44835771D02*
X29571428Y-44835771D01*
X29571428Y-44835771D02*
X29666666Y-44883390D01*
X29666666Y-44883390D02*
X29714285Y-44931009D01*
X29714285Y-44931009D02*
X29761904Y-45026247D01*
X29761904Y-45026247D02*
X29761904Y-45264342D01*
X29761904Y-45264342D02*
X29714285Y-45359580D01*
X29714285Y-45359580D02*
X29666666Y-45407200D01*
X29666666Y-45407200D02*
X29571428Y-45454819D01*
X29571428Y-45454819D02*
X29285714Y-45454819D01*
X29285714Y-45454819D02*
X29190476Y-45407200D01*
X29190476Y-45407200D02*
X29142857Y-45359580D01*
X43738095Y-49454819D02*
X43738095Y-50264342D01*
X43738095Y-50264342D02*
X43785714Y-50359580D01*
X43785714Y-50359580D02*
X43833333Y-50407200D01*
X43833333Y-50407200D02*
X43928571Y-50454819D01*
X43928571Y-50454819D02*
X44119047Y-50454819D01*
X44119047Y-50454819D02*
X44214285Y-50407200D01*
X44214285Y-50407200D02*
X44261904Y-50359580D01*
X44261904Y-50359580D02*
X44309523Y-50264342D01*
X44309523Y-50264342D02*
X44309523Y-49454819D01*
X45261904Y-49454819D02*
X44785714Y-49454819D01*
X44785714Y-49454819D02*
X44738095Y-49931009D01*
X44738095Y-49931009D02*
X44785714Y-49883390D01*
X44785714Y-49883390D02*
X44880952Y-49835771D01*
X44880952Y-49835771D02*
X45119047Y-49835771D01*
X45119047Y-49835771D02*
X45214285Y-49883390D01*
X45214285Y-49883390D02*
X45261904Y-49931009D01*
X45261904Y-49931009D02*
X45309523Y-50026247D01*
X45309523Y-50026247D02*
X45309523Y-50264342D01*
X45309523Y-50264342D02*
X45261904Y-50359580D01*
X45261904Y-50359580D02*
X45214285Y-50407200D01*
X45214285Y-50407200D02*
X45119047Y-50454819D01*
X45119047Y-50454819D02*
X44880952Y-50454819D01*
X44880952Y-50454819D02*
X44785714Y-50407200D01*
X44785714Y-50407200D02*
X44738095Y-50359580D01*
X53333333Y-35454819D02*
X53000000Y-34978628D01*
X52761905Y-35454819D02*
X52761905Y-34454819D01*
X52761905Y-34454819D02*
X53142857Y-34454819D01*
X53142857Y-34454819D02*
X53238095Y-34502438D01*
X53238095Y-34502438D02*
X53285714Y-34550057D01*
X53285714Y-34550057D02*
X53333333Y-34645295D01*
X53333333Y-34645295D02*
X53333333Y-34788152D01*
X53333333Y-34788152D02*
X53285714Y-34883390D01*
X53285714Y-34883390D02*
X53238095Y-34931009D01*
X53238095Y-34931009D02*
X53142857Y-34978628D01*
X53142857Y-34978628D02*
X52761905Y-34978628D01*
X53666667Y-34454819D02*
X54285714Y-34454819D01*
X54285714Y-34454819D02*
X53952381Y-34835771D01*
X53952381Y-34835771D02*
X54095238Y-34835771D01*
X54095238Y-34835771D02*
X54190476Y-34883390D01*
X54190476Y-34883390D02*
X54238095Y-34931009D01*
X54238095Y-34931009D02*
X54285714Y-35026247D01*
X54285714Y-35026247D02*
X54285714Y-35264342D01*
X54285714Y-35264342D02*
X54238095Y-35359580D01*
X54238095Y-35359580D02*
X54190476Y-35407200D01*
X54190476Y-35407200D02*
X54095238Y-35454819D01*
X54095238Y-35454819D02*
X53809524Y-35454819D01*
X53809524Y-35454819D02*
X53714286Y-35407200D01*
X53714286Y-35407200D02*
X53666667Y-35359580D01*
X90357142Y-62359580D02*
X90309523Y-62407200D01*
X90309523Y-62407200D02*
X90166666Y-62454819D01*
X90166666Y-62454819D02*
X90071428Y-62454819D01*
X90071428Y-62454819D02*
X89928571Y-62407200D01*
X89928571Y-62407200D02*
X89833333Y-62311961D01*
X89833333Y-62311961D02*
X89785714Y-62216723D01*
X89785714Y-62216723D02*
X89738095Y-62026247D01*
X89738095Y-62026247D02*
X89738095Y-61883390D01*
X89738095Y-61883390D02*
X89785714Y-61692914D01*
X89785714Y-61692914D02*
X89833333Y-61597676D01*
X89833333Y-61597676D02*
X89928571Y-61502438D01*
X89928571Y-61502438D02*
X90071428Y-61454819D01*
X90071428Y-61454819D02*
X90166666Y-61454819D01*
X90166666Y-61454819D02*
X90309523Y-61502438D01*
X90309523Y-61502438D02*
X90357142Y-61550057D01*
X90928571Y-61883390D02*
X90833333Y-61835771D01*
X90833333Y-61835771D02*
X90785714Y-61788152D01*
X90785714Y-61788152D02*
X90738095Y-61692914D01*
X90738095Y-61692914D02*
X90738095Y-61645295D01*
X90738095Y-61645295D02*
X90785714Y-61550057D01*
X90785714Y-61550057D02*
X90833333Y-61502438D01*
X90833333Y-61502438D02*
X90928571Y-61454819D01*
X90928571Y-61454819D02*
X91119047Y-61454819D01*
X91119047Y-61454819D02*
X91214285Y-61502438D01*
X91214285Y-61502438D02*
X91261904Y-61550057D01*
X91261904Y-61550057D02*
X91309523Y-61645295D01*
X91309523Y-61645295D02*
X91309523Y-61692914D01*
X91309523Y-61692914D02*
X91261904Y-61788152D01*
X91261904Y-61788152D02*
X91214285Y-61835771D01*
X91214285Y-61835771D02*
X91119047Y-61883390D01*
X91119047Y-61883390D02*
X90928571Y-61883390D01*
X90928571Y-61883390D02*
X90833333Y-61931009D01*
X90833333Y-61931009D02*
X90785714Y-61978628D01*
X90785714Y-61978628D02*
X90738095Y-62073866D01*
X90738095Y-62073866D02*
X90738095Y-62264342D01*
X90738095Y-62264342D02*
X90785714Y-62359580D01*
X90785714Y-62359580D02*
X90833333Y-62407200D01*
X90833333Y-62407200D02*
X90928571Y-62454819D01*
X90928571Y-62454819D02*
X91119047Y-62454819D01*
X91119047Y-62454819D02*
X91214285Y-62407200D01*
X91214285Y-62407200D02*
X91261904Y-62359580D01*
X91261904Y-62359580D02*
X91309523Y-62264342D01*
X91309523Y-62264342D02*
X91309523Y-62073866D01*
X91309523Y-62073866D02*
X91261904Y-61978628D01*
X91261904Y-61978628D02*
X91214285Y-61931009D01*
X91214285Y-61931009D02*
X91119047Y-61883390D01*
X91690476Y-61550057D02*
X91738095Y-61502438D01*
X91738095Y-61502438D02*
X91833333Y-61454819D01*
X91833333Y-61454819D02*
X92071428Y-61454819D01*
X92071428Y-61454819D02*
X92166666Y-61502438D01*
X92166666Y-61502438D02*
X92214285Y-61550057D01*
X92214285Y-61550057D02*
X92261904Y-61645295D01*
X92261904Y-61645295D02*
X92261904Y-61740533D01*
X92261904Y-61740533D02*
X92214285Y-61883390D01*
X92214285Y-61883390D02*
X91642857Y-62454819D01*
X91642857Y-62454819D02*
X92261904Y-62454819D01*
X54857142Y-64954819D02*
X54523809Y-64478628D01*
X54285714Y-64954819D02*
X54285714Y-63954819D01*
X54285714Y-63954819D02*
X54666666Y-63954819D01*
X54666666Y-63954819D02*
X54761904Y-64002438D01*
X54761904Y-64002438D02*
X54809523Y-64050057D01*
X54809523Y-64050057D02*
X54857142Y-64145295D01*
X54857142Y-64145295D02*
X54857142Y-64288152D01*
X54857142Y-64288152D02*
X54809523Y-64383390D01*
X54809523Y-64383390D02*
X54761904Y-64431009D01*
X54761904Y-64431009D02*
X54666666Y-64478628D01*
X54666666Y-64478628D02*
X54285714Y-64478628D01*
X55190476Y-63954819D02*
X55809523Y-63954819D01*
X55809523Y-63954819D02*
X55476190Y-64335771D01*
X55476190Y-64335771D02*
X55619047Y-64335771D01*
X55619047Y-64335771D02*
X55714285Y-64383390D01*
X55714285Y-64383390D02*
X55761904Y-64431009D01*
X55761904Y-64431009D02*
X55809523Y-64526247D01*
X55809523Y-64526247D02*
X55809523Y-64764342D01*
X55809523Y-64764342D02*
X55761904Y-64859580D01*
X55761904Y-64859580D02*
X55714285Y-64907200D01*
X55714285Y-64907200D02*
X55619047Y-64954819D01*
X55619047Y-64954819D02*
X55333333Y-64954819D01*
X55333333Y-64954819D02*
X55238095Y-64907200D01*
X55238095Y-64907200D02*
X55190476Y-64859580D01*
X56761904Y-64954819D02*
X56190476Y-64954819D01*
X56476190Y-64954819D02*
X56476190Y-63954819D01*
X56476190Y-63954819D02*
X56380952Y-64097676D01*
X56380952Y-64097676D02*
X56285714Y-64192914D01*
X56285714Y-64192914D02*
X56190476Y-64240533D01*
X24166666Y-55414819D02*
X24166666Y-56129104D01*
X24166666Y-56129104D02*
X24119047Y-56271961D01*
X24119047Y-56271961D02*
X24023809Y-56367200D01*
X24023809Y-56367200D02*
X23880952Y-56414819D01*
X23880952Y-56414819D02*
X23785714Y-56414819D01*
X24690476Y-56414819D02*
X24880952Y-56414819D01*
X24880952Y-56414819D02*
X24976190Y-56367200D01*
X24976190Y-56367200D02*
X25023809Y-56319580D01*
X25023809Y-56319580D02*
X25119047Y-56176723D01*
X25119047Y-56176723D02*
X25166666Y-55986247D01*
X25166666Y-55986247D02*
X25166666Y-55605295D01*
X25166666Y-55605295D02*
X25119047Y-55510057D01*
X25119047Y-55510057D02*
X25071428Y-55462438D01*
X25071428Y-55462438D02*
X24976190Y-55414819D01*
X24976190Y-55414819D02*
X24785714Y-55414819D01*
X24785714Y-55414819D02*
X24690476Y-55462438D01*
X24690476Y-55462438D02*
X24642857Y-55510057D01*
X24642857Y-55510057D02*
X24595238Y-55605295D01*
X24595238Y-55605295D02*
X24595238Y-55843390D01*
X24595238Y-55843390D02*
X24642857Y-55938628D01*
X24642857Y-55938628D02*
X24690476Y-55986247D01*
X24690476Y-55986247D02*
X24785714Y-56033866D01*
X24785714Y-56033866D02*
X24976190Y-56033866D01*
X24976190Y-56033866D02*
X25071428Y-55986247D01*
X25071428Y-55986247D02*
X25119047Y-55938628D01*
X25119047Y-55938628D02*
X25166666Y-55843390D01*
X23690476Y-45994819D02*
X23690476Y-46709104D01*
X23690476Y-46709104D02*
X23642857Y-46851961D01*
X23642857Y-46851961D02*
X23547619Y-46947200D01*
X23547619Y-46947200D02*
X23404762Y-46994819D01*
X23404762Y-46994819D02*
X23309524Y-46994819D01*
X24690476Y-46994819D02*
X24119048Y-46994819D01*
X24404762Y-46994819D02*
X24404762Y-45994819D01*
X24404762Y-45994819D02*
X24309524Y-46137676D01*
X24309524Y-46137676D02*
X24214286Y-46232914D01*
X24214286Y-46232914D02*
X24119048Y-46280533D01*
X25023810Y-45994819D02*
X25642857Y-45994819D01*
X25642857Y-45994819D02*
X25309524Y-46375771D01*
X25309524Y-46375771D02*
X25452381Y-46375771D01*
X25452381Y-46375771D02*
X25547619Y-46423390D01*
X25547619Y-46423390D02*
X25595238Y-46471009D01*
X25595238Y-46471009D02*
X25642857Y-46566247D01*
X25642857Y-46566247D02*
X25642857Y-46804342D01*
X25642857Y-46804342D02*
X25595238Y-46899580D01*
X25595238Y-46899580D02*
X25547619Y-46947200D01*
X25547619Y-46947200D02*
X25452381Y-46994819D01*
X25452381Y-46994819D02*
X25166667Y-46994819D01*
X25166667Y-46994819D02*
X25071429Y-46947200D01*
X25071429Y-46947200D02*
X25023810Y-46899580D01*
X35238095Y-49454819D02*
X35238095Y-50264342D01*
X35238095Y-50264342D02*
X35285714Y-50359580D01*
X35285714Y-50359580D02*
X35333333Y-50407200D01*
X35333333Y-50407200D02*
X35428571Y-50454819D01*
X35428571Y-50454819D02*
X35619047Y-50454819D01*
X35619047Y-50454819D02*
X35714285Y-50407200D01*
X35714285Y-50407200D02*
X35761904Y-50359580D01*
X35761904Y-50359580D02*
X35809523Y-50264342D01*
X35809523Y-50264342D02*
X35809523Y-49454819D01*
X36809523Y-50454819D02*
X36238095Y-50454819D01*
X36523809Y-50454819D02*
X36523809Y-49454819D01*
X36523809Y-49454819D02*
X36428571Y-49597676D01*
X36428571Y-49597676D02*
X36333333Y-49692914D01*
X36333333Y-49692914D02*
X36238095Y-49740533D01*
X30857142Y-54359580D02*
X30809523Y-54407200D01*
X30809523Y-54407200D02*
X30666666Y-54454819D01*
X30666666Y-54454819D02*
X30571428Y-54454819D01*
X30571428Y-54454819D02*
X30428571Y-54407200D01*
X30428571Y-54407200D02*
X30333333Y-54311961D01*
X30333333Y-54311961D02*
X30285714Y-54216723D01*
X30285714Y-54216723D02*
X30238095Y-54026247D01*
X30238095Y-54026247D02*
X30238095Y-53883390D01*
X30238095Y-53883390D02*
X30285714Y-53692914D01*
X30285714Y-53692914D02*
X30333333Y-53597676D01*
X30333333Y-53597676D02*
X30428571Y-53502438D01*
X30428571Y-53502438D02*
X30571428Y-53454819D01*
X30571428Y-53454819D02*
X30666666Y-53454819D01*
X30666666Y-53454819D02*
X30809523Y-53502438D01*
X30809523Y-53502438D02*
X30857142Y-53550057D01*
X31428571Y-53883390D02*
X31333333Y-53835771D01*
X31333333Y-53835771D02*
X31285714Y-53788152D01*
X31285714Y-53788152D02*
X31238095Y-53692914D01*
X31238095Y-53692914D02*
X31238095Y-53645295D01*
X31238095Y-53645295D02*
X31285714Y-53550057D01*
X31285714Y-53550057D02*
X31333333Y-53502438D01*
X31333333Y-53502438D02*
X31428571Y-53454819D01*
X31428571Y-53454819D02*
X31619047Y-53454819D01*
X31619047Y-53454819D02*
X31714285Y-53502438D01*
X31714285Y-53502438D02*
X31761904Y-53550057D01*
X31761904Y-53550057D02*
X31809523Y-53645295D01*
X31809523Y-53645295D02*
X31809523Y-53692914D01*
X31809523Y-53692914D02*
X31761904Y-53788152D01*
X31761904Y-53788152D02*
X31714285Y-53835771D01*
X31714285Y-53835771D02*
X31619047Y-53883390D01*
X31619047Y-53883390D02*
X31428571Y-53883390D01*
X31428571Y-53883390D02*
X31333333Y-53931009D01*
X31333333Y-53931009D02*
X31285714Y-53978628D01*
X31285714Y-53978628D02*
X31238095Y-54073866D01*
X31238095Y-54073866D02*
X31238095Y-54264342D01*
X31238095Y-54264342D02*
X31285714Y-54359580D01*
X31285714Y-54359580D02*
X31333333Y-54407200D01*
X31333333Y-54407200D02*
X31428571Y-54454819D01*
X31428571Y-54454819D02*
X31619047Y-54454819D01*
X31619047Y-54454819D02*
X31714285Y-54407200D01*
X31714285Y-54407200D02*
X31761904Y-54359580D01*
X31761904Y-54359580D02*
X31809523Y-54264342D01*
X31809523Y-54264342D02*
X31809523Y-54073866D01*
X31809523Y-54073866D02*
X31761904Y-53978628D01*
X31761904Y-53978628D02*
X31714285Y-53931009D01*
X31714285Y-53931009D02*
X31619047Y-53883390D01*
X32666666Y-53454819D02*
X32476190Y-53454819D01*
X32476190Y-53454819D02*
X32380952Y-53502438D01*
X32380952Y-53502438D02*
X32333333Y-53550057D01*
X32333333Y-53550057D02*
X32238095Y-53692914D01*
X32238095Y-53692914D02*
X32190476Y-53883390D01*
X32190476Y-53883390D02*
X32190476Y-54264342D01*
X32190476Y-54264342D02*
X32238095Y-54359580D01*
X32238095Y-54359580D02*
X32285714Y-54407200D01*
X32285714Y-54407200D02*
X32380952Y-54454819D01*
X32380952Y-54454819D02*
X32571428Y-54454819D01*
X32571428Y-54454819D02*
X32666666Y-54407200D01*
X32666666Y-54407200D02*
X32714285Y-54359580D01*
X32714285Y-54359580D02*
X32761904Y-54264342D01*
X32761904Y-54264342D02*
X32761904Y-54026247D01*
X32761904Y-54026247D02*
X32714285Y-53931009D01*
X32714285Y-53931009D02*
X32666666Y-53883390D01*
X32666666Y-53883390D02*
X32571428Y-53835771D01*
X32571428Y-53835771D02*
X32380952Y-53835771D01*
X32380952Y-53835771D02*
X32285714Y-53883390D01*
X32285714Y-53883390D02*
X32238095Y-53931009D01*
X32238095Y-53931009D02*
X32190476Y-54026247D01*
X90357142Y-60359580D02*
X90309523Y-60407200D01*
X90309523Y-60407200D02*
X90166666Y-60454819D01*
X90166666Y-60454819D02*
X90071428Y-60454819D01*
X90071428Y-60454819D02*
X89928571Y-60407200D01*
X89928571Y-60407200D02*
X89833333Y-60311961D01*
X89833333Y-60311961D02*
X89785714Y-60216723D01*
X89785714Y-60216723D02*
X89738095Y-60026247D01*
X89738095Y-60026247D02*
X89738095Y-59883390D01*
X89738095Y-59883390D02*
X89785714Y-59692914D01*
X89785714Y-59692914D02*
X89833333Y-59597676D01*
X89833333Y-59597676D02*
X89928571Y-59502438D01*
X89928571Y-59502438D02*
X90071428Y-59454819D01*
X90071428Y-59454819D02*
X90166666Y-59454819D01*
X90166666Y-59454819D02*
X90309523Y-59502438D01*
X90309523Y-59502438D02*
X90357142Y-59550057D01*
X90928571Y-59883390D02*
X90833333Y-59835771D01*
X90833333Y-59835771D02*
X90785714Y-59788152D01*
X90785714Y-59788152D02*
X90738095Y-59692914D01*
X90738095Y-59692914D02*
X90738095Y-59645295D01*
X90738095Y-59645295D02*
X90785714Y-59550057D01*
X90785714Y-59550057D02*
X90833333Y-59502438D01*
X90833333Y-59502438D02*
X90928571Y-59454819D01*
X90928571Y-59454819D02*
X91119047Y-59454819D01*
X91119047Y-59454819D02*
X91214285Y-59502438D01*
X91214285Y-59502438D02*
X91261904Y-59550057D01*
X91261904Y-59550057D02*
X91309523Y-59645295D01*
X91309523Y-59645295D02*
X91309523Y-59692914D01*
X91309523Y-59692914D02*
X91261904Y-59788152D01*
X91261904Y-59788152D02*
X91214285Y-59835771D01*
X91214285Y-59835771D02*
X91119047Y-59883390D01*
X91119047Y-59883390D02*
X90928571Y-59883390D01*
X90928571Y-59883390D02*
X90833333Y-59931009D01*
X90833333Y-59931009D02*
X90785714Y-59978628D01*
X90785714Y-59978628D02*
X90738095Y-60073866D01*
X90738095Y-60073866D02*
X90738095Y-60264342D01*
X90738095Y-60264342D02*
X90785714Y-60359580D01*
X90785714Y-60359580D02*
X90833333Y-60407200D01*
X90833333Y-60407200D02*
X90928571Y-60454819D01*
X90928571Y-60454819D02*
X91119047Y-60454819D01*
X91119047Y-60454819D02*
X91214285Y-60407200D01*
X91214285Y-60407200D02*
X91261904Y-60359580D01*
X91261904Y-60359580D02*
X91309523Y-60264342D01*
X91309523Y-60264342D02*
X91309523Y-60073866D01*
X91309523Y-60073866D02*
X91261904Y-59978628D01*
X91261904Y-59978628D02*
X91214285Y-59931009D01*
X91214285Y-59931009D02*
X91119047Y-59883390D01*
X91642857Y-59454819D02*
X92261904Y-59454819D01*
X92261904Y-59454819D02*
X91928571Y-59835771D01*
X91928571Y-59835771D02*
X92071428Y-59835771D01*
X92071428Y-59835771D02*
X92166666Y-59883390D01*
X92166666Y-59883390D02*
X92214285Y-59931009D01*
X92214285Y-59931009D02*
X92261904Y-60026247D01*
X92261904Y-60026247D02*
X92261904Y-60264342D01*
X92261904Y-60264342D02*
X92214285Y-60359580D01*
X92214285Y-60359580D02*
X92166666Y-60407200D01*
X92166666Y-60407200D02*
X92071428Y-60454819D01*
X92071428Y-60454819D02*
X91785714Y-60454819D01*
X91785714Y-60454819D02*
X91690476Y-60407200D01*
X91690476Y-60407200D02*
X91642857Y-60359580D01*
X28857142Y-39859580D02*
X28809523Y-39907200D01*
X28809523Y-39907200D02*
X28666666Y-39954819D01*
X28666666Y-39954819D02*
X28571428Y-39954819D01*
X28571428Y-39954819D02*
X28428571Y-39907200D01*
X28428571Y-39907200D02*
X28333333Y-39811961D01*
X28333333Y-39811961D02*
X28285714Y-39716723D01*
X28285714Y-39716723D02*
X28238095Y-39526247D01*
X28238095Y-39526247D02*
X28238095Y-39383390D01*
X28238095Y-39383390D02*
X28285714Y-39192914D01*
X28285714Y-39192914D02*
X28333333Y-39097676D01*
X28333333Y-39097676D02*
X28428571Y-39002438D01*
X28428571Y-39002438D02*
X28571428Y-38954819D01*
X28571428Y-38954819D02*
X28666666Y-38954819D01*
X28666666Y-38954819D02*
X28809523Y-39002438D01*
X28809523Y-39002438D02*
X28857142Y-39050057D01*
X29428571Y-39383390D02*
X29333333Y-39335771D01*
X29333333Y-39335771D02*
X29285714Y-39288152D01*
X29285714Y-39288152D02*
X29238095Y-39192914D01*
X29238095Y-39192914D02*
X29238095Y-39145295D01*
X29238095Y-39145295D02*
X29285714Y-39050057D01*
X29285714Y-39050057D02*
X29333333Y-39002438D01*
X29333333Y-39002438D02*
X29428571Y-38954819D01*
X29428571Y-38954819D02*
X29619047Y-38954819D01*
X29619047Y-38954819D02*
X29714285Y-39002438D01*
X29714285Y-39002438D02*
X29761904Y-39050057D01*
X29761904Y-39050057D02*
X29809523Y-39145295D01*
X29809523Y-39145295D02*
X29809523Y-39192914D01*
X29809523Y-39192914D02*
X29761904Y-39288152D01*
X29761904Y-39288152D02*
X29714285Y-39335771D01*
X29714285Y-39335771D02*
X29619047Y-39383390D01*
X29619047Y-39383390D02*
X29428571Y-39383390D01*
X29428571Y-39383390D02*
X29333333Y-39431009D01*
X29333333Y-39431009D02*
X29285714Y-39478628D01*
X29285714Y-39478628D02*
X29238095Y-39573866D01*
X29238095Y-39573866D02*
X29238095Y-39764342D01*
X29238095Y-39764342D02*
X29285714Y-39859580D01*
X29285714Y-39859580D02*
X29333333Y-39907200D01*
X29333333Y-39907200D02*
X29428571Y-39954819D01*
X29428571Y-39954819D02*
X29619047Y-39954819D01*
X29619047Y-39954819D02*
X29714285Y-39907200D01*
X29714285Y-39907200D02*
X29761904Y-39859580D01*
X29761904Y-39859580D02*
X29809523Y-39764342D01*
X29809523Y-39764342D02*
X29809523Y-39573866D01*
X29809523Y-39573866D02*
X29761904Y-39478628D01*
X29761904Y-39478628D02*
X29714285Y-39431009D01*
X29714285Y-39431009D02*
X29619047Y-39383390D01*
X30380952Y-39383390D02*
X30285714Y-39335771D01*
X30285714Y-39335771D02*
X30238095Y-39288152D01*
X30238095Y-39288152D02*
X30190476Y-39192914D01*
X30190476Y-39192914D02*
X30190476Y-39145295D01*
X30190476Y-39145295D02*
X30238095Y-39050057D01*
X30238095Y-39050057D02*
X30285714Y-39002438D01*
X30285714Y-39002438D02*
X30380952Y-38954819D01*
X30380952Y-38954819D02*
X30571428Y-38954819D01*
X30571428Y-38954819D02*
X30666666Y-39002438D01*
X30666666Y-39002438D02*
X30714285Y-39050057D01*
X30714285Y-39050057D02*
X30761904Y-39145295D01*
X30761904Y-39145295D02*
X30761904Y-39192914D01*
X30761904Y-39192914D02*
X30714285Y-39288152D01*
X30714285Y-39288152D02*
X30666666Y-39335771D01*
X30666666Y-39335771D02*
X30571428Y-39383390D01*
X30571428Y-39383390D02*
X30380952Y-39383390D01*
X30380952Y-39383390D02*
X30285714Y-39431009D01*
X30285714Y-39431009D02*
X30238095Y-39478628D01*
X30238095Y-39478628D02*
X30190476Y-39573866D01*
X30190476Y-39573866D02*
X30190476Y-39764342D01*
X30190476Y-39764342D02*
X30238095Y-39859580D01*
X30238095Y-39859580D02*
X30285714Y-39907200D01*
X30285714Y-39907200D02*
X30380952Y-39954819D01*
X30380952Y-39954819D02*
X30571428Y-39954819D01*
X30571428Y-39954819D02*
X30666666Y-39907200D01*
X30666666Y-39907200D02*
X30714285Y-39859580D01*
X30714285Y-39859580D02*
X30761904Y-39764342D01*
X30761904Y-39764342D02*
X30761904Y-39573866D01*
X30761904Y-39573866D02*
X30714285Y-39478628D01*
X30714285Y-39478628D02*
X30666666Y-39431009D01*
X30666666Y-39431009D02*
X30571428Y-39383390D01*
X90357142Y-41359580D02*
X90309523Y-41407200D01*
X90309523Y-41407200D02*
X90166666Y-41454819D01*
X90166666Y-41454819D02*
X90071428Y-41454819D01*
X90071428Y-41454819D02*
X89928571Y-41407200D01*
X89928571Y-41407200D02*
X89833333Y-41311961D01*
X89833333Y-41311961D02*
X89785714Y-41216723D01*
X89785714Y-41216723D02*
X89738095Y-41026247D01*
X89738095Y-41026247D02*
X89738095Y-40883390D01*
X89738095Y-40883390D02*
X89785714Y-40692914D01*
X89785714Y-40692914D02*
X89833333Y-40597676D01*
X89833333Y-40597676D02*
X89928571Y-40502438D01*
X89928571Y-40502438D02*
X90071428Y-40454819D01*
X90071428Y-40454819D02*
X90166666Y-40454819D01*
X90166666Y-40454819D02*
X90309523Y-40502438D01*
X90309523Y-40502438D02*
X90357142Y-40550057D01*
X90690476Y-40454819D02*
X91357142Y-40454819D01*
X91357142Y-40454819D02*
X90928571Y-41454819D01*
X91642857Y-40454819D02*
X92309523Y-40454819D01*
X92309523Y-40454819D02*
X91880952Y-41454819D01*
X32238095Y-34454819D02*
X32238095Y-35264342D01*
X32238095Y-35264342D02*
X32285714Y-35359580D01*
X32285714Y-35359580D02*
X32333333Y-35407200D01*
X32333333Y-35407200D02*
X32428571Y-35454819D01*
X32428571Y-35454819D02*
X32619047Y-35454819D01*
X32619047Y-35454819D02*
X32714285Y-35407200D01*
X32714285Y-35407200D02*
X32761904Y-35359580D01*
X32761904Y-35359580D02*
X32809523Y-35264342D01*
X32809523Y-35264342D02*
X32809523Y-34454819D01*
X33238095Y-34550057D02*
X33285714Y-34502438D01*
X33285714Y-34502438D02*
X33380952Y-34454819D01*
X33380952Y-34454819D02*
X33619047Y-34454819D01*
X33619047Y-34454819D02*
X33714285Y-34502438D01*
X33714285Y-34502438D02*
X33761904Y-34550057D01*
X33761904Y-34550057D02*
X33809523Y-34645295D01*
X33809523Y-34645295D02*
X33809523Y-34740533D01*
X33809523Y-34740533D02*
X33761904Y-34883390D01*
X33761904Y-34883390D02*
X33190476Y-35454819D01*
X33190476Y-35454819D02*
X33809523Y-35454819D01*
X23690476Y-34774819D02*
X23690476Y-35489104D01*
X23690476Y-35489104D02*
X23642857Y-35631961D01*
X23642857Y-35631961D02*
X23547619Y-35727200D01*
X23547619Y-35727200D02*
X23404762Y-35774819D01*
X23404762Y-35774819D02*
X23309524Y-35774819D01*
X24690476Y-35774819D02*
X24119048Y-35774819D01*
X24404762Y-35774819D02*
X24404762Y-34774819D01*
X24404762Y-34774819D02*
X24309524Y-34917676D01*
X24309524Y-34917676D02*
X24214286Y-35012914D01*
X24214286Y-35012914D02*
X24119048Y-35060533D01*
X25071429Y-34870057D02*
X25119048Y-34822438D01*
X25119048Y-34822438D02*
X25214286Y-34774819D01*
X25214286Y-34774819D02*
X25452381Y-34774819D01*
X25452381Y-34774819D02*
X25547619Y-34822438D01*
X25547619Y-34822438D02*
X25595238Y-34870057D01*
X25595238Y-34870057D02*
X25642857Y-34965295D01*
X25642857Y-34965295D02*
X25642857Y-35060533D01*
X25642857Y-35060533D02*
X25595238Y-35203390D01*
X25595238Y-35203390D02*
X25023810Y-35774819D01*
X25023810Y-35774819D02*
X25642857Y-35774819D01*
X24166666Y-39114819D02*
X24166666Y-39829104D01*
X24166666Y-39829104D02*
X24119047Y-39971961D01*
X24119047Y-39971961D02*
X24023809Y-40067200D01*
X24023809Y-40067200D02*
X23880952Y-40114819D01*
X23880952Y-40114819D02*
X23785714Y-40114819D01*
X25071428Y-39114819D02*
X24880952Y-39114819D01*
X24880952Y-39114819D02*
X24785714Y-39162438D01*
X24785714Y-39162438D02*
X24738095Y-39210057D01*
X24738095Y-39210057D02*
X24642857Y-39352914D01*
X24642857Y-39352914D02*
X24595238Y-39543390D01*
X24595238Y-39543390D02*
X24595238Y-39924342D01*
X24595238Y-39924342D02*
X24642857Y-40019580D01*
X24642857Y-40019580D02*
X24690476Y-40067200D01*
X24690476Y-40067200D02*
X24785714Y-40114819D01*
X24785714Y-40114819D02*
X24976190Y-40114819D01*
X24976190Y-40114819D02*
X25071428Y-40067200D01*
X25071428Y-40067200D02*
X25119047Y-40019580D01*
X25119047Y-40019580D02*
X25166666Y-39924342D01*
X25166666Y-39924342D02*
X25166666Y-39686247D01*
X25166666Y-39686247D02*
X25119047Y-39591009D01*
X25119047Y-39591009D02*
X25071428Y-39543390D01*
X25071428Y-39543390D02*
X24976190Y-39495771D01*
X24976190Y-39495771D02*
X24785714Y-39495771D01*
X24785714Y-39495771D02*
X24690476Y-39543390D01*
X24690476Y-39543390D02*
X24642857Y-39591009D01*
X24642857Y-39591009D02*
X24595238Y-39686247D01*
X43357142Y-33359580D02*
X43309523Y-33407200D01*
X43309523Y-33407200D02*
X43166666Y-33454819D01*
X43166666Y-33454819D02*
X43071428Y-33454819D01*
X43071428Y-33454819D02*
X42928571Y-33407200D01*
X42928571Y-33407200D02*
X42833333Y-33311961D01*
X42833333Y-33311961D02*
X42785714Y-33216723D01*
X42785714Y-33216723D02*
X42738095Y-33026247D01*
X42738095Y-33026247D02*
X42738095Y-32883390D01*
X42738095Y-32883390D02*
X42785714Y-32692914D01*
X42785714Y-32692914D02*
X42833333Y-32597676D01*
X42833333Y-32597676D02*
X42928571Y-32502438D01*
X42928571Y-32502438D02*
X43071428Y-32454819D01*
X43071428Y-32454819D02*
X43166666Y-32454819D01*
X43166666Y-32454819D02*
X43309523Y-32502438D01*
X43309523Y-32502438D02*
X43357142Y-32550057D01*
X43928571Y-32883390D02*
X43833333Y-32835771D01*
X43833333Y-32835771D02*
X43785714Y-32788152D01*
X43785714Y-32788152D02*
X43738095Y-32692914D01*
X43738095Y-32692914D02*
X43738095Y-32645295D01*
X43738095Y-32645295D02*
X43785714Y-32550057D01*
X43785714Y-32550057D02*
X43833333Y-32502438D01*
X43833333Y-32502438D02*
X43928571Y-32454819D01*
X43928571Y-32454819D02*
X44119047Y-32454819D01*
X44119047Y-32454819D02*
X44214285Y-32502438D01*
X44214285Y-32502438D02*
X44261904Y-32550057D01*
X44261904Y-32550057D02*
X44309523Y-32645295D01*
X44309523Y-32645295D02*
X44309523Y-32692914D01*
X44309523Y-32692914D02*
X44261904Y-32788152D01*
X44261904Y-32788152D02*
X44214285Y-32835771D01*
X44214285Y-32835771D02*
X44119047Y-32883390D01*
X44119047Y-32883390D02*
X43928571Y-32883390D01*
X43928571Y-32883390D02*
X43833333Y-32931009D01*
X43833333Y-32931009D02*
X43785714Y-32978628D01*
X43785714Y-32978628D02*
X43738095Y-33073866D01*
X43738095Y-33073866D02*
X43738095Y-33264342D01*
X43738095Y-33264342D02*
X43785714Y-33359580D01*
X43785714Y-33359580D02*
X43833333Y-33407200D01*
X43833333Y-33407200D02*
X43928571Y-33454819D01*
X43928571Y-33454819D02*
X44119047Y-33454819D01*
X44119047Y-33454819D02*
X44214285Y-33407200D01*
X44214285Y-33407200D02*
X44261904Y-33359580D01*
X44261904Y-33359580D02*
X44309523Y-33264342D01*
X44309523Y-33264342D02*
X44309523Y-33073866D01*
X44309523Y-33073866D02*
X44261904Y-32978628D01*
X44261904Y-32978628D02*
X44214285Y-32931009D01*
X44214285Y-32931009D02*
X44119047Y-32883390D01*
X44642857Y-32454819D02*
X45309523Y-32454819D01*
X45309523Y-32454819D02*
X44880952Y-33454819D01*
X90357142Y-39359580D02*
X90309523Y-39407200D01*
X90309523Y-39407200D02*
X90166666Y-39454819D01*
X90166666Y-39454819D02*
X90071428Y-39454819D01*
X90071428Y-39454819D02*
X89928571Y-39407200D01*
X89928571Y-39407200D02*
X89833333Y-39311961D01*
X89833333Y-39311961D02*
X89785714Y-39216723D01*
X89785714Y-39216723D02*
X89738095Y-39026247D01*
X89738095Y-39026247D02*
X89738095Y-38883390D01*
X89738095Y-38883390D02*
X89785714Y-38692914D01*
X89785714Y-38692914D02*
X89833333Y-38597676D01*
X89833333Y-38597676D02*
X89928571Y-38502438D01*
X89928571Y-38502438D02*
X90071428Y-38454819D01*
X90071428Y-38454819D02*
X90166666Y-38454819D01*
X90166666Y-38454819D02*
X90309523Y-38502438D01*
X90309523Y-38502438D02*
X90357142Y-38550057D01*
X90690476Y-38454819D02*
X91357142Y-38454819D01*
X91357142Y-38454819D02*
X90928571Y-39454819D01*
X92214285Y-38454819D02*
X91738095Y-38454819D01*
X91738095Y-38454819D02*
X91690476Y-38931009D01*
X91690476Y-38931009D02*
X91738095Y-38883390D01*
X91738095Y-38883390D02*
X91833333Y-38835771D01*
X91833333Y-38835771D02*
X92071428Y-38835771D01*
X92071428Y-38835771D02*
X92166666Y-38883390D01*
X92166666Y-38883390D02*
X92214285Y-38931009D01*
X92214285Y-38931009D02*
X92261904Y-39026247D01*
X92261904Y-39026247D02*
X92261904Y-39264342D01*
X92261904Y-39264342D02*
X92214285Y-39359580D01*
X92214285Y-39359580D02*
X92166666Y-39407200D01*
X92166666Y-39407200D02*
X92071428Y-39454819D01*
X92071428Y-39454819D02*
X91833333Y-39454819D01*
X91833333Y-39454819D02*
X91738095Y-39407200D01*
X91738095Y-39407200D02*
X91690476Y-39359580D01*
X54857142Y-66954819D02*
X54523809Y-66478628D01*
X54285714Y-66954819D02*
X54285714Y-65954819D01*
X54285714Y-65954819D02*
X54666666Y-65954819D01*
X54666666Y-65954819D02*
X54761904Y-66002438D01*
X54761904Y-66002438D02*
X54809523Y-66050057D01*
X54809523Y-66050057D02*
X54857142Y-66145295D01*
X54857142Y-66145295D02*
X54857142Y-66288152D01*
X54857142Y-66288152D02*
X54809523Y-66383390D01*
X54809523Y-66383390D02*
X54761904Y-66431009D01*
X54761904Y-66431009D02*
X54666666Y-66478628D01*
X54666666Y-66478628D02*
X54285714Y-66478628D01*
X55190476Y-65954819D02*
X55809523Y-65954819D01*
X55809523Y-65954819D02*
X55476190Y-66335771D01*
X55476190Y-66335771D02*
X55619047Y-66335771D01*
X55619047Y-66335771D02*
X55714285Y-66383390D01*
X55714285Y-66383390D02*
X55761904Y-66431009D01*
X55761904Y-66431009D02*
X55809523Y-66526247D01*
X55809523Y-66526247D02*
X55809523Y-66764342D01*
X55809523Y-66764342D02*
X55761904Y-66859580D01*
X55761904Y-66859580D02*
X55714285Y-66907200D01*
X55714285Y-66907200D02*
X55619047Y-66954819D01*
X55619047Y-66954819D02*
X55333333Y-66954819D01*
X55333333Y-66954819D02*
X55238095Y-66907200D01*
X55238095Y-66907200D02*
X55190476Y-66859580D01*
X56142857Y-65954819D02*
X56761904Y-65954819D01*
X56761904Y-65954819D02*
X56428571Y-66335771D01*
X56428571Y-66335771D02*
X56571428Y-66335771D01*
X56571428Y-66335771D02*
X56666666Y-66383390D01*
X56666666Y-66383390D02*
X56714285Y-66431009D01*
X56714285Y-66431009D02*
X56761904Y-66526247D01*
X56761904Y-66526247D02*
X56761904Y-66764342D01*
X56761904Y-66764342D02*
X56714285Y-66859580D01*
X56714285Y-66859580D02*
X56666666Y-66907200D01*
X56666666Y-66907200D02*
X56571428Y-66954819D01*
X56571428Y-66954819D02*
X56285714Y-66954819D01*
X56285714Y-66954819D02*
X56190476Y-66907200D01*
X56190476Y-66907200D02*
X56142857Y-66859580D01*
X29357142Y-51359580D02*
X29309523Y-51407200D01*
X29309523Y-51407200D02*
X29166666Y-51454819D01*
X29166666Y-51454819D02*
X29071428Y-51454819D01*
X29071428Y-51454819D02*
X28928571Y-51407200D01*
X28928571Y-51407200D02*
X28833333Y-51311961D01*
X28833333Y-51311961D02*
X28785714Y-51216723D01*
X28785714Y-51216723D02*
X28738095Y-51026247D01*
X28738095Y-51026247D02*
X28738095Y-50883390D01*
X28738095Y-50883390D02*
X28785714Y-50692914D01*
X28785714Y-50692914D02*
X28833333Y-50597676D01*
X28833333Y-50597676D02*
X28928571Y-50502438D01*
X28928571Y-50502438D02*
X29071428Y-50454819D01*
X29071428Y-50454819D02*
X29166666Y-50454819D01*
X29166666Y-50454819D02*
X29309523Y-50502438D01*
X29309523Y-50502438D02*
X29357142Y-50550057D01*
X29833333Y-51454819D02*
X30023809Y-51454819D01*
X30023809Y-51454819D02*
X30119047Y-51407200D01*
X30119047Y-51407200D02*
X30166666Y-51359580D01*
X30166666Y-51359580D02*
X30261904Y-51216723D01*
X30261904Y-51216723D02*
X30309523Y-51026247D01*
X30309523Y-51026247D02*
X30309523Y-50645295D01*
X30309523Y-50645295D02*
X30261904Y-50550057D01*
X30261904Y-50550057D02*
X30214285Y-50502438D01*
X30214285Y-50502438D02*
X30119047Y-50454819D01*
X30119047Y-50454819D02*
X29928571Y-50454819D01*
X29928571Y-50454819D02*
X29833333Y-50502438D01*
X29833333Y-50502438D02*
X29785714Y-50550057D01*
X29785714Y-50550057D02*
X29738095Y-50645295D01*
X29738095Y-50645295D02*
X29738095Y-50883390D01*
X29738095Y-50883390D02*
X29785714Y-50978628D01*
X29785714Y-50978628D02*
X29833333Y-51026247D01*
X29833333Y-51026247D02*
X29928571Y-51073866D01*
X29928571Y-51073866D02*
X30119047Y-51073866D01*
X30119047Y-51073866D02*
X30214285Y-51026247D01*
X30214285Y-51026247D02*
X30261904Y-50978628D01*
X30261904Y-50978628D02*
X30309523Y-50883390D01*
X30928571Y-50454819D02*
X31023809Y-50454819D01*
X31023809Y-50454819D02*
X31119047Y-50502438D01*
X31119047Y-50502438D02*
X31166666Y-50550057D01*
X31166666Y-50550057D02*
X31214285Y-50645295D01*
X31214285Y-50645295D02*
X31261904Y-50835771D01*
X31261904Y-50835771D02*
X31261904Y-51073866D01*
X31261904Y-51073866D02*
X31214285Y-51264342D01*
X31214285Y-51264342D02*
X31166666Y-51359580D01*
X31166666Y-51359580D02*
X31119047Y-51407200D01*
X31119047Y-51407200D02*
X31023809Y-51454819D01*
X31023809Y-51454819D02*
X30928571Y-51454819D01*
X30928571Y-51454819D02*
X30833333Y-51407200D01*
X30833333Y-51407200D02*
X30785714Y-51359580D01*
X30785714Y-51359580D02*
X30738095Y-51264342D01*
X30738095Y-51264342D02*
X30690476Y-51073866D01*
X30690476Y-51073866D02*
X30690476Y-50835771D01*
X30690476Y-50835771D02*
X30738095Y-50645295D01*
X30738095Y-50645295D02*
X30785714Y-50550057D01*
X30785714Y-50550057D02*
X30833333Y-50502438D01*
X30833333Y-50502438D02*
X30928571Y-50454819D01*
X54857142Y-65954819D02*
X54523809Y-65478628D01*
X54285714Y-65954819D02*
X54285714Y-64954819D01*
X54285714Y-64954819D02*
X54666666Y-64954819D01*
X54666666Y-64954819D02*
X54761904Y-65002438D01*
X54761904Y-65002438D02*
X54809523Y-65050057D01*
X54809523Y-65050057D02*
X54857142Y-65145295D01*
X54857142Y-65145295D02*
X54857142Y-65288152D01*
X54857142Y-65288152D02*
X54809523Y-65383390D01*
X54809523Y-65383390D02*
X54761904Y-65431009D01*
X54761904Y-65431009D02*
X54666666Y-65478628D01*
X54666666Y-65478628D02*
X54285714Y-65478628D01*
X55190476Y-64954819D02*
X55809523Y-64954819D01*
X55809523Y-64954819D02*
X55476190Y-65335771D01*
X55476190Y-65335771D02*
X55619047Y-65335771D01*
X55619047Y-65335771D02*
X55714285Y-65383390D01*
X55714285Y-65383390D02*
X55761904Y-65431009D01*
X55761904Y-65431009D02*
X55809523Y-65526247D01*
X55809523Y-65526247D02*
X55809523Y-65764342D01*
X55809523Y-65764342D02*
X55761904Y-65859580D01*
X55761904Y-65859580D02*
X55714285Y-65907200D01*
X55714285Y-65907200D02*
X55619047Y-65954819D01*
X55619047Y-65954819D02*
X55333333Y-65954819D01*
X55333333Y-65954819D02*
X55238095Y-65907200D01*
X55238095Y-65907200D02*
X55190476Y-65859580D01*
X56190476Y-65050057D02*
X56238095Y-65002438D01*
X56238095Y-65002438D02*
X56333333Y-64954819D01*
X56333333Y-64954819D02*
X56571428Y-64954819D01*
X56571428Y-64954819D02*
X56666666Y-65002438D01*
X56666666Y-65002438D02*
X56714285Y-65050057D01*
X56714285Y-65050057D02*
X56761904Y-65145295D01*
X56761904Y-65145295D02*
X56761904Y-65240533D01*
X56761904Y-65240533D02*
X56714285Y-65383390D01*
X56714285Y-65383390D02*
X56142857Y-65954819D01*
X56142857Y-65954819D02*
X56761904Y-65954819D01*
X44857142Y-64954819D02*
X44523809Y-64478628D01*
X44285714Y-64954819D02*
X44285714Y-63954819D01*
X44285714Y-63954819D02*
X44666666Y-63954819D01*
X44666666Y-63954819D02*
X44761904Y-64002438D01*
X44761904Y-64002438D02*
X44809523Y-64050057D01*
X44809523Y-64050057D02*
X44857142Y-64145295D01*
X44857142Y-64145295D02*
X44857142Y-64288152D01*
X44857142Y-64288152D02*
X44809523Y-64383390D01*
X44809523Y-64383390D02*
X44761904Y-64431009D01*
X44761904Y-64431009D02*
X44666666Y-64478628D01*
X44666666Y-64478628D02*
X44285714Y-64478628D01*
X45238095Y-64050057D02*
X45285714Y-64002438D01*
X45285714Y-64002438D02*
X45380952Y-63954819D01*
X45380952Y-63954819D02*
X45619047Y-63954819D01*
X45619047Y-63954819D02*
X45714285Y-64002438D01*
X45714285Y-64002438D02*
X45761904Y-64050057D01*
X45761904Y-64050057D02*
X45809523Y-64145295D01*
X45809523Y-64145295D02*
X45809523Y-64240533D01*
X45809523Y-64240533D02*
X45761904Y-64383390D01*
X45761904Y-64383390D02*
X45190476Y-64954819D01*
X45190476Y-64954819D02*
X45809523Y-64954819D01*
X46761904Y-64954819D02*
X46190476Y-64954819D01*
X46476190Y-64954819D02*
X46476190Y-63954819D01*
X46476190Y-63954819D02*
X46380952Y-64097676D01*
X46380952Y-64097676D02*
X46285714Y-64192914D01*
X46285714Y-64192914D02*
X46190476Y-64240533D01*
X90357142Y-38359580D02*
X90309523Y-38407200D01*
X90309523Y-38407200D02*
X90166666Y-38454819D01*
X90166666Y-38454819D02*
X90071428Y-38454819D01*
X90071428Y-38454819D02*
X89928571Y-38407200D01*
X89928571Y-38407200D02*
X89833333Y-38311961D01*
X89833333Y-38311961D02*
X89785714Y-38216723D01*
X89785714Y-38216723D02*
X89738095Y-38026247D01*
X89738095Y-38026247D02*
X89738095Y-37883390D01*
X89738095Y-37883390D02*
X89785714Y-37692914D01*
X89785714Y-37692914D02*
X89833333Y-37597676D01*
X89833333Y-37597676D02*
X89928571Y-37502438D01*
X89928571Y-37502438D02*
X90071428Y-37454819D01*
X90071428Y-37454819D02*
X90166666Y-37454819D01*
X90166666Y-37454819D02*
X90309523Y-37502438D01*
X90309523Y-37502438D02*
X90357142Y-37550057D01*
X90690476Y-37454819D02*
X91357142Y-37454819D01*
X91357142Y-37454819D02*
X90928571Y-38454819D01*
X92166666Y-37788152D02*
X92166666Y-38454819D01*
X91928571Y-37407200D02*
X91690476Y-38121485D01*
X91690476Y-38121485D02*
X92309523Y-38121485D01*
X47761905Y-64954819D02*
X47761905Y-63954819D01*
X47761905Y-63954819D02*
X48000000Y-63954819D01*
X48000000Y-63954819D02*
X48142857Y-64002438D01*
X48142857Y-64002438D02*
X48238095Y-64097676D01*
X48238095Y-64097676D02*
X48285714Y-64192914D01*
X48285714Y-64192914D02*
X48333333Y-64383390D01*
X48333333Y-64383390D02*
X48333333Y-64526247D01*
X48333333Y-64526247D02*
X48285714Y-64716723D01*
X48285714Y-64716723D02*
X48238095Y-64811961D01*
X48238095Y-64811961D02*
X48142857Y-64907200D01*
X48142857Y-64907200D02*
X48000000Y-64954819D01*
X48000000Y-64954819D02*
X47761905Y-64954819D01*
X49285714Y-64954819D02*
X48714286Y-64954819D01*
X49000000Y-64954819D02*
X49000000Y-63954819D01*
X49000000Y-63954819D02*
X48904762Y-64097676D01*
X48904762Y-64097676D02*
X48809524Y-64192914D01*
X48809524Y-64192914D02*
X48714286Y-64240533D01*
X43357142Y-38359580D02*
X43309523Y-38407200D01*
X43309523Y-38407200D02*
X43166666Y-38454819D01*
X43166666Y-38454819D02*
X43071428Y-38454819D01*
X43071428Y-38454819D02*
X42928571Y-38407200D01*
X42928571Y-38407200D02*
X42833333Y-38311961D01*
X42833333Y-38311961D02*
X42785714Y-38216723D01*
X42785714Y-38216723D02*
X42738095Y-38026247D01*
X42738095Y-38026247D02*
X42738095Y-37883390D01*
X42738095Y-37883390D02*
X42785714Y-37692914D01*
X42785714Y-37692914D02*
X42833333Y-37597676D01*
X42833333Y-37597676D02*
X42928571Y-37502438D01*
X42928571Y-37502438D02*
X43071428Y-37454819D01*
X43071428Y-37454819D02*
X43166666Y-37454819D01*
X43166666Y-37454819D02*
X43309523Y-37502438D01*
X43309523Y-37502438D02*
X43357142Y-37550057D01*
X43928571Y-37883390D02*
X43833333Y-37835771D01*
X43833333Y-37835771D02*
X43785714Y-37788152D01*
X43785714Y-37788152D02*
X43738095Y-37692914D01*
X43738095Y-37692914D02*
X43738095Y-37645295D01*
X43738095Y-37645295D02*
X43785714Y-37550057D01*
X43785714Y-37550057D02*
X43833333Y-37502438D01*
X43833333Y-37502438D02*
X43928571Y-37454819D01*
X43928571Y-37454819D02*
X44119047Y-37454819D01*
X44119047Y-37454819D02*
X44214285Y-37502438D01*
X44214285Y-37502438D02*
X44261904Y-37550057D01*
X44261904Y-37550057D02*
X44309523Y-37645295D01*
X44309523Y-37645295D02*
X44309523Y-37692914D01*
X44309523Y-37692914D02*
X44261904Y-37788152D01*
X44261904Y-37788152D02*
X44214285Y-37835771D01*
X44214285Y-37835771D02*
X44119047Y-37883390D01*
X44119047Y-37883390D02*
X43928571Y-37883390D01*
X43928571Y-37883390D02*
X43833333Y-37931009D01*
X43833333Y-37931009D02*
X43785714Y-37978628D01*
X43785714Y-37978628D02*
X43738095Y-38073866D01*
X43738095Y-38073866D02*
X43738095Y-38264342D01*
X43738095Y-38264342D02*
X43785714Y-38359580D01*
X43785714Y-38359580D02*
X43833333Y-38407200D01*
X43833333Y-38407200D02*
X43928571Y-38454819D01*
X43928571Y-38454819D02*
X44119047Y-38454819D01*
X44119047Y-38454819D02*
X44214285Y-38407200D01*
X44214285Y-38407200D02*
X44261904Y-38359580D01*
X44261904Y-38359580D02*
X44309523Y-38264342D01*
X44309523Y-38264342D02*
X44309523Y-38073866D01*
X44309523Y-38073866D02*
X44261904Y-37978628D01*
X44261904Y-37978628D02*
X44214285Y-37931009D01*
X44214285Y-37931009D02*
X44119047Y-37883390D01*
X45166666Y-37788152D02*
X45166666Y-38454819D01*
X44928571Y-37407200D02*
X44690476Y-38121485D01*
X44690476Y-38121485D02*
X45309523Y-38121485D01*
X54857142Y-67954819D02*
X54523809Y-67478628D01*
X54285714Y-67954819D02*
X54285714Y-66954819D01*
X54285714Y-66954819D02*
X54666666Y-66954819D01*
X54666666Y-66954819D02*
X54761904Y-67002438D01*
X54761904Y-67002438D02*
X54809523Y-67050057D01*
X54809523Y-67050057D02*
X54857142Y-67145295D01*
X54857142Y-67145295D02*
X54857142Y-67288152D01*
X54857142Y-67288152D02*
X54809523Y-67383390D01*
X54809523Y-67383390D02*
X54761904Y-67431009D01*
X54761904Y-67431009D02*
X54666666Y-67478628D01*
X54666666Y-67478628D02*
X54285714Y-67478628D01*
X55190476Y-66954819D02*
X55809523Y-66954819D01*
X55809523Y-66954819D02*
X55476190Y-67335771D01*
X55476190Y-67335771D02*
X55619047Y-67335771D01*
X55619047Y-67335771D02*
X55714285Y-67383390D01*
X55714285Y-67383390D02*
X55761904Y-67431009D01*
X55761904Y-67431009D02*
X55809523Y-67526247D01*
X55809523Y-67526247D02*
X55809523Y-67764342D01*
X55809523Y-67764342D02*
X55761904Y-67859580D01*
X55761904Y-67859580D02*
X55714285Y-67907200D01*
X55714285Y-67907200D02*
X55619047Y-67954819D01*
X55619047Y-67954819D02*
X55333333Y-67954819D01*
X55333333Y-67954819D02*
X55238095Y-67907200D01*
X55238095Y-67907200D02*
X55190476Y-67859580D01*
X56666666Y-67288152D02*
X56666666Y-67954819D01*
X56428571Y-66907200D02*
X56190476Y-67621485D01*
X56190476Y-67621485D02*
X56809523Y-67621485D01*
X23690476Y-64834819D02*
X23690476Y-65549104D01*
X23690476Y-65549104D02*
X23642857Y-65691961D01*
X23642857Y-65691961D02*
X23547619Y-65787200D01*
X23547619Y-65787200D02*
X23404762Y-65834819D01*
X23404762Y-65834819D02*
X23309524Y-65834819D01*
X24690476Y-65834819D02*
X24119048Y-65834819D01*
X24404762Y-65834819D02*
X24404762Y-64834819D01*
X24404762Y-64834819D02*
X24309524Y-64977676D01*
X24309524Y-64977676D02*
X24214286Y-65072914D01*
X24214286Y-65072914D02*
X24119048Y-65120533D01*
X25642857Y-65834819D02*
X25071429Y-65834819D01*
X25357143Y-65834819D02*
X25357143Y-64834819D01*
X25357143Y-64834819D02*
X25261905Y-64977676D01*
X25261905Y-64977676D02*
X25166667Y-65072914D01*
X25166667Y-65072914D02*
X25071429Y-65120533D01*
X133491666Y-51154819D02*
X133491666Y-51869104D01*
X133491666Y-51869104D02*
X133444047Y-52011961D01*
X133444047Y-52011961D02*
X133348809Y-52107200D01*
X133348809Y-52107200D02*
X133205952Y-52154819D01*
X133205952Y-52154819D02*
X133110714Y-52154819D01*
X133920238Y-51250057D02*
X133967857Y-51202438D01*
X133967857Y-51202438D02*
X134063095Y-51154819D01*
X134063095Y-51154819D02*
X134301190Y-51154819D01*
X134301190Y-51154819D02*
X134396428Y-51202438D01*
X134396428Y-51202438D02*
X134444047Y-51250057D01*
X134444047Y-51250057D02*
X134491666Y-51345295D01*
X134491666Y-51345295D02*
X134491666Y-51440533D01*
X134491666Y-51440533D02*
X134444047Y-51583390D01*
X134444047Y-51583390D02*
X133872619Y-52154819D01*
X133872619Y-52154819D02*
X134491666Y-52154819D01*
X49857142Y-39454819D02*
X49523809Y-38978628D01*
X49285714Y-39454819D02*
X49285714Y-38454819D01*
X49285714Y-38454819D02*
X49666666Y-38454819D01*
X49666666Y-38454819D02*
X49761904Y-38502438D01*
X49761904Y-38502438D02*
X49809523Y-38550057D01*
X49809523Y-38550057D02*
X49857142Y-38645295D01*
X49857142Y-38645295D02*
X49857142Y-38788152D01*
X49857142Y-38788152D02*
X49809523Y-38883390D01*
X49809523Y-38883390D02*
X49761904Y-38931009D01*
X49761904Y-38931009D02*
X49666666Y-38978628D01*
X49666666Y-38978628D02*
X49285714Y-38978628D01*
X50238095Y-38550057D02*
X50285714Y-38502438D01*
X50285714Y-38502438D02*
X50380952Y-38454819D01*
X50380952Y-38454819D02*
X50619047Y-38454819D01*
X50619047Y-38454819D02*
X50714285Y-38502438D01*
X50714285Y-38502438D02*
X50761904Y-38550057D01*
X50761904Y-38550057D02*
X50809523Y-38645295D01*
X50809523Y-38645295D02*
X50809523Y-38740533D01*
X50809523Y-38740533D02*
X50761904Y-38883390D01*
X50761904Y-38883390D02*
X50190476Y-39454819D01*
X50190476Y-39454819D02*
X50809523Y-39454819D01*
X51380952Y-38883390D02*
X51285714Y-38835771D01*
X51285714Y-38835771D02*
X51238095Y-38788152D01*
X51238095Y-38788152D02*
X51190476Y-38692914D01*
X51190476Y-38692914D02*
X51190476Y-38645295D01*
X51190476Y-38645295D02*
X51238095Y-38550057D01*
X51238095Y-38550057D02*
X51285714Y-38502438D01*
X51285714Y-38502438D02*
X51380952Y-38454819D01*
X51380952Y-38454819D02*
X51571428Y-38454819D01*
X51571428Y-38454819D02*
X51666666Y-38502438D01*
X51666666Y-38502438D02*
X51714285Y-38550057D01*
X51714285Y-38550057D02*
X51761904Y-38645295D01*
X51761904Y-38645295D02*
X51761904Y-38692914D01*
X51761904Y-38692914D02*
X51714285Y-38788152D01*
X51714285Y-38788152D02*
X51666666Y-38835771D01*
X51666666Y-38835771D02*
X51571428Y-38883390D01*
X51571428Y-38883390D02*
X51380952Y-38883390D01*
X51380952Y-38883390D02*
X51285714Y-38931009D01*
X51285714Y-38931009D02*
X51238095Y-38978628D01*
X51238095Y-38978628D02*
X51190476Y-39073866D01*
X51190476Y-39073866D02*
X51190476Y-39264342D01*
X51190476Y-39264342D02*
X51238095Y-39359580D01*
X51238095Y-39359580D02*
X51285714Y-39407200D01*
X51285714Y-39407200D02*
X51380952Y-39454819D01*
X51380952Y-39454819D02*
X51571428Y-39454819D01*
X51571428Y-39454819D02*
X51666666Y-39407200D01*
X51666666Y-39407200D02*
X51714285Y-39359580D01*
X51714285Y-39359580D02*
X51761904Y-39264342D01*
X51761904Y-39264342D02*
X51761904Y-39073866D01*
X51761904Y-39073866D02*
X51714285Y-38978628D01*
X51714285Y-38978628D02*
X51666666Y-38931009D01*
X51666666Y-38931009D02*
X51571428Y-38883390D01*
X59166666Y-45954819D02*
X59166666Y-46669104D01*
X59166666Y-46669104D02*
X59119047Y-46811961D01*
X59119047Y-46811961D02*
X59023809Y-46907200D01*
X59023809Y-46907200D02*
X58880952Y-46954819D01*
X58880952Y-46954819D02*
X58785714Y-46954819D01*
X59547619Y-45954819D02*
X60166666Y-45954819D01*
X60166666Y-45954819D02*
X59833333Y-46335771D01*
X59833333Y-46335771D02*
X59976190Y-46335771D01*
X59976190Y-46335771D02*
X60071428Y-46383390D01*
X60071428Y-46383390D02*
X60119047Y-46431009D01*
X60119047Y-46431009D02*
X60166666Y-46526247D01*
X60166666Y-46526247D02*
X60166666Y-46764342D01*
X60166666Y-46764342D02*
X60119047Y-46859580D01*
X60119047Y-46859580D02*
X60071428Y-46907200D01*
X60071428Y-46907200D02*
X59976190Y-46954819D01*
X59976190Y-46954819D02*
X59690476Y-46954819D01*
X59690476Y-46954819D02*
X59595238Y-46907200D01*
X59595238Y-46907200D02*
X59547619Y-46859580D01*
X59166666Y-60154819D02*
X59166666Y-60869104D01*
X59166666Y-60869104D02*
X59119047Y-61011961D01*
X59119047Y-61011961D02*
X59023809Y-61107200D01*
X59023809Y-61107200D02*
X58880952Y-61154819D01*
X58880952Y-61154819D02*
X58785714Y-61154819D01*
X60071428Y-60488152D02*
X60071428Y-61154819D01*
X59833333Y-60107200D02*
X59595238Y-60821485D01*
X59595238Y-60821485D02*
X60214285Y-60821485D01*
%TO.C,U6*%
D11*
X82350000Y-57240000D02*
X83150000Y-57240000D01*
X82350000Y-58040000D02*
X82350000Y-57240000D01*
%TD*%
M02*
