M48
; DRILL file KiCad 10.0.5 date 2026-09-19T00:00:00+08:00
; FORMAT={-:-/ absolute / metric / decimal}
; #@! TF.CreationDate,2026-09-19T00:00:00+08:00
; #@! TF.GenerationSoftware,Kicad,Pcbnew,10.0.5
; #@! TF.FileFunction,Plated,1,2,Blind
FMAT,2
METRIC
; #@! TA.AperFunction,Plated,Buried,ViaDrill
T1C0.200
%
G90
G05
T1
X28.45Y-47.9
X29.35Y-54.5
X30.01Y-34.0
X30.285Y-53.037
X31.05Y-36.365
X31.837Y-49.75
X31.837Y-50.25
X32.0Y-58.85
X35.25Y-47.837
X35.75Y-47.837
X35.75Y-56.162
X36.0Y-52.0
X36.25Y-47.837
X36.25Y-56.162
X36.75Y-56.162
X37.25Y-56.162
X40.163Y-52.25
X54.1Y-43.25
X54.1Y-45.75
X54.1Y-63.95
X55.837Y-43.358
X55.9Y-45.75
X55.9Y-61.45
X55.9Y-63.95
X57.7Y-43.25
X57.7Y-45.75
X57.7Y-61.45
X59.5Y-43.25
X59.5Y-45.75
X59.5Y-61.45
X61.3Y-43.25
X61.3Y-45.75
X61.3Y-61.45
X61.3Y-63.95
X63.1Y-43.25
X63.1Y-45.75
X63.1Y-61.45
X63.1Y-63.95
X64.9Y-43.25
X64.9Y-45.75
X64.9Y-63.95
X83.43Y-54.49
X83.88Y-50.89
X83.88Y-51.49
X83.91Y-54.045
X83.969Y-54.939
X84.142Y-56.733
X84.224Y-51.19
X84.25Y-50.28
X84.275Y-57.164
X84.425Y-59.55
X84.425Y-61.55
X84.55Y-49.76
X84.55Y-57.64
X85.4Y-50.98
X85.4Y-56.516
X85.443Y-54.525
X85.45Y-50.28
X85.45Y-57.12
X85.651Y-57.564
X85.75Y-49.76
X86.6Y-50.98
X86.6Y-56.516
X86.643Y-54.525
X86.65Y-50.28
X86.65Y-57.12
X86.95Y-49.76
X86.95Y-57.64
X87.425Y-61.55
X87.8Y-50.98
X87.8Y-56.516
X87.843Y-54.525
X87.85Y-50.28
X87.85Y-57.12
X88.15Y-49.76
X88.15Y-57.64
X89.0Y-50.98
X89.0Y-56.516
X89.043Y-54.525
X89.05Y-50.28
X89.05Y-57.12
X89.35Y-49.76
X89.35Y-57.64
X90.2Y-50.98
X90.2Y-56.516
X90.243Y-54.525
X90.25Y-50.28
X90.25Y-57.12
X90.55Y-49.76
X90.55Y-57.64
X91.35Y-59.0
X91.35Y-60.0
X91.35Y-61.0
X91.35Y-64.0
X91.4Y-50.98
X91.4Y-56.516
X91.443Y-54.525
X91.45Y-50.28
X91.45Y-57.12
X91.45Y-62.0
X91.75Y-49.76
X91.75Y-57.64
X92.6Y-50.98
X92.6Y-56.516
X92.643Y-54.525
X92.65Y-50.28
X92.65Y-57.12
X92.94Y-49.834
X92.95Y-57.64
X93.8Y-50.98
X93.8Y-56.516
X93.85Y-57.12
X93.956Y-50.418
X94.125Y-59.55
X94.125Y-61.55
X94.15Y-49.76
X94.15Y-57.64
X95.0Y-56.516
X95.05Y-57.12
X95.35Y-57.64
X96.2Y-56.516
X96.25Y-57.12
X96.55Y-57.64
X97.4Y-56.516
X97.45Y-57.12
X97.75Y-57.64
X98.6Y-56.516
X98.65Y-57.12
X98.95Y-57.64
X99.8Y-56.516
X99.85Y-57.12
X100.15Y-57.64
X101.0Y-56.516
X101.05Y-57.12
X101.225Y-59.55
X101.225Y-61.55
X101.35Y-57.64
X102.2Y-56.516
X102.25Y-57.12
X102.55Y-57.64
X103.281Y-52.837
X103.294Y-55.664
X103.352Y-54.427
X103.45Y-57.12
X103.651Y-52.065
X103.651Y-55.99
X103.651Y-56.59
X103.75Y-57.64
X103.771Y-53.558
X104.17Y-50.89
X104.17Y-53.29
X104.17Y-54.49
X104.225Y-59.55
X104.225Y-61.55
X104.69Y-51.19
X132.282Y-57.087
X132.65Y-50.1
X132.65Y-50.7
X132.65Y-51.9
X132.65Y-56.7
X132.65Y-58.5
X132.65Y-60.3
X132.65Y-62.5
X132.65Y-63.9
X133.047Y-62.752
X135.0Y-60.9
X135.0Y-62.7
X135.0Y-64.5
M30
