M48
; DRILL file KiCad 10.0.5 date 2026-09-19T00:00:00+08:00
; FORMAT={-:-/ absolute / metric / decimal}
; #@! TF.CreationDate,2026-09-19T00:00:00+08:00
; #@! TF.GenerationSoftware,Kicad,Pcbnew,10.0.5
; #@! TF.FileFunction,Plated,1,6,Blind
FMAT,2
METRIC
; #@! TA.AperFunction,Plated,Buried,ViaDrill
T1C0.200
%
G90
G05
T1
X28.45Y-51.9
X29.35Y-58.5
X29.95Y-44.965
X30.45Y-53.55
X30.637Y-54.25
X31.05Y-40.765
X31.55Y-39.595
X32.65Y-46.94
X33.15Y-53.65
X33.15Y-55.0
X33.35Y-53.2
X34.05Y-44.195
X34.25Y-58.05
X37.75Y-56.2
X39.25Y-50.74
X41.837Y-49.55
X42.45Y-59.395
X45.95Y-60.395
X47.4Y-50.9
X48.85Y-56.6
X51.25Y-37.6
X54.4Y-65.0
X55.0Y-65.0
X56.2Y-65.0
X56.8Y-65.0
X59.75Y-41.4
X61.6Y-65.0
X62.2Y-65.0
X63.4Y-65.0
X64.0Y-65.0
X82.36Y-54.49
X82.91Y-52.99
X84.16Y-66.69
X84.21Y-63.89
X133.7Y-56.3
M30
