%TF.GenerationSoftware,KiCad,Pcbnew,10.0.5*%
%TF.CreationDate,2026-09-19T00:00:00+08:00*%
%TF.ProjectId,k2_v4_8L.l7,6b325f76-345f-4384-9c2e-6c372e6b6963,rev?*%
%TF.SameCoordinates,Original*%
%TF.FileFunction,Copper,L8,Bot*%
%TF.FilePolarity,Positive*%
%FSLAX46Y46*%
G04 Gerber Fmt 4.6, Leading zero omitted, Abs format (unit mm)*
G04 Created by KiCad (PCBNEW 10.0.5) date 2026-09-19T00:00:00+08:00*
%MOMM*%
%LPD*%
G01*
G04 APERTURE LIST*
%TA.AperFunction,ComponentPad*%
%ADD10C,1.500000*%
%TD*%
%TA.AperFunction,ViaPad*%
%ADD11C,0.350000*%
%TD*%
%TA.AperFunction,Conductor*%
%ADD12C,0.200000*%
%TD*%
%TA.AperFunction,Conductor*%
%ADD13C,0.205000*%
%TD*%
%ADD14C,0.200000*%
%ADD15C,0.350000*%
G04 APERTURE END LIST*
D10*
%TO.P,J11,1*%
%TO.N,GND*%
X31750000Y-65380000D03*
%TO.P,J11,2*%
%TO.N,I2C2_SCL*%
X29210000Y-65380000D03*
%TO.P,J11,3*%
%TO.N,I2C2_SDA*%
X26670000Y-65380000D03*
%TO.P,J11,4*%
%TO.N,P3V3_AUX*%
X24130000Y-65380000D03*
%TD*%
%TO.P,J9,1*%
%TO.N,UART_TX*%
X31750000Y-55960000D03*
%TO.P,J9,2*%
%TO.N,UART_RX*%
X29210000Y-55960000D03*
%TO.P,J9,3*%
%TO.N,GND*%
X26670000Y-55960000D03*
%TO.P,J9,4*%
%TO.N,MCU_VDD*%
X24130000Y-55960000D03*
%TD*%
%TO.P,J13,1*%
%TO.N,SWDIO*%
X31750000Y-46540000D03*
%TO.P,J13,2*%
%TO.N,SWCLK_BOOT0*%
X29210000Y-46540000D03*
%TO.P,J13,3*%
%TO.N,GND*%
X26670000Y-46540000D03*
%TO.P,J13,4*%
%TO.N,MCU_VDD*%
X24130000Y-46540000D03*
%TD*%
%TO.P,J6,1*%
%TO.N,PWR_CTRL_OUT*%
X29210000Y-39660000D03*
%TO.P,J6,2*%
%TO.N,GND*%
X26670000Y-39660000D03*
%TD*%
%TO.P,J12,1*%
%TO.N,12V_IN*%
X29210000Y-35320000D03*
%TO.P,J12,2*%
%TO.N,GND*%
X26670000Y-35320000D03*
%TD*%
D11*
%TO.N,GND*%
X135475000Y-50700000D03*
X133775000Y-60300000D03*
X94275000Y-54500000D03*
X83575000Y-56516000D03*
X59500000Y-64775000D03*
X95350000Y-49135000D03*
X137140000Y-44700000D03*
X51725000Y-41000000D03*
X117580000Y-47220000D03*
X132650000Y-57350000D03*
X121580000Y-43800000D03*
X138060000Y-50100000D03*
X102100000Y-43200000D03*
X103400000Y-50505000D03*
X56500000Y-40250000D03*
X46725000Y-59365000D03*
X101475000Y-50980000D03*
X123580000Y-42280000D03*
X35750000Y-55175000D03*
X103651000Y-55365000D03*
X134430000Y-57300000D03*
X96550000Y-49135000D03*
X133875000Y-59100000D03*
X100275000Y-50980000D03*
X45025000Y-35000000D03*
X96675000Y-54500000D03*
X142080000Y-47100000D03*
X120170000Y-39400000D03*
X84055000Y-54490000D03*
X127580000Y-40380000D03*
X135475000Y-57300000D03*
X133775000Y-45300000D03*
X105315000Y-54790000D03*
X36250000Y-55425000D03*
X103651000Y-52515000D03*
X140340000Y-43500000D03*
X102825000Y-53000000D03*
X93225000Y-53000000D03*
X99075000Y-50980000D03*
X83430000Y-52715000D03*
X62500000Y-65950000D03*
X95050000Y-50755000D03*
X58900000Y-50700000D03*
X133775000Y-57300000D03*
X75770000Y-58550000D03*
X132650000Y-42250000D03*
X102770000Y-44700000D03*
X133229999Y-60300000D03*
X100150000Y-49135000D03*
X133775000Y-44700000D03*
X92025000Y-53000000D03*
X108170000Y-40540000D03*
X30738266Y-53088225D03*
X96250000Y-50755000D03*
X133775000Y-53700000D03*
X131525000Y-46500000D03*
X133875000Y-52500000D03*
X104170000Y-40920000D03*
X42050000Y-62830000D03*
X99225000Y-53000000D03*
X102250000Y-50755000D03*
X37250000Y-48925000D03*
X126170000Y-48140000D03*
X103651000Y-53115000D03*
X129960000Y-48300000D03*
X94425000Y-53000000D03*
X42050000Y-61560000D03*
X65525000Y-63950000D03*
X92025000Y-42000000D03*
X57700000Y-62275000D03*
X116170000Y-40160000D03*
X99075000Y-54500000D03*
X101475000Y-54500000D03*
X36625000Y-54700000D03*
X100275000Y-54500000D03*
X101050000Y-50755000D03*
X81770000Y-57550000D03*
X35250000Y-48575000D03*
X58300000Y-65150000D03*
X99850000Y-50755000D03*
X134430000Y-59100000D03*
X45225000Y-37500000D03*
X133775000Y-48300000D03*
X98650000Y-50755000D03*
X133875000Y-48900000D03*
X39074999Y-53250000D03*
X97750000Y-49135000D03*
X95625000Y-53000000D03*
X112170000Y-42060000D03*
X136125000Y-45300000D03*
X53475000Y-63950000D03*
X92025000Y-40000000D03*
X89625000Y-53000000D03*
X30725000Y-41500000D03*
X95475000Y-54500000D03*
X64900000Y-56900000D03*
X49725000Y-66500000D03*
X31825000Y-36365000D03*
X101625000Y-53000000D03*
X63700000Y-66349999D03*
X42050000Y-57170000D03*
X113580000Y-46460000D03*
X83430000Y-50865000D03*
X105315000Y-53590000D03*
X36750000Y-55425000D03*
X135475000Y-50100000D03*
X90825000Y-53000000D03*
X59500000Y-60625000D03*
X98025000Y-53000000D03*
X36750000Y-49775000D03*
X64300000Y-66750000D03*
X132650000Y-62050000D03*
X103651000Y-51315000D03*
X96675000Y-50980000D03*
X86025000Y-53000000D03*
X53475000Y-61450000D03*
X83430000Y-51515000D03*
X96825000Y-53000000D03*
X133775000Y-50700000D03*
X81480000Y-59050000D03*
X93225000Y-54500000D03*
X102550000Y-49135000D03*
X97875000Y-50980000D03*
X43200000Y-53725000D03*
X84574000Y-53590000D03*
X97450000Y-50755000D03*
X110770000Y-48300000D03*
X45475000Y-40000000D03*
X102675000Y-54500000D03*
X97875000Y-54500000D03*
X130560000Y-44700000D03*
X133875000Y-47100000D03*
X55900000Y-40650000D03*
X95475000Y-50980000D03*
X133830000Y-63300000D03*
X92025000Y-41000000D03*
X32966779Y-51169323D03*
X101350000Y-49135000D03*
X82285000Y-53590000D03*
X103750000Y-49135000D03*
X133775000Y-50100000D03*
X34750000Y-48925000D03*
X87225000Y-53000000D03*
X103400000Y-53815000D03*
X135475000Y-53700000D03*
X100425000Y-53000000D03*
X92025000Y-43000000D03*
X133875000Y-55500000D03*
X59500000Y-50500000D03*
X88425000Y-53000000D03*
X65525000Y-61450000D03*
X57700000Y-64775000D03*
X84574000Y-54190000D03*
X98950000Y-49135000D03*
X102675000Y-50980000D03*
X94425000Y-50980000D03*
X133875000Y-43500000D03*
X133775000Y-62100000D03*
X133775000Y-54900000D03*
X106170000Y-42440000D03*
X61900000Y-66150000D03*
X45800000Y-50275000D03*
X103176000Y-52390000D03*
X84675000Y-53000000D03*
X103651000Y-54765000D03*
X91450000Y-37675000D03*
X136125000Y-44700000D03*
X79480000Y-59050000D03*
%TO.N,MCU_VDD*%
X40950000Y-38775000D03*
X56725000Y-68500000D03*
X45950000Y-57170000D03*
X56725000Y-67500000D03*
X56725000Y-66500000D03*
X41275000Y-59365000D03*
X30475000Y-54500000D03*
X56725000Y-69500000D03*
%TO.N,NRST*%
X52000000Y-41500000D03*
X42500000Y-41500000D03*
%TO.N,PERSTA#*%
X59800000Y-40900000D03*
X32525000Y-54500000D03*
X69500000Y-50600000D03*
%TO.N,P3V3_AUX*%
X28975000Y-53000000D03*
X51725000Y-37000000D03*
X58900000Y-62275000D03*
X34250000Y-55262500D03*
X59864700Y-48439700D03*
%TO.N,I2C2_SCL*%
X55050000Y-68500000D03*
X82866700Y-51215000D03*
%TO.N,UART_TX*%
X39987500Y-52750000D03*
X30411329Y-56062563D03*
X32725000Y-56000000D03*
%TO.N,UART_RX*%
X40162500Y-51250000D03*
%TO.N,SWCLK_BOOT0*%
X29836871Y-47099923D03*
%TO.N,I2C1_SCL*%
X33750000Y-47837500D03*
X45950000Y-60635000D03*
%TO.N,I2C1_SDA*%
X45950000Y-61905000D03*
X62850000Y-50537500D03*
X33225000Y-47880800D03*
X45450000Y-48037500D03*
X134950000Y-56137500D03*
X102550000Y-52137500D03*
X82250000Y-51337500D03*
X41250000Y-48037500D03*
%TO.N,12V_IN*%
X28275000Y-41500000D03*
X31050000Y-39830000D03*
X35725000Y-37635000D03*
%TO.N,P3V3*%
X89000000Y-53975000D03*
X90650000Y-41275000D03*
X85400000Y-53975000D03*
X93800000Y-53525000D03*
X89625000Y-54000000D03*
X89775000Y-38500000D03*
X93800000Y-53975000D03*
X96200000Y-53975000D03*
X90825000Y-54000000D03*
X101725000Y-54000000D03*
X101000000Y-53975000D03*
X97400000Y-53975000D03*
X89975000Y-41000000D03*
X100525000Y-54000000D03*
X86600000Y-53975000D03*
X85875000Y-54000000D03*
X87225000Y-54000000D03*
X92600000Y-53975000D03*
X42525000Y-40000000D03*
X95725000Y-54000000D03*
X28990000Y-38200000D03*
X99800000Y-53975000D03*
X98600000Y-53975000D03*
X88275000Y-54000000D03*
X91400000Y-53975000D03*
X99325000Y-54000000D03*
X90200000Y-53975000D03*
X92600000Y-53525000D03*
X98125000Y-54000000D03*
X89975000Y-40000000D03*
X34950000Y-39830000D03*
X94525000Y-54000000D03*
X91875000Y-54000000D03*
X95000000Y-53975000D03*
X40263888Y-35980223D03*
X87800000Y-53975000D03*
X90650000Y-42275000D03*
X96925000Y-54000000D03*
X102200000Y-53975000D03*
%TO.N,PCIE_DN_OUT4_P_MCIO*%
X89100000Y-52366000D03*
X89100000Y-42010000D03*
%TO.N,PCIE_DN_OUT4_N_MCIO*%
X89650000Y-51423000D03*
X89650000Y-42510000D03*
%TO.N,PCIE_DN_OUT5_P_MCIO*%
X90300000Y-52366000D03*
X90300000Y-43080000D03*
%TO.N,PCIE_DN_OUT5_N_MCIO*%
X90850000Y-51423000D03*
X90850000Y-43580000D03*
%TO.N,PCIE_DN_OUT6_P_MCIO*%
X91500000Y-52366000D03*
X91500000Y-44150000D03*
%TO.N,PCIE_DN_OUT6_N_MCIO*%
X92050000Y-51423000D03*
X92050000Y-44650000D03*
%TO.N,PCIE_DN_OUT7_P_MCIO*%
X92700000Y-52366000D03*
X92700000Y-34520000D03*
%TO.N,PCIE_DN_OUT7_N_MCIO*%
X93700000Y-51673000D03*
X93700000Y-35020000D03*
%TO.N,PERSTB#*%
X135000000Y-62100000D03*
X91300000Y-67200000D03*
%TO.N,PWR_BTN_ISO*%
X53930800Y-37016100D03*
X43200000Y-51100000D03*
%TO.N,PCIE_UP_OUT0_P_J2*%
X84850000Y-54880000D03*
X84850000Y-56834000D03*
%TO.N,PCIE_UP_OUT0_N_J2*%
X84350000Y-55723000D03*
X84350000Y-56334000D03*
%TO.N,PCIE_UP_OUT1_P_J2*%
X86050000Y-54880000D03*
X86050000Y-57783000D03*
%TO.N,PCIE_UP_OUT1_N_J2*%
X85500000Y-55823000D03*
X85500000Y-58283000D03*
%TO.N,PCIE_UP_OUT2_P_J2*%
X87250000Y-54880000D03*
X87250000Y-59732000D03*
%TO.N,PCIE_UP_OUT2_N_J2*%
X86700000Y-55823000D03*
X86700000Y-59232000D03*
%TO.N,PCIE_UP_OUT3_P_J2*%
X88450000Y-54880000D03*
X88450000Y-60681000D03*
%TO.N,PCIE_UP_OUT3_N_J2*%
X87900000Y-55823000D03*
X87900000Y-61181000D03*
%TO.N,PCIE_UP_OUT4_P_J2*%
X89650000Y-54880000D03*
X89650000Y-62630000D03*
%TO.N,PCIE_UP_OUT4_N_J2*%
X89100000Y-55823000D03*
X89100000Y-62130000D03*
%TO.N,PCIE_UP_OUT5_P_J2*%
X90850000Y-54880000D03*
X90850000Y-63579000D03*
%TO.N,PCIE_UP_OUT5_N_J2*%
X90300000Y-55823000D03*
X90300000Y-64078999D03*
%TO.N,PCIE_UP_OUT6_P_J2*%
X92050000Y-54880000D03*
X92050000Y-65528000D03*
%TO.N,PCIE_UP_OUT6_N_J2*%
X91500000Y-55823000D03*
X91500000Y-65028000D03*
%TO.N,PCIE_UP_OUT7_P_J2*%
X93700000Y-55130000D03*
X93700000Y-66477000D03*
%TO.N,PCIE_UP_OUT7_N_J2*%
X92700000Y-55823000D03*
X92700000Y-66977000D03*
%TO.N,PCIE_DN_OUT1_N_MCIO*%
X86050000Y-51423000D03*
X86050000Y-39870000D03*
%TO.N,PCIE_DN_OUT2_P_MCIO*%
X86700000Y-52366000D03*
X86700000Y-39300000D03*
%TO.N,PCIE_DN_OUT2_N_MCIO*%
X87250000Y-51423000D03*
X87250000Y-38800000D03*
%TO.N,PCIE_DN_OUT3_P_MCIO*%
X87900000Y-52366000D03*
X87900000Y-38230000D03*
%TO.N,PCIE_DN_OUT3_N_MCIO*%
X88450000Y-51423000D03*
X88450000Y-37730000D03*
%TO.N,DS320_STRAP_B_ADDR0_15-8*%
X105125000Y-52090000D03*
X82025000Y-62190000D03*
%TO.N,PCIE_DN_OUT0_P_MCIO*%
X84300000Y-52366000D03*
X84300000Y-41440000D03*
%TO.N,PCIE_DN_OUT0_N_MCIO*%
X84850000Y-51423000D03*
X84850000Y-40940000D03*
%TO.N,PCIE_DN_OUT1_P_MCIO*%
X85500000Y-52366000D03*
X85500000Y-40370000D03*
%TO.N,SW_U2*%
X40700000Y-34600000D03*
X34162500Y-35095000D03*
%TO.N,PWR_CTRL_OUT*%
X45800000Y-52900000D03*
%TD*%
%TO.N,NRST*%
D12*
X42500000Y-41500000D02*
X52000000Y-41500000D01*
%TO.N,PERSTA#*%
X69500000Y-50600000D02*
X59800000Y-40900000D01*
%TO.N,P3V3_AUX*%
X28800000Y-54300000D02*
X28800000Y-54700000D01*
X28800000Y-54700000D02*
X28200000Y-55300000D01*
X29000000Y-54100000D02*
X28800000Y-54300000D01*
X28200000Y-55300000D02*
X28200000Y-55400000D01*
X28100000Y-55700000D02*
X28000000Y-55800000D01*
X73775000Y-62275000D02*
X58900000Y-62275000D01*
X34200000Y-55300000D02*
X28975000Y-50075000D01*
X28100000Y-55500000D02*
X28100000Y-55700000D01*
X28200000Y-55400000D02*
X28100000Y-55500000D01*
X28000000Y-56300000D02*
X24130000Y-60170000D01*
X29000000Y-53000000D02*
X29000000Y-54100000D01*
X28000000Y-55800000D02*
X28000000Y-56300000D01*
X59900000Y-48400000D02*
X73775000Y-62275000D01*
X24130000Y-60170000D02*
X24130000Y-65380000D01*
X28975000Y-50075000D02*
X28975000Y-53000000D01*
%TO.N,I2C2_SCL*%
X82866700Y-53933300D02*
X82866700Y-51215000D01*
X61700000Y-66700000D02*
X62600000Y-66700000D01*
X56100000Y-67400000D02*
X56100000Y-66400000D01*
X56200000Y-66300000D02*
X56200000Y-66200000D01*
X56200000Y-66200000D02*
X56500000Y-65900000D01*
X63500000Y-65800000D02*
X71000000Y-65800000D01*
X62600000Y-66700000D02*
X63500000Y-65800000D01*
X56500000Y-65900000D02*
X60900000Y-65900000D01*
X55000000Y-68500000D02*
X56100000Y-67400000D01*
X71000000Y-65800000D02*
X82866700Y-53933300D01*
X60900000Y-65900000D02*
X61700000Y-66700000D01*
X56100000Y-66400000D02*
X56200000Y-66300000D01*
%TO.N,UART_TX*%
X39987500Y-63287500D02*
X39987500Y-52750000D01*
X32700000Y-56000000D02*
X39987500Y-63287500D01*
%TO.N,UART_RX*%
X31200000Y-55000000D02*
X31300000Y-55000000D01*
X30200000Y-55500000D02*
X30700000Y-55500000D01*
X32400000Y-55100000D02*
X33300000Y-55100000D01*
X32300000Y-55000000D02*
X32400000Y-55100000D01*
X30700000Y-55500000D02*
X31200000Y-55000000D01*
X33300000Y-55100000D02*
X34000000Y-55800000D01*
X34100000Y-55800000D02*
X34200000Y-55900000D01*
X32100000Y-54900000D02*
X32200000Y-55000000D01*
X31300000Y-55000000D02*
X31400000Y-54900000D01*
X34200000Y-55900000D02*
X34900000Y-55900000D01*
X34900000Y-51250000D02*
X40162500Y-51250000D01*
X34900000Y-55900000D02*
X34900000Y-51250000D01*
X29200000Y-56000000D02*
X29700000Y-56000000D01*
X29700000Y-56000000D02*
X30200000Y-55500000D01*
X32200000Y-55000000D02*
X32300000Y-55000000D01*
X31400000Y-54900000D02*
X32100000Y-54900000D01*
X34000000Y-55800000D02*
X34100000Y-55800000D01*
%TO.N,I2C1_SCL*%
X40700000Y-51000000D02*
X40700000Y-60635000D01*
X33800000Y-47800000D02*
X34500000Y-47800000D01*
X40400000Y-50700000D02*
X40700000Y-51000000D01*
X35000000Y-47300000D02*
X36500000Y-47300000D01*
X39900000Y-50700000D02*
X40400000Y-50700000D01*
X40700000Y-60635000D02*
X45950000Y-60635000D01*
X34500000Y-47800000D02*
X35000000Y-47300000D01*
X36500000Y-47300000D02*
X39900000Y-50700000D01*
%TO.N,I2C1_SDA*%
X130450000Y-54637500D02*
X130550000Y-54737500D01*
X123050000Y-52337500D02*
X123250000Y-52337500D01*
X124850000Y-52837500D02*
X124950000Y-52937500D01*
X134850000Y-56137500D02*
X134950000Y-56137500D01*
X122950000Y-52237500D02*
X123050000Y-52337500D01*
X130850000Y-54837500D02*
X131050000Y-54837500D01*
X102650000Y-52137500D02*
X102850000Y-51937500D01*
X36700000Y-46900000D02*
X39700000Y-49900000D01*
X133550000Y-55937500D02*
X133650000Y-55937500D01*
X127450000Y-53737500D02*
X127650000Y-53737500D01*
X62850000Y-50537500D02*
X68650000Y-50537500D01*
X132650000Y-55437500D02*
X132850000Y-55437500D01*
X128250000Y-53937500D02*
X128350000Y-54037500D01*
X124550000Y-52737500D02*
X124650000Y-52837500D01*
X127650000Y-53737500D02*
X127750000Y-53837500D01*
X102850000Y-51937500D02*
X104450000Y-51937500D01*
X125450000Y-53037500D02*
X125550000Y-53137500D01*
X126050000Y-53237500D02*
X126150000Y-53337500D01*
X133650000Y-55937500D02*
X133750000Y-56037500D01*
X131950000Y-55137500D02*
X132050000Y-55237500D01*
X104450000Y-51937500D02*
X104750000Y-51637500D01*
X132050000Y-55237500D02*
X132250000Y-55237500D01*
X132350000Y-55337500D02*
X132550000Y-55337500D01*
X125550000Y-53137500D02*
X125750000Y-53137500D01*
X129850000Y-54537500D02*
X130050000Y-54537500D01*
X130750000Y-54737500D02*
X130850000Y-54837500D01*
X131750000Y-55137500D02*
X131950000Y-55137500D01*
X125850000Y-53237500D02*
X126050000Y-53237500D01*
X130050000Y-54537500D02*
X130150000Y-54637500D01*
X129150000Y-54237500D02*
X129250000Y-54337500D01*
X34800000Y-46900000D02*
X36700000Y-46900000D01*
X129450000Y-54337500D02*
X129550000Y-54437500D01*
X124650000Y-52837500D02*
X124850000Y-52837500D01*
X122650000Y-52137500D02*
X122750000Y-52237500D01*
X123250000Y-52337500D02*
X123350000Y-52437500D01*
X122150000Y-52037500D02*
X122350000Y-52037500D01*
X128950000Y-54237500D02*
X129150000Y-54237500D01*
X125150000Y-52937500D02*
X125250000Y-53037500D01*
X132950000Y-55537500D02*
X133150000Y-55537500D01*
X68650000Y-50537500D02*
X69150000Y-51037500D01*
X128050000Y-53937500D02*
X128250000Y-53937500D01*
X133150000Y-55537500D02*
X133550000Y-55937500D01*
X128550000Y-54037500D02*
X128650000Y-54137500D01*
X121850000Y-51937500D02*
X122050000Y-51937500D01*
X129750000Y-54437500D02*
X129850000Y-54537500D01*
X69250000Y-51037500D02*
X69350000Y-51137500D01*
X130550000Y-54737500D02*
X130750000Y-54737500D01*
X129550000Y-54437500D02*
X129750000Y-54437500D01*
X128350000Y-54037500D02*
X128550000Y-54037500D01*
X134750000Y-56037500D02*
X134850000Y-56137500D01*
X129250000Y-54337500D02*
X129450000Y-54337500D01*
X133750000Y-56037500D02*
X134750000Y-56037500D01*
X102550000Y-52137500D02*
X102650000Y-52137500D01*
X132550000Y-55337500D02*
X132650000Y-55437500D01*
X132850000Y-55437500D02*
X132950000Y-55537500D01*
X124950000Y-52937500D02*
X125150000Y-52937500D01*
X128650000Y-54137500D02*
X128850000Y-54137500D01*
X123950000Y-52637500D02*
X124150000Y-52637500D01*
X131450000Y-55037500D02*
X131650000Y-55037500D01*
X104750000Y-51637500D02*
X121050000Y-51637500D01*
X126950000Y-53537500D02*
X127050000Y-53637500D01*
X127750000Y-53837500D02*
X127950000Y-53837500D01*
X131050000Y-54837500D02*
X131150000Y-54937500D01*
X121550000Y-51837500D02*
X121750000Y-51837500D01*
X124250000Y-52737500D02*
X124550000Y-52737500D01*
X131150000Y-54937500D02*
X131350000Y-54937500D01*
X123350000Y-52437500D02*
X123550000Y-52437500D01*
X123550000Y-52437500D02*
X123650000Y-52537500D01*
X130150000Y-54637500D02*
X130450000Y-54637500D01*
X52205000Y-61905000D02*
X45950000Y-61905000D01*
X126150000Y-53337500D02*
X126350000Y-53337500D01*
X121750000Y-51837500D02*
X121850000Y-51937500D01*
X131350000Y-54937500D02*
X131450000Y-55037500D01*
X123650000Y-52537500D02*
X123850000Y-52537500D01*
X127950000Y-53837500D02*
X128050000Y-53937500D01*
X39700000Y-49900000D02*
X40200000Y-49900000D01*
X121050000Y-51637500D02*
X121150000Y-51737500D01*
X127050000Y-53637500D02*
X127350000Y-53637500D01*
X122050000Y-51937500D02*
X122150000Y-52037500D01*
X126750000Y-53537500D02*
X126950000Y-53537500D01*
X126450000Y-53437500D02*
X126650000Y-53437500D01*
X132250000Y-55237500D02*
X132350000Y-55337500D01*
X69150000Y-51037500D02*
X69250000Y-51037500D01*
X33500000Y-47300000D02*
X34400000Y-47300000D01*
X122350000Y-52037500D02*
X122450000Y-52137500D01*
X121150000Y-51737500D02*
X121450000Y-51737500D01*
X82050000Y-51137500D02*
X82250000Y-51337500D01*
X126350000Y-53337500D02*
X126450000Y-53437500D01*
X34400000Y-47300000D02*
X34800000Y-46900000D01*
X126650000Y-53437500D02*
X126750000Y-53537500D01*
X40200000Y-49900000D02*
X52205000Y-61905000D01*
X121450000Y-51737500D02*
X121550000Y-51837500D01*
X69350000Y-51137500D02*
X82050000Y-51137500D01*
X33200000Y-47900000D02*
X33200000Y-47600000D01*
X124150000Y-52637500D02*
X124250000Y-52737500D01*
X122750000Y-52237500D02*
X122950000Y-52237500D01*
X127350000Y-53637500D02*
X127450000Y-53737500D01*
X41250000Y-48037500D02*
X45450000Y-48037500D01*
X122450000Y-52137500D02*
X122650000Y-52137500D01*
X123850000Y-52537500D02*
X123950000Y-52637500D01*
X125750000Y-53137500D02*
X125850000Y-53237500D01*
X131650000Y-55037500D02*
X131750000Y-55137500D01*
X33200000Y-47600000D02*
X33500000Y-47300000D01*
X125250000Y-53037500D02*
X125450000Y-53037500D01*
X128850000Y-54137500D02*
X128950000Y-54237500D01*
%TO.N,P3V3*%
X34950000Y-38200000D02*
X34950000Y-39830000D01*
X29000000Y-38200000D02*
X34950000Y-38200000D01*
%TO.N,PCIE_DN_OUT4_P_MCIO*%
D13*
X89100000Y-52366000D02*
X89100000Y-42010000D01*
%TO.N,PCIE_DN_OUT4_N_MCIO*%
X89650000Y-51423000D02*
X89650000Y-42510000D01*
%TO.N,PCIE_DN_OUT5_P_MCIO*%
X90300000Y-52366000D02*
X90300000Y-43080000D01*
%TO.N,PCIE_DN_OUT5_N_MCIO*%
X90850000Y-51423000D02*
X90850000Y-43580000D01*
%TO.N,PCIE_DN_OUT6_P_MCIO*%
X91500000Y-52366000D02*
X91500000Y-44150000D01*
%TO.N,PCIE_DN_OUT6_N_MCIO*%
X92050000Y-51423000D02*
X92050000Y-44650000D01*
%TO.N,PCIE_DN_OUT7_P_MCIO*%
X92700000Y-52366000D02*
X92700000Y-34520000D01*
%TO.N,PCIE_DN_OUT7_N_MCIO*%
X93700000Y-43209885D02*
X93973228Y-43483113D01*
X93700000Y-43582046D02*
X93973228Y-43855274D01*
X93700000Y-42738791D02*
X93700000Y-42837724D01*
X93700000Y-43855274D02*
X93700000Y-43954209D01*
X93700000Y-51673000D02*
X93700000Y-43954209D01*
X93973228Y-43483113D02*
X93700000Y-43483113D01*
X93700000Y-43483113D02*
X93700000Y-43582046D01*
X93973228Y-43855274D02*
X93700000Y-43855274D01*
X93700000Y-42738791D02*
X93700000Y-35020000D01*
X93700000Y-43110952D02*
X93700000Y-43209885D01*
X93973228Y-43110952D02*
X93700000Y-43110952D01*
X93700000Y-42837724D02*
X93973228Y-43110952D01*
%TO.N,PERSTB#*%
D12*
X91600000Y-67200000D02*
X92200000Y-67800000D01*
X120800000Y-66700000D02*
X120900000Y-66600000D01*
X131500000Y-63200000D02*
X131700000Y-63200000D01*
X121800000Y-66400000D02*
X121900000Y-66300000D01*
X118000000Y-67600000D02*
X118100000Y-67500000D01*
X124000000Y-65600000D02*
X124200000Y-65600000D01*
X131200000Y-63300000D02*
X131400000Y-63300000D01*
X123700000Y-65700000D02*
X123900000Y-65700000D01*
X128600000Y-64200000D02*
X128700000Y-64100000D01*
X126800000Y-64700000D02*
X127000000Y-64700000D01*
X123600000Y-65800000D02*
X123700000Y-65700000D01*
X127700000Y-64500000D02*
X127800000Y-64400000D01*
X123300000Y-65900000D02*
X123400000Y-65800000D01*
X91300000Y-67200000D02*
X91600000Y-67200000D01*
X121100000Y-66600000D02*
X121200000Y-66500000D01*
X130500000Y-63600000D02*
X130600000Y-63500000D01*
X130200000Y-63600000D02*
X130500000Y-63600000D01*
X131100000Y-63400000D02*
X131200000Y-63300000D01*
X126100000Y-65000000D02*
X126200000Y-64900000D01*
X129500000Y-63900000D02*
X129600000Y-63800000D01*
X134900000Y-62100000D02*
X135000000Y-62100000D01*
X124600000Y-65500000D02*
X124700000Y-65400000D01*
X132700000Y-62800000D02*
X132900000Y-62800000D01*
X134400000Y-62300000D02*
X134500000Y-62300000D01*
X120900000Y-66600000D02*
X121100000Y-66600000D01*
X120200000Y-66900000D02*
X120300000Y-66800000D01*
X128300000Y-64300000D02*
X128400000Y-64200000D01*
X121600000Y-66400000D02*
X121800000Y-66400000D01*
X118700000Y-67400000D02*
X118800000Y-67300000D01*
X117400000Y-67800000D02*
X117500000Y-67700000D01*
X127400000Y-64600000D02*
X127500000Y-64500000D01*
X133000000Y-62700000D02*
X133200000Y-62700000D01*
X121900000Y-66300000D02*
X122100000Y-66300000D01*
X118500000Y-67400000D02*
X118700000Y-67400000D01*
X122500000Y-66100000D02*
X122700000Y-66100000D01*
X122200000Y-66200000D02*
X122400000Y-66200000D01*
X128400000Y-64200000D02*
X128600000Y-64200000D01*
X133300000Y-62600000D02*
X134000000Y-62600000D01*
X123400000Y-65800000D02*
X123600000Y-65800000D01*
X125900000Y-65000000D02*
X126100000Y-65000000D01*
X126700000Y-64800000D02*
X126800000Y-64700000D01*
X129900000Y-63700000D02*
X130100000Y-63700000D01*
X134800000Y-62200000D02*
X134900000Y-62100000D01*
X130900000Y-63400000D02*
X131100000Y-63400000D01*
X127800000Y-64400000D02*
X128000000Y-64400000D01*
X122100000Y-66300000D02*
X122200000Y-66200000D01*
X127100000Y-64600000D02*
X127400000Y-64600000D01*
X92200000Y-67800000D02*
X117400000Y-67800000D01*
X122400000Y-66200000D02*
X122500000Y-66100000D01*
X121500000Y-66500000D02*
X121600000Y-66400000D01*
X119400000Y-67100000D02*
X119600000Y-67100000D01*
X125800000Y-65100000D02*
X125900000Y-65000000D01*
X117800000Y-67600000D02*
X118000000Y-67600000D01*
X130600000Y-63500000D02*
X130800000Y-63500000D01*
X126500000Y-64800000D02*
X126700000Y-64800000D01*
X127500000Y-64500000D02*
X127700000Y-64500000D01*
X130800000Y-63500000D02*
X130900000Y-63400000D01*
X126400000Y-64900000D02*
X126500000Y-64800000D01*
X119300000Y-67200000D02*
X119400000Y-67100000D01*
X132900000Y-62800000D02*
X133000000Y-62700000D01*
X122800000Y-66000000D02*
X123000000Y-66000000D01*
X119700000Y-67000000D02*
X119900000Y-67000000D01*
X124200000Y-65600000D02*
X124300000Y-65500000D01*
X132100000Y-63000000D02*
X132300000Y-63000000D01*
X134500000Y-62300000D02*
X134600000Y-62200000D01*
X119100000Y-67200000D02*
X119300000Y-67200000D01*
X118400000Y-67500000D02*
X118500000Y-67400000D01*
X128000000Y-64400000D02*
X128100000Y-64300000D01*
X125200000Y-65300000D02*
X125300000Y-65200000D01*
X130100000Y-63700000D02*
X130200000Y-63600000D01*
X118100000Y-67500000D02*
X118400000Y-67500000D01*
X132600000Y-62900000D02*
X132700000Y-62800000D01*
X119900000Y-67000000D02*
X120000000Y-66900000D01*
X118800000Y-67300000D02*
X119000000Y-67300000D01*
X126200000Y-64900000D02*
X126400000Y-64900000D01*
X120500000Y-66800000D02*
X120600000Y-66700000D01*
X128700000Y-64100000D02*
X128900000Y-64100000D01*
X121200000Y-66500000D02*
X121500000Y-66500000D01*
X129300000Y-63900000D02*
X129500000Y-63900000D01*
X119000000Y-67300000D02*
X119100000Y-67200000D01*
X124700000Y-65400000D02*
X124900000Y-65400000D01*
X129200000Y-64000000D02*
X129300000Y-63900000D01*
X120000000Y-66900000D02*
X120200000Y-66900000D01*
X134000000Y-62600000D02*
X134100000Y-62500000D01*
X132400000Y-62900000D02*
X132600000Y-62900000D01*
X134600000Y-62200000D02*
X134800000Y-62200000D01*
X131400000Y-63300000D02*
X131500000Y-63200000D01*
X123100000Y-65900000D02*
X123300000Y-65900000D01*
X122700000Y-66100000D02*
X122800000Y-66000000D01*
X129000000Y-64000000D02*
X129200000Y-64000000D01*
X117500000Y-67700000D02*
X117700000Y-67700000D01*
X129800000Y-63800000D02*
X129900000Y-63700000D01*
X124900000Y-65400000D02*
X125000000Y-65300000D01*
X119600000Y-67100000D02*
X119700000Y-67000000D01*
X134100000Y-62500000D02*
X134200000Y-62500000D01*
X132000000Y-63100000D02*
X132100000Y-63000000D01*
X132300000Y-63000000D02*
X132400000Y-62900000D01*
X117700000Y-67700000D02*
X117800000Y-67600000D01*
X127000000Y-64700000D02*
X127100000Y-64600000D01*
X131700000Y-63200000D02*
X131800000Y-63100000D01*
X133200000Y-62700000D02*
X133300000Y-62600000D01*
X124300000Y-65500000D02*
X124600000Y-65500000D01*
X128100000Y-64300000D02*
X128300000Y-64300000D01*
X125500000Y-65200000D02*
X125600000Y-65100000D01*
X125300000Y-65200000D02*
X125500000Y-65200000D01*
X128900000Y-64100000D02*
X129000000Y-64000000D01*
X120300000Y-66800000D02*
X120500000Y-66800000D01*
X120600000Y-66700000D02*
X120800000Y-66700000D01*
X129600000Y-63800000D02*
X129800000Y-63800000D01*
X123000000Y-66000000D02*
X123100000Y-65900000D01*
X125000000Y-65300000D02*
X125200000Y-65300000D01*
X134200000Y-62500000D02*
X134400000Y-62300000D01*
X131800000Y-63100000D02*
X132000000Y-63100000D01*
X125600000Y-65100000D02*
X125800000Y-65100000D01*
X123900000Y-65700000D02*
X124000000Y-65600000D01*
%TO.N,PWR_BTN_ISO*%
X57283900Y-37016100D02*
X53930800Y-37016100D01*
X43200000Y-51100000D02*
X57283900Y-37016100D01*
%TO.N,PCIE_UP_OUT0_P_J2*%
D13*
X84850000Y-54880000D02*
X84850000Y-56834000D01*
%TO.N,PCIE_UP_OUT0_N_J2*%
X84350000Y-55723000D02*
X84350000Y-56334000D01*
%TO.N,PCIE_UP_OUT1_P_J2*%
X86050000Y-54880000D02*
X86050000Y-57783000D01*
%TO.N,PCIE_UP_OUT1_N_J2*%
X85500000Y-55823000D02*
X85500000Y-58283000D01*
%TO.N,PCIE_UP_OUT2_P_J2*%
X87250000Y-54880000D02*
X87250000Y-59732000D01*
%TO.N,PCIE_UP_OUT2_N_J2*%
X86700000Y-55823000D02*
X86700000Y-59232000D01*
%TO.N,PCIE_UP_OUT3_P_J2*%
X88450000Y-54880000D02*
X88450000Y-60681000D01*
%TO.N,PCIE_UP_OUT3_N_J2*%
X87900000Y-55823000D02*
X87900000Y-61181000D01*
%TO.N,PCIE_UP_OUT4_P_J2*%
X89650000Y-54880000D02*
X89650000Y-62630000D01*
%TO.N,PCIE_UP_OUT4_N_J2*%
X89100000Y-55823000D02*
X89100000Y-62130000D01*
%TO.N,PCIE_UP_OUT5_P_J2*%
X90850000Y-54880000D02*
X90850000Y-63579000D01*
%TO.N,PCIE_UP_OUT5_N_J2*%
X90300000Y-55823000D02*
X90300000Y-64078999D01*
%TO.N,PCIE_UP_OUT6_P_J2*%
X92050000Y-54880000D02*
X92050000Y-65528000D01*
%TO.N,PCIE_UP_OUT6_N_J2*%
X91500000Y-55823000D02*
X91500000Y-65028000D01*
%TO.N,PCIE_UP_OUT7_P_J2*%
X93700000Y-55130000D02*
X93700000Y-66477000D01*
%TO.N,PCIE_UP_OUT7_N_J2*%
X92700000Y-55823000D02*
X92700000Y-66977000D01*
%TO.N,PCIE_DN_OUT1_N_MCIO*%
X86050000Y-51423000D02*
X86050000Y-39870000D01*
%TO.N,PCIE_DN_OUT2_P_MCIO*%
X86700000Y-52366000D02*
X86700000Y-39300000D01*
%TO.N,PCIE_DN_OUT2_N_MCIO*%
X87250000Y-51423000D02*
X87250000Y-38800000D01*
%TO.N,PCIE_DN_OUT3_P_MCIO*%
X87900000Y-52366000D02*
X87900000Y-38230000D01*
%TO.N,PCIE_DN_OUT3_N_MCIO*%
X88450000Y-51423000D02*
X88450000Y-37730000D01*
%TO.N,DS320_STRAP_B_ADDR0_15-8*%
D12*
X87125000Y-62190000D02*
X92425000Y-67490000D01*
X82025000Y-62190000D02*
X87125000Y-62190000D01*
X102825000Y-57590000D02*
X102925000Y-57490000D01*
X104325000Y-52890000D02*
X105125000Y-52090000D01*
X103025000Y-56990000D02*
X103125000Y-56890000D01*
X103125000Y-56690000D02*
X104125000Y-55690000D01*
X102625000Y-58190000D02*
X102725000Y-58090000D01*
X104325000Y-53090000D02*
X104325000Y-52890000D01*
X104225000Y-53490000D02*
X104225000Y-53190000D01*
X102625000Y-58290000D02*
X102625000Y-58190000D01*
X104125000Y-55690000D02*
X104125000Y-53590000D01*
X102925000Y-57490000D02*
X102925000Y-57290000D01*
X102925000Y-57290000D02*
X103025000Y-57190000D01*
X93925000Y-66990000D02*
X102625000Y-58290000D01*
X102825000Y-57790000D02*
X102825000Y-57590000D01*
X92925000Y-67490000D02*
X93425000Y-66990000D01*
X103025000Y-57190000D02*
X103025000Y-56990000D01*
X104125000Y-53590000D02*
X104225000Y-53490000D01*
X104225000Y-53190000D02*
X104325000Y-53090000D01*
X102725000Y-57890000D02*
X102825000Y-57790000D01*
X92425000Y-67490000D02*
X92925000Y-67490000D01*
X102725000Y-58090000D02*
X102725000Y-57890000D01*
X103125000Y-56890000D02*
X103125000Y-56690000D01*
X93425000Y-66990000D02*
X93925000Y-66990000D01*
%TO.N,PCIE_DN_OUT0_P_MCIO*%
D13*
X84300000Y-52366000D02*
X84300000Y-41440000D01*
%TO.N,PCIE_DN_OUT0_N_MCIO*%
X84850000Y-51423000D02*
X84850000Y-40940000D01*
%TO.N,PCIE_DN_OUT1_P_MCIO*%
X85500000Y-52366000D02*
X85500000Y-40370000D01*
%TO.N,SW_U2*%
D12*
X40700000Y-34600000D02*
X40700000Y-35095000D01*
X40700000Y-35095000D02*
X34162500Y-35095000D01*
%TO.N,PWR_CTRL_OUT*%
X30100000Y-39700000D02*
X30700000Y-40300000D01*
X30900000Y-40400000D02*
X31300000Y-40400000D01*
X29200000Y-39700000D02*
X30100000Y-39700000D01*
X30700000Y-40300000D02*
X30800000Y-40300000D01*
X31300000Y-40400000D02*
X43800000Y-52900000D01*
X30800000Y-40300000D02*
X30900000Y-40400000D01*
X43800000Y-52900000D02*
X45800000Y-52900000D01*
%TD*%
D14*
X135475000Y-50700000D03*
X133775000Y-60300000D03*
X94275000Y-54500000D03*
X83575000Y-56516000D03*
X59500000Y-64775000D03*
X95350000Y-49135000D03*
X137140000Y-44700000D03*
X51725000Y-41000000D03*
X117580000Y-47220000D03*
X132650000Y-57350000D03*
X121580000Y-43800000D03*
X138060000Y-50100000D03*
X102100000Y-43200000D03*
X103400000Y-50505000D03*
X56500000Y-40250000D03*
X46725000Y-59365000D03*
X101475000Y-50980000D03*
X123580000Y-42280000D03*
X35750000Y-55175000D03*
X103651000Y-55365000D03*
X134430000Y-57300000D03*
X96550000Y-49135000D03*
X133875000Y-59100000D03*
X100275000Y-50980000D03*
X45025000Y-35000000D03*
X96675000Y-54500000D03*
X142080000Y-47100000D03*
X120170000Y-39400000D03*
X84055000Y-54490000D03*
X127580000Y-40380000D03*
X135475000Y-57300000D03*
X133775000Y-45300000D03*
X105315000Y-54790000D03*
X36250000Y-55425000D03*
X103651000Y-52515000D03*
X140340000Y-43500000D03*
X102825000Y-53000000D03*
X93225000Y-53000000D03*
X99075000Y-50980000D03*
X83430000Y-52715000D03*
X62500000Y-65950000D03*
X95050000Y-50755000D03*
X58900000Y-50700000D03*
X133775000Y-57300000D03*
X75770000Y-58550000D03*
X132650000Y-42250000D03*
X102770000Y-44700000D03*
X133229999Y-60300000D03*
X100150000Y-49135000D03*
X133775000Y-44700000D03*
X92025000Y-53000000D03*
X108170000Y-40540000D03*
X30738266Y-53088225D03*
X96250000Y-50755000D03*
X133775000Y-53700000D03*
X131525000Y-46500000D03*
X133875000Y-52500000D03*
X104170000Y-40920000D03*
X42050000Y-62830000D03*
X99225000Y-53000000D03*
X102250000Y-50755000D03*
X37250000Y-48925000D03*
X126170000Y-48140000D03*
X103651000Y-53115000D03*
X129960000Y-48300000D03*
X94425000Y-53000000D03*
X42050000Y-61560000D03*
X65525000Y-63950000D03*
X92025000Y-42000000D03*
X57700000Y-62275000D03*
X116170000Y-40160000D03*
X99075000Y-54500000D03*
X101475000Y-54500000D03*
X36625000Y-54700000D03*
X100275000Y-54500000D03*
X101050000Y-50755000D03*
X81770000Y-57550000D03*
X35250000Y-48575000D03*
X58300000Y-65150000D03*
X99850000Y-50755000D03*
X134430000Y-59100000D03*
X45225000Y-37500000D03*
X133775000Y-48300000D03*
X98650000Y-50755000D03*
X133875000Y-48900000D03*
X39074999Y-53250000D03*
X97750000Y-49135000D03*
X95625000Y-53000000D03*
X112170000Y-42060000D03*
X136125000Y-45300000D03*
X53475000Y-63950000D03*
X92025000Y-40000000D03*
X89625000Y-53000000D03*
X30725000Y-41500000D03*
X95475000Y-54500000D03*
X64900000Y-56900000D03*
X49725000Y-66500000D03*
X31825000Y-36365000D03*
X101625000Y-53000000D03*
X63700000Y-66349999D03*
X42050000Y-57170000D03*
X113580000Y-46460000D03*
X83430000Y-50865000D03*
X105315000Y-53590000D03*
X36750000Y-55425000D03*
X135475000Y-50100000D03*
X90825000Y-53000000D03*
X59500000Y-60625000D03*
X98025000Y-53000000D03*
X36750000Y-49775000D03*
X64300000Y-66750000D03*
X132650000Y-62050000D03*
X103651000Y-51315000D03*
X96675000Y-50980000D03*
X86025000Y-53000000D03*
X53475000Y-61450000D03*
X83430000Y-51515000D03*
X96825000Y-53000000D03*
X133775000Y-50700000D03*
X81480000Y-59050000D03*
X93225000Y-54500000D03*
X102550000Y-49135000D03*
X97875000Y-50980000D03*
X43200000Y-53725000D03*
X84574000Y-53590000D03*
X97450000Y-50755000D03*
X110770000Y-48300000D03*
X45475000Y-40000000D03*
X102675000Y-54500000D03*
X97875000Y-54500000D03*
X130560000Y-44700000D03*
X133875000Y-47100000D03*
X55900000Y-40650000D03*
X95475000Y-50980000D03*
X133830000Y-63300000D03*
X92025000Y-41000000D03*
X32966779Y-51169323D03*
X101350000Y-49135000D03*
X82285000Y-53590000D03*
X103750000Y-49135000D03*
X133775000Y-50100000D03*
X34750000Y-48925000D03*
X87225000Y-53000000D03*
X103400000Y-53815000D03*
X135475000Y-53700000D03*
X100425000Y-53000000D03*
X92025000Y-43000000D03*
X133875000Y-55500000D03*
X59500000Y-50500000D03*
X88425000Y-53000000D03*
X65525000Y-61450000D03*
X57700000Y-64775000D03*
X84574000Y-54190000D03*
X98950000Y-49135000D03*
X102675000Y-50980000D03*
X94425000Y-50980000D03*
X133875000Y-43500000D03*
X133775000Y-62100000D03*
X133775000Y-54900000D03*
X106170000Y-42440000D03*
X61900000Y-66150000D03*
X45800000Y-50275000D03*
X103176000Y-52390000D03*
X84675000Y-53000000D03*
X103651000Y-54765000D03*
X91450000Y-37675000D03*
X136125000Y-44700000D03*
X79480000Y-59050000D03*
X40950000Y-38775000D03*
X56725000Y-68500000D03*
X45950000Y-57170000D03*
X56725000Y-67500000D03*
X56725000Y-66500000D03*
X41275000Y-59365000D03*
X30475000Y-54500000D03*
X56725000Y-69500000D03*
X52000000Y-41500000D03*
X42500000Y-41500000D03*
X59800000Y-40900000D03*
X32525000Y-54500000D03*
X69500000Y-50600000D03*
X28975000Y-53000000D03*
X51725000Y-37000000D03*
X58900000Y-62275000D03*
X34250000Y-55262500D03*
X59864700Y-48439700D03*
X55050000Y-68500000D03*
X82866700Y-51215000D03*
X39987500Y-52750000D03*
X30411329Y-56062563D03*
X32725000Y-56000000D03*
X40162500Y-51250000D03*
X29836871Y-47099923D03*
X33750000Y-47837500D03*
X45950000Y-60635000D03*
X45950000Y-61905000D03*
X62850000Y-50537500D03*
X33225000Y-47880800D03*
X45450000Y-48037500D03*
X134950000Y-56137500D03*
X102550000Y-52137500D03*
X82250000Y-51337500D03*
X41250000Y-48037500D03*
X28275000Y-41500000D03*
X31050000Y-39830000D03*
X35725000Y-37635000D03*
X89000000Y-53975000D03*
X90650000Y-41275000D03*
X85400000Y-53975000D03*
X93800000Y-53525000D03*
X89625000Y-54000000D03*
X89775000Y-38500000D03*
X93800000Y-53975000D03*
X96200000Y-53975000D03*
X90825000Y-54000000D03*
X101725000Y-54000000D03*
X101000000Y-53975000D03*
X97400000Y-53975000D03*
X89975000Y-41000000D03*
X100525000Y-54000000D03*
X86600000Y-53975000D03*
X85875000Y-54000000D03*
X87225000Y-54000000D03*
X92600000Y-53975000D03*
X42525000Y-40000000D03*
X95725000Y-54000000D03*
X28990000Y-38200000D03*
X99800000Y-53975000D03*
X98600000Y-53975000D03*
X88275000Y-54000000D03*
X91400000Y-53975000D03*
X99325000Y-54000000D03*
X90200000Y-53975000D03*
X92600000Y-53525000D03*
X98125000Y-54000000D03*
X89975000Y-40000000D03*
X34950000Y-39830000D03*
X94525000Y-54000000D03*
X91875000Y-54000000D03*
X95000000Y-53975000D03*
X40263888Y-35980223D03*
X87800000Y-53975000D03*
X90650000Y-42275000D03*
X96925000Y-54000000D03*
X102200000Y-53975000D03*
X89100000Y-52366000D03*
X89100000Y-42010000D03*
X89650000Y-51423000D03*
X89650000Y-42510000D03*
X90300000Y-52366000D03*
X90300000Y-43080000D03*
X90850000Y-51423000D03*
X90850000Y-43580000D03*
X91500000Y-52366000D03*
X91500000Y-44150000D03*
X92050000Y-51423000D03*
X92050000Y-44650000D03*
X92700000Y-52366000D03*
X92700000Y-34520000D03*
X93700000Y-51673000D03*
X93700000Y-35020000D03*
X135000000Y-62100000D03*
X91300000Y-67200000D03*
X53930800Y-37016100D03*
X43200000Y-51100000D03*
X84850000Y-54880000D03*
X84850000Y-56834000D03*
X84350000Y-55723000D03*
X84350000Y-56334000D03*
X86050000Y-54880000D03*
X86050000Y-57783000D03*
X85500000Y-55823000D03*
X85500000Y-58283000D03*
X87250000Y-54880000D03*
X87250000Y-59732000D03*
X86700000Y-55823000D03*
X86700000Y-59232000D03*
X88450000Y-54880000D03*
X88450000Y-60681000D03*
X87900000Y-55823000D03*
X87900000Y-61181000D03*
X89650000Y-54880000D03*
X89650000Y-62630000D03*
X89100000Y-55823000D03*
X89100000Y-62130000D03*
X90850000Y-54880000D03*
X90850000Y-63579000D03*
X90300000Y-55823000D03*
X90300000Y-64078999D03*
X92050000Y-54880000D03*
X92050000Y-65528000D03*
X91500000Y-55823000D03*
X91500000Y-65028000D03*
X93700000Y-55130000D03*
X93700000Y-66477000D03*
X92700000Y-55823000D03*
X92700000Y-66977000D03*
X86050000Y-51423000D03*
X86050000Y-39870000D03*
X86700000Y-52366000D03*
X86700000Y-39300000D03*
X87250000Y-51423000D03*
X87250000Y-38800000D03*
X87900000Y-52366000D03*
X87900000Y-38230000D03*
X88450000Y-51423000D03*
X88450000Y-37730000D03*
X105125000Y-52090000D03*
X82025000Y-62190000D03*
X84300000Y-52366000D03*
X84300000Y-41440000D03*
X84850000Y-51423000D03*
X84850000Y-40940000D03*
X85500000Y-52366000D03*
X85500000Y-40370000D03*
X40700000Y-34600000D03*
X34162500Y-35095000D03*
X45800000Y-52900000D03*
D15*
X26100000Y-75600000D03*
X139600000Y-39600000D03*
X31750000Y-65380000D03*
X29210000Y-65380000D03*
X26670000Y-65380000D03*
X24130000Y-65380000D03*
X31750000Y-55960000D03*
X29210000Y-55960000D03*
X26670000Y-55960000D03*
X24130000Y-55960000D03*
X45100000Y-75100000D03*
X31750000Y-46540000D03*
X29210000Y-46540000D03*
X26670000Y-46540000D03*
X24130000Y-46540000D03*
X114600000Y-36100000D03*
X29210000Y-39660000D03*
X26670000Y-39660000D03*
X29210000Y-35320000D03*
X26670000Y-35320000D03*
M02*
