%TF.GenerationSoftware,KiCad,Pcbnew,10.0.5*%
%TF.CreationDate,2026-09-19T00:00:00+08:00*%
%TF.ProjectId,k2_v4_8L.l7,6b325f76-345f-4384-9c2e-6c372e6b6963,rev?*%
%TF.SameCoordinates,Original*%
%TF.FileFunction,Soldermask,Bot*%
%TF.FilePolarity,Negative*%
%FSLAX46Y46*%
G04 Gerber Fmt 4.6, Leading zero omitted, Abs format (unit mm)*
G04 Created by KiCad (PCBNEW 10.0.5) date 2026-09-19T00:00:00+08:00*
%MOMM*%
%LPD*%
G01*
G04 APERTURE LIST*
%ADD10C,0.350000*%
G04 APERTURE END LIST*
G36*
X26219305Y-73955086D02*
G01*
X26229458Y-73955086D01*
X26279456Y-73963005D01*
X26421889Y-73981757D01*
X26456643Y-73991069D01*
X26485185Y-73995590D01*
X26540070Y-74013423D01*
X26630356Y-74037615D01*
X26687960Y-74061475D01*
X26731428Y-74075599D01*
X26772151Y-74096348D01*
X26829753Y-74120208D01*
X26910701Y-74166943D01*
X26962123Y-74193144D01*
X26985498Y-74210127D01*
X27016663Y-74228120D01*
X27130664Y-74315596D01*
X27171589Y-74345330D01*
X27178762Y-74352503D01*
X27187883Y-74359502D01*
X27340497Y-74512116D01*
X27347495Y-74521236D01*
X27354670Y-74528411D01*
X27384407Y-74569341D01*
X27471879Y-74683336D01*
X27489870Y-74714498D01*
X27506856Y-74737877D01*
X27533059Y-74789304D01*
X27579791Y-74870246D01*
X27603648Y-74927842D01*
X27624401Y-74968572D01*
X27638526Y-75012045D01*
X27662384Y-75069643D01*
X27686572Y-75159916D01*
X27704410Y-75214815D01*
X27708931Y-75243362D01*
X27718242Y-75278110D01*
X27736993Y-75420535D01*
X27744914Y-75470542D01*
X27744914Y-75480693D01*
X27746414Y-75492087D01*
X27746414Y-75707912D01*
X27744914Y-75719305D01*
X27744914Y-75729458D01*
X27736992Y-75779468D01*
X27718242Y-75921889D01*
X27708932Y-75956634D01*
X27704410Y-75985185D01*
X27686571Y-76040087D01*
X27662384Y-76130356D01*
X27638528Y-76187949D01*
X27624401Y-76231428D01*
X27603646Y-76272161D01*
X27579791Y-76329753D01*
X27533063Y-76410687D01*
X27506856Y-76462123D01*
X27489868Y-76485504D01*
X27471879Y-76516663D01*
X27384421Y-76630639D01*
X27354670Y-76671589D01*
X27347491Y-76678767D01*
X27340497Y-76687883D01*
X27187883Y-76840497D01*
X27178767Y-76847491D01*
X27171589Y-76854670D01*
X27130639Y-76884421D01*
X27016663Y-76971879D01*
X26985504Y-76989868D01*
X26962123Y-77006856D01*
X26910687Y-77033063D01*
X26829753Y-77079791D01*
X26772161Y-77103646D01*
X26731428Y-77124401D01*
X26687949Y-77138528D01*
X26630356Y-77162384D01*
X26540087Y-77186571D01*
X26485185Y-77204410D01*
X26456634Y-77208932D01*
X26421889Y-77218242D01*
X26279468Y-77236992D01*
X26229458Y-77244914D01*
X26219305Y-77244914D01*
X26207912Y-77246414D01*
X25992088Y-77246414D01*
X25980695Y-77244914D01*
X25970542Y-77244914D01*
X25920532Y-77236993D01*
X25778110Y-77218242D01*
X25743362Y-77208931D01*
X25714815Y-77204410D01*
X25659916Y-77186572D01*
X25569643Y-77162384D01*
X25512045Y-77138526D01*
X25468572Y-77124401D01*
X25427842Y-77103648D01*
X25370246Y-77079791D01*
X25289304Y-77033059D01*
X25237877Y-77006856D01*
X25214498Y-76989870D01*
X25183336Y-76971879D01*
X25069341Y-76884407D01*
X25028411Y-76854670D01*
X25021236Y-76847495D01*
X25012116Y-76840497D01*
X24859502Y-76687883D01*
X24852503Y-76678762D01*
X24845330Y-76671589D01*
X24815596Y-76630664D01*
X24728120Y-76516663D01*
X24710127Y-76485498D01*
X24693144Y-76462123D01*
X24666943Y-76410701D01*
X24620208Y-76329753D01*
X24596348Y-76272151D01*
X24575599Y-76231428D01*
X24561475Y-76187960D01*
X24537615Y-76130356D01*
X24513423Y-76040070D01*
X24495590Y-75985185D01*
X24491069Y-75956643D01*
X24481757Y-75921889D01*
X24463005Y-75779456D01*
X24455086Y-75729458D01*
X24455086Y-75719305D01*
X24453586Y-75707912D01*
X24453586Y-75492087D01*
X24455086Y-75480693D01*
X24455086Y-75470542D01*
X24463004Y-75420548D01*
X24481757Y-75278110D01*
X24491069Y-75243353D01*
X24495590Y-75214815D01*
X24513421Y-75159934D01*
X24537615Y-75069643D01*
X24561477Y-75012034D01*
X24575599Y-74968572D01*
X24596346Y-74927852D01*
X24620208Y-74870246D01*
X24666947Y-74789289D01*
X24693144Y-74737877D01*
X24710124Y-74714505D01*
X24728120Y-74683336D01*
X24815610Y-74569316D01*
X24845330Y-74528411D01*
X24852500Y-74521240D01*
X24859502Y-74512116D01*
X25012116Y-74359502D01*
X25021240Y-74352500D01*
X25028411Y-74345330D01*
X25069316Y-74315610D01*
X25183336Y-74228120D01*
X25214505Y-74210124D01*
X25237877Y-74193144D01*
X25289289Y-74166947D01*
X25370246Y-74120208D01*
X25427852Y-74096346D01*
X25468572Y-74075599D01*
X25512034Y-74061477D01*
X25569643Y-74037615D01*
X25659934Y-74013421D01*
X25714815Y-73995590D01*
X25743353Y-73991069D01*
X25778110Y-73981757D01*
X25920545Y-73963004D01*
X25970542Y-73955086D01*
X25980694Y-73955086D01*
X25992088Y-73953586D01*
X26207912Y-73953586D01*
X26219305Y-73955086D01*
G37*
G36*
X45219305Y-73455086D02*
G01*
X45229458Y-73455086D01*
X45279456Y-73463005D01*
X45421889Y-73481757D01*
X45456643Y-73491069D01*
X45485185Y-73495590D01*
X45540070Y-73513423D01*
X45630356Y-73537615D01*
X45687960Y-73561475D01*
X45731428Y-73575599D01*
X45772151Y-73596348D01*
X45829753Y-73620208D01*
X45910701Y-73666943D01*
X45962123Y-73693144D01*
X45985498Y-73710127D01*
X46016663Y-73728120D01*
X46130664Y-73815596D01*
X46171589Y-73845330D01*
X46178762Y-73852503D01*
X46187883Y-73859502D01*
X46340497Y-74012116D01*
X46347495Y-74021236D01*
X46354670Y-74028411D01*
X46384407Y-74069341D01*
X46471879Y-74183336D01*
X46489870Y-74214498D01*
X46506856Y-74237877D01*
X46533059Y-74289304D01*
X46579791Y-74370246D01*
X46603648Y-74427842D01*
X46624401Y-74468572D01*
X46638526Y-74512045D01*
X46662384Y-74569643D01*
X46686572Y-74659916D01*
X46704410Y-74714815D01*
X46708931Y-74743362D01*
X46718242Y-74778110D01*
X46736993Y-74920535D01*
X46744914Y-74970542D01*
X46744914Y-74980693D01*
X46746414Y-74992087D01*
X46746414Y-75207912D01*
X46744914Y-75219305D01*
X46744914Y-75229458D01*
X46736992Y-75279468D01*
X46718242Y-75421889D01*
X46708932Y-75456634D01*
X46704410Y-75485185D01*
X46686571Y-75540087D01*
X46662384Y-75630356D01*
X46638528Y-75687949D01*
X46624401Y-75731428D01*
X46603646Y-75772161D01*
X46579791Y-75829753D01*
X46533063Y-75910687D01*
X46506856Y-75962123D01*
X46489868Y-75985504D01*
X46471879Y-76016663D01*
X46384421Y-76130639D01*
X46354670Y-76171589D01*
X46347491Y-76178767D01*
X46340497Y-76187883D01*
X46187883Y-76340497D01*
X46178767Y-76347491D01*
X46171589Y-76354670D01*
X46130639Y-76384421D01*
X46016663Y-76471879D01*
X45985504Y-76489868D01*
X45962123Y-76506856D01*
X45910687Y-76533063D01*
X45829753Y-76579791D01*
X45772161Y-76603646D01*
X45731428Y-76624401D01*
X45687949Y-76638528D01*
X45630356Y-76662384D01*
X45540087Y-76686571D01*
X45485185Y-76704410D01*
X45456634Y-76708932D01*
X45421889Y-76718242D01*
X45279468Y-76736992D01*
X45229458Y-76744914D01*
X45219305Y-76744914D01*
X45207912Y-76746414D01*
X44992088Y-76746414D01*
X44980695Y-76744914D01*
X44970542Y-76744914D01*
X44920532Y-76736993D01*
X44778110Y-76718242D01*
X44743362Y-76708931D01*
X44714815Y-76704410D01*
X44659916Y-76686572D01*
X44569643Y-76662384D01*
X44512045Y-76638526D01*
X44468572Y-76624401D01*
X44427842Y-76603648D01*
X44370246Y-76579791D01*
X44289304Y-76533059D01*
X44237877Y-76506856D01*
X44214498Y-76489870D01*
X44183336Y-76471879D01*
X44069341Y-76384407D01*
X44028411Y-76354670D01*
X44021236Y-76347495D01*
X44012116Y-76340497D01*
X43859502Y-76187883D01*
X43852503Y-76178762D01*
X43845330Y-76171589D01*
X43815596Y-76130664D01*
X43728120Y-76016663D01*
X43710127Y-75985498D01*
X43693144Y-75962123D01*
X43666943Y-75910701D01*
X43620208Y-75829753D01*
X43596348Y-75772151D01*
X43575599Y-75731428D01*
X43561475Y-75687960D01*
X43537615Y-75630356D01*
X43513423Y-75540070D01*
X43495590Y-75485185D01*
X43491069Y-75456643D01*
X43481757Y-75421889D01*
X43463005Y-75279456D01*
X43455086Y-75229458D01*
X43455086Y-75219305D01*
X43453586Y-75207912D01*
X43453586Y-74992087D01*
X43455086Y-74980693D01*
X43455086Y-74970542D01*
X43463004Y-74920548D01*
X43481757Y-74778110D01*
X43491069Y-74743353D01*
X43495590Y-74714815D01*
X43513421Y-74659934D01*
X43537615Y-74569643D01*
X43561477Y-74512034D01*
X43575599Y-74468572D01*
X43596346Y-74427852D01*
X43620208Y-74370246D01*
X43666947Y-74289289D01*
X43693144Y-74237877D01*
X43710124Y-74214505D01*
X43728120Y-74183336D01*
X43815610Y-74069316D01*
X43845330Y-74028411D01*
X43852500Y-74021240D01*
X43859502Y-74012116D01*
X44012116Y-73859502D01*
X44021240Y-73852500D01*
X44028411Y-73845330D01*
X44069316Y-73815610D01*
X44183336Y-73728120D01*
X44214505Y-73710124D01*
X44237877Y-73693144D01*
X44289289Y-73666947D01*
X44370246Y-73620208D01*
X44427852Y-73596346D01*
X44468572Y-73575599D01*
X44512034Y-73561477D01*
X44569643Y-73537615D01*
X44659934Y-73513421D01*
X44714815Y-73495590D01*
X44743353Y-73491069D01*
X44778110Y-73481757D01*
X44920545Y-73463004D01*
X44970542Y-73455086D01*
X44980694Y-73455086D01*
X44992088Y-73453586D01*
X45207912Y-73453586D01*
X45219305Y-73455086D01*
G37*
G36*
X24362228Y-64614448D02*
G01*
X24507117Y-64674463D01*
X24637515Y-64761592D01*
X24748408Y-64872485D01*
X24835537Y-65002883D01*
X24895552Y-65147772D01*
X24926148Y-65301586D01*
X24926148Y-65458414D01*
X24895552Y-65612228D01*
X24835537Y-65757117D01*
X24748408Y-65887515D01*
X24637515Y-65998408D01*
X24507117Y-66085537D01*
X24362228Y-66145552D01*
X24208414Y-66176148D01*
X24051586Y-66176148D01*
X23897772Y-66145552D01*
X23752883Y-66085537D01*
X23622485Y-65998408D01*
X23511592Y-65887515D01*
X23424463Y-65757117D01*
X23364448Y-65612228D01*
X23333852Y-65458414D01*
X23333852Y-65301586D01*
X23364448Y-65147772D01*
X23424463Y-65002883D01*
X23511592Y-64872485D01*
X23622485Y-64761592D01*
X23752883Y-64674463D01*
X23897772Y-64614448D01*
X24051586Y-64583852D01*
X24208414Y-64583852D01*
X24362228Y-64614448D01*
G37*
G36*
X26902228Y-64614448D02*
G01*
X27047117Y-64674463D01*
X27177515Y-64761592D01*
X27288408Y-64872485D01*
X27375537Y-65002883D01*
X27435552Y-65147772D01*
X27466148Y-65301586D01*
X27466148Y-65458414D01*
X27435552Y-65612228D01*
X27375537Y-65757117D01*
X27288408Y-65887515D01*
X27177515Y-65998408D01*
X27047117Y-66085537D01*
X26902228Y-66145552D01*
X26748414Y-66176148D01*
X26591586Y-66176148D01*
X26437772Y-66145552D01*
X26292883Y-66085537D01*
X26162485Y-65998408D01*
X26051592Y-65887515D01*
X25964463Y-65757117D01*
X25904448Y-65612228D01*
X25873852Y-65458414D01*
X25873852Y-65301586D01*
X25904448Y-65147772D01*
X25964463Y-65002883D01*
X26051592Y-64872485D01*
X26162485Y-64761592D01*
X26292883Y-64674463D01*
X26437772Y-64614448D01*
X26591586Y-64583852D01*
X26748414Y-64583852D01*
X26902228Y-64614448D01*
G37*
G36*
X29442228Y-64614448D02*
G01*
X29587117Y-64674463D01*
X29717515Y-64761592D01*
X29828408Y-64872485D01*
X29915537Y-65002883D01*
X29975552Y-65147772D01*
X30006148Y-65301586D01*
X30006148Y-65458414D01*
X29975552Y-65612228D01*
X29915537Y-65757117D01*
X29828408Y-65887515D01*
X29717515Y-65998408D01*
X29587117Y-66085537D01*
X29442228Y-66145552D01*
X29288414Y-66176148D01*
X29131586Y-66176148D01*
X28977772Y-66145552D01*
X28832883Y-66085537D01*
X28702485Y-65998408D01*
X28591592Y-65887515D01*
X28504463Y-65757117D01*
X28444448Y-65612228D01*
X28413852Y-65458414D01*
X28413852Y-65301586D01*
X28444448Y-65147772D01*
X28504463Y-65002883D01*
X28591592Y-64872485D01*
X28702485Y-64761592D01*
X28832883Y-64674463D01*
X28977772Y-64614448D01*
X29131586Y-64583852D01*
X29288414Y-64583852D01*
X29442228Y-64614448D01*
G37*
G36*
X31982228Y-64614448D02*
G01*
X32127117Y-64674463D01*
X32257515Y-64761592D01*
X32368408Y-64872485D01*
X32455537Y-65002883D01*
X32515552Y-65147772D01*
X32546148Y-65301586D01*
X32546148Y-65458414D01*
X32515552Y-65612228D01*
X32455537Y-65757117D01*
X32368408Y-65887515D01*
X32257515Y-65998408D01*
X32127117Y-66085537D01*
X31982228Y-66145552D01*
X31828414Y-66176148D01*
X31671586Y-66176148D01*
X31517772Y-66145552D01*
X31372883Y-66085537D01*
X31242485Y-65998408D01*
X31131592Y-65887515D01*
X31044463Y-65757117D01*
X30984448Y-65612228D01*
X30953852Y-65458414D01*
X30953852Y-65301586D01*
X30984448Y-65147772D01*
X31044463Y-65002883D01*
X31131592Y-64872485D01*
X31242485Y-64761592D01*
X31372883Y-64674463D01*
X31517772Y-64614448D01*
X31671586Y-64583852D01*
X31828414Y-64583852D01*
X31982228Y-64614448D01*
G37*
G36*
X24362228Y-55194448D02*
G01*
X24507117Y-55254463D01*
X24637515Y-55341592D01*
X24748408Y-55452485D01*
X24835537Y-55582883D01*
X24895552Y-55727772D01*
X24926148Y-55881586D01*
X24926148Y-56038414D01*
X24895552Y-56192228D01*
X24835537Y-56337117D01*
X24748408Y-56467515D01*
X24637515Y-56578408D01*
X24507117Y-56665537D01*
X24362228Y-56725552D01*
X24208414Y-56756148D01*
X24051586Y-56756148D01*
X23897772Y-56725552D01*
X23752883Y-56665537D01*
X23622485Y-56578408D01*
X23511592Y-56467515D01*
X23424463Y-56337117D01*
X23364448Y-56192228D01*
X23333852Y-56038414D01*
X23333852Y-55881586D01*
X23364448Y-55727772D01*
X23424463Y-55582883D01*
X23511592Y-55452485D01*
X23622485Y-55341592D01*
X23752883Y-55254463D01*
X23897772Y-55194448D01*
X24051586Y-55163852D01*
X24208414Y-55163852D01*
X24362228Y-55194448D01*
G37*
G36*
X26902228Y-55194448D02*
G01*
X27047117Y-55254463D01*
X27177515Y-55341592D01*
X27288408Y-55452485D01*
X27375537Y-55582883D01*
X27435552Y-55727772D01*
X27466148Y-55881586D01*
X27466148Y-56038414D01*
X27435552Y-56192228D01*
X27375537Y-56337117D01*
X27288408Y-56467515D01*
X27177515Y-56578408D01*
X27047117Y-56665537D01*
X26902228Y-56725552D01*
X26748414Y-56756148D01*
X26591586Y-56756148D01*
X26437772Y-56725552D01*
X26292883Y-56665537D01*
X26162485Y-56578408D01*
X26051592Y-56467515D01*
X25964463Y-56337117D01*
X25904448Y-56192228D01*
X25873852Y-56038414D01*
X25873852Y-55881586D01*
X25904448Y-55727772D01*
X25964463Y-55582883D01*
X26051592Y-55452485D01*
X26162485Y-55341592D01*
X26292883Y-55254463D01*
X26437772Y-55194448D01*
X26591586Y-55163852D01*
X26748414Y-55163852D01*
X26902228Y-55194448D01*
G37*
G36*
X29442228Y-55194448D02*
G01*
X29587117Y-55254463D01*
X29717515Y-55341592D01*
X29828408Y-55452485D01*
X29915537Y-55582883D01*
X29975552Y-55727772D01*
X30006148Y-55881586D01*
X30006148Y-56038414D01*
X29975552Y-56192228D01*
X29915537Y-56337117D01*
X29828408Y-56467515D01*
X29717515Y-56578408D01*
X29587117Y-56665537D01*
X29442228Y-56725552D01*
X29288414Y-56756148D01*
X29131586Y-56756148D01*
X28977772Y-56725552D01*
X28832883Y-56665537D01*
X28702485Y-56578408D01*
X28591592Y-56467515D01*
X28504463Y-56337117D01*
X28444448Y-56192228D01*
X28413852Y-56038414D01*
X28413852Y-55881586D01*
X28444448Y-55727772D01*
X28504463Y-55582883D01*
X28591592Y-55452485D01*
X28702485Y-55341592D01*
X28832883Y-55254463D01*
X28977772Y-55194448D01*
X29131586Y-55163852D01*
X29288414Y-55163852D01*
X29442228Y-55194448D01*
G37*
G36*
X31982228Y-55194448D02*
G01*
X32127117Y-55254463D01*
X32257515Y-55341592D01*
X32368408Y-55452485D01*
X32455537Y-55582883D01*
X32515552Y-55727772D01*
X32546148Y-55881586D01*
X32546148Y-56038414D01*
X32515552Y-56192228D01*
X32455537Y-56337117D01*
X32368408Y-56467515D01*
X32257515Y-56578408D01*
X32127117Y-56665537D01*
X31982228Y-56725552D01*
X31828414Y-56756148D01*
X31671586Y-56756148D01*
X31517772Y-56725552D01*
X31372883Y-56665537D01*
X31242485Y-56578408D01*
X31131592Y-56467515D01*
X31044463Y-56337117D01*
X30984448Y-56192228D01*
X30953852Y-56038414D01*
X30953852Y-55881586D01*
X30984448Y-55727772D01*
X31044463Y-55582883D01*
X31131592Y-55452485D01*
X31242485Y-55341592D01*
X31372883Y-55254463D01*
X31517772Y-55194448D01*
X31671586Y-55163852D01*
X31828414Y-55163852D01*
X31982228Y-55194448D01*
G37*
G36*
X24362228Y-45774448D02*
G01*
X24507117Y-45834463D01*
X24637515Y-45921592D01*
X24748408Y-46032485D01*
X24835537Y-46162883D01*
X24895552Y-46307772D01*
X24926148Y-46461586D01*
X24926148Y-46618414D01*
X24895552Y-46772228D01*
X24835537Y-46917117D01*
X24748408Y-47047515D01*
X24637515Y-47158408D01*
X24507117Y-47245537D01*
X24362228Y-47305552D01*
X24208414Y-47336148D01*
X24051586Y-47336148D01*
X23897772Y-47305552D01*
X23752883Y-47245537D01*
X23622485Y-47158408D01*
X23511592Y-47047515D01*
X23424463Y-46917117D01*
X23364448Y-46772228D01*
X23333852Y-46618414D01*
X23333852Y-46461586D01*
X23364448Y-46307772D01*
X23424463Y-46162883D01*
X23511592Y-46032485D01*
X23622485Y-45921592D01*
X23752883Y-45834463D01*
X23897772Y-45774448D01*
X24051586Y-45743852D01*
X24208414Y-45743852D01*
X24362228Y-45774448D01*
G37*
G36*
X26902228Y-45774448D02*
G01*
X27047117Y-45834463D01*
X27177515Y-45921592D01*
X27288408Y-46032485D01*
X27375537Y-46162883D01*
X27435552Y-46307772D01*
X27466148Y-46461586D01*
X27466148Y-46618414D01*
X27435552Y-46772228D01*
X27375537Y-46917117D01*
X27288408Y-47047515D01*
X27177515Y-47158408D01*
X27047117Y-47245537D01*
X26902228Y-47305552D01*
X26748414Y-47336148D01*
X26591586Y-47336148D01*
X26437772Y-47305552D01*
X26292883Y-47245537D01*
X26162485Y-47158408D01*
X26051592Y-47047515D01*
X25964463Y-46917117D01*
X25904448Y-46772228D01*
X25873852Y-46618414D01*
X25873852Y-46461586D01*
X25904448Y-46307772D01*
X25964463Y-46162883D01*
X26051592Y-46032485D01*
X26162485Y-45921592D01*
X26292883Y-45834463D01*
X26437772Y-45774448D01*
X26591586Y-45743852D01*
X26748414Y-45743852D01*
X26902228Y-45774448D01*
G37*
G36*
X29442228Y-45774448D02*
G01*
X29587117Y-45834463D01*
X29717515Y-45921592D01*
X29828408Y-46032485D01*
X29915537Y-46162883D01*
X29975552Y-46307772D01*
X30006148Y-46461586D01*
X30006148Y-46618414D01*
X29975552Y-46772228D01*
X29915537Y-46917117D01*
X29828408Y-47047515D01*
X29717515Y-47158408D01*
X29587117Y-47245537D01*
X29442228Y-47305552D01*
X29288414Y-47336148D01*
X29131586Y-47336148D01*
X28977772Y-47305552D01*
X28832883Y-47245537D01*
X28702485Y-47158408D01*
X28591592Y-47047515D01*
X28504463Y-46917117D01*
X28444448Y-46772228D01*
X28413852Y-46618414D01*
X28413852Y-46461586D01*
X28444448Y-46307772D01*
X28504463Y-46162883D01*
X28591592Y-46032485D01*
X28702485Y-45921592D01*
X28832883Y-45834463D01*
X28977772Y-45774448D01*
X29131586Y-45743852D01*
X29288414Y-45743852D01*
X29442228Y-45774448D01*
G37*
G36*
X31982228Y-45774448D02*
G01*
X32127117Y-45834463D01*
X32257515Y-45921592D01*
X32368408Y-46032485D01*
X32455537Y-46162883D01*
X32515552Y-46307772D01*
X32546148Y-46461586D01*
X32546148Y-46618414D01*
X32515552Y-46772228D01*
X32455537Y-46917117D01*
X32368408Y-47047515D01*
X32257515Y-47158408D01*
X32127117Y-47245537D01*
X31982228Y-47305552D01*
X31828414Y-47336148D01*
X31671586Y-47336148D01*
X31517772Y-47305552D01*
X31372883Y-47245537D01*
X31242485Y-47158408D01*
X31131592Y-47047515D01*
X31044463Y-46917117D01*
X30984448Y-46772228D01*
X30953852Y-46618414D01*
X30953852Y-46461586D01*
X30984448Y-46307772D01*
X31044463Y-46162883D01*
X31131592Y-46032485D01*
X31242485Y-45921592D01*
X31372883Y-45834463D01*
X31517772Y-45774448D01*
X31671586Y-45743852D01*
X31828414Y-45743852D01*
X31982228Y-45774448D01*
G37*
G36*
X139719305Y-37955086D02*
G01*
X139729458Y-37955086D01*
X139779456Y-37963005D01*
X139921889Y-37981757D01*
X139956643Y-37991069D01*
X139985185Y-37995590D01*
X140040070Y-38013423D01*
X140130356Y-38037615D01*
X140187960Y-38061475D01*
X140231428Y-38075599D01*
X140272151Y-38096348D01*
X140329753Y-38120208D01*
X140410701Y-38166943D01*
X140462123Y-38193144D01*
X140485498Y-38210127D01*
X140516663Y-38228120D01*
X140630664Y-38315596D01*
X140671589Y-38345330D01*
X140678762Y-38352503D01*
X140687883Y-38359502D01*
X140840497Y-38512116D01*
X140847495Y-38521236D01*
X140854670Y-38528411D01*
X140884407Y-38569341D01*
X140971879Y-38683336D01*
X140989870Y-38714498D01*
X141006856Y-38737877D01*
X141033059Y-38789304D01*
X141079791Y-38870246D01*
X141103648Y-38927842D01*
X141124401Y-38968572D01*
X141138526Y-39012045D01*
X141162384Y-39069643D01*
X141186572Y-39159916D01*
X141204410Y-39214815D01*
X141208931Y-39243362D01*
X141218242Y-39278110D01*
X141236993Y-39420535D01*
X141244914Y-39470542D01*
X141244914Y-39480693D01*
X141246414Y-39492087D01*
X141246414Y-39707912D01*
X141244914Y-39719305D01*
X141244914Y-39729458D01*
X141236992Y-39779468D01*
X141218242Y-39921889D01*
X141208932Y-39956634D01*
X141204410Y-39985185D01*
X141186571Y-40040087D01*
X141162384Y-40130356D01*
X141138528Y-40187949D01*
X141124401Y-40231428D01*
X141103646Y-40272161D01*
X141079791Y-40329753D01*
X141033063Y-40410687D01*
X141006856Y-40462123D01*
X140989868Y-40485504D01*
X140971879Y-40516663D01*
X140884421Y-40630639D01*
X140854670Y-40671589D01*
X140847491Y-40678767D01*
X140840497Y-40687883D01*
X140687883Y-40840497D01*
X140678767Y-40847491D01*
X140671589Y-40854670D01*
X140630639Y-40884421D01*
X140516663Y-40971879D01*
X140485504Y-40989868D01*
X140462123Y-41006856D01*
X140410687Y-41033063D01*
X140329753Y-41079791D01*
X140272161Y-41103646D01*
X140231428Y-41124401D01*
X140187949Y-41138528D01*
X140130356Y-41162384D01*
X140040087Y-41186571D01*
X139985185Y-41204410D01*
X139956634Y-41208932D01*
X139921889Y-41218242D01*
X139779468Y-41236992D01*
X139729458Y-41244914D01*
X139719305Y-41244914D01*
X139707912Y-41246414D01*
X139492088Y-41246414D01*
X139480695Y-41244914D01*
X139470542Y-41244914D01*
X139420532Y-41236993D01*
X139278110Y-41218242D01*
X139243362Y-41208931D01*
X139214815Y-41204410D01*
X139159916Y-41186572D01*
X139069643Y-41162384D01*
X139012045Y-41138526D01*
X138968572Y-41124401D01*
X138927842Y-41103648D01*
X138870246Y-41079791D01*
X138789304Y-41033059D01*
X138737877Y-41006856D01*
X138714498Y-40989870D01*
X138683336Y-40971879D01*
X138569341Y-40884407D01*
X138528411Y-40854670D01*
X138521236Y-40847495D01*
X138512116Y-40840497D01*
X138359502Y-40687883D01*
X138352503Y-40678762D01*
X138345330Y-40671589D01*
X138315596Y-40630664D01*
X138228120Y-40516663D01*
X138210127Y-40485498D01*
X138193144Y-40462123D01*
X138166943Y-40410701D01*
X138120208Y-40329753D01*
X138096348Y-40272151D01*
X138075599Y-40231428D01*
X138061475Y-40187960D01*
X138037615Y-40130356D01*
X138013423Y-40040070D01*
X137995590Y-39985185D01*
X137991069Y-39956643D01*
X137981757Y-39921889D01*
X137963005Y-39779456D01*
X137955086Y-39729458D01*
X137955086Y-39719305D01*
X137953586Y-39707912D01*
X137953586Y-39492087D01*
X137955086Y-39480693D01*
X137955086Y-39470542D01*
X137963004Y-39420548D01*
X137981757Y-39278110D01*
X137991069Y-39243353D01*
X137995590Y-39214815D01*
X138013421Y-39159934D01*
X138037615Y-39069643D01*
X138061477Y-39012034D01*
X138075599Y-38968572D01*
X138096346Y-38927852D01*
X138120208Y-38870246D01*
X138166947Y-38789289D01*
X138193144Y-38737877D01*
X138210124Y-38714505D01*
X138228120Y-38683336D01*
X138315610Y-38569316D01*
X138345330Y-38528411D01*
X138352500Y-38521240D01*
X138359502Y-38512116D01*
X138512116Y-38359502D01*
X138521240Y-38352500D01*
X138528411Y-38345330D01*
X138569316Y-38315610D01*
X138683336Y-38228120D01*
X138714505Y-38210124D01*
X138737877Y-38193144D01*
X138789289Y-38166947D01*
X138870246Y-38120208D01*
X138927852Y-38096346D01*
X138968572Y-38075599D01*
X139012034Y-38061477D01*
X139069643Y-38037615D01*
X139159934Y-38013421D01*
X139214815Y-37995590D01*
X139243353Y-37991069D01*
X139278110Y-37981757D01*
X139420545Y-37963004D01*
X139470542Y-37955086D01*
X139480694Y-37955086D01*
X139492088Y-37953586D01*
X139707912Y-37953586D01*
X139719305Y-37955086D01*
G37*
G36*
X26902228Y-38894448D02*
G01*
X27047117Y-38954463D01*
X27177515Y-39041592D01*
X27288408Y-39152485D01*
X27375537Y-39282883D01*
X27435552Y-39427772D01*
X27466148Y-39581586D01*
X27466148Y-39738414D01*
X27435552Y-39892228D01*
X27375537Y-40037117D01*
X27288408Y-40167515D01*
X27177515Y-40278408D01*
X27047117Y-40365537D01*
X26902228Y-40425552D01*
X26748414Y-40456148D01*
X26591586Y-40456148D01*
X26437772Y-40425552D01*
X26292883Y-40365537D01*
X26162485Y-40278408D01*
X26051592Y-40167515D01*
X25964463Y-40037117D01*
X25904448Y-39892228D01*
X25873852Y-39738414D01*
X25873852Y-39581586D01*
X25904448Y-39427772D01*
X25964463Y-39282883D01*
X26051592Y-39152485D01*
X26162485Y-39041592D01*
X26292883Y-38954463D01*
X26437772Y-38894448D01*
X26591586Y-38863852D01*
X26748414Y-38863852D01*
X26902228Y-38894448D01*
G37*
G36*
X29442228Y-38894448D02*
G01*
X29587117Y-38954463D01*
X29717515Y-39041592D01*
X29828408Y-39152485D01*
X29915537Y-39282883D01*
X29975552Y-39427772D01*
X30006148Y-39581586D01*
X30006148Y-39738414D01*
X29975552Y-39892228D01*
X29915537Y-40037117D01*
X29828408Y-40167515D01*
X29717515Y-40278408D01*
X29587117Y-40365537D01*
X29442228Y-40425552D01*
X29288414Y-40456148D01*
X29131586Y-40456148D01*
X28977772Y-40425552D01*
X28832883Y-40365537D01*
X28702485Y-40278408D01*
X28591592Y-40167515D01*
X28504463Y-40037117D01*
X28444448Y-39892228D01*
X28413852Y-39738414D01*
X28413852Y-39581586D01*
X28444448Y-39427772D01*
X28504463Y-39282883D01*
X28591592Y-39152485D01*
X28702485Y-39041592D01*
X28832883Y-38954463D01*
X28977772Y-38894448D01*
X29131586Y-38863852D01*
X29288414Y-38863852D01*
X29442228Y-38894448D01*
G37*
G36*
X114719305Y-34455086D02*
G01*
X114729458Y-34455086D01*
X114779456Y-34463005D01*
X114921889Y-34481757D01*
X114956643Y-34491069D01*
X114985185Y-34495590D01*
X115040070Y-34513423D01*
X115130356Y-34537615D01*
X115187960Y-34561475D01*
X115231428Y-34575599D01*
X115272151Y-34596348D01*
X115329753Y-34620208D01*
X115410701Y-34666943D01*
X115462123Y-34693144D01*
X115485498Y-34710127D01*
X115516663Y-34728120D01*
X115630664Y-34815596D01*
X115671589Y-34845330D01*
X115678762Y-34852503D01*
X115687883Y-34859502D01*
X115840497Y-35012116D01*
X115847495Y-35021236D01*
X115854670Y-35028411D01*
X115884407Y-35069341D01*
X115971879Y-35183336D01*
X115989870Y-35214498D01*
X116006856Y-35237877D01*
X116033059Y-35289304D01*
X116079791Y-35370246D01*
X116103648Y-35427842D01*
X116124401Y-35468572D01*
X116138526Y-35512045D01*
X116162384Y-35569643D01*
X116186572Y-35659916D01*
X116204410Y-35714815D01*
X116208931Y-35743362D01*
X116218242Y-35778110D01*
X116236993Y-35920535D01*
X116244914Y-35970542D01*
X116244914Y-35980693D01*
X116246414Y-35992087D01*
X116246414Y-36207912D01*
X116244914Y-36219305D01*
X116244914Y-36229458D01*
X116236992Y-36279468D01*
X116218242Y-36421889D01*
X116208932Y-36456634D01*
X116204410Y-36485185D01*
X116186571Y-36540087D01*
X116162384Y-36630356D01*
X116138528Y-36687949D01*
X116124401Y-36731428D01*
X116103646Y-36772161D01*
X116079791Y-36829753D01*
X116033063Y-36910687D01*
X116006856Y-36962123D01*
X115989868Y-36985504D01*
X115971879Y-37016663D01*
X115884421Y-37130639D01*
X115854670Y-37171589D01*
X115847491Y-37178767D01*
X115840497Y-37187883D01*
X115687883Y-37340497D01*
X115678767Y-37347491D01*
X115671589Y-37354670D01*
X115630639Y-37384421D01*
X115516663Y-37471879D01*
X115485504Y-37489868D01*
X115462123Y-37506856D01*
X115410687Y-37533063D01*
X115329753Y-37579791D01*
X115272161Y-37603646D01*
X115231428Y-37624401D01*
X115187949Y-37638528D01*
X115130356Y-37662384D01*
X115040087Y-37686571D01*
X114985185Y-37704410D01*
X114956634Y-37708932D01*
X114921889Y-37718242D01*
X114779468Y-37736992D01*
X114729458Y-37744914D01*
X114719305Y-37744914D01*
X114707912Y-37746414D01*
X114492088Y-37746414D01*
X114480695Y-37744914D01*
X114470542Y-37744914D01*
X114420532Y-37736993D01*
X114278110Y-37718242D01*
X114243362Y-37708931D01*
X114214815Y-37704410D01*
X114159916Y-37686572D01*
X114069643Y-37662384D01*
X114012045Y-37638526D01*
X113968572Y-37624401D01*
X113927842Y-37603648D01*
X113870246Y-37579791D01*
X113789304Y-37533059D01*
X113737877Y-37506856D01*
X113714498Y-37489870D01*
X113683336Y-37471879D01*
X113569341Y-37384407D01*
X113528411Y-37354670D01*
X113521236Y-37347495D01*
X113512116Y-37340497D01*
X113359502Y-37187883D01*
X113352503Y-37178762D01*
X113345330Y-37171589D01*
X113315596Y-37130664D01*
X113228120Y-37016663D01*
X113210127Y-36985498D01*
X113193144Y-36962123D01*
X113166943Y-36910701D01*
X113120208Y-36829753D01*
X113096348Y-36772151D01*
X113075599Y-36731428D01*
X113061475Y-36687960D01*
X113037615Y-36630356D01*
X113013423Y-36540070D01*
X112995590Y-36485185D01*
X112991069Y-36456643D01*
X112981757Y-36421889D01*
X112963005Y-36279456D01*
X112955086Y-36229458D01*
X112955086Y-36219305D01*
X112953586Y-36207912D01*
X112953586Y-35992087D01*
X112955086Y-35980693D01*
X112955086Y-35970542D01*
X112963004Y-35920548D01*
X112981757Y-35778110D01*
X112991069Y-35743353D01*
X112995590Y-35714815D01*
X113013421Y-35659934D01*
X113037615Y-35569643D01*
X113061477Y-35512034D01*
X113075599Y-35468572D01*
X113096346Y-35427852D01*
X113120208Y-35370246D01*
X113166947Y-35289289D01*
X113193144Y-35237877D01*
X113210124Y-35214505D01*
X113228120Y-35183336D01*
X113315610Y-35069316D01*
X113345330Y-35028411D01*
X113352500Y-35021240D01*
X113359502Y-35012116D01*
X113512116Y-34859502D01*
X113521240Y-34852500D01*
X113528411Y-34845330D01*
X113569316Y-34815610D01*
X113683336Y-34728120D01*
X113714505Y-34710124D01*
X113737877Y-34693144D01*
X113789289Y-34666947D01*
X113870246Y-34620208D01*
X113927852Y-34596346D01*
X113968572Y-34575599D01*
X114012034Y-34561477D01*
X114069643Y-34537615D01*
X114159934Y-34513421D01*
X114214815Y-34495590D01*
X114243353Y-34491069D01*
X114278110Y-34481757D01*
X114420545Y-34463004D01*
X114470542Y-34455086D01*
X114480694Y-34455086D01*
X114492088Y-34453586D01*
X114707912Y-34453586D01*
X114719305Y-34455086D01*
G37*
G36*
X26902228Y-34554448D02*
G01*
X27047117Y-34614463D01*
X27177515Y-34701592D01*
X27288408Y-34812485D01*
X27375537Y-34942883D01*
X27435552Y-35087772D01*
X27466148Y-35241586D01*
X27466148Y-35398414D01*
X27435552Y-35552228D01*
X27375537Y-35697117D01*
X27288408Y-35827515D01*
X27177515Y-35938408D01*
X27047117Y-36025537D01*
X26902228Y-36085552D01*
X26748414Y-36116148D01*
X26591586Y-36116148D01*
X26437772Y-36085552D01*
X26292883Y-36025537D01*
X26162485Y-35938408D01*
X26051592Y-35827515D01*
X25964463Y-35697117D01*
X25904448Y-35552228D01*
X25873852Y-35398414D01*
X25873852Y-35241586D01*
X25904448Y-35087772D01*
X25964463Y-34942883D01*
X26051592Y-34812485D01*
X26162485Y-34701592D01*
X26292883Y-34614463D01*
X26437772Y-34554448D01*
X26591586Y-34523852D01*
X26748414Y-34523852D01*
X26902228Y-34554448D01*
G37*
G36*
X29442228Y-34554448D02*
G01*
X29587117Y-34614463D01*
X29717515Y-34701592D01*
X29828408Y-34812485D01*
X29915537Y-34942883D01*
X29975552Y-35087772D01*
X30006148Y-35241586D01*
X30006148Y-35398414D01*
X29975552Y-35552228D01*
X29915537Y-35697117D01*
X29828408Y-35827515D01*
X29717515Y-35938408D01*
X29587117Y-36025537D01*
X29442228Y-36085552D01*
X29288414Y-36116148D01*
X29131586Y-36116148D01*
X28977772Y-36085552D01*
X28832883Y-36025537D01*
X28702485Y-35938408D01*
X28591592Y-35827515D01*
X28504463Y-35697117D01*
X28444448Y-35552228D01*
X28413852Y-35398414D01*
X28413852Y-35241586D01*
X28444448Y-35087772D01*
X28504463Y-34942883D01*
X28591592Y-34812485D01*
X28702485Y-34701592D01*
X28832883Y-34614463D01*
X28977772Y-34554448D01*
X29131586Y-34523852D01*
X29288414Y-34523852D01*
X29442228Y-34554448D01*
G37*
D10*
X26100000Y-75600000D03*
X139600000Y-39600000D03*
X31750000Y-65380000D03*
X29210000Y-65380000D03*
X26670000Y-65380000D03*
X24130000Y-65380000D03*
X31750000Y-55960000D03*
X29210000Y-55960000D03*
X26670000Y-55960000D03*
X24130000Y-55960000D03*
X45100000Y-75100000D03*
X31750000Y-46540000D03*
X29210000Y-46540000D03*
X26670000Y-46540000D03*
X24130000Y-46540000D03*
X114600000Y-36100000D03*
X29210000Y-39660000D03*
X26670000Y-39660000D03*
X29210000Y-35320000D03*
X26670000Y-35320000D03*
M02*
