%TF.GenerationSoftware,KiCad,Pcbnew,10.0.5*%
%TF.CreationDate,2026-09-19T00:00:00+08:00*%
%TF.ProjectId,k2_v4_8L.l7,6b325f76-345f-4384-9c2e-6c372e6b6963,rev?*%
%TF.SameCoordinates,Original*%
%TF.FileFunction,Copper,L7,Inr*%
%TF.FilePolarity,Positive*%
%FSLAX46Y46*%
G04 Gerber Fmt 4.6, Leading zero omitted, Abs format (unit mm)*
G04 Created by KiCad (PCBNEW 10.0.5) date 2026-09-19T00:00:00+08:00*
%MOMM*%
%LPD*%
G01*
G04 APERTURE LIST*
%TA.AperFunction,ComponentPad*%
%ADD10C,1.500000*%
%TD*%
%TA.AperFunction,ViaPad*%
%ADD11C,0.350000*%
%TD*%
%ADD12C,0.200000*%
%ADD13C,0.350000*%
G04 APERTURE END LIST*
D10*
%TO.N,GND*%
%TO.C,J11*%
X31750000Y-65380000D03*
%TO.N,I2C2_SCL*%
X29210000Y-65380000D03*
%TO.N,I2C2_SDA*%
X26670000Y-65380000D03*
%TO.N,P3V3_AUX*%
X24130000Y-65380000D03*
%TD*%
%TO.N,UART_TX*%
%TO.C,J9*%
X31750000Y-55960000D03*
%TO.N,UART_RX*%
X29210000Y-55960000D03*
%TO.N,GND*%
X26670000Y-55960000D03*
%TO.N,MCU_VDD*%
X24130000Y-55960000D03*
%TD*%
%TO.N,SWDIO*%
%TO.C,J13*%
X31750000Y-46540000D03*
%TO.N,SWCLK_BOOT0*%
X29210000Y-46540000D03*
%TO.N,GND*%
X26670000Y-46540000D03*
%TO.N,MCU_VDD*%
X24130000Y-46540000D03*
%TD*%
%TO.N,PWR_CTRL_OUT*%
%TO.C,J6*%
X29210000Y-39660000D03*
%TO.N,GND*%
X26670000Y-39660000D03*
%TD*%
%TO.N,12V_IN*%
%TO.C,J12*%
X29210000Y-35320000D03*
%TO.N,GND*%
X26670000Y-35320000D03*
%TD*%
D11*
%TO.N,GND*%
X135475000Y-50700000D03*
X133775000Y-60300000D03*
X94275000Y-54500000D03*
X83575000Y-56516000D03*
X59500000Y-64775000D03*
X95350000Y-49135000D03*
X137140000Y-44700000D03*
X51725000Y-41000000D03*
X117580000Y-47220000D03*
X132650000Y-57350000D03*
X121580000Y-43800000D03*
X138060000Y-50100000D03*
X102100000Y-43200000D03*
X103400000Y-50505000D03*
X56500000Y-40250000D03*
X46725000Y-59365000D03*
X101475000Y-50980000D03*
X123580000Y-42280000D03*
X35750000Y-55175000D03*
X103651000Y-55365000D03*
X134430000Y-57300000D03*
X96550000Y-49135000D03*
X133875000Y-59100000D03*
X100275000Y-50980000D03*
X45025000Y-35000000D03*
X96675000Y-54500000D03*
X142080000Y-47100000D03*
X120170000Y-39400000D03*
X84055000Y-54490000D03*
X127580000Y-40380000D03*
X135475000Y-57300000D03*
X133775000Y-45300000D03*
X105315000Y-54790000D03*
X36250000Y-55425000D03*
X103651000Y-52515000D03*
X140340000Y-43500000D03*
X102825000Y-53000000D03*
X93225000Y-53000000D03*
X99075000Y-50980000D03*
X83430000Y-52715000D03*
X62500000Y-65950000D03*
X95050000Y-50755000D03*
X58900000Y-50700000D03*
X133775000Y-57300000D03*
X75770000Y-58550000D03*
X132650000Y-42250000D03*
X102770000Y-44700000D03*
X133229999Y-60300000D03*
X100150000Y-49135000D03*
X133775000Y-44700000D03*
X92025000Y-53000000D03*
X108170000Y-40540000D03*
X30738266Y-53088225D03*
X96250000Y-50755000D03*
X133775000Y-53700000D03*
X131525000Y-46500000D03*
X133875000Y-52500000D03*
X104170000Y-40920000D03*
X42050000Y-62830000D03*
X99225000Y-53000000D03*
X102250000Y-50755000D03*
X37250000Y-48925000D03*
X126170000Y-48140000D03*
X103651000Y-53115000D03*
X129960000Y-48300000D03*
X94425000Y-53000000D03*
X42050000Y-61560000D03*
X65525000Y-63950000D03*
X92025000Y-42000000D03*
X57700000Y-62275000D03*
X116170000Y-40160000D03*
X99075000Y-54500000D03*
X101475000Y-54500000D03*
X36625000Y-54700000D03*
X100275000Y-54500000D03*
X101050000Y-50755000D03*
X81770000Y-57550000D03*
X35250000Y-48575000D03*
X58300000Y-65150000D03*
X99850000Y-50755000D03*
X134430000Y-59100000D03*
X45225000Y-37500000D03*
X133775000Y-48300000D03*
X98650000Y-50755000D03*
X133875000Y-48900000D03*
X39074999Y-53250000D03*
X97750000Y-49135000D03*
X95625000Y-53000000D03*
X112170000Y-42060000D03*
X136125000Y-45300000D03*
X53475000Y-63950000D03*
X92025000Y-40000000D03*
X89625000Y-53000000D03*
X30725000Y-41500000D03*
X95475000Y-54500000D03*
X64900000Y-56900000D03*
X49725000Y-66500000D03*
X31825000Y-36365000D03*
X101625000Y-53000000D03*
X63700000Y-66349999D03*
X42050000Y-57170000D03*
X113580000Y-46460000D03*
X83430000Y-50865000D03*
X105315000Y-53590000D03*
X36750000Y-55425000D03*
X135475000Y-50100000D03*
X90825000Y-53000000D03*
X59500000Y-60625000D03*
X98025000Y-53000000D03*
X36750000Y-49775000D03*
X64300000Y-66750000D03*
X132650000Y-62050000D03*
X103651000Y-51315000D03*
X96675000Y-50980000D03*
X86025000Y-53000000D03*
X53475000Y-61450000D03*
X83430000Y-51515000D03*
X96825000Y-53000000D03*
X133775000Y-50700000D03*
X81480000Y-59050000D03*
X93225000Y-54500000D03*
X102550000Y-49135000D03*
X97875000Y-50980000D03*
X43200000Y-53725000D03*
X84574000Y-53590000D03*
X97450000Y-50755000D03*
X110770000Y-48300000D03*
X45475000Y-40000000D03*
X102675000Y-54500000D03*
X97875000Y-54500000D03*
X130560000Y-44700000D03*
X133875000Y-47100000D03*
X55900000Y-40650000D03*
X95475000Y-50980000D03*
X133830000Y-63300000D03*
X92025000Y-41000000D03*
X32966779Y-51169323D03*
X101350000Y-49135000D03*
X82285000Y-53590000D03*
X103750000Y-49135000D03*
X133775000Y-50100000D03*
X34750000Y-48925000D03*
X87225000Y-53000000D03*
X103400000Y-53815000D03*
X135475000Y-53700000D03*
X100425000Y-53000000D03*
X92025000Y-43000000D03*
X133875000Y-55500000D03*
X59500000Y-50500000D03*
X88425000Y-53000000D03*
X65525000Y-61450000D03*
X57700000Y-64775000D03*
X84574000Y-54190000D03*
X98950000Y-49135000D03*
X102675000Y-50980000D03*
X94425000Y-50980000D03*
X133875000Y-43500000D03*
X133775000Y-62100000D03*
X133775000Y-54900000D03*
X106170000Y-42440000D03*
X61900000Y-66150000D03*
X45800000Y-50275000D03*
X103176000Y-52390000D03*
X84675000Y-53000000D03*
X103651000Y-54765000D03*
X91450000Y-37675000D03*
X136125000Y-44700000D03*
X79480000Y-59050000D03*
%TO.N,MCU_VDD*%
X40950000Y-38775000D03*
X56725000Y-68500000D03*
X45950000Y-57170000D03*
X56725000Y-67500000D03*
X56725000Y-66500000D03*
X41275000Y-59365000D03*
X30475000Y-54500000D03*
X56725000Y-69500000D03*
%TO.N,NRST*%
X52000000Y-41500000D03*
X42500000Y-41500000D03*
%TO.N,PERSTA#*%
X59800000Y-40900000D03*
X32525000Y-54500000D03*
X69500000Y-50600000D03*
%TO.N,P3V3_AUX*%
X28975000Y-53000000D03*
X51725000Y-37000000D03*
X58900000Y-62275000D03*
X34250000Y-55262500D03*
X59864700Y-48439700D03*
%TO.N,I2C2_SCL*%
X55050000Y-68500000D03*
X82866700Y-51215000D03*
%TO.N,UART_TX*%
X39987500Y-52750000D03*
X30411329Y-56062563D03*
X32725000Y-56000000D03*
%TO.N,UART_RX*%
X40162500Y-51250000D03*
%TO.N,SWCLK_BOOT0*%
X29836871Y-47099923D03*
%TO.N,I2C1_SCL*%
X33750000Y-47837500D03*
X45950000Y-60635000D03*
%TO.N,I2C1_SDA*%
X45950000Y-61905000D03*
X62850000Y-50537500D03*
X33225000Y-47880800D03*
X45450000Y-48037500D03*
X134950000Y-56137500D03*
X102550000Y-52137500D03*
X82250000Y-51337500D03*
X41250000Y-48037500D03*
%TO.N,12V_IN*%
X28275000Y-41500000D03*
X31050000Y-39830000D03*
X35725000Y-37635000D03*
%TO.N,P3V3*%
X89000000Y-53975000D03*
X90650000Y-41275000D03*
X85400000Y-53975000D03*
X93800000Y-53525000D03*
X89625000Y-54000000D03*
X89775000Y-38500000D03*
X93800000Y-53975000D03*
X96200000Y-53975000D03*
X90825000Y-54000000D03*
X101725000Y-54000000D03*
X101000000Y-53975000D03*
X97400000Y-53975000D03*
X89975000Y-41000000D03*
X100525000Y-54000000D03*
X86600000Y-53975000D03*
X85875000Y-54000000D03*
X87225000Y-54000000D03*
X92600000Y-53975000D03*
X42525000Y-40000000D03*
X95725000Y-54000000D03*
X28990000Y-38200000D03*
X99800000Y-53975000D03*
X98600000Y-53975000D03*
X88275000Y-54000000D03*
X91400000Y-53975000D03*
X99325000Y-54000000D03*
X90200000Y-53975000D03*
X92600000Y-53525000D03*
X98125000Y-54000000D03*
X89975000Y-40000000D03*
X34950000Y-39830000D03*
X94525000Y-54000000D03*
X91875000Y-54000000D03*
X95000000Y-53975000D03*
X40263888Y-35980223D03*
X87800000Y-53975000D03*
X90650000Y-42275000D03*
X96925000Y-54000000D03*
X102200000Y-53975000D03*
%TO.N,PCIE_DN_OUT4_P_MCIO*%
X89100000Y-52366000D03*
X89100000Y-42010000D03*
%TO.N,PCIE_DN_OUT4_N_MCIO*%
X89650000Y-51423000D03*
X89650000Y-42510000D03*
%TO.N,PCIE_DN_OUT5_P_MCIO*%
X90300000Y-52366000D03*
X90300000Y-43080000D03*
%TO.N,PCIE_DN_OUT5_N_MCIO*%
X90850000Y-51423000D03*
X90850000Y-43580000D03*
%TO.N,PCIE_DN_OUT6_P_MCIO*%
X91500000Y-52366000D03*
X91500000Y-44150000D03*
%TO.N,PCIE_DN_OUT6_N_MCIO*%
X92050000Y-51423000D03*
X92050000Y-44650000D03*
%TO.N,PCIE_DN_OUT7_P_MCIO*%
X92700000Y-52366000D03*
X92700000Y-34520000D03*
%TO.N,PCIE_DN_OUT7_N_MCIO*%
X93700000Y-51673000D03*
X93700000Y-35020000D03*
%TO.N,PERSTB#*%
X135000000Y-62100000D03*
X91300000Y-67200000D03*
%TO.N,PWR_BTN_ISO*%
X53930800Y-37016100D03*
X43200000Y-51100000D03*
%TO.N,PCIE_UP_OUT0_P_J2*%
X84850000Y-54880000D03*
X84850000Y-56834000D03*
%TO.N,PCIE_UP_OUT0_N_J2*%
X84350000Y-55723000D03*
X84350000Y-56334000D03*
%TO.N,PCIE_UP_OUT1_P_J2*%
X86050000Y-54880000D03*
X86050000Y-57783000D03*
%TO.N,PCIE_UP_OUT1_N_J2*%
X85500000Y-55823000D03*
X85500000Y-58283000D03*
%TO.N,PCIE_UP_OUT2_P_J2*%
X87250000Y-54880000D03*
X87250000Y-59732000D03*
%TO.N,PCIE_UP_OUT2_N_J2*%
X86700000Y-55823000D03*
X86700000Y-59232000D03*
%TO.N,PCIE_UP_OUT3_P_J2*%
X88450000Y-54880000D03*
X88450000Y-60681000D03*
%TO.N,PCIE_UP_OUT3_N_J2*%
X87900000Y-55823000D03*
X87900000Y-61181000D03*
%TO.N,PCIE_UP_OUT4_P_J2*%
X89650000Y-54880000D03*
X89650000Y-62630000D03*
%TO.N,PCIE_UP_OUT4_N_J2*%
X89100000Y-55823000D03*
X89100000Y-62130000D03*
%TO.N,PCIE_UP_OUT5_P_J2*%
X90850000Y-54880000D03*
X90850000Y-63579000D03*
%TO.N,PCIE_UP_OUT5_N_J2*%
X90300000Y-55823000D03*
X90300000Y-64078999D03*
%TO.N,PCIE_UP_OUT6_P_J2*%
X92050000Y-54880000D03*
X92050000Y-65528000D03*
%TO.N,PCIE_UP_OUT6_N_J2*%
X91500000Y-55823000D03*
X91500000Y-65028000D03*
%TO.N,PCIE_UP_OUT7_P_J2*%
X93700000Y-55130000D03*
X93700000Y-66477000D03*
%TO.N,PCIE_UP_OUT7_N_J2*%
X92700000Y-55823000D03*
X92700000Y-66977000D03*
%TO.N,PCIE_DN_OUT1_N_MCIO*%
X86050000Y-51423000D03*
X86050000Y-39870000D03*
%TO.N,PCIE_DN_OUT2_P_MCIO*%
X86700000Y-52366000D03*
X86700000Y-39300000D03*
%TO.N,PCIE_DN_OUT2_N_MCIO*%
X87250000Y-51423000D03*
X87250000Y-38800000D03*
%TO.N,PCIE_DN_OUT3_P_MCIO*%
X87900000Y-52366000D03*
X87900000Y-38230000D03*
%TO.N,PCIE_DN_OUT3_N_MCIO*%
X88450000Y-51423000D03*
X88450000Y-37730000D03*
%TO.N,DS320_STRAP_B_ADDR0_15-8*%
X105125000Y-52090000D03*
X82025000Y-62190000D03*
%TO.N,PCIE_DN_OUT0_P_MCIO*%
X84300000Y-52366000D03*
X84300000Y-41440000D03*
%TO.N,PCIE_DN_OUT0_N_MCIO*%
X84850000Y-51423000D03*
X84850000Y-40940000D03*
%TO.N,PCIE_DN_OUT1_P_MCIO*%
X85500000Y-52366000D03*
X85500000Y-40370000D03*
%TO.N,SW_U2*%
X40700000Y-34600000D03*
X34162500Y-35095000D03*
%TO.N,PWR_CTRL_OUT*%
X45800000Y-52900000D03*
%TD*%
%TA.AperFunction,Conductor*%
%TO.N,GND*%
G36*
X113061423Y-33320185D02*
G01*
X113107178Y-33372989D01*
X113117122Y-33442147D01*
X113088097Y-33505703D01*
X113065507Y-33526075D01*
X112671642Y-33801862D01*
X112671635Y-33801867D01*
X112301867Y-34171635D01*
X112301862Y-34171642D01*
X112001925Y-34599995D01*
X112001923Y-34599999D01*
X111780923Y-35073937D01*
X111780920Y-35073943D01*
X111645576Y-35579052D01*
X111645575Y-35579060D01*
X111600000Y-36099997D01*
X111600000Y-36100002D01*
X111645575Y-36620938D01*
X111645576Y-36620946D01*
X111780920Y-37126055D01*
X111780921Y-37126057D01*
X111780922Y-37126060D01*
X112001923Y-37600000D01*
X112301866Y-38028362D01*
X112671637Y-38398133D01*
X112816440Y-38499525D01*
X113099995Y-38698073D01*
X113099997Y-38698074D01*
X113100000Y-38698076D01*
X113573939Y-38919077D01*
X114079055Y-39054423D01*
X114451158Y-39086978D01*
X114599998Y-39100000D01*
X114600000Y-39100000D01*
X114600002Y-39100000D01*
X114730236Y-39088605D01*
X115120944Y-39054423D01*
X115626060Y-38919077D01*
X116100000Y-38698076D01*
X116528362Y-38398133D01*
X116898133Y-38028362D01*
X117198076Y-37600000D01*
X117419077Y-37126060D01*
X117554423Y-36620944D01*
X117594547Y-36162323D01*
X117600000Y-36100001D01*
X117600000Y-36099998D01*
X117584769Y-35925907D01*
X117554423Y-35579055D01*
X117419077Y-35073939D01*
X117198076Y-34600000D01*
X117198074Y-34599997D01*
X117198073Y-34599995D01*
X116931665Y-34219526D01*
X116898133Y-34171637D01*
X116528362Y-33801866D01*
X116134491Y-33526074D01*
X116090867Y-33471498D01*
X116083675Y-33401999D01*
X116115197Y-33339645D01*
X116175427Y-33304231D01*
X116205616Y-33300500D01*
X142575500Y-33300500D01*
X142642539Y-33320185D01*
X142688294Y-33372989D01*
X142699500Y-33424500D01*
X142699500Y-38678616D01*
X142679815Y-38745655D01*
X142627011Y-38791410D01*
X142557853Y-38801354D01*
X142494297Y-38772329D01*
X142456523Y-38713551D01*
X142455725Y-38710710D01*
X142432975Y-38625807D01*
X142419077Y-38573939D01*
X142198076Y-38100000D01*
X142198074Y-38099997D01*
X142198073Y-38099995D01*
X142023087Y-37850090D01*
X141898133Y-37671637D01*
X141528362Y-37301866D01*
X141100000Y-37001923D01*
X140626060Y-36780922D01*
X140626057Y-36780921D01*
X140626055Y-36780920D01*
X140120946Y-36645576D01*
X140120938Y-36645575D01*
X139600002Y-36600000D01*
X139599998Y-36600000D01*
X139079060Y-36645575D01*
X139079052Y-36645576D01*
X138573943Y-36780920D01*
X138573937Y-36780923D01*
X138099999Y-37001923D01*
X138099995Y-37001925D01*
X137671642Y-37301862D01*
X137671635Y-37301867D01*
X137301867Y-37671635D01*
X137301862Y-37671642D01*
X137001925Y-38099995D01*
X137001923Y-38099999D01*
X136827279Y-38474525D01*
X136801191Y-38530473D01*
X136780923Y-38573937D01*
X136780920Y-38573943D01*
X136645576Y-39079052D01*
X136645575Y-39079060D01*
X136600000Y-39599997D01*
X136600000Y-39600002D01*
X136645575Y-40120938D01*
X136645576Y-40120946D01*
X136780920Y-40626055D01*
X136780921Y-40626057D01*
X136780922Y-40626060D01*
X137001923Y-41100000D01*
X137301866Y-41528362D01*
X137671637Y-41898133D01*
X137760802Y-41960567D01*
X138099995Y-42198073D01*
X138099997Y-42198074D01*
X138100000Y-42198076D01*
X138573939Y-42419077D01*
X139079055Y-42554423D01*
X139451158Y-42586978D01*
X139599998Y-42600000D01*
X139600000Y-42600000D01*
X139600002Y-42600000D01*
X139730236Y-42588605D01*
X140120944Y-42554423D01*
X140626060Y-42419077D01*
X141100000Y-42198076D01*
X141528362Y-41898133D01*
X141898133Y-41528362D01*
X142198076Y-41100000D01*
X142419077Y-40626060D01*
X142455725Y-40489287D01*
X142492090Y-40429628D01*
X142554937Y-40399099D01*
X142624313Y-40407394D01*
X142678190Y-40451879D01*
X142699465Y-40518431D01*
X142699500Y-40521382D01*
X142699500Y-78575500D01*
X142679815Y-78642539D01*
X142627011Y-78688294D01*
X142575500Y-78699500D01*
X27021382Y-78699500D01*
X26954343Y-78679815D01*
X26908588Y-78627011D01*
X26898644Y-78557853D01*
X26927669Y-78494297D01*
X26986447Y-78456523D01*
X26989288Y-78455725D01*
X27126060Y-78419077D01*
X27600000Y-78198076D01*
X28028362Y-77898133D01*
X28398133Y-77528362D01*
X28698076Y-77100000D01*
X28919077Y-76626060D01*
X29054423Y-76120944D01*
X29093489Y-75674420D01*
X29100000Y-75600001D01*
X29100000Y-75599998D01*
X29056727Y-75105393D01*
X29056255Y-75099997D01*
X42100000Y-75099997D01*
X42100000Y-75100002D01*
X42145575Y-75620938D01*
X42145576Y-75620946D01*
X42280920Y-76126055D01*
X42280921Y-76126057D01*
X42280922Y-76126060D01*
X42501923Y-76600000D01*
X42801866Y-77028362D01*
X43171637Y-77398133D01*
X43357623Y-77528362D01*
X43599995Y-77698073D01*
X43599997Y-77698074D01*
X43600000Y-77698076D01*
X44073939Y-77919077D01*
X44579055Y-78054423D01*
X44951158Y-78086978D01*
X45099998Y-78100000D01*
X45100000Y-78100000D01*
X45100002Y-78100000D01*
X45230236Y-78088605D01*
X45620944Y-78054423D01*
X46126060Y-77919077D01*
X46600000Y-77698076D01*
X47028362Y-77398133D01*
X47398133Y-77028362D01*
X47698076Y-76600000D01*
X47919077Y-76126060D01*
X48054423Y-75620944D01*
X48100000Y-75100000D01*
X48054423Y-74579055D01*
X47919077Y-74073939D01*
X47698076Y-73600000D01*
X47698074Y-73599997D01*
X47698073Y-73599995D01*
X47489320Y-73301866D01*
X47398133Y-73171637D01*
X47028362Y-72801866D01*
X46600000Y-72501923D01*
X46126060Y-72280922D01*
X46126057Y-72280921D01*
X46126055Y-72280920D01*
X45620946Y-72145576D01*
X45620938Y-72145575D01*
X45100002Y-72100000D01*
X45099998Y-72100000D01*
X44579060Y-72145575D01*
X44579052Y-72145576D01*
X44073943Y-72280920D01*
X44073937Y-72280923D01*
X43599999Y-72501923D01*
X43599995Y-72501925D01*
X43171642Y-72801862D01*
X43171635Y-72801867D01*
X42801867Y-73171635D01*
X42801862Y-73171642D01*
X42501925Y-73599995D01*
X42501923Y-73599999D01*
X42280923Y-74073937D01*
X42280920Y-74073943D01*
X42145576Y-74579052D01*
X42145575Y-74579060D01*
X42100000Y-75099997D01*
X29056255Y-75099997D01*
X29054423Y-75079055D01*
X28919077Y-74573939D01*
X28698076Y-74100000D01*
X28698074Y-74099997D01*
X28698073Y-74099995D01*
X28548104Y-73885818D01*
X28398133Y-73671637D01*
X28028362Y-73301866D01*
X27600000Y-73001923D01*
X27126060Y-72780922D01*
X27126057Y-72780921D01*
X27126055Y-72780920D01*
X26620946Y-72645576D01*
X26620938Y-72645575D01*
X26100002Y-72600000D01*
X26099998Y-72600000D01*
X25579060Y-72645575D01*
X25579052Y-72645576D01*
X25073943Y-72780920D01*
X25073937Y-72780923D01*
X24599999Y-73001923D01*
X24599995Y-73001925D01*
X24171642Y-73301862D01*
X24171635Y-73301867D01*
X23801867Y-73671635D01*
X23801866Y-73671637D01*
X23526075Y-74065507D01*
X23471498Y-74109131D01*
X23401999Y-74116324D01*
X23339645Y-74084802D01*
X23304231Y-74024572D01*
X23300500Y-73994383D01*
X23300500Y-69450565D01*
X56349500Y-69450565D01*
X56349500Y-69549435D01*
X56375090Y-69644938D01*
X56424525Y-69730562D01*
X56494438Y-69800475D01*
X56580062Y-69849910D01*
X56675565Y-69875500D01*
X56675567Y-69875500D01*
X56774432Y-69875500D01*
X56774435Y-69875500D01*
X56869938Y-69849910D01*
X56955562Y-69800475D01*
X57025475Y-69730562D01*
X57074910Y-69644938D01*
X57100500Y-69549435D01*
X57100500Y-69450565D01*
X57074910Y-69355062D01*
X57025475Y-69269438D01*
X56955562Y-69199525D01*
X56869938Y-69150090D01*
X56774435Y-69124500D01*
X56675565Y-69124500D01*
X56580062Y-69150090D01*
X56580060Y-69150091D01*
X56580059Y-69150091D01*
X56494436Y-69199526D01*
X56424526Y-69269436D01*
X56375091Y-69355059D01*
X56375091Y-69355060D01*
X56375090Y-69355062D01*
X56349500Y-69450565D01*
X23300500Y-69450565D01*
X23300500Y-68450565D01*
X54674500Y-68450565D01*
X54674500Y-68549435D01*
X54700090Y-68644938D01*
X54749525Y-68730562D01*
X54819438Y-68800475D01*
X54905062Y-68849910D01*
X55000565Y-68875500D01*
X55000567Y-68875500D01*
X55099432Y-68875500D01*
X55099435Y-68875500D01*
X55194938Y-68849910D01*
X55280562Y-68800475D01*
X55350475Y-68730562D01*
X55399910Y-68644938D01*
X55425500Y-68549435D01*
X55425500Y-68450565D01*
X56349500Y-68450565D01*
X56349500Y-68549435D01*
X56375090Y-68644938D01*
X56424525Y-68730562D01*
X56494438Y-68800475D01*
X56580062Y-68849910D01*
X56675565Y-68875500D01*
X56675567Y-68875500D01*
X56774432Y-68875500D01*
X56774435Y-68875500D01*
X56869938Y-68849910D01*
X56955562Y-68800475D01*
X57025475Y-68730562D01*
X57074910Y-68644938D01*
X57100500Y-68549435D01*
X57100500Y-68450565D01*
X57074910Y-68355062D01*
X57025475Y-68269438D01*
X56955562Y-68199525D01*
X56869938Y-68150090D01*
X56774435Y-68124500D01*
X56675565Y-68124500D01*
X56580062Y-68150090D01*
X56580060Y-68150091D01*
X56580059Y-68150091D01*
X56494436Y-68199526D01*
X56424526Y-68269436D01*
X56375091Y-68355059D01*
X56375091Y-68355060D01*
X56375090Y-68355062D01*
X56349500Y-68450565D01*
X55425500Y-68450565D01*
X55399910Y-68355062D01*
X55350475Y-68269438D01*
X55280562Y-68199525D01*
X55194938Y-68150090D01*
X55099435Y-68124500D01*
X55000565Y-68124500D01*
X54905062Y-68150090D01*
X54905060Y-68150091D01*
X54905059Y-68150091D01*
X54819436Y-68199526D01*
X54749526Y-68269436D01*
X54700091Y-68355059D01*
X54700091Y-68355060D01*
X54700090Y-68355062D01*
X54674500Y-68450565D01*
X23300500Y-68450565D01*
X23300500Y-67450565D01*
X56349500Y-67450565D01*
X56349500Y-67549435D01*
X56375090Y-67644938D01*
X56424525Y-67730562D01*
X56494438Y-67800475D01*
X56580062Y-67849910D01*
X56675565Y-67875500D01*
X56675567Y-67875500D01*
X56774432Y-67875500D01*
X56774435Y-67875500D01*
X56869938Y-67849910D01*
X56955562Y-67800475D01*
X57025475Y-67730562D01*
X57074910Y-67644938D01*
X57100500Y-67549435D01*
X57100500Y-67450565D01*
X57074910Y-67355062D01*
X57025475Y-67269438D01*
X56955562Y-67199525D01*
X56870761Y-67150565D01*
X90924500Y-67150565D01*
X90924500Y-67249435D01*
X90950090Y-67344938D01*
X90999525Y-67430562D01*
X91069438Y-67500475D01*
X91155062Y-67549910D01*
X91250565Y-67575500D01*
X91250567Y-67575500D01*
X91349432Y-67575500D01*
X91349435Y-67575500D01*
X91444938Y-67549910D01*
X91530562Y-67500475D01*
X91600475Y-67430562D01*
X91649910Y-67344938D01*
X91675500Y-67249435D01*
X91675500Y-67150565D01*
X91649910Y-67055062D01*
X91600475Y-66969438D01*
X91558602Y-66927565D01*
X92324500Y-66927565D01*
X92324500Y-67026435D01*
X92350090Y-67121938D01*
X92399525Y-67207562D01*
X92469438Y-67277475D01*
X92555062Y-67326910D01*
X92650565Y-67352500D01*
X92650567Y-67352500D01*
X92749432Y-67352500D01*
X92749435Y-67352500D01*
X92844938Y-67326910D01*
X92930562Y-67277475D01*
X93000475Y-67207562D01*
X93049910Y-67121938D01*
X93075500Y-67026435D01*
X93075500Y-66927565D01*
X93049910Y-66832062D01*
X93000475Y-66746438D01*
X92930562Y-66676525D01*
X92844938Y-66627090D01*
X92749435Y-66601500D01*
X92650565Y-66601500D01*
X92555062Y-66627090D01*
X92555060Y-66627091D01*
X92555059Y-66627091D01*
X92469436Y-66676526D01*
X92399526Y-66746436D01*
X92350091Y-66832059D01*
X92350091Y-66832060D01*
X92350090Y-66832062D01*
X92324500Y-66927565D01*
X91558602Y-66927565D01*
X91530562Y-66899525D01*
X91444938Y-66850090D01*
X91349435Y-66824500D01*
X91250565Y-66824500D01*
X91155062Y-66850090D01*
X91155060Y-66850091D01*
X91155059Y-66850091D01*
X91069436Y-66899526D01*
X90999526Y-66969436D01*
X90950091Y-67055059D01*
X90950091Y-67055060D01*
X90950090Y-67055062D01*
X90924500Y-67150565D01*
X56870761Y-67150565D01*
X56869938Y-67150090D01*
X56774435Y-67124500D01*
X56675565Y-67124500D01*
X56580062Y-67150090D01*
X56580060Y-67150091D01*
X56580059Y-67150091D01*
X56494436Y-67199526D01*
X56424526Y-67269436D01*
X56375091Y-67355059D01*
X56375091Y-67355060D01*
X56375090Y-67355062D01*
X56349500Y-67450565D01*
X23300500Y-67450565D01*
X23300500Y-66450565D01*
X56349500Y-66450565D01*
X56349500Y-66549435D01*
X56375090Y-66644938D01*
X56424525Y-66730562D01*
X56494438Y-66800475D01*
X56580062Y-66849910D01*
X56675565Y-66875500D01*
X56675567Y-66875500D01*
X56774432Y-66875500D01*
X56774435Y-66875500D01*
X56869938Y-66849910D01*
X56955562Y-66800475D01*
X57025475Y-66730562D01*
X57074910Y-66644938D01*
X57100500Y-66549435D01*
X57100500Y-66450565D01*
X57094337Y-66427565D01*
X93324500Y-66427565D01*
X93324500Y-66526435D01*
X93350090Y-66621938D01*
X93350091Y-66621939D01*
X93350091Y-66621940D01*
X93353065Y-66627091D01*
X93399525Y-66707562D01*
X93469438Y-66777475D01*
X93555062Y-66826910D01*
X93650565Y-66852500D01*
X93650567Y-66852500D01*
X93749432Y-66852500D01*
X93749435Y-66852500D01*
X93844938Y-66826910D01*
X93930562Y-66777475D01*
X94000475Y-66707562D01*
X94049910Y-66621938D01*
X94075500Y-66526435D01*
X94075500Y-66427565D01*
X94049910Y-66332062D01*
X94000475Y-66246438D01*
X93930562Y-66176525D01*
X93844938Y-66127090D01*
X93749435Y-66101500D01*
X93650565Y-66101500D01*
X93555062Y-66127090D01*
X93555060Y-66127091D01*
X93555059Y-66127091D01*
X93469436Y-66176526D01*
X93399526Y-66246436D01*
X93350091Y-66332059D01*
X93350091Y-66332060D01*
X93350090Y-66332062D01*
X93324500Y-66427565D01*
X57094337Y-66427565D01*
X57074910Y-66355062D01*
X57025475Y-66269438D01*
X56955562Y-66199525D01*
X56869938Y-66150090D01*
X56774435Y-66124500D01*
X56675565Y-66124500D01*
X56580062Y-66150090D01*
X56580060Y-66150091D01*
X56580059Y-66150091D01*
X56494436Y-66199526D01*
X56424526Y-66269436D01*
X56375091Y-66355059D01*
X56375091Y-66355060D01*
X56375090Y-66355062D01*
X56349500Y-66450565D01*
X23300500Y-66450565D01*
X23300500Y-66194073D01*
X23320185Y-66127034D01*
X23372989Y-66081279D01*
X23442147Y-66071335D01*
X23505703Y-66100360D01*
X23512181Y-66106392D01*
X23524088Y-66118299D01*
X23524092Y-66118302D01*
X23679762Y-66222318D01*
X23679768Y-66222321D01*
X23679769Y-66222322D01*
X23852749Y-66293973D01*
X24036379Y-66330499D01*
X24036383Y-66330500D01*
X24036384Y-66330500D01*
X24223617Y-66330500D01*
X24223618Y-66330499D01*
X24407251Y-66293973D01*
X24580231Y-66222322D01*
X24735908Y-66118302D01*
X24868302Y-65985908D01*
X24972322Y-65830231D01*
X25043973Y-65657251D01*
X25080500Y-65473616D01*
X25080500Y-65286384D01*
X25080499Y-65286379D01*
X25719500Y-65286379D01*
X25719500Y-65473620D01*
X25756025Y-65657243D01*
X25756027Y-65657251D01*
X25827676Y-65830228D01*
X25827681Y-65830237D01*
X25931697Y-65985907D01*
X25931700Y-65985911D01*
X26064088Y-66118299D01*
X26064092Y-66118302D01*
X26219762Y-66222318D01*
X26219768Y-66222321D01*
X26219769Y-66222322D01*
X26392749Y-66293973D01*
X26576379Y-66330499D01*
X26576383Y-66330500D01*
X26576384Y-66330500D01*
X26763617Y-66330500D01*
X26763618Y-66330499D01*
X26947251Y-66293973D01*
X27120231Y-66222322D01*
X27275908Y-66118302D01*
X27408302Y-65985908D01*
X27512322Y-65830231D01*
X27583973Y-65657251D01*
X27620500Y-65473616D01*
X27620500Y-65286384D01*
X27620499Y-65286379D01*
X28259500Y-65286379D01*
X28259500Y-65473620D01*
X28296025Y-65657243D01*
X28296027Y-65657251D01*
X28367676Y-65830228D01*
X28367681Y-65830237D01*
X28471697Y-65985907D01*
X28471700Y-65985911D01*
X28604088Y-66118299D01*
X28604092Y-66118302D01*
X28759762Y-66222318D01*
X28759768Y-66222321D01*
X28759769Y-66222322D01*
X28932749Y-66293973D01*
X29116379Y-66330499D01*
X29116383Y-66330500D01*
X29116384Y-66330500D01*
X29303617Y-66330500D01*
X29303618Y-66330499D01*
X29315977Y-66328041D01*
X29352279Y-66320821D01*
X29420271Y-66307295D01*
X29487251Y-66293973D01*
X29660231Y-66222322D01*
X29815908Y-66118302D01*
X29948302Y-65985908D01*
X30052322Y-65830231D01*
X30123973Y-65657251D01*
X30160500Y-65473616D01*
X30160500Y-65286384D01*
X30123973Y-65102749D01*
X30072534Y-64978565D01*
X91124500Y-64978565D01*
X91124500Y-65077435D01*
X91150090Y-65172938D01*
X91150091Y-65172939D01*
X91150091Y-65172940D01*
X91153065Y-65178091D01*
X91199525Y-65258562D01*
X91269438Y-65328475D01*
X91355062Y-65377910D01*
X91450565Y-65403500D01*
X91450567Y-65403500D01*
X91550500Y-65403500D01*
X91617539Y-65423185D01*
X91663294Y-65475989D01*
X91674500Y-65527500D01*
X91674500Y-65577435D01*
X91700090Y-65672938D01*
X91749525Y-65758562D01*
X91819438Y-65828475D01*
X91905062Y-65877910D01*
X92000565Y-65903500D01*
X92000567Y-65903500D01*
X92099432Y-65903500D01*
X92099435Y-65903500D01*
X92194938Y-65877910D01*
X92280562Y-65828475D01*
X92350475Y-65758562D01*
X92399910Y-65672938D01*
X92425500Y-65577435D01*
X92425500Y-65478565D01*
X92399910Y-65383062D01*
X92350475Y-65297438D01*
X92280562Y-65227525D01*
X92194938Y-65178090D01*
X92099435Y-65152500D01*
X92000565Y-65152500D01*
X91999500Y-65152500D01*
X91932461Y-65132815D01*
X91886706Y-65080011D01*
X91875500Y-65028500D01*
X91875500Y-64978567D01*
X91875500Y-64978565D01*
X91849910Y-64883062D01*
X91800475Y-64797438D01*
X91730562Y-64727525D01*
X91644938Y-64678090D01*
X91549435Y-64652500D01*
X91450565Y-64652500D01*
X91355062Y-64678090D01*
X91355060Y-64678091D01*
X91355059Y-64678091D01*
X91269436Y-64727526D01*
X91199526Y-64797436D01*
X91150091Y-64883059D01*
X91150091Y-64883060D01*
X91150090Y-64883062D01*
X91124500Y-64978565D01*
X30072534Y-64978565D01*
X30068164Y-64968015D01*
X30052325Y-64929775D01*
X30052318Y-64929762D01*
X29948302Y-64774092D01*
X29948299Y-64774088D01*
X29815911Y-64641700D01*
X29815907Y-64641697D01*
X29660237Y-64537681D01*
X29660228Y-64537676D01*
X29487251Y-64466027D01*
X29487243Y-64466025D01*
X29303620Y-64429500D01*
X29303616Y-64429500D01*
X29116384Y-64429500D01*
X29116379Y-64429500D01*
X28932756Y-64466025D01*
X28932748Y-64466027D01*
X28759771Y-64537676D01*
X28759762Y-64537681D01*
X28604092Y-64641697D01*
X28604088Y-64641700D01*
X28471700Y-64774088D01*
X28471697Y-64774092D01*
X28367681Y-64929762D01*
X28367676Y-64929771D01*
X28296027Y-65102748D01*
X28296025Y-65102756D01*
X28259500Y-65286379D01*
X27620499Y-65286379D01*
X27583973Y-65102749D01*
X27528554Y-64968956D01*
X27512323Y-64929771D01*
X27512318Y-64929762D01*
X27408302Y-64774092D01*
X27408299Y-64774088D01*
X27275911Y-64641700D01*
X27275907Y-64641697D01*
X27120237Y-64537681D01*
X27120228Y-64537676D01*
X26947251Y-64466027D01*
X26947243Y-64466025D01*
X26763620Y-64429500D01*
X26763616Y-64429500D01*
X26576384Y-64429500D01*
X26576379Y-64429500D01*
X26392756Y-64466025D01*
X26392748Y-64466027D01*
X26219771Y-64537676D01*
X26219762Y-64537681D01*
X26064092Y-64641697D01*
X26064088Y-64641700D01*
X25931700Y-64774088D01*
X25931697Y-64774092D01*
X25827681Y-64929762D01*
X25827676Y-64929771D01*
X25756027Y-65102748D01*
X25756025Y-65102756D01*
X25719500Y-65286379D01*
X25080499Y-65286379D01*
X25043973Y-65102749D01*
X24988554Y-64968956D01*
X24972323Y-64929771D01*
X24972318Y-64929762D01*
X24868302Y-64774092D01*
X24868299Y-64774088D01*
X24735911Y-64641700D01*
X24735907Y-64641697D01*
X24580237Y-64537681D01*
X24580228Y-64537676D01*
X24407251Y-64466027D01*
X24407243Y-64466025D01*
X24223620Y-64429500D01*
X24223616Y-64429500D01*
X24036384Y-64429500D01*
X24036379Y-64429500D01*
X23852756Y-64466025D01*
X23852748Y-64466027D01*
X23679771Y-64537676D01*
X23679762Y-64537681D01*
X23524092Y-64641697D01*
X23524088Y-64641700D01*
X23512181Y-64653608D01*
X23450858Y-64687093D01*
X23381166Y-64682109D01*
X23325233Y-64640237D01*
X23300816Y-64574773D01*
X23300500Y-64565927D01*
X23300500Y-64029564D01*
X89924500Y-64029564D01*
X89924500Y-64128434D01*
X89950090Y-64223937D01*
X89999525Y-64309561D01*
X90069438Y-64379474D01*
X90155062Y-64428909D01*
X90250565Y-64454499D01*
X90250567Y-64454499D01*
X90349432Y-64454499D01*
X90349435Y-64454499D01*
X90444938Y-64428909D01*
X90530562Y-64379474D01*
X90600475Y-64309561D01*
X90649910Y-64223937D01*
X90675500Y-64128434D01*
X90675500Y-64078500D01*
X90695185Y-64011461D01*
X90747989Y-63965706D01*
X90799500Y-63954500D01*
X90899432Y-63954500D01*
X90899435Y-63954500D01*
X90994938Y-63928910D01*
X91080562Y-63879475D01*
X91150475Y-63809562D01*
X91199910Y-63723938D01*
X91225500Y-63628435D01*
X91225500Y-63529565D01*
X91199910Y-63434062D01*
X91150475Y-63348438D01*
X91080562Y-63278525D01*
X90994938Y-63229090D01*
X90899435Y-63203500D01*
X90800565Y-63203500D01*
X90705062Y-63229090D01*
X90705060Y-63229091D01*
X90705059Y-63229091D01*
X90619436Y-63278526D01*
X90549526Y-63348436D01*
X90500091Y-63434059D01*
X90500091Y-63434060D01*
X90500090Y-63434062D01*
X90474500Y-63529565D01*
X90474500Y-63529567D01*
X90474500Y-63579499D01*
X90454815Y-63646538D01*
X90402011Y-63692293D01*
X90350500Y-63703499D01*
X90349435Y-63703499D01*
X90250565Y-63703499D01*
X90155062Y-63729089D01*
X90155060Y-63729090D01*
X90155059Y-63729090D01*
X90069436Y-63778525D01*
X89999526Y-63848435D01*
X89950091Y-63934058D01*
X89950091Y-63934059D01*
X89950090Y-63934061D01*
X89924500Y-64029564D01*
X23300500Y-64029564D01*
X23300500Y-61855565D01*
X45574500Y-61855565D01*
X45574500Y-61954435D01*
X45600090Y-62049938D01*
X45649525Y-62135562D01*
X45719438Y-62205475D01*
X45805062Y-62254910D01*
X45900565Y-62280500D01*
X45900567Y-62280500D01*
X45999432Y-62280500D01*
X45999435Y-62280500D01*
X46094938Y-62254910D01*
X46145765Y-62225565D01*
X58524500Y-62225565D01*
X58524500Y-62324435D01*
X58550090Y-62419938D01*
X58550091Y-62419939D01*
X58550091Y-62419940D01*
X58563337Y-62442882D01*
X58599525Y-62505562D01*
X58669438Y-62575475D01*
X58755062Y-62624910D01*
X58850565Y-62650500D01*
X58850567Y-62650500D01*
X58949432Y-62650500D01*
X58949435Y-62650500D01*
X59044938Y-62624910D01*
X59130562Y-62575475D01*
X59200475Y-62505562D01*
X59249910Y-62419938D01*
X59275500Y-62324435D01*
X59275500Y-62225565D01*
X59252724Y-62140565D01*
X81649500Y-62140565D01*
X81649500Y-62239435D01*
X81675090Y-62334938D01*
X81724525Y-62420562D01*
X81794438Y-62490475D01*
X81880062Y-62539910D01*
X81975565Y-62565500D01*
X81975567Y-62565500D01*
X82074432Y-62565500D01*
X82074435Y-62565500D01*
X82169938Y-62539910D01*
X82255562Y-62490475D01*
X82325475Y-62420562D01*
X82374910Y-62334938D01*
X82400500Y-62239435D01*
X82400500Y-62140565D01*
X82384423Y-62080565D01*
X88724500Y-62080565D01*
X88724500Y-62179435D01*
X88750090Y-62274938D01*
X88750091Y-62274939D01*
X88750091Y-62274940D01*
X88753065Y-62280091D01*
X88799525Y-62360562D01*
X88869438Y-62430475D01*
X88955062Y-62479910D01*
X89050565Y-62505500D01*
X89050567Y-62505500D01*
X89150500Y-62505500D01*
X89217539Y-62525185D01*
X89263294Y-62577989D01*
X89274500Y-62629500D01*
X89274500Y-62679435D01*
X89300090Y-62774938D01*
X89349525Y-62860562D01*
X89419438Y-62930475D01*
X89505062Y-62979910D01*
X89600565Y-63005500D01*
X89600567Y-63005500D01*
X89699432Y-63005500D01*
X89699435Y-63005500D01*
X89794938Y-62979910D01*
X89880562Y-62930475D01*
X89950475Y-62860562D01*
X89999910Y-62774938D01*
X90025500Y-62679435D01*
X90025500Y-62580565D01*
X89999910Y-62485062D01*
X89950475Y-62399438D01*
X89880562Y-62329525D01*
X89794938Y-62280090D01*
X89699435Y-62254500D01*
X89600565Y-62254500D01*
X89599500Y-62254500D01*
X89594804Y-62253121D01*
X89590016Y-62254137D01*
X89561601Y-62243371D01*
X89532461Y-62234815D01*
X89529257Y-62231117D01*
X89524679Y-62229383D01*
X89506593Y-62204962D01*
X89486706Y-62182011D01*
X89485210Y-62176089D01*
X89483096Y-62173234D01*
X89479781Y-62154587D01*
X89475772Y-62138708D01*
X89475500Y-62134608D01*
X89475500Y-62080565D01*
X89467462Y-62050565D01*
X134624500Y-62050565D01*
X134624500Y-62149435D01*
X134650090Y-62244938D01*
X134699525Y-62330562D01*
X134769438Y-62400475D01*
X134855062Y-62449910D01*
X134950565Y-62475500D01*
X134950567Y-62475500D01*
X135049432Y-62475500D01*
X135049435Y-62475500D01*
X135144938Y-62449910D01*
X135230562Y-62400475D01*
X135300475Y-62330562D01*
X135349910Y-62244938D01*
X135375500Y-62149435D01*
X135375500Y-62050565D01*
X135349910Y-61955062D01*
X135300475Y-61869438D01*
X135230562Y-61799525D01*
X135144938Y-61750090D01*
X135049435Y-61724500D01*
X134950565Y-61724500D01*
X134855062Y-61750090D01*
X134855060Y-61750091D01*
X134855059Y-61750091D01*
X134769436Y-61799526D01*
X134699526Y-61869436D01*
X134650091Y-61955059D01*
X134650091Y-61955060D01*
X134650090Y-61955062D01*
X134624500Y-62050565D01*
X89467462Y-62050565D01*
X89449910Y-61985062D01*
X89400475Y-61899438D01*
X89330562Y-61829525D01*
X89244938Y-61780090D01*
X89149435Y-61754500D01*
X89050565Y-61754500D01*
X88955062Y-61780090D01*
X88955060Y-61780091D01*
X88955059Y-61780091D01*
X88869436Y-61829526D01*
X88799526Y-61899436D01*
X88750091Y-61985059D01*
X88750091Y-61985060D01*
X88750090Y-61985062D01*
X88724500Y-62080565D01*
X82384423Y-62080565D01*
X82374910Y-62045062D01*
X82325475Y-61959438D01*
X82255562Y-61889525D01*
X82169938Y-61840090D01*
X82074435Y-61814500D01*
X81975565Y-61814500D01*
X81880062Y-61840090D01*
X81880060Y-61840091D01*
X81880059Y-61840091D01*
X81794436Y-61889526D01*
X81724526Y-61959436D01*
X81675091Y-62045059D01*
X81675091Y-62045060D01*
X81675090Y-62045062D01*
X81649500Y-62140565D01*
X59252724Y-62140565D01*
X59249910Y-62130062D01*
X59200475Y-62044438D01*
X59130562Y-61974525D01*
X59044938Y-61925090D01*
X58949435Y-61899500D01*
X58850565Y-61899500D01*
X58755062Y-61925090D01*
X58755060Y-61925091D01*
X58755059Y-61925091D01*
X58669436Y-61974526D01*
X58599526Y-62044436D01*
X58550091Y-62130059D01*
X58550091Y-62130060D01*
X58550090Y-62130062D01*
X58524500Y-62225565D01*
X46145765Y-62225565D01*
X46180562Y-62205475D01*
X46250475Y-62135562D01*
X46299910Y-62049938D01*
X46325500Y-61954435D01*
X46325500Y-61855565D01*
X46299910Y-61760062D01*
X46250475Y-61674438D01*
X46180562Y-61604525D01*
X46094938Y-61555090D01*
X45999435Y-61529500D01*
X45900565Y-61529500D01*
X45805062Y-61555090D01*
X45805060Y-61555091D01*
X45805059Y-61555091D01*
X45719436Y-61604526D01*
X45649526Y-61674436D01*
X45600091Y-61760059D01*
X45600091Y-61760060D01*
X45600090Y-61760062D01*
X45574500Y-61855565D01*
X23300500Y-61855565D01*
X23300500Y-61131565D01*
X87524500Y-61131565D01*
X87524500Y-61230435D01*
X87550090Y-61325938D01*
X87599525Y-61411562D01*
X87669438Y-61481475D01*
X87755062Y-61530910D01*
X87850565Y-61556500D01*
X87850567Y-61556500D01*
X87949432Y-61556500D01*
X87949435Y-61556500D01*
X88044938Y-61530910D01*
X88130562Y-61481475D01*
X88200475Y-61411562D01*
X88249910Y-61325938D01*
X88275500Y-61230435D01*
X88275500Y-61180500D01*
X88295185Y-61113461D01*
X88347989Y-61067706D01*
X88399500Y-61056500D01*
X88499432Y-61056500D01*
X88499435Y-61056500D01*
X88594938Y-61030910D01*
X88680562Y-60981475D01*
X88750475Y-60911562D01*
X88799910Y-60825938D01*
X88825500Y-60730435D01*
X88825500Y-60631565D01*
X88799910Y-60536062D01*
X88750475Y-60450438D01*
X88680562Y-60380525D01*
X88594938Y-60331090D01*
X88499435Y-60305500D01*
X88400565Y-60305500D01*
X88305062Y-60331090D01*
X88305060Y-60331091D01*
X88305059Y-60331091D01*
X88219436Y-60380526D01*
X88149526Y-60450436D01*
X88100091Y-60536059D01*
X88100091Y-60536060D01*
X88100090Y-60536062D01*
X88074500Y-60631565D01*
X88074500Y-60631567D01*
X88074500Y-60681500D01*
X88054815Y-60748539D01*
X88002011Y-60794294D01*
X87950500Y-60805500D01*
X87949435Y-60805500D01*
X87850565Y-60805500D01*
X87755062Y-60831090D01*
X87755060Y-60831091D01*
X87755059Y-60831091D01*
X87669436Y-60880526D01*
X87599526Y-60950436D01*
X87550091Y-61036059D01*
X87550091Y-61036060D01*
X87550090Y-61036062D01*
X87524500Y-61131565D01*
X23300500Y-61131565D01*
X23300500Y-60585565D01*
X45574500Y-60585565D01*
X45574500Y-60684435D01*
X45600090Y-60779938D01*
X45649525Y-60865562D01*
X45719438Y-60935475D01*
X45805062Y-60984910D01*
X45900565Y-61010500D01*
X45900567Y-61010500D01*
X45999433Y-61010500D01*
X45999435Y-61010500D01*
X46094938Y-60984910D01*
X46180562Y-60935475D01*
X46250475Y-60865562D01*
X46299910Y-60779938D01*
X46325500Y-60684435D01*
X46325500Y-60585565D01*
X46299910Y-60490062D01*
X46250475Y-60404438D01*
X46180562Y-60334525D01*
X46094938Y-60285090D01*
X45999435Y-60259500D01*
X45900565Y-60259500D01*
X45805062Y-60285090D01*
X45805060Y-60285091D01*
X45805059Y-60285091D01*
X45719436Y-60334526D01*
X45649526Y-60404436D01*
X45600091Y-60490059D01*
X45600091Y-60490060D01*
X45600090Y-60490062D01*
X45574500Y-60585565D01*
X23300500Y-60585565D01*
X23300500Y-59315565D01*
X40899500Y-59315565D01*
X40899500Y-59414435D01*
X40925090Y-59509938D01*
X40974525Y-59595562D01*
X41044438Y-59665475D01*
X41130062Y-59714910D01*
X41225565Y-59740500D01*
X41225567Y-59740500D01*
X41324432Y-59740500D01*
X41324435Y-59740500D01*
X41419938Y-59714910D01*
X41505562Y-59665475D01*
X41575475Y-59595562D01*
X41624910Y-59509938D01*
X41650500Y-59414435D01*
X41650500Y-59315565D01*
X41624910Y-59220062D01*
X41603261Y-59182565D01*
X86324500Y-59182565D01*
X86324500Y-59281435D01*
X86350090Y-59376938D01*
X86350091Y-59376939D01*
X86350091Y-59376940D01*
X86353065Y-59382091D01*
X86399525Y-59462562D01*
X86469438Y-59532475D01*
X86555062Y-59581910D01*
X86650565Y-59607500D01*
X86650567Y-59607500D01*
X86750500Y-59607500D01*
X86817539Y-59627185D01*
X86863294Y-59679989D01*
X86874500Y-59731500D01*
X86874500Y-59781435D01*
X86900090Y-59876938D01*
X86949525Y-59962562D01*
X87019438Y-60032475D01*
X87105062Y-60081910D01*
X87200565Y-60107500D01*
X87200567Y-60107500D01*
X87299432Y-60107500D01*
X87299435Y-60107500D01*
X87394938Y-60081910D01*
X87480562Y-60032475D01*
X87550475Y-59962562D01*
X87599910Y-59876938D01*
X87625500Y-59781435D01*
X87625500Y-59682565D01*
X87599910Y-59587062D01*
X87550475Y-59501438D01*
X87480562Y-59431525D01*
X87394938Y-59382090D01*
X87299435Y-59356500D01*
X87200565Y-59356500D01*
X87199500Y-59356500D01*
X87132461Y-59336815D01*
X87086706Y-59284011D01*
X87075500Y-59232500D01*
X87075500Y-59182567D01*
X87075500Y-59182565D01*
X87049910Y-59087062D01*
X87000475Y-59001438D01*
X86930562Y-58931525D01*
X86844938Y-58882090D01*
X86749435Y-58856500D01*
X86650565Y-58856500D01*
X86555062Y-58882090D01*
X86555060Y-58882091D01*
X86555059Y-58882091D01*
X86469436Y-58931526D01*
X86399526Y-59001436D01*
X86350091Y-59087059D01*
X86350091Y-59087060D01*
X86350090Y-59087062D01*
X86324500Y-59182565D01*
X41603261Y-59182565D01*
X41575475Y-59134438D01*
X41505562Y-59064525D01*
X41419938Y-59015090D01*
X41324435Y-58989500D01*
X41225565Y-58989500D01*
X41130062Y-59015090D01*
X41130060Y-59015091D01*
X41130059Y-59015091D01*
X41044436Y-59064526D01*
X40974526Y-59134436D01*
X40925091Y-59220059D01*
X40925091Y-59220060D01*
X40925090Y-59220062D01*
X40899500Y-59315565D01*
X23300500Y-59315565D01*
X23300500Y-58233565D01*
X85124500Y-58233565D01*
X85124500Y-58332435D01*
X85150090Y-58427938D01*
X85199525Y-58513562D01*
X85269438Y-58583475D01*
X85355062Y-58632910D01*
X85450565Y-58658500D01*
X85450567Y-58658500D01*
X85549432Y-58658500D01*
X85549435Y-58658500D01*
X85644938Y-58632910D01*
X85730562Y-58583475D01*
X85800475Y-58513562D01*
X85849910Y-58427938D01*
X85875500Y-58332435D01*
X85875500Y-58282500D01*
X85895185Y-58215461D01*
X85947989Y-58169706D01*
X85999500Y-58158500D01*
X86099432Y-58158500D01*
X86099435Y-58158500D01*
X86194938Y-58132910D01*
X86280562Y-58083475D01*
X86350475Y-58013562D01*
X86399910Y-57927938D01*
X86425500Y-57832435D01*
X86425500Y-57733565D01*
X86399910Y-57638062D01*
X86350475Y-57552438D01*
X86280562Y-57482525D01*
X86194938Y-57433090D01*
X86099435Y-57407500D01*
X86000565Y-57407500D01*
X85905062Y-57433090D01*
X85905060Y-57433091D01*
X85905059Y-57433091D01*
X85819436Y-57482526D01*
X85749526Y-57552436D01*
X85700091Y-57638059D01*
X85700091Y-57638060D01*
X85700090Y-57638062D01*
X85674500Y-57733565D01*
X85674500Y-57733567D01*
X85674500Y-57783500D01*
X85654815Y-57850539D01*
X85602011Y-57896294D01*
X85550500Y-57907500D01*
X85549435Y-57907500D01*
X85450565Y-57907500D01*
X85355062Y-57933090D01*
X85355060Y-57933091D01*
X85355059Y-57933091D01*
X85269436Y-57982526D01*
X85199526Y-58052436D01*
X85150091Y-58138059D01*
X85150091Y-58138060D01*
X85150090Y-58138062D01*
X85124500Y-58233565D01*
X23300500Y-58233565D01*
X23300500Y-57120565D01*
X45574500Y-57120565D01*
X45574500Y-57219435D01*
X45600090Y-57314938D01*
X45649525Y-57400562D01*
X45719438Y-57470475D01*
X45805062Y-57519910D01*
X45900565Y-57545500D01*
X45900567Y-57545500D01*
X45999432Y-57545500D01*
X45999435Y-57545500D01*
X46094938Y-57519910D01*
X46180562Y-57470475D01*
X46250475Y-57400562D01*
X46299910Y-57314938D01*
X46325500Y-57219435D01*
X46325500Y-57120565D01*
X46299910Y-57025062D01*
X46250475Y-56939438D01*
X46180562Y-56869525D01*
X46094938Y-56820090D01*
X45999435Y-56794500D01*
X45900565Y-56794500D01*
X45805062Y-56820090D01*
X45805060Y-56820091D01*
X45805059Y-56820091D01*
X45719436Y-56869526D01*
X45649526Y-56939436D01*
X45600091Y-57025059D01*
X45600091Y-57025060D01*
X45600090Y-57025062D01*
X45574500Y-57120565D01*
X23300500Y-57120565D01*
X23300500Y-56774073D01*
X23320185Y-56707034D01*
X23372989Y-56661279D01*
X23442147Y-56651335D01*
X23505703Y-56680360D01*
X23512181Y-56686392D01*
X23524088Y-56698299D01*
X23524092Y-56698302D01*
X23679762Y-56802318D01*
X23679768Y-56802321D01*
X23679769Y-56802322D01*
X23852749Y-56873973D01*
X24036379Y-56910499D01*
X24036383Y-56910500D01*
X24036384Y-56910500D01*
X24223617Y-56910500D01*
X24223618Y-56910499D01*
X24407251Y-56873973D01*
X24580231Y-56802322D01*
X24735908Y-56698302D01*
X24868302Y-56565908D01*
X24972322Y-56410231D01*
X25043973Y-56237251D01*
X25080500Y-56053616D01*
X25080500Y-55866384D01*
X25080499Y-55866379D01*
X28259500Y-55866379D01*
X28259500Y-56053620D01*
X28296025Y-56237243D01*
X28296027Y-56237251D01*
X28367676Y-56410228D01*
X28367681Y-56410237D01*
X28471697Y-56565907D01*
X28471700Y-56565911D01*
X28604088Y-56698299D01*
X28604092Y-56698302D01*
X28759762Y-56802318D01*
X28759768Y-56802321D01*
X28759769Y-56802322D01*
X28932749Y-56873973D01*
X29116379Y-56910499D01*
X29116383Y-56910500D01*
X29116384Y-56910500D01*
X29303617Y-56910500D01*
X29303618Y-56910499D01*
X29487251Y-56873973D01*
X29660231Y-56802322D01*
X29815908Y-56698302D01*
X29948302Y-56565908D01*
X30046311Y-56419226D01*
X30099923Y-56374422D01*
X30169248Y-56365715D01*
X30211409Y-56380729D01*
X30266391Y-56412473D01*
X30361894Y-56438063D01*
X30361896Y-56438063D01*
X30460761Y-56438063D01*
X30460764Y-56438063D01*
X30556267Y-56412473D01*
X30641891Y-56363038D01*
X30684784Y-56320144D01*
X30746105Y-56286660D01*
X30815796Y-56291644D01*
X30871730Y-56333515D01*
X30887024Y-56360372D01*
X30907673Y-56410222D01*
X30907681Y-56410237D01*
X31011697Y-56565907D01*
X31011700Y-56565911D01*
X31144088Y-56698299D01*
X31144092Y-56698302D01*
X31299762Y-56802318D01*
X31299768Y-56802321D01*
X31299769Y-56802322D01*
X31472749Y-56873973D01*
X31656379Y-56910499D01*
X31656383Y-56910500D01*
X31656384Y-56910500D01*
X31843617Y-56910500D01*
X31843618Y-56910499D01*
X32027251Y-56873973D01*
X32200231Y-56802322D01*
X32355908Y-56698302D01*
X32488302Y-56565908D01*
X32546413Y-56478939D01*
X32578706Y-56430609D01*
X32632318Y-56385804D01*
X32681808Y-56375500D01*
X32774432Y-56375500D01*
X32774435Y-56375500D01*
X32869938Y-56349910D01*
X32955562Y-56300475D01*
X33025475Y-56230562D01*
X33074910Y-56144938D01*
X33100500Y-56049435D01*
X33100500Y-55950565D01*
X33074910Y-55855062D01*
X33025475Y-55769438D01*
X32955562Y-55699525D01*
X32910598Y-55673565D01*
X83974500Y-55673565D01*
X83974500Y-55772435D01*
X84000090Y-55867938D01*
X84000091Y-55867939D01*
X84000091Y-55867940D01*
X84002686Y-55872435D01*
X84049525Y-55953562D01*
X84049526Y-55953563D01*
X84053589Y-55960600D01*
X84052321Y-55961331D01*
X84074299Y-56018186D01*
X84060259Y-56086630D01*
X84050124Y-56102400D01*
X84000091Y-56189059D01*
X84000091Y-56189060D01*
X84000090Y-56189062D01*
X83974500Y-56284565D01*
X83974500Y-56383435D01*
X84000090Y-56478938D01*
X84000091Y-56478939D01*
X84000091Y-56478940D01*
X84003065Y-56484091D01*
X84049525Y-56564562D01*
X84119438Y-56634475D01*
X84205062Y-56683910D01*
X84300565Y-56709500D01*
X84300567Y-56709500D01*
X84350500Y-56709500D01*
X84417539Y-56729185D01*
X84463294Y-56781989D01*
X84474500Y-56833500D01*
X84474500Y-56883435D01*
X84500090Y-56978938D01*
X84549525Y-57064562D01*
X84619438Y-57134475D01*
X84705062Y-57183910D01*
X84800565Y-57209500D01*
X84800567Y-57209500D01*
X84899432Y-57209500D01*
X84899435Y-57209500D01*
X84994938Y-57183910D01*
X85080562Y-57134475D01*
X85150475Y-57064562D01*
X85199910Y-56978938D01*
X85225500Y-56883435D01*
X85225500Y-56784565D01*
X85199910Y-56689062D01*
X85150475Y-56603438D01*
X85080562Y-56533525D01*
X84994938Y-56484090D01*
X84899435Y-56458500D01*
X84849500Y-56458500D01*
X84782461Y-56438815D01*
X84736706Y-56386011D01*
X84725500Y-56334500D01*
X84725500Y-56284567D01*
X84725500Y-56284565D01*
X84699910Y-56189062D01*
X84650475Y-56103438D01*
X84650473Y-56103436D01*
X84646411Y-56096400D01*
X84647679Y-56095667D01*
X84625701Y-56038827D01*
X84639734Y-55970381D01*
X84649876Y-55954598D01*
X84650472Y-55953564D01*
X84650475Y-55953562D01*
X84699910Y-55867938D01*
X84725197Y-55773565D01*
X85124500Y-55773565D01*
X85124500Y-55872435D01*
X85150090Y-55967938D01*
X85199525Y-56053562D01*
X85269438Y-56123475D01*
X85355062Y-56172910D01*
X85450565Y-56198500D01*
X85450567Y-56198500D01*
X85549432Y-56198500D01*
X85549435Y-56198500D01*
X85644938Y-56172910D01*
X85730562Y-56123475D01*
X85800475Y-56053562D01*
X85849910Y-55967938D01*
X85875500Y-55872435D01*
X85875500Y-55773565D01*
X86324500Y-55773565D01*
X86324500Y-55872435D01*
X86350090Y-55967938D01*
X86399525Y-56053562D01*
X86469438Y-56123475D01*
X86555062Y-56172910D01*
X86650565Y-56198500D01*
X86650567Y-56198500D01*
X86749432Y-56198500D01*
X86749435Y-56198500D01*
X86844938Y-56172910D01*
X86930562Y-56123475D01*
X87000475Y-56053562D01*
X87049910Y-55967938D01*
X87075500Y-55872435D01*
X87075500Y-55773565D01*
X87524500Y-55773565D01*
X87524500Y-55872435D01*
X87550090Y-55967938D01*
X87599525Y-56053562D01*
X87669438Y-56123475D01*
X87755062Y-56172910D01*
X87850565Y-56198500D01*
X87850567Y-56198500D01*
X87949432Y-56198500D01*
X87949435Y-56198500D01*
X88044938Y-56172910D01*
X88130562Y-56123475D01*
X88200475Y-56053562D01*
X88249910Y-55967938D01*
X88275500Y-55872435D01*
X88275500Y-55773565D01*
X88724500Y-55773565D01*
X88724500Y-55872435D01*
X88750090Y-55967938D01*
X88799525Y-56053562D01*
X88869438Y-56123475D01*
X88955062Y-56172910D01*
X89050565Y-56198500D01*
X89050567Y-56198500D01*
X89149432Y-56198500D01*
X89149435Y-56198500D01*
X89244938Y-56172910D01*
X89330562Y-56123475D01*
X89400475Y-56053562D01*
X89449910Y-55967938D01*
X89475500Y-55872435D01*
X89475500Y-55773565D01*
X89924500Y-55773565D01*
X89924500Y-55872435D01*
X89950090Y-55967938D01*
X89999525Y-56053562D01*
X90069438Y-56123475D01*
X90155062Y-56172910D01*
X90250565Y-56198500D01*
X90250567Y-56198500D01*
X90349432Y-56198500D01*
X90349435Y-56198500D01*
X90444938Y-56172910D01*
X90530562Y-56123475D01*
X90600475Y-56053562D01*
X90649910Y-55967938D01*
X90675500Y-55872435D01*
X90675500Y-55773565D01*
X91124500Y-55773565D01*
X91124500Y-55872435D01*
X91150090Y-55967938D01*
X91199525Y-56053562D01*
X91269438Y-56123475D01*
X91355062Y-56172910D01*
X91450565Y-56198500D01*
X91450567Y-56198500D01*
X91549432Y-56198500D01*
X91549435Y-56198500D01*
X91644938Y-56172910D01*
X91730562Y-56123475D01*
X91800475Y-56053562D01*
X91849910Y-55967938D01*
X91875500Y-55872435D01*
X91875500Y-55773565D01*
X92324500Y-55773565D01*
X92324500Y-55872435D01*
X92350090Y-55967938D01*
X92399525Y-56053562D01*
X92469438Y-56123475D01*
X92555062Y-56172910D01*
X92650565Y-56198500D01*
X92650567Y-56198500D01*
X92749432Y-56198500D01*
X92749435Y-56198500D01*
X92844938Y-56172910D01*
X92930562Y-56123475D01*
X92965972Y-56088065D01*
X134574500Y-56088065D01*
X134574500Y-56186935D01*
X134600090Y-56282438D01*
X134600091Y-56282439D01*
X134600091Y-56282440D01*
X134610504Y-56300475D01*
X134649525Y-56368062D01*
X134719438Y-56437975D01*
X134805062Y-56487410D01*
X134900565Y-56513000D01*
X134900567Y-56513000D01*
X134999432Y-56513000D01*
X134999435Y-56513000D01*
X135094938Y-56487410D01*
X135180562Y-56437975D01*
X135250475Y-56368062D01*
X135299910Y-56282438D01*
X135325500Y-56186935D01*
X135325500Y-56088065D01*
X135299910Y-55992562D01*
X135250475Y-55906938D01*
X135180562Y-55837025D01*
X135094938Y-55787590D01*
X134999435Y-55762000D01*
X134900565Y-55762000D01*
X134805062Y-55787590D01*
X134805060Y-55787591D01*
X134805059Y-55787591D01*
X134719436Y-55837026D01*
X134649526Y-55906936D01*
X134600091Y-55992559D01*
X134600091Y-55992560D01*
X134600090Y-55992562D01*
X134574500Y-56088065D01*
X92965972Y-56088065D01*
X93000475Y-56053562D01*
X93049910Y-55967938D01*
X93075500Y-55872435D01*
X93075500Y-55773565D01*
X93049910Y-55678062D01*
X93000475Y-55592438D01*
X92930562Y-55522525D01*
X92844938Y-55473090D01*
X92749435Y-55447500D01*
X92650565Y-55447500D01*
X92555062Y-55473090D01*
X92555060Y-55473091D01*
X92555059Y-55473091D01*
X92469436Y-55522526D01*
X92399526Y-55592436D01*
X92350091Y-55678059D01*
X92350091Y-55678060D01*
X92350090Y-55678062D01*
X92324500Y-55773565D01*
X91875500Y-55773565D01*
X91849910Y-55678062D01*
X91800475Y-55592438D01*
X91730562Y-55522525D01*
X91644938Y-55473090D01*
X91549435Y-55447500D01*
X91450565Y-55447500D01*
X91355062Y-55473090D01*
X91355060Y-55473091D01*
X91355059Y-55473091D01*
X91269436Y-55522526D01*
X91199526Y-55592436D01*
X91150091Y-55678059D01*
X91150091Y-55678060D01*
X91150090Y-55678062D01*
X91124500Y-55773565D01*
X90675500Y-55773565D01*
X90649910Y-55678062D01*
X90600475Y-55592438D01*
X90530562Y-55522525D01*
X90444938Y-55473090D01*
X90349435Y-55447500D01*
X90250565Y-55447500D01*
X90155062Y-55473090D01*
X90155060Y-55473091D01*
X90155059Y-55473091D01*
X90069436Y-55522526D01*
X89999526Y-55592436D01*
X89950091Y-55678059D01*
X89950091Y-55678060D01*
X89950090Y-55678062D01*
X89924500Y-55773565D01*
X89475500Y-55773565D01*
X89449910Y-55678062D01*
X89400475Y-55592438D01*
X89330562Y-55522525D01*
X89244938Y-55473090D01*
X89149435Y-55447500D01*
X89050565Y-55447500D01*
X88955062Y-55473090D01*
X88955060Y-55473091D01*
X88955059Y-55473091D01*
X88869436Y-55522526D01*
X88799526Y-55592436D01*
X88750091Y-55678059D01*
X88750091Y-55678060D01*
X88750090Y-55678062D01*
X88724500Y-55773565D01*
X88275500Y-55773565D01*
X88249910Y-55678062D01*
X88200475Y-55592438D01*
X88130562Y-55522525D01*
X88044938Y-55473090D01*
X87949435Y-55447500D01*
X87850565Y-55447500D01*
X87755062Y-55473090D01*
X87755060Y-55473091D01*
X87755059Y-55473091D01*
X87669436Y-55522526D01*
X87599526Y-55592436D01*
X87550091Y-55678059D01*
X87550091Y-55678060D01*
X87550090Y-55678062D01*
X87524500Y-55773565D01*
X87075500Y-55773565D01*
X87049910Y-55678062D01*
X87000475Y-55592438D01*
X86930562Y-55522525D01*
X86844938Y-55473090D01*
X86749435Y-55447500D01*
X86650565Y-55447500D01*
X86555062Y-55473090D01*
X86555060Y-55473091D01*
X86555059Y-55473091D01*
X86469436Y-55522526D01*
X86399526Y-55592436D01*
X86350091Y-55678059D01*
X86350091Y-55678060D01*
X86350090Y-55678062D01*
X86324500Y-55773565D01*
X85875500Y-55773565D01*
X85849910Y-55678062D01*
X85800475Y-55592438D01*
X85730562Y-55522525D01*
X85644938Y-55473090D01*
X85549435Y-55447500D01*
X85450565Y-55447500D01*
X85355062Y-55473090D01*
X85355060Y-55473091D01*
X85355059Y-55473091D01*
X85269436Y-55522526D01*
X85199526Y-55592436D01*
X85150091Y-55678059D01*
X85150091Y-55678060D01*
X85150090Y-55678062D01*
X85124500Y-55773565D01*
X84725197Y-55773565D01*
X84725500Y-55772435D01*
X84725500Y-55673565D01*
X84699910Y-55578062D01*
X84650475Y-55492438D01*
X84580562Y-55422525D01*
X84494938Y-55373090D01*
X84399435Y-55347500D01*
X84300565Y-55347500D01*
X84205062Y-55373090D01*
X84205060Y-55373091D01*
X84205059Y-55373091D01*
X84119436Y-55422526D01*
X84049526Y-55492436D01*
X84000091Y-55578059D01*
X84000091Y-55578060D01*
X84000090Y-55578062D01*
X83974500Y-55673565D01*
X32910598Y-55673565D01*
X32869938Y-55650090D01*
X32774435Y-55624500D01*
X32722699Y-55624500D01*
X32655660Y-55604815D01*
X32609905Y-55552011D01*
X32608154Y-55547992D01*
X32592322Y-55509769D01*
X32592320Y-55509766D01*
X32592318Y-55509762D01*
X32488302Y-55354092D01*
X32488299Y-55354088D01*
X32355911Y-55221700D01*
X32355907Y-55221697D01*
X32342988Y-55213065D01*
X33874500Y-55213065D01*
X33874500Y-55311935D01*
X33900090Y-55407438D01*
X33949525Y-55493062D01*
X34019438Y-55562975D01*
X34105062Y-55612410D01*
X34200565Y-55638000D01*
X34200567Y-55638000D01*
X34299432Y-55638000D01*
X34299435Y-55638000D01*
X34394938Y-55612410D01*
X34480562Y-55562975D01*
X34550475Y-55493062D01*
X34599910Y-55407438D01*
X34625500Y-55311935D01*
X34625500Y-55213065D01*
X34599910Y-55117562D01*
X34550475Y-55031938D01*
X34480562Y-54962025D01*
X34394938Y-54912590D01*
X34299435Y-54887000D01*
X34200565Y-54887000D01*
X34105062Y-54912590D01*
X34105060Y-54912591D01*
X34105059Y-54912591D01*
X34019436Y-54962026D01*
X33949526Y-55031936D01*
X33900091Y-55117559D01*
X33900091Y-55117560D01*
X33900090Y-55117562D01*
X33874500Y-55213065D01*
X32342988Y-55213065D01*
X32200237Y-55117681D01*
X32200228Y-55117676D01*
X32027251Y-55046027D01*
X32027243Y-55046025D01*
X31843620Y-55009500D01*
X31843616Y-55009500D01*
X31656384Y-55009500D01*
X31656379Y-55009500D01*
X31472756Y-55046025D01*
X31472748Y-55046027D01*
X31299771Y-55117676D01*
X31299762Y-55117681D01*
X31144092Y-55221697D01*
X31144088Y-55221700D01*
X31011700Y-55354088D01*
X31011697Y-55354092D01*
X30907681Y-55509762D01*
X30907676Y-55509771D01*
X30836027Y-55682748D01*
X30836025Y-55682755D01*
X30835527Y-55685259D01*
X30834905Y-55686446D01*
X30834258Y-55688581D01*
X30833853Y-55688458D01*
X30803134Y-55747167D01*
X30742415Y-55781734D01*
X30672646Y-55777986D01*
X30649380Y-55765370D01*
X30648929Y-55766152D01*
X30641892Y-55762089D01*
X30641891Y-55762088D01*
X30556267Y-55712653D01*
X30460764Y-55687063D01*
X30361894Y-55687063D01*
X30266391Y-55712653D01*
X30266389Y-55712654D01*
X30258541Y-55714757D01*
X30257928Y-55712470D01*
X30200473Y-55718638D01*
X30137999Y-55687353D01*
X30107949Y-55644064D01*
X30052325Y-55509775D01*
X30052318Y-55509762D01*
X29948302Y-55354092D01*
X29948299Y-55354088D01*
X29815911Y-55221700D01*
X29815907Y-55221697D01*
X29660237Y-55117681D01*
X29660228Y-55117676D01*
X29487251Y-55046027D01*
X29487243Y-55046025D01*
X29303620Y-55009500D01*
X29303616Y-55009500D01*
X29116384Y-55009500D01*
X29116379Y-55009500D01*
X28932756Y-55046025D01*
X28932748Y-55046027D01*
X28759771Y-55117676D01*
X28759762Y-55117681D01*
X28604092Y-55221697D01*
X28604088Y-55221700D01*
X28471700Y-55354088D01*
X28471697Y-55354092D01*
X28367681Y-55509762D01*
X28367676Y-55509771D01*
X28296027Y-55682748D01*
X28296025Y-55682756D01*
X28259500Y-55866379D01*
X25080499Y-55866379D01*
X25043973Y-55682749D01*
X24977606Y-55522525D01*
X24972323Y-55509771D01*
X24972318Y-55509762D01*
X24868302Y-55354092D01*
X24868299Y-55354088D01*
X24735911Y-55221700D01*
X24735907Y-55221697D01*
X24580237Y-55117681D01*
X24580228Y-55117676D01*
X24407251Y-55046027D01*
X24407243Y-55046025D01*
X24223620Y-55009500D01*
X24223616Y-55009500D01*
X24036384Y-55009500D01*
X24036379Y-55009500D01*
X23852756Y-55046025D01*
X23852748Y-55046027D01*
X23679771Y-55117676D01*
X23679762Y-55117681D01*
X23524092Y-55221697D01*
X23524088Y-55221700D01*
X23512181Y-55233608D01*
X23450858Y-55267093D01*
X23381166Y-55262109D01*
X23325233Y-55220237D01*
X23300816Y-55154773D01*
X23300500Y-55145927D01*
X23300500Y-54450565D01*
X30099500Y-54450565D01*
X30099500Y-54549435D01*
X30125090Y-54644938D01*
X30174525Y-54730562D01*
X30244438Y-54800475D01*
X30330062Y-54849910D01*
X30425565Y-54875500D01*
X30425567Y-54875500D01*
X30524432Y-54875500D01*
X30524435Y-54875500D01*
X30619938Y-54849910D01*
X30705562Y-54800475D01*
X30775475Y-54730562D01*
X30824910Y-54644938D01*
X30850500Y-54549435D01*
X30850500Y-54450565D01*
X32149500Y-54450565D01*
X32149500Y-54549435D01*
X32175090Y-54644938D01*
X32224525Y-54730562D01*
X32294438Y-54800475D01*
X32380062Y-54849910D01*
X32475565Y-54875500D01*
X32475567Y-54875500D01*
X32574432Y-54875500D01*
X32574435Y-54875500D01*
X32669938Y-54849910D01*
X32703445Y-54830565D01*
X84474500Y-54830565D01*
X84474500Y-54929435D01*
X84500090Y-55024938D01*
X84549525Y-55110562D01*
X84619438Y-55180475D01*
X84705062Y-55229910D01*
X84800565Y-55255500D01*
X84800568Y-55255500D01*
X84899432Y-55255500D01*
X84899435Y-55255500D01*
X84994938Y-55229910D01*
X85080562Y-55180475D01*
X85150475Y-55110562D01*
X85199910Y-55024938D01*
X85225500Y-54929435D01*
X85225500Y-54830565D01*
X85199910Y-54735062D01*
X85150475Y-54649438D01*
X85080562Y-54579525D01*
X84994938Y-54530090D01*
X84899435Y-54504500D01*
X84800565Y-54504500D01*
X84705062Y-54530090D01*
X84705060Y-54530091D01*
X84705059Y-54530091D01*
X84619436Y-54579526D01*
X84549526Y-54649436D01*
X84500091Y-54735059D01*
X84500091Y-54735060D01*
X84500090Y-54735062D01*
X84474500Y-54830565D01*
X32703445Y-54830565D01*
X32755562Y-54800475D01*
X32825475Y-54730562D01*
X32874910Y-54644938D01*
X32900500Y-54549435D01*
X32900500Y-54450565D01*
X32874910Y-54355062D01*
X32825475Y-54269438D01*
X32755562Y-54199525D01*
X32669938Y-54150090D01*
X32574435Y-54124500D01*
X32475565Y-54124500D01*
X32380062Y-54150090D01*
X32380060Y-54150091D01*
X32380059Y-54150091D01*
X32294436Y-54199526D01*
X32224526Y-54269436D01*
X32175091Y-54355059D01*
X32175091Y-54355060D01*
X32175090Y-54355062D01*
X32149500Y-54450565D01*
X30850500Y-54450565D01*
X30824910Y-54355062D01*
X30775475Y-54269438D01*
X30705562Y-54199525D01*
X30619938Y-54150090D01*
X30524435Y-54124500D01*
X30425565Y-54124500D01*
X30330062Y-54150090D01*
X30330060Y-54150091D01*
X30330059Y-54150091D01*
X30244436Y-54199526D01*
X30174526Y-54269436D01*
X30125091Y-54355059D01*
X30125091Y-54355060D01*
X30125090Y-54355062D01*
X30099500Y-54450565D01*
X23300500Y-54450565D01*
X23300500Y-53925565D01*
X85024500Y-53925565D01*
X85024500Y-54024435D01*
X85050090Y-54119938D01*
X85099525Y-54205562D01*
X85169438Y-54275475D01*
X85255062Y-54324910D01*
X85350565Y-54350500D01*
X85350567Y-54350500D01*
X85449432Y-54350500D01*
X85449435Y-54350500D01*
X85544938Y-54324910D01*
X85553849Y-54319764D01*
X85621744Y-54303291D01*
X85677848Y-54319764D01*
X85730057Y-54349907D01*
X85730058Y-54349908D01*
X85730062Y-54349910D01*
X85775219Y-54362009D01*
X85834878Y-54398374D01*
X85865407Y-54461221D01*
X85857112Y-54530597D01*
X85824276Y-54572869D01*
X85825185Y-54573778D01*
X85749526Y-54649436D01*
X85700091Y-54735059D01*
X85700091Y-54735060D01*
X85700090Y-54735062D01*
X85674500Y-54830565D01*
X85674500Y-54929435D01*
X85700090Y-55024938D01*
X85749525Y-55110562D01*
X85819438Y-55180475D01*
X85905062Y-55229910D01*
X86000565Y-55255500D01*
X86000567Y-55255500D01*
X86099432Y-55255500D01*
X86099435Y-55255500D01*
X86194938Y-55229910D01*
X86280562Y-55180475D01*
X86350475Y-55110562D01*
X86399910Y-55024938D01*
X86425500Y-54929435D01*
X86425500Y-54830565D01*
X86399910Y-54735062D01*
X86350475Y-54649438D01*
X86280562Y-54579525D01*
X86194938Y-54530090D01*
X86194937Y-54530089D01*
X86194933Y-54530088D01*
X86149780Y-54517989D01*
X86090120Y-54481624D01*
X86059592Y-54418776D01*
X86067887Y-54349401D01*
X86100726Y-54307133D01*
X86099815Y-54306222D01*
X86162319Y-54243718D01*
X86223642Y-54210233D01*
X86293334Y-54215217D01*
X86337681Y-54243718D01*
X86369438Y-54275475D01*
X86455062Y-54324910D01*
X86550565Y-54350500D01*
X86550567Y-54350500D01*
X86649432Y-54350500D01*
X86649435Y-54350500D01*
X86744938Y-54324910D01*
X86830562Y-54275475D01*
X86830564Y-54275472D01*
X86836203Y-54272217D01*
X86904103Y-54255743D01*
X86970130Y-54278595D01*
X86985885Y-54291922D01*
X86994438Y-54300475D01*
X87062603Y-54339830D01*
X87110818Y-54390395D01*
X87124042Y-54459002D01*
X87098074Y-54523867D01*
X87062605Y-54554602D01*
X87019436Y-54579526D01*
X86949526Y-54649436D01*
X86900091Y-54735059D01*
X86900091Y-54735060D01*
X86900090Y-54735062D01*
X86874500Y-54830565D01*
X86874500Y-54929435D01*
X86900090Y-55024938D01*
X86949525Y-55110562D01*
X87019438Y-55180475D01*
X87105062Y-55229910D01*
X87200565Y-55255500D01*
X87200567Y-55255500D01*
X87299432Y-55255500D01*
X87299435Y-55255500D01*
X87394938Y-55229910D01*
X87480562Y-55180475D01*
X87550475Y-55110562D01*
X87599910Y-55024938D01*
X87625500Y-54929435D01*
X87625500Y-54830565D01*
X87599910Y-54735062D01*
X87550475Y-54649438D01*
X87480562Y-54579525D01*
X87412394Y-54540168D01*
X87364180Y-54489603D01*
X87350957Y-54420996D01*
X87376925Y-54356131D01*
X87412392Y-54325398D01*
X87455562Y-54300475D01*
X87455570Y-54300466D01*
X87457313Y-54299130D01*
X87459061Y-54298454D01*
X87462600Y-54296411D01*
X87462918Y-54296962D01*
X87522482Y-54273935D01*
X87590927Y-54287973D01*
X87594787Y-54290110D01*
X87655062Y-54324910D01*
X87750565Y-54350500D01*
X87750567Y-54350500D01*
X87849432Y-54350500D01*
X87849435Y-54350500D01*
X87944938Y-54324910D01*
X87953849Y-54319764D01*
X88021744Y-54303291D01*
X88077848Y-54319764D01*
X88130057Y-54349907D01*
X88130058Y-54349908D01*
X88130062Y-54349910D01*
X88175219Y-54362009D01*
X88234878Y-54398374D01*
X88265407Y-54461221D01*
X88257112Y-54530597D01*
X88224276Y-54572869D01*
X88225185Y-54573778D01*
X88149526Y-54649436D01*
X88100091Y-54735059D01*
X88100091Y-54735060D01*
X88100090Y-54735062D01*
X88074500Y-54830565D01*
X88074500Y-54929435D01*
X88100090Y-55024938D01*
X88149525Y-55110562D01*
X88219438Y-55180475D01*
X88305062Y-55229910D01*
X88400565Y-55255500D01*
X88400567Y-55255500D01*
X88499432Y-55255500D01*
X88499435Y-55255500D01*
X88594938Y-55229910D01*
X88680562Y-55180475D01*
X88750475Y-55110562D01*
X88799910Y-55024938D01*
X88825500Y-54929435D01*
X88825500Y-54830565D01*
X88799910Y-54735062D01*
X88750475Y-54649438D01*
X88680562Y-54579525D01*
X88594938Y-54530090D01*
X88594937Y-54530089D01*
X88594933Y-54530088D01*
X88549780Y-54517989D01*
X88490120Y-54481624D01*
X88459592Y-54418776D01*
X88467887Y-54349401D01*
X88500726Y-54307133D01*
X88499815Y-54306222D01*
X88562319Y-54243718D01*
X88623642Y-54210233D01*
X88693334Y-54215217D01*
X88737681Y-54243718D01*
X88769438Y-54275475D01*
X88855062Y-54324910D01*
X88950565Y-54350500D01*
X88950567Y-54350500D01*
X89049432Y-54350500D01*
X89049435Y-54350500D01*
X89144938Y-54324910D01*
X89230562Y-54275475D01*
X89230564Y-54275472D01*
X89236203Y-54272217D01*
X89304103Y-54255743D01*
X89370130Y-54278595D01*
X89385885Y-54291922D01*
X89394438Y-54300475D01*
X89462603Y-54339830D01*
X89510818Y-54390395D01*
X89524042Y-54459002D01*
X89498074Y-54523867D01*
X89462605Y-54554602D01*
X89419436Y-54579526D01*
X89349526Y-54649436D01*
X89300091Y-54735059D01*
X89300091Y-54735060D01*
X89300090Y-54735062D01*
X89274500Y-54830565D01*
X89274500Y-54929435D01*
X89300090Y-55024938D01*
X89349525Y-55110562D01*
X89419438Y-55180475D01*
X89505062Y-55229910D01*
X89600565Y-55255500D01*
X89600567Y-55255500D01*
X89699432Y-55255500D01*
X89699435Y-55255500D01*
X89794938Y-55229910D01*
X89880562Y-55180475D01*
X89950475Y-55110562D01*
X89999910Y-55024938D01*
X90025500Y-54929435D01*
X90025500Y-54830565D01*
X89999910Y-54735062D01*
X89950475Y-54649438D01*
X89880562Y-54579525D01*
X89812394Y-54540168D01*
X89764180Y-54489603D01*
X89750957Y-54420996D01*
X89776925Y-54356131D01*
X89812392Y-54325398D01*
X89855562Y-54300475D01*
X89855570Y-54300466D01*
X89857313Y-54299130D01*
X89859061Y-54298454D01*
X89862600Y-54296411D01*
X89862918Y-54296962D01*
X89922482Y-54273935D01*
X89990927Y-54287973D01*
X89994787Y-54290110D01*
X90055062Y-54324910D01*
X90150565Y-54350500D01*
X90150567Y-54350500D01*
X90249432Y-54350500D01*
X90249435Y-54350500D01*
X90344938Y-54324910D01*
X90430562Y-54275475D01*
X90430564Y-54275472D01*
X90436203Y-54272217D01*
X90504103Y-54255743D01*
X90570130Y-54278595D01*
X90585885Y-54291922D01*
X90594438Y-54300475D01*
X90662603Y-54339830D01*
X90710818Y-54390395D01*
X90724042Y-54459002D01*
X90698074Y-54523867D01*
X90662605Y-54554602D01*
X90619436Y-54579526D01*
X90549526Y-54649436D01*
X90500091Y-54735059D01*
X90500091Y-54735060D01*
X90500090Y-54735062D01*
X90474500Y-54830565D01*
X90474500Y-54929435D01*
X90500090Y-55024938D01*
X90549525Y-55110562D01*
X90619438Y-55180475D01*
X90705062Y-55229910D01*
X90800565Y-55255500D01*
X90800567Y-55255500D01*
X90899432Y-55255500D01*
X90899435Y-55255500D01*
X90994938Y-55229910D01*
X91080562Y-55180475D01*
X91150475Y-55110562D01*
X91199910Y-55024938D01*
X91225500Y-54929435D01*
X91225500Y-54830565D01*
X91199910Y-54735062D01*
X91150475Y-54649438D01*
X91080562Y-54579525D01*
X91012394Y-54540168D01*
X90964180Y-54489603D01*
X90950957Y-54420996D01*
X90976925Y-54356131D01*
X91012392Y-54325398D01*
X91055562Y-54300475D01*
X91055570Y-54300466D01*
X91057313Y-54299130D01*
X91059061Y-54298454D01*
X91062600Y-54296411D01*
X91062918Y-54296962D01*
X91122482Y-54273935D01*
X91190927Y-54287973D01*
X91194787Y-54290110D01*
X91255062Y-54324910D01*
X91350565Y-54350500D01*
X91350567Y-54350500D01*
X91449432Y-54350500D01*
X91449435Y-54350500D01*
X91544938Y-54324910D01*
X91553849Y-54319764D01*
X91621744Y-54303291D01*
X91677848Y-54319764D01*
X91730057Y-54349907D01*
X91730058Y-54349908D01*
X91730062Y-54349910D01*
X91775219Y-54362009D01*
X91834878Y-54398374D01*
X91865407Y-54461221D01*
X91857112Y-54530597D01*
X91824276Y-54572869D01*
X91825185Y-54573778D01*
X91749526Y-54649436D01*
X91700091Y-54735059D01*
X91700091Y-54735060D01*
X91700090Y-54735062D01*
X91674500Y-54830565D01*
X91674500Y-54929435D01*
X91700090Y-55024938D01*
X91749525Y-55110562D01*
X91819438Y-55180475D01*
X91905062Y-55229910D01*
X92000565Y-55255500D01*
X92000567Y-55255500D01*
X92099432Y-55255500D01*
X92099435Y-55255500D01*
X92194938Y-55229910D01*
X92280562Y-55180475D01*
X92350475Y-55110562D01*
X92367794Y-55080565D01*
X93324500Y-55080565D01*
X93324500Y-55179435D01*
X93350090Y-55274938D01*
X93399525Y-55360562D01*
X93469438Y-55430475D01*
X93555062Y-55479910D01*
X93650565Y-55505500D01*
X93650567Y-55505500D01*
X93749432Y-55505500D01*
X93749435Y-55505500D01*
X93844938Y-55479910D01*
X93930562Y-55430475D01*
X94000475Y-55360562D01*
X94049910Y-55274938D01*
X94075500Y-55179435D01*
X94075500Y-55080565D01*
X94049910Y-54985062D01*
X94000475Y-54899438D01*
X93930562Y-54829525D01*
X93844938Y-54780090D01*
X93749435Y-54754500D01*
X93650565Y-54754500D01*
X93555062Y-54780090D01*
X93555060Y-54780091D01*
X93555059Y-54780091D01*
X93469436Y-54829526D01*
X93399526Y-54899436D01*
X93350091Y-54985059D01*
X93350091Y-54985060D01*
X93350090Y-54985062D01*
X93324500Y-55080565D01*
X92367794Y-55080565D01*
X92399910Y-55024938D01*
X92425500Y-54929435D01*
X92425500Y-54830565D01*
X92399910Y-54735062D01*
X92350475Y-54649438D01*
X92280562Y-54579525D01*
X92194938Y-54530090D01*
X92194937Y-54530089D01*
X92194933Y-54530088D01*
X92149780Y-54517989D01*
X92090120Y-54481624D01*
X92059592Y-54418776D01*
X92067887Y-54349401D01*
X92100726Y-54307133D01*
X92099815Y-54306222D01*
X92162319Y-54243718D01*
X92223642Y-54210233D01*
X92293334Y-54215217D01*
X92337681Y-54243718D01*
X92369438Y-54275475D01*
X92455062Y-54324910D01*
X92550565Y-54350500D01*
X92550567Y-54350500D01*
X92649432Y-54350500D01*
X92649435Y-54350500D01*
X92744938Y-54324910D01*
X92830562Y-54275475D01*
X92900475Y-54205562D01*
X92949910Y-54119938D01*
X92975500Y-54024435D01*
X92975500Y-53925565D01*
X92949910Y-53830062D01*
X92939482Y-53812001D01*
X92923009Y-53744102D01*
X92939483Y-53687998D01*
X92940049Y-53687018D01*
X92949910Y-53669938D01*
X92975500Y-53574435D01*
X92975500Y-53475565D01*
X93424500Y-53475565D01*
X93424500Y-53574435D01*
X93450090Y-53669938D01*
X93450091Y-53669939D01*
X93450091Y-53669940D01*
X93460519Y-53688003D01*
X93476989Y-53755904D01*
X93460519Y-53811997D01*
X93450091Y-53830059D01*
X93450091Y-53830060D01*
X93450090Y-53830062D01*
X93424500Y-53925565D01*
X93424500Y-54024435D01*
X93450090Y-54119938D01*
X93499525Y-54205562D01*
X93569438Y-54275475D01*
X93655062Y-54324910D01*
X93750565Y-54350500D01*
X93750567Y-54350500D01*
X93849432Y-54350500D01*
X93849435Y-54350500D01*
X93944938Y-54324910D01*
X94030562Y-54275475D01*
X94062319Y-54243718D01*
X94123642Y-54210233D01*
X94193334Y-54215217D01*
X94237681Y-54243718D01*
X94294438Y-54300475D01*
X94380062Y-54349910D01*
X94475565Y-54375500D01*
X94475567Y-54375500D01*
X94574432Y-54375500D01*
X94574435Y-54375500D01*
X94669938Y-54349910D01*
X94722151Y-54319764D01*
X94790050Y-54303292D01*
X94846151Y-54319766D01*
X94855056Y-54324907D01*
X94855057Y-54324908D01*
X94855059Y-54324908D01*
X94855062Y-54324910D01*
X94950565Y-54350500D01*
X94950567Y-54350500D01*
X95049432Y-54350500D01*
X95049435Y-54350500D01*
X95144938Y-54324910D01*
X95230562Y-54275475D01*
X95262319Y-54243718D01*
X95323642Y-54210233D01*
X95393334Y-54215217D01*
X95437681Y-54243718D01*
X95494438Y-54300475D01*
X95580062Y-54349910D01*
X95675565Y-54375500D01*
X95675567Y-54375500D01*
X95774432Y-54375500D01*
X95774435Y-54375500D01*
X95869938Y-54349910D01*
X95922151Y-54319764D01*
X95990050Y-54303292D01*
X96046151Y-54319766D01*
X96055056Y-54324907D01*
X96055057Y-54324908D01*
X96055059Y-54324908D01*
X96055062Y-54324910D01*
X96150565Y-54350500D01*
X96150567Y-54350500D01*
X96249432Y-54350500D01*
X96249435Y-54350500D01*
X96344938Y-54324910D01*
X96430562Y-54275475D01*
X96462319Y-54243718D01*
X96523642Y-54210233D01*
X96593334Y-54215217D01*
X96637681Y-54243718D01*
X96694438Y-54300475D01*
X96780062Y-54349910D01*
X96875565Y-54375500D01*
X96875567Y-54375500D01*
X96974432Y-54375500D01*
X96974435Y-54375500D01*
X97069938Y-54349910D01*
X97122151Y-54319764D01*
X97190050Y-54303292D01*
X97246151Y-54319766D01*
X97255056Y-54324907D01*
X97255057Y-54324908D01*
X97255059Y-54324908D01*
X97255062Y-54324910D01*
X97350565Y-54350500D01*
X97350567Y-54350500D01*
X97449432Y-54350500D01*
X97449435Y-54350500D01*
X97544938Y-54324910D01*
X97630562Y-54275475D01*
X97662319Y-54243718D01*
X97723642Y-54210233D01*
X97793334Y-54215217D01*
X97837681Y-54243718D01*
X97894438Y-54300475D01*
X97980062Y-54349910D01*
X98075565Y-54375500D01*
X98075567Y-54375500D01*
X98174432Y-54375500D01*
X98174435Y-54375500D01*
X98269938Y-54349910D01*
X98322151Y-54319764D01*
X98390050Y-54303292D01*
X98446151Y-54319766D01*
X98455056Y-54324907D01*
X98455057Y-54324908D01*
X98455059Y-54324908D01*
X98455062Y-54324910D01*
X98550565Y-54350500D01*
X98550567Y-54350500D01*
X98649432Y-54350500D01*
X98649435Y-54350500D01*
X98744938Y-54324910D01*
X98830562Y-54275475D01*
X98862319Y-54243718D01*
X98923642Y-54210233D01*
X98993334Y-54215217D01*
X99037681Y-54243718D01*
X99094438Y-54300475D01*
X99180062Y-54349910D01*
X99275565Y-54375500D01*
X99275567Y-54375500D01*
X99374432Y-54375500D01*
X99374435Y-54375500D01*
X99469938Y-54349910D01*
X99522151Y-54319764D01*
X99590050Y-54303292D01*
X99646151Y-54319766D01*
X99655056Y-54324907D01*
X99655057Y-54324908D01*
X99655059Y-54324908D01*
X99655062Y-54324910D01*
X99750565Y-54350500D01*
X99750567Y-54350500D01*
X99849432Y-54350500D01*
X99849435Y-54350500D01*
X99944938Y-54324910D01*
X100030562Y-54275475D01*
X100062319Y-54243718D01*
X100123642Y-54210233D01*
X100193334Y-54215217D01*
X100237681Y-54243718D01*
X100294438Y-54300475D01*
X100380062Y-54349910D01*
X100475565Y-54375500D01*
X100475567Y-54375500D01*
X100574432Y-54375500D01*
X100574435Y-54375500D01*
X100669938Y-54349910D01*
X100722151Y-54319764D01*
X100790050Y-54303292D01*
X100846151Y-54319766D01*
X100855056Y-54324907D01*
X100855057Y-54324908D01*
X100855059Y-54324908D01*
X100855062Y-54324910D01*
X100950565Y-54350500D01*
X100950567Y-54350500D01*
X101049432Y-54350500D01*
X101049435Y-54350500D01*
X101144938Y-54324910D01*
X101230562Y-54275475D01*
X101262319Y-54243718D01*
X101323642Y-54210233D01*
X101393334Y-54215217D01*
X101437681Y-54243718D01*
X101494438Y-54300475D01*
X101580062Y-54349910D01*
X101675565Y-54375500D01*
X101675567Y-54375500D01*
X101774432Y-54375500D01*
X101774435Y-54375500D01*
X101869938Y-54349910D01*
X101922151Y-54319764D01*
X101990050Y-54303292D01*
X102046151Y-54319766D01*
X102055056Y-54324907D01*
X102055057Y-54324908D01*
X102055059Y-54324908D01*
X102055062Y-54324910D01*
X102150565Y-54350500D01*
X102150567Y-54350500D01*
X102249432Y-54350500D01*
X102249435Y-54350500D01*
X102344938Y-54324910D01*
X102430562Y-54275475D01*
X102500475Y-54205562D01*
X102549910Y-54119938D01*
X102575500Y-54024435D01*
X102575500Y-53925565D01*
X102549910Y-53830062D01*
X102500475Y-53744438D01*
X102430562Y-53674525D01*
X102344938Y-53625090D01*
X102249435Y-53599500D01*
X102150565Y-53599500D01*
X102055062Y-53625090D01*
X102055060Y-53625090D01*
X102055060Y-53625091D01*
X102055057Y-53625092D01*
X102002847Y-53655235D01*
X101934947Y-53671706D01*
X101878853Y-53655236D01*
X101869944Y-53650093D01*
X101869941Y-53650091D01*
X101869938Y-53650090D01*
X101774435Y-53624500D01*
X101675565Y-53624500D01*
X101580062Y-53650090D01*
X101580060Y-53650091D01*
X101580059Y-53650091D01*
X101494436Y-53699526D01*
X101462681Y-53731282D01*
X101401358Y-53764767D01*
X101331666Y-53759783D01*
X101287319Y-53731282D01*
X101230563Y-53674526D01*
X101230562Y-53674525D01*
X101144938Y-53625090D01*
X101049435Y-53599500D01*
X100950565Y-53599500D01*
X100855062Y-53625090D01*
X100855060Y-53625090D01*
X100855060Y-53625091D01*
X100855057Y-53625092D01*
X100802847Y-53655235D01*
X100734947Y-53671706D01*
X100678853Y-53655236D01*
X100669944Y-53650093D01*
X100669941Y-53650091D01*
X100669938Y-53650090D01*
X100574435Y-53624500D01*
X100475565Y-53624500D01*
X100380062Y-53650090D01*
X100380060Y-53650091D01*
X100380059Y-53650091D01*
X100294436Y-53699526D01*
X100262681Y-53731282D01*
X100201358Y-53764767D01*
X100131666Y-53759783D01*
X100087319Y-53731282D01*
X100030563Y-53674526D01*
X100030562Y-53674525D01*
X99944938Y-53625090D01*
X99849435Y-53599500D01*
X99750565Y-53599500D01*
X99655062Y-53625090D01*
X99655060Y-53625090D01*
X99655060Y-53625091D01*
X99655057Y-53625092D01*
X99602847Y-53655235D01*
X99534947Y-53671706D01*
X99478853Y-53655236D01*
X99469944Y-53650093D01*
X99469941Y-53650091D01*
X99469938Y-53650090D01*
X99374435Y-53624500D01*
X99275565Y-53624500D01*
X99180062Y-53650090D01*
X99180060Y-53650091D01*
X99180059Y-53650091D01*
X99094436Y-53699526D01*
X99062681Y-53731282D01*
X99001358Y-53764767D01*
X98931666Y-53759783D01*
X98887319Y-53731282D01*
X98830563Y-53674526D01*
X98830562Y-53674525D01*
X98744938Y-53625090D01*
X98649435Y-53599500D01*
X98550565Y-53599500D01*
X98455062Y-53625090D01*
X98455060Y-53625090D01*
X98455060Y-53625091D01*
X98455057Y-53625092D01*
X98402847Y-53655235D01*
X98334947Y-53671706D01*
X98278853Y-53655236D01*
X98269944Y-53650093D01*
X98269941Y-53650091D01*
X98269938Y-53650090D01*
X98174435Y-53624500D01*
X98075565Y-53624500D01*
X97980062Y-53650090D01*
X97980060Y-53650091D01*
X97980059Y-53650091D01*
X97894436Y-53699526D01*
X97862681Y-53731282D01*
X97801358Y-53764767D01*
X97731666Y-53759783D01*
X97687319Y-53731282D01*
X97630563Y-53674526D01*
X97630562Y-53674525D01*
X97544938Y-53625090D01*
X97449435Y-53599500D01*
X97350565Y-53599500D01*
X97255062Y-53625090D01*
X97255060Y-53625090D01*
X97255060Y-53625091D01*
X97255057Y-53625092D01*
X97202847Y-53655235D01*
X97134947Y-53671706D01*
X97078853Y-53655236D01*
X97069944Y-53650093D01*
X97069941Y-53650091D01*
X97069938Y-53650090D01*
X96974435Y-53624500D01*
X96875565Y-53624500D01*
X96780062Y-53650090D01*
X96780060Y-53650091D01*
X96780059Y-53650091D01*
X96694436Y-53699526D01*
X96662681Y-53731282D01*
X96601358Y-53764767D01*
X96531666Y-53759783D01*
X96487319Y-53731282D01*
X96430563Y-53674526D01*
X96430562Y-53674525D01*
X96344938Y-53625090D01*
X96249435Y-53599500D01*
X96150565Y-53599500D01*
X96055062Y-53625090D01*
X96055060Y-53625090D01*
X96055060Y-53625091D01*
X96055057Y-53625092D01*
X96002847Y-53655235D01*
X95934947Y-53671706D01*
X95878853Y-53655236D01*
X95869944Y-53650093D01*
X95869941Y-53650091D01*
X95869938Y-53650090D01*
X95774435Y-53624500D01*
X95675565Y-53624500D01*
X95580062Y-53650090D01*
X95580060Y-53650091D01*
X95580059Y-53650091D01*
X95494436Y-53699526D01*
X95462681Y-53731282D01*
X95401358Y-53764767D01*
X95331666Y-53759783D01*
X95287319Y-53731282D01*
X95230563Y-53674526D01*
X95230562Y-53674525D01*
X95144938Y-53625090D01*
X95049435Y-53599500D01*
X94950565Y-53599500D01*
X94855062Y-53625090D01*
X94855060Y-53625090D01*
X94855060Y-53625091D01*
X94855057Y-53625092D01*
X94802847Y-53655235D01*
X94734947Y-53671706D01*
X94678853Y-53655236D01*
X94669944Y-53650093D01*
X94669941Y-53650091D01*
X94669938Y-53650090D01*
X94574435Y-53624500D01*
X94475565Y-53624500D01*
X94380062Y-53650090D01*
X94361498Y-53660808D01*
X94293597Y-53677278D01*
X94227571Y-53654425D01*
X94184381Y-53599503D01*
X94175500Y-53553419D01*
X94175500Y-53475567D01*
X94175500Y-53475565D01*
X94149910Y-53380062D01*
X94100475Y-53294438D01*
X94030562Y-53224525D01*
X93944938Y-53175090D01*
X93849435Y-53149500D01*
X93750565Y-53149500D01*
X93655062Y-53175090D01*
X93655060Y-53175091D01*
X93655059Y-53175091D01*
X93569436Y-53224526D01*
X93499526Y-53294436D01*
X93450091Y-53380059D01*
X93450091Y-53380060D01*
X93450090Y-53380062D01*
X93424500Y-53475565D01*
X92975500Y-53475565D01*
X92949910Y-53380062D01*
X92900475Y-53294438D01*
X92830562Y-53224525D01*
X92744938Y-53175090D01*
X92649435Y-53149500D01*
X92550565Y-53149500D01*
X92455062Y-53175090D01*
X92455060Y-53175091D01*
X92455059Y-53175091D01*
X92369436Y-53224526D01*
X92299526Y-53294436D01*
X92250091Y-53380059D01*
X92250091Y-53380060D01*
X92250090Y-53380062D01*
X92224500Y-53475565D01*
X92224500Y-53475567D01*
X92224500Y-53553419D01*
X92204815Y-53620458D01*
X92152011Y-53666213D01*
X92082853Y-53676157D01*
X92038502Y-53660808D01*
X92027446Y-53654425D01*
X92019938Y-53650090D01*
X91924435Y-53624500D01*
X91825565Y-53624500D01*
X91730062Y-53650090D01*
X91730060Y-53650090D01*
X91730060Y-53650091D01*
X91730057Y-53650092D01*
X91721148Y-53655236D01*
X91653248Y-53671707D01*
X91597152Y-53655236D01*
X91544938Y-53625090D01*
X91449435Y-53599500D01*
X91350565Y-53599500D01*
X91255062Y-53625090D01*
X91255060Y-53625091D01*
X91255059Y-53625091D01*
X91169431Y-53674529D01*
X91167672Y-53675879D01*
X91165923Y-53676554D01*
X91162400Y-53678589D01*
X91162082Y-53678039D01*
X91102500Y-53701065D01*
X91034057Y-53687018D01*
X91030198Y-53684881D01*
X90969940Y-53650091D01*
X90969939Y-53650090D01*
X90969938Y-53650090D01*
X90874435Y-53624500D01*
X90775565Y-53624500D01*
X90680062Y-53650090D01*
X90680060Y-53650091D01*
X90680059Y-53650091D01*
X90588795Y-53702783D01*
X90520895Y-53719256D01*
X90454868Y-53696403D01*
X90439114Y-53683077D01*
X90430563Y-53674526D01*
X90430562Y-53674525D01*
X90344938Y-53625090D01*
X90249435Y-53599500D01*
X90150565Y-53599500D01*
X90055062Y-53625090D01*
X90055060Y-53625091D01*
X90055059Y-53625091D01*
X89969431Y-53674529D01*
X89967672Y-53675879D01*
X89965923Y-53676554D01*
X89962400Y-53678589D01*
X89962082Y-53678039D01*
X89902500Y-53701065D01*
X89834057Y-53687018D01*
X89830198Y-53684881D01*
X89769940Y-53650091D01*
X89769939Y-53650090D01*
X89769938Y-53650090D01*
X89674435Y-53624500D01*
X89575565Y-53624500D01*
X89480062Y-53650090D01*
X89480060Y-53650091D01*
X89480059Y-53650091D01*
X89388795Y-53702783D01*
X89320895Y-53719256D01*
X89254868Y-53696403D01*
X89239114Y-53683077D01*
X89230563Y-53674526D01*
X89230562Y-53674525D01*
X89144938Y-53625090D01*
X89049435Y-53599500D01*
X88950565Y-53599500D01*
X88855062Y-53625090D01*
X88855060Y-53625091D01*
X88855059Y-53625091D01*
X88769436Y-53674526D01*
X88712681Y-53731282D01*
X88651358Y-53764767D01*
X88581666Y-53759783D01*
X88537319Y-53731282D01*
X88505563Y-53699526D01*
X88505562Y-53699525D01*
X88419938Y-53650090D01*
X88324435Y-53624500D01*
X88225565Y-53624500D01*
X88130062Y-53650090D01*
X88130060Y-53650090D01*
X88130060Y-53650091D01*
X88130057Y-53650092D01*
X88121148Y-53655236D01*
X88053248Y-53671707D01*
X87997152Y-53655236D01*
X87944938Y-53625090D01*
X87849435Y-53599500D01*
X87750565Y-53599500D01*
X87655062Y-53625090D01*
X87655060Y-53625091D01*
X87655059Y-53625091D01*
X87569431Y-53674529D01*
X87567672Y-53675879D01*
X87565923Y-53676554D01*
X87562400Y-53678589D01*
X87562082Y-53678039D01*
X87502500Y-53701065D01*
X87434057Y-53687018D01*
X87430198Y-53684881D01*
X87369940Y-53650091D01*
X87369939Y-53650090D01*
X87369938Y-53650090D01*
X87274435Y-53624500D01*
X87175565Y-53624500D01*
X87080062Y-53650090D01*
X87080060Y-53650091D01*
X87080059Y-53650091D01*
X86988795Y-53702783D01*
X86920895Y-53719256D01*
X86854868Y-53696403D01*
X86839114Y-53683077D01*
X86830563Y-53674526D01*
X86830562Y-53674525D01*
X86744938Y-53625090D01*
X86649435Y-53599500D01*
X86550565Y-53599500D01*
X86455062Y-53625090D01*
X86455060Y-53625091D01*
X86455059Y-53625091D01*
X86369436Y-53674526D01*
X86312681Y-53731282D01*
X86251358Y-53764767D01*
X86181666Y-53759783D01*
X86137319Y-53731282D01*
X86105563Y-53699526D01*
X86105562Y-53699525D01*
X86019938Y-53650090D01*
X85924435Y-53624500D01*
X85825565Y-53624500D01*
X85730062Y-53650090D01*
X85730060Y-53650090D01*
X85730060Y-53650091D01*
X85730057Y-53650092D01*
X85721148Y-53655236D01*
X85653248Y-53671707D01*
X85597152Y-53655236D01*
X85544938Y-53625090D01*
X85449435Y-53599500D01*
X85350565Y-53599500D01*
X85255062Y-53625090D01*
X85255060Y-53625091D01*
X85255059Y-53625091D01*
X85169436Y-53674526D01*
X85099526Y-53744436D01*
X85050091Y-53830059D01*
X85050091Y-53830060D01*
X85050090Y-53830062D01*
X85024500Y-53925565D01*
X23300500Y-53925565D01*
X23300500Y-52950565D01*
X28599500Y-52950565D01*
X28599500Y-53049435D01*
X28625090Y-53144938D01*
X28674525Y-53230562D01*
X28744438Y-53300475D01*
X28830062Y-53349910D01*
X28925565Y-53375500D01*
X28925567Y-53375500D01*
X29024432Y-53375500D01*
X29024435Y-53375500D01*
X29119938Y-53349910D01*
X29205562Y-53300475D01*
X29275475Y-53230562D01*
X29324910Y-53144938D01*
X29350500Y-53049435D01*
X29350500Y-52950565D01*
X29324910Y-52855062D01*
X29275475Y-52769438D01*
X29206602Y-52700565D01*
X39612000Y-52700565D01*
X39612000Y-52799435D01*
X39637590Y-52894938D01*
X39687025Y-52980562D01*
X39756938Y-53050475D01*
X39842562Y-53099910D01*
X39938065Y-53125500D01*
X39938067Y-53125500D01*
X40036932Y-53125500D01*
X40036935Y-53125500D01*
X40132438Y-53099910D01*
X40218062Y-53050475D01*
X40287975Y-52980562D01*
X40337410Y-52894938D01*
X40349300Y-52850565D01*
X45424500Y-52850565D01*
X45424500Y-52949435D01*
X45450090Y-53044938D01*
X45450091Y-53044939D01*
X45450091Y-53044940D01*
X45452686Y-53049435D01*
X45499525Y-53130562D01*
X45569438Y-53200475D01*
X45655062Y-53249910D01*
X45750565Y-53275500D01*
X45750567Y-53275500D01*
X45849432Y-53275500D01*
X45849435Y-53275500D01*
X45944938Y-53249910D01*
X46030562Y-53200475D01*
X46100475Y-53130562D01*
X46149910Y-53044938D01*
X46175500Y-52949435D01*
X46175500Y-52850565D01*
X46149910Y-52755062D01*
X46100475Y-52669438D01*
X46030562Y-52599525D01*
X45944938Y-52550090D01*
X45849435Y-52524500D01*
X45750565Y-52524500D01*
X45655062Y-52550090D01*
X45655060Y-52550091D01*
X45655059Y-52550091D01*
X45569436Y-52599526D01*
X45499526Y-52669436D01*
X45450091Y-52755059D01*
X45450091Y-52755060D01*
X45450090Y-52755062D01*
X45424500Y-52850565D01*
X40349300Y-52850565D01*
X40363000Y-52799435D01*
X40363000Y-52700565D01*
X40337410Y-52605062D01*
X40287975Y-52519438D01*
X40218062Y-52449525D01*
X40159689Y-52415823D01*
X40132440Y-52400091D01*
X40132439Y-52400090D01*
X40132438Y-52400090D01*
X40036935Y-52374500D01*
X39938065Y-52374500D01*
X39842562Y-52400090D01*
X39842560Y-52400091D01*
X39842559Y-52400091D01*
X39756936Y-52449526D01*
X39687026Y-52519436D01*
X39637591Y-52605059D01*
X39637591Y-52605060D01*
X39637590Y-52605062D01*
X39612000Y-52700565D01*
X29206602Y-52700565D01*
X29205562Y-52699525D01*
X29119938Y-52650090D01*
X29024435Y-52624500D01*
X28925565Y-52624500D01*
X28830062Y-52650090D01*
X28830060Y-52650091D01*
X28830059Y-52650091D01*
X28744436Y-52699526D01*
X28674526Y-52769436D01*
X28625091Y-52855059D01*
X28625091Y-52855060D01*
X28625090Y-52855062D01*
X28599500Y-52950565D01*
X23300500Y-52950565D01*
X23300500Y-52316565D01*
X83924500Y-52316565D01*
X83924500Y-52415435D01*
X83950090Y-52510938D01*
X83999525Y-52596562D01*
X84069438Y-52666475D01*
X84155062Y-52715910D01*
X84250565Y-52741500D01*
X84250567Y-52741500D01*
X84349432Y-52741500D01*
X84349435Y-52741500D01*
X84444938Y-52715910D01*
X84530562Y-52666475D01*
X84600475Y-52596562D01*
X84649910Y-52510938D01*
X84675500Y-52415435D01*
X84675500Y-52316565D01*
X85124500Y-52316565D01*
X85124500Y-52415435D01*
X85150090Y-52510938D01*
X85199525Y-52596562D01*
X85269438Y-52666475D01*
X85355062Y-52715910D01*
X85450565Y-52741500D01*
X85450567Y-52741500D01*
X85549432Y-52741500D01*
X85549435Y-52741500D01*
X85644938Y-52715910D01*
X85730562Y-52666475D01*
X85800475Y-52596562D01*
X85849910Y-52510938D01*
X85875500Y-52415435D01*
X85875500Y-52316565D01*
X86324500Y-52316565D01*
X86324500Y-52415435D01*
X86350090Y-52510938D01*
X86399525Y-52596562D01*
X86469438Y-52666475D01*
X86555062Y-52715910D01*
X86650565Y-52741500D01*
X86650567Y-52741500D01*
X86749432Y-52741500D01*
X86749435Y-52741500D01*
X86844938Y-52715910D01*
X86930562Y-52666475D01*
X87000475Y-52596562D01*
X87049910Y-52510938D01*
X87075500Y-52415435D01*
X87075500Y-52316565D01*
X87524500Y-52316565D01*
X87524500Y-52415435D01*
X87550090Y-52510938D01*
X87599525Y-52596562D01*
X87669438Y-52666475D01*
X87755062Y-52715910D01*
X87850565Y-52741500D01*
X87850567Y-52741500D01*
X87949432Y-52741500D01*
X87949435Y-52741500D01*
X88044938Y-52715910D01*
X88130562Y-52666475D01*
X88200475Y-52596562D01*
X88249910Y-52510938D01*
X88275500Y-52415435D01*
X88275500Y-52316565D01*
X88724500Y-52316565D01*
X88724500Y-52415435D01*
X88750090Y-52510938D01*
X88799525Y-52596562D01*
X88869438Y-52666475D01*
X88955062Y-52715910D01*
X89050565Y-52741500D01*
X89050567Y-52741500D01*
X89149432Y-52741500D01*
X89149435Y-52741500D01*
X89244938Y-52715910D01*
X89330562Y-52666475D01*
X89400475Y-52596562D01*
X89449910Y-52510938D01*
X89475500Y-52415435D01*
X89475500Y-52316565D01*
X89924500Y-52316565D01*
X89924500Y-52415435D01*
X89950090Y-52510938D01*
X89999525Y-52596562D01*
X90069438Y-52666475D01*
X90155062Y-52715910D01*
X90250565Y-52741500D01*
X90250567Y-52741500D01*
X90349432Y-52741500D01*
X90349435Y-52741500D01*
X90444938Y-52715910D01*
X90530562Y-52666475D01*
X90600475Y-52596562D01*
X90649910Y-52510938D01*
X90675500Y-52415435D01*
X90675500Y-52316565D01*
X91124500Y-52316565D01*
X91124500Y-52415435D01*
X91150090Y-52510938D01*
X91199525Y-52596562D01*
X91269438Y-52666475D01*
X91355062Y-52715910D01*
X91450565Y-52741500D01*
X91450567Y-52741500D01*
X91549432Y-52741500D01*
X91549435Y-52741500D01*
X91644938Y-52715910D01*
X91730562Y-52666475D01*
X91800475Y-52596562D01*
X91849910Y-52510938D01*
X91875500Y-52415435D01*
X91875500Y-52316565D01*
X92324500Y-52316565D01*
X92324500Y-52415435D01*
X92350090Y-52510938D01*
X92399525Y-52596562D01*
X92469438Y-52666475D01*
X92555062Y-52715910D01*
X92650565Y-52741500D01*
X92650567Y-52741500D01*
X92749432Y-52741500D01*
X92749435Y-52741500D01*
X92844938Y-52715910D01*
X92930562Y-52666475D01*
X93000475Y-52596562D01*
X93049910Y-52510938D01*
X93075500Y-52415435D01*
X93075500Y-52316565D01*
X93049910Y-52221062D01*
X93000475Y-52135438D01*
X92953102Y-52088065D01*
X102174500Y-52088065D01*
X102174500Y-52186935D01*
X102200090Y-52282438D01*
X102249525Y-52368062D01*
X102319438Y-52437975D01*
X102405062Y-52487410D01*
X102500565Y-52513000D01*
X102500567Y-52513000D01*
X102599432Y-52513000D01*
X102599435Y-52513000D01*
X102694938Y-52487410D01*
X102780562Y-52437975D01*
X102850475Y-52368062D01*
X102899910Y-52282438D01*
X102925500Y-52186935D01*
X102925500Y-52088065D01*
X102919461Y-52065526D01*
X102919196Y-52064537D01*
X102919194Y-52064532D01*
X102912772Y-52040565D01*
X104749500Y-52040565D01*
X104749500Y-52139435D01*
X104775090Y-52234938D01*
X104824525Y-52320562D01*
X104894438Y-52390475D01*
X104980062Y-52439910D01*
X105075565Y-52465500D01*
X105075567Y-52465500D01*
X105174432Y-52465500D01*
X105174435Y-52465500D01*
X105269938Y-52439910D01*
X105355562Y-52390475D01*
X105425475Y-52320562D01*
X105474910Y-52234938D01*
X105500500Y-52139435D01*
X105500500Y-52040565D01*
X105474910Y-51945062D01*
X105425475Y-51859438D01*
X105355562Y-51789525D01*
X105269938Y-51740090D01*
X105174435Y-51714500D01*
X105075565Y-51714500D01*
X104980062Y-51740090D01*
X104980060Y-51740091D01*
X104980059Y-51740091D01*
X104894436Y-51789526D01*
X104824526Y-51859436D01*
X104775091Y-51945059D01*
X104775091Y-51945060D01*
X104775090Y-51945062D01*
X104749500Y-52040565D01*
X102912772Y-52040565D01*
X102899910Y-51992562D01*
X102850475Y-51906938D01*
X102780562Y-51837025D01*
X102694938Y-51787590D01*
X102599435Y-51762000D01*
X102500565Y-51762000D01*
X102405062Y-51787590D01*
X102405060Y-51787591D01*
X102405059Y-51787591D01*
X102319436Y-51837026D01*
X102249526Y-51906936D01*
X102200091Y-51992559D01*
X102200091Y-51992560D01*
X102200090Y-51992562D01*
X102174500Y-52088065D01*
X92953102Y-52088065D01*
X92930562Y-52065525D01*
X92844938Y-52016090D01*
X92749435Y-51990500D01*
X92650565Y-51990500D01*
X92555062Y-52016090D01*
X92555060Y-52016091D01*
X92555059Y-52016091D01*
X92469436Y-52065526D01*
X92399526Y-52135436D01*
X92350091Y-52221059D01*
X92350091Y-52221060D01*
X92350090Y-52221062D01*
X92324500Y-52316565D01*
X91875500Y-52316565D01*
X91849910Y-52221062D01*
X91800475Y-52135438D01*
X91730562Y-52065525D01*
X91644938Y-52016090D01*
X91549435Y-51990500D01*
X91450565Y-51990500D01*
X91355062Y-52016090D01*
X91355060Y-52016091D01*
X91355059Y-52016091D01*
X91269436Y-52065526D01*
X91199526Y-52135436D01*
X91150091Y-52221059D01*
X91150091Y-52221060D01*
X91150090Y-52221062D01*
X91124500Y-52316565D01*
X90675500Y-52316565D01*
X90649910Y-52221062D01*
X90600475Y-52135438D01*
X90530562Y-52065525D01*
X90444938Y-52016090D01*
X90349435Y-51990500D01*
X90250565Y-51990500D01*
X90155062Y-52016090D01*
X90155060Y-52016091D01*
X90155059Y-52016091D01*
X90069436Y-52065526D01*
X89999526Y-52135436D01*
X89950091Y-52221059D01*
X89950091Y-52221060D01*
X89950090Y-52221062D01*
X89924500Y-52316565D01*
X89475500Y-52316565D01*
X89449910Y-52221062D01*
X89400475Y-52135438D01*
X89330562Y-52065525D01*
X89244938Y-52016090D01*
X89149435Y-51990500D01*
X89050565Y-51990500D01*
X88955062Y-52016090D01*
X88955060Y-52016091D01*
X88955059Y-52016091D01*
X88869436Y-52065526D01*
X88799526Y-52135436D01*
X88750091Y-52221059D01*
X88750091Y-52221060D01*
X88750090Y-52221062D01*
X88724500Y-52316565D01*
X88275500Y-52316565D01*
X88249910Y-52221062D01*
X88200475Y-52135438D01*
X88130562Y-52065525D01*
X88044938Y-52016090D01*
X87949435Y-51990500D01*
X87850565Y-51990500D01*
X87755062Y-52016090D01*
X87755060Y-52016091D01*
X87755059Y-52016091D01*
X87669436Y-52065526D01*
X87599526Y-52135436D01*
X87550091Y-52221059D01*
X87550091Y-52221060D01*
X87550090Y-52221062D01*
X87524500Y-52316565D01*
X87075500Y-52316565D01*
X87049910Y-52221062D01*
X87000475Y-52135438D01*
X86930562Y-52065525D01*
X86844938Y-52016090D01*
X86749435Y-51990500D01*
X86650565Y-51990500D01*
X86555062Y-52016090D01*
X86555060Y-52016091D01*
X86555059Y-52016091D01*
X86469436Y-52065526D01*
X86399526Y-52135436D01*
X86350091Y-52221059D01*
X86350091Y-52221060D01*
X86350090Y-52221062D01*
X86324500Y-52316565D01*
X85875500Y-52316565D01*
X85849910Y-52221062D01*
X85800475Y-52135438D01*
X85730562Y-52065525D01*
X85644938Y-52016090D01*
X85549435Y-51990500D01*
X85450565Y-51990500D01*
X85355062Y-52016090D01*
X85355060Y-52016091D01*
X85355059Y-52016091D01*
X85269436Y-52065526D01*
X85199526Y-52135436D01*
X85150091Y-52221059D01*
X85150091Y-52221060D01*
X85150090Y-52221062D01*
X85124500Y-52316565D01*
X84675500Y-52316565D01*
X84649910Y-52221062D01*
X84600475Y-52135438D01*
X84530562Y-52065525D01*
X84444938Y-52016090D01*
X84349435Y-51990500D01*
X84250565Y-51990500D01*
X84155062Y-52016090D01*
X84155060Y-52016091D01*
X84155059Y-52016091D01*
X84069436Y-52065526D01*
X83999526Y-52135436D01*
X83950091Y-52221059D01*
X83950091Y-52221060D01*
X83950090Y-52221062D01*
X83924500Y-52316565D01*
X23300500Y-52316565D01*
X23300500Y-51200565D01*
X39787000Y-51200565D01*
X39787000Y-51299435D01*
X39812590Y-51394938D01*
X39862025Y-51480562D01*
X39931938Y-51550475D01*
X40017562Y-51599910D01*
X40113065Y-51625500D01*
X40113067Y-51625500D01*
X40211932Y-51625500D01*
X40211935Y-51625500D01*
X40307438Y-51599910D01*
X40393062Y-51550475D01*
X40462975Y-51480562D01*
X40512410Y-51394938D01*
X40538000Y-51299435D01*
X40538000Y-51200565D01*
X40512410Y-51105062D01*
X40480946Y-51050565D01*
X42824500Y-51050565D01*
X42824500Y-51149435D01*
X42850090Y-51244938D01*
X42899525Y-51330562D01*
X42969438Y-51400475D01*
X43055062Y-51449910D01*
X43150565Y-51475500D01*
X43150567Y-51475500D01*
X43249432Y-51475500D01*
X43249435Y-51475500D01*
X43344938Y-51449910D01*
X43430562Y-51400475D01*
X43500475Y-51330562D01*
X43525011Y-51288065D01*
X81874500Y-51288065D01*
X81874500Y-51386935D01*
X81900090Y-51482438D01*
X81949525Y-51568062D01*
X82019438Y-51637975D01*
X82105062Y-51687410D01*
X82200565Y-51713000D01*
X82200567Y-51713000D01*
X82299432Y-51713000D01*
X82299435Y-51713000D01*
X82394938Y-51687410D01*
X82480562Y-51637975D01*
X82547891Y-51570645D01*
X82609210Y-51537163D01*
X82678902Y-51542147D01*
X82697562Y-51550938D01*
X82721762Y-51564910D01*
X82817265Y-51590500D01*
X82817267Y-51590500D01*
X82916132Y-51590500D01*
X82916135Y-51590500D01*
X83011638Y-51564910D01*
X83097262Y-51515475D01*
X83167175Y-51445562D01*
X83208742Y-51373565D01*
X84474500Y-51373565D01*
X84474500Y-51472435D01*
X84500090Y-51567938D01*
X84500091Y-51567939D01*
X84500091Y-51567940D01*
X84513116Y-51590500D01*
X84549525Y-51653562D01*
X84619438Y-51723475D01*
X84705062Y-51772910D01*
X84800565Y-51798500D01*
X84800567Y-51798500D01*
X84899432Y-51798500D01*
X84899435Y-51798500D01*
X84994938Y-51772910D01*
X85080562Y-51723475D01*
X85150475Y-51653562D01*
X85199910Y-51567938D01*
X85225500Y-51472435D01*
X85225500Y-51373565D01*
X85674500Y-51373565D01*
X85674500Y-51472435D01*
X85700090Y-51567938D01*
X85700091Y-51567939D01*
X85700091Y-51567940D01*
X85713116Y-51590500D01*
X85749525Y-51653562D01*
X85819438Y-51723475D01*
X85905062Y-51772910D01*
X86000565Y-51798500D01*
X86000567Y-51798500D01*
X86099432Y-51798500D01*
X86099435Y-51798500D01*
X86194938Y-51772910D01*
X86280562Y-51723475D01*
X86350475Y-51653562D01*
X86399910Y-51567938D01*
X86425500Y-51472435D01*
X86425500Y-51373565D01*
X86874500Y-51373565D01*
X86874500Y-51472435D01*
X86900090Y-51567938D01*
X86900091Y-51567939D01*
X86900091Y-51567940D01*
X86913116Y-51590500D01*
X86949525Y-51653562D01*
X87019438Y-51723475D01*
X87105062Y-51772910D01*
X87200565Y-51798500D01*
X87200567Y-51798500D01*
X87299432Y-51798500D01*
X87299435Y-51798500D01*
X87394938Y-51772910D01*
X87480562Y-51723475D01*
X87550475Y-51653562D01*
X87599910Y-51567938D01*
X87625500Y-51472435D01*
X87625500Y-51373565D01*
X88074500Y-51373565D01*
X88074500Y-51472435D01*
X88100090Y-51567938D01*
X88100091Y-51567939D01*
X88100091Y-51567940D01*
X88113116Y-51590500D01*
X88149525Y-51653562D01*
X88219438Y-51723475D01*
X88305062Y-51772910D01*
X88400565Y-51798500D01*
X88400567Y-51798500D01*
X88499432Y-51798500D01*
X88499435Y-51798500D01*
X88594938Y-51772910D01*
X88680562Y-51723475D01*
X88750475Y-51653562D01*
X88799910Y-51567938D01*
X88825500Y-51472435D01*
X88825500Y-51373565D01*
X89274500Y-51373565D01*
X89274500Y-51472435D01*
X89300090Y-51567938D01*
X89300091Y-51567939D01*
X89300091Y-51567940D01*
X89313116Y-51590500D01*
X89349525Y-51653562D01*
X89419438Y-51723475D01*
X89505062Y-51772910D01*
X89600565Y-51798500D01*
X89600567Y-51798500D01*
X89699432Y-51798500D01*
X89699435Y-51798500D01*
X89794938Y-51772910D01*
X89880562Y-51723475D01*
X89950475Y-51653562D01*
X89999910Y-51567938D01*
X90025500Y-51472435D01*
X90025500Y-51373565D01*
X90474500Y-51373565D01*
X90474500Y-51472435D01*
X90500090Y-51567938D01*
X90500091Y-51567939D01*
X90500091Y-51567940D01*
X90513116Y-51590500D01*
X90549525Y-51653562D01*
X90619438Y-51723475D01*
X90705062Y-51772910D01*
X90800565Y-51798500D01*
X90800567Y-51798500D01*
X90899432Y-51798500D01*
X90899435Y-51798500D01*
X90994938Y-51772910D01*
X91080562Y-51723475D01*
X91150475Y-51653562D01*
X91199910Y-51567938D01*
X91225500Y-51472435D01*
X91225500Y-51373565D01*
X91674500Y-51373565D01*
X91674500Y-51472435D01*
X91700090Y-51567938D01*
X91700091Y-51567939D01*
X91700091Y-51567940D01*
X91713116Y-51590500D01*
X91749525Y-51653562D01*
X91819438Y-51723475D01*
X91905062Y-51772910D01*
X92000565Y-51798500D01*
X92000567Y-51798500D01*
X92099432Y-51798500D01*
X92099435Y-51798500D01*
X92194938Y-51772910D01*
X92280562Y-51723475D01*
X92350475Y-51653562D01*
X92367794Y-51623565D01*
X93324500Y-51623565D01*
X93324500Y-51722435D01*
X93350090Y-51817938D01*
X93399525Y-51903562D01*
X93469438Y-51973475D01*
X93555062Y-52022910D01*
X93650565Y-52048500D01*
X93650567Y-52048500D01*
X93749432Y-52048500D01*
X93749435Y-52048500D01*
X93844938Y-52022910D01*
X93930562Y-51973475D01*
X94000475Y-51903562D01*
X94049910Y-51817938D01*
X94075500Y-51722435D01*
X94075500Y-51623565D01*
X94049910Y-51528062D01*
X94000475Y-51442438D01*
X93930562Y-51372525D01*
X93844938Y-51323090D01*
X93749435Y-51297500D01*
X93650565Y-51297500D01*
X93555062Y-51323090D01*
X93555060Y-51323091D01*
X93555059Y-51323091D01*
X93469436Y-51372526D01*
X93399526Y-51442436D01*
X93350091Y-51528059D01*
X93350091Y-51528060D01*
X93350090Y-51528062D01*
X93324500Y-51623565D01*
X92367794Y-51623565D01*
X92399910Y-51567938D01*
X92425500Y-51472435D01*
X92425500Y-51373565D01*
X92399910Y-51278062D01*
X92350475Y-51192438D01*
X92280562Y-51122525D01*
X92194938Y-51073090D01*
X92099435Y-51047500D01*
X92000565Y-51047500D01*
X91905062Y-51073090D01*
X91905060Y-51073091D01*
X91905059Y-51073091D01*
X91819436Y-51122526D01*
X91749526Y-51192436D01*
X91700091Y-51278059D01*
X91700091Y-51278060D01*
X91700090Y-51278062D01*
X91674500Y-51373565D01*
X91225500Y-51373565D01*
X91199910Y-51278062D01*
X91150475Y-51192438D01*
X91080562Y-51122525D01*
X90994938Y-51073090D01*
X90899435Y-51047500D01*
X90800565Y-51047500D01*
X90705062Y-51073090D01*
X90705060Y-51073091D01*
X90705059Y-51073091D01*
X90619436Y-51122526D01*
X90549526Y-51192436D01*
X90500091Y-51278059D01*
X90500091Y-51278060D01*
X90500090Y-51278062D01*
X90474500Y-51373565D01*
X90025500Y-51373565D01*
X89999910Y-51278062D01*
X89950475Y-51192438D01*
X89880562Y-51122525D01*
X89794938Y-51073090D01*
X89699435Y-51047500D01*
X89600565Y-51047500D01*
X89505062Y-51073090D01*
X89505060Y-51073091D01*
X89505059Y-51073091D01*
X89419436Y-51122526D01*
X89349526Y-51192436D01*
X89300091Y-51278059D01*
X89300091Y-51278060D01*
X89300090Y-51278062D01*
X89274500Y-51373565D01*
X88825500Y-51373565D01*
X88799910Y-51278062D01*
X88750475Y-51192438D01*
X88680562Y-51122525D01*
X88594938Y-51073090D01*
X88499435Y-51047500D01*
X88400565Y-51047500D01*
X88305062Y-51073090D01*
X88305060Y-51073091D01*
X88305059Y-51073091D01*
X88219436Y-51122526D01*
X88149526Y-51192436D01*
X88100091Y-51278059D01*
X88100091Y-51278060D01*
X88100090Y-51278062D01*
X88074500Y-51373565D01*
X87625500Y-51373565D01*
X87599910Y-51278062D01*
X87550475Y-51192438D01*
X87480562Y-51122525D01*
X87394938Y-51073090D01*
X87299435Y-51047500D01*
X87200565Y-51047500D01*
X87105062Y-51073090D01*
X87105060Y-51073091D01*
X87105059Y-51073091D01*
X87019436Y-51122526D01*
X86949526Y-51192436D01*
X86900091Y-51278059D01*
X86900091Y-51278060D01*
X86900090Y-51278062D01*
X86874500Y-51373565D01*
X86425500Y-51373565D01*
X86399910Y-51278062D01*
X86350475Y-51192438D01*
X86280562Y-51122525D01*
X86194938Y-51073090D01*
X86099435Y-51047500D01*
X86000565Y-51047500D01*
X85905062Y-51073090D01*
X85905060Y-51073091D01*
X85905059Y-51073091D01*
X85819436Y-51122526D01*
X85749526Y-51192436D01*
X85700091Y-51278059D01*
X85700091Y-51278060D01*
X85700090Y-51278062D01*
X85674500Y-51373565D01*
X85225500Y-51373565D01*
X85199910Y-51278062D01*
X85150475Y-51192438D01*
X85080562Y-51122525D01*
X84994938Y-51073090D01*
X84899435Y-51047500D01*
X84800565Y-51047500D01*
X84705062Y-51073090D01*
X84705060Y-51073091D01*
X84705059Y-51073091D01*
X84619436Y-51122526D01*
X84549526Y-51192436D01*
X84500091Y-51278059D01*
X84500091Y-51278060D01*
X84500090Y-51278062D01*
X84474500Y-51373565D01*
X83208742Y-51373565D01*
X83216610Y-51359938D01*
X83242200Y-51264435D01*
X83242200Y-51165565D01*
X83216610Y-51070062D01*
X83167175Y-50984438D01*
X83097262Y-50914525D01*
X83011638Y-50865090D01*
X82916135Y-50839500D01*
X82817265Y-50839500D01*
X82721762Y-50865090D01*
X82721760Y-50865091D01*
X82721759Y-50865091D01*
X82636138Y-50914525D01*
X82568811Y-50981852D01*
X82507487Y-51015336D01*
X82437796Y-51010351D01*
X82419131Y-51001557D01*
X82394944Y-50987593D01*
X82394941Y-50987591D01*
X82394938Y-50987590D01*
X82299435Y-50962000D01*
X82200565Y-50962000D01*
X82105062Y-50987590D01*
X82105060Y-50987591D01*
X82105059Y-50987591D01*
X82019436Y-51037026D01*
X81949526Y-51106936D01*
X81900091Y-51192559D01*
X81900091Y-51192560D01*
X81900090Y-51192562D01*
X81874500Y-51288065D01*
X43525011Y-51288065D01*
X43549910Y-51244938D01*
X43575500Y-51149435D01*
X43575500Y-51050565D01*
X43549910Y-50955062D01*
X43500475Y-50869438D01*
X43430562Y-50799525D01*
X43344938Y-50750090D01*
X43249435Y-50724500D01*
X43150565Y-50724500D01*
X43055062Y-50750090D01*
X43055060Y-50750091D01*
X43055059Y-50750091D01*
X42969436Y-50799526D01*
X42899526Y-50869436D01*
X42850091Y-50955059D01*
X42850091Y-50955060D01*
X42850090Y-50955062D01*
X42824500Y-51050565D01*
X40480946Y-51050565D01*
X40462975Y-51019438D01*
X40393062Y-50949525D01*
X40307438Y-50900090D01*
X40211935Y-50874500D01*
X40113065Y-50874500D01*
X40017562Y-50900090D01*
X40017560Y-50900091D01*
X40017559Y-50900091D01*
X39931936Y-50949526D01*
X39862026Y-51019436D01*
X39812591Y-51105059D01*
X39812591Y-51105060D01*
X39812590Y-51105062D01*
X39787000Y-51200565D01*
X23300500Y-51200565D01*
X23300500Y-50488065D01*
X62474500Y-50488065D01*
X62474500Y-50586935D01*
X62500090Y-50682438D01*
X62549525Y-50768062D01*
X62619438Y-50837975D01*
X62705062Y-50887410D01*
X62800565Y-50913000D01*
X62800567Y-50913000D01*
X62899432Y-50913000D01*
X62899435Y-50913000D01*
X62994938Y-50887410D01*
X63080562Y-50837975D01*
X63150475Y-50768062D01*
X63199910Y-50682438D01*
X63225500Y-50586935D01*
X63225500Y-50550565D01*
X69124500Y-50550565D01*
X69124500Y-50649435D01*
X69150090Y-50744938D01*
X69150091Y-50744939D01*
X69150091Y-50744940D01*
X69153065Y-50750091D01*
X69199525Y-50830562D01*
X69269438Y-50900475D01*
X69355062Y-50949910D01*
X69450565Y-50975500D01*
X69450567Y-50975500D01*
X69549432Y-50975500D01*
X69549435Y-50975500D01*
X69644938Y-50949910D01*
X69730562Y-50900475D01*
X69800475Y-50830562D01*
X69849910Y-50744938D01*
X69875500Y-50649435D01*
X69875500Y-50550565D01*
X69849910Y-50455062D01*
X69800475Y-50369438D01*
X69730562Y-50299525D01*
X69644938Y-50250090D01*
X69549435Y-50224500D01*
X69450565Y-50224500D01*
X69355062Y-50250090D01*
X69355060Y-50250091D01*
X69355059Y-50250091D01*
X69269436Y-50299526D01*
X69199526Y-50369436D01*
X69150091Y-50455059D01*
X69150091Y-50455060D01*
X69150090Y-50455062D01*
X69124500Y-50550565D01*
X63225500Y-50550565D01*
X63225500Y-50488065D01*
X63199910Y-50392562D01*
X63150475Y-50306938D01*
X63080562Y-50237025D01*
X62994938Y-50187590D01*
X62899435Y-50162000D01*
X62800565Y-50162000D01*
X62705062Y-50187590D01*
X62705060Y-50187591D01*
X62705059Y-50187591D01*
X62619436Y-50237026D01*
X62549526Y-50306936D01*
X62500091Y-50392559D01*
X62500091Y-50392560D01*
X62500090Y-50392562D01*
X62474500Y-50488065D01*
X23300500Y-50488065D01*
X23300500Y-47831365D01*
X32849500Y-47831365D01*
X32849500Y-47930235D01*
X32875090Y-48025738D01*
X32924525Y-48111362D01*
X32994438Y-48181275D01*
X33080062Y-48230710D01*
X33175565Y-48256300D01*
X33175567Y-48256300D01*
X33274432Y-48256300D01*
X33274435Y-48256300D01*
X33369938Y-48230710D01*
X33455562Y-48181275D01*
X33455563Y-48181273D01*
X33462600Y-48177211D01*
X33464340Y-48180226D01*
X33514494Y-48160776D01*
X33582954Y-48174742D01*
X33586943Y-48176949D01*
X33605062Y-48187410D01*
X33700565Y-48213000D01*
X33700567Y-48213000D01*
X33799432Y-48213000D01*
X33799435Y-48213000D01*
X33894938Y-48187410D01*
X33980562Y-48137975D01*
X34050475Y-48068062D01*
X34096661Y-47988065D01*
X40874500Y-47988065D01*
X40874500Y-48086935D01*
X40900090Y-48182438D01*
X40900091Y-48182439D01*
X40900091Y-48182440D01*
X40913337Y-48205382D01*
X40949525Y-48268062D01*
X41019438Y-48337975D01*
X41105062Y-48387410D01*
X41200565Y-48413000D01*
X41200567Y-48413000D01*
X41299432Y-48413000D01*
X41299435Y-48413000D01*
X41394938Y-48387410D01*
X41480562Y-48337975D01*
X41550475Y-48268062D01*
X41599910Y-48182438D01*
X41625500Y-48086935D01*
X41625500Y-47988065D01*
X45074500Y-47988065D01*
X45074500Y-48086935D01*
X45100090Y-48182438D01*
X45100091Y-48182439D01*
X45100091Y-48182440D01*
X45113337Y-48205382D01*
X45149525Y-48268062D01*
X45219438Y-48337975D01*
X45305062Y-48387410D01*
X45400565Y-48413000D01*
X45400567Y-48413000D01*
X45499432Y-48413000D01*
X45499435Y-48413000D01*
X45584283Y-48390265D01*
X59489200Y-48390265D01*
X59489200Y-48489135D01*
X59514790Y-48584638D01*
X59564225Y-48670262D01*
X59634138Y-48740175D01*
X59719762Y-48789610D01*
X59815265Y-48815200D01*
X59815267Y-48815200D01*
X59914132Y-48815200D01*
X59914135Y-48815200D01*
X60009638Y-48789610D01*
X60095262Y-48740175D01*
X60165175Y-48670262D01*
X60214610Y-48584638D01*
X60240200Y-48489135D01*
X60240200Y-48390265D01*
X60214610Y-48294762D01*
X60165175Y-48209138D01*
X60095262Y-48139225D01*
X60009638Y-48089790D01*
X59914135Y-48064200D01*
X59815265Y-48064200D01*
X59719762Y-48089790D01*
X59719760Y-48089791D01*
X59719759Y-48089791D01*
X59634136Y-48139226D01*
X59564226Y-48209136D01*
X59514791Y-48294759D01*
X59514791Y-48294760D01*
X59514790Y-48294762D01*
X59489200Y-48390265D01*
X45584283Y-48390265D01*
X45594938Y-48387410D01*
X45680562Y-48337975D01*
X45750475Y-48268062D01*
X45799910Y-48182438D01*
X45825500Y-48086935D01*
X45825500Y-47988065D01*
X45799910Y-47892562D01*
X45750475Y-47806938D01*
X45680562Y-47737025D01*
X45594938Y-47687590D01*
X45499435Y-47662000D01*
X45400565Y-47662000D01*
X45305062Y-47687590D01*
X45305060Y-47687591D01*
X45305059Y-47687591D01*
X45219436Y-47737026D01*
X45149526Y-47806936D01*
X45100091Y-47892559D01*
X45100091Y-47892560D01*
X45100090Y-47892562D01*
X45074500Y-47988065D01*
X41625500Y-47988065D01*
X41599910Y-47892562D01*
X41550475Y-47806938D01*
X41480562Y-47737025D01*
X41394938Y-47687590D01*
X41299435Y-47662000D01*
X41200565Y-47662000D01*
X41105062Y-47687590D01*
X41105060Y-47687591D01*
X41105059Y-47687591D01*
X41019436Y-47737026D01*
X40949526Y-47806936D01*
X40900091Y-47892559D01*
X40900091Y-47892560D01*
X40900090Y-47892562D01*
X40874500Y-47988065D01*
X34096661Y-47988065D01*
X34099910Y-47982438D01*
X34125500Y-47886935D01*
X34125500Y-47788065D01*
X34099910Y-47692562D01*
X34050475Y-47606938D01*
X33980562Y-47537025D01*
X33894938Y-47487590D01*
X33799435Y-47462000D01*
X33700565Y-47462000D01*
X33605062Y-47487590D01*
X33605060Y-47487591D01*
X33605059Y-47487591D01*
X33574387Y-47505300D01*
X33519438Y-47537025D01*
X33519436Y-47537026D01*
X33512400Y-47541089D01*
X33510689Y-47538126D01*
X33460103Y-47557556D01*
X33391689Y-47543368D01*
X33388057Y-47541351D01*
X33369940Y-47530891D01*
X33369939Y-47530890D01*
X33369938Y-47530890D01*
X33274435Y-47505300D01*
X33175565Y-47505300D01*
X33080062Y-47530890D01*
X33080060Y-47530891D01*
X33080059Y-47530891D01*
X32994436Y-47580326D01*
X32924526Y-47650236D01*
X32875091Y-47735859D01*
X32875091Y-47735860D01*
X32875090Y-47735862D01*
X32849500Y-47831365D01*
X23300500Y-47831365D01*
X23300500Y-47354073D01*
X23320185Y-47287034D01*
X23372989Y-47241279D01*
X23442147Y-47231335D01*
X23505703Y-47260360D01*
X23512181Y-47266392D01*
X23524088Y-47278299D01*
X23524092Y-47278302D01*
X23679762Y-47382318D01*
X23679768Y-47382321D01*
X23679769Y-47382322D01*
X23852749Y-47453973D01*
X24036379Y-47490499D01*
X24036383Y-47490500D01*
X24036384Y-47490500D01*
X24223617Y-47490500D01*
X24223618Y-47490499D01*
X24407251Y-47453973D01*
X24580231Y-47382322D01*
X24735908Y-47278302D01*
X24868302Y-47145908D01*
X24972322Y-46990231D01*
X25043973Y-46817251D01*
X25080500Y-46633616D01*
X25080500Y-46446384D01*
X25080499Y-46446379D01*
X28259500Y-46446379D01*
X28259500Y-46633620D01*
X28296025Y-46817243D01*
X28296027Y-46817251D01*
X28367676Y-46990228D01*
X28367681Y-46990237D01*
X28471697Y-47145907D01*
X28471700Y-47145911D01*
X28604088Y-47278299D01*
X28604092Y-47278302D01*
X28759762Y-47382318D01*
X28759768Y-47382321D01*
X28759769Y-47382322D01*
X28932749Y-47453973D01*
X29116379Y-47490499D01*
X29116383Y-47490500D01*
X29116384Y-47490500D01*
X29303617Y-47490500D01*
X29303618Y-47490499D01*
X29487251Y-47453973D01*
X29554110Y-47426278D01*
X29623577Y-47418810D01*
X29663560Y-47433452D01*
X29691929Y-47449831D01*
X29691933Y-47449833D01*
X29787436Y-47475423D01*
X29787438Y-47475423D01*
X29886303Y-47475423D01*
X29886306Y-47475423D01*
X29981809Y-47449833D01*
X30067433Y-47400398D01*
X30137346Y-47330485D01*
X30186781Y-47244861D01*
X30212371Y-47149358D01*
X30212371Y-47050488D01*
X30186781Y-46954985D01*
X30143023Y-46879195D01*
X30126552Y-46811300D01*
X30128795Y-46793007D01*
X30160500Y-46633616D01*
X30160500Y-46446384D01*
X30160499Y-46446379D01*
X30799500Y-46446379D01*
X30799500Y-46633620D01*
X30836025Y-46817243D01*
X30836027Y-46817251D01*
X30907676Y-46990228D01*
X30907681Y-46990237D01*
X31011697Y-47145907D01*
X31011700Y-47145911D01*
X31144088Y-47278299D01*
X31144092Y-47278302D01*
X31299762Y-47382318D01*
X31299768Y-47382321D01*
X31299769Y-47382322D01*
X31472749Y-47453973D01*
X31656379Y-47490499D01*
X31656383Y-47490500D01*
X31656384Y-47490500D01*
X31843617Y-47490500D01*
X31843618Y-47490499D01*
X32027251Y-47453973D01*
X32200231Y-47382322D01*
X32355908Y-47278302D01*
X32488302Y-47145908D01*
X32592322Y-46990231D01*
X32663973Y-46817251D01*
X32700500Y-46633616D01*
X32700500Y-46446384D01*
X32663973Y-46262749D01*
X32592322Y-46089769D01*
X32592321Y-46089768D01*
X32592318Y-46089762D01*
X32488302Y-45934092D01*
X32488299Y-45934088D01*
X32355911Y-45801700D01*
X32355907Y-45801697D01*
X32200237Y-45697681D01*
X32200228Y-45697676D01*
X32027251Y-45626027D01*
X32027243Y-45626025D01*
X31843620Y-45589500D01*
X31843616Y-45589500D01*
X31656384Y-45589500D01*
X31656379Y-45589500D01*
X31472756Y-45626025D01*
X31472748Y-45626027D01*
X31299771Y-45697676D01*
X31299762Y-45697681D01*
X31144092Y-45801697D01*
X31144088Y-45801700D01*
X31011700Y-45934088D01*
X31011697Y-45934092D01*
X30907681Y-46089762D01*
X30907676Y-46089771D01*
X30836027Y-46262748D01*
X30836025Y-46262756D01*
X30799500Y-46446379D01*
X30160499Y-46446379D01*
X30123973Y-46262749D01*
X30052322Y-46089769D01*
X30052321Y-46089768D01*
X30052318Y-46089762D01*
X29948302Y-45934092D01*
X29948299Y-45934088D01*
X29815911Y-45801700D01*
X29815907Y-45801697D01*
X29660237Y-45697681D01*
X29660228Y-45697676D01*
X29487251Y-45626027D01*
X29487243Y-45626025D01*
X29303620Y-45589500D01*
X29303616Y-45589500D01*
X29116384Y-45589500D01*
X29116379Y-45589500D01*
X28932756Y-45626025D01*
X28932748Y-45626027D01*
X28759771Y-45697676D01*
X28759762Y-45697681D01*
X28604092Y-45801697D01*
X28604088Y-45801700D01*
X28471700Y-45934088D01*
X28471697Y-45934092D01*
X28367681Y-46089762D01*
X28367676Y-46089771D01*
X28296027Y-46262748D01*
X28296025Y-46262756D01*
X28259500Y-46446379D01*
X25080499Y-46446379D01*
X25043973Y-46262749D01*
X24972322Y-46089769D01*
X24972321Y-46089768D01*
X24972318Y-46089762D01*
X24868302Y-45934092D01*
X24868299Y-45934088D01*
X24735911Y-45801700D01*
X24735907Y-45801697D01*
X24580237Y-45697681D01*
X24580228Y-45697676D01*
X24407251Y-45626027D01*
X24407243Y-45626025D01*
X24223620Y-45589500D01*
X24223616Y-45589500D01*
X24036384Y-45589500D01*
X24036379Y-45589500D01*
X23852756Y-45626025D01*
X23852748Y-45626027D01*
X23679771Y-45697676D01*
X23679762Y-45697681D01*
X23524092Y-45801697D01*
X23524088Y-45801700D01*
X23512181Y-45813608D01*
X23450858Y-45847093D01*
X23381166Y-45842109D01*
X23325233Y-45800237D01*
X23300816Y-45734773D01*
X23300500Y-45725927D01*
X23300500Y-41960565D01*
X88724500Y-41960565D01*
X88724500Y-42059435D01*
X88750090Y-42154938D01*
X88750091Y-42154939D01*
X88750091Y-42154940D01*
X88753065Y-42160091D01*
X88799525Y-42240562D01*
X88869438Y-42310475D01*
X88955062Y-42359910D01*
X89050565Y-42385500D01*
X89050567Y-42385500D01*
X89150500Y-42385500D01*
X89217539Y-42405185D01*
X89263294Y-42457989D01*
X89274500Y-42509500D01*
X89274500Y-42559435D01*
X89300090Y-42654938D01*
X89349525Y-42740562D01*
X89419438Y-42810475D01*
X89505062Y-42859910D01*
X89600565Y-42885500D01*
X89600567Y-42885500D01*
X89699432Y-42885500D01*
X89699435Y-42885500D01*
X89776333Y-42864895D01*
X89846178Y-42866558D01*
X89904041Y-42905720D01*
X89931546Y-42969948D01*
X89928198Y-43016760D01*
X89924500Y-43030565D01*
X89924500Y-43129435D01*
X89950090Y-43224938D01*
X89950091Y-43224939D01*
X89950091Y-43224940D01*
X89953065Y-43230091D01*
X89999525Y-43310562D01*
X90069438Y-43380475D01*
X90155062Y-43429910D01*
X90250565Y-43455500D01*
X90250567Y-43455500D01*
X90350500Y-43455500D01*
X90417539Y-43475185D01*
X90463294Y-43527989D01*
X90474500Y-43579500D01*
X90474500Y-43629435D01*
X90500090Y-43724938D01*
X90549525Y-43810562D01*
X90619438Y-43880475D01*
X90705062Y-43929910D01*
X90800565Y-43955500D01*
X90800567Y-43955500D01*
X90899432Y-43955500D01*
X90899435Y-43955500D01*
X90976333Y-43934895D01*
X91046178Y-43936558D01*
X91104041Y-43975720D01*
X91131546Y-44039948D01*
X91128198Y-44086760D01*
X91124500Y-44100565D01*
X91124500Y-44199435D01*
X91150090Y-44294938D01*
X91150091Y-44294939D01*
X91150091Y-44294940D01*
X91153065Y-44300091D01*
X91199525Y-44380562D01*
X91269438Y-44450475D01*
X91355062Y-44499910D01*
X91450565Y-44525500D01*
X91450567Y-44525500D01*
X91550500Y-44525500D01*
X91617539Y-44545185D01*
X91663294Y-44597989D01*
X91674500Y-44649500D01*
X91674500Y-44699435D01*
X91700090Y-44794938D01*
X91749525Y-44880562D01*
X91819438Y-44950475D01*
X91905062Y-44999910D01*
X92000565Y-45025500D01*
X92000567Y-45025500D01*
X92099432Y-45025500D01*
X92099435Y-45025500D01*
X92194938Y-44999910D01*
X92280562Y-44950475D01*
X92350475Y-44880562D01*
X92399910Y-44794938D01*
X92425500Y-44699435D01*
X92425500Y-44600565D01*
X92399910Y-44505062D01*
X92350475Y-44419438D01*
X92280562Y-44349525D01*
X92194938Y-44300090D01*
X92099435Y-44274500D01*
X92000565Y-44274500D01*
X91999500Y-44274500D01*
X91932461Y-44254815D01*
X91886706Y-44202011D01*
X91875500Y-44150500D01*
X91875500Y-44100567D01*
X91875500Y-44100565D01*
X91849910Y-44005062D01*
X91800475Y-43919438D01*
X91730562Y-43849525D01*
X91644938Y-43800090D01*
X91549435Y-43774500D01*
X91450565Y-43774500D01*
X91373669Y-43795104D01*
X91303819Y-43793441D01*
X91245957Y-43754278D01*
X91218453Y-43690049D01*
X91221801Y-43643237D01*
X91225500Y-43629435D01*
X91225500Y-43530565D01*
X91199910Y-43435062D01*
X91150475Y-43349438D01*
X91080562Y-43279525D01*
X90994938Y-43230090D01*
X90899435Y-43204500D01*
X90800565Y-43204500D01*
X90799500Y-43204500D01*
X90732461Y-43184815D01*
X90686706Y-43132011D01*
X90675500Y-43080500D01*
X90675500Y-43030567D01*
X90675500Y-43030565D01*
X90649910Y-42935062D01*
X90600475Y-42849438D01*
X90600473Y-42849436D01*
X90596411Y-42842400D01*
X90597678Y-42841668D01*
X90575701Y-42784814D01*
X90589741Y-42716370D01*
X90638556Y-42666381D01*
X90691502Y-42652531D01*
X90691375Y-42651561D01*
X90699106Y-42650542D01*
X90699271Y-42650500D01*
X90699432Y-42650500D01*
X90699435Y-42650500D01*
X90794938Y-42624910D01*
X90880562Y-42575475D01*
X90950475Y-42505562D01*
X90999910Y-42419938D01*
X91025500Y-42324435D01*
X91025500Y-42225565D01*
X90999910Y-42130062D01*
X90950475Y-42044438D01*
X90880562Y-41974525D01*
X90794938Y-41925090D01*
X90699435Y-41899500D01*
X90600565Y-41899500D01*
X90505062Y-41925090D01*
X90505060Y-41925091D01*
X90505059Y-41925091D01*
X90419436Y-41974526D01*
X90349526Y-42044436D01*
X90300091Y-42130059D01*
X90300091Y-42130060D01*
X90300090Y-42130062D01*
X90274500Y-42225565D01*
X90274500Y-42324435D01*
X90300090Y-42419938D01*
X90349525Y-42505562D01*
X90349526Y-42505563D01*
X90353589Y-42512600D01*
X90352321Y-42513331D01*
X90374299Y-42570186D01*
X90360259Y-42638630D01*
X90311444Y-42688619D01*
X90258497Y-42702468D01*
X90258625Y-42703439D01*
X90250893Y-42704457D01*
X90250729Y-42704500D01*
X90250565Y-42704500D01*
X90173669Y-42725104D01*
X90103819Y-42723441D01*
X90045957Y-42684278D01*
X90018453Y-42620049D01*
X90021801Y-42573237D01*
X90025500Y-42559435D01*
X90025500Y-42460565D01*
X89999910Y-42365062D01*
X89950475Y-42279438D01*
X89880562Y-42209525D01*
X89794938Y-42160090D01*
X89699435Y-42134500D01*
X89600565Y-42134500D01*
X89599500Y-42134500D01*
X89532461Y-42114815D01*
X89486706Y-42062011D01*
X89475500Y-42010500D01*
X89475500Y-41960567D01*
X89475500Y-41960565D01*
X89449910Y-41865062D01*
X89400475Y-41779438D01*
X89330562Y-41709525D01*
X89244938Y-41660090D01*
X89149435Y-41634500D01*
X89050565Y-41634500D01*
X88955062Y-41660090D01*
X88955060Y-41660091D01*
X88955059Y-41660091D01*
X88869436Y-41709526D01*
X88799526Y-41779436D01*
X88750091Y-41865059D01*
X88750091Y-41865060D01*
X88750090Y-41865062D01*
X88724500Y-41960565D01*
X23300500Y-41960565D01*
X23300500Y-41450565D01*
X27899500Y-41450565D01*
X27899500Y-41549435D01*
X27925090Y-41644938D01*
X27974525Y-41730562D01*
X28044438Y-41800475D01*
X28130062Y-41849910D01*
X28225565Y-41875500D01*
X28225567Y-41875500D01*
X28324432Y-41875500D01*
X28324435Y-41875500D01*
X28419938Y-41849910D01*
X28505562Y-41800475D01*
X28575475Y-41730562D01*
X28624910Y-41644938D01*
X28650500Y-41549435D01*
X28650500Y-41450565D01*
X42124500Y-41450565D01*
X42124500Y-41549435D01*
X42150090Y-41644938D01*
X42199525Y-41730562D01*
X42269438Y-41800475D01*
X42355062Y-41849910D01*
X42450565Y-41875500D01*
X42450567Y-41875500D01*
X42549432Y-41875500D01*
X42549435Y-41875500D01*
X42644938Y-41849910D01*
X42730562Y-41800475D01*
X42800475Y-41730562D01*
X42849910Y-41644938D01*
X42875500Y-41549435D01*
X42875500Y-41450565D01*
X51624500Y-41450565D01*
X51624500Y-41549435D01*
X51650090Y-41644938D01*
X51699525Y-41730562D01*
X51769438Y-41800475D01*
X51855062Y-41849910D01*
X51950565Y-41875500D01*
X51950567Y-41875500D01*
X52049432Y-41875500D01*
X52049435Y-41875500D01*
X52144938Y-41849910D01*
X52230562Y-41800475D01*
X52300475Y-41730562D01*
X52349910Y-41644938D01*
X52375500Y-41549435D01*
X52375500Y-41450565D01*
X52359423Y-41390565D01*
X83924500Y-41390565D01*
X83924500Y-41489435D01*
X83950090Y-41584938D01*
X83999525Y-41670562D01*
X84069438Y-41740475D01*
X84155062Y-41789910D01*
X84250565Y-41815500D01*
X84250567Y-41815500D01*
X84349432Y-41815500D01*
X84349435Y-41815500D01*
X84444938Y-41789910D01*
X84530562Y-41740475D01*
X84600475Y-41670562D01*
X84649910Y-41584938D01*
X84675500Y-41489435D01*
X84675500Y-41439500D01*
X84695185Y-41372461D01*
X84747989Y-41326706D01*
X84799500Y-41315500D01*
X84899432Y-41315500D01*
X84899435Y-41315500D01*
X84994938Y-41289910D01*
X85080562Y-41240475D01*
X85150475Y-41170562D01*
X85199910Y-41084938D01*
X85225500Y-40989435D01*
X85225500Y-40950565D01*
X89599500Y-40950565D01*
X89599500Y-41049435D01*
X89625090Y-41144938D01*
X89625091Y-41144939D01*
X89625091Y-41144940D01*
X89628065Y-41150091D01*
X89674525Y-41230562D01*
X89744438Y-41300475D01*
X89830062Y-41349910D01*
X89925565Y-41375500D01*
X89925567Y-41375500D01*
X90024432Y-41375500D01*
X90024435Y-41375500D01*
X90119938Y-41349910D01*
X90119947Y-41349904D01*
X90127448Y-41346799D01*
X90127957Y-41348028D01*
X90187637Y-41333542D01*
X90253667Y-41356385D01*
X90296865Y-41411300D01*
X90298310Y-41415642D01*
X90300089Y-41419936D01*
X90300090Y-41419938D01*
X90349525Y-41505562D01*
X90419438Y-41575475D01*
X90505062Y-41624910D01*
X90600565Y-41650500D01*
X90600567Y-41650500D01*
X90699432Y-41650500D01*
X90699435Y-41650500D01*
X90794938Y-41624910D01*
X90880562Y-41575475D01*
X90950475Y-41505562D01*
X90999910Y-41419938D01*
X91025500Y-41324435D01*
X91025500Y-41225565D01*
X90999910Y-41130062D01*
X90950475Y-41044438D01*
X90880562Y-40974525D01*
X90794938Y-40925090D01*
X90699435Y-40899500D01*
X90600565Y-40899500D01*
X90505062Y-40925090D01*
X90505060Y-40925090D01*
X90505060Y-40925091D01*
X90497552Y-40928201D01*
X90497043Y-40926974D01*
X90437341Y-40941456D01*
X90371314Y-40918602D01*
X90328126Y-40863679D01*
X90326684Y-40859345D01*
X90324911Y-40855067D01*
X90324910Y-40855062D01*
X90275475Y-40769438D01*
X90205562Y-40699525D01*
X90119938Y-40650090D01*
X90024435Y-40624500D01*
X89925565Y-40624500D01*
X89830062Y-40650090D01*
X89830060Y-40650091D01*
X89830059Y-40650091D01*
X89744436Y-40699526D01*
X89674526Y-40769436D01*
X89625091Y-40855059D01*
X89625091Y-40855060D01*
X89625090Y-40855062D01*
X89599500Y-40950565D01*
X85225500Y-40950565D01*
X85225500Y-40890565D01*
X85218889Y-40865893D01*
X85217981Y-40854687D01*
X85222889Y-40831050D01*
X85223463Y-40806916D01*
X85229864Y-40797457D01*
X85232186Y-40786277D01*
X85249092Y-40769047D01*
X85262625Y-40749052D01*
X85273124Y-40744555D01*
X85281121Y-40736406D01*
X85304657Y-40731051D01*
X85326853Y-40721547D01*
X85341755Y-40722612D01*
X85349250Y-40720908D01*
X85356957Y-40723699D01*
X85373664Y-40724894D01*
X85450565Y-40745500D01*
X85450568Y-40745500D01*
X85549432Y-40745500D01*
X85549435Y-40745500D01*
X85644938Y-40719910D01*
X85730562Y-40670475D01*
X85800475Y-40600562D01*
X85849910Y-40514938D01*
X85875500Y-40419435D01*
X85875500Y-40369500D01*
X85895185Y-40302461D01*
X85947989Y-40256706D01*
X85999500Y-40245500D01*
X86099432Y-40245500D01*
X86099435Y-40245500D01*
X86194938Y-40219910D01*
X86280562Y-40170475D01*
X86350475Y-40100562D01*
X86399910Y-40014938D01*
X86417159Y-39950565D01*
X89599500Y-39950565D01*
X89599500Y-40049435D01*
X89625090Y-40144938D01*
X89674525Y-40230562D01*
X89744438Y-40300475D01*
X89830062Y-40349910D01*
X89925565Y-40375500D01*
X89925567Y-40375500D01*
X90024432Y-40375500D01*
X90024435Y-40375500D01*
X90119938Y-40349910D01*
X90205562Y-40300475D01*
X90275475Y-40230562D01*
X90324910Y-40144938D01*
X90350500Y-40049435D01*
X90350500Y-39950565D01*
X90324910Y-39855062D01*
X90275475Y-39769438D01*
X90205562Y-39699525D01*
X90119938Y-39650090D01*
X90024435Y-39624500D01*
X89925565Y-39624500D01*
X89830062Y-39650090D01*
X89830060Y-39650091D01*
X89830059Y-39650091D01*
X89744436Y-39699526D01*
X89674526Y-39769436D01*
X89625091Y-39855059D01*
X89625091Y-39855060D01*
X89625090Y-39855062D01*
X89599500Y-39950565D01*
X86417159Y-39950565D01*
X86425500Y-39919435D01*
X86425500Y-39820565D01*
X86418154Y-39793150D01*
X86417654Y-39779076D01*
X86422953Y-39758324D01*
X86423463Y-39736916D01*
X86431427Y-39725148D01*
X86434944Y-39711379D01*
X86450622Y-39696787D01*
X86462625Y-39679052D01*
X86475687Y-39673458D01*
X86486089Y-39663777D01*
X86507165Y-39659978D01*
X86526853Y-39651547D01*
X86546246Y-39652933D01*
X86554851Y-39651383D01*
X86561168Y-39654000D01*
X86573664Y-39654894D01*
X86650565Y-39675500D01*
X86650568Y-39675500D01*
X86749432Y-39675500D01*
X86749435Y-39675500D01*
X86844938Y-39649910D01*
X86930562Y-39600475D01*
X87000475Y-39530562D01*
X87049910Y-39444938D01*
X87075500Y-39349435D01*
X87075500Y-39299500D01*
X87095185Y-39232461D01*
X87147989Y-39186706D01*
X87199500Y-39175500D01*
X87299432Y-39175500D01*
X87299435Y-39175500D01*
X87394938Y-39149910D01*
X87480562Y-39100475D01*
X87550475Y-39030562D01*
X87599910Y-38944938D01*
X87625500Y-38849435D01*
X87625500Y-38750565D01*
X87621802Y-38736763D01*
X87623463Y-38666916D01*
X87662625Y-38609052D01*
X87726853Y-38581547D01*
X87773664Y-38584894D01*
X87850565Y-38605500D01*
X87850568Y-38605500D01*
X87949432Y-38605500D01*
X87949435Y-38605500D01*
X88044938Y-38579910D01*
X88130562Y-38530475D01*
X88200475Y-38460562D01*
X88206247Y-38450565D01*
X89399500Y-38450565D01*
X89399500Y-38549435D01*
X89425090Y-38644938D01*
X89474525Y-38730562D01*
X89544438Y-38800475D01*
X89630062Y-38849910D01*
X89725565Y-38875500D01*
X89725567Y-38875500D01*
X89824432Y-38875500D01*
X89824435Y-38875500D01*
X89919938Y-38849910D01*
X90005562Y-38800475D01*
X90075475Y-38730562D01*
X90124910Y-38644938D01*
X90150500Y-38549435D01*
X90150500Y-38450565D01*
X90124910Y-38355062D01*
X90075475Y-38269438D01*
X90005562Y-38199525D01*
X89919938Y-38150090D01*
X89824435Y-38124500D01*
X89725565Y-38124500D01*
X89630062Y-38150090D01*
X89630060Y-38150091D01*
X89630059Y-38150091D01*
X89544436Y-38199526D01*
X89474526Y-38269436D01*
X89425091Y-38355059D01*
X89425091Y-38355060D01*
X89425090Y-38355062D01*
X89399500Y-38450565D01*
X88206247Y-38450565D01*
X88249910Y-38374938D01*
X88275500Y-38279435D01*
X88275500Y-38216432D01*
X88278223Y-38203655D01*
X88288875Y-38183948D01*
X88295185Y-38162461D01*
X88305165Y-38153812D01*
X88311448Y-38142191D01*
X88331063Y-38131372D01*
X88347989Y-38116706D01*
X88363950Y-38113233D01*
X88372629Y-38108447D01*
X88382806Y-38109131D01*
X88399500Y-38105500D01*
X88499432Y-38105500D01*
X88499435Y-38105500D01*
X88594938Y-38079910D01*
X88680562Y-38030475D01*
X88750475Y-37960562D01*
X88799910Y-37874938D01*
X88825500Y-37779435D01*
X88825500Y-37680565D01*
X88799910Y-37585062D01*
X88750475Y-37499438D01*
X88680562Y-37429525D01*
X88594938Y-37380090D01*
X88499435Y-37354500D01*
X88400565Y-37354500D01*
X88305062Y-37380090D01*
X88305060Y-37380091D01*
X88305059Y-37380091D01*
X88219436Y-37429526D01*
X88149526Y-37499436D01*
X88100091Y-37585059D01*
X88100091Y-37585060D01*
X88100090Y-37585062D01*
X88074500Y-37680565D01*
X88074500Y-37680567D01*
X88074500Y-37730500D01*
X88054815Y-37797539D01*
X88002011Y-37843294D01*
X87950500Y-37854500D01*
X87949435Y-37854500D01*
X87850565Y-37854500D01*
X87755062Y-37880090D01*
X87755060Y-37880091D01*
X87755059Y-37880091D01*
X87669436Y-37929526D01*
X87599526Y-37999436D01*
X87550091Y-38085059D01*
X87550091Y-38085060D01*
X87550090Y-38085062D01*
X87524500Y-38180565D01*
X87524500Y-38180567D01*
X87524500Y-38279436D01*
X87528198Y-38293237D01*
X87526534Y-38363087D01*
X87487371Y-38420949D01*
X87423142Y-38448452D01*
X87376330Y-38445104D01*
X87322062Y-38430563D01*
X87299435Y-38424500D01*
X87200565Y-38424500D01*
X87105062Y-38450090D01*
X87105060Y-38450091D01*
X87105059Y-38450091D01*
X87019436Y-38499526D01*
X86949526Y-38569436D01*
X86900091Y-38655059D01*
X86900091Y-38655060D01*
X86900090Y-38655062D01*
X86874500Y-38750565D01*
X86874500Y-38750567D01*
X86874500Y-38800500D01*
X86854815Y-38867539D01*
X86802011Y-38913294D01*
X86750500Y-38924500D01*
X86749435Y-38924500D01*
X86650565Y-38924500D01*
X86555062Y-38950090D01*
X86555060Y-38950091D01*
X86555059Y-38950091D01*
X86469436Y-38999526D01*
X86399526Y-39069436D01*
X86350091Y-39155059D01*
X86350091Y-39155060D01*
X86350090Y-39155062D01*
X86324500Y-39250565D01*
X86324500Y-39250567D01*
X86324500Y-39349436D01*
X86328198Y-39363237D01*
X86326534Y-39433087D01*
X86287371Y-39490949D01*
X86223142Y-39518452D01*
X86176330Y-39515104D01*
X86099435Y-39494500D01*
X86000565Y-39494500D01*
X85905062Y-39520090D01*
X85905060Y-39520091D01*
X85905059Y-39520091D01*
X85819436Y-39569526D01*
X85749526Y-39639436D01*
X85700091Y-39725059D01*
X85700091Y-39725060D01*
X85700090Y-39725062D01*
X85674500Y-39820565D01*
X85674500Y-39820567D01*
X85674500Y-39870500D01*
X85654815Y-39937539D01*
X85602011Y-39983294D01*
X85550500Y-39994500D01*
X85549435Y-39994500D01*
X85450565Y-39994500D01*
X85355062Y-40020090D01*
X85355060Y-40020091D01*
X85355059Y-40020091D01*
X85269436Y-40069526D01*
X85199526Y-40139436D01*
X85150091Y-40225059D01*
X85150091Y-40225060D01*
X85150090Y-40225062D01*
X85124500Y-40320565D01*
X85124500Y-40320567D01*
X85124500Y-40419436D01*
X85128198Y-40433237D01*
X85126534Y-40503087D01*
X85087371Y-40560949D01*
X85023142Y-40588452D01*
X84976330Y-40585104D01*
X84934792Y-40573974D01*
X84899435Y-40564500D01*
X84800565Y-40564500D01*
X84705062Y-40590090D01*
X84705060Y-40590091D01*
X84705059Y-40590091D01*
X84619436Y-40639526D01*
X84549526Y-40709436D01*
X84500091Y-40795059D01*
X84500091Y-40795060D01*
X84500090Y-40795062D01*
X84474500Y-40890565D01*
X84474500Y-40890567D01*
X84474500Y-40940500D01*
X84454815Y-41007539D01*
X84402011Y-41053294D01*
X84350500Y-41064500D01*
X84349435Y-41064500D01*
X84250565Y-41064500D01*
X84155062Y-41090090D01*
X84155060Y-41090091D01*
X84155059Y-41090091D01*
X84069436Y-41139526D01*
X83999526Y-41209436D01*
X83950091Y-41295059D01*
X83950091Y-41295060D01*
X83950090Y-41295062D01*
X83924500Y-41390565D01*
X52359423Y-41390565D01*
X52349910Y-41355062D01*
X52300475Y-41269438D01*
X52230562Y-41199525D01*
X52144938Y-41150090D01*
X52049435Y-41124500D01*
X51950565Y-41124500D01*
X51855062Y-41150090D01*
X51855060Y-41150091D01*
X51855059Y-41150091D01*
X51769436Y-41199526D01*
X51699526Y-41269436D01*
X51650091Y-41355059D01*
X51650091Y-41355060D01*
X51650090Y-41355062D01*
X51624500Y-41450565D01*
X42875500Y-41450565D01*
X42849910Y-41355062D01*
X42800475Y-41269438D01*
X42730562Y-41199525D01*
X42644938Y-41150090D01*
X42549435Y-41124500D01*
X42450565Y-41124500D01*
X42355062Y-41150090D01*
X42355060Y-41150091D01*
X42355059Y-41150091D01*
X42269436Y-41199526D01*
X42199526Y-41269436D01*
X42150091Y-41355059D01*
X42150091Y-41355060D01*
X42150090Y-41355062D01*
X42124500Y-41450565D01*
X28650500Y-41450565D01*
X28624910Y-41355062D01*
X28575475Y-41269438D01*
X28505562Y-41199525D01*
X28419938Y-41150090D01*
X28324435Y-41124500D01*
X28225565Y-41124500D01*
X28130062Y-41150090D01*
X28130060Y-41150091D01*
X28130059Y-41150091D01*
X28044436Y-41199526D01*
X27974526Y-41269436D01*
X27925091Y-41355059D01*
X27925091Y-41355060D01*
X27925090Y-41355062D01*
X27899500Y-41450565D01*
X23300500Y-41450565D01*
X23300500Y-40850565D01*
X59424500Y-40850565D01*
X59424500Y-40949435D01*
X59450090Y-41044938D01*
X59450091Y-41044939D01*
X59450091Y-41044940D01*
X59452686Y-41049435D01*
X59499525Y-41130562D01*
X59569438Y-41200475D01*
X59655062Y-41249910D01*
X59750565Y-41275500D01*
X59750567Y-41275500D01*
X59849433Y-41275500D01*
X59849435Y-41275500D01*
X59944938Y-41249910D01*
X60030562Y-41200475D01*
X60100475Y-41130562D01*
X60149910Y-41044938D01*
X60175500Y-40949435D01*
X60175500Y-40850565D01*
X60149910Y-40755062D01*
X60100475Y-40669438D01*
X60030562Y-40599525D01*
X59944938Y-40550090D01*
X59849435Y-40524500D01*
X59750565Y-40524500D01*
X59655062Y-40550090D01*
X59655060Y-40550091D01*
X59655059Y-40550091D01*
X59569436Y-40599526D01*
X59499526Y-40669436D01*
X59450091Y-40755059D01*
X59450091Y-40755060D01*
X59450090Y-40755062D01*
X59424500Y-40850565D01*
X23300500Y-40850565D01*
X23300500Y-39566379D01*
X28259500Y-39566379D01*
X28259500Y-39753620D01*
X28296025Y-39937243D01*
X28296027Y-39937251D01*
X28367676Y-40110228D01*
X28367681Y-40110237D01*
X28471697Y-40265907D01*
X28471700Y-40265911D01*
X28604088Y-40398299D01*
X28604092Y-40398302D01*
X28759762Y-40502318D01*
X28759771Y-40502323D01*
X28790229Y-40514939D01*
X28932749Y-40573973D01*
X29116379Y-40610499D01*
X29116383Y-40610500D01*
X29116384Y-40610500D01*
X29303617Y-40610500D01*
X29303618Y-40610499D01*
X29487251Y-40573973D01*
X29660231Y-40502322D01*
X29815908Y-40398302D01*
X29948302Y-40265908D01*
X30052322Y-40110231D01*
X30123973Y-39937251D01*
X30155140Y-39780565D01*
X30674500Y-39780565D01*
X30674500Y-39879435D01*
X30700090Y-39974938D01*
X30749525Y-40060562D01*
X30819438Y-40130475D01*
X30905062Y-40179910D01*
X31000565Y-40205500D01*
X31000567Y-40205500D01*
X31099432Y-40205500D01*
X31099435Y-40205500D01*
X31194938Y-40179910D01*
X31280562Y-40130475D01*
X31350475Y-40060562D01*
X31399910Y-39974938D01*
X31425500Y-39879435D01*
X31425500Y-39780565D01*
X34574500Y-39780565D01*
X34574500Y-39879435D01*
X34600090Y-39974938D01*
X34649525Y-40060562D01*
X34719438Y-40130475D01*
X34805062Y-40179910D01*
X34900565Y-40205500D01*
X34900567Y-40205500D01*
X34999432Y-40205500D01*
X34999435Y-40205500D01*
X35094938Y-40179910D01*
X35180562Y-40130475D01*
X35250475Y-40060562D01*
X35299910Y-39974938D01*
X35306441Y-39950565D01*
X42149500Y-39950565D01*
X42149500Y-40049435D01*
X42175090Y-40144938D01*
X42224525Y-40230562D01*
X42294438Y-40300475D01*
X42380062Y-40349910D01*
X42475565Y-40375500D01*
X42475567Y-40375500D01*
X42574432Y-40375500D01*
X42574435Y-40375500D01*
X42669938Y-40349910D01*
X42755562Y-40300475D01*
X42825475Y-40230562D01*
X42874910Y-40144938D01*
X42900500Y-40049435D01*
X42900500Y-39950565D01*
X42874910Y-39855062D01*
X42825475Y-39769438D01*
X42755562Y-39699525D01*
X42669938Y-39650090D01*
X42574435Y-39624500D01*
X42475565Y-39624500D01*
X42380062Y-39650090D01*
X42380060Y-39650091D01*
X42380059Y-39650091D01*
X42294436Y-39699526D01*
X42224526Y-39769436D01*
X42175091Y-39855059D01*
X42175091Y-39855060D01*
X42175090Y-39855062D01*
X42149500Y-39950565D01*
X35306441Y-39950565D01*
X35325500Y-39879435D01*
X35325500Y-39780565D01*
X35299910Y-39685062D01*
X35250475Y-39599438D01*
X35180562Y-39529525D01*
X35094938Y-39480090D01*
X34999435Y-39454500D01*
X34900565Y-39454500D01*
X34805062Y-39480090D01*
X34805060Y-39480091D01*
X34805059Y-39480091D01*
X34719436Y-39529526D01*
X34649526Y-39599436D01*
X34600091Y-39685059D01*
X34600091Y-39685060D01*
X34600090Y-39685062D01*
X34574500Y-39780565D01*
X31425500Y-39780565D01*
X31399910Y-39685062D01*
X31350475Y-39599438D01*
X31280562Y-39529525D01*
X31194938Y-39480090D01*
X31099435Y-39454500D01*
X31000565Y-39454500D01*
X30905062Y-39480090D01*
X30905060Y-39480091D01*
X30905059Y-39480091D01*
X30819436Y-39529526D01*
X30749526Y-39599436D01*
X30700091Y-39685059D01*
X30700091Y-39685060D01*
X30700090Y-39685062D01*
X30674500Y-39780565D01*
X30155140Y-39780565D01*
X30160500Y-39753616D01*
X30160500Y-39566384D01*
X30123973Y-39382749D01*
X30052322Y-39209769D01*
X30052321Y-39209768D01*
X30052318Y-39209762D01*
X29948302Y-39054092D01*
X29948299Y-39054088D01*
X29815911Y-38921700D01*
X29815907Y-38921697D01*
X29664515Y-38820540D01*
X29664514Y-38820539D01*
X29660238Y-38817682D01*
X29660228Y-38817676D01*
X29487251Y-38746027D01*
X29487243Y-38746025D01*
X29384383Y-38725565D01*
X40574500Y-38725565D01*
X40574500Y-38824435D01*
X40600090Y-38919938D01*
X40600091Y-38919939D01*
X40600091Y-38919940D01*
X40601106Y-38921698D01*
X40649525Y-39005562D01*
X40719438Y-39075475D01*
X40805062Y-39124910D01*
X40900565Y-39150500D01*
X40900567Y-39150500D01*
X40999432Y-39150500D01*
X40999435Y-39150500D01*
X41094938Y-39124910D01*
X41180562Y-39075475D01*
X41250475Y-39005562D01*
X41299910Y-38919938D01*
X41325500Y-38824435D01*
X41325500Y-38725565D01*
X41299910Y-38630062D01*
X41250475Y-38544438D01*
X41180562Y-38474525D01*
X41094938Y-38425090D01*
X40999435Y-38399500D01*
X40900565Y-38399500D01*
X40805062Y-38425090D01*
X40805060Y-38425091D01*
X40805059Y-38425091D01*
X40719436Y-38474526D01*
X40649526Y-38544436D01*
X40600091Y-38630059D01*
X40600091Y-38630060D01*
X40600090Y-38630062D01*
X40574500Y-38725565D01*
X29384383Y-38725565D01*
X29303613Y-38709499D01*
X29298631Y-38709008D01*
X29233845Y-38682844D01*
X29193489Y-38625807D01*
X29190377Y-38556006D01*
X29223108Y-38497928D01*
X29290475Y-38430562D01*
X29339910Y-38344938D01*
X29365500Y-38249435D01*
X29365500Y-38150565D01*
X29339910Y-38055062D01*
X29290475Y-37969438D01*
X29220562Y-37899525D01*
X29134938Y-37850090D01*
X29039435Y-37824500D01*
X28940565Y-37824500D01*
X28845062Y-37850090D01*
X28845060Y-37850091D01*
X28845059Y-37850091D01*
X28759436Y-37899526D01*
X28689526Y-37969436D01*
X28640091Y-38055059D01*
X28640091Y-38055060D01*
X28640090Y-38055062D01*
X28614500Y-38150565D01*
X28614500Y-38249435D01*
X28640090Y-38344938D01*
X28689525Y-38430562D01*
X28759438Y-38500475D01*
X28845062Y-38549910D01*
X28845066Y-38549911D01*
X28849065Y-38551568D01*
X28851923Y-38553871D01*
X28852101Y-38553974D01*
X28852085Y-38554001D01*
X28903468Y-38595409D01*
X28925533Y-38661703D01*
X28908254Y-38729402D01*
X28857117Y-38777013D01*
X28849065Y-38780690D01*
X28759772Y-38817676D01*
X28759762Y-38817681D01*
X28604092Y-38921697D01*
X28604088Y-38921700D01*
X28471700Y-39054088D01*
X28471697Y-39054092D01*
X28367681Y-39209762D01*
X28367676Y-39209771D01*
X28296027Y-39382748D01*
X28296025Y-39382756D01*
X28259500Y-39566379D01*
X23300500Y-39566379D01*
X23300500Y-37585565D01*
X35349500Y-37585565D01*
X35349500Y-37684435D01*
X35375090Y-37779938D01*
X35424525Y-37865562D01*
X35494438Y-37935475D01*
X35580062Y-37984910D01*
X35675565Y-38010500D01*
X35675567Y-38010500D01*
X35774432Y-38010500D01*
X35774435Y-38010500D01*
X35869938Y-37984910D01*
X35955562Y-37935475D01*
X36025475Y-37865562D01*
X36074910Y-37779938D01*
X36100500Y-37684435D01*
X36100500Y-37585565D01*
X36074910Y-37490062D01*
X36025475Y-37404438D01*
X35955562Y-37334525D01*
X35869938Y-37285090D01*
X35774435Y-37259500D01*
X35675565Y-37259500D01*
X35580062Y-37285090D01*
X35580060Y-37285091D01*
X35580059Y-37285091D01*
X35494436Y-37334526D01*
X35424526Y-37404436D01*
X35375091Y-37490059D01*
X35375091Y-37490060D01*
X35375090Y-37490062D01*
X35349500Y-37585565D01*
X23300500Y-37585565D01*
X23300500Y-36950565D01*
X51349500Y-36950565D01*
X51349500Y-37049435D01*
X51375090Y-37144938D01*
X51424525Y-37230562D01*
X51494438Y-37300475D01*
X51580062Y-37349910D01*
X51675565Y-37375500D01*
X51675567Y-37375500D01*
X51774432Y-37375500D01*
X51774435Y-37375500D01*
X51869938Y-37349910D01*
X51955562Y-37300475D01*
X52025475Y-37230562D01*
X52074910Y-37144938D01*
X52100500Y-37049435D01*
X52100500Y-36966665D01*
X53555300Y-36966665D01*
X53555300Y-37065535D01*
X53580890Y-37161038D01*
X53630325Y-37246662D01*
X53700238Y-37316575D01*
X53785862Y-37366010D01*
X53881365Y-37391600D01*
X53881367Y-37391600D01*
X53980232Y-37391600D01*
X53980235Y-37391600D01*
X54075738Y-37366010D01*
X54161362Y-37316575D01*
X54231275Y-37246662D01*
X54280710Y-37161038D01*
X54306300Y-37065535D01*
X54306300Y-36966665D01*
X54280710Y-36871162D01*
X54231275Y-36785538D01*
X54161362Y-36715625D01*
X54075738Y-36666190D01*
X53980235Y-36640600D01*
X53881365Y-36640600D01*
X53785862Y-36666190D01*
X53785860Y-36666191D01*
X53785859Y-36666191D01*
X53700236Y-36715626D01*
X53630326Y-36785536D01*
X53580891Y-36871159D01*
X53580891Y-36871160D01*
X53580890Y-36871162D01*
X53555300Y-36966665D01*
X52100500Y-36966665D01*
X52100500Y-36950565D01*
X52074910Y-36855062D01*
X52025475Y-36769438D01*
X51955562Y-36699525D01*
X51869938Y-36650090D01*
X51774435Y-36624500D01*
X51675565Y-36624500D01*
X51580062Y-36650090D01*
X51580060Y-36650091D01*
X51580059Y-36650091D01*
X51494436Y-36699526D01*
X51424526Y-36769436D01*
X51375091Y-36855059D01*
X51375091Y-36855060D01*
X51375090Y-36855062D01*
X51349500Y-36950565D01*
X23300500Y-36950565D01*
X23300500Y-35226379D01*
X28259500Y-35226379D01*
X28259500Y-35413620D01*
X28296025Y-35597243D01*
X28296027Y-35597251D01*
X28367676Y-35770228D01*
X28367681Y-35770237D01*
X28471697Y-35925907D01*
X28471700Y-35925911D01*
X28604088Y-36058299D01*
X28604092Y-36058302D01*
X28759762Y-36162318D01*
X28759768Y-36162321D01*
X28759769Y-36162322D01*
X28932749Y-36233973D01*
X29116379Y-36270499D01*
X29116383Y-36270500D01*
X29116384Y-36270500D01*
X29303617Y-36270500D01*
X29303618Y-36270499D01*
X29487251Y-36233973D01*
X29660231Y-36162322D01*
X29815908Y-36058302D01*
X29943422Y-35930788D01*
X39888388Y-35930788D01*
X39888388Y-36029658D01*
X39913978Y-36125161D01*
X39963413Y-36210785D01*
X40033326Y-36280698D01*
X40118950Y-36330133D01*
X40214453Y-36355723D01*
X40214455Y-36355723D01*
X40313320Y-36355723D01*
X40313323Y-36355723D01*
X40408826Y-36330133D01*
X40494450Y-36280698D01*
X40564363Y-36210785D01*
X40613798Y-36125161D01*
X40639388Y-36029658D01*
X40639388Y-35930788D01*
X40613798Y-35835285D01*
X40564363Y-35749661D01*
X40494450Y-35679748D01*
X40408826Y-35630313D01*
X40313323Y-35604723D01*
X40214453Y-35604723D01*
X40118950Y-35630313D01*
X40118948Y-35630314D01*
X40118947Y-35630314D01*
X40033324Y-35679749D01*
X39963414Y-35749659D01*
X39913979Y-35835282D01*
X39913979Y-35835283D01*
X39913978Y-35835285D01*
X39888388Y-35930788D01*
X29943422Y-35930788D01*
X29948302Y-35925908D01*
X29968197Y-35896132D01*
X29996504Y-35853770D01*
X29996505Y-35853768D01*
X30052315Y-35770242D01*
X30052318Y-35770237D01*
X30052322Y-35770231D01*
X30123973Y-35597251D01*
X30160500Y-35413616D01*
X30160500Y-35226384D01*
X30148278Y-35164938D01*
X30127729Y-35061629D01*
X30125516Y-35050511D01*
X30124533Y-35045565D01*
X33787000Y-35045565D01*
X33787000Y-35144435D01*
X33812590Y-35239938D01*
X33862025Y-35325562D01*
X33931938Y-35395475D01*
X34017562Y-35444910D01*
X34113065Y-35470500D01*
X34113067Y-35470500D01*
X34211932Y-35470500D01*
X34211935Y-35470500D01*
X34307438Y-35444910D01*
X34393062Y-35395475D01*
X34462975Y-35325562D01*
X34512410Y-35239938D01*
X34538000Y-35144435D01*
X34538000Y-35045565D01*
X34512410Y-34950062D01*
X34462975Y-34864438D01*
X34393062Y-34794525D01*
X34307438Y-34745090D01*
X34211935Y-34719500D01*
X34113065Y-34719500D01*
X34017562Y-34745090D01*
X34017560Y-34745091D01*
X34017559Y-34745091D01*
X33931936Y-34794526D01*
X33862026Y-34864436D01*
X33812591Y-34950059D01*
X33812591Y-34950060D01*
X33812590Y-34950062D01*
X33787000Y-35045565D01*
X30124533Y-35045565D01*
X30123973Y-35042749D01*
X30062980Y-34895500D01*
X30052323Y-34869771D01*
X30052318Y-34869762D01*
X29948302Y-34714092D01*
X29948299Y-34714088D01*
X29815911Y-34581700D01*
X29815907Y-34581697D01*
X29769315Y-34550565D01*
X40324500Y-34550565D01*
X40324500Y-34649435D01*
X40350090Y-34744938D01*
X40350091Y-34744939D01*
X40350091Y-34744940D01*
X40363337Y-34767882D01*
X40399525Y-34830562D01*
X40469438Y-34900475D01*
X40555062Y-34949910D01*
X40650565Y-34975500D01*
X40650567Y-34975500D01*
X40749432Y-34975500D01*
X40749435Y-34975500D01*
X40767853Y-34970565D01*
X93324500Y-34970565D01*
X93324500Y-35069435D01*
X93350090Y-35164938D01*
X93399525Y-35250562D01*
X93469438Y-35320475D01*
X93555062Y-35369910D01*
X93650565Y-35395500D01*
X93650567Y-35395500D01*
X93749432Y-35395500D01*
X93749435Y-35395500D01*
X93844938Y-35369910D01*
X93930562Y-35320475D01*
X94000475Y-35250562D01*
X94049910Y-35164938D01*
X94075500Y-35069435D01*
X94075500Y-34970565D01*
X94049910Y-34875062D01*
X94000475Y-34789438D01*
X93930562Y-34719525D01*
X93844938Y-34670090D01*
X93749435Y-34644500D01*
X93650565Y-34644500D01*
X93555062Y-34670090D01*
X93555060Y-34670091D01*
X93555059Y-34670091D01*
X93469436Y-34719526D01*
X93399526Y-34789436D01*
X93350091Y-34875059D01*
X93350091Y-34875060D01*
X93350090Y-34875062D01*
X93324500Y-34970565D01*
X40767853Y-34970565D01*
X40844938Y-34949910D01*
X40930562Y-34900475D01*
X41000475Y-34830562D01*
X41049910Y-34744938D01*
X41075500Y-34649435D01*
X41075500Y-34550565D01*
X41054064Y-34470565D01*
X92324500Y-34470565D01*
X92324500Y-34569435D01*
X92350090Y-34664938D01*
X92350091Y-34664939D01*
X92350091Y-34664940D01*
X92353065Y-34670091D01*
X92399525Y-34750562D01*
X92469438Y-34820475D01*
X92555062Y-34869910D01*
X92650565Y-34895500D01*
X92650567Y-34895500D01*
X92749432Y-34895500D01*
X92749435Y-34895500D01*
X92844938Y-34869910D01*
X92930562Y-34820475D01*
X93000475Y-34750562D01*
X93049910Y-34664938D01*
X93075500Y-34569435D01*
X93075500Y-34470565D01*
X93049910Y-34375062D01*
X93000475Y-34289438D01*
X92930562Y-34219525D01*
X92844938Y-34170090D01*
X92749435Y-34144500D01*
X92650565Y-34144500D01*
X92555062Y-34170090D01*
X92555060Y-34170091D01*
X92555059Y-34170091D01*
X92469436Y-34219526D01*
X92399526Y-34289436D01*
X92350091Y-34375059D01*
X92350091Y-34375060D01*
X92350090Y-34375062D01*
X92324500Y-34470565D01*
X41054064Y-34470565D01*
X41049910Y-34455062D01*
X41000475Y-34369438D01*
X40930562Y-34299525D01*
X40844938Y-34250090D01*
X40749435Y-34224500D01*
X40650565Y-34224500D01*
X40555062Y-34250090D01*
X40555060Y-34250091D01*
X40555059Y-34250091D01*
X40469436Y-34299526D01*
X40399526Y-34369436D01*
X40350091Y-34455059D01*
X40350091Y-34455060D01*
X40350090Y-34455062D01*
X40324500Y-34550565D01*
X29769315Y-34550565D01*
X29660237Y-34477681D01*
X29660228Y-34477676D01*
X29487251Y-34406027D01*
X29487243Y-34406025D01*
X29303620Y-34369500D01*
X29303616Y-34369500D01*
X29116384Y-34369500D01*
X29116379Y-34369500D01*
X28932756Y-34406025D01*
X28932748Y-34406027D01*
X28759771Y-34477676D01*
X28759762Y-34477681D01*
X28604092Y-34581697D01*
X28604088Y-34581700D01*
X28471700Y-34714088D01*
X28471697Y-34714092D01*
X28367681Y-34869762D01*
X28367676Y-34869771D01*
X28296027Y-35042748D01*
X28296025Y-35042756D01*
X28259500Y-35226379D01*
X23300500Y-35226379D01*
X23300500Y-33424500D01*
X23320185Y-33357461D01*
X23372989Y-33311706D01*
X23424500Y-33300500D01*
X112994384Y-33300500D01*
X113061423Y-33320185D01*
G37*
%TD.AperFunction*%
%TD*%
D12*
X135475000Y-50700000D03*
X133775000Y-60300000D03*
X94275000Y-54500000D03*
X83575000Y-56516000D03*
X59500000Y-64775000D03*
X95350000Y-49135000D03*
X137140000Y-44700000D03*
X51725000Y-41000000D03*
X117580000Y-47220000D03*
X132650000Y-57350000D03*
X121580000Y-43800000D03*
X138060000Y-50100000D03*
X102100000Y-43200000D03*
X103400000Y-50505000D03*
X56500000Y-40250000D03*
X46725000Y-59365000D03*
X101475000Y-50980000D03*
X123580000Y-42280000D03*
X35750000Y-55175000D03*
X103651000Y-55365000D03*
X134430000Y-57300000D03*
X96550000Y-49135000D03*
X133875000Y-59100000D03*
X100275000Y-50980000D03*
X45025000Y-35000000D03*
X96675000Y-54500000D03*
X142080000Y-47100000D03*
X120170000Y-39400000D03*
X84055000Y-54490000D03*
X127580000Y-40380000D03*
X135475000Y-57300000D03*
X133775000Y-45300000D03*
X105315000Y-54790000D03*
X36250000Y-55425000D03*
X103651000Y-52515000D03*
X140340000Y-43500000D03*
X102825000Y-53000000D03*
X93225000Y-53000000D03*
X99075000Y-50980000D03*
X83430000Y-52715000D03*
X62500000Y-65950000D03*
X95050000Y-50755000D03*
X58900000Y-50700000D03*
X133775000Y-57300000D03*
X75770000Y-58550000D03*
X132650000Y-42250000D03*
X102770000Y-44700000D03*
X133229999Y-60300000D03*
X100150000Y-49135000D03*
X133775000Y-44700000D03*
X92025000Y-53000000D03*
X108170000Y-40540000D03*
X30738266Y-53088225D03*
X96250000Y-50755000D03*
X133775000Y-53700000D03*
X131525000Y-46500000D03*
X133875000Y-52500000D03*
X104170000Y-40920000D03*
X42050000Y-62830000D03*
X99225000Y-53000000D03*
X102250000Y-50755000D03*
X37250000Y-48925000D03*
X126170000Y-48140000D03*
X103651000Y-53115000D03*
X129960000Y-48300000D03*
X94425000Y-53000000D03*
X42050000Y-61560000D03*
X65525000Y-63950000D03*
X92025000Y-42000000D03*
X57700000Y-62275000D03*
X116170000Y-40160000D03*
X99075000Y-54500000D03*
X101475000Y-54500000D03*
X36625000Y-54700000D03*
X100275000Y-54500000D03*
X101050000Y-50755000D03*
X81770000Y-57550000D03*
X35250000Y-48575000D03*
X58300000Y-65150000D03*
X99850000Y-50755000D03*
X134430000Y-59100000D03*
X45225000Y-37500000D03*
X133775000Y-48300000D03*
X98650000Y-50755000D03*
X133875000Y-48900000D03*
X39074999Y-53250000D03*
X97750000Y-49135000D03*
X95625000Y-53000000D03*
X112170000Y-42060000D03*
X136125000Y-45300000D03*
X53475000Y-63950000D03*
X92025000Y-40000000D03*
X89625000Y-53000000D03*
X30725000Y-41500000D03*
X95475000Y-54500000D03*
X64900000Y-56900000D03*
X49725000Y-66500000D03*
X31825000Y-36365000D03*
X101625000Y-53000000D03*
X63700000Y-66349999D03*
X42050000Y-57170000D03*
X113580000Y-46460000D03*
X83430000Y-50865000D03*
X105315000Y-53590000D03*
X36750000Y-55425000D03*
X135475000Y-50100000D03*
X90825000Y-53000000D03*
X59500000Y-60625000D03*
X98025000Y-53000000D03*
X36750000Y-49775000D03*
X64300000Y-66750000D03*
X132650000Y-62050000D03*
X103651000Y-51315000D03*
X96675000Y-50980000D03*
X86025000Y-53000000D03*
X53475000Y-61450000D03*
X83430000Y-51515000D03*
X96825000Y-53000000D03*
X133775000Y-50700000D03*
X81480000Y-59050000D03*
X93225000Y-54500000D03*
X102550000Y-49135000D03*
X97875000Y-50980000D03*
X43200000Y-53725000D03*
X84574000Y-53590000D03*
X97450000Y-50755000D03*
X110770000Y-48300000D03*
X45475000Y-40000000D03*
X102675000Y-54500000D03*
X97875000Y-54500000D03*
X130560000Y-44700000D03*
X133875000Y-47100000D03*
X55900000Y-40650000D03*
X95475000Y-50980000D03*
X133830000Y-63300000D03*
X92025000Y-41000000D03*
X32966779Y-51169323D03*
X101350000Y-49135000D03*
X82285000Y-53590000D03*
X103750000Y-49135000D03*
X133775000Y-50100000D03*
X34750000Y-48925000D03*
X87225000Y-53000000D03*
X103400000Y-53815000D03*
X135475000Y-53700000D03*
X100425000Y-53000000D03*
X92025000Y-43000000D03*
X133875000Y-55500000D03*
X59500000Y-50500000D03*
X88425000Y-53000000D03*
X65525000Y-61450000D03*
X57700000Y-64775000D03*
X84574000Y-54190000D03*
X98950000Y-49135000D03*
X102675000Y-50980000D03*
X94425000Y-50980000D03*
X133875000Y-43500000D03*
X133775000Y-62100000D03*
X133775000Y-54900000D03*
X106170000Y-42440000D03*
X61900000Y-66150000D03*
X45800000Y-50275000D03*
X103176000Y-52390000D03*
X84675000Y-53000000D03*
X103651000Y-54765000D03*
X91450000Y-37675000D03*
X136125000Y-44700000D03*
X79480000Y-59050000D03*
X40950000Y-38775000D03*
X56725000Y-68500000D03*
X45950000Y-57170000D03*
X56725000Y-67500000D03*
X56725000Y-66500000D03*
X41275000Y-59365000D03*
X30475000Y-54500000D03*
X56725000Y-69500000D03*
X52000000Y-41500000D03*
X42500000Y-41500000D03*
X59800000Y-40900000D03*
X32525000Y-54500000D03*
X69500000Y-50600000D03*
X28975000Y-53000000D03*
X51725000Y-37000000D03*
X58900000Y-62275000D03*
X34250000Y-55262500D03*
X59864700Y-48439700D03*
X55050000Y-68500000D03*
X82866700Y-51215000D03*
X39987500Y-52750000D03*
X30411329Y-56062563D03*
X32725000Y-56000000D03*
X40162500Y-51250000D03*
X29836871Y-47099923D03*
X33750000Y-47837500D03*
X45950000Y-60635000D03*
X45950000Y-61905000D03*
X62850000Y-50537500D03*
X33225000Y-47880800D03*
X45450000Y-48037500D03*
X134950000Y-56137500D03*
X102550000Y-52137500D03*
X82250000Y-51337500D03*
X41250000Y-48037500D03*
X28275000Y-41500000D03*
X31050000Y-39830000D03*
X35725000Y-37635000D03*
X89000000Y-53975000D03*
X90650000Y-41275000D03*
X85400000Y-53975000D03*
X93800000Y-53525000D03*
X89625000Y-54000000D03*
X89775000Y-38500000D03*
X93800000Y-53975000D03*
X96200000Y-53975000D03*
X90825000Y-54000000D03*
X101725000Y-54000000D03*
X101000000Y-53975000D03*
X97400000Y-53975000D03*
X89975000Y-41000000D03*
X100525000Y-54000000D03*
X86600000Y-53975000D03*
X85875000Y-54000000D03*
X87225000Y-54000000D03*
X92600000Y-53975000D03*
X42525000Y-40000000D03*
X95725000Y-54000000D03*
X28990000Y-38200000D03*
X99800000Y-53975000D03*
X98600000Y-53975000D03*
X88275000Y-54000000D03*
X91400000Y-53975000D03*
X99325000Y-54000000D03*
X90200000Y-53975000D03*
X92600000Y-53525000D03*
X98125000Y-54000000D03*
X89975000Y-40000000D03*
X34950000Y-39830000D03*
X94525000Y-54000000D03*
X91875000Y-54000000D03*
X95000000Y-53975000D03*
X40263888Y-35980223D03*
X87800000Y-53975000D03*
X90650000Y-42275000D03*
X96925000Y-54000000D03*
X102200000Y-53975000D03*
X89100000Y-52366000D03*
X89100000Y-42010000D03*
X89650000Y-51423000D03*
X89650000Y-42510000D03*
X90300000Y-52366000D03*
X90300000Y-43080000D03*
X90850000Y-51423000D03*
X90850000Y-43580000D03*
X91500000Y-52366000D03*
X91500000Y-44150000D03*
X92050000Y-51423000D03*
X92050000Y-44650000D03*
X92700000Y-52366000D03*
X92700000Y-34520000D03*
X93700000Y-51673000D03*
X93700000Y-35020000D03*
X135000000Y-62100000D03*
X91300000Y-67200000D03*
X53930800Y-37016100D03*
X43200000Y-51100000D03*
X84850000Y-54880000D03*
X84850000Y-56834000D03*
X84350000Y-55723000D03*
X84350000Y-56334000D03*
X86050000Y-54880000D03*
X86050000Y-57783000D03*
X85500000Y-55823000D03*
X85500000Y-58283000D03*
X87250000Y-54880000D03*
X87250000Y-59732000D03*
X86700000Y-55823000D03*
X86700000Y-59232000D03*
X88450000Y-54880000D03*
X88450000Y-60681000D03*
X87900000Y-55823000D03*
X87900000Y-61181000D03*
X89650000Y-54880000D03*
X89650000Y-62630000D03*
X89100000Y-55823000D03*
X89100000Y-62130000D03*
X90850000Y-54880000D03*
X90850000Y-63579000D03*
X90300000Y-55823000D03*
X90300000Y-64078999D03*
X92050000Y-54880000D03*
X92050000Y-65528000D03*
X91500000Y-55823000D03*
X91500000Y-65028000D03*
X93700000Y-55130000D03*
X93700000Y-66477000D03*
X92700000Y-55823000D03*
X92700000Y-66977000D03*
X86050000Y-51423000D03*
X86050000Y-39870000D03*
X86700000Y-52366000D03*
X86700000Y-39300000D03*
X87250000Y-51423000D03*
X87250000Y-38800000D03*
X87900000Y-52366000D03*
X87900000Y-38230000D03*
X88450000Y-51423000D03*
X88450000Y-37730000D03*
X105125000Y-52090000D03*
X82025000Y-62190000D03*
X84300000Y-52366000D03*
X84300000Y-41440000D03*
X84850000Y-51423000D03*
X84850000Y-40940000D03*
X85500000Y-52366000D03*
X85500000Y-40370000D03*
X40700000Y-34600000D03*
X34162500Y-35095000D03*
X45800000Y-52900000D03*
D13*
X26100000Y-75600000D03*
X139600000Y-39600000D03*
X31750000Y-65380000D03*
X29210000Y-65380000D03*
X26670000Y-65380000D03*
X24130000Y-65380000D03*
X31750000Y-55960000D03*
X29210000Y-55960000D03*
X26670000Y-55960000D03*
X24130000Y-55960000D03*
X45100000Y-75100000D03*
X31750000Y-46540000D03*
X29210000Y-46540000D03*
X26670000Y-46540000D03*
X24130000Y-46540000D03*
X114600000Y-36100000D03*
X29210000Y-39660000D03*
X26670000Y-39660000D03*
X29210000Y-35320000D03*
X26670000Y-35320000D03*
M02*
